<svg width="71" height="68" viewBox="0 0 71 68" fill="none" xmlns="http://www.w3.org/2000/svg">
<path d="M55.965 34.3151C55.965 34.3151 54.8404 34.2375 54.9441 36.6529C55.0477 39.0683 55.3048 40.3562 55.3048 40.3562C55.3048 40.3562 55.2707 40.8907 54.8376 40.7859C54.4045 40.6812 53.5894 40.1603 53.1875 40.5493C52.7857 40.9383 52.9191 41.5734 53.4715 42.3037C54.0239 43.034 55.1755 44.6755 55.2792 44.8251C55.3829 44.9747 55.4212 45.2454 55.1145 45.2182C54.8078 45.191 52.736 44.5191 52.4605 45.4807C52.185 46.4422 54.0779 48.2333 54.2809 48.4332C54.484 48.6331 54.4939 48.7583 54.4116 48.8793C54.3292 49.0003 53.6561 48.7107 53.0583 48.5434C52.4605 48.3761 51.7363 48.2795 51.627 48.8467C51.5176 49.4138 52.3497 51.0743 55.4695 52.8179L56.9704 53.5359L58.3904 52.6683C61.3128 50.6283 61.9674 48.9024 61.7984 48.3489C61.6294 47.7954 60.918 47.9586 60.35 48.183C59.782 48.4074 59.1317 48.7596 59.0365 48.6481C58.9414 48.5366 58.94 48.4087 59.1217 48.1911C59.3035 47.9735 60.9975 46.0151 60.6241 45.0795C60.2506 44.1438 58.2584 45.0169 57.9559 45.0727C57.6534 45.1284 57.6648 44.8523 57.75 44.6973C57.8352 44.5423 58.8122 42.7933 59.2864 42.0154C59.7607 41.2375 59.8445 40.6037 59.3873 40.2474C58.93 39.8911 58.1888 40.4949 57.7699 40.6418C57.351 40.7887 57.2601 40.2569 57.2601 40.2569C57.2601 40.2569 57.3822 38.9527 57.2331 36.5387C57.084 34.1247 55.948 34.3151 55.948 34.3151" fill="#EBEBEB"/>
<path d="M56.0533 36.4795C56.0533 36.4795 56.0533 36.4958 56.0533 36.5298C56.0533 36.5638 56.0604 36.6141 56.0661 36.6781C56.0746 36.8141 56.0888 37.0031 56.1058 37.2479C56.1399 37.7443 56.1854 38.461 56.2365 39.3477C56.3387 41.1157 56.4594 43.5705 56.583 46.2769C56.7065 48.9833 56.8201 51.4354 56.9124 53.2129C56.9593 54.0983 56.9976 54.815 57.0232 55.3128C57.0359 55.5589 57.0459 55.7507 57.053 55.884C57.053 55.9479 57.053 55.9969 57.0601 56.0336C57.061 56.0503 57.061 56.0671 57.0601 56.0839C57.0601 56.0839 57.0601 56.0662 57.0601 56.0336C57.0601 56.0009 57.053 55.9479 57.0473 55.8853C57.0388 55.7493 57.0246 55.5603 57.0075 55.3141C56.972 54.8191 56.928 54.1024 56.8769 53.2157C56.7747 51.4477 56.654 48.9915 56.5304 46.2797C56.4069 43.5678 56.2933 41.1225 56.201 39.3437C56.1541 38.4597 56.1158 37.7429 56.0888 37.2438C56.0774 36.9977 56.0661 36.8059 56.0604 36.6726C56.0604 36.61 56.0604 36.5597 56.0533 36.5244C56.0525 36.5094 56.0525 36.4944 56.0533 36.4795Z" fill="#E0E0E0"/>
<path d="M54.2964 41.3232C54.3307 41.3439 54.3622 41.3685 54.3901 41.3967C54.4483 41.447 54.5321 41.5232 54.6287 41.6156C54.826 41.8047 55.093 42.0712 55.3813 42.3704L56.1154 43.1388L56.3383 43.3714C56.368 43.3978 56.3942 43.4275 56.4164 43.4598C56.3821 43.4392 56.3506 43.4145 56.3227 43.3864C56.2645 43.336 56.1807 43.2612 56.0856 43.166C55.8896 42.9756 55.6269 42.7064 55.3387 42.4072L54.5988 41.6428L54.3745 41.4116C54.3449 41.3852 54.3187 41.3556 54.2964 41.3232Z" fill="#E0E0E0"/>
<path d="M56.5656 43.4122C56.5542 43.4013 57.1024 42.8519 57.7911 42.1882C58.4798 41.5245 59.0463 40.9873 59.0577 40.9982C59.0691 41.0091 58.5209 41.5585 57.8322 42.2222C57.1435 42.8859 56.577 43.4231 56.5656 43.4122Z" fill="#E0E0E0"/>
<path d="M56.5586 47.578C56.5911 47.5532 56.6263 47.5317 56.6637 47.5141L56.9576 47.3563C57.2047 47.2203 57.5469 47.0381 57.9161 46.8205C58.2853 46.6029 58.6133 46.3975 58.8491 46.2452L59.1331 46.0671C59.1663 46.0432 59.2019 46.0227 59.2396 46.0059C59.2396 46.0059 59.2083 46.0371 59.1458 46.0847C59.0834 46.1323 58.9925 46.1976 58.876 46.2779C58.646 46.4383 58.3208 46.6505 57.9502 46.8681C57.5796 47.0857 57.2402 47.2666 56.9803 47.3903C56.854 47.4529 56.7503 47.5019 56.6779 47.5331C56.6407 47.5538 56.6005 47.5689 56.5586 47.578Z" fill="#E0E0E0"/>
<path d="M54.0723 46.1201C54.1093 46.1315 54.1446 46.1475 54.1773 46.1677C54.2412 46.2004 54.335 46.2493 54.4486 46.3119C54.6772 46.4356 54.991 46.6111 55.3361 46.8069C55.6811 47.0028 55.9907 47.1836 56.2136 47.3169C56.3258 47.3836 56.4153 47.438 56.4763 47.4774C56.5098 47.4948 56.5409 47.5163 56.5686 47.5413C56.5318 47.5312 56.4968 47.5156 56.465 47.4951C56.3996 47.4624 56.3073 47.4121 56.1923 47.3509C55.9651 47.2258 55.6513 47.0517 55.3062 46.8545C54.9612 46.6573 54.6516 46.4778 54.4287 46.3459C54.3165 46.2792 54.227 46.2248 54.166 46.1854C54.1316 46.1682 54.1 46.1462 54.0723 46.1201Z" fill="#E0E0E0"/>
<path d="M53.5796 49.7979C53.6263 49.8125 53.6707 49.8331 53.7116 49.859L54.061 50.0426C54.3549 50.2004 54.7582 50.4221 55.197 50.6696C55.6357 50.9171 56.0419 51.1443 56.333 51.3102L56.6738 51.5101C56.7167 51.5329 56.7572 51.5598 56.7945 51.5903C56.7484 51.5742 56.7042 51.5537 56.6624 51.5291L56.3131 51.3442C56.0192 51.1864 55.6144 50.9647 55.1771 50.7172C54.7397 50.4697 54.3322 50.2426 54.0411 50.0766L53.7003 49.8767C53.6576 49.854 53.6172 49.8276 53.5796 49.7979Z" fill="#E0E0E0"/>
<path d="M56.7319 51.5265C56.7732 51.4953 56.8169 51.4671 56.8626 51.4422L57.2275 51.23C57.5357 51.0505 57.9602 50.8003 58.4203 50.5133C58.8804 50.2263 59.2922 49.9557 59.5876 49.7585L59.9383 49.5246C59.9801 49.4939 60.0248 49.4671 60.0718 49.4443C60.0345 49.4801 59.9941 49.5129 59.9511 49.5423C59.873 49.6021 59.7565 49.6864 59.6117 49.7898C59.3277 49.9951 58.9145 50.2712 58.4516 50.5595C57.9886 50.8479 57.5612 51.0927 57.2488 51.264C57.0912 51.3483 56.9648 51.4163 56.8739 51.4612C56.8287 51.487 56.7812 51.5089 56.7319 51.5265Z" fill="#E0E0E0"/>
<path d="M58.9885 54.0068H54.8364L56.1911 63.8315H57.6324L58.9885 54.0068Z" fill="#E0E0E0"/>
<path d="M55.0508 55.2158C55.0508 55.2158 55.0508 55.2294 55.0735 55.2511C55.1011 55.281 55.1356 55.3043 55.1743 55.3191C55.2465 55.3432 55.3235 55.351 55.3993 55.3421C55.4751 55.3331 55.5478 55.3076 55.6117 55.2674C55.7807 55.179 55.9255 55.005 56.1513 54.9288C56.3999 54.8519 56.6683 54.8566 56.9138 54.9424C57.1635 55.0248 57.4019 55.1357 57.6238 55.2729C57.8096 55.3836 58.0026 55.4826 58.2018 55.5694C58.3372 55.6279 58.4806 55.6677 58.6278 55.6877C58.6677 55.6937 58.7081 55.6964 58.7485 55.6958C58.7769 55.6958 58.7911 55.6958 58.7911 55.6958C58.5947 55.6669 58.4036 55.612 58.2231 55.5326C58.0276 55.441 57.8379 55.3384 57.6551 55.2253C57.4297 55.083 57.1863 54.9688 56.9309 54.8853C56.6712 54.795 56.3873 54.7922 56.1257 54.8771C56.0145 54.92 55.9118 54.9807 55.8218 55.0566C55.7471 55.1202 55.6678 55.1788 55.5847 55.2321C55.5263 55.2706 55.46 55.2967 55.3901 55.3084C55.3203 55.3201 55.2486 55.3173 55.18 55.3001C55.1321 55.2794 55.0884 55.2509 55.0508 55.2158Z" fill="#F5F5F5"/>
<path d="M55.2026 57.0245C55.2026 57.0245 55.2353 56.9837 55.3006 56.9184C55.3952 56.8296 55.5085 56.761 55.6329 56.7172C55.8174 56.653 56.0134 56.6248 56.2094 56.6342C56.4522 56.6509 56.6936 56.6822 56.9322 56.728C57.1759 56.7727 57.4252 56.7828 57.672 56.758C57.8731 56.7323 58.0693 56.6787 58.2542 56.5988C58.3782 56.545 58.4953 56.478 58.6035 56.3989C58.6454 56.3729 58.6828 56.3408 58.7143 56.3037C58.5611 56.3994 58.4007 56.4839 58.2343 56.5567C58.0523 56.6265 57.8612 56.6723 57.6663 56.6927C57.4254 56.7139 57.1826 56.7024 56.945 56.6587C56.7036 56.613 56.4593 56.583 56.2137 56.5689C56.0092 56.5619 55.8056 56.5962 55.6159 56.6696C55.4875 56.719 55.3731 56.7968 55.2822 56.8967C55.2587 56.9239 55.2378 56.953 55.2197 56.9837C55.2114 56.9962 55.2056 57.01 55.2026 57.0245Z" fill="#F5F5F5"/>
<path d="M58.5185 57.9931C58.4842 57.9672 58.4452 57.9478 58.4034 57.936C58.2932 57.8963 58.1774 57.8724 58.0598 57.8652C57.8855 57.8548 57.7106 57.8644 57.5387 57.8938C57.3455 57.9237 57.1382 57.9754 56.9195 58.0189C56.7172 58.0651 56.5098 58.0875 56.3018 58.0856C56.133 58.0816 55.9663 58.0474 55.8105 57.9849C55.669 57.9216 55.5424 57.8314 55.4385 57.7197C55.4538 57.7585 55.4775 57.7937 55.5081 57.8231C55.5876 57.9082 55.6842 57.9771 55.7921 58.0257C55.9513 58.0981 56.1243 58.1388 56.3004 58.1454C56.5139 58.1512 56.7273 58.1302 56.9352 58.0828C57.1553 58.038 57.3612 57.9849 57.5514 57.9468C57.7184 57.916 57.8884 57.9024 58.0584 57.906C58.2149 57.9165 58.3695 57.9457 58.5185 57.9931Z" fill="#F5F5F5"/>
<path d="M55.5705 59.3562C55.6969 59.3033 55.8374 59.2895 55.9724 59.3168C56.12 59.3511 56.2629 59.4018 56.3984 59.4677C56.6412 59.5781 56.9089 59.6289 57.1773 59.6156C57.4458 59.6023 57.7066 59.5253 57.9362 59.3916C58.0258 59.3397 58.1091 59.2786 58.1847 59.2093C58.2128 59.1845 58.2372 59.1562 58.2571 59.125C58.1476 59.2074 58.0328 59.2832 57.9135 59.3521C57.6189 59.506 57.2838 59.5741 56.9493 59.548C56.556 59.5262 56.2549 59.3018 55.9823 59.276C55.8762 59.2559 55.7665 59.2629 55.6642 59.2964C55.5975 59.3236 55.5677 59.3535 55.5705 59.3562Z" fill="#F5F5F5"/>
<path d="M55.8062 61.2405C55.9253 61.2442 56.0438 61.2219 56.1526 61.1752C56.3614 61.1085 56.6198 60.9549 56.9223 60.8406C57.062 60.7852 57.2113 60.7553 57.3625 60.7522C57.4855 60.7516 57.6069 60.7781 57.7175 60.8297C57.8175 60.8821 57.9051 60.9539 57.9745 61.0405C57.9684 61.0102 57.9548 60.9818 57.9347 60.9576C57.8848 60.8874 57.8181 60.8296 57.7402 60.7889C57.6248 60.7279 57.4957 60.6948 57.3639 60.6924C57.2042 60.6923 57.046 60.7218 56.8981 60.7794C56.5843 60.8991 56.3301 61.0514 56.1356 61.1317C55.9411 61.2119 55.8062 61.2309 55.8062 61.2405Z" fill="#F5F5F5"/>
<path d="M56.0049 62.1178C56.0876 62.158 56.1762 62.1859 56.2676 62.2008C56.484 62.2503 56.7036 62.2858 56.925 62.3069C57.1464 62.3273 57.3689 62.3332 57.591 62.3245C57.6835 62.3264 57.7757 62.3158 57.8651 62.2932C57.8651 62.2742 57.4391 62.2932 56.9307 62.2416C56.4224 62.1899 56.0091 62.0988 56.0049 62.1178Z" fill="#F5F5F5"/>
<path d="M22.5417 18.2158L10.3623 20.9883L14.6119 38.1124L26.7913 35.3399L22.5417 18.2158Z" fill="#E0E0E0"/>
<path d="M21.5935 17.7099L9.41406 20.4824L13.6637 37.6065L25.8431 34.834L21.5935 17.7099Z" fill="#EBEBEB"/>
<path d="M20.6155 17.5576L8.43604 20.3301L12.6045 37.1273L24.784 34.3548L20.6155 17.5576Z" fill="#F5F5F5"/>
<path d="M20.4639 35.3397C20.4639 35.3397 23.3039 33.4861 24.0011 31.3291C23.7008 31.6517 23.3353 31.9126 22.9267 32.0961C22.5182 32.2796 22.075 32.3819 21.624 32.3967C21.624 32.3967 21.3215 34.7033 20.4639 35.3397Z" fill="#EBEBEB"/>
<path d="M20.529 22.0319C20.529 22.0509 18.372 22.5582 15.701 23.1661C13.03 23.774 10.8602 24.2541 10.856 24.2324C10.8517 24.2106 13.0129 23.706 15.684 23.0981C18.355 22.4902 20.5247 22.0115 20.529 22.0319Z" fill="#E0E0E0"/>
<path d="M20.8312 23.2559C20.8312 23.2749 18.6743 23.7836 16.0032 24.3901C13.3322 24.9967 11.1625 25.4781 11.1582 25.4564C11.1539 25.4346 13.3152 24.93 15.9862 24.3221C18.6572 23.7142 20.8256 23.23 20.8312 23.2559Z" fill="#E0E0E0"/>
<path d="M21.134 24.4673C21.134 24.4864 18.977 24.995 16.306 25.6029C13.635 26.2109 11.4652 26.6909 11.4609 26.6692C11.4567 26.6474 13.6165 26.1415 16.2889 25.5336C18.9614 24.9257 21.1283 24.4483 21.134 24.4673Z" fill="#E0E0E0"/>
<path d="M21.4421 25.6861C21.4421 25.7051 19.2851 26.2138 16.6141 26.8217C13.9431 27.4296 11.7733 27.9097 11.769 27.8879C11.7648 27.8662 13.9246 27.3603 16.597 26.7523C19.2695 26.1444 21.4307 25.6671 21.4421 25.6861Z" fill="#E0E0E0"/>
<path d="M21.7386 26.9049C21.7386 26.9239 19.5816 27.4325 16.9106 28.0404C14.2396 28.6484 12.0698 29.1257 12.0698 29.104C12.0698 29.0822 14.2254 28.5763 16.8978 27.9684C19.5703 27.3604 21.7329 26.8858 21.7386 26.9049Z" fill="#E0E0E0"/>
<path d="M22.0413 28.1236C22.0413 28.1426 19.8843 28.6513 17.2133 29.2592C14.5422 29.8671 12.3739 30.3472 12.3696 30.3254C12.3654 30.3037 14.5252 29.7978 17.1976 29.1898C19.8701 28.5819 22.0356 28.1046 22.0413 28.1236Z" fill="#E0E0E0"/>
<path d="M22.344 29.3423C22.344 29.3614 20.187 29.87 17.516 30.4779C14.845 31.0859 12.6766 31.5659 12.6724 31.5442C12.6681 31.5224 14.8279 31.0165 17.5004 30.4086C20.1728 29.8007 22.3383 29.3233 22.344 29.3423Z" fill="#E0E0E0"/>
<path d="M22.6462 30.5621C22.6462 30.5811 20.4893 31.0884 17.8182 31.6963C15.1472 32.3042 12.9789 32.7843 12.9746 32.7626C12.9704 32.7408 15.1302 32.2349 17.8026 31.627C20.4751 31.019 22.6406 30.543 22.6462 30.5621Z" fill="#E0E0E0"/>
<path d="M67.487 63.8195C67.487 63.8386 53.0542 63.8549 35.253 63.8549C17.4519 63.8549 3.01904 63.8386 3.01904 63.8195C3.01904 63.8005 17.4505 63.7842 35.253 63.7842C53.0556 63.7842 67.487 63.7991 67.487 63.8195Z" fill="#263238"/>
<path d="M30.7302 59.0664L30.3993 62.5602L29.3045 65.2517C29.2858 65.2975 29.2771 65.3466 29.2791 65.3958C29.281 65.445 29.2935 65.4933 29.3157 65.5377C29.3379 65.5821 29.3695 65.6216 29.4084 65.6538C29.4472 65.686 29.4926 65.7103 29.5416 65.725C29.5987 65.7425 29.6594 65.7467 29.7185 65.737C29.7776 65.7272 29.8333 65.704 29.881 65.6692C30.4973 65.219 32.7551 63.5544 32.765 63.2974C32.7764 62.9995 33.37 59.6322 33.37 59.6322L30.7302 59.0664Z" fill="#5649A5"/>
<g opacity="0.6">
<path d="M29.5361 65.7264L32.7879 63.0635L32.7695 63.2104C32.7552 63.3384 32.6932 63.4572 32.5948 63.5449C32.3335 63.7802 31.6008 64.414 29.8869 65.672C29.8377 65.7081 29.7799 65.732 29.7187 65.7415C29.6574 65.751 29.5947 65.7458 29.5361 65.7264Z" fill="white"/>
</g>
<g opacity="0.6">
<path d="M32.1801 61.8568C32.1325 61.8834 32.0967 61.9257 32.0792 61.9757C32.0616 62.0257 32.0637 62.0802 32.085 62.1288C32.1106 62.1765 32.1544 62.2129 32.2073 62.2303C32.2602 62.2478 32.3182 62.2451 32.369 62.2227C32.4204 62.1943 32.4589 62.1487 32.4773 62.0947C32.4956 62.0408 32.4925 61.9822 32.4684 61.9303C32.4361 61.8834 32.3861 61.8503 32.3288 61.8382C32.2716 61.826 32.2117 61.8356 32.1617 61.865" fill="white"/>
</g>
<path d="M30.5552 64.2944C30.4819 64.1759 30.3855 64.072 30.2712 63.9884C30.1438 63.923 30.0045 63.8814 29.8608 63.866C29.8608 63.8565 29.9077 63.8348 29.9943 63.832C30.1082 63.8323 30.2196 63.8639 30.3152 63.9231C30.4108 63.9815 30.4868 64.0651 30.5339 64.1639C30.5652 64.24 30.5652 64.2917 30.5552 64.2944Z" fill="#263238"/>
<path d="M30.2459 64.736C30.2275 64.7496 30.1238 64.6232 29.942 64.5511C29.8268 64.5173 29.7097 64.4896 29.5913 64.4681C29.6514 64.4409 29.7174 64.4278 29.7838 64.4299C29.8503 64.432 29.9152 64.4493 29.9733 64.4804C30.1749 64.5592 30.2601 64.7252 30.2459 64.736Z" fill="#263238"/>
<path d="M31.1093 63.7472C30.9679 63.6313 30.8174 63.5258 30.6592 63.4317C30.4891 63.3592 30.3134 63.2992 30.1338 63.2522C30.3287 63.2372 30.5241 63.2757 30.6969 63.3634C30.8698 63.4511 31.0128 63.5843 31.1093 63.7472Z" fill="#263238"/>
<path d="M31.3022 62.696C31.2909 62.7164 31.0992 62.6131 30.8379 62.5764C30.5766 62.5396 30.3636 62.5764 30.3579 62.5532C30.5141 62.4934 30.6844 62.4751 30.8506 62.5002C31.0168 62.5253 31.1728 62.593 31.3022 62.696Z" fill="#263238"/>
<path d="M31.4272 61.6708C31.2746 61.6042 31.113 61.5585 30.9472 61.5348C30.7793 61.5346 30.6121 61.5561 30.4502 61.5987C30.4502 61.5906 30.49 61.5511 30.5794 61.5144C30.6978 61.468 30.8259 61.4488 30.9534 61.4585C31.0809 61.4682 31.2043 61.5064 31.3136 61.5702C31.3959 61.6178 31.4343 61.6626 31.4272 61.6708Z" fill="#263238"/>
<path d="M30.9772 61.3364C30.9705 61.2908 30.9744 61.2444 30.9885 61.2004C31.0148 61.0807 31.066 60.9674 31.1391 60.8672C31.1858 60.7895 31.2575 60.7284 31.3435 60.6931C31.3731 60.6842 31.4047 60.6843 31.4342 60.6933C31.4637 60.7023 31.4895 60.7198 31.5083 60.7434C31.542 60.7918 31.5561 60.8503 31.548 60.908C31.5253 61.0241 31.4612 61.1291 31.3667 61.205C31.2722 61.2809 31.1531 61.323 31.0297 61.3241C30.9072 61.3235 30.7877 61.2878 30.6865 61.2217C30.5853 61.1555 30.507 61.0619 30.4617 60.9529C30.4504 60.9253 30.4454 60.8957 30.4471 60.8661C30.4488 60.8366 30.4572 60.8077 30.4717 60.7815C30.4884 60.7563 30.5133 60.737 30.5425 60.7267C30.5718 60.7164 30.6038 60.7156 30.6335 60.7244C30.721 60.7528 30.7989 60.803 30.8593 60.8699C30.9498 60.9559 31.0234 61.0568 31.0766 61.1677C31.0988 61.2069 31.1128 61.2499 31.1178 61.2942C31.0383 61.1531 30.9384 61.0236 30.821 60.9093C30.7656 60.8535 30.6969 60.8115 30.6208 60.7869C30.6043 60.782 30.5867 60.7823 30.5705 60.788C30.5543 60.7937 30.5405 60.8043 30.5313 60.8182C30.5235 60.8359 30.5195 60.8548 30.5195 60.874C30.5195 60.8931 30.5235 60.9121 30.5313 60.9297C30.5732 61.0224 30.6421 61.1015 30.7298 61.1577C30.8174 61.2139 30.92 61.2448 31.0255 61.2466C31.1295 61.2453 31.2301 61.2103 31.3107 61.1473C31.3914 61.0844 31.4475 60.9971 31.4699 60.8998C31.4772 60.8599 31.4691 60.8188 31.4472 60.7842C31.4372 60.7707 31.4231 60.7606 31.4068 60.7552C31.3905 60.7499 31.3728 60.7495 31.3563 60.7543C31.2837 60.7848 31.2223 60.8355 31.1802 60.8998C31.0865 61.0329 31.0178 61.1806 30.9772 61.3364Z" fill="#263238"/>
<path d="M44.9828 25.1236C44.9865 25.1388 44.9865 25.1546 44.9828 25.1698C44.9217 25.3833 44.5383 26.2768 44.4077 26.2728C44.277 26.2687 43.9703 26.0769 43.9973 25.9491C44.0243 25.8212 44.5142 24.8393 44.5142 24.8393C44.5142 24.8393 44.6022 24.6897 44.8976 24.7564C44.9331 24.7659 44.9742 25.1603 44.9828 25.1236Z" fill="#EB996E"/>
<path d="M44.4972 24.5906C44.4972 24.5906 44.4972 24.6097 44.4901 24.6355C44.4276 24.8504 44.0456 25.7439 43.915 25.7385C43.7843 25.733 43.4776 25.5426 43.5046 25.4161C43.5316 25.2897 44.0215 24.3064 44.0215 24.3064C44.0215 24.3064 44.1095 24.1554 44.4049 24.2221C44.5881 24.2629 44.4972 24.5906 44.4972 24.5906Z" fill="#EB996E"/>
<path d="M44.0682 24.2206C44.0682 24.2206 44.0682 24.2396 44.0682 24.2655C44.0071 24.4804 43.6237 25.3739 43.4931 25.3684C43.3625 25.363 43.0557 25.1726 43.0827 25.0461C43.1097 24.9196 43.5939 23.9364 43.5939 23.9364C43.5755 23.9676 43.5513 23.7568 43.9773 23.852C44.1619 23.8928 44.0682 24.2206 44.0682 24.2206Z" fill="#EB996E"/>
<path d="M43.5272 23.8641C43.5272 23.8641 43.5272 23.8831 43.5272 23.9089C43.4661 24.1238 43.0827 25.016 42.9521 25.0119C42.8215 25.0078 42.5147 24.8161 42.5417 24.6896C42.5687 24.5631 43.0586 23.5798 43.0586 23.5798C43.0586 23.5798 43.1466 23.4289 43.442 23.4955C43.6166 23.5363 43.5272 23.8641 43.5272 23.8641Z" fill="#EB996E"/>
<path d="M44.0938 25.6847C44.1856 25.5538 44.2605 25.4127 44.3167 25.2645C44.3908 25.1255 44.4457 24.9778 44.48 24.8252C44.3877 24.9563 44.3128 25.0979 44.2571 25.2468C44.1821 25.385 44.1272 25.5323 44.0938 25.6847Z" fill="#D1734A"/>
<path d="M43.5386 25.48C43.661 25.289 43.7642 25.0873 43.8467 24.8776C43.949 24.6764 44.0326 24.4671 44.0966 24.252C43.9749 24.4433 43.8717 24.645 43.7885 24.8544C43.6862 25.0556 43.6026 25.2649 43.5386 25.48Z" fill="#D1734A"/>
<g opacity="0.78">
<path d="M42.9946 25.2238C43.1195 25.0311 43.225 24.8275 43.3099 24.6158C43.4126 24.4149 43.4963 24.2055 43.5598 23.9902C43.4388 24.1816 43.3357 24.3827 43.2516 24.5914C43.1468 24.7945 43.0607 25.0061 42.9946 25.2238Z" fill="#D1734A"/>
</g>
<path d="M44.2869 26.9277C44.3096 26.8746 44.6817 25.8166 44.6817 25.8166L42.5517 24.8115C42.4437 24.9475 42.1157 26.4313 42.1157 26.4313L42.191 26.9372C42.191 26.9372 43.8069 27.8266 43.851 27.8348C43.895 27.843 44.2869 26.9277 44.2869 26.9277Z" fill="#EB996E"/>
<path d="M42.6224 26.4711L42.4051 25.704C42.3106 25.3671 42.3548 25.0083 42.5287 24.7017L42.6622 24.4678L44.4712 25.2566C44.4712 25.2566 44.0523 25.8251 43.5923 25.5177L43.9458 26.1759L42.6224 26.4711Z" fill="#EB996E"/>
<path d="M43.7901 26.2388C43.7801 26.2388 43.7901 26.1491 43.7645 25.9981C43.7207 25.7903 43.599 25.605 43.4223 25.4772L43.2547 25.3589L43.4564 25.412L43.9221 25.5371H43.9122C44.0136 25.5498 44.1166 25.5348 44.2094 25.4936C44.3022 25.4524 44.3808 25.3869 44.4362 25.3045C44.4446 25.2918 44.4513 25.2781 44.4561 25.2637L44.483 25.3181C43.9619 25.1155 43.489 24.9264 43.1653 24.7741C43.0006 24.6966 42.8685 24.63 42.7805 24.5824C42.7316 24.5611 42.6866 24.5326 42.647 24.498C42.8327 24.5616 43.0147 24.6347 43.1923 24.717C43.526 24.853 43.996 25.0366 44.5185 25.2392L44.5583 25.2542L44.5441 25.2936C44.5376 25.313 44.529 25.3317 44.5185 25.3494C44.4565 25.4542 44.3587 25.5353 44.2416 25.5792C44.1353 25.6178 44.0213 25.6331 43.9079 25.6241H43.898L43.4351 25.4881L43.4692 25.4228C43.6561 25.5639 43.7779 25.7694 43.8085 25.9954C43.8251 26.0767 43.8187 26.1607 43.7901 26.2388Z" fill="#D1734A"/>
<path d="M44.2245 25.4706C44.243 25.4706 44.2118 25.5658 44.2402 25.6909C44.246 25.725 44.2628 25.7565 44.2883 25.7809C44.3137 25.8053 44.3466 25.8214 44.3822 25.8269C44.427 25.8241 44.4702 25.81 44.5076 25.7861C44.545 25.7623 44.5752 25.7294 44.5952 25.6909C44.7045 25.5073 44.8167 25.34 44.8792 25.2176C44.9416 25.0952 44.9814 25.0136 44.9942 25.0177C45.007 25.0218 44.9942 25.1088 44.9388 25.2448C44.86 25.4155 44.7694 25.5808 44.6676 25.7399C44.6397 25.7922 44.5972 25.836 44.5448 25.8665C44.4924 25.897 44.4321 25.913 44.3708 25.9126C44.3188 25.9036 44.2714 25.8783 44.2362 25.8406C44.2009 25.8029 44.1799 25.755 44.1763 25.7045C44.1676 25.6451 44.1734 25.5846 44.1933 25.5277C44.2075 25.4896 44.2189 25.4692 44.2245 25.4706Z" fill="#D1734A"/>
<path d="M36.8474 16.4263L36.224 22.5463C36.1999 22.7806 36.0808 22.9965 35.8922 23.1475C35.7037 23.2986 35.4609 23.3728 35.2158 23.3542L33.749 23.2413C33.5038 23.2225 33.2762 23.1122 33.1152 22.9341C32.9542 22.756 32.8728 22.5244 32.8885 22.2893C32.9353 21.5549 33.0092 20.6573 33.0092 20.6573C33.0092 20.6573 31.6445 20.4547 31.6275 19.1477C31.619 18.5221 31.7113 17.2437 31.8093 16.0755C31.8614 15.4552 32.1555 14.8765 32.6332 14.4546C33.1108 14.0326 33.7368 13.7985 34.3866 13.7988H34.4774C34.8149 13.8178 35.1449 13.9014 35.448 14.0446C35.7512 14.1879 36.0212 14.388 36.2422 14.6329C36.4631 14.8779 36.6305 15.1629 36.7345 15.4709C36.8385 15.779 36.8769 16.1038 36.8474 16.4263Z" fill="#EB996E"/>
<path d="M33.0063 20.6424C33.638 20.655 34.2591 20.4864 34.7899 20.1582C34.7899 20.1582 34.3639 21.0993 33.0078 20.981L33.0063 20.6424Z" fill="#D1734A"/>
<path d="M32.1045 17.0455C32.1286 17.07 32.2763 16.9652 32.4865 16.9666C32.6966 16.968 32.85 17.0672 32.8727 17.0428C32.8954 17.0183 32.8585 16.987 32.7918 16.9408C32.7013 16.8808 32.5937 16.849 32.4836 16.8496C32.3744 16.8486 32.2677 16.8815 32.1797 16.9435C32.1144 16.9911 32.0917 17.0346 32.1045 17.0455Z" fill="#263238"/>
<path d="M34.1597 17.0455C34.1838 17.0699 34.3315 16.9652 34.5416 16.9666C34.7518 16.9679 34.9037 17.0672 34.9279 17.0427C34.952 17.0183 34.9137 16.987 34.8469 16.9407C34.7558 16.881 34.6478 16.8493 34.5374 16.8496C34.4282 16.8488 34.3216 16.8817 34.2335 16.9435C34.1696 16.9911 34.1483 17.0346 34.1597 17.0455Z" fill="#263238"/>
<path d="M33.4053 18.2094C33.2948 18.1758 33.1802 18.1557 33.0645 18.1496C33.0105 18.1496 32.9608 18.1346 32.9509 18.0993C32.9462 18.0465 32.9591 17.9936 32.9878 17.9483C33.0375 17.8232 33.09 17.694 33.1454 17.5566C33.3655 17.0017 33.5245 16.5434 33.5018 16.5353C33.4791 16.5271 33.2803 16.9718 33.0602 17.5281L32.9083 17.9197C32.8753 17.9818 32.8658 18.053 32.8813 18.121C32.8894 18.1391 32.9014 18.1552 32.9166 18.1683C32.9318 18.1815 32.9498 18.1913 32.9693 18.1972C32.999 18.2044 33.0296 18.2081 33.0602 18.2081C33.1748 18.2218 33.2906 18.2222 33.4053 18.2094Z" fill="#263238"/>
<path d="M34.0229 18.3477C33.9888 18.3477 33.9874 18.5639 33.7928 18.719C33.5983 18.874 33.3555 18.855 33.354 18.8794C33.3526 18.9039 33.408 18.9216 33.5102 18.9243C33.6437 18.9267 33.7736 18.8833 33.8766 18.8019C33.976 18.7249 34.0397 18.6135 34.0541 18.4918C34.0626 18.4007 34.0385 18.3463 34.0229 18.3477Z" fill="#263238"/>
<path d="M34.1123 15.9325C34.1322 15.9869 34.3424 15.9611 34.588 15.9897C34.8337 16.0182 35.0325 16.0821 35.0652 16.0332C35.0808 16.0101 35.0453 15.9584 34.9658 15.9053C34.8586 15.8406 34.7374 15.8002 34.6114 15.787C34.4854 15.7738 34.358 15.7882 34.2387 15.8292C34.1493 15.8632 34.1038 15.9121 34.1123 15.9325Z" fill="#263238"/>
<path d="M32.1826 16.1007C32.2195 16.1456 32.3629 16.1007 32.5376 16.1007C32.7122 16.1007 32.8585 16.1306 32.8911 16.083C32.9068 16.0599 32.8911 16.015 32.8187 15.9715C32.7328 15.9205 32.6332 15.8948 32.5321 15.8977C32.4311 15.9006 32.3332 15.9319 32.2507 15.9878C32.1854 16.0314 32.1655 16.0776 32.1826 16.1007Z" fill="#263238"/>
<path d="M35.3652 14.9925H35.3738C35.5911 15.1568 35.734 15.395 35.7728 15.6575C35.772 15.6661 35.772 15.6748 35.7728 15.6834C35.8267 16.056 35.8168 16.4355 35.8736 16.8081C35.9103 17.186 36.0789 17.541 36.3521 17.8159C36.47 17.9206 36.6787 17.994 36.7781 17.8703C36.8099 17.8183 36.8266 17.7591 36.8264 17.6989C36.8988 16.7986 37.1559 16.0003 37.1544 15.0591C37.1545 14.9331 37.1233 14.8089 37.0636 14.6966C37.0039 14.5844 36.9172 14.4872 36.8108 14.4131C36.6049 14.2771 36.3536 14.1262 36.1249 14.2295C35.8963 14.3329 35.5995 14.7436 35.422 14.9095" fill="#263238"/>
<path d="M36.3875 17.0164C36.4102 17.0069 37.3247 16.7444 37.2949 17.6447C37.265 18.545 36.3349 18.3247 36.3335 18.3002C36.3321 18.2758 36.3875 17.0164 36.3875 17.0164Z" fill="#EB996E"/>
<path d="M36.636 17.9697C36.636 17.9697 36.6516 17.9806 36.6786 17.9942C36.7178 18.0091 36.7615 18.0091 36.8007 17.9942C36.8621 17.9596 36.9127 17.91 36.9474 17.8505C36.9821 17.791 36.9996 17.7237 36.9981 17.6555C37.0029 17.5789 36.9898 17.5023 36.9597 17.4311C36.9519 17.403 36.9371 17.377 36.9165 17.3555C36.896 17.334 36.8704 17.3175 36.8419 17.3074C36.8233 17.3021 36.8034 17.3031 36.7855 17.3103C36.7677 17.3175 36.753 17.3304 36.7439 17.3468C36.7311 17.3713 36.7354 17.3903 36.7311 17.3917C36.7269 17.393 36.7112 17.3754 36.7198 17.3386C36.7259 17.317 36.7394 17.2978 36.7581 17.2842C36.7847 17.2669 36.8171 17.2597 36.849 17.2638C36.8873 17.2722 36.9227 17.2898 36.9518 17.3151C36.9809 17.3403 37.0027 17.3723 37.0151 17.408C37.0515 17.4866 37.0676 17.5724 37.062 17.6582C37.0636 17.738 37.0408 17.8164 36.9964 17.8838C36.952 17.9512 36.8879 18.0047 36.8121 18.0377C36.7876 18.0427 36.7624 18.0427 36.7379 18.0378C36.7135 18.0329 36.6903 18.0231 36.6701 18.0091C36.636 17.9914 36.626 17.971 36.636 17.9697Z" fill="#D1734A"/>
<path d="M36.1589 14.3722C36.3889 14.0159 35.7584 13.5018 35.2983 13.3631C34.8383 13.2244 34.2319 13.4393 33.7733 13.5848C33.4893 13.6759 33.1967 13.8051 32.8914 13.7929C32.6881 13.7732 32.4891 13.7246 32.3007 13.6487C32.1116 13.5725 31.9081 13.5341 31.7029 13.5358C31.6006 13.5378 31.5009 13.5667 31.4145 13.6192C31.3281 13.6717 31.2584 13.7459 31.213 13.8337C31.1935 13.8781 31.1841 13.9261 31.1857 13.9743C31.1873 14.0226 31.1996 14.0699 31.222 14.1131C31.2444 14.1564 31.2762 14.1945 31.3153 14.2249C31.3544 14.2553 31.3999 14.2772 31.4487 14.2893C31.3837 14.2556 31.3112 14.2375 31.2373 14.2365C31.1634 14.2355 31.0904 14.2515 31.0244 14.2834C30.9584 14.3152 30.9014 14.3618 30.8582 14.4193C30.8151 14.4767 30.7871 14.5433 30.7766 14.6134C30.7661 14.6834 30.7735 14.7549 30.798 14.8216C30.8226 14.8884 30.8636 14.9485 30.9176 14.9968C30.9716 15.0451 31.037 15.0802 31.1082 15.0991C31.1794 15.1179 31.2543 15.1201 31.3266 15.1053C31.1931 15.0087 30.9901 15.1678 31.0071 15.327C31.0248 15.405 31.0635 15.4773 31.1193 15.5367C31.175 15.596 31.246 15.6405 31.3252 15.6656C31.7143 15.8288 32.1687 15.7771 32.5705 15.6466C32.9724 15.516 33.3473 15.3147 33.7463 15.176C34.1453 15.0373 34.8141 14.7857 35.2146 14.9217C35.5099 15.021 35.7158 15.361 35.882 15.2862C35.9606 15.2461 36.0283 15.189 36.0796 15.1193C36.1309 15.0496 36.1644 14.9693 36.1773 14.885C36.1996 14.7151 36.1933 14.5429 36.1589 14.375" fill="#263238"/>
<path d="M31.335 14.2651C31.3435 14.2651 31.3833 14.3317 31.4841 14.4351C31.6271 14.5805 31.805 14.6902 32.0024 14.7547C32.2919 14.8556 32.6112 14.8434 32.8913 14.7207C33.2094 14.5847 33.4806 14.3127 33.793 14.0556C34.0833 13.796 34.4494 13.6276 34.8424 13.5728C35.0048 13.5541 35.1695 13.5711 35.324 13.6224C35.4785 13.6738 35.6188 13.7582 35.7342 13.8693C35.8082 13.9471 35.865 14.0384 35.9014 14.1377C35.9377 14.237 35.9528 14.3423 35.9457 14.4473C35.9398 14.5031 35.9265 14.5579 35.906 14.6105C35.8889 14.6459 35.8776 14.6635 35.8747 14.6622C35.8927 14.5907 35.9046 14.5179 35.9102 14.4446C35.9106 14.2457 35.8301 14.0545 35.6859 13.9115C35.5754 13.8119 35.4431 13.7372 35.2987 13.6927C35.1543 13.6482 35.0013 13.6352 34.8509 13.6544C34.4781 13.7121 34.1318 13.8755 33.8569 14.1236C33.5502 14.3739 33.2705 14.654 32.9311 14.7955C32.6808 14.8982 32.4026 14.9208 32.1379 14.8601C31.8731 14.7993 31.6359 14.6584 31.4614 14.4582C31.4247 14.4157 31.3919 14.3701 31.3634 14.3222C31.3407 14.28 31.3322 14.2664 31.335 14.2651Z" fill="#455A64"/>
<path d="M36.6246 16.9784C36.6246 16.9784 36.5849 16.954 36.5494 16.8819C36.5026 16.7803 36.4864 16.6682 36.5025 16.5582C36.5238 16.2712 36.7865 15.9612 36.8234 15.5641C36.8466 15.3804 36.8104 15.1943 36.7198 15.0309C36.6401 14.9016 36.5184 14.8008 36.3733 14.744C36.2746 14.7046 36.167 14.6905 36.0609 14.7032C35.987 14.7141 35.9459 14.7317 35.943 14.7249C35.9402 14.7181 35.9757 14.6923 36.0538 14.6692C36.167 14.6421 36.2861 14.6478 36.396 14.6855C36.5607 14.7396 36.7007 14.8468 36.7922 14.9888C36.8976 15.1655 36.9405 15.3702 36.9143 15.5722C36.8908 15.7687 36.8302 15.9595 36.7354 16.1352C36.6582 16.271 36.6017 16.4166 36.5678 16.5677C36.5426 16.707 36.5624 16.8503 36.6246 16.9784Z" fill="#455A64"/>
<path d="M28.5847 10.5754C28.535 10.536 28.3589 9.07941 28.3589 9.07941L29.6369 8.36133L31.6249 8.80061L31.2259 9.86685L29.1839 10.8923L28.5847 10.5754Z" fill="#EB996E"/>
<path d="M24.631 11.7272C24.631 11.7272 27.843 10.1278 29.9035 9.91839C32.1911 9.68447 34.4972 10.9887 34.4972 10.9887L34.0413 5.21007C34.0413 5.21007 31.89 3.67191 29.1537 4.32607C26.8334 4.88095 24.5117 5.95807 24.5117 5.95807L24.631 11.7272Z" fill="#FAFAFA"/>
<path d="M24.6312 11.7274V11.6281L24.6227 11.3303C24.6156 11.0583 24.6057 10.6775 24.5915 10.1811C24.5673 9.17604 24.5318 7.73308 24.4878 5.96508V5.9474L24.5048 5.93924C25.1197 5.66724 25.7899 5.38436 26.5113 5.12324C27.2688 4.83607 28.0414 4.58686 28.8259 4.3766L29.1355 4.29772L29.455 4.23516C29.6706 4.19315 29.8888 4.16363 30.1082 4.14676C30.559 4.11705 31.0118 4.13484 31.4586 4.1998C31.9179 4.27036 32.3681 4.38705 32.8019 4.54796C33.249 4.7109 33.6746 4.92361 34.07 5.18172L34.0827 5.18988V5.20756C34.0827 5.26332 34.0927 5.32452 34.0969 5.38436C34.2517 7.36588 34.4008 9.26035 34.5357 10.9862V11.0474L34.4789 11.0175C33.8381 10.6795 33.1605 10.41 32.4583 10.2137C31.8203 10.0332 31.1595 9.93711 30.4944 9.92812C29.9043 9.93165 29.3175 10.0131 28.7506 10.1702C28.2196 10.3062 27.7396 10.4667 27.3079 10.6204C26.4474 10.9318 25.7814 11.2188 25.327 11.42L24.8101 11.654L24.6781 11.7152L24.6312 11.7342L24.6752 11.7097L24.8045 11.6444C24.9209 11.5873 25.0885 11.5084 25.3185 11.3996C25.7686 11.1929 26.4332 10.8992 27.2937 10.5836C27.7197 10.4272 28.2054 10.2654 28.7379 10.1253C29.3087 9.96324 29.9004 9.87856 30.4958 9.87371C31.1693 9.88179 31.8383 9.97928 32.4838 10.1634C33.1924 10.3579 33.8759 10.6279 34.5215 10.9685L34.4704 10.9998C34.3284 9.27395 34.1864 7.37948 34.0259 5.39796L34.0117 5.2198L34.0274 5.24564C33.6371 4.99208 33.2172 4.78304 32.7763 4.62276C32.3472 4.46331 31.9017 4.34752 31.4472 4.27732C31.0031 4.20976 30.5527 4.18924 30.1039 4.21612C29.8875 4.23285 29.6722 4.26146 29.4592 4.3018L29.144 4.36436L28.8358 4.44188C28.0543 4.64638 27.2842 4.88877 26.5283 5.16812C25.8084 5.43196 25.1367 5.71212 24.5247 5.98412L24.5403 5.95964C24.5702 7.72764 24.5943 9.16108 24.6113 10.162C24.6184 10.6612 24.6241 11.0515 24.6284 11.3194V11.624C24.6326 11.6961 24.6312 11.7274 24.6312 11.7274Z" fill="#263238"/>
<path d="M32.8104 9.39647C32.7891 9.39647 32.7039 8.42135 32.6202 7.22047C32.5364 6.01959 32.4838 5.03223 32.5037 5.03223C32.5236 5.03223 32.6088 6.00599 32.694 7.20823C32.7792 8.41047 32.8303 9.39511 32.8104 9.39647Z" fill="#E0E0E0"/>
<path d="M32.0038 9.09263C31.9839 9.09263 31.8987 8.11751 31.8149 6.91663C31.7311 5.71575 31.6729 4.74063 31.6985 4.73247C31.724 4.72431 31.8035 5.70623 31.8873 6.90847C31.9711 8.11071 32.0251 9.09127 32.0038 9.09263Z" fill="#E0E0E0"/>
<path d="M31.2271 8.98711C31.2072 8.98711 31.122 8.01199 31.0368 6.81111C30.9516 5.61023 30.8948 4.62695 30.9218 4.62695C30.9488 4.62695 31.0269 5.60071 31.1107 6.80295C31.1944 8.00519 31.247 8.98575 31.2271 8.98711Z" fill="#E0E0E0"/>
<path d="M29.6324 9.20005C29.6125 9.20005 29.5273 8.22493 29.4421 7.02405C29.3569 5.82317 29.3001 4.84805 29.3271 4.83989C29.3541 4.83173 29.4322 5.81365 29.5159 7.01589C29.5997 8.21813 29.6523 9.19869 29.6324 9.20005Z" fill="#E0E0E0"/>
<path d="M28.8896 9.39647C28.8697 9.39647 28.7845 8.42271 28.7007 7.22047C28.6169 6.01823 28.5644 5.03223 28.5843 5.03223C28.6042 5.03223 28.6894 6.00735 28.7746 7.20823C28.8598 8.40911 28.9109 9.39511 28.8896 9.39647Z" fill="#E0E0E0"/>
<path d="M28.1005 9.58965C28.0792 9.58965 27.9954 8.61453 27.9102 7.41365C27.825 6.21277 27.7682 5.22949 27.7938 5.22949C27.8193 5.22949 27.9003 6.20325 27.984 7.40549C28.0678 8.60773 28.1161 9.58829 28.1005 9.58965Z" fill="#E0E0E0"/>
<path d="M26.5965 10.1834C26.5752 10.1834 26.49 9.20964 26.4062 8.0074C26.3224 6.80516 26.2642 5.8246 26.2898 5.82324C26.3153 5.82188 26.3948 6.79836 26.48 7.99924C26.5652 9.20012 26.6164 10.182 26.5965 10.1834Z" fill="#E0E0E0"/>
<path d="M27.3148 9.86152C27.2935 9.86152 27.2098 8.88776 27.1246 7.68552C27.0394 6.48328 26.9826 5.50136 27.0081 5.5C27.0337 5.49864 27.1146 6.47512 27.1984 7.676C27.2822 8.87688 27.3347 9.86152 27.3148 9.86152Z" fill="#E0E0E0"/>
<path d="M25.7572 10.4422C25.7373 10.4422 25.6521 9.46712 25.5683 8.26624C25.4845 7.06536 25.4263 6.09024 25.4519 6.08208C25.4774 6.07392 25.557 7.05584 25.6422 8.25808C25.7274 9.46032 25.7785 10.4409 25.7572 10.4422Z" fill="#E0E0E0"/>
<path d="M30.4078 9.0086C30.3879 9.0086 30.3027 8.03348 30.2175 6.8326C30.1323 5.63172 30.0755 4.6498 30.1025 4.64844C30.1295 4.64708 30.2076 5.6222 30.2913 6.82444C30.3751 8.02668 30.4277 9.00724 30.4078 9.0086Z" fill="#E0E0E0"/>
<path d="M31.4768 9.05452C31.6436 8.97287 31.82 8.91077 32.0022 8.86956C32.3345 8.77028 32.7989 8.63972 33.3243 8.501L33.303 8.62748L33.0956 8.50236C32.0761 7.89716 31.1261 7.64964 31.1403 7.60748C31.1403 7.5898 31.3874 7.6306 31.7665 7.74348C32.2586 7.90266 32.7302 8.11482 33.1723 8.37588C33.2462 8.41804 33.3143 8.46292 33.3839 8.50508C33.3955 8.51264 33.4046 8.52322 33.4102 8.53557C33.4157 8.54792 33.4175 8.56153 33.4153 8.57481C33.413 8.58808 33.4069 8.60047 33.3975 8.61053C33.3882 8.62058 33.3761 8.62787 33.3626 8.63156C32.8358 8.76756 32.3686 8.87908 32.0278 8.95524C31.8492 9.01021 31.6641 9.04356 31.4768 9.05452Z" fill="#5649A5"/>
<path d="M32.2607 8.90038C32.2209 8.90038 32.1542 8.58214 32.1187 8.1823C32.0832 7.78246 32.0761 7.45334 32.1187 7.44926C32.1613 7.44518 32.2252 7.76614 32.2607 8.16734C32.2962 8.56854 32.3019 8.8963 32.2607 8.90038Z" fill="#5649A5"/>
<path d="M33.3839 8.64258C33.3839 8.64258 33.4009 8.66706 33.4165 8.72146C33.4359 8.8028 33.4305 8.88778 33.4009 8.96626C33.3515 9.09031 33.2645 9.19735 33.151 9.27362C33.0836 9.3229 33.0108 9.36487 32.9337 9.39874C32.8465 9.43581 32.755 9.46275 32.6611 9.47898C32.4461 9.51812 32.2248 9.51255 32.0122 9.46266C31.8939 9.43618 31.778 9.40071 31.6657 9.35658C31.4736 9.28965 31.2973 9.18708 31.1467 9.05476C30.9961 8.92244 30.8743 8.76296 30.7881 8.58546C30.6383 8.32978 30.588 8.03148 30.6461 7.74362C30.683 7.59089 30.7757 7.45583 30.9074 7.36282C31.0343 7.27957 31.1806 7.22728 31.3334 7.2105C31.7021 7.16443 32.0771 7.21162 32.4208 7.34738C32.7646 7.48315 33.0653 7.70274 33.293 7.98434C33.4822 8.22426 33.5951 8.51137 33.6182 8.81122C33.6347 8.91879 33.6318 9.02826 33.6097 9.1349C33.5877 9.03017 33.5716 8.92439 33.5614 8.81802C33.5185 8.53559 33.3974 8.26933 33.2106 8.0469C32.9313 7.71974 32.5486 7.48827 32.1201 7.3873C31.8706 7.32645 31.6111 7.31259 31.3561 7.3465C31.2264 7.36415 31.1029 7.41074 30.9954 7.4825C30.8916 7.55575 30.819 7.66251 30.791 7.78306C30.7419 8.03847 30.7881 8.30228 30.9216 8.52834C31.0318 8.74962 31.1971 8.94157 31.403 9.0873C31.7654 9.32494 32.2045 9.43103 32.6412 9.3865C32.8065 9.36458 32.964 9.30589 33.1013 9.21514C33.2068 9.15087 33.2918 9.06007 33.347 8.95266C33.3778 8.88267 33.3914 8.80681 33.3867 8.73098C33.3795 8.702 33.3785 8.67192 33.3839 8.64258Z" fill="#5649A5"/>
<path d="M30.1591 11.1265L30.7995 10.6301C31.0795 10.4136 31.2612 10.1017 31.3064 9.75974L31.3419 9.49862L29.4178 9.12598C29.4178 9.12598 29.2375 9.68358 29.9617 9.8223C29.3199 10.0943 29.0799 10.6383 28.9038 11.2489L30.1591 11.1265Z" fill="#EB996E"/>
<path d="M29.3656 10.2924C29.3755 10.2924 29.4167 10.2162 29.5331 10.1142C29.693 9.97143 29.9025 9.89051 30.121 9.88708H30.3269L30.1338 9.81772L29.6851 9.65588H29.6936C29.6037 9.61044 29.5293 9.54139 29.479 9.45683C29.4287 9.37227 29.4046 9.27572 29.4096 9.17852C29.4111 9.1638 29.4139 9.14924 29.4181 9.135L29.3642 9.16356C29.9038 9.2914 30.3922 9.39884 30.7501 9.45732C30.929 9.48724 31.0738 9.50764 31.1761 9.51716C31.2279 9.52706 31.281 9.5298 31.3337 9.52532C31.147 9.47266 30.9574 9.42998 30.7657 9.39748C30.4135 9.32404 29.9279 9.20708 29.3883 9.07788L29.3471 9.06836L29.3343 9.10644C29.328 9.1264 29.3238 9.14689 29.3216 9.16764C29.3069 9.2854 29.3361 9.40434 29.4039 9.50356C29.4653 9.59392 29.5474 9.66972 29.6439 9.72524L30.0955 9.87484L30.1082 9.80412C29.873 9.81355 29.6511 9.91125 29.4905 10.0761C29.4295 10.1362 29.3864 10.2109 29.3656 10.2924Z" fill="#D1734A"/>
<path d="M33.9068 60.3585L36.6687 39.4145L36.139 36.2402H30.5911L29.9294 59.9763C29.9266 60.0672 29.9576 60.156 30.0169 60.227C30.0762 60.298 30.16 60.3465 30.2531 60.3639L33.2862 60.8114C33.3582 60.8219 33.4317 60.8184 33.5022 60.8012C33.5727 60.7839 33.6389 60.7533 33.6968 60.711C33.7547 60.6687 33.8032 60.6157 33.8392 60.5552C33.8753 60.4946 33.8983 60.4277 33.9068 60.3585Z" fill="#263238"/>
<path d="M36.5891 40.1206L41.6131 44.8806L34.3853 46.5629L34.8993 50.0486L44.6817 48.7743C45.0956 48.7202 45.4937 48.5861 45.8518 48.3801C46.2099 48.1742 46.5205 47.9006 46.7648 47.5761C47.1342 47.0849 47.3368 46.4967 47.3452 45.8913C47.3536 45.286 47.1673 44.6929 46.8117 44.1924L39.192 33.4824L35.784 34.5446L36.5891 40.1206Z" fill="#263238"/>
<path d="M36.312 38.9043C36.3935 39.0969 36.4521 39.2976 36.4867 39.5027C36.545 39.7028 36.5793 39.9085 36.5889 40.1161C36.5074 39.9235 36.4488 39.7228 36.4143 39.5177C36.356 39.3176 36.3216 39.1118 36.312 38.9043Z" fill="#455A64"/>
<path d="M35.5808 47.0006C35.5808 47.0006 35.6206 46.9857 35.7001 46.9626L36.0508 46.8578L37.3998 46.4648L42.3045 45.0518L42.2917 45.0966L36.261 38.9481L36.3249 38.9277C36.2042 39.8946 36.0807 40.9024 35.9529 41.9319C35.3309 46.9204 34.7473 51.4342 34.2943 54.6982C34.0699 56.3302 33.8683 57.6481 33.7263 58.5579C33.6454 59.0122 33.5928 59.3658 33.5374 59.6024L33.4778 59.8744C33.4636 59.9342 33.4551 59.9655 33.4551 59.9655C33.4586 59.934 33.4638 59.9027 33.4707 59.8717C33.4821 59.8091 33.5005 59.7194 33.5232 59.5997C33.5729 59.363 33.6212 59.0081 33.6979 58.5538C33.8399 57.6426 34.0231 56.3234 34.2418 54.6914C34.6805 51.4274 35.2556 46.9122 35.8776 41.9238C36.0054 40.8942 36.1304 39.8838 36.2511 38.9195L36.2596 38.8447L36.3135 38.8991L42.3315 45.0599L42.3627 45.0926L42.3187 45.1048L37.4069 46.4947L36.0551 46.8728L35.7001 46.9707L35.5808 47.0006Z" fill="#455A64"/>
<path d="M33.9552 59.9641C33.9339 59.9641 34.5075 55.5155 35.2332 50.0361C35.9588 44.5566 36.5665 40.1081 36.5864 40.1162C36.6063 40.1244 36.034 44.5621 35.3084 50.0442C34.5828 55.5264 33.975 59.9654 33.9552 59.9641Z" fill="#455A64"/>
<path d="M35.7739 36.6875C35.8256 36.7912 35.8647 36.9003 35.8904 37.0125C35.9514 37.2152 36.0324 37.4994 36.1005 37.8149C36.1687 38.1305 36.2255 38.4188 36.2581 38.6309C36.2831 38.7431 36.295 38.8576 36.2936 38.9723C36.2528 38.8649 36.2238 38.7537 36.207 38.6405C36.1559 38.4079 36.0948 38.1345 36.0281 37.8326L35.8392 37.0275C35.8059 36.9165 35.784 36.8026 35.7739 36.6875Z" fill="#455A64"/>
<path d="M36.0965 36.2764C36.0965 36.2764 36.1675 36.2111 36.301 36.256C36.34 36.2693 36.3746 36.2924 36.4013 36.3227C36.428 36.353 36.4458 36.3896 36.4529 36.4287C36.4626 36.4771 36.4569 36.5272 36.4367 36.5725C36.4165 36.6178 36.3826 36.6563 36.3393 36.683C36.2947 36.7064 36.2436 36.7163 36.193 36.7115C36.1423 36.7066 36.0943 36.6872 36.0553 36.6558C36.0232 36.6298 35.9999 36.5952 35.9883 36.5565C35.9766 36.5178 35.9773 36.4766 35.99 36.4382C36.0036 36.3881 36.0373 36.3451 36.0837 36.3185C36.1164 36.3009 36.1377 36.3009 36.1391 36.3049C36.1405 36.309 36.0624 36.343 36.0397 36.4505C36.0334 36.4789 36.0355 36.5085 36.0458 36.5359C36.0561 36.5633 36.0741 36.5874 36.0979 36.6055C36.1269 36.6276 36.162 36.641 36.1988 36.6442C36.2357 36.6473 36.2727 36.64 36.3053 36.6232C36.336 36.603 36.3603 36.575 36.3754 36.5423C36.3904 36.5097 36.3957 36.4736 36.3905 36.4382C36.3858 36.4089 36.3737 36.3811 36.3551 36.3574C36.3365 36.3337 36.3121 36.3147 36.284 36.3022C36.2245 36.2796 36.1603 36.2708 36.0965 36.2764Z" fill="#455A64"/>
<path d="M43.0912 45.6963C43.077 45.7126 42.793 45.4637 42.3812 45.2393C41.9694 45.0149 41.6101 44.8993 41.6158 44.8789C42.183 44.9963 42.6973 45.2818 43.0855 45.6949L43.0912 45.6963Z" fill="#455A64"/>
<path d="M30.5115 36.1758L30.023 27.8512C30.023 27.8512 29.2946 24.8524 28.6655 23.6474L31.9869 21.3164L32.8474 21.7122L34.5514 23.1959L36.2753 22.2317C36.2753 22.2317 38.34 23.064 38.8838 23.3768C39.4277 23.6896 39.5356 24.5219 39.5356 24.5219C39.5356 24.5219 37.745 27.5438 37.6896 28.7298C37.6342 29.9157 39.4802 32.9458 39.4802 32.9458C39.4802 32.9458 40.4899 33.2327 40.5467 34.0106C40.5964 34.6838 40.2698 34.9246 40.2698 34.9246C40.2698 34.9246 40.1278 34.1929 39.1011 34.5057C38.0744 34.8185 35.926 36.6395 34.3853 36.6912C32.8446 36.7429 30.5115 36.1758 30.5115 36.1758Z" fill="#5649A5"/>
<path d="M39.4445 24.167L40.7538 29.3078L42.2419 25.9078L44.3521 27.1318C44.3521 27.1318 42.3641 33.906 40.3931 33.2396C40.3931 33.2396 39.1662 32.6452 39.0157 32.2236C38.8652 31.802 36.5903 28.7298 36.5903 28.7298L39.4445 24.167Z" fill="#5649A5"/>
<path d="M39.4759 32.9458C39.4759 32.9458 39.4574 32.9267 39.4305 32.8887L39.3112 32.7214C39.2601 32.6479 39.1962 32.5582 39.1323 32.4494C39.0684 32.3406 38.9903 32.2195 38.915 32.0767C38.8397 31.9339 38.7545 31.783 38.6793 31.6116C38.604 31.4403 38.5231 31.2567 38.4464 31.0608C38.2885 30.6324 38.1664 30.1927 38.0815 29.7457C38.0032 29.2961 37.9609 28.8414 37.9551 28.3857C37.9551 28.1763 37.9551 27.9777 37.9707 27.7914C37.9863 27.6051 38.0005 27.4337 38.0161 27.2759C38.0545 26.9618 38.0957 26.7088 38.1354 26.5361C38.1525 26.4572 38.1667 26.3906 38.1794 26.3375C38.1824 26.314 38.1891 26.2911 38.1993 26.2695C38.2025 26.293 38.2025 26.3168 38.1993 26.3402C38.1908 26.3946 38.1809 26.4613 38.1695 26.5415C38.1397 26.7156 38.1056 26.9686 38.0744 27.2814C38.0616 27.4378 38.0417 27.6091 38.0389 27.7941C38.036 27.9791 38.0275 28.1763 38.0289 28.3843C38.039 28.8351 38.0832 29.2847 38.161 29.7294C38.2442 30.1728 38.3634 30.6093 38.5174 31.035C38.5912 31.2295 38.6594 31.4158 38.7418 31.579C38.8241 31.7422 38.8951 31.9027 38.9661 32.0455C39.0371 32.1883 39.1081 32.3093 39.1734 32.4195C39.2388 32.5296 39.2941 32.6221 39.341 32.6982L39.4475 32.8737C39.4598 32.8966 39.4693 32.9208 39.4759 32.9458Z" fill="#263238"/>
<path d="M28.0961 10.1611C28.0961 10.1611 24.7733 15.5087 24.5461 16.2975C24.3075 17.1135 28.9211 24.1025 28.9211 24.1025C28.9211 24.1025 29.0105 24.3269 29.012 24.3255L32.3092 21.8027L28.4227 16.5355L30.5115 11.275L28.0961 10.1611Z" fill="#5649A5"/>
<path d="M28.5577 16.7481C28.5463 16.7563 28.4767 16.6611 28.3305 16.5414C28.1391 16.3867 27.9133 16.276 27.6704 16.2178C27.4274 16.1596 27.1738 16.1554 26.9289 16.2055C26.7415 16.2449 26.6321 16.2979 26.6265 16.2857C26.7098 16.2212 26.8067 16.1748 26.9105 16.1497C27.0227 16.1185 27.1387 16.1011 27.2555 16.098C27.399 16.0951 27.5422 16.1102 27.6815 16.1429C27.8201 16.1777 27.9537 16.2289 28.0791 16.2952C28.1819 16.3511 28.2773 16.4187 28.3631 16.4965C28.4464 16.5657 28.5128 16.6516 28.5577 16.7481Z" fill="#263238"/>
<path d="M30.0672 24.5346C30.053 24.5346 30.0601 24.3483 30.0076 24.0559C29.9754 23.8841 29.9279 23.7153 29.8656 23.5513C29.7175 23.1476 29.4845 22.7773 29.1811 22.4633C29.0574 22.3365 28.923 22.2196 28.7792 22.1138C28.5307 21.9343 28.3533 21.8527 28.3632 21.8418C28.4075 21.8531 28.45 21.87 28.4896 21.8921C28.5384 21.9133 28.5858 21.9374 28.6316 21.9642C28.6932 21.9979 28.7529 22.0347 28.8105 22.0744C28.9637 22.1762 29.1064 22.2918 29.2365 22.4198C29.3923 22.5781 29.5308 22.7513 29.6497 22.9366C29.7656 23.1233 29.8608 23.3211 29.9337 23.5268C29.9922 23.695 30.0341 23.868 30.0587 24.0436C30.0684 24.1108 30.0745 24.1785 30.0771 24.2463C30.0813 24.2974 30.0813 24.3488 30.0771 24.4C30.0814 24.4451 30.0781 24.4905 30.0672 24.5346Z" fill="#263238"/>
<path d="M39.0899 33.1014C39.0899 33.1096 38.9862 33.1014 38.8059 33.1123C38.5483 33.1369 38.2964 33.1998 38.059 33.2986C37.7078 33.4476 37.3773 33.6376 37.0749 33.8644C36.7284 34.1146 36.3649 34.4192 35.9517 34.694C35.5646 34.9653 35.1209 35.1537 34.651 35.2461C34.2666 35.3111 33.8737 35.3152 33.488 35.2584C33.2289 35.2221 32.9737 35.1638 32.7255 35.0843C32.6374 35.0557 32.5707 35.0312 32.5252 35.0136C32.502 35.0058 32.4796 34.9958 32.4585 34.9836C32.5516 35.0034 32.6436 35.0279 32.734 35.0571C32.9828 35.1262 33.2368 35.1771 33.4937 35.2094C33.8715 35.2574 34.255 35.2477 34.6297 35.1808C35.0913 35.0888 35.527 34.9033 35.9077 34.6368C36.3195 34.3648 36.6802 34.0616 37.0323 33.8127C37.3407 33.5851 37.6787 33.3967 38.0377 33.2524C38.281 33.1554 38.5399 33.0988 38.8031 33.0851C38.874 33.081 38.9451 33.081 39.0161 33.0851C39.0413 33.0876 39.0661 33.0931 39.0899 33.1014Z" fill="#263238"/>
<path d="M40.6205 31.6682C40.5761 31.5585 40.547 31.4438 40.5339 31.3268C40.4883 31.0462 40.4735 30.7618 40.4898 30.4782C40.5068 30.1945 40.5544 29.9133 40.6318 29.6391C40.6577 29.524 40.6998 29.4129 40.7568 29.3086C40.7396 29.4242 40.715 29.5387 40.683 29.6513C40.6225 29.9251 40.5841 30.2029 40.5679 30.4823C40.5524 30.7617 40.56 31.0418 40.5907 31.32C40.609 31.4353 40.619 31.5516 40.6205 31.6682Z" fill="#263238"/>
<g opacity="0.3">
<path d="M32.5973 34.9526C32.6087 34.6126 33.0319 34.4181 33.3869 34.4385C33.7419 34.4589 34.0784 34.6126 34.4334 34.6248C35.0355 34.6466 35.5694 34.2685 36.0295 33.9013C36.4896 33.5341 37.0008 33.1384 37.6028 33.1152C37.6781 33.1152 37.7732 33.1275 37.7945 33.1982C37.8158 33.2689 37.7576 33.322 37.7065 33.3655C36.9653 33.9992 36.207 34.6452 35.2925 35.0165C34.378 35.3878 33.2633 35.4463 32.4326 34.9254" fill="black"/>
</g>
<g opacity="0.3">
<path d="M38.1325 26.7034C38.0324 28.368 38.5975 30.0066 39.713 31.2866C39.899 31.4974 40.1049 31.7055 40.1958 31.9666C40.2867 32.2278 40.2256 32.565 39.9728 32.6983C39.8627 32.7463 39.7402 32.7621 39.6207 32.7437C39.5012 32.7253 39.3901 32.6736 39.3012 32.595C39.1255 32.4355 38.9888 32.241 38.9007 32.0251C38.0629 30.3088 37.6483 28.3273 38.1907 26.5049" fill="black"/>
</g>
<path d="M21.7547 54.185C21.8967 53.728 22.1878 53.2873 22.6436 53.097C23.0994 52.9065 23.666 53.0126 24.1516 53.1813C24.6373 53.3499 25.113 53.577 25.6284 53.607C26.1439 53.6369 26.7247 53.403 26.8795 52.9269C27.0215 52.4822 26.7446 52.0103 26.3952 51.688C26.0261 51.3475 25.5733 51.1015 25.0788 50.9726C24.5842 50.8438 24.0638 50.8363 23.5654 50.9508C23.067 51.0653 22.6067 51.2981 22.227 51.6277C21.8473 51.9574 21.5603 52.3734 21.3926 52.8372" fill="#5649A5"/>
<g opacity="0.5">
<path d="M21.7547 54.185C21.8967 53.728 22.1878 53.2873 22.6436 53.097C23.0994 52.9065 23.666 53.0126 24.1516 53.1813C24.6373 53.3499 25.113 53.577 25.6284 53.607C26.1439 53.6369 26.7247 53.403 26.8795 52.9269C27.0215 52.4822 26.7446 52.0103 26.3952 51.688C26.0261 51.3475 25.5733 51.1015 25.0788 50.9726C24.5842 50.8438 24.0638 50.8363 23.5654 50.9508C23.067 51.0653 22.6067 51.2981 22.227 51.6277C21.8473 51.9574 21.5603 52.3734 21.3926 52.8372" fill="black"/>
</g>
<path d="M17.6737 56.1672C16.9168 55.4804 16.9551 54.2822 17.3314 53.352C17.7077 52.4217 18.5328 51.7064 19.4515 51.2345C20.3489 50.7833 21.3413 50.5327 22.3543 50.5014C23.3673 50.4701 24.3745 50.6588 25.3005 51.0536C24.8471 51.0722 24.4053 51.1969 24.0139 51.417C23.6225 51.637 23.2934 51.9456 23.0555 52.3157C22.6422 52.9753 22.5499 53.7749 22.2035 54.4699C21.8178 55.2535 21.1335 55.866 20.2911 56.1816C19.4487 56.4973 18.5122 56.4921 17.6737 56.1672Z" fill="#5649A5"/>
<path d="M17.3098 52.0346C16.4734 51.0894 16.3612 49.5703 16.4848 48.3354C16.6083 47.1005 16.9108 45.8588 16.7034 44.6348C16.5827 43.9086 16.2888 43.2163 16.1894 42.4874C16.09 41.7584 16.2306 40.9356 16.8199 40.4651C17.4972 39.9211 18.5636 40.0571 19.2694 40.5603C19.9751 41.0635 20.3812 41.8645 20.6794 42.6588C21.3355 44.405 21.5769 46.3403 21.0373 48.1219C20.4977 49.9035 19.2353 51.4974 17.3822 52.0346" fill="#5649A5"/>
<path d="M16.9081 59.7973C16.905 59.7611 16.905 59.7247 16.9081 59.6885C16.9081 59.6178 16.9081 59.5117 16.9081 59.3757C16.9195 59.1037 16.9464 58.7121 17.0103 58.2306C17.0841 57.6658 17.1913 57.1055 17.3313 56.5524C17.5053 55.8731 17.7742 55.2194 18.1307 54.6089C18.4886 53.9994 18.9277 53.4371 19.4371 52.9361C19.8519 52.5275 20.3113 52.1628 20.8074 51.8481C21.0162 51.7121 21.2178 51.6047 21.3925 51.5068C21.5671 51.4089 21.7262 51.3436 21.854 51.2851L22.155 51.1641C22.1893 51.1484 22.2249 51.1357 22.2615 51.126C22.2291 51.1449 22.1954 51.1617 22.1607 51.1763L21.8653 51.3123C21.7404 51.3749 21.5813 51.4483 21.4109 51.5435C21.2405 51.6387 21.0403 51.7516 20.8344 51.8917C19.7434 52.6031 18.8389 53.5466 18.1918 54.6484C17.4221 55.9377 17.2106 57.2936 17.0558 58.2429C16.9862 58.7229 16.9507 59.1133 16.9322 59.3839C16.9237 59.5199 16.918 59.6192 16.9138 59.6953C16.9146 59.7294 16.9127 59.7635 16.9081 59.7973Z" fill="#263238"/>
<path d="M9.69023 48.3027C8.14101 49.1976 8.14669 50.0123 8.41223 50.7807C8.67777 51.5491 9.62065 52.0835 10.4088 51.7952C10.8532 51.632 11.177 51.2621 11.4525 50.8895C11.7279 50.5168 11.9864 50.1183 12.3726 49.8504C12.7589 49.5825 13.3183 49.4805 13.706 49.7457" fill="#5649A5"/>
<g opacity="0.5">
<path d="M9.69023 48.3027C8.14101 49.1976 8.14669 50.0123 8.41223 50.7807C8.67777 51.5491 9.62065 52.0835 10.4088 51.7952C10.8532 51.632 11.177 51.2621 11.4525 50.8895C11.7279 50.5168 11.9864 50.1183 12.3726 49.8504C12.7589 49.5825 13.3183 49.4805 13.706 49.7457" fill="black"/>
</g>
<path d="M8.53009 49.2831C8.93479 48.7473 9.93589 48.5923 10.5664 48.8602C11.1969 49.1281 11.6612 49.6571 12.0702 50.1835C12.4791 50.7098 12.8867 51.2715 13.4603 51.64C14.034 52.0086 14.8349 52.1419 15.4072 51.776C15.5892 51.6459 15.7417 51.4816 15.8552 51.2931C15.9687 51.1046 16.041 50.896 16.0675 50.6799C16.1181 50.247 16.0873 49.809 15.9766 49.3865C15.8346 48.765 15.6173 48.1149 15.0976 47.7205C14.5182 47.2799 13.7145 47.2595 12.9761 47.2826C12.1241 47.3084 11.2721 47.3696 10.4712 47.6511C9.67035 47.9327 8.86237 48.5406 8.52441 49.2831" fill="#5649A5"/>
<path d="M15.62 58.6153C15.6182 58.6045 15.6182 58.5935 15.62 58.5827C15.62 58.5569 15.62 58.5256 15.62 58.4875C15.62 58.3977 15.62 58.274 15.6072 58.1189C15.5973 57.7939 15.5831 57.3329 15.566 56.7657C15.549 56.1986 15.5234 55.5132 15.4794 54.7597C15.4354 54.0063 15.3772 53.1753 15.2579 52.3117C15.2072 51.8919 15.1212 51.4767 15.0009 51.0701C14.7614 50.3508 14.3944 49.6763 13.916 49.0763C13.7166 48.8316 13.4977 48.602 13.2614 48.3895C12.9164 48.0838 12.5259 47.8289 12.1027 47.6333C12.0274 47.5993 11.9607 47.5667 11.9024 47.5436L11.7505 47.4878L11.6582 47.4525L11.627 47.4375L11.661 47.4457L11.7562 47.4756L11.9095 47.5259C11.9706 47.5463 12.0373 47.5776 12.114 47.6089C12.5453 47.798 12.9437 48.0494 13.2955 48.3541C13.5363 48.5666 13.759 48.7972 13.9614 49.0437C14.1912 49.3279 14.395 49.6304 14.5706 49.9481C14.7663 50.2985 14.9279 50.6654 15.0534 51.0442C15.1757 51.4547 15.2626 51.8741 15.3133 52.2981C15.434 53.1645 15.4908 53.9954 15.5305 54.7461C15.5703 55.4969 15.5902 56.1823 15.603 56.7549C15.6157 57.3274 15.6186 57.7898 15.6214 58.1149V58.4793C15.6214 58.5188 15.6214 58.5501 15.6214 58.5759C15.6228 58.589 15.6223 58.6023 15.62 58.6153Z" fill="#263238"/>
<path d="M16.178 59.2809C16.1044 59.0729 16.0479 58.8596 16.009 58.6431C15.9011 58.0528 15.8773 57.4512 15.938 56.8547C16.033 55.9727 16.2306 55.1037 16.5273 54.2639C16.8454 53.3119 17.2771 52.2892 17.6448 51.193C17.8267 50.6602 17.9751 50.1175 18.0893 49.5678C18.1915 49.0552 18.265 48.5376 18.3094 48.0174C18.38 47.1356 18.3966 46.2505 18.3591 45.3668C18.3321 44.6106 18.2895 44 18.264 43.5784L18.2341 43.0929C18.2341 43.0398 18.2341 42.9977 18.2341 42.9664C18.2323 42.9519 18.2323 42.9373 18.2341 42.9229C18.2354 42.9369 18.2354 42.951 18.2341 42.965C18.2341 42.9977 18.2412 43.0385 18.2469 43.0915C18.2573 43.2075 18.2715 43.3694 18.2895 43.577C18.3236 43.9986 18.3733 44.6093 18.406 45.3654C18.4508 46.2511 18.4394 47.1385 18.3719 48.0229C18.3291 48.5453 18.2566 49.0652 18.1546 49.5801C18.0407 50.1321 17.8923 50.6771 17.7102 51.2121C17.3395 52.3123 16.9064 53.3309 16.5869 54.2816C16.2882 55.1192 16.0863 55.9857 15.9849 56.8656C15.921 57.4585 15.9372 58.0569 16.0331 58.6458C16.0715 58.8539 16.107 59.0144 16.1368 59.1218C16.1496 59.1735 16.1609 59.2143 16.168 59.2442C16.1728 59.2561 16.1761 59.2684 16.178 59.2809Z" fill="#263238"/>
<path d="M20.0166 59.95H12.7462L12.5801 58.6104H20.0166V59.95Z" fill="#455A64"/>
<path d="M13.5269 59.7979L14.4357 63.8194H18.3861L19.2367 59.7979H13.5269Z" fill="#455A64"/>
<path d="M20.0221 59.9499C20.0221 59.969 18.4246 59.9798 16.4522 59.9744C14.4798 59.969 12.8823 59.9499 12.8823 59.9309C12.8823 59.9118 14.4812 59.9023 16.4536 59.9078C18.426 59.9132 20.0221 59.9322 20.0221 59.9499Z" fill="#455A64"/>
<path d="M18.7697 61.9358C18.5719 61.794 18.3568 61.6757 18.1293 61.5835C17.8806 61.4902 17.6167 61.4395 17.3497 61.4339C17.0227 61.435 16.6986 61.4922 16.3926 61.6026C16.0617 61.71 15.7522 61.8351 15.4511 61.9031C15.1833 61.9589 14.9069 61.9667 14.6361 61.9263C14.454 61.9017 14.2774 61.8484 14.1135 61.7685C14.0691 61.7462 14.0268 61.7203 13.9871 61.691C13.9601 61.6719 13.9459 61.6611 13.9474 61.6583C13.9488 61.6556 14.0098 61.6937 14.1249 61.7454C14.2897 61.8149 14.4643 61.8608 14.6432 61.8814C14.908 61.9139 15.1767 61.9015 15.4369 61.8447C15.728 61.7753 16.0376 61.6488 16.3713 61.5414C16.6849 61.4285 17.0175 61.3718 17.3525 61.3741C17.6259 61.3835 17.8953 61.4402 18.1477 61.5414C18.317 61.6091 18.4761 61.6983 18.6206 61.8066C18.6603 61.8353 18.6982 61.8662 18.7342 61.8991C18.7583 61.9208 18.7711 61.9331 18.7697 61.9358Z" fill="#263238"/>
<path d="M18.7144 62.203C18.5234 62.066 18.3172 61.9497 18.0995 61.8562C17.8608 61.7629 17.6061 61.7126 17.3484 61.7079C17.0324 61.7088 16.7191 61.7627 16.4225 61.867C16.1016 61.9704 15.802 62.0887 15.5151 62.1635C15.2606 62.2334 14.9957 62.2619 14.7313 62.2478C14.5526 62.2359 14.3783 62.1897 14.2187 62.1118C14.1759 62.0901 14.1351 62.0651 14.0966 62.037C14.0696 62.018 14.0568 62.0071 14.0582 62.0058C14.0596 62.0044 14.1193 62.0398 14.23 62.0887C14.3902 62.1539 14.5616 62.1903 14.7356 62.1962C14.9931 62.204 15.2502 62.1714 15.4967 62.0996C15.7807 62.0248 16.076 61.9038 16.4012 61.8004C16.705 61.6938 17.0263 61.6403 17.3498 61.6426C17.6145 61.6505 17.8753 61.7069 18.118 61.8086C18.2809 61.877 18.4337 61.9657 18.5724 62.0724C18.6104 62.1005 18.6465 62.1309 18.6803 62.1635C18.7045 62.1894 18.7158 62.2016 18.7144 62.203Z" fill="white"/>
<path d="M18.8409 61.6693C18.6373 61.5219 18.4167 61.3973 18.1835 61.298C17.9304 61.1934 17.6605 61.1313 17.3854 61.1144C17.0459 61.1059 16.708 61.1623 16.3914 61.2803C16.0725 61.3997 15.7468 61.5019 15.4159 61.5863C15.1372 61.6314 14.8525 61.6314 14.5738 61.5863C14.3864 61.5576 14.2045 61.5022 14.0342 61.4218C13.9886 61.3993 13.9449 61.3734 13.9036 61.3442C13.8752 61.3238 13.861 61.313 13.8624 61.3102C13.8638 61.3075 13.9263 61.347 14.0456 61.3986C14.2176 61.4661 14.398 61.5118 14.5823 61.5346C14.855 61.572 15.1321 61.567 15.4031 61.5197C15.7303 61.4328 16.0526 61.3297 16.3687 61.211C16.6915 61.0909 17.0365 61.0349 17.3826 61.0464C17.6642 61.0664 17.9397 61.1346 18.1962 61.2477C18.3696 61.3215 18.5327 61.4156 18.6819 61.5278C18.7226 61.5578 18.7615 61.5901 18.7983 61.6244C18.831 61.6543 18.8423 61.6666 18.8409 61.6693Z" fill="white"/>
<path d="M20.0819 59.9569C20.0819 59.9745 18.4461 59.9895 16.4283 59.9895C14.4104 59.9895 12.7803 59.9759 12.7803 59.9569C12.7803 59.9378 14.4161 59.9229 16.4325 59.9229C18.4489 59.9229 20.0819 59.9378 20.0819 59.9569Z" fill="#263238"/>
<path d="M58.0552 27.3013C57.9878 27.2228 57.9328 27.1353 57.8919 27.0415C57.7954 26.8661 57.6576 26.605 57.483 26.2663C57.1336 25.5863 56.631 24.6031 56.026 23.3723C54.8048 20.9107 53.125 17.4753 51.2506 13.5939H51.5857C51.3301 14.1637 51.0575 14.7635 50.8019 15.3809C50.3404 16.4689 49.9186 17.5569 49.5466 18.6041C49.3535 19.1291 49.1845 19.6499 49.0112 20.1586C48.838 20.6672 48.6861 21.1704 48.5412 21.6546C47.9533 23.6184 47.5188 25.4123 47.2022 26.9287C46.8855 28.4451 46.6839 29.6813 46.5447 30.5367C46.4751 30.9651 46.4283 31.2983 46.3871 31.5227C46.3757 31.6391 46.3494 31.7538 46.309 31.8641C46.2922 31.7481 46.2922 31.6305 46.309 31.5146C46.326 31.2875 46.3502 30.9502 46.397 30.5191C46.4922 29.6568 46.6569 28.4111 46.9409 26.8824C47.2249 25.3538 47.6353 23.545 48.2089 21.5662C48.3509 21.0711 48.51 20.5666 48.6704 20.0511C48.8309 19.5357 49.007 19.0135 49.1987 18.4858C49.5693 17.4263 49.991 16.3411 50.454 15.2408C50.7124 14.6207 50.9879 14.0168 51.2449 13.4456C51.2545 13.4244 51.2683 13.4053 51.2856 13.3892C51.303 13.3731 51.3234 13.3605 51.3459 13.3521C51.3683 13.3436 51.3922 13.3395 51.4163 13.3399C51.4404 13.3403 51.4642 13.3453 51.4863 13.3545C51.5276 13.3711 51.5606 13.4023 51.5786 13.4415C53.4445 17.3271 55.0832 20.7855 56.2447 23.2675C56.8255 24.5119 57.2884 25.5143 57.5994 26.2079C57.7542 26.5547 57.872 26.8239 57.9487 27.0075C57.9986 27.1001 58.0345 27.199 58.0552 27.3013Z" fill="#5649A5"/>
<path d="M55.6783 21.4425C55.7053 21.5377 53.0329 22.3156 49.7143 23.1805C46.3958 24.0455 43.6737 24.6765 43.6467 24.5759C43.6197 24.4753 46.2921 23.7028 49.6178 22.8378C52.9434 21.9729 55.6514 21.3513 55.6783 21.4425Z" fill="#5649A5"/>
<path d="M53.8181 10.6267C53.8709 10.5884 53.9287 10.5569 53.99 10.5329L54.2072 10.4295C54.2953 10.3915 54.4018 10.3547 54.521 10.3099C54.8181 10.2052 55.1247 10.1273 55.4369 10.0773C55.8659 10.0155 56.3017 10.0109 56.732 10.0637C57.2715 10.1366 57.7952 10.2928 58.2826 10.5261C58.858 10.8099 59.3898 11.1682 59.8631 11.591C60.4061 12.0751 60.8888 12.6177 61.3015 13.208C61.415 13.3666 61.5161 13.5329 61.604 13.7058C61.6949 13.8785 61.79 14.0526 61.8809 14.2307L62.1251 14.7883C62.2103 14.976 62.2671 15.1746 62.341 15.3718C62.6206 16.2057 62.7951 17.0686 62.8607 17.9422C62.9275 18.8874 62.8923 19.8367 62.7556 20.7751C62.6084 21.7769 62.3839 22.767 62.084 23.7371C62.013 23.9887 61.9235 24.2363 61.844 24.4892C61.7645 24.7422 61.6565 24.9924 61.56 25.2467C61.445 25.4929 61.3385 25.7445 61.2121 25.9907L61.0147 26.3565L60.9167 26.5401L60.806 26.7183C60.2084 27.6968 59.4936 28.6051 58.676 29.4247C57.8262 30.2779 56.8869 31.0449 55.8729 31.7135C54.8309 32.4186 53.7055 33.0034 52.5203 33.4557C51.2859 33.9271 49.9652 34.156 48.6366 34.1289C47.9615 34.1088 47.2943 33.9834 46.6613 33.7576C46.0318 33.5314 45.4568 33.1848 44.9715 32.739C44.732 32.5215 44.5138 32.2834 44.3198 32.0277C44.1268 31.7763 43.954 31.5113 43.8029 31.2348C43.5052 30.6928 43.2672 30.1226 43.0929 29.5335C42.4549 27.2964 42.3271 24.954 42.718 22.6655C42.895 21.6045 43.1692 20.5605 43.5373 19.5456C43.5842 19.4232 43.6296 19.3008 43.6793 19.1784C43.729 19.056 43.7702 18.935 43.8213 18.8167C43.9245 18.58 44.0268 18.3447 44.1281 18.1108L44.466 17.4308C44.5739 17.2037 44.7074 16.9915 44.8253 16.7739C45.2958 15.9437 45.8338 15.1502 46.4341 14.4007L46.6471 14.1287L46.8701 13.8703C47.0206 13.7003 47.1626 13.5276 47.3145 13.3658L47.7704 12.8898C47.9124 12.7293 48.0828 12.5892 48.2347 12.441C48.5386 12.1431 48.868 11.8847 49.1747 11.625L49.6547 11.2605L49.8904 11.0823L50.1318 10.9191L50.6061 10.6009L51.0818 10.3153L51.3133 10.1793L51.549 10.0528L52.0091 9.80938C52.3144 9.65706 52.6168 9.52106 52.9051 9.38778C53.1933 9.2545 53.4816 9.14842 53.7571 9.0437L54.5509 8.76218L55.2807 8.53914C56.2094 8.27666 56.9421 8.12026 57.442 8.02914C57.6919 7.98562 57.8836 7.95298 58.01 7.93394C58.0739 7.91806 58.1399 7.91119 58.2059 7.91354C58.1455 7.93923 58.0821 7.95795 58.0171 7.9693C57.8907 8.00058 57.7018 8.0441 57.4491 8.0985C56.9563 8.21274 56.2307 8.38954 55.3191 8.67106L54.6006 8.9077L53.8181 9.19466C53.5483 9.30346 53.2729 9.42586 52.9818 9.54826C52.6907 9.67066 52.4038 9.82026 52.1042 9.97802L51.6541 10.2255L51.4226 10.352L51.1954 10.488L50.7296 10.775L50.2681 11.1L50.0324 11.2632L49.8024 11.44L49.3338 11.8031C49.0342 12.067 48.7132 12.324 48.4179 12.6191C48.2688 12.766 48.1069 12.9047 47.9635 13.0639C47.8201 13.223 47.6681 13.3767 47.519 13.5371C47.3699 13.6976 47.235 13.8703 47.0859 14.0376L46.8672 14.2947L46.6599 14.5667C46.0735 15.3086 45.5489 16.0934 45.0908 16.914C44.9758 17.1289 44.8466 17.3383 44.7415 17.5614L44.4135 18.2332L44.1167 18.9295C44.0642 19.0451 44.0187 19.1648 43.9747 19.2859L43.8426 19.6476C43.4886 20.6452 43.2259 21.6705 43.0574 22.7117C42.8789 23.8067 42.817 24.9163 42.8728 26.0233C42.9263 27.1763 43.1169 28.3198 43.4408 29.4315C43.6088 29.9965 43.8372 30.5434 44.1224 31.0635C44.2657 31.3247 44.4295 31.5752 44.6123 31.8128C44.7942 32.0519 44.9986 32.2745 45.2229 32.4779C45.6724 32.8893 46.2036 33.2103 46.7849 33.4217C47.3814 33.6325 48.0096 33.7496 48.6451 33.7685C49.9235 33.7925 51.1942 33.5719 52.3825 33.1198C53.5435 32.6793 54.6463 32.1096 55.6684 31.4225C56.6636 30.7694 57.5863 30.0202 58.4218 29.1867C59.2213 28.3879 59.9213 27.503 60.5078 26.5496L60.6157 26.3755L60.7122 26.1974L60.9054 25.8424C61.0289 25.6044 61.1326 25.3596 61.2462 25.1216C61.3385 24.8741 61.4393 24.6334 61.5231 24.3859C61.6068 24.1383 61.6935 23.8922 61.7645 23.6433C62.0657 22.6896 62.2931 21.7159 62.4446 20.7302C62.5857 19.8119 62.6271 18.8822 62.5682 17.9558C62.5122 17.1026 62.3501 16.2589 62.0854 15.4425C62.0158 15.2507 61.9618 15.0549 61.8809 14.8713C61.8 14.6877 61.7247 14.5041 61.648 14.3273L61.3839 13.8105C61.3019 13.6435 61.2069 13.4825 61.0999 13.3291C60.7053 12.7479 60.2422 12.2122 59.7197 11.7324C59.2661 11.3154 58.7555 10.9594 58.2017 10.6743C57.7357 10.4413 57.2337 10.2811 56.7149 10.1997C56.2975 10.1382 55.8732 10.1318 55.454 10.1807C55.1466 10.2206 54.8435 10.2861 54.548 10.3765C54.4287 10.4159 54.3222 10.4459 54.2314 10.4785L54.0084 10.5655C53.9479 10.5934 53.884 10.6139 53.8181 10.6267Z" fill="#5649A5"/>
<path d="M57.003 19.5969C56.9008 19.5969 56.7289 17.9649 56.621 15.9249C56.5131 13.8849 56.506 12.2393 56.6082 12.2393C56.7105 12.2393 56.8809 13.8713 56.9902 15.9113C57.0996 17.9513 57.1038 19.5914 57.003 19.5969Z" fill="#5649A5"/>
<path d="M59.3066 15.0334C59.3449 15.1231 58.2288 15.6454 56.7875 16.1336C55.3462 16.6219 54.1363 16.8939 54.1079 16.8014C54.0795 16.7089 55.2326 16.2887 56.6639 15.8004C58.0953 15.3122 59.2682 14.9423 59.3066 15.0334Z" fill="#5649A5"/>
</svg>
