<svg width="141" height="126" viewBox="0 0 141 126" fill="none" xmlns="http://www.w3.org/2000/svg">
<g clip-path="url(#clip0_415_1498)">
<path d="M159 110.134H-19V110.223H159V110.134Z" fill="#EBEBEB"/>
<path d="M141.164 115.862H129.374V115.951H141.164V115.862Z" fill="#EBEBEB"/>
<path d="M98.9144 116.831H95.8208V116.92H98.9144V116.831Z" fill="#EBEBEB"/>
<path d="M129.018 112.559H122.186V112.648H129.018V112.559Z" fill="#EBEBEB"/>
<path d="M15.0514 113.157H-0.324219V113.246H15.0514V113.157Z" fill="#EBEBEB"/>
<path d="M20.4769 113.157H18.2234V113.246H20.4769V113.157Z" fill="#EBEBEB"/>
<path d="M61.1533 114.659H27.8032V114.748H61.1533V114.659Z" fill="#EBEBEB"/>
<path d="M65.372 94.2569H-3.36802C-3.90652 94.2559 -4.42265 94.0414 -4.80309 93.6602C-5.18354 93.2791 -5.39722 92.7626 -5.39722 92.2241V-4.40496C-5.39253 -4.94038 -5.17678 -5.45232 -4.79684 -5.8296C-4.4169 -6.20687 -3.90345 -6.419 -3.36802 -6.41992H65.372C65.9111 -6.41992 66.4282 -6.20576 66.8094 -5.82454C67.1906 -5.44332 67.4048 -4.92628 67.4048 -4.38716V92.2241C67.4048 92.7632 67.1906 93.2803 66.8094 93.6615C66.4282 94.0427 65.9111 94.2569 65.372 94.2569ZM-3.36802 -6.34872C-3.88292 -6.34778 -4.37641 -6.14257 -4.74016 -5.77815C-5.10392 -5.41373 -5.30822 -4.91986 -5.30822 -4.40496V92.2241C-5.30822 92.739 -5.10392 93.2329 -4.74016 93.5973C-4.37641 93.9617 -3.88292 94.1669 -3.36802 94.1679H65.372C65.8872 94.1669 66.3811 93.9618 66.7454 93.5975C67.1097 93.2332 67.3148 92.7393 67.3158 92.2241V-4.40496C67.3148 -4.92019 67.1097 -5.41405 66.7454 -5.77837C66.3811 -6.14269 65.8872 -6.34778 65.372 -6.34872H-3.36802Z" fill="#EBEBEB"/>
<path d="M142.378 94.2569H73.6348C73.096 94.2559 72.5795 94.0415 72.1985 93.6605C71.8175 93.2794 71.603 92.763 71.6021 92.2241V-4.40496C71.6077 -4.9407 71.8242 -5.45264 72.2047 -5.82982C72.5852 -6.207 73.099 -6.41901 73.6348 -6.41992H142.378C142.913 -6.41807 143.426 -6.20552 143.805 -5.82835C144.184 -5.45117 144.399 -4.93976 144.404 -4.40496V92.2241C144.404 92.762 144.191 93.278 143.811 93.659C143.432 94.04 142.916 94.255 142.378 94.2569ZM73.6348 -6.34872C73.1196 -6.34778 72.6257 -6.14269 72.2614 -5.77837C71.8971 -5.41405 71.692 -4.92019 71.6911 -4.40496V92.2241C71.692 92.7393 71.8971 93.2332 72.2614 93.5975C72.6257 93.9618 73.1196 94.1669 73.6348 94.1679H142.378C142.894 94.1669 143.387 93.9618 143.752 93.5975C144.116 93.2332 144.321 92.7393 144.322 92.2241V-4.40496C144.321 -4.92019 144.116 -5.41405 143.752 -5.77837C143.387 -6.14269 142.894 -6.34778 142.378 -6.34872H73.6348Z" fill="#EBEBEB"/>
<path d="M60.2776 39.4077H4.54932V109.974H60.2776V39.4077Z" fill="#F0F0F0"/>
<path d="M58.3054 41.9819H6.51807V57.0728H58.3054V41.9819Z" fill="#E0E0E0"/>
<path d="M9.45863 44.4238H6.51807V57.0689H9.45863V44.4238Z" fill="#EBEBEB"/>
<path d="M23.6845 44.4238H20.7439V57.0689H23.6845V44.4238Z" fill="#EBEBEB"/>
<path d="M39.8326 44.103L36.9348 44.6025L39.0828 57.0639L41.9806 56.5644L39.8326 44.103Z" fill="#EBEBEB"/>
<path d="M13.1041 46.0898H10.1636V57.0689H13.1041V46.0898Z" fill="#EBEBEB"/>
<path d="M19.8646 46.0898H16.9241V57.0689H19.8646V46.0898Z" fill="#EBEBEB"/>
<path d="M36.9313 46.0898H33.9907V57.0689H36.9313V46.0898Z" fill="#EBEBEB"/>
<path d="M27.5475 45.7117L24.677 46.3496L27.0589 57.0672L29.9294 56.4292L27.5475 45.7117Z" fill="#EBEBEB"/>
<path d="M15.6495 43.7939H14.1792V57.0692H15.6495V43.7939Z" fill="#EBEBEB"/>
<path d="M33.1468 43.7939H31.6765V57.0692H33.1468V43.7939Z" fill="#EBEBEB"/>
<path d="M6.5181 74.5488H58.3054V59.458L6.5181 59.458V74.5488Z" fill="#E0E0E0"/>
<path d="M55.3649 74.5488H58.3054V61.9037H55.3649V74.5488Z" fill="#EBEBEB"/>
<path d="M41.139 74.5488H44.0796V61.9037H41.139V74.5488Z" fill="#EBEBEB"/>
<path d="M22.8434 74.0508L25.7412 74.5503L27.8892 62.0889L24.9914 61.5894L22.8434 74.0508Z" fill="#EBEBEB"/>
<path d="M51.7159 74.5488H54.6565V63.5698H51.7159V74.5488Z" fill="#EBEBEB"/>
<path d="M44.9589 74.5488H47.8994V63.5698H44.9589V74.5488Z" fill="#EBEBEB"/>
<path d="M27.8888 74.5488H30.8293V63.5698H27.8888V74.5488Z" fill="#EBEBEB"/>
<path d="M34.8983 73.9079L37.7688 74.5459L40.1507 63.8284L37.2802 63.1904L34.8983 73.9079Z" fill="#EBEBEB"/>
<path d="M49.174 74.5488H50.6443V61.2736H49.174V74.5488Z" fill="#EBEBEB"/>
<path d="M31.6767 74.5488H33.147V61.2736H31.6767V74.5488Z" fill="#EBEBEB"/>
<path d="M9.45863 61.9038H6.51807V74.5489H9.45863V61.9038Z" fill="#EBEBEB"/>
<path d="M13.1041 63.5698H10.1636V74.5489H13.1041V63.5698Z" fill="#EBEBEB"/>
<path d="M19.8646 63.5698H16.9241V74.5489H19.8646V63.5698Z" fill="#EBEBEB"/>
<path d="M15.6495 61.2734H14.1792V74.5487H15.6495V61.2734Z" fill="#EBEBEB"/>
<path d="M58.3054 76.9375H6.51807V92.0283H58.3054V76.9375Z" fill="#E0E0E0"/>
<path d="M39.181 79.3799H36.2405V92.025H39.181V79.3799Z" fill="#EBEBEB"/>
<path d="M55.3321 79.061L52.4343 79.5605L54.5823 92.0219L57.4801 91.5224L55.3321 79.061Z" fill="#EBEBEB"/>
<path d="M28.6007 81.0493H25.6602V92.0284H28.6007V81.0493Z" fill="#EBEBEB"/>
<path d="M35.3649 81.0493H32.4243V92.0284H35.3649V81.0493Z" fill="#EBEBEB"/>
<path d="M52.4313 81.0493H49.4907V92.0284H52.4313V81.0493Z" fill="#EBEBEB"/>
<path d="M43.0505 80.6692L40.1799 81.3071L42.5618 92.0247L45.4324 91.3867L43.0505 80.6692Z" fill="#EBEBEB"/>
<path d="M31.1461 78.7529H29.6758V92.0282H31.1461V78.7529Z" fill="#EBEBEB"/>
<path d="M48.6436 78.7529H47.1733V92.0282H48.6436V78.7529Z" fill="#EBEBEB"/>
<path d="M21.4877 79.0645L18.5898 79.564L20.7378 92.0253L23.6356 91.5258L21.4877 79.0645Z" fill="#EBEBEB"/>
<path d="M18.5866 81.0493H15.646V92.0284H18.5866V81.0493Z" fill="#EBEBEB"/>
<path d="M9.20353 80.6711L6.33301 81.3091L8.71492 92.0266L11.5854 91.3887L9.20353 80.6711Z" fill="#EBEBEB"/>
<path d="M14.7987 78.7529H13.3284V92.0282H14.7987V78.7529Z" fill="#EBEBEB"/>
<path d="M89.6798 67.8525H121.086C121.897 67.8525 122.701 68.0126 123.45 68.3236C124.199 68.6346 124.88 69.0903 125.452 69.6648C126.025 70.2392 126.479 70.9211 126.788 71.6712C127.097 72.4213 127.254 73.225 127.252 74.0363V98.5575H83.5281V74.0363C83.5243 72.4006 84.1702 70.8304 85.3238 69.6709C86.4773 68.5113 88.0441 67.8573 89.6798 67.8525Z" fill="#E6E6E6"/>
<path d="M74.2293 86.0298H79.847C80.33 86.0279 80.8086 86.1215 81.2554 86.3052C81.7022 86.4888 82.1082 86.7589 82.4503 87.1C82.7923 87.4411 83.0636 87.8463 83.2486 88.2926C83.4335 88.7388 83.5285 89.2171 83.528 89.7002V109.992H70.5625V89.7002C70.562 89.2183 70.6565 88.7411 70.8406 88.2959C71.0247 87.8506 71.2947 87.4459 71.6352 87.105C71.9758 86.7642 72.3801 86.4938 72.8252 86.3093C73.2704 86.1248 73.7475 86.0298 74.2293 86.0298Z" fill="#E0E0E0"/>
<path d="M74.2293 86.0298H74.3468C74.8286 86.0298 75.3057 86.1247 75.7508 86.3092C76.1959 86.4937 76.6003 86.7641 76.9409 87.105C77.2814 87.4459 77.5514 87.8505 77.7355 88.2958C77.9195 88.7411 78.0141 89.2183 78.0136 89.7001V109.992H70.5625V89.7001C70.562 89.2183 70.6565 88.7411 70.8406 88.2958C71.0247 87.8505 71.2947 87.4459 71.6352 87.105C71.9758 86.7641 72.3801 86.4937 72.8252 86.3092C73.2704 86.1247 73.7475 86.0298 74.2293 86.0298Z" fill="#EBEBEB"/>
<path d="M122.677 100.658H79.5801V109.974H122.677V100.658Z" fill="#E6E6E6"/>
<path d="M121.082 92.1387H79.5193C77.4608 92.1387 75.792 93.8075 75.792 95.866V98.1835C75.792 100.242 77.4608 101.911 79.5193 101.911H121.082C123.141 101.911 124.81 100.242 124.81 98.1835V95.866C124.81 93.8075 123.141 92.1387 121.082 92.1387Z" fill="#F5F5F5"/>
<path d="M121.011 92.1387H115.86C113.801 92.1387 112.133 93.8075 112.133 95.866V98.1835C112.133 100.242 113.801 101.911 115.86 101.911H121.011C123.07 101.911 124.739 100.242 124.739 98.1835V95.866C124.739 93.8075 123.07 92.1387 121.011 92.1387Z" fill="#E0E0E0"/>
<path d="M121.57 86.0298H127.191C127.673 86.0298 128.15 86.1248 128.595 86.3093C129.04 86.4939 129.444 86.7643 129.784 87.1052C130.125 87.4462 130.394 87.8508 130.578 88.2961C130.762 88.7414 130.856 89.2185 130.855 89.7001V109.992H117.907V89.7001C117.906 89.2185 118 88.7414 118.184 88.2961C118.367 87.8508 118.637 87.4462 118.977 87.1052C119.318 86.7643 119.722 86.4939 120.167 86.3093C120.612 86.1248 121.089 86.0298 121.57 86.0298Z" fill="#E0E0E0"/>
<path d="M121.57 86.0298H121.691C122.173 86.0298 122.65 86.1248 123.095 86.3093C123.54 86.4939 123.944 86.7643 124.284 87.1052C124.624 87.4462 124.894 87.8508 125.078 88.2961C125.261 88.7414 125.355 89.2185 125.355 89.7001V109.992H117.907V89.7001C117.906 89.2185 118 88.7414 118.184 88.2961C118.367 87.8508 118.637 87.4462 118.977 87.1052C119.318 86.7643 119.722 86.4939 120.167 86.3093C120.612 86.1248 121.089 86.0298 121.57 86.0298Z" fill="#F0F0F0"/>
<path d="M34.4909 30.8297C39.0613 30.0879 42.165 25.7814 41.4231 21.211C40.6812 16.6405 36.3747 13.5369 31.8043 14.2788C27.2339 15.0207 24.1302 19.3271 24.8721 23.8976C25.614 28.468 29.9205 31.5716 34.4909 30.8297Z" fill="#E0E0E0"/>
<path d="M34.2901 29.5928C38.1774 28.9618 40.8172 25.299 40.1862 21.4117C39.5552 17.5244 35.8924 14.8847 32.0051 15.5157C28.1178 16.1467 25.4781 19.8095 26.1091 23.6968C26.7401 27.584 30.4029 30.2238 34.2901 29.5928Z" fill="#F0F0F0"/>
<path d="M32.8087 27.4498V22.4658L29.5085 24.3348" fill="#F0F0F0"/>
<path d="M32.8086 27.8057C32.7142 27.8057 32.6236 27.7682 32.5569 27.7015C32.4901 27.6347 32.4526 27.5442 32.4526 27.4497V23.0745L29.6829 24.6445C29.6008 24.6906 29.5036 24.7022 29.4129 24.6769C29.3221 24.6515 29.2451 24.5912 29.1988 24.5092C29.1524 24.4274 29.1402 24.3307 29.1648 24.2399C29.1895 24.1492 29.2491 24.072 29.3305 24.025L32.6342 22.156C32.6883 22.1256 32.7494 22.1099 32.8115 22.1104C32.8736 22.1109 32.9345 22.1276 32.9881 22.1589C33.0417 22.1902 33.0862 22.235 33.1172 22.2888C33.1482 22.3427 33.1645 22.4036 33.1646 22.4657V27.4497C33.1646 27.5442 33.1271 27.6347 33.0603 27.7015C32.9936 27.7682 32.903 27.8057 32.8086 27.8057Z" fill="#E0E0E0"/>
<path d="M133.585 11.978H79.9182V59.6001H133.585V11.978Z" fill="#E6E6E6"/>
<path d="M132.172 13.2847H81.2603V58.3222H132.172V13.2847Z" fill="#F0F0F0"/>
<path d="M93.2076 13.2847L81.2603 58.2225V37.1082L87.5686 13.2847H93.2076Z" fill="white"/>
<path d="M97.4404 13.2847L85.3863 58.3222H83.4639L95.518 13.2847H97.4404Z" fill="white"/>
<path d="M132.172 41.7041V48.8989L129.733 58.3222H127.811L132.172 41.7041Z" fill="white"/>
<path d="M99.0176 12.4766H98.1597V59.3297H99.0176V12.4766Z" fill="#E6E6E6"/>
<path d="M115.639 12.4766H114.781V59.3297H115.639V12.4766Z" fill="#E6E6E6"/>
<path d="M69.9999 126.211C108.121 126.211 139.025 124.407 139.025 122.181C139.025 119.956 108.121 118.151 69.9999 118.151C31.8786 118.151 0.975098 119.956 0.975098 122.181C0.975098 124.407 31.8786 126.211 69.9999 126.211Z" fill="#F5F5F5"/>
<path d="M124.076 113.278C124.076 113.278 125.767 109.59 123.834 105.951C121.901 102.313 121.342 101.459 122.574 100.711C123.806 99.9634 124.372 103.623 124.372 103.623C124.981 101.97 125.043 100.166 124.55 98.4753C123.696 95.8444 123.158 91.5582 124.326 91.099C125.493 90.6397 124.55 96.439 125.568 98.4254C126.084 97.035 126.418 95.5835 126.561 94.1072C126.7 91.9925 126.483 88.6176 127.405 87.7526C128.327 86.8875 128.922 87.4856 128.014 92.1492C127.468 94.9371 127.167 97.7674 127.113 100.608C127.113 100.608 129.117 94.4881 130.467 94.3101C131.816 94.1321 131.812 96.1114 130.659 97.8309C129.506 99.5504 127.281 102.63 126.917 104.214C126.917 104.214 129.121 99.6074 131.1 101.01C133.08 102.413 129.377 105.2 127.725 106.208C126.074 107.215 124.927 113.509 124.927 113.509L124.076 113.278Z" fill="#567FDE"/>
<path opacity="0.2" d="M124.076 113.278C124.076 113.278 125.767 109.59 123.834 105.951C121.901 102.313 121.342 101.459 122.574 100.711C123.806 99.9634 124.372 103.623 124.372 103.623C124.981 101.97 125.043 100.166 124.55 98.4753C123.696 95.8444 123.158 91.5582 124.326 91.099C125.493 90.6397 124.55 96.439 125.568 98.4254C126.084 97.035 126.418 95.5835 126.561 94.1072C126.7 91.9925 126.483 88.6176 127.405 87.7526C128.327 86.8875 128.922 87.4856 128.014 92.1492C127.468 94.9371 127.167 97.7674 127.113 100.608C127.113 100.608 129.117 94.4881 130.467 94.3101C131.816 94.1321 131.812 96.1114 130.659 97.8309C129.506 99.5504 127.281 102.63 126.917 104.214C126.917 104.214 129.121 99.6074 131.1 101.01C133.08 102.413 129.377 105.2 127.725 106.208C126.074 107.215 124.927 113.509 124.927 113.509L124.076 113.278Z" fill="black"/>
<path d="M125.411 114.791C125.411 114.791 123.763 111.078 125.739 107.468C127.715 103.858 128.284 103.011 127.063 102.249C125.842 101.487 125.23 105.133 125.23 105.133C124.64 103.474 124.599 101.669 125.112 99.985C125.999 97.3648 126.59 93.0857 125.426 92.6087C124.262 92.1316 125.137 97.9487 124.098 99.9173C123.598 98.5199 123.28 97.0636 123.154 95.5848C123.04 93.4702 123.3 90.0988 122.385 89.2195C121.47 88.3402 120.872 88.9312 121.727 93.609C122.238 96.4023 122.505 99.235 122.524 102.075C122.524 102.075 120.591 95.9266 119.249 95.7308C117.907 95.535 117.882 97.5108 119.014 99.248C120.146 100.985 122.332 104.097 122.688 105.685C122.688 105.685 120.552 101.057 118.544 102.431C116.536 103.805 120.217 106.646 121.855 107.678C123.493 108.711 124.568 115.022 124.568 115.022L125.411 114.791Z" fill="#567FDE"/>
<path d="M117.814 112.142H131.417L130.317 121.879H118.914L117.814 112.142Z" fill="#263238"/>
<path d="M67.3657 120.316V121.594C67.3657 121.632 67.3582 121.669 67.3437 121.704C67.3292 121.739 67.308 121.771 67.2812 121.798C67.2544 121.824 67.2227 121.846 67.1877 121.86C67.1527 121.875 67.1152 121.882 67.0773 121.882H30.9718C30.6639 121.882 30.3606 121.807 30.0886 121.662C29.8166 121.518 29.5842 121.309 29.4116 121.054C29.2391 120.799 29.1318 120.505 29.0991 120.199C29.0663 119.893 29.1092 119.583 29.2238 119.298L40.6657 90.96L59.1563 91.0846L58.5262 94.762L54.4464 118.561C54.4159 118.741 54.4251 118.926 54.4733 119.102C54.5214 119.279 54.6074 119.443 54.7253 119.583C54.8432 119.723 54.9902 119.835 55.1559 119.913C55.3217 119.99 55.5024 120.03 55.6853 120.031H67.0773C67.115 120.03 67.1524 120.037 67.1874 120.052C67.2224 120.066 67.2542 120.087 67.281 120.113C67.3078 120.14 67.3291 120.171 67.3437 120.206C67.3582 120.241 67.3657 120.278 67.3657 120.316Z" fill="#263238"/>
<path opacity="0.5" d="M67.3657 120.316V121.594C67.3657 121.632 67.3582 121.669 67.3437 121.704C67.3292 121.739 67.308 121.771 67.2812 121.798C67.2544 121.824 67.2227 121.846 67.1877 121.86C67.1527 121.875 67.1152 121.882 67.0773 121.882H30.9718C30.6639 121.882 30.3606 121.807 30.0886 121.662C29.8166 121.518 29.5842 121.309 29.4116 121.054C29.2391 120.799 29.1318 120.505 29.0991 120.199C29.0663 119.893 29.1092 119.583 29.2238 119.298L36.3189 101.729L40.6657 90.96L59.1563 91.0846L58.5262 94.762L56.7462 105.111L54.4429 118.561C54.4124 118.741 54.4215 118.926 54.4697 119.102C54.5179 119.279 54.6039 119.443 54.7218 119.583C54.8397 119.723 54.9866 119.835 55.1524 119.913C55.3182 119.99 55.4988 120.03 55.6818 120.031H67.0738C67.1118 120.03 67.1496 120.037 67.1849 120.051C67.2203 120.064 67.2526 120.085 67.2798 120.112C67.307 120.138 67.3286 120.17 67.3433 120.205C67.3581 120.24 67.3657 120.278 67.3657 120.316Z" fill="white"/>
<path opacity="0.2" d="M55.6853 120.028H32.1893C32.0539 120.027 31.9207 119.994 31.8014 119.93C31.6821 119.866 31.5803 119.773 31.5051 119.661C31.4298 119.548 31.3834 119.419 31.3699 119.284C31.3563 119.15 31.3761 119.014 31.4274 118.888L41.4595 94.7588H58.5226L54.4428 118.557C54.4123 118.738 54.4215 118.923 54.4699 119.1C54.5183 119.277 54.6046 119.441 54.7229 119.581C54.8412 119.721 54.9886 119.833 55.1548 119.91C55.321 119.988 55.502 120.028 55.6853 120.028Z" fill="black"/>
<path opacity="0.1" d="M59.1562 91.0811L58.5261 94.7586L56.7497 105.108L36.3188 101.729L40.6656 90.9565L59.1562 91.0811Z" fill="black"/>
<path d="M95.1087 38.2578H9.50849C9.22098 38.2578 8.93627 38.3144 8.67064 38.4245C8.40501 38.5345 8.16366 38.6958 7.96035 38.8991C7.75705 39.1024 7.59578 39.3437 7.48575 39.6094C7.37572 39.875 7.31909 40.1597 7.31909 40.4472V98.4005C7.31909 98.9811 7.54976 99.538 7.96035 99.9486C8.37094 100.359 8.92783 100.59 9.50849 100.59H95.1087C95.6897 100.59 96.2469 100.359 96.6581 99.9488C97.0692 99.5383 97.3007 98.9814 97.3017 98.4005V40.4472C97.3007 39.8662 97.0692 39.3093 96.6581 38.8989C96.2469 38.4884 95.6897 38.2578 95.1087 38.2578Z" fill="#263238"/>
<path opacity="0.6" d="M95.1087 38.2578H9.50849C9.22098 38.2578 8.93627 38.3144 8.67064 38.4245C8.40501 38.5345 8.16366 38.6958 7.96035 38.8991C7.75705 39.1024 7.59578 39.3437 7.48575 39.6094C7.37572 39.875 7.31909 40.1597 7.31909 40.4472V98.4005C7.31909 98.9811 7.54976 99.538 7.96035 99.9486C8.37094 100.359 8.92783 100.59 9.50849 100.59H95.1087C95.6897 100.59 96.2469 100.359 96.6581 99.9488C97.0692 99.5383 97.3007 98.9814 97.3017 98.4005V40.4472C97.3007 39.8662 97.0692 39.3093 96.6581 38.8989C96.2469 38.4884 95.6897 38.2578 95.1087 38.2578Z" fill="white"/>
<path opacity="0.2" d="M11.3241 100.586H9.5085C8.92845 100.586 8.3721 100.356 7.96161 99.9463C7.55112 99.5365 7.32004 98.9805 7.31909 98.4005V40.4508C7.31863 40.163 7.37491 39.8779 7.48473 39.6119C7.59455 39.3458 7.75574 39.104 7.95909 38.9004C8.16245 38.6967 8.40396 38.5351 8.66982 38.4248C8.93569 38.3146 9.22068 38.2578 9.5085 38.2578H11.3241C11.0354 38.2564 10.7492 38.3121 10.4821 38.4218C10.215 38.5314 9.97227 38.6927 9.76778 38.8966C9.5633 39.1004 9.40115 39.3426 9.29066 39.6094C9.18018 39.8761 9.12354 40.1621 9.12401 40.4508V98.4005C9.12401 98.6887 9.18102 98.9741 9.29175 99.2403C9.40249 99.5064 9.56477 99.748 9.76926 99.9512C9.97374 100.154 10.2164 100.315 10.4832 100.424C10.7501 100.533 11.0359 100.588 11.3241 100.586Z" fill="black"/>
<path d="M95.3295 40.1411H11.1106V96.0224H95.3295V40.1411Z" fill="#567FDE"/>
<path opacity="0.4" d="M52.0576 61.4121C56.096 61.4121 59.3698 58.1383 59.3698 54.0998C59.3698 50.0614 56.096 46.7876 52.0576 46.7876C48.0192 46.7876 44.7454 50.0614 44.7454 54.0998C44.7454 58.1383 48.0192 61.4121 52.0576 61.4121Z" fill="white"/>
<path d="M50.3132 52.9891V52.3198C50.3132 52.0007 50.44 51.6947 50.6657 51.469C50.8913 51.2433 51.1974 51.1166 51.5165 51.1166H52.5845C52.7437 51.1147 52.9017 51.1444 53.0494 51.204C53.197 51.2637 53.3314 51.352 53.4446 51.4639C53.5578 51.5758 53.6478 51.7091 53.7091 51.856C53.7705 52.003 53.8021 52.1606 53.8021 52.3198V53.0034H54.5817V52.3198C54.5808 51.7942 54.3715 51.2904 53.9999 50.9187C53.6282 50.5471 53.1244 50.3379 52.5988 50.3369H51.5308C51.0052 50.3379 50.5013 50.5471 50.1297 50.9187C49.758 51.2904 49.5488 51.7942 49.5479 52.3198V53.0034L50.3132 52.9891Z" fill="white"/>
<path d="M48.551 53.8899V57.482C48.551 57.5343 48.5613 57.5862 48.5814 57.6346C48.6014 57.6829 48.6308 57.7269 48.6678 57.7639C48.7048 57.8009 48.7488 57.8303 48.7972 57.8503C48.8455 57.8704 48.8974 57.8807 48.9497 57.8807H55.1655C55.2179 57.8807 55.2697 57.8704 55.3181 57.8503C55.3665 57.8303 55.4104 57.8009 55.4474 57.7639C55.4845 57.7269 55.5138 57.6829 55.5339 57.6346C55.5539 57.5862 55.5642 57.5343 55.5642 57.482V53.8899C55.5642 53.7842 55.5222 53.6828 55.4474 53.608C55.3727 53.5332 55.2713 53.4912 55.1655 53.4912H48.9497C48.8974 53.4912 48.8455 53.5015 48.7972 53.5216C48.7488 53.5416 48.7048 53.571 48.6678 53.608C48.6308 53.645 48.6014 53.689 48.5814 53.7374C48.5613 53.7857 48.551 53.8376 48.551 53.8899ZM52.2819 55.9227V56.6347H51.844V55.9227C51.78 55.887 51.7261 55.8356 51.6875 55.7733C51.6489 55.711 51.6268 55.6399 51.6233 55.5667C51.6233 55.4487 51.6702 55.3355 51.7536 55.252C51.8371 55.1686 51.9503 55.1217 52.0683 55.1217C52.1863 55.1217 52.2995 55.1686 52.383 55.252C52.4664 55.3355 52.5133 55.4487 52.5133 55.5667C52.5088 55.641 52.4851 55.7128 52.4445 55.7752C52.404 55.8376 52.3479 55.8884 52.2819 55.9227Z" fill="white"/>
<path d="M34.2186 67.4678H27.3122C26.9012 67.4678 26.5681 67.8009 26.5681 68.2118V75.1182C26.5681 75.5291 26.9012 75.8623 27.3122 75.8623H34.2186C34.6295 75.8623 34.9626 75.5291 34.9626 75.1182V68.2118C34.9626 67.8009 34.6295 67.4678 34.2186 67.4678Z" fill="white"/>
<path d="M44.8665 67.457H37.9601C37.5492 67.457 37.2161 67.7901 37.2161 68.2011V75.1075C37.2161 75.5184 37.5492 75.8515 37.9601 75.8515H44.8665C45.2774 75.8515 45.6105 75.5184 45.6105 75.1075V68.2011C45.6105 67.7901 45.2774 67.457 44.8665 67.457Z" fill="white"/>
<path d="M55.5108 67.4463H48.6044C48.1935 67.4463 47.8604 67.7794 47.8604 68.1903V75.0967C47.8604 75.5077 48.1935 75.8408 48.6044 75.8408H55.5108C55.9217 75.8408 56.2548 75.5077 56.2548 75.0967V68.1903C56.2548 67.7794 55.9217 67.4463 55.5108 67.4463Z" fill="white"/>
<path d="M66.1553 67.4321H59.2489C58.838 67.4321 58.5049 67.7652 58.5049 68.1762V75.0826C58.5049 75.4935 58.838 75.8266 59.2489 75.8266H66.1553C66.5662 75.8266 66.8994 75.4935 66.8994 75.0826V68.1762C66.8994 67.7652 66.5662 67.4321 66.1553 67.4321Z" fill="white"/>
<path d="M76.7996 67.4214H69.8932C69.4823 67.4214 69.1492 67.7545 69.1492 68.1654V75.0718C69.1492 75.4827 69.4823 75.8159 69.8932 75.8159H76.7996C77.2105 75.8159 77.5437 75.4827 77.5437 75.0718V68.1654C77.5437 67.7545 77.2105 67.4214 76.7996 67.4214Z" fill="white"/>
<path d="M71.4988 71.7824C71.4988 70.305 72.2891 69.4648 73.35 69.4648C74.4109 69.4648 75.1976 70.305 75.1976 71.7824C75.1976 73.2598 74.4073 74.1 73.35 74.1C72.2927 74.1 71.4988 73.2598 71.4988 71.7824ZM74.5497 71.7824C74.5497 70.6218 74.0549 70.0416 73.35 70.0416C72.6451 70.0416 72.1467 70.6218 72.1467 71.7824C72.1467 72.943 72.638 73.5232 73.35 73.5232C74.062 73.5232 74.5497 72.9394 74.5497 71.7824Z" fill="#263238"/>
<path d="M32.4526 71.7256C32.4526 73.2706 31.5768 74.1001 30.3166 74.1001C29.9233 74.1142 29.5334 74.0219 29.1881 73.8331L29.4159 73.324C29.6803 73.4769 29.983 73.551 30.2881 73.5376C31.2066 73.5376 31.7904 72.9609 31.7904 71.8253V71.6651C31.6385 71.8639 31.4396 72.022 31.2116 72.1252C30.9836 72.2283 30.7336 72.2733 30.4839 72.256C29.5832 72.256 28.9353 71.7185 28.9353 70.8854C28.9353 70.0524 29.6473 69.4614 30.5337 69.4614C31.7655 69.465 32.4526 70.2802 32.4526 71.7256ZM31.6551 70.8641C31.6551 70.3977 31.2991 69.9883 30.5871 69.9883C30.4625 69.9732 30.3361 69.9847 30.2162 70.022C30.0964 70.0592 29.9857 70.1214 29.8916 70.2045C29.7974 70.2875 29.7219 70.3895 29.67 70.5038C29.6181 70.6181 29.5909 70.7421 29.5903 70.8676C29.5903 71.4016 29.9855 71.7434 30.6227 71.7434C31.26 71.7434 31.6551 71.3625 31.6551 70.8641Z" fill="#263238"/>
<path d="M39.562 71.7824C39.562 70.305 40.3523 69.4648 41.4132 69.4648C42.4741 69.4648 43.2609 70.305 43.2609 71.7824C43.2609 73.2598 42.4705 74.1 41.4132 74.1C40.3559 74.1 39.562 73.2598 39.562 71.7824ZM42.6129 71.7824C42.6129 70.6218 42.1217 70.0416 41.4132 70.0416C40.7048 70.0416 40.2099 70.6218 40.2099 71.7824C40.2099 72.943 40.7012 73.5232 41.4132 73.5232C42.1252 73.5232 42.6129 72.943 42.6129 71.7824Z" fill="#263238"/>
<path d="M53.6952 73.4838V74.0356H50.4378V73.6084L52.2819 71.8284C52.7625 71.3621 52.8515 71.0773 52.8515 70.7925C52.8515 70.3261 52.524 70.0413 51.8868 70.0413C51.6692 70.0292 51.4517 70.0672 51.2511 70.1524C51.0505 70.2376 50.8722 70.3676 50.7298 70.5326L50.2883 70.1517C50.4966 69.9213 50.7535 69.7401 51.0404 69.6212C51.3273 69.5024 51.6371 69.4489 51.9473 69.4646C52.8907 69.4646 53.4994 69.9488 53.4994 70.7248C53.4994 71.1663 53.3713 71.5614 52.7554 72.1488L51.3706 73.4803L53.6952 73.4838Z" fill="#263238"/>
<path d="M63.2359 69.5146V74.0359H62.5951V70.0807H61.5698V69.5146H63.2359Z" fill="#263238"/>
<g opacity="0.6">
<path d="M44.094 65.4169V65.5771H42.8586V63.8291H44.0548V63.9893H43.0438V64.6123H43.9444V64.7796H43.0438V65.4275L44.094 65.4169Z" fill="white"/>
<path d="M45.6959 64.8151V65.577H45.5179V64.8329C45.5284 64.7776 45.5258 64.7206 45.5101 64.6666C45.4944 64.6126 45.4661 64.563 45.4275 64.522C45.389 64.481 45.3412 64.4497 45.2882 64.4308C45.2352 64.4118 45.1785 64.4057 45.1227 64.4128C45.06 64.4084 44.9971 64.4177 44.9384 64.4401C44.8796 64.4625 44.8265 64.4975 44.7828 64.5426C44.739 64.5877 44.7057 64.6419 44.685 64.7012C44.6644 64.7606 44.6571 64.8238 44.6635 64.8863V65.577H44.489V64.2633H44.6563V64.5054C44.7098 64.4234 44.7842 64.3571 44.8718 64.3133C44.9594 64.2695 45.057 64.2498 45.1547 64.2562C45.2289 64.2499 45.3036 64.2602 45.3734 64.2863C45.4431 64.3124 45.5062 64.3537 45.558 64.4072C45.6098 64.4607 45.649 64.5251 45.6729 64.5956C45.6967 64.6662 45.7046 64.7412 45.6959 64.8151Z" fill="white"/>
<path d="M46.86 65.4916C46.7817 65.555 46.683 65.5879 46.5823 65.5841C46.5311 65.5884 46.4795 65.5815 46.4312 65.5639C46.3828 65.5463 46.3389 65.5185 46.3023 65.4823C46.2658 65.4461 46.2375 65.4024 46.2195 65.3542C46.2015 65.306 46.1941 65.2545 46.1979 65.2032V64.4236H45.9629V64.2741H46.1979V63.9893H46.3759V64.2741H46.7746V64.4236H46.3759V65.2068C46.3759 65.3634 46.4542 65.4453 46.6001 65.4453C46.6709 65.4475 46.7402 65.4248 46.7959 65.3812L46.86 65.4916Z" fill="white"/>
<path d="M48.284 64.9756H47.1876C47.1958 65.1044 47.2548 65.2247 47.3515 65.3101C47.4483 65.3955 47.5749 65.4391 47.7038 65.4313C47.7792 65.4337 47.8543 65.4197 47.9237 65.3902C47.9932 65.3607 48.0554 65.3164 48.106 65.2604L48.2057 65.3743C48.1086 65.4655 47.9879 65.5276 47.8572 65.5535C47.7266 65.5795 47.5913 65.5683 47.4667 65.5212C47.3421 65.4741 47.2332 65.393 47.1524 65.2871C47.0716 65.1812 47.0221 65.0548 47.0096 64.9222C47.0046 64.8356 47.0177 64.7489 47.0478 64.6676C47.0779 64.5862 47.1245 64.512 47.1847 64.4495C47.2448 64.387 47.3172 64.3376 47.3974 64.3044C47.4775 64.2712 47.5636 64.2549 47.6504 64.2565C47.7368 64.2548 47.8226 64.2711 47.9024 64.3044C47.9822 64.3377 48.0542 64.3872 48.1138 64.4498C48.1734 64.5124 48.2193 64.5868 48.2486 64.6681C48.2779 64.7494 48.29 64.8359 48.284 64.9222C48.284 64.9222 48.284 64.9542 48.284 64.9756ZM47.1876 64.8439H48.1167C48.1065 64.7277 48.0532 64.6195 47.9672 64.5407C47.8812 64.4619 47.7688 64.4182 47.6521 64.4182C47.5355 64.4182 47.4231 64.4619 47.3371 64.5407C47.2511 64.6195 47.1977 64.7277 47.1876 64.8439Z" fill="white"/>
<path d="M49.3059 64.2563V64.4237H49.2631C49.2006 64.4204 49.138 64.431 49.08 64.4548C49.0221 64.4786 48.9701 64.515 48.9279 64.5613C48.8856 64.6076 48.8542 64.6627 48.8358 64.7226C48.8175 64.7826 48.8127 64.8458 48.8217 64.9078V65.5771H48.6401V64.2635H48.811V64.5198C48.8568 64.4307 48.9287 64.3576 49.0172 64.3106C49.1056 64.2635 49.2064 64.2446 49.3059 64.2563Z" fill="white"/>
<path d="M51.399 64.2637L50.744 65.7339C50.6336 65.9903 50.4948 66.0722 50.3061 66.0722C50.2479 66.0743 50.1898 66.0646 50.1354 66.0438C50.0809 66.023 50.0312 65.9915 49.9893 65.9511L50.0711 65.8194C50.1015 65.852 50.1385 65.8778 50.1796 65.895C50.2208 65.9122 50.2651 65.9204 50.3097 65.9191C50.4271 65.9191 50.5055 65.8657 50.5802 65.7019L50.6372 65.5738L50.064 64.2637H50.2491L50.7404 65.3779L51.2353 64.2637H51.399Z" fill="white"/>
<path d="M51.4882 64.9219C51.4875 64.7893 51.5261 64.6596 51.5992 64.5491C51.6723 64.4385 51.7766 64.3522 51.8988 64.301C52.0211 64.2498 52.1558 64.236 52.2858 64.2615C52.4159 64.2869 52.5355 64.3503 52.6294 64.4438C52.7234 64.5372 52.7875 64.6565 52.8136 64.7864C52.8397 64.9163 52.8267 65.0511 52.7761 65.1736C52.7256 65.2961 52.6398 65.4008 52.5296 65.4745C52.4195 65.5482 52.29 65.5876 52.1574 65.5876C52.0689 65.5911 51.9806 65.5762 51.8981 65.5441C51.8156 65.5119 51.7405 65.463 51.6777 65.4006C51.6149 65.3381 51.5657 65.2633 51.5331 65.181C51.5004 65.0986 51.4852 65.0104 51.4882 64.9219ZM52.6416 64.9219C52.6374 64.8263 52.6052 64.734 52.549 64.6566C52.4927 64.5792 52.415 64.52 52.3254 64.4865C52.2357 64.4529 52.1383 64.4465 52.045 64.4679C51.9518 64.4894 51.8669 64.5378 51.8009 64.6071C51.735 64.6765 51.6909 64.7637 51.6742 64.8579C51.6574 64.9521 51.6687 65.0491 51.7067 65.1369C51.7447 65.2247 51.8077 65.2994 51.8879 65.3517C51.968 65.404 52.0618 65.4315 52.1574 65.4309C52.2226 65.4306 52.287 65.4169 52.3466 65.3908C52.4063 65.3646 52.4599 65.3265 52.5043 65.2788C52.5486 65.2311 52.5828 65.1748 52.6045 65.1134C52.6263 65.0521 52.6353 64.9869 52.6309 64.9219H52.6416Z" fill="white"/>
<path d="M54.3538 64.2637V65.5773H54.1865V65.3352C54.1378 65.4162 54.068 65.4824 53.9846 65.5269C53.9013 65.5714 53.8074 65.5925 53.713 65.588C53.6378 65.5954 53.5618 65.5859 53.4908 65.5601C53.4197 65.5343 53.3553 65.4929 53.3024 65.4389C53.2494 65.385 53.2093 65.3198 53.1848 65.2483C53.1604 65.1767 53.1523 65.1006 53.1612 65.0255V64.2637H53.3357V65.0077C53.3251 65.063 53.3277 65.12 53.3434 65.174C53.3591 65.2281 53.3874 65.2776 53.426 65.3186C53.4646 65.3596 53.5123 65.3909 53.5653 65.4099C53.6183 65.4288 53.675 65.435 53.7308 65.4278C53.7927 65.4314 53.8546 65.4213 53.9121 65.3984C53.9697 65.3754 54.0215 65.3401 54.0639 65.295C54.1063 65.2498 54.1383 65.1959 54.1577 65.1371C54.177 65.0782 54.1832 65.0158 54.1758 64.9543V64.2637H54.3538Z" fill="white"/>
<path d="M55.5108 64.2564V64.4238H55.4681C55.4055 64.4205 55.3429 64.4311 55.285 64.4549C55.227 64.4787 55.175 64.5151 55.1328 64.5614C55.0906 64.6077 55.0591 64.6628 55.0408 64.7227C55.0224 64.7827 55.0176 64.8459 55.0266 64.9079V65.5772H54.8486V64.2636H55.0195V64.5199C55.0651 64.4314 55.1364 64.3588 55.2242 64.3117C55.3119 64.2647 55.4119 64.2454 55.5108 64.2564Z" fill="white"/>
<path d="M56.3831 64.7049C56.3767 64.522 56.4251 64.3414 56.5221 64.1862C56.6191 64.031 56.7602 63.9083 56.9274 63.8339C57.0945 63.7594 57.2801 63.7366 57.4603 63.7683C57.6406 63.8001 57.8072 63.8849 57.9389 64.012C58.0706 64.1391 58.1613 64.3026 58.1994 64.4816C58.2375 64.6606 58.2213 64.8469 58.1528 65.0166C58.0843 65.1863 57.9667 65.3316 57.8151 65.4341C57.6634 65.5365 57.4846 65.5912 57.3016 65.5914C57.1824 65.5962 57.0635 65.5768 56.952 65.5343C56.8405 65.4919 56.7387 65.4273 56.6529 65.3445C56.567 65.2616 56.4989 65.1622 56.4525 65.0523C56.4062 64.9424 56.3825 64.8242 56.3831 64.7049ZM58.0314 64.7049C58.0356 64.5581 57.9957 64.4135 57.9167 64.2897C57.8378 64.1658 57.7235 64.0686 57.5887 64.0104C57.4539 63.9523 57.3047 63.936 57.1604 63.9636C57.0162 63.9912 56.8836 64.0615 56.7798 64.1653C56.676 64.2691 56.6057 64.4017 56.5781 64.546C56.5505 64.6902 56.5668 64.8394 56.6249 64.9742C56.683 65.109 56.7803 65.2233 56.9041 65.3023C57.028 65.3812 57.1726 65.4211 57.3194 65.4169C57.5082 65.4169 57.6893 65.3419 57.8229 65.2084C57.9564 65.0749 58.0314 64.8937 58.0314 64.7049Z" fill="white"/>
<path d="M58.9426 63.9893H58.3303V63.8291H59.7543V63.9893H59.1384V65.5771H58.9533L58.9426 63.9893Z" fill="white"/>
<path d="M61.4026 64.4239C61.4026 64.7799 61.132 65.0184 60.6906 65.0184H60.2242V65.5702H60.032V63.8223H60.6835C61.132 63.8294 61.4026 64.0679 61.4026 64.4239ZM61.2175 64.4239C61.2175 64.1427 61.0323 63.9825 60.6835 63.9825H60.2207V64.8547H60.6835C61.0323 64.8618 61.2175 64.7051 61.2175 64.4239Z" fill="white"/>
</g>
<g opacity="0.6">
<path d="M45.1333 80.4045L45.2045 80.2657C45.3643 80.4044 45.5697 80.4792 45.7812 80.4757C46.1052 80.4757 46.2476 80.3404 46.2476 80.166C46.2476 79.6889 45.1796 79.9809 45.1796 79.3365C45.1796 79.0802 45.3789 78.8595 45.8204 78.8595C46.0118 78.8569 46.1998 78.9101 46.3615 79.0126L46.301 79.1585C46.1573 79.0669 45.9908 79.0175 45.8204 79.0161C45.5035 79.0161 45.3611 79.1585 45.3611 79.333C45.3611 79.81 46.4291 79.5216 46.4291 80.1553C46.4291 80.4152 46.2262 80.6323 45.7812 80.6323C45.5442 80.6412 45.3126 80.5598 45.1333 80.4045Z" fill="white"/>
<path d="M47.9279 80.0167H46.8314C46.8396 80.1455 46.8986 80.2658 46.9954 80.3512C47.0921 80.4366 47.2188 80.4802 47.3476 80.4724C47.423 80.4748 47.4981 80.4608 47.5676 80.4313C47.637 80.4017 47.6993 80.3575 47.7499 80.3015L47.8496 80.4154C47.7869 80.4871 47.7089 80.5438 47.6214 80.5813C47.534 80.6189 47.4392 80.6364 47.344 80.6326C47.2537 80.638 47.1633 80.6246 47.0784 80.5932C46.9936 80.5618 46.9162 80.5131 46.8512 80.4501C46.7863 80.3872 46.7351 80.3114 46.7011 80.2275C46.667 80.1437 46.6508 80.0537 46.6534 79.9633C46.649 79.8768 46.6624 79.7904 46.6927 79.7093C46.7231 79.6282 46.7697 79.5541 46.8297 79.4917C46.8898 79.4294 46.962 79.3799 47.0419 79.3465C47.1217 79.3132 47.2076 79.2965 47.2942 79.2976C47.3809 79.2954 47.4672 79.3113 47.5474 79.3444C47.6276 79.3775 47.7 79.4269 47.76 79.4896C47.82 79.5522 47.8662 79.6267 47.8957 79.7083C47.9253 79.7899 47.9374 79.8767 47.9314 79.9633C47.9314 79.9633 47.9279 79.9989 47.9279 80.0167ZM46.8314 79.885H47.7606C47.7504 79.7688 47.697 79.6606 47.611 79.5818C47.525 79.503 47.4126 79.4593 47.296 79.4593C47.1793 79.4593 47.0669 79.503 46.9809 79.5818C46.8949 79.6606 46.8416 79.7688 46.8314 79.885Z" fill="white"/>
<path d="M49.505 79.8567V80.6185H49.3306V79.8745C49.3405 79.8195 49.3374 79.7629 49.3214 79.7093C49.3054 79.6557 49.277 79.6067 49.2385 79.5661C49.2 79.5256 49.1525 79.4946 49.0999 79.4758C49.0472 79.457 48.9909 79.4509 48.9354 79.458C48.8727 79.4535 48.8098 79.4628 48.7511 79.4852C48.6924 79.5076 48.6393 79.5426 48.5955 79.5877C48.5517 79.6328 48.5184 79.687 48.4978 79.7464C48.4771 79.8058 48.4698 79.8689 48.4762 79.9315V80.6185H48.2839V79.3085H48.4548V79.5505C48.5079 79.4678 48.582 79.4008 48.6697 79.3564C48.7573 79.312 48.8552 79.2917 48.9532 79.2978C49.0283 79.2897 49.1042 79.2987 49.1753 79.3241C49.2463 79.3495 49.3108 79.3905 49.3638 79.4442C49.4169 79.4979 49.4571 79.5629 49.4815 79.6343C49.506 79.7057 49.514 79.7818 49.505 79.8567Z" fill="white"/>
<path d="M51.1887 78.7671V80.6183H51.0179V80.3584C50.9658 80.4451 50.8914 80.5162 50.8025 80.5644C50.7136 80.6126 50.6134 80.6362 50.5123 80.6325C50.3437 80.6202 50.186 80.5445 50.0709 80.4207C49.9558 80.2969 49.8918 80.1341 49.8918 79.965C49.8918 79.796 49.9558 79.6332 50.0709 79.5093C50.186 79.3855 50.3437 79.3098 50.5123 79.2975C50.6108 79.294 50.7085 79.3162 50.7958 79.3617C50.8832 79.4073 50.9572 79.4747 51.0107 79.5574V78.7671H51.1887ZM51.0143 79.9632C51.0101 79.8678 50.978 79.7757 50.9219 79.6984C50.8659 79.621 50.7883 79.5618 50.6989 79.5282C50.6095 79.4945 50.5122 79.4878 50.419 79.509C50.3259 79.5302 50.241 79.5782 50.1749 79.6472C50.1088 79.7162 50.0644 79.8031 50.0473 79.897C50.0301 79.991 50.0409 80.088 50.0784 80.1758C50.1159 80.2637 50.1783 80.3387 50.258 80.3914C50.3376 80.4441 50.4311 80.4722 50.5266 80.4723C50.5928 80.4734 50.6585 80.4608 50.7195 80.4354C50.7806 80.4099 50.8358 80.3721 50.8816 80.3243C50.9274 80.2765 50.9628 80.2197 50.9856 80.1576C51.0085 80.0955 51.0182 80.0293 51.0143 79.9632Z" fill="white"/>
<path d="M53.3249 79.8065V80.6182H53.154V80.4153C53.1046 80.4882 53.0367 80.5467 52.9573 80.5848C52.8778 80.623 52.7897 80.6394 52.7019 80.6324C52.4064 80.6324 52.2249 80.4758 52.2249 80.2479C52.2249 80.0201 52.353 79.8919 52.7304 79.8919H53.1469V79.8136C53.1519 79.7656 53.1462 79.7171 53.1301 79.6716C53.114 79.6262 53.0879 79.5848 53.0538 79.5507C53.0197 79.5166 52.9783 79.4905 52.9329 79.4744C52.8874 79.4583 52.8389 79.4526 52.7909 79.4576C52.6308 79.4552 52.4752 79.5108 52.353 79.6143L52.2747 79.4825C52.425 79.3625 52.6129 79.2994 52.8051 79.3045C52.8738 79.2964 52.9435 79.3036 53.009 79.3257C53.0746 79.3477 53.1344 79.3841 53.1841 79.4322C53.2339 79.4802 53.2723 79.5387 53.2967 79.6035C53.321 79.6682 53.3307 79.7376 53.3249 79.8065ZM53.1469 80.223V80.0094H52.7339C52.4812 80.0094 52.3993 80.1091 52.3993 80.2444C52.3993 80.3797 52.5203 80.49 52.7304 80.49C52.8192 80.4959 52.9076 80.4731 52.9826 80.4251C53.0575 80.377 53.1151 80.3062 53.1469 80.223Z" fill="white"/>
<path d="M55.023 79.3084V80.4441C55.037 80.5333 55.0297 80.6245 55.0018 80.7104C54.9738 80.7963 54.9259 80.8743 54.8621 80.9382C54.7982 81.002 54.7202 81.0499 54.6343 81.0779C54.5485 81.1058 54.4572 81.1131 54.368 81.0991C54.1467 81.1078 53.9295 81.0371 53.7557 80.8998L53.8447 80.7645C53.9906 80.8824 54.1733 80.9454 54.3609 80.9425C54.6955 80.9425 54.845 80.793 54.845 80.469V80.3017C54.7887 80.3837 54.7124 80.45 54.6233 80.4942C54.5342 80.5384 54.4353 80.5592 54.336 80.5544C54.2485 80.561 54.1606 80.5494 54.0779 80.5205C53.9951 80.4915 53.9192 80.4457 53.8549 80.3861C53.7906 80.3265 53.7394 80.2542 53.7043 80.1738C53.6692 80.0934 53.6511 80.0067 53.6511 79.919C53.6511 79.8313 53.6692 79.7445 53.7043 79.6642C53.7394 79.5838 53.7906 79.5115 53.8549 79.4519C53.9192 79.3922 53.9951 79.3465 54.0779 79.3175C54.1606 79.2885 54.2485 79.277 54.336 79.2835C54.4371 79.2787 54.5378 79.3001 54.6282 79.3456C54.7187 79.3911 54.7958 79.4593 54.8522 79.5434V79.2942L55.023 79.3084ZM54.8522 79.9314C54.8557 79.8322 54.8295 79.7341 54.777 79.6499C54.7244 79.5656 54.6478 79.499 54.5571 79.4585C54.4664 79.418 54.3657 79.4056 54.2679 79.4227C54.1701 79.4399 54.0796 79.4859 54.0081 79.5549C53.9366 79.6238 53.8874 79.7125 53.8666 79.8097C53.8459 79.9068 53.8547 80.0079 53.8918 80.1C53.929 80.1921 53.9928 80.2711 54.0751 80.3266C54.1574 80.3822 54.2544 80.412 54.3538 80.412C54.4187 80.416 54.4838 80.4064 54.5449 80.3839C54.606 80.3614 54.6617 80.3264 54.7086 80.2813C54.7554 80.2361 54.7924 80.1817 54.8171 80.1214C54.8418 80.0612 54.8538 79.9965 54.8522 79.9314Z" fill="white"/>
<path d="M56.5075 79.8066V80.6182H56.3402V80.4153C56.2905 80.488 56.2226 80.5463 56.1432 80.5844C56.0638 80.6225 55.9759 80.6391 55.8881 80.6325C55.589 80.6325 55.4075 80.4759 55.4075 80.248C55.4075 80.0202 55.5392 79.892 55.9166 79.892H56.3295V79.8137C56.3295 79.5894 56.2049 79.4577 55.9735 79.4577C55.8146 79.4558 55.6603 79.5114 55.5392 79.6143L55.4573 79.4826C55.609 79.3626 55.798 79.2996 55.9913 79.3046C56.0597 79.297 56.129 79.3047 56.1941 79.327C56.2592 79.3493 56.3185 79.3858 56.3679 79.4338C56.4172 79.4818 56.4553 79.5401 56.4795 79.6045C56.5036 79.669 56.5132 79.738 56.5075 79.8066ZM56.3295 80.2231V80.0095H55.9201C55.6638 80.0095 55.5819 80.1092 55.5819 80.2444C55.5819 80.3797 55.7065 80.4901 55.9166 80.4901C56.005 80.4963 56.0931 80.4737 56.1676 80.4255C56.2421 80.3773 56.2989 80.3063 56.3295 80.2231Z" fill="white"/>
<path d="M56.949 78.8919C56.9541 78.8611 56.97 78.8331 56.9937 78.813C57.0175 78.7928 57.0477 78.7817 57.0789 78.7817C57.1101 78.7817 57.1403 78.7928 57.1641 78.813C57.1879 78.8331 57.2037 78.8611 57.2089 78.8919C57.2037 78.9227 57.1879 78.9506 57.1641 78.9708C57.1403 78.9909 57.1101 79.002 57.0789 79.002C57.0477 79.002 57.0175 78.9909 56.9937 78.9708C56.97 78.9506 56.9541 78.9227 56.949 78.8919ZM56.9881 79.3084H57.1661V80.6185H56.9881V79.3084Z" fill="white"/>
<path d="M58.8642 79.8563V80.6182H58.6897V79.8741C58.6997 79.8191 58.6965 79.7625 58.6805 79.709C58.6645 79.6554 58.6362 79.6063 58.5977 79.5658C58.5592 79.5252 58.5117 79.4943 58.459 79.4755C58.4064 79.4567 58.35 79.4506 58.2946 79.4576C58.2319 79.4531 58.169 79.4624 58.1102 79.4848C58.0515 79.5073 57.9984 79.5423 57.9546 79.5874C57.9109 79.6325 57.8775 79.6866 57.8569 79.746C57.8363 79.8054 57.8289 79.8686 57.8353 79.9311V80.6182H57.6609V79.3081H57.8282V79.5502C57.8813 79.4675 57.9554 79.4005 58.043 79.356C58.1307 79.3116 58.2286 79.2914 58.3266 79.2974C58.4005 79.2917 58.4748 79.3023 58.5441 79.3287C58.6134 79.3551 58.676 79.3965 58.7274 79.4499C58.7788 79.5033 58.8177 79.5675 58.8414 79.6378C58.865 79.7081 58.8728 79.7827 58.8642 79.8563Z" fill="white"/>
</g>
<path opacity="0.4" d="M61.9758 89.5183H42.136C41.352 89.5173 40.6004 89.2052 40.0464 88.6505C39.4924 88.0958 39.1812 87.3439 39.1812 86.5599C39.1812 85.7759 39.4924 85.024 40.0464 84.4693C40.6004 83.9146 41.352 83.6025 42.136 83.6016H61.9758C62.7604 83.6016 63.5129 83.9133 64.0677 84.4681C64.6225 85.0229 64.9342 85.7753 64.9342 86.5599C64.9342 87.3445 64.6225 88.097 64.0677 88.6518C63.5129 89.2066 62.7604 89.5183 61.9758 89.5183Z" fill="white"/>
<path d="M44.3182 86.4105C44.3165 86.2719 44.3433 86.1345 44.397 86.0067C44.4507 85.8789 44.5301 85.7635 44.6302 85.6677C44.7304 85.5719 44.8492 85.4977 44.9792 85.4497C45.1093 85.4017 45.2478 85.381 45.3862 85.3888C45.5276 85.3838 45.6685 85.4091 45.7993 85.4632C45.9301 85.5172 46.0478 85.5987 46.1445 85.7021L45.9594 85.8801C45.8878 85.8031 45.8006 85.7423 45.7035 85.7017C45.6065 85.6612 45.502 85.6419 45.3969 85.6451C45.2705 85.6463 45.1463 85.6788 45.0356 85.7397C44.9248 85.8006 44.8308 85.888 44.762 85.994C44.6932 86.1001 44.6518 86.2215 44.6414 86.3475C44.631 86.4735 44.6519 86.6001 44.7024 86.716C44.7528 86.8319 44.8312 86.9335 44.9305 87.0117C45.0298 87.0899 45.1469 87.1424 45.2714 87.1643C45.3959 87.1862 45.5239 87.177 45.6439 87.1374C45.764 87.0978 45.8723 87.0291 45.9594 86.9374L46.1445 87.1154C46.0473 87.2191 45.929 87.3007 45.7976 87.3547C45.6661 87.4088 45.5246 87.434 45.3826 87.4287C45.2447 87.4365 45.1067 87.4159 44.977 87.3681C44.8474 87.3203 44.729 87.2464 44.6292 87.1509C44.5294 87.0554 44.4502 86.9404 44.3967 86.813C44.3432 86.6857 44.3165 86.5487 44.3182 86.4105Z" fill="white"/>
<path d="M46.3366 86.4103C46.3267 86.1973 46.3807 85.9861 46.4919 85.804C46.603 85.6219 46.7661 85.4773 46.9602 85.3888C47.1543 85.3003 47.3704 85.2719 47.5807 85.3073C47.7911 85.3427 47.986 85.4403 48.1404 85.5875C48.2948 85.7346 48.4016 85.9247 48.447 86.1331C48.4924 86.3415 48.4743 86.5588 48.3952 86.7568C48.316 86.9549 48.1794 87.1247 48.0028 87.2444C47.8263 87.3641 47.6179 87.4282 47.4046 87.4285C47.2666 87.4358 47.1287 87.4148 46.9991 87.3668C46.8695 87.3189 46.7511 87.245 46.6511 87.1496C46.5511 87.0543 46.4716 86.9396 46.4176 86.8124C46.3635 86.6853 46.3359 86.5485 46.3366 86.4103ZM48.17 86.4103C48.1721 86.2562 48.1283 86.105 48.0442 85.9759C47.9601 85.8468 47.8394 85.7457 47.6976 85.6854C47.5558 85.6251 47.3992 85.6084 47.2479 85.6375C47.0965 85.6665 46.9572 85.7399 46.8478 85.8483C46.7383 85.9568 46.6636 86.0954 46.6332 86.2465C46.6028 86.3975 46.618 86.5542 46.677 86.6966C46.7359 86.839 46.836 86.9606 46.9643 87.0459C47.0926 87.1312 47.2434 87.1764 47.3975 87.1757C47.4993 87.1791 47.6007 87.1617 47.6955 87.1246C47.7903 87.0874 47.8765 87.0313 47.9488 86.9596C48.0211 86.888 48.0781 86.8023 48.1161 86.7078C48.1542 86.6134 48.1725 86.5121 48.17 86.4103Z" fill="white"/>
<path d="M50.6051 85.4277V87.4213H50.3701L49.174 85.9333V87.4213H48.8892V85.4277H49.1241L50.3203 86.9123V85.4277H50.6051Z" fill="white"/>
<path d="M51.5983 85.6591H50.9148V85.4277H52.556V85.6734H51.8796V87.4213H51.5983V85.6591Z" fill="white"/>
<path d="M52.8728 85.4277H53.1576V87.4213H52.8728V85.4277Z" fill="white"/>
<path d="M55.4715 85.4277V87.4213H55.2366L54.0404 85.9333V87.4213H53.7556V85.4277H53.9799L55.1761 86.9123V85.4277H55.4715Z" fill="white"/>
<path d="M56.052 86.5456V85.4277H56.3368V86.5491C56.3368 86.9906 56.5397 87.1899 56.8993 87.1899C57.2588 87.1899 57.4618 86.9906 57.4618 86.5491V85.4277H57.7394V86.5598C57.7394 86.7836 57.6505 86.9982 57.4923 87.1564C57.3341 87.3146 57.1195 87.4035 56.8957 87.4035C56.672 87.4035 56.4573 87.3146 56.2991 87.1564C56.1409 86.9982 56.052 86.7836 56.052 86.5598V86.5456Z" fill="white"/>
<path d="M59.7686 87.1579V87.4071H58.3232V85.4277H59.7472V85.6734H58.608V86.2857H59.6048V86.5278H58.608V87.1721L59.7686 87.1579Z" fill="white"/>
<path opacity="0.1" d="M86.5506 40.4009C74.9058 52.067 44.9982 78.0336 11.1106 76.1112V40.4009H86.5506Z" fill="white"/>
<path opacity="0.1" d="M95.3258 61.843V96.286H44.6243C46.568 89.3298 50.4555 79.8032 57.9956 72.9965C71.5592 60.7501 87.3016 60.7857 95.3258 61.843Z" fill="white"/>
<path d="M106.038 34.9077L107.22 40.1267L108.402 34.9077H106.038Z" fill="#567FDE"/>
<path opacity="0.7" d="M106.038 34.9077L107.22 40.1267L108.402 34.9077H106.038Z" fill="white"/>
<path d="M120.449 20.1304H93.9943C92.3054 20.1304 90.9363 21.4995 90.9363 23.1884V33.0069C90.9363 34.6958 92.3054 36.0649 93.9943 36.0649H120.449C122.138 36.0649 123.507 34.6958 123.507 33.0069V23.1884C123.507 21.4995 122.138 20.1304 120.449 20.1304Z" fill="#567FDE"/>
<path opacity="0.7" d="M120.449 20.1304H93.9943C92.3054 20.1304 90.9363 21.4995 90.9363 23.1884V33.0069C90.9363 34.6958 92.3054 36.0649 93.9943 36.0649H120.449C122.138 36.0649 123.507 34.6958 123.507 33.0069V23.1884C123.507 21.4995 122.138 20.1304 120.449 20.1304Z" fill="white"/>
<g opacity="0.5">
<path d="M97.4404 25.9755V26.6626H97.1592V25.9755L96.3689 24.6797H96.6751L97.3123 25.7477L97.9531 24.6797H98.2343L97.4404 25.9755Z" fill="#263238"/>
<path d="M98.1703 25.9118C98.1674 25.7557 98.2111 25.6022 98.2959 25.4709C98.3806 25.3397 98.5024 25.2366 98.6459 25.1749C98.7894 25.1132 98.948 25.0955 99.1016 25.1243C99.2551 25.153 99.3966 25.2268 99.5081 25.3362C99.6196 25.4457 99.6959 25.5858 99.7274 25.7388C99.759 25.8918 99.7442 26.0507 99.6851 26.1953C99.626 26.3399 99.5252 26.4636 99.3956 26.5507C99.2659 26.6378 99.1132 26.6843 98.957 26.6844C98.8536 26.6893 98.7503 26.6728 98.6535 26.636C98.5568 26.5991 98.4687 26.5426 98.3948 26.47C98.3209 26.3975 98.2628 26.3105 98.2242 26.2144C98.1855 26.1183 98.1672 26.0153 98.1703 25.9118ZM99.4625 25.9118C99.4684 25.8417 99.4597 25.771 99.4368 25.7044C99.414 25.6377 99.3776 25.5765 99.3299 25.5247C99.2823 25.4729 99.2243 25.4315 99.1598 25.4032C99.0953 25.3748 99.0257 25.3602 98.9552 25.3602C98.8848 25.3602 98.8151 25.3748 98.7506 25.4032C98.6861 25.4315 98.6282 25.4729 98.5805 25.5247C98.5328 25.5765 98.4964 25.6377 98.4736 25.7044C98.4508 25.771 98.442 25.8417 98.4479 25.9118C98.442 25.982 98.4508 26.0527 98.4736 26.1193C98.4964 26.186 98.5328 26.2471 98.5805 26.299C98.6282 26.3508 98.6861 26.3922 98.7506 26.4205C98.8151 26.4488 98.8848 26.4635 98.9552 26.4635C99.0257 26.4635 99.0953 26.4488 99.1598 26.4205C99.2243 26.3922 99.2823 26.3508 99.3299 26.299C99.3776 26.2471 99.414 26.186 99.4368 26.1193C99.4597 26.0527 99.4684 25.982 99.4625 25.9118Z" fill="#263238"/>
<path d="M101.524 25.1567V26.6662H101.268V26.4383C101.208 26.5177 101.131 26.5815 101.041 26.6243C100.952 26.667 100.854 26.6875 100.755 26.684C100.666 26.6931 100.577 26.6822 100.493 26.6522C100.41 26.6222 100.334 26.5739 100.271 26.5107C100.209 26.4475 100.161 26.3711 100.132 26.2871C100.103 26.2031 100.093 26.1137 100.103 26.0254V25.1567H100.378V25.9969C100.378 26.2924 100.527 26.4383 100.787 26.4383C100.852 26.4426 100.917 26.4323 100.978 26.4083C101.039 26.3843 101.093 26.3471 101.138 26.2994C101.183 26.2518 101.216 26.1948 101.236 26.1326C101.256 26.0705 101.262 26.0047 101.253 25.9399V25.1567H101.524Z" fill="#263238"/>
<path d="M102.859 25.1425V25.4095H102.795C102.728 25.4052 102.662 25.4157 102.6 25.4403C102.538 25.4649 102.482 25.5029 102.437 25.5516C102.392 25.6004 102.358 25.6586 102.338 25.7221C102.318 25.7855 102.312 25.8527 102.321 25.9186V26.6697H102.04V25.1567H102.303V25.4131C102.361 25.3196 102.443 25.2445 102.542 25.1966C102.64 25.1486 102.75 25.1299 102.859 25.1425Z" fill="#263238"/>
<path d="M103.859 25.6695C103.85 25.4565 103.905 25.2456 104.016 25.064C104.128 24.8824 104.291 24.7384 104.485 24.6504C104.68 24.5624 104.896 24.5345 105.106 24.5704C105.316 24.6062 105.51 24.7041 105.664 24.8515C105.818 24.9988 105.925 25.1889 105.97 25.3972C106.015 25.6055 105.997 25.8226 105.918 26.0205C105.838 26.2183 105.702 26.3879 105.525 26.5075C105.349 26.627 105.14 26.691 104.927 26.6912C104.789 26.699 104.65 26.6783 104.52 26.6303C104.39 26.5823 104.271 26.5081 104.171 26.4123C104.071 26.3165 103.992 26.2011 103.938 26.0733C103.884 25.9455 103.857 25.8081 103.859 25.6695ZM105.693 25.6695C105.695 25.5154 105.651 25.3642 105.567 25.235C105.483 25.1059 105.362 25.0048 105.22 24.9445C105.078 24.8843 104.922 24.8676 104.77 24.8966C104.619 24.9256 104.48 24.999 104.37 25.1075C104.261 25.2159 104.186 25.3545 104.156 25.5056C104.125 25.6567 104.141 25.8134 104.2 25.9557C104.258 26.0981 104.359 26.2197 104.487 26.305C104.615 26.3903 104.766 26.4355 104.92 26.4349C105.022 26.4383 105.123 26.4209 105.218 26.3837C105.313 26.3466 105.399 26.2904 105.471 26.2188C105.544 26.1471 105.601 26.0614 105.639 25.9669C105.677 25.8725 105.695 25.7713 105.693 25.6695Z" fill="#263238"/>
<path d="M106.782 24.9078H106.098V24.6621H107.736V24.9078H107.052V26.6521H106.771L106.782 24.9078Z" fill="#263238"/>
<path d="M109.666 25.3705C109.666 25.8012 109.352 26.0647 108.832 26.0647H108.341V26.6663H108.056V24.6763H108.832C109.352 24.6763 109.666 24.9361 109.666 25.3705ZM109.381 25.3705C109.381 25.0857 109.188 24.9219 108.825 24.9219H108.341V25.8155H108.825C109.188 25.8155 109.381 25.6553 109.381 25.3705Z" fill="#263238"/>
<path d="M110.716 25.6698C110.725 25.4638 110.794 25.2649 110.914 25.0973C111.034 24.9297 111.201 24.8004 111.393 24.7251C111.585 24.6498 111.794 24.6317 111.996 24.673C112.198 24.7143 112.384 24.8132 112.531 24.9578L112.346 25.1394C112.275 25.0619 112.188 25.0005 112.091 24.9594C111.994 24.9182 111.889 24.8983 111.784 24.9008C111.581 24.9008 111.386 24.9815 111.242 25.125C111.099 25.2686 111.018 25.4632 111.018 25.6662C111.018 25.8692 111.099 26.0639 111.242 26.2075C111.386 26.351 111.581 26.4316 111.784 26.4316C111.889 26.4342 111.994 26.4142 112.091 26.3731C112.188 26.332 112.275 26.2706 112.346 26.1931L112.531 26.3747C112.384 26.5193 112.198 26.6182 111.996 26.6595C111.794 26.7008 111.585 26.6827 111.393 26.6074C111.201 26.5321 111.034 26.4028 110.914 26.2352C110.794 26.0675 110.725 25.8687 110.716 25.6627V25.6698Z" fill="#263238"/>
<path d="M112.695 25.9118C112.692 25.7557 112.736 25.6022 112.821 25.4709C112.905 25.3397 113.027 25.2366 113.171 25.1749C113.314 25.1132 113.473 25.0955 113.626 25.1243C113.78 25.153 113.922 25.2268 114.033 25.3362C114.144 25.4457 114.221 25.5858 114.252 25.7388C114.284 25.8918 114.269 26.0507 114.21 26.1953C114.151 26.3399 114.05 26.4636 113.92 26.5507C113.791 26.6378 113.638 26.6843 113.482 26.6844C113.378 26.6893 113.275 26.6728 113.178 26.636C113.082 26.5991 112.994 26.5426 112.92 26.47C112.846 26.3975 112.788 26.3105 112.749 26.2144C112.71 26.1183 112.692 26.0153 112.695 25.9118ZM113.987 25.9118C113.993 25.8417 113.985 25.771 113.962 25.7044C113.939 25.6377 113.903 25.5765 113.855 25.5247C113.807 25.4729 113.749 25.4315 113.685 25.4032C113.62 25.3748 113.551 25.3602 113.48 25.3602C113.41 25.3602 113.34 25.3748 113.276 25.4032C113.211 25.4315 113.153 25.4729 113.105 25.5247C113.058 25.5765 113.021 25.6377 112.999 25.7044C112.976 25.771 112.967 25.8417 112.973 25.9118C112.967 25.982 112.976 26.0527 112.999 26.1193C113.021 26.186 113.058 26.2471 113.105 26.299C113.153 26.3508 113.211 26.3922 113.276 26.4205C113.34 26.4488 113.41 26.4635 113.48 26.4635C113.551 26.4635 113.62 26.4488 113.685 26.4205C113.749 26.3922 113.807 26.3508 113.855 26.299C113.903 26.2471 113.939 26.186 113.962 26.1193C113.985 26.0527 113.993 25.982 113.987 25.9118Z" fill="#263238"/>
<path d="M116.066 24.5518V26.6628H115.806V26.4243C115.744 26.5074 115.663 26.5741 115.569 26.6187C115.476 26.6634 115.373 26.6846 115.269 26.6806C115.074 26.6674 114.891 26.5804 114.757 26.4373C114.623 26.2942 114.549 26.1057 114.549 25.9099C114.549 25.7141 114.623 25.5256 114.757 25.3825C114.891 25.2394 115.074 25.1524 115.269 25.1392C115.369 25.1361 115.469 25.1564 115.561 25.1983C115.652 25.2403 115.733 25.3029 115.796 25.3812V24.5518H116.066ZM115.796 25.9081C115.791 25.8085 115.757 25.7125 115.698 25.632C115.639 25.5516 115.558 25.4902 115.464 25.4556C115.371 25.421 115.269 25.4146 115.172 25.4373C115.075 25.4599 114.986 25.5106 114.918 25.5831C114.849 25.6555 114.803 25.7465 114.786 25.8447C114.769 25.943 114.781 26.0441 114.82 26.1356C114.86 26.2272 114.926 26.305 115.009 26.3595C115.093 26.414 115.191 26.4427 115.29 26.4421C115.359 26.4438 115.428 26.431 115.492 26.4046C115.555 26.3782 115.613 26.3388 115.66 26.2888C115.708 26.2389 115.745 26.1795 115.768 26.1146C115.791 26.0496 115.801 25.9805 115.796 25.9117V25.9081Z" fill="#263238"/>
<path d="M117.943 26.004H116.721C116.738 26.1334 116.804 26.2513 116.906 26.3334C117.007 26.4156 117.136 26.4557 117.266 26.4454C117.347 26.4483 117.428 26.4336 117.503 26.4023C117.578 26.3709 117.645 26.3237 117.7 26.2639L117.854 26.4383C117.742 26.5514 117.6 26.6297 117.445 26.6639C117.29 26.698 117.128 26.6866 116.98 26.6308C116.831 26.5751 116.701 26.4775 116.607 26.3499C116.513 26.2222 116.457 26.0699 116.447 25.9114C116.443 25.8103 116.46 25.7095 116.497 25.6151C116.533 25.5207 116.589 25.4349 116.66 25.3628C116.731 25.2907 116.816 25.234 116.91 25.1961C117.004 25.1582 117.104 25.14 117.206 25.1425C117.308 25.1374 117.41 25.1544 117.505 25.1923C117.6 25.2302 117.685 25.2881 117.756 25.362C117.827 25.436 117.88 25.5243 117.914 25.621C117.947 25.7176 117.959 25.8203 117.95 25.9221C117.949 25.9495 117.946 25.9769 117.943 26.004ZM116.721 25.8082H117.704C117.694 25.6874 117.638 25.5749 117.549 25.493C117.46 25.411 117.343 25.3655 117.222 25.3655C117.1 25.3655 116.984 25.411 116.894 25.493C116.805 25.5749 116.75 25.6874 116.739 25.8082H116.721Z" fill="#263238"/>
</g>
<g opacity="0.5">
<path d="M103.108 29.7851C103.108 30.9065 102.478 31.5046 101.556 31.5046C101.272 31.5146 100.99 31.4482 100.741 31.3123L100.919 30.9563C101.111 31.0659 101.331 31.119 101.552 31.1094C102.218 31.1094 102.642 30.6929 102.642 29.8705V29.7566C102.532 29.901 102.387 30.0159 102.222 30.091C102.057 30.1662 101.876 30.1993 101.695 30.1874C101.554 30.2028 101.412 30.1887 101.278 30.1459C101.144 30.1032 101.019 30.0328 100.914 29.9392C100.808 29.8457 100.723 29.7311 100.665 29.6027C100.606 29.4744 100.575 29.3352 100.573 29.1941C100.577 29.0485 100.61 28.9051 100.671 28.7727C100.731 28.6403 100.819 28.5218 100.927 28.4244C101.036 28.3271 101.163 28.2529 101.301 28.2065C101.439 28.1601 101.585 28.1424 101.73 28.1546C102.61 28.1475 103.108 28.7385 103.108 29.7851ZM102.528 29.1799C102.528 28.8417 102.257 28.5462 101.744 28.5462C101.655 28.5368 101.564 28.5462 101.479 28.5739C101.393 28.6015 101.314 28.6468 101.247 28.7069C101.18 28.7669 101.126 28.8403 101.089 28.9224C101.052 29.0045 101.033 29.0934 101.032 29.1835C101.032 29.5679 101.317 29.8171 101.777 29.8171C101.868 29.8264 101.96 29.8171 102.048 29.7899C102.136 29.7626 102.218 29.7178 102.288 29.6583C102.358 29.5988 102.415 29.5258 102.456 29.4436C102.498 29.3614 102.522 29.2717 102.528 29.1799Z" fill="#263238"/>
<path d="M103.557 29.8278C103.557 28.7598 104.13 28.1475 104.899 28.1475C105.668 28.1475 106.234 28.7598 106.234 29.8278C106.234 30.8958 105.661 31.5045 104.899 31.5045C104.137 31.5045 103.557 30.8958 103.557 29.8278ZM105.764 29.8278C105.764 28.9876 105.408 28.5675 104.899 28.5675C104.39 28.5675 104.027 28.9876 104.027 29.8278C104.027 30.6679 104.383 31.088 104.899 31.088C105.415 31.088 105.764 30.6679 105.764 29.8278Z" fill="#263238"/>
<path d="M108.978 31.0594V31.4688H106.618V31.1484L107.957 29.8597C108.313 29.5215 108.366 29.315 108.366 29.1085C108.366 28.7739 108.128 28.5674 107.654 28.5674C107.497 28.5581 107.339 28.5854 107.194 28.6472C107.049 28.709 106.92 28.8035 106.817 28.9234L106.497 28.6457C106.648 28.479 106.833 28.3477 107.041 28.2616C107.248 28.1754 107.472 28.1363 107.697 28.1473C108.38 28.1473 108.822 28.5033 108.822 29.0622C108.816 29.2638 108.765 29.4616 108.672 29.6405C108.579 29.8194 108.446 29.9747 108.284 30.0946L107.28 31.0594H108.978Z" fill="#263238"/>
<path d="M110.381 28.1865V31.4688H109.915V28.5959H109.16V28.1865H110.381Z" fill="#263238"/>
<path d="M111.097 29.8278C111.097 28.7598 111.67 28.1475 112.439 28.1475C113.208 28.1475 113.774 28.7598 113.774 29.8278C113.774 30.8958 113.204 31.5045 112.439 31.5045C111.673 31.5045 111.097 30.8958 111.097 29.8278ZM113.307 29.8278C113.307 28.9876 112.951 28.5675 112.439 28.5675C111.926 28.5675 111.567 28.9876 111.567 29.8278C111.567 30.6679 111.923 31.088 112.439 31.088C112.955 31.088 113.307 30.6679 113.307 29.8278Z" fill="#263238"/>
</g>
<path d="M104.293 50.2161C106.419 51.6867 108.796 52.7546 111.307 53.3667H111.332C111.144 53.3613 110.959 53.4135 110.801 53.5162C110.646 53.613 110.522 53.7527 110.445 53.9185C110.419 53.9693 110.405 54.0252 110.402 54.0822C110.459 53.3346 110.135 52.4945 109.908 51.6864C109.498 50.4083 109.018 49.0982 108.537 47.8131L109.911 47.0762C111.047 48.817 114.838 54.3279 112.25 55.9228C111.806 56.1815 111.282 56.2653 110.78 56.1577C107.96 55.74 105.27 54.691 102.912 53.089C102.748 52.9751 102.606 52.8754 102.414 52.733L104.301 50.209L104.293 50.2161Z" fill="#DC897C"/>
<path d="M103.895 49.8278C105.141 49.9781 106.325 50.4587 107.323 51.2198L105.899 55.6271C105.899 55.6271 98.9785 49.2476 103.895 49.8278Z" fill="#567FDE"/>
<path opacity="0.6" d="M103.881 53.534C104.514 54.2595 105.184 54.9523 105.888 55.6095L106.476 53.7974L107.323 51.2022C106.326 50.4416 105.144 49.9611 103.898 49.8102C100.872 49.472 102.318 51.7362 103.881 53.534Z" fill="white"/>
<path opacity="0.2" d="M103.881 53.5338C104.514 54.2593 105.184 54.9521 105.888 55.6093L106.476 53.7972C105.737 53.2217 104.828 52.9085 103.891 52.9072C103.87 53.1154 103.866 53.325 103.881 53.5338Z" fill="black"/>
<path d="M88.5119 43.3096C88.5119 43.3096 85.2011 54.3171 92.1751 55.7945C99.1492 57.2719 99.9039 52.206 99.9039 52.206C99.9039 52.206 94.1723 43.5339 88.5119 43.3096Z" fill="#263238"/>
<path d="M86.8781 46.9553C86.8653 46.959 86.8517 46.959 86.8389 46.9553C86.8288 46.9504 86.8199 46.9435 86.8126 46.9351C86.8053 46.9266 86.7998 46.9167 86.7964 46.9061C86.7931 46.8954 86.792 46.8841 86.7932 46.873C86.7944 46.8619 86.7978 46.8511 86.8033 46.8414C86.9074 46.6514 87.0542 46.4883 87.2321 46.3647C87.41 46.2412 87.6142 46.1606 87.8286 46.1294C87.8508 46.1301 87.8719 46.1388 87.8883 46.1538C87.9046 46.1688 87.915 46.1892 87.9176 46.2113C87.9185 46.2225 87.9173 46.2338 87.9139 46.2446C87.9105 46.2553 87.905 46.2653 87.8977 46.2739C87.8904 46.2825 87.8815 46.2895 87.8715 46.2947C87.8614 46.2998 87.8505 46.3029 87.8392 46.3038C87.6536 46.3341 87.4773 46.4063 87.3238 46.5149C87.1702 46.6234 87.0433 46.7655 86.9528 46.9304C86.9437 46.9408 86.9319 46.9486 86.9188 46.9529C86.9057 46.9573 86.8916 46.9581 86.8781 46.9553Z" fill="#263238"/>
<path d="M87.8748 48.3223C87.8301 48.7513 87.7333 49.1733 87.5864 49.5789C87.6968 49.6448 87.8228 49.6796 87.9513 49.6796C88.0798 49.6796 88.2059 49.6448 88.3162 49.5789L87.8748 48.3223Z" fill="#DE5753"/>
<path d="M87.202 47.8416C87.2768 48.0374 87.4441 48.1548 87.558 48.105C87.6719 48.0552 87.736 47.8594 87.6613 47.6636C87.5865 47.4678 87.4192 47.3503 87.3053 47.4001C87.1913 47.45 87.1308 47.6458 87.202 47.8416Z" fill="#263238"/>
<path d="M87.3622 47.3896H86.8745C86.8745 47.3896 87.2234 47.6602 87.3622 47.3896Z" fill="#263238"/>
<path d="M94.2899 49.689C94.2776 49.7209 94.2608 49.7509 94.24 49.778C94.208 49.8385 94.1724 49.8955 94.1368 49.956C93.9282 50.3311 93.6503 50.6633 93.318 50.935C92.25 51.7858 91.3208 52.0422 90.5127 51.7965L90.3952 51.7574C89.1955 51.2696 88.2592 49.835 87.5152 47.9375C87.185 47.1949 86.977 46.4039 86.8993 45.595C86.8993 45.595 86.8993 45.5665 86.8993 45.5594C86.8993 45.5523 86.8993 45.4953 86.8993 45.4668C86.8715 45.0032 86.9598 44.54 87.1562 44.1192C87.3527 43.6983 87.651 43.3331 88.0243 43.0567C88.3434 42.8062 88.6897 42.5925 89.0567 42.4195C92.6131 40.6858 96.0734 46.3319 94.2899 49.689Z" fill="#E4897B"/>
<path opacity="0.2" d="M94.1368 49.9563C93.9282 50.3314 93.6503 50.6636 93.318 50.9353C92.25 51.7861 91.3208 52.0425 90.5127 51.7968C91.2985 51.6064 92.0061 51.1773 92.5383 50.5686C92.7438 50.3559 92.9934 50.1908 93.2696 50.085C93.5457 49.9792 93.8418 49.9353 94.1368 49.9563Z" fill="black"/>
<path d="M86.8815 45.5737C86.8815 45.5737 87.8747 48.1867 90.7761 48.1405C90.7761 48.1405 93.0403 50.2765 94.5675 49.5965C96.6501 48.6745 97.0773 44.8866 94.9556 42.2416C92.2001 38.8097 86.1909 41.2839 86.8815 45.5737Z" fill="#263238"/>
<path d="M89.224 47.9913C89.0389 47.5961 89.0425 46.788 89.6939 46.5887C90.3454 46.3893 91.4739 47.7741 90.0713 48.8564C89.8719 49.013 89.6085 48.8101 89.224 47.9913Z" fill="#E4897B"/>
<path d="M90.0037 40.8175C90.0037 40.8175 87.3124 41.3479 86.4437 42.9535C85.4256 44.8189 85.3757 46.2643 88.0813 47.2255C88.0813 47.2255 91.5025 44.0215 92.9763 43.6655C93.8352 43.4524 94.7105 43.3118 95.5929 43.2454C94.6104 40.401 91.0895 39.6391 90.0037 40.8175Z" fill="#263238"/>
<path d="M92.613 51.0027C92.613 51.0027 94.4642 52.2843 94.9448 54.399L100.716 51.0312C100.716 51.0312 96.1979 50.0024 95.4219 48.2544C95.4219 48.2544 92.403 48.6282 92.613 51.0027Z" fill="#E4897B"/>
<path d="M98.3448 64.8691C98.3448 64.8691 90.8688 57.5248 90.0642 55.2179C90.0642 55.2179 93.2077 50.3229 99.4911 50.1164C105.774 49.9099 110.05 61.8644 110.05 61.8644L98.3448 64.8691Z" fill="#567FDE"/>
<path opacity="0.6" d="M110.05 61.8679L98.3482 64.8725C98.3482 64.8725 96.7177 63.267 94.895 61.3125C94.3325 60.7038 93.7451 60.063 93.1791 59.4293C91.6945 57.7454 90.3845 56.1007 90.0676 55.2071C90.0676 55.2071 93.2075 50.3121 99.4909 50.1057C105.774 49.8992 110.05 61.8679 110.05 61.8679Z" fill="white"/>
<path d="M91.36 46.8875C91.36 46.8875 92.453 50.5187 96.2906 51.722C100.128 52.9253 99.1636 56.8448 102.884 56.382C104.863 56.1364 106.558 52.11 100.488 48.55C96.9492 46.4817 98.3234 39.6821 90.8118 40.3193C90.8047 40.3229 92.364 44.9829 91.36 46.8875Z" fill="#263238"/>
<path d="M95.0874 120.22L93.3074 119.814C93.5744 110.914 94.8595 100.152 95.9952 92.0676C96.1732 90.8003 96.3512 89.6041 96.5149 88.4863C96.5968 87.9558 96.6716 87.4468 96.7463 86.9555C97.1023 84.5311 97.4299 82.6158 97.6257 81.4303C97.7716 80.5653 97.8535 80.0918 97.8535 80.0918L104.261 81.6546L103.802 83.2709L102.289 88.6109L102.118 89.2196L101.114 92.7405L99.4128 98.732C99.5196 107.778 95.0874 120.22 95.0874 120.22Z" fill="#E4897B"/>
<path d="M110.324 118.732L108.501 118.639C107.113 109.07 106.529 97.1012 106.276 88.7815C106.241 87.4928 106.209 86.2895 106.184 85.193C106.184 85.1396 106.184 85.0862 106.184 85.0328C106.138 82.8648 106.116 81.1417 106.105 80.0488C106.105 79.1944 106.105 78.728 106.105 78.728L112.681 79.1588L112.4 81.9L111.987 85.9228L111.905 86.7131L111.62 89.4543L110.851 96.82C112.531 105.72 110.324 118.732 110.324 118.732Z" fill="#E4897B"/>
<path d="M111.008 118.376C111.008 118.148 108.195 118.326 108.195 118.326C108.195 118.326 106.469 120.081 104.792 120.462C103.115 120.843 104.055 121.865 105.927 121.865H110.555C111.894 121.879 111.061 120.743 111.008 118.376Z" fill="#263238"/>
<path d="M106.472 118.977C106.431 118.941 106.403 118.892 106.391 118.839C106.379 118.785 106.384 118.729 106.404 118.678C106.416 118.639 106.434 118.601 106.46 118.569C106.486 118.537 106.518 118.51 106.554 118.49C106.753 118.408 106.972 118.384 107.184 118.418C106.956 118.297 106.757 118.151 106.746 118.002C106.746 117.906 106.803 117.828 106.931 117.767C106.987 117.742 107.048 117.729 107.109 117.729C107.171 117.729 107.231 117.742 107.287 117.767C107.668 117.927 107.903 118.582 107.914 118.607C107.921 118.625 107.921 118.646 107.914 118.664V118.682C107.907 118.69 107.899 118.696 107.889 118.7C107.526 118.886 107.133 119.006 106.728 119.056C106.636 119.062 106.545 119.034 106.472 118.977ZM106.629 118.621C106.609 118.631 106.592 118.645 106.578 118.661C106.564 118.678 106.553 118.697 106.547 118.718C106.518 118.828 106.547 118.856 106.547 118.867C106.682 118.977 107.195 118.821 107.615 118.646C107.295 118.545 106.954 118.536 106.629 118.618V118.621ZM106.985 117.909C106.946 117.909 106.882 117.963 106.885 118.002C106.885 118.127 107.294 118.358 107.707 118.504C107.615 118.257 107.447 118.047 107.227 117.902C107.191 117.886 107.152 117.877 107.113 117.877C107.072 117.877 107.032 117.886 106.995 117.902L106.985 117.909Z" fill="#263238"/>
<path d="M95.988 118.376C95.988 118.148 93.1792 118.326 93.1792 118.326C93.1792 118.326 91.4526 120.081 89.7758 120.462C88.0991 120.843 89.0354 121.865 90.9079 121.865H95.5359C96.878 121.879 96.0486 120.743 95.988 118.376Z" fill="#263238"/>
<path d="M91.4562 118.977C91.4164 118.94 91.3887 118.892 91.3766 118.838C91.3646 118.785 91.3687 118.729 91.3885 118.678C91.3996 118.639 91.4185 118.601 91.4442 118.569C91.4699 118.537 91.5018 118.51 91.538 118.49C91.7375 118.408 91.9556 118.384 92.1682 118.418C91.9403 118.297 91.741 118.151 91.7338 118.002C91.7338 117.907 91.7944 117.829 91.9154 117.767C91.9713 117.742 92.032 117.729 92.0934 117.729C92.1548 117.729 92.2155 117.742 92.2714 117.767C92.6523 117.927 92.8873 118.582 92.898 118.607C92.9024 118.616 92.9046 118.626 92.9046 118.636C92.9046 118.646 92.9024 118.655 92.898 118.664C92.898 118.664 92.898 118.664 92.898 118.682L92.873 118.7C92.5086 118.885 92.1147 119.005 91.7089 119.056C91.6181 119.06 91.5285 119.033 91.4562 118.977ZM91.6128 118.621C91.5939 118.631 91.5772 118.645 91.5637 118.661C91.5503 118.678 91.5403 118.697 91.5345 118.718C91.506 118.828 91.5345 118.856 91.5523 118.867C91.684 118.977 92.1967 118.821 92.6203 118.646C92.294 118.541 91.9445 118.531 91.6128 118.618V118.621ZM91.9688 117.909C91.9296 117.909 91.8656 117.963 91.8691 118.002C91.8691 118.127 92.2785 118.358 92.695 118.504C92.6017 118.257 92.4321 118.046 92.2109 117.902C92.1754 117.885 92.1364 117.877 92.097 117.877C92.0565 117.877 92.0164 117.886 91.9795 117.902L91.9688 117.909Z" fill="#263238"/>
<path d="M96.8281 82.7689L98.3447 72.0889V64.8621C102.343 61.8574 110.05 61.8574 110.05 61.8574C110.05 61.8574 115.97 70.0703 113.094 83.5734L105.66 84.6414L105.187 82.1209L104.254 84.6414L96.8281 82.7689Z" fill="#263238"/>
<path opacity="0.2" d="M96.8281 82.7689L98.3447 72.0889V64.8621C102.343 61.8574 110.05 61.8574 110.05 61.8574C110.05 61.8574 115.97 70.0703 113.094 83.5734L105.66 84.6414L105.187 82.1209L104.254 84.6414L96.8281 82.7689Z" fill="white"/>
<path opacity="0.2" d="M105.187 82.1598L106.611 77.7134C106.611 77.7134 108.113 77.2577 110.043 74.2744C110.05 74.2744 109.715 79.351 105.187 82.1598Z" fill="black"/>
<path opacity="0.2" d="M102.019 66.916L105.354 66.5991C105.887 67.8462 106.071 69.2143 105.888 70.5579L103.752 71.843L102.204 70.743C102.204 70.743 102.154 67.9199 102.019 66.916Z" fill="black"/>
<path opacity="0.2" d="M110.05 66.101C110.498 67.2013 110.828 68.3456 111.036 69.5151L112.218 70.017L112.855 69.2232C112.855 69.2232 112.425 66.8985 111.695 65.7593L110.05 66.101Z" fill="black"/>
<path d="M96.6893 82.1602L104.578 84.4742L104.083 85.535L96.5896 83.2282L96.6893 82.1602Z" fill="#263238"/>
<path d="M105.354 84.321L105.486 85.2964L113.222 84.321L113.339 83.0928L105.354 84.321Z" fill="#263238"/>
<path d="M106.978 63.3562C108.243 63.1425 109.522 63.0176 110.805 62.9824L110.328 62.1956C109.08 62.1627 107.832 62.2365 106.597 62.4163L106.978 63.3562Z" fill="#263238"/>
<path d="M99.8826 64.3242C98.8608 64.7657 98.2734 65.0967 98.2734 65.0967V66.0686C98.8478 65.7791 99.4233 65.5145 100 65.2747L99.8826 64.3242Z" fill="#263238"/>
<path d="M100.374 65.1361C102.353 64.3603 104.406 63.7889 106.501 63.4308L106.145 62.4839C104.114 62.8225 102.129 63.3935 100.228 64.1856L100.374 65.1361Z" fill="#263238"/>
<path d="M78.9855 67.9167L76.9634 67.105L76.6074 69.0131C76.6074 69.0131 78.4301 70.1167 79.192 68.8031L78.9855 67.9167Z" fill="#E4897B"/>
<path d="M75.9594 67.2225L75.3115 68.6963L76.6216 69.0131L76.9634 67.105L75.9594 67.2225Z" fill="#E4897B"/>
<path d="M110.018 47.4072L109.779 45.2427L107.935 45.8408C107.935 45.8408 107.821 47.9768 109.341 48.0195L110.018 47.4072Z" fill="#E4897B"/>
<path d="M109.199 44.4131L107.594 44.5412L107.935 45.8406L109.779 45.2426L109.199 44.4131Z" fill="#E4897B"/>
<path opacity="0.2" d="M94.8952 61.3235C94.3327 60.7147 93.7453 60.0739 93.1792 59.4402C92.9621 58.1159 92.8232 56.9482 92.8232 56.9482C93.5013 57.4513 94.0451 58.1136 94.4065 58.8767C94.7678 59.6398 94.9357 60.4801 94.8952 61.3235Z" fill="black"/>
<path d="M93.0296 56.3359C92.2142 59.6234 90.9832 62.7935 89.3664 65.7699C87.7644 68.8137 81.6732 69.1803 78.6116 69.2587L78.4692 67.7065C80.3133 67.2722 86.0449 66.1294 86.8281 64.4669C88.1067 61.5865 89.1589 58.6108 89.9752 55.5669L93.0296 56.3287V56.3359Z" fill="#DC897C"/>
<path d="M91.2852 53.6514C89.5444 54.7906 88.6116 57.7525 88.3162 59.2014L91.9331 61.8643L93.7594 60.0843C94.4999 55.9974 91.9474 53.2206 91.2852 53.6514Z" fill="#567FDE"/>
<path opacity="0.6" d="M91.2852 53.6514C89.5444 54.7906 88.6116 57.7525 88.3162 59.2014L91.9331 61.8643L93.7594 60.0843C94.4999 55.9974 91.9474 53.2206 91.2852 53.6514Z" fill="white"/>
<path d="M108.943 48.1012L106.358 48.3789C106.322 48.3799 106.286 48.3734 106.252 48.3597C106.218 48.3461 106.188 48.3255 106.162 48.2994C106.137 48.2733 106.117 48.2422 106.104 48.2081C106.091 48.174 106.086 48.1376 106.088 48.1012L105.931 42.6295C105.926 42.5522 105.949 42.4756 105.996 42.4141C106.044 42.3526 106.111 42.3102 106.187 42.2949L108.768 42.0208C108.805 42.0192 108.841 42.0253 108.875 42.0388C108.91 42.0523 108.94 42.0728 108.966 42.099C108.991 42.1252 109.011 42.1566 109.024 42.1909C109.036 42.2253 109.042 42.2619 109.039 42.2984L109.196 47.7702C109.201 47.8466 109.178 47.9222 109.131 47.9831C109.085 48.0439 109.018 48.0859 108.943 48.1012Z" fill="#263238"/>
<path opacity="0.6" d="M108.943 48.1012L106.358 48.3789C106.322 48.3799 106.286 48.3734 106.252 48.3597C106.218 48.3461 106.188 48.3255 106.162 48.2994C106.137 48.2733 106.117 48.2422 106.104 48.2081C106.091 48.174 106.086 48.1376 106.088 48.1012L105.931 42.6295C105.926 42.5522 105.949 42.4756 105.996 42.4141C106.044 42.3526 106.111 42.3102 106.187 42.2949L108.768 42.0208C108.805 42.0192 108.841 42.0253 108.875 42.0388C108.91 42.0523 108.94 42.0728 108.966 42.099C108.991 42.1252 109.011 42.1566 109.024 42.1909C109.036 42.2253 109.042 42.2619 109.039 42.2984L109.196 47.7702C109.201 47.8466 109.178 47.9222 109.131 47.9831C109.085 48.0439 109.018 48.0859 108.943 48.1012Z" fill="white"/>
<path d="M108.715 48.1266L106.134 48.4007C106.097 48.4028 106.061 48.3971 106.027 48.3841C105.992 48.371 105.961 48.3509 105.935 48.325C105.91 48.2992 105.889 48.2681 105.876 48.2339C105.863 48.1997 105.858 48.1632 105.86 48.1266L105.707 42.6513C105.7 42.5746 105.722 42.4982 105.769 42.437C105.816 42.3757 105.884 42.3341 105.959 42.3203L108.54 42.0461C108.577 42.0446 108.613 42.0506 108.647 42.0639C108.68 42.0772 108.711 42.0974 108.736 42.1232C108.762 42.149 108.782 42.1799 108.795 42.2139C108.807 42.2478 108.813 42.284 108.811 42.3203L108.968 47.7955C108.974 47.8723 108.952 47.9487 108.905 48.0099C108.859 48.0711 108.791 48.1127 108.715 48.1266Z" fill="#263238"/>
<path opacity="0.7" d="M108.715 48.1266L106.134 48.4007C106.097 48.4028 106.061 48.3971 106.027 48.3841C105.992 48.371 105.961 48.3509 105.935 48.325C105.91 48.2992 105.889 48.2681 105.876 48.2339C105.863 48.1997 105.858 48.1632 105.86 48.1266L105.707 42.6513C105.7 42.5746 105.722 42.4982 105.769 42.437C105.816 42.3757 105.884 42.3341 105.959 42.3203L108.54 42.0461C108.577 42.0446 108.613 42.0506 108.647 42.0639C108.68 42.0772 108.711 42.0974 108.736 42.1232C108.762 42.149 108.782 42.1799 108.795 42.2139C108.807 42.2478 108.813 42.284 108.811 42.3203L108.968 47.7955C108.974 47.8723 108.952 47.9487 108.905 48.0099C108.859 48.0711 108.791 48.1127 108.715 48.1266Z" fill="white"/>
<path d="M108.544 42.1525L107.868 42.2237L107.782 42.4337L106.736 42.5441L106.64 42.3554L105.963 42.4266C105.914 42.4368 105.871 42.4645 105.84 42.5044C105.81 42.5444 105.796 42.5939 105.799 42.6438L105.952 48.1155C105.951 48.1393 105.954 48.1631 105.963 48.1854C105.971 48.2077 105.984 48.228 106.001 48.2449C106.018 48.2617 106.038 48.2748 106.061 48.2832C106.083 48.2915 106.107 48.2951 106.13 48.2935L108.711 48.0194C108.76 48.0099 108.804 47.983 108.834 47.9436C108.864 47.9043 108.879 47.8552 108.875 47.8058L108.722 42.3305C108.723 42.3069 108.719 42.2833 108.711 42.2612C108.702 42.2392 108.689 42.2191 108.672 42.2024C108.656 42.1857 108.635 42.1726 108.613 42.164C108.591 42.1554 108.568 42.1515 108.544 42.1525Z" fill="#567FDE"/>
<path opacity="0.8" d="M108.199 44.1323L106.301 44.3352C106.278 44.3362 106.255 44.3324 106.233 44.324C106.212 44.3155 106.192 44.3027 106.176 44.2863C106.159 44.2699 106.146 44.2503 106.138 44.2287C106.13 44.207 106.126 44.1839 106.127 44.1607V43.6339C106.122 43.5847 106.136 43.5357 106.166 43.4963C106.195 43.4568 106.239 43.4297 106.287 43.4203L108.188 43.2173C108.211 43.2168 108.234 43.2211 108.256 43.2299C108.277 43.2388 108.297 43.252 108.313 43.2687C108.329 43.2855 108.341 43.3054 108.349 43.3272C108.357 43.349 108.36 43.3722 108.359 43.3953L108.377 43.9222C108.38 43.9734 108.363 44.0238 108.33 44.0629C108.297 44.102 108.25 44.1268 108.199 44.1323Z" fill="white"/>
</g>
<defs>
<clipPath id="clip0_415_1498">
<rect width="141" height="126" fill="white"/>
</clipPath>
</defs>
</svg>
