<svg width="130" height="118" viewBox="0 0 130 118" fill="none" xmlns="http://www.w3.org/2000/svg">
<g clip-path="url(#clip0_415_1092)">
<path d="M154 100.958H-24V101.05H154V100.958Z" fill="#EBEBEB"/>
<path d="M136.164 106.847H124.374V106.939H136.164V106.847Z" fill="#EBEBEB"/>
<path d="M93.9144 107.843H90.8208V107.934H93.9144V107.843Z" fill="#EBEBEB"/>
<path d="M124.018 103.451H117.186V103.542H124.018V103.451Z" fill="#EBEBEB"/>
<path d="M10.0514 104.065H-5.32422V104.157H10.0514V104.065Z" fill="#EBEBEB"/>
<path d="M15.4766 104.065H13.2231V104.157H15.4766V104.065Z" fill="#EBEBEB"/>
<path d="M56.1533 105.61H22.8032V105.702H56.1533V105.61Z" fill="#EBEBEB"/>
<path d="M60.3718 84.6347H-8.36826C-8.90677 84.6337 -9.42289 84.4131 -9.80334 84.0213C-10.1838 83.6295 -10.3975 83.0985 -10.3975 82.5448V-16.7986C-10.3928 -17.349 -10.177 -17.8753 -9.79709 -18.2632C-9.41715 -18.6511 -8.9037 -18.8692 -8.36826 -18.8701H60.3718C60.9109 -18.8701 61.4279 -18.6499 61.8092 -18.258C62.1904 -17.8661 62.4045 -17.3345 62.4045 -16.7803V82.5448C62.4045 83.0991 62.1904 83.6307 61.8092 84.0226C61.4279 84.4145 60.9109 84.6347 60.3718 84.6347ZM-8.36826 -18.7969C-8.88316 -18.7959 -9.37665 -18.585 -9.74041 -18.2103C-10.1042 -17.8357 -10.3085 -17.3279 -10.3085 -16.7986V82.5448C-10.3085 83.0742 -10.1042 83.5819 -9.74041 83.9566C-9.37665 84.3313 -8.88316 84.5422 -8.36826 84.5432H60.3718C60.887 84.5422 61.3809 84.3314 61.7452 83.9568C62.1095 83.5823 62.3146 83.0745 62.3155 82.5448V-16.7986C62.3146 -17.3283 62.1095 -17.836 61.7452 -18.2105C61.3809 -18.5851 60.887 -18.7959 60.3718 -18.7969H-8.36826Z" fill="#EBEBEB"/>
<path d="M137.378 84.6347H68.6348C68.096 84.6337 67.5795 84.4132 67.1985 84.0215C66.8175 83.6298 66.603 83.0988 66.6021 82.5448V-16.7986C66.6077 -17.3493 66.8242 -17.8757 67.2047 -18.2634C67.5852 -18.6512 68.099 -18.8692 68.6348 -18.8701H137.378C137.913 -18.8682 138.426 -18.6497 138.805 -18.2619C139.184 -17.8742 139.399 -17.3484 139.404 -16.7986V82.5448C139.404 83.0978 139.191 83.6283 138.811 84.02C138.432 84.4117 137.916 84.6328 137.378 84.6347ZM68.6348 -18.7969C68.1196 -18.7959 67.6257 -18.5851 67.2614 -18.2105C66.8971 -17.836 66.692 -17.3283 66.6911 -16.7986V82.5448C66.692 83.0745 66.8971 83.5823 67.2614 83.9568C67.6257 84.3314 68.1196 84.5422 68.6348 84.5432H137.378C137.894 84.5422 138.387 84.3314 138.752 83.9568C139.116 83.5823 139.321 83.0745 139.322 82.5448V-16.7986C139.321 -17.3283 139.116 -17.836 138.752 -18.2105C138.387 -18.5851 137.894 -18.7959 137.378 -18.7969H68.6348Z" fill="#EBEBEB"/>
<path d="M55.2776 28.2451H-0.450684V100.794H55.2776V28.2451Z" fill="#F0F0F0"/>
<path d="M53.3054 30.8911H1.51807V46.4059H53.3054V30.8911Z" fill="#E0E0E0"/>
<path d="M4.45863 33.4019H1.51807V46.4022H4.45863V33.4019Z" fill="#EBEBEB"/>
<path d="M18.6842 33.4019H15.7437V46.4022H18.6842V33.4019Z" fill="#EBEBEB"/>
<path d="M34.8324 33.0719L31.9346 33.5854L34.0825 46.3968L36.9804 45.8833L34.8324 33.0719Z" fill="#EBEBEB"/>
<path d="M8.10414 35.1147H5.16357V46.4022H8.10414V35.1147Z" fill="#EBEBEB"/>
<path d="M14.8644 35.1147H11.9238V46.4022H14.8644V35.1147Z" fill="#EBEBEB"/>
<path d="M31.9313 35.1147H28.9907V46.4022H31.9313V35.1147Z" fill="#EBEBEB"/>
<path d="M22.5478 34.726L19.6772 35.3818L22.0592 46.4004L24.9297 45.7446L22.5478 34.726Z" fill="#EBEBEB"/>
<path d="M10.6495 32.7544H9.1792V46.4025H10.6495V32.7544Z" fill="#EBEBEB"/>
<path d="M28.147 32.7544H26.6768V46.4025H28.147V32.7544Z" fill="#EBEBEB"/>
<path d="M1.51785 64.373H53.3052V48.8583L1.51785 48.8583V64.373Z" fill="#E0E0E0"/>
<path d="M50.3646 64.373H53.3052V51.3727H50.3646V64.373Z" fill="#EBEBEB"/>
<path d="M36.139 64.373H39.0796V51.3727H36.139V64.373Z" fill="#EBEBEB"/>
<path d="M17.8434 63.861L20.7412 64.3745L22.8892 51.5631L19.9914 51.0496L17.8434 63.861Z" fill="#EBEBEB"/>
<path d="M46.7157 64.373H49.6562V53.0856H46.7157V64.373Z" fill="#EBEBEB"/>
<path d="M39.9589 64.373H42.8994V53.0856H39.9589V64.373Z" fill="#EBEBEB"/>
<path d="M22.8885 64.373H25.8291V53.0856H22.8885V64.373Z" fill="#EBEBEB"/>
<path d="M29.898 63.7142L32.7686 64.3701L35.1505 53.3515L32.2799 52.6956L29.898 63.7142Z" fill="#EBEBEB"/>
<path d="M44.1738 64.373H45.644V50.7249H44.1738V64.373Z" fill="#EBEBEB"/>
<path d="M26.6767 64.373H28.147V50.7249H26.6767V64.373Z" fill="#EBEBEB"/>
<path d="M4.45863 51.3726H1.51807V64.3729H4.45863V51.3726Z" fill="#EBEBEB"/>
<path d="M8.10414 53.0854H5.16357V64.3729H8.10414V53.0854Z" fill="#EBEBEB"/>
<path d="M14.8644 53.0854H11.9238V64.3729H14.8644V53.0854Z" fill="#EBEBEB"/>
<path d="M10.6495 50.7246H9.1792V64.3728H10.6495V50.7246Z" fill="#EBEBEB"/>
<path d="M53.3054 66.8286H1.51807V82.3434H53.3054V66.8286Z" fill="#E0E0E0"/>
<path d="M34.1813 69.3394H31.2407V82.3397H34.1813V69.3394Z" fill="#EBEBEB"/>
<path d="M50.3319 69.0119L47.4341 69.5254L49.5821 82.3368L52.4799 81.8232L50.3319 69.0119Z" fill="#EBEBEB"/>
<path d="M23.6007 71.0562H20.6602V82.3436H23.6007V71.0562Z" fill="#EBEBEB"/>
<path d="M30.3649 71.0562H27.4243V82.3436H30.3649V71.0562Z" fill="#EBEBEB"/>
<path d="M47.4313 71.0562H44.4907V82.3436H47.4313V71.0562Z" fill="#EBEBEB"/>
<path d="M38.0507 70.6654L35.1802 71.3213L37.5621 82.3399L40.4326 81.684L38.0507 70.6654Z" fill="#EBEBEB"/>
<path d="M26.1461 68.6953H24.6758V82.3435H26.1461V68.6953Z" fill="#EBEBEB"/>
<path d="M43.6436 68.6953H42.1733V82.3435H43.6436V68.6953Z" fill="#EBEBEB"/>
<path d="M16.4877 69.0153L13.5898 69.5288L15.7378 82.3402L18.6356 81.8267L16.4877 69.0153Z" fill="#EBEBEB"/>
<path d="M13.5866 71.0562H10.646V82.3436H13.5866V71.0562Z" fill="#EBEBEB"/>
<path d="M4.20353 70.6674L1.33301 71.3232L3.71492 82.3418L6.58544 81.686L4.20353 70.6674Z" fill="#EBEBEB"/>
<path d="M9.79841 68.6953H8.32812V82.3435H9.79841V68.6953Z" fill="#EBEBEB"/>
<path d="M84.6795 57.4883H116.086C116.897 57.4883 117.7 57.6529 118.45 57.9726C119.199 58.2923 119.879 58.7609 120.452 59.3514C121.025 59.942 121.479 60.643 121.788 61.4142C122.096 62.1854 122.254 63.0117 122.252 63.8457V89.0558H78.5278V63.8457C78.5241 62.1641 79.17 60.5498 80.3235 59.3577C81.4771 58.1655 83.0439 57.4931 84.6795 57.4883Z" fill="#E6E6E6"/>
<path d="M69.2293 76.1763H74.847C75.33 76.1744 75.8086 76.2706 76.2554 76.4594C76.7022 76.6482 77.1082 76.9259 77.4503 77.2765C77.7923 77.6272 78.0636 78.0438 78.2486 78.5026C78.4335 78.9614 78.5285 79.4532 78.528 79.9498V100.812H65.5625V79.9498C65.562 79.4544 65.6565 78.9638 65.8406 78.506C66.0247 78.0482 66.2947 77.6322 66.6352 77.2817C66.9758 76.9313 67.3801 76.6533 67.8252 76.4636C68.2704 76.2739 68.7475 76.1763 69.2293 76.1763Z" fill="#E0E0E0"/>
<path d="M69.2293 76.1763H69.3468C69.8286 76.1763 70.3057 76.2739 70.7508 76.4636C71.1959 76.6533 71.6003 76.9313 71.9409 77.2817C72.2814 77.6322 72.5514 78.0482 72.7355 78.506C72.9195 78.9638 73.0141 79.4544 73.0136 79.9497V100.812H65.5625V79.9497C65.562 79.4544 65.6565 78.9638 65.8406 78.506C66.0247 78.0482 66.2947 77.6322 66.6352 77.2817C66.9758 76.9313 67.3801 76.6533 67.8252 76.4636C68.2704 76.2739 68.7475 76.1763 69.2293 76.1763Z" fill="#EBEBEB"/>
<path d="M117.677 91.2153H74.5801V100.794H117.677V91.2153Z" fill="#E6E6E6"/>
<path d="M116.082 82.457H74.5193C72.4608 82.457 70.792 84.1727 70.792 86.2891V88.6717C70.792 90.7881 72.4608 92.5037 74.5193 92.5037H116.082C118.141 92.5037 119.81 90.7881 119.81 88.6717V86.2891C119.81 84.1727 118.141 82.457 116.082 82.457Z" fill="#F5F5F5"/>
<path d="M116.011 82.457H110.86C108.802 82.457 107.133 84.1727 107.133 86.2891V88.6717C107.133 90.7881 108.802 92.5037 110.86 92.5037H116.011C118.07 92.5037 119.739 90.7881 119.739 88.6717V86.2891C119.739 84.1727 118.07 82.457 116.011 82.457Z" fill="#E0E0E0"/>
<path d="M116.57 76.1763H122.191C122.673 76.1763 123.15 76.2739 123.595 76.4636C124.04 76.6534 124.444 76.9314 124.784 77.2819C125.124 77.6324 125.394 78.0485 125.578 78.5062C125.761 78.964 125.855 79.4545 125.854 79.9497V100.812H112.907V79.9497C112.906 79.4545 113 78.964 113.184 78.5062C113.367 78.0485 113.637 77.6324 113.977 77.2819C114.317 76.9314 114.722 76.6534 115.166 76.4636C115.611 76.2739 116.088 76.1763 116.57 76.1763Z" fill="#E0E0E0"/>
<path d="M116.57 76.1763H116.691C117.173 76.1763 117.65 76.2739 118.095 76.4636C118.539 76.6534 118.944 76.9314 119.284 77.2819C119.624 77.6324 119.894 78.0485 120.077 78.5062C120.261 78.964 120.355 79.4545 120.354 79.9497V100.812H112.907V79.9497C112.906 79.4545 113 78.964 113.184 78.5062C113.367 78.0485 113.637 77.6324 113.977 77.2819C114.317 76.9314 114.722 76.6534 115.166 76.4636C115.611 76.2739 116.088 76.1763 116.57 76.1763Z" fill="#F0F0F0"/>
<path d="M29.4909 19.4259C34.0613 18.6631 37.165 14.2357 36.4231 9.53689C35.6812 4.83808 31.3747 1.64726 26.8043 2.40998C22.2339 3.17271 19.1302 7.60015 19.8721 12.299C20.614 16.9978 24.9205 20.1886 29.4909 19.4259Z" fill="#E0E0E0"/>
<path d="M29.2904 18.1544C33.1777 17.5056 35.8174 13.74 35.1864 9.74349C34.5554 5.74701 30.8926 3.03311 27.0054 3.68183C23.1181 4.33055 20.4783 8.09623 21.1093 12.0927C21.7403 16.0892 25.4031 18.8031 29.2904 18.1544Z" fill="#F0F0F0"/>
<path d="M27.8089 15.9511V10.8271L24.5088 12.7486" fill="#F0F0F0"/>
<path d="M27.8086 16.3173C27.7142 16.3173 27.6236 16.2787 27.5569 16.2101C27.4901 16.1414 27.4526 16.0484 27.4526 15.9513V11.4531L24.6829 13.0672C24.6008 13.1146 24.5036 13.1266 24.4129 13.1005C24.3221 13.0745 24.2451 13.0125 24.1988 12.9281C24.1524 12.8441 24.1402 12.7446 24.1648 12.6513C24.1895 12.5581 24.2491 12.4786 24.3305 12.4304L27.6342 10.5089C27.6883 10.4776 27.7494 10.4614 27.8115 10.4619C27.8736 10.4624 27.9345 10.4797 27.9881 10.5118C28.0417 10.544 28.0862 10.5901 28.1172 10.6454C28.1482 10.7008 28.1645 10.7634 28.1646 10.8273V15.9513C28.1646 16.0484 28.1271 16.1414 28.0603 16.2101C27.9936 16.2787 27.903 16.3173 27.8086 16.3173Z" fill="#E0E0E0"/>
<path d="M128.585 0.0449219H74.918V49.0047H128.585V0.0449219Z" fill="#E6E6E6"/>
<path d="M127.172 1.38818H76.2603V47.6908H127.172V1.38818Z" fill="#F0F0F0"/>
<path d="M88.2076 1.38818L76.2603 47.5884V25.8809L82.5686 1.38818H88.2076Z" fill="white"/>
<path d="M92.4404 1.38818L80.3863 47.6908H78.4639L90.518 1.38818H92.4404Z" fill="white"/>
<path d="M127.172 30.606V38.0028L124.733 47.6908H122.811L127.172 30.606Z" fill="white"/>
<path d="M94.0176 0.557129H93.1597V48.7264H94.0176V0.557129Z" fill="#E6E6E6"/>
<path d="M110.639 0.557129H109.781V48.7264H110.639V0.557129Z" fill="#E6E6E6"/>
<path d="M64.9999 117.487C103.121 117.487 134.025 115.632 134.025 113.344C134.025 111.056 103.121 109.201 64.9999 109.201C26.8786 109.201 -4.0249 111.056 -4.0249 113.344C-4.0249 115.632 26.8786 117.487 64.9999 117.487Z" fill="#F5F5F5"/>
<path d="M119.076 104.19C119.076 104.19 120.767 100.398 118.834 96.6579C116.901 92.9174 116.342 92.039 117.574 91.2704C118.806 90.5018 119.372 94.2643 119.372 94.2643C119.981 92.5653 120.043 90.7101 119.55 88.9719C118.695 86.2672 118.158 81.8605 119.325 81.3884C120.493 80.9162 119.55 86.8784 120.568 88.9207C121.084 87.4912 121.418 85.9989 121.561 84.4811C121.7 82.307 121.483 78.8374 122.405 77.948C123.327 77.0586 123.921 77.6735 123.014 82.4681C122.468 85.3344 122.167 88.2441 122.113 91.1643C122.113 91.1643 124.117 84.8727 125.466 84.6897C126.816 84.5067 126.812 86.5417 125.659 88.3094C124.505 90.0772 122.28 93.2431 121.917 94.8718C121.917 94.8718 124.121 90.1358 126.1 91.5778C128.079 93.0199 124.377 95.8856 122.725 96.9214C121.073 97.9572 119.927 104.428 119.927 104.428L119.076 104.19Z" fill="#5649A5"/>
<path opacity="0.2" d="M119.076 104.19C119.076 104.19 120.767 100.398 118.834 96.6579C116.901 92.9174 116.342 92.039 117.574 91.2704C118.806 90.5018 119.372 94.2643 119.372 94.2643C119.981 92.5653 120.043 90.7101 119.55 88.9719C118.695 86.2672 118.158 81.8605 119.325 81.3884C120.493 80.9162 119.55 86.8784 120.568 88.9207C121.084 87.4912 121.418 85.9989 121.561 84.4811C121.7 82.307 121.483 78.8374 122.405 77.948C123.327 77.0586 123.921 77.6735 123.014 82.4681C122.468 85.3344 122.167 88.2441 122.113 91.1643C122.113 91.1643 124.117 84.8727 125.466 84.6897C126.816 84.5067 126.812 86.5417 125.659 88.3094C124.505 90.0772 122.28 93.2431 121.917 94.8718C121.917 94.8718 124.121 90.1358 126.1 91.5778C128.079 93.0199 124.377 95.8856 122.725 96.9214C121.073 97.9572 119.927 104.428 119.927 104.428L119.076 104.19Z" fill="black"/>
<path d="M120.411 105.746C120.411 105.746 118.763 101.928 120.739 98.2169C122.715 94.5056 123.284 93.6346 122.063 92.8513C120.842 92.0681 120.23 95.8159 120.23 95.8159C119.64 94.1104 119.599 92.255 120.112 90.5236C120.999 87.8298 121.59 83.4305 120.426 82.9401C119.262 82.4496 120.137 88.4301 119.098 90.454C118.598 89.0174 118.28 87.5202 118.154 85.9998C118.04 83.8258 118.3 80.3597 117.385 79.4557C116.47 78.5517 115.872 79.1593 116.727 83.9685C117.238 86.8403 117.505 89.7525 117.524 92.672C117.524 92.672 115.591 86.3512 114.249 86.1499C112.907 85.9486 112.882 87.9799 114.014 89.7659C115.146 91.552 117.332 94.7509 117.688 96.3832C117.688 96.3832 115.552 91.6252 113.544 93.038C111.536 94.4507 115.217 97.3714 116.855 98.4328C118.493 99.4942 119.568 105.983 119.568 105.983L120.411 105.746Z" fill="#5649A5"/>
<path d="M112.814 103.022H126.417L125.317 113.033H113.914L112.814 103.022Z" fill="#263238"/>
<path d="M62.3657 111.426V112.74C62.3657 112.779 62.3582 112.817 62.3437 112.853C62.3292 112.889 62.308 112.922 62.2812 112.95C62.2544 112.977 62.2227 112.999 62.1877 113.014C62.1527 113.029 62.1152 113.036 62.0773 113.036H25.9718C25.6639 113.036 25.3606 112.959 25.0886 112.81C24.8166 112.662 24.5842 112.447 24.4116 112.185C24.2391 111.923 24.1318 111.621 24.0991 111.306C24.0663 110.991 24.1092 110.673 24.2238 110.379L35.6657 81.2456L54.1563 81.3737L53.5262 85.1545L49.4464 109.622C49.4159 109.807 49.4251 109.997 49.4733 110.179C49.5214 110.36 49.6074 110.529 49.7253 110.672C49.8432 110.816 49.9902 110.932 50.1559 111.012C50.3217 111.091 50.5024 111.133 50.6853 111.133H62.0773C62.115 111.133 62.1524 111.14 62.1874 111.154C62.2224 111.169 62.2542 111.19 62.281 111.218C62.3078 111.245 62.3291 111.277 62.3437 111.313C62.3582 111.349 62.3657 111.387 62.3657 111.426Z" fill="#263238"/>
<path opacity="0.5" d="M62.3657 111.426V112.74C62.3657 112.779 62.3582 112.817 62.3437 112.853C62.3292 112.889 62.308 112.922 62.2812 112.95C62.2544 112.977 62.2227 112.999 62.1877 113.014C62.1527 113.029 62.1152 113.036 62.0773 113.036H25.9718C25.6639 113.036 25.3606 112.959 25.0886 112.81C24.8166 112.662 24.5842 112.447 24.4116 112.185C24.2391 111.923 24.1318 111.621 24.0991 111.306C24.0663 110.991 24.1092 110.673 24.2238 110.379L31.3189 92.3171L35.6657 81.2456L54.1563 81.3737L53.5262 85.1545L51.7462 95.7941L49.4429 109.622C49.4124 109.807 49.4215 109.997 49.4697 110.179C49.5179 110.36 49.6039 110.529 49.7218 110.672C49.8397 110.816 49.9866 110.932 50.1524 111.012C50.3182 111.091 50.4988 111.133 50.6818 111.133H62.0738C62.1118 111.132 62.1496 111.139 62.1849 111.153C62.2203 111.168 62.2526 111.189 62.2798 111.216C62.307 111.244 62.3286 111.276 62.3433 111.312C62.3581 111.348 62.3657 111.387 62.3657 111.426Z" fill="white"/>
<path opacity="0.2" d="M50.6853 111.13H27.1893C27.0539 111.129 26.9207 111.095 26.8014 111.029C26.6821 110.963 26.5803 110.868 26.5051 110.752C26.4298 110.637 26.3834 110.504 26.3699 110.365C26.3563 110.227 26.3761 110.087 26.4274 109.958L36.4595 85.1509H53.5226L49.4428 109.618C49.4123 109.804 49.4215 109.994 49.4699 110.176C49.5183 110.358 49.6046 110.526 49.7229 110.67C49.8412 110.814 49.9886 110.93 50.1548 111.009C50.321 111.088 50.502 111.13 50.6853 111.13Z" fill="black"/>
<path opacity="0.1" d="M54.1567 81.3703L53.5266 85.1511L51.7502 95.7907L31.3193 92.3174L35.6661 81.2422L54.1567 81.3703Z" fill="black"/>
<path d="M90.1089 27.063H4.50874C4.22122 27.063 3.93652 27.1212 3.67089 27.2343C3.40526 27.3474 3.1639 27.5132 2.9606 27.7223C2.75729 27.9313 2.59602 28.1794 2.48599 28.4525C2.37597 28.7256 2.31934 29.0183 2.31934 29.3139V88.895C2.31934 89.492 2.55 90.0645 2.9606 90.4867C3.37119 90.9088 3.92807 91.1459 4.50874 91.1459H90.1089C90.6899 91.1459 91.2472 90.9089 91.6583 90.4869C92.0695 90.0649 92.301 89.4923 92.3019 88.895V29.3139C92.301 28.7166 92.0695 28.1441 91.6583 27.722C91.2472 27.3 90.6899 27.063 90.1089 27.063Z" fill="#263238"/>
<path opacity="0.6" d="M90.1089 27.063H4.50874C4.22122 27.063 3.93652 27.1212 3.67089 27.2343C3.40526 27.3474 3.1639 27.5132 2.9606 27.7223C2.75729 27.9313 2.59602 28.1794 2.48599 28.4525C2.37597 28.7256 2.31934 29.0183 2.31934 29.3139V88.895C2.31934 89.492 2.55 90.0645 2.9606 90.4867C3.37119 90.9088 3.92807 91.1459 4.50874 91.1459H90.1089C90.6899 91.1459 91.2472 90.9089 91.6583 90.4869C92.0695 90.0649 92.301 89.4923 92.3019 88.895V29.3139C92.301 28.7166 92.0695 28.1441 91.6583 27.722C91.2472 27.3 90.6899 27.063 90.1089 27.063Z" fill="white"/>
<path opacity="0.2" d="M6.32434 91.1423H4.50874C3.92869 91.1423 3.37235 90.9057 2.96186 90.4843C2.55137 90.063 2.32028 89.4914 2.31934 88.8951V29.3176C2.31887 29.0217 2.37516 28.7286 2.48498 28.4551C2.59479 28.1816 2.75599 27.933 2.95934 27.7236C3.16269 27.5142 3.40421 27.3481 3.67007 27.2347C3.93593 27.1214 4.22092 27.063 4.50874 27.063H6.32434C6.03563 27.0616 5.74948 27.1188 5.48239 27.2315C5.21529 27.3442 4.97251 27.5101 4.76803 27.7197C4.56354 27.9292 4.40139 28.1783 4.29091 28.4525C4.18042 28.7268 4.12379 29.0208 4.12426 29.3176V88.8951C4.12425 89.1914 4.18126 89.4848 4.292 89.7584C4.40274 90.032 4.56502 90.2804 4.7695 90.4893C4.97399 90.6982 5.21664 90.8634 5.48348 90.9755C5.75032 91.0875 6.03609 91.1442 6.32434 91.1423Z" fill="black"/>
<path d="M90.3298 28.999H6.11084V86.45H90.3298V28.999Z" fill="#5649A5"/>
<path opacity="0.4" d="M47.0578 50.8678C51.0963 50.8678 54.3701 47.502 54.3701 43.3502C54.3701 39.1983 51.0963 35.8325 47.0578 35.8325C43.0194 35.8325 39.7456 39.1983 39.7456 43.3502C39.7456 47.502 43.0194 50.8678 47.0578 50.8678Z" fill="white"/>
<path d="M45.3132 42.2081V41.5201C45.3132 41.192 45.44 40.8773 45.6657 40.6453C45.8913 40.4133 46.1974 40.283 46.5165 40.283H47.5845C47.7437 40.281 47.9017 40.3116 48.0494 40.3729C48.197 40.4342 48.3314 40.525 48.4446 40.6401C48.5578 40.7552 48.6478 40.8922 48.7091 41.0433C48.7705 41.1943 48.8021 41.3564 48.8021 41.5201V42.2228H49.5817V41.5201C49.5808 40.9797 49.3715 40.4617 48.9999 40.0796C48.6282 39.6975 48.1244 39.4824 47.5988 39.4814H46.5308C46.0052 39.4824 45.5013 39.6975 45.1297 40.0796C44.758 40.4617 44.5488 40.9797 44.5479 41.5201V42.2228L45.3132 42.2081Z" fill="white"/>
<path d="M43.5513 43.134V46.827C43.5513 46.8808 43.5616 46.9341 43.5816 46.9839C43.6017 47.0336 43.631 47.0788 43.668 47.1168C43.7051 47.1549 43.749 47.1851 43.7974 47.2057C43.8458 47.2263 43.8976 47.2369 43.95 47.2369H50.1658C50.2181 47.2369 50.27 47.2263 50.3183 47.2057C50.3667 47.1851 50.4107 47.1549 50.4477 47.1168C50.4847 47.0788 50.5141 47.0336 50.5341 46.9839C50.5542 46.9341 50.5645 46.8808 50.5645 46.827V43.134C50.5645 43.0253 50.5225 42.9211 50.4477 42.8442C50.3729 42.7673 50.2715 42.7241 50.1658 42.7241H43.95C43.8976 42.7241 43.8458 42.7347 43.7974 42.7553C43.749 42.7759 43.7051 42.8061 43.668 42.8442C43.631 42.8823 43.6017 42.9274 43.5816 42.9772C43.5616 43.0269 43.5513 43.0802 43.5513 43.134ZM47.2821 45.2239V45.9559H46.8443V45.2239C46.7802 45.1872 46.7264 45.1344 46.6877 45.0703C46.6491 45.0063 46.627 44.9332 46.6236 44.8579C46.6236 44.7366 46.6704 44.6202 46.7539 44.5344C46.8373 44.4486 46.9505 44.4004 47.0686 44.4004C47.1866 44.4004 47.2998 44.4486 47.3832 44.5344C47.4667 44.6202 47.5136 44.7366 47.5136 44.8579C47.509 44.9343 47.4853 45.0081 47.4448 45.0722C47.4042 45.1364 47.3482 45.1886 47.2821 45.2239Z" fill="white"/>
<path d="M29.2188 57.0933H22.3124C21.9015 57.0933 21.5684 57.4357 21.5684 57.8582V64.9586C21.5684 65.3811 21.9015 65.7235 22.3124 65.7235H29.2188C29.6297 65.7235 29.9628 65.3811 29.9628 64.9586V57.8582C29.9628 57.4357 29.6297 57.0933 29.2188 57.0933Z" fill="white"/>
<path d="M39.8667 57.0825H32.9603C32.5494 57.0825 32.2163 57.425 32.2163 57.8475V64.9479C32.2163 65.3703 32.5494 65.7128 32.9603 65.7128H39.8667C40.2777 65.7128 40.6108 65.3703 40.6108 64.9479V57.8475C40.6108 57.425 40.2777 57.0825 39.8667 57.0825Z" fill="white"/>
<path d="M50.5113 57.0713H43.6049C43.194 57.0713 42.8608 57.4138 42.8608 57.8362V64.9366C42.8608 65.3591 43.194 65.7016 43.6049 65.7016H50.5113C50.9222 65.7016 51.2553 65.3591 51.2553 64.9366V57.8362C51.2553 57.4138 50.9222 57.0713 50.5113 57.0713Z" fill="white"/>
<path d="M61.1553 57.0566H54.2489C53.838 57.0566 53.5049 57.3991 53.5049 57.8216V64.922C53.5049 65.3444 53.838 65.6869 54.2489 65.6869H61.1553C61.5662 65.6869 61.8994 65.3444 61.8994 64.922V57.8216C61.8994 57.3991 61.5662 57.0566 61.1553 57.0566Z" fill="white"/>
<path d="M71.7999 57.0459H64.8935C64.4825 57.0459 64.1494 57.3884 64.1494 57.8108V64.9112C64.1494 65.3337 64.4825 65.6762 64.8935 65.6762H71.7999C72.2108 65.6762 72.5439 65.3337 72.5439 64.9112V57.8108C72.5439 57.3884 72.2108 57.0459 71.7999 57.0459Z" fill="white"/>
<path d="M66.499 61.5291C66.499 60.0102 67.2893 59.1465 68.3502 59.1465C69.4111 59.1465 70.1979 60.0102 70.1979 61.5291C70.1979 63.048 69.4075 63.9118 68.3502 63.9118C67.2929 63.9118 66.499 63.048 66.499 61.5291ZM69.5499 61.5291C69.5499 60.336 69.0551 59.7394 68.3502 59.7394C67.6453 59.7394 67.1469 60.336 67.1469 61.5291C67.1469 62.7223 67.6382 63.3189 68.3502 63.3189C69.0622 63.3189 69.5499 62.7186 69.5499 61.5291Z" fill="#263238"/>
<path d="M27.4528 61.4708C27.4528 63.0593 26.5771 63.912 25.3168 63.912C24.9235 63.9265 24.5336 63.8317 24.1883 63.6375L24.4161 63.1142C24.6806 63.2714 24.9832 63.3476 25.2883 63.3338C26.2068 63.3338 26.7907 62.7409 26.7907 61.5733V61.4086C26.6388 61.6131 26.4399 61.7756 26.2119 61.8816C25.9838 61.9877 25.7338 62.0339 25.4841 62.0162C24.5835 62.0162 23.9355 61.4635 23.9355 60.6071C23.9355 59.7506 24.6475 59.1431 25.534 59.1431C26.7657 59.1467 27.4528 59.9849 27.4528 61.4708ZM26.6554 60.5851C26.6554 60.1056 26.2994 59.6848 25.5874 59.6848C25.4628 59.6693 25.3364 59.6811 25.2165 59.7194C25.0966 59.7577 24.986 59.8216 24.8918 59.907C24.7977 59.9923 24.7222 60.0972 24.6703 60.2147C24.6183 60.3322 24.5912 60.4597 24.5906 60.5888C24.5906 61.1378 24.9857 61.4891 25.623 61.4891C26.2602 61.4891 26.6554 61.0975 26.6554 60.5851Z" fill="#263238"/>
<path d="M34.5625 61.5291C34.5625 60.0102 35.3528 59.1465 36.4137 59.1465C37.4746 59.1465 38.2613 60.0102 38.2613 61.5291C38.2613 63.048 37.471 63.9118 36.4137 63.9118C35.3564 63.9118 34.5625 63.048 34.5625 61.5291ZM37.6134 61.5291C37.6134 60.336 37.1221 59.7394 36.4137 59.7394C35.7053 59.7394 35.2104 60.336 35.2104 61.5291C35.2104 62.7223 35.7017 63.3189 36.4137 63.3189C37.1257 63.3189 37.6134 62.7223 37.6134 61.5291Z" fill="#263238"/>
<path d="M48.6955 63.2789V63.8462H45.4381V63.407L47.2822 61.577C47.7628 61.0976 47.8518 60.8048 47.8518 60.512C47.8518 60.0325 47.5243 59.7397 46.887 59.7397C46.6694 59.7273 46.452 59.7663 46.2514 59.8539C46.0508 59.9415 45.8724 60.0752 45.73 60.2448L45.2886 59.8532C45.4968 59.6163 45.7537 59.43 46.0406 59.3078C46.3276 59.1856 46.6374 59.1306 46.9475 59.1468C47.8909 59.1468 48.4997 59.6446 48.4997 60.4424C48.4997 60.8963 48.3715 61.3025 47.7557 61.9064L46.3708 63.2753L48.6955 63.2789Z" fill="#263238"/>
<path d="M58.2364 59.1978V63.846H57.5956V59.7797H56.5703V59.1978H58.2364Z" fill="#263238"/>
<g opacity="0.6">
<path d="M39.0942 54.9849V55.1496H37.8589V53.3525H39.055V53.5172H38.044V54.1577H38.9447V54.3298H38.044V54.9959L39.0942 54.9849Z" fill="white"/>
<path d="M40.6961 54.3665V55.1498H40.5181V54.3848C40.5287 54.328 40.526 54.2694 40.5103 54.2138C40.4946 54.1583 40.4663 54.1073 40.4278 54.0652C40.3892 54.023 40.3415 53.9909 40.2885 53.9714C40.2355 53.9519 40.1788 53.9455 40.1229 53.9529C40.0602 53.9483 39.9973 53.9579 39.9386 53.9809C39.8799 54.004 39.8268 54.04 39.783 54.0863C39.7393 54.1327 39.7059 54.1884 39.6853 54.2494C39.6647 54.3105 39.6573 54.3754 39.6637 54.4397V55.1498H39.4893V53.7992H39.6566V54.0481C39.7101 53.9638 39.7844 53.8956 39.872 53.8506C39.9596 53.8055 40.0573 53.7853 40.155 53.7919C40.2292 53.7854 40.3039 53.796 40.3736 53.8228C40.4434 53.8497 40.5064 53.8921 40.5582 53.9471C40.61 54.0022 40.6493 54.0683 40.6731 54.1409C40.697 54.2134 40.7048 54.2905 40.6961 54.3665Z" fill="white"/>
<path d="M41.8605 55.0621C41.7822 55.1273 41.6835 55.1611 41.5828 55.1573C41.5316 55.1616 41.48 55.1545 41.4317 55.1365C41.3833 55.1184 41.3394 55.0897 41.3028 55.0525C41.2663 55.0153 41.238 54.9704 41.22 54.9209C41.202 54.8713 41.1946 54.8184 41.1983 54.7656V53.9641H40.9634V53.8104H41.1983V53.5176H41.3763V53.8104H41.7751V53.9641H41.3763V54.7693C41.3763 54.9303 41.4547 55.0145 41.6006 55.0145C41.6714 55.0168 41.7407 54.9935 41.7964 54.9486L41.8605 55.0621Z" fill="white"/>
<path d="M43.2843 54.5314H42.1878C42.196 54.6639 42.255 54.7875 42.3518 54.8753C42.4485 54.9631 42.5752 55.0079 42.704 54.9999C42.7794 55.0024 42.8545 54.988 42.924 54.9577C42.9934 54.9273 43.0557 54.8818 43.1063 54.8242L43.206 54.9414C43.1088 55.0351 42.9881 55.0989 42.8575 55.1256C42.7268 55.1523 42.5915 55.1408 42.4669 55.0924C42.3423 55.044 42.2334 54.9606 42.1526 54.8517C42.0718 54.7429 42.0223 54.6129 42.0098 54.4765C42.0049 54.3875 42.0179 54.2984 42.048 54.2148C42.0782 54.1311 42.1248 54.0548 42.1849 53.9906C42.2451 53.9263 42.3175 53.8755 42.3976 53.8414C42.4778 53.8072 42.5639 53.7905 42.6506 53.7921C42.737 53.7904 42.8229 53.8072 42.9026 53.8414C42.9824 53.8756 43.0544 53.9265 43.114 53.9909C43.1736 54.0553 43.2195 54.1317 43.2488 54.2153C43.2782 54.2989 43.2902 54.3879 43.2843 54.4765C43.2843 54.4765 43.2843 54.5095 43.2843 54.5314ZM42.1878 54.396H43.117C43.1068 54.2766 43.0534 54.1654 42.9674 54.0844C42.8814 54.0033 42.769 53.9584 42.6524 53.9584C42.5357 53.9584 42.4233 54.0033 42.3373 54.0844C42.2513 54.1654 42.198 54.2766 42.1878 54.396Z" fill="white"/>
<path d="M44.3059 53.7921V53.9641H44.2631C44.2006 53.9607 44.138 53.9717 44.08 53.9961C44.0221 54.0206 43.9701 54.058 43.9279 54.1056C43.8856 54.1532 43.8542 54.2099 43.8358 54.2715C43.8175 54.3331 43.8127 54.3981 43.8217 54.4619V55.1499H43.6401V53.7994H43.811V54.0629C43.8568 53.9713 43.9287 53.8962 44.0172 53.8478C44.1056 53.7994 44.2064 53.78 44.3059 53.7921Z" fill="white"/>
<path d="M46.3995 53.7993L45.7445 55.3109C45.6341 55.5744 45.4953 55.6586 45.3066 55.6586C45.2484 55.6608 45.1903 55.6509 45.1359 55.6295C45.0814 55.6081 45.0317 55.5757 44.9897 55.5342L45.0716 55.3987C45.102 55.4323 45.139 55.4588 45.1801 55.4764C45.2213 55.4941 45.2656 55.5026 45.3101 55.5012C45.4276 55.5012 45.5059 55.4463 45.5807 55.278L45.6377 55.1462L45.0645 53.7993H45.2496L45.7409 54.9449L46.2357 53.7993H46.3995Z" fill="white"/>
<path d="M46.4882 54.4764C46.4875 54.3402 46.5261 54.2068 46.5992 54.0931C46.6723 53.9795 46.7766 53.8907 46.8988 53.8381C47.0211 53.7855 47.1558 53.7713 47.2858 53.7974C47.4159 53.8236 47.5355 53.8888 47.6294 53.9849C47.7234 54.081 47.7875 54.2036 47.8136 54.3372C47.8397 54.4707 47.8267 54.6093 47.7761 54.7352C47.7256 54.8612 47.6398 54.9688 47.5296 55.0446C47.4195 55.1204 47.29 55.1608 47.1574 55.1608C47.0689 55.1644 46.9806 55.1492 46.8981 55.1161C46.8156 55.083 46.7405 55.0328 46.6777 54.9686C46.6149 54.9043 46.5657 54.8275 46.5331 54.7428C46.5004 54.6581 46.4852 54.5674 46.4882 54.4764ZM47.6416 54.4764C47.6374 54.3781 47.6052 54.2833 47.549 54.2037C47.4927 54.1241 47.415 54.0633 47.3254 54.0288C47.2357 53.9943 47.1383 53.9877 47.045 54.0097C46.9518 54.0318 46.8669 54.0815 46.8009 54.1528C46.735 54.2241 46.6909 54.3138 46.6742 54.4106C46.6574 54.5075 46.6687 54.6072 46.7067 54.6975C46.7447 54.7878 46.8077 54.8646 46.8879 54.9183C46.968 54.9721 47.0618 55.0004 47.1574 54.9998C47.2226 54.9994 47.287 54.9854 47.3466 54.9585C47.4063 54.9316 47.4599 54.8924 47.5043 54.8434C47.5486 54.7943 47.5828 54.7365 47.6045 54.6734C47.6263 54.6103 47.6353 54.5432 47.6309 54.4764H47.6416Z" fill="white"/>
<path d="M49.3543 53.7993V55.1499H49.187V54.901C49.1382 54.9842 49.0685 55.0523 48.9851 55.0981C48.9018 55.1438 48.8079 55.1655 48.7135 55.1608C48.6383 55.1685 48.5623 55.1587 48.4913 55.1322C48.4202 55.1057 48.3558 55.0631 48.3029 55.0076C48.2499 54.9521 48.2097 54.8851 48.1853 54.8116C48.1609 54.738 48.1528 54.6597 48.1617 54.5826V53.7993H48.3361V54.5643C48.3256 54.6211 48.3282 54.6797 48.3439 54.7353C48.3596 54.7908 48.3879 54.8418 48.4265 54.8839C48.465 54.9261 48.5128 54.9582 48.5658 54.9777C48.6188 54.9972 48.6755 55.0035 48.7313 54.9961C48.7932 54.9998 48.855 54.9895 48.9126 54.9659C48.9701 54.9423 49.022 54.906 49.0644 54.8596C49.1068 54.8132 49.1388 54.7578 49.1582 54.6973C49.1775 54.6367 49.1837 54.5726 49.1763 54.5094V53.7993H49.3543Z" fill="white"/>
<path d="M50.5113 53.7922V53.9642H50.4686C50.406 53.9608 50.3434 53.9718 50.2855 53.9962C50.2275 54.0207 50.1755 54.0581 50.1333 54.1057C50.0911 54.1533 50.0596 54.21 50.0413 54.2716C50.0229 54.3332 50.0181 54.3982 50.0271 54.462V55.15H49.8491V53.7995H50.02V54.063C50.0656 53.972 50.1369 53.8974 50.2247 53.849C50.3124 53.8007 50.4123 53.7808 50.5113 53.7922Z" fill="white"/>
<path d="M51.3834 54.2531C51.377 54.0651 51.4254 53.8794 51.5223 53.7198C51.6193 53.5603 51.7604 53.4341 51.9276 53.3576C52.0948 53.281 52.2804 53.2576 52.4606 53.2902C52.6408 53.3228 52.8075 53.4101 52.9391 53.5407C53.0708 53.6714 53.1615 53.8395 53.1996 54.0235C53.2377 54.2075 53.2215 54.399 53.1531 54.5735C53.0846 54.748 52.967 54.8974 52.8153 55.0027C52.6636 55.108 52.4849 55.1643 52.3019 55.1644C52.1826 55.1694 52.0637 55.1494 51.9522 55.1058C51.8407 55.0622 51.739 54.9958 51.6531 54.9106C51.5673 54.8254 51.4991 54.7233 51.4528 54.6103C51.4064 54.4972 51.3828 54.3757 51.3834 54.2531ZM53.0317 54.2531C53.0359 54.1022 52.9959 53.9535 52.917 53.8262C52.8381 53.6989 52.7238 53.5989 52.5889 53.5391C52.4541 53.4793 52.3049 53.4626 52.1607 53.4909C52.0165 53.5193 51.8839 53.5916 51.78 53.6983C51.6762 53.8051 51.6059 53.9414 51.5783 54.0897C51.5507 54.2379 51.567 54.3913 51.6252 54.5299C51.6833 54.6686 51.7806 54.7861 51.9044 54.8672C52.0282 54.9484 52.1729 54.9894 52.3197 54.9851C52.5085 54.9851 52.6896 54.908 52.8231 54.7707C52.9566 54.6334 53.0317 54.4472 53.0317 54.2531Z" fill="white"/>
<path d="M53.9429 53.5172H53.3306V53.3525H54.7546V53.5172H54.1387V55.1496H53.9536L53.9429 53.5172Z" fill="white"/>
<path d="M56.4028 53.9638C56.4028 54.3298 56.1323 54.575 55.6908 54.575H55.2245V55.1423H55.0322V53.3452H55.6837C56.1323 53.3525 56.4028 53.5978 56.4028 53.9638ZM56.2177 53.9638C56.2177 53.6746 56.0326 53.5099 55.6837 53.5099H55.2209V54.4066H55.6837C56.0326 54.4139 56.2177 54.2529 56.2177 53.9638Z" fill="white"/>
</g>
<g opacity="0.6">
<path d="M40.1338 70.3937L40.205 70.251C40.3648 70.3936 40.5701 70.4705 40.7817 70.4669C41.1057 70.4669 41.2481 70.3278 41.2481 70.1485C41.2481 69.6581 40.1801 69.9582 40.1801 69.2957C40.1801 69.0322 40.3794 68.8053 40.8209 68.8053C41.0123 68.8026 41.2003 68.8573 41.362 68.9627L41.3015 69.1127C41.1578 69.0185 40.9913 68.9678 40.8209 68.9663C40.504 68.9663 40.3616 69.1127 40.3616 69.2921C40.3616 69.7825 41.4296 69.486 41.4296 70.1375C41.4296 70.4047 41.2267 70.628 40.7817 70.628C40.5447 70.6371 40.3131 70.5534 40.1338 70.3937Z" fill="white"/>
<path d="M42.9286 69.9944H41.8321C41.8404 70.1268 41.8993 70.2505 41.9961 70.3383C42.0928 70.4261 42.2195 70.4709 42.3483 70.4629C42.4238 70.4654 42.4988 70.451 42.5683 70.4206C42.6378 70.3903 42.7 70.3448 42.7506 70.2872L42.8503 70.4043C42.7876 70.478 42.7097 70.5363 42.6222 70.5749C42.5347 70.6136 42.4399 70.6316 42.3448 70.6276C42.2545 70.6332 42.164 70.6194 42.0792 70.5872C41.9943 70.5549 41.9169 70.5048 41.852 70.44C41.787 70.3753 41.7358 70.2974 41.7018 70.2112C41.6677 70.125 41.6515 70.0325 41.6541 69.9395C41.6497 69.8506 41.6631 69.7617 41.6935 69.6783C41.7238 69.595 41.7704 69.5189 41.8305 69.4547C41.8905 69.3906 41.9627 69.3398 42.0426 69.3054C42.1225 69.2711 42.2084 69.254 42.2949 69.2551C42.3817 69.2528 42.4679 69.2692 42.5481 69.3032C42.6283 69.3372 42.7007 69.3881 42.7607 69.4525C42.8207 69.5169 42.8669 69.5935 42.8965 69.6774C42.926 69.7612 42.9381 69.8505 42.9322 69.9395C42.9322 69.9395 42.9286 69.9761 42.9286 69.9944ZM41.8321 69.859H42.7613C42.7511 69.7395 42.6978 69.6283 42.6118 69.5473C42.5258 69.4663 42.4134 69.4214 42.2967 69.4214C42.1801 69.4214 42.0677 69.4663 41.9817 69.5473C41.8957 69.6283 41.8423 69.7395 41.8321 69.859Z" fill="white"/>
<path d="M44.5053 69.83V70.6132H44.3308V69.8483C44.3408 69.7917 44.3376 69.7335 44.3216 69.6785C44.3056 69.6234 44.2772 69.573 44.2388 69.5313C44.2003 69.4896 44.1528 69.4578 44.1001 69.4384C44.0475 69.4191 43.9911 69.4128 43.9357 69.4201C43.873 69.4155 43.81 69.425 43.7513 69.4481C43.6926 69.4711 43.6395 69.5071 43.5957 69.5535C43.552 69.5999 43.5186 69.6555 43.498 69.7166C43.4774 69.7776 43.47 69.8426 43.4764 69.9069V70.6132H43.2842V69.2664H43.4551V69.5152C43.5081 69.4302 43.5823 69.3613 43.6699 69.3156C43.7575 69.27 43.8554 69.2492 43.9535 69.2554C44.0285 69.2471 44.1044 69.2564 44.1755 69.2824C44.2466 69.3085 44.3111 69.3507 44.3641 69.4059C44.4171 69.4612 44.4573 69.528 44.4818 69.6014C44.5062 69.6748 44.5143 69.7529 44.5053 69.83Z" fill="white"/>
<path d="M46.1895 68.71V70.6132H46.0186V70.346C45.9665 70.4351 45.8921 70.5082 45.8032 70.5578C45.7143 70.6074 45.6141 70.6315 45.5131 70.6278C45.3445 70.6151 45.1868 70.5373 45.0717 70.41C44.9566 70.2827 44.8926 70.1154 44.8926 69.9415C44.8926 69.7677 44.9566 69.6004 45.0717 69.4731C45.1868 69.3458 45.3445 69.268 45.5131 69.2553C45.6115 69.2517 45.7092 69.2745 45.7966 69.3213C45.8839 69.3681 45.958 69.4374 46.0115 69.5225V68.71H46.1895ZM46.015 69.9397C46.0109 69.8416 45.9787 69.7469 45.9227 69.6674C45.8666 69.5879 45.789 69.527 45.6996 69.4924C45.6102 69.4578 45.5129 69.451 45.4197 69.4727C45.3266 69.4945 45.2417 69.5439 45.1756 69.6148C45.1095 69.6857 45.0651 69.775 45.048 69.8716C45.0308 69.9683 45.0417 70.0679 45.0791 70.1583C45.1166 70.2486 45.179 70.3257 45.2587 70.3799C45.3384 70.4341 45.4318 70.463 45.5273 70.4631C45.5935 70.4642 45.6592 70.4513 45.7203 70.4251C45.7814 70.3989 45.8365 70.36 45.8823 70.3109C45.9281 70.2618 45.9635 70.2034 45.9864 70.1395C46.0092 70.0757 46.019 70.0076 46.015 69.9397Z" fill="white"/>
<path d="M48.3251 69.7787V70.6132H48.1543V70.4046C48.1048 70.4795 48.0369 70.5397 47.9575 70.5789C47.8781 70.6181 47.79 70.635 47.7021 70.6278C47.4067 70.6278 47.2251 70.4668 47.2251 70.2325C47.2251 69.9983 47.3533 69.8665 47.7306 69.8665H48.1471V69.786C48.1522 69.7367 48.1464 69.6868 48.1303 69.6401C48.1142 69.5933 48.0881 69.5508 48.054 69.5157C48.0199 69.4807 47.9786 69.4539 47.9331 69.4373C47.8876 69.4207 47.8391 69.4148 47.7911 69.42C47.631 69.4175 47.4755 69.4747 47.3533 69.5811L47.2749 69.4456C47.4252 69.3222 47.6131 69.2574 47.8054 69.2626C47.8741 69.2542 47.9437 69.2617 48.0092 69.2844C48.0748 69.3071 48.1346 69.3445 48.1844 69.3939C48.2341 69.4433 48.2726 69.5034 48.2969 69.57C48.3213 69.6365 48.3309 69.7078 48.3251 69.7787ZM48.1471 70.2069V69.9873H47.7342C47.4814 69.9873 47.3995 70.0898 47.3995 70.2289C47.3995 70.368 47.5206 70.4814 47.7306 70.4814C47.8195 70.4874 47.9079 70.464 47.9828 70.4146C48.0578 70.3652 48.1154 70.2924 48.1471 70.2069Z" fill="white"/>
<path d="M50.0233 69.2662V70.4338C50.0373 70.5255 50.03 70.6193 50.002 70.7076C49.974 70.7958 49.9262 70.8761 49.8623 70.9417C49.7985 71.0074 49.7204 71.0566 49.6346 71.0853C49.5487 71.1141 49.4575 71.1216 49.3682 71.1072C49.1469 71.1161 48.9297 71.0434 48.7559 70.9022L48.8449 70.7632C48.9908 70.8844 49.1735 70.9492 49.3611 70.9462C49.6958 70.9462 49.8453 70.7924 49.8453 70.4594V70.2874C49.789 70.3717 49.7127 70.4398 49.6236 70.4853C49.5345 70.5308 49.4356 70.5521 49.3362 70.5472C49.2488 70.554 49.1609 70.5421 49.0781 70.5123C48.9953 70.4825 48.9194 70.4355 48.8552 70.3742C48.7909 70.3128 48.7396 70.2385 48.7045 70.1559C48.6695 70.0733 48.6514 69.9841 48.6514 69.8939C48.6514 69.8038 48.6695 69.7146 48.7045 69.6319C48.7396 69.5493 48.7909 69.475 48.8552 69.4137C48.9194 69.3523 48.9953 69.3053 49.0781 69.2755C49.1609 69.2458 49.2488 69.2339 49.3362 69.2406C49.4373 69.2356 49.538 69.2576 49.6285 69.3044C49.7189 69.3512 49.7961 69.4213 49.8524 69.5078V69.2516L50.0233 69.2662ZM49.8524 69.9067C49.8559 69.8047 49.8298 69.7039 49.7772 69.6172C49.7246 69.5306 49.6481 69.4621 49.5574 69.4205C49.4667 69.3789 49.366 69.3661 49.2681 69.3837C49.1703 69.4014 49.0799 69.4487 49.0084 69.5196C48.9369 69.5905 48.8876 69.6817 48.8669 69.7815C48.8462 69.8814 48.8549 69.9853 48.8921 70.08C48.9292 70.1747 48.993 70.2559 49.0753 70.313C49.1576 70.3702 49.2547 70.4008 49.354 70.4008C49.419 70.4049 49.4841 70.3951 49.5451 70.3719C49.6062 70.3488 49.662 70.3128 49.7088 70.2664C49.7557 70.2199 49.7926 70.164 49.8173 70.1021C49.8421 70.0401 49.854 69.9736 49.8524 69.9067Z" fill="white"/>
<path d="M51.5078 69.7788V70.6132H51.3404V70.4046C51.2907 70.4793 51.2228 70.5393 51.1434 70.5785C51.0641 70.6176 50.9761 70.6347 50.8883 70.6279C50.5893 70.6279 50.4077 70.4668 50.4077 70.2326C50.4077 69.9984 50.5394 69.8666 50.9168 69.8666H51.3298V69.7861C51.3298 69.5555 51.2052 69.4201 50.9738 69.4201C50.8148 69.4181 50.6606 69.4753 50.5394 69.5811L50.4576 69.4457C50.6092 69.3223 50.7982 69.2575 50.9916 69.2627C51.06 69.2549 51.1292 69.2627 51.1943 69.2857C51.2594 69.3087 51.3188 69.3462 51.3681 69.3955C51.4174 69.4448 51.4556 69.5048 51.4797 69.571C51.5039 69.6373 51.5134 69.7082 51.5078 69.7788ZM51.3298 70.207V69.9874H50.9204C50.664 69.9874 50.5822 70.0899 50.5822 70.2289C50.5822 70.368 50.7068 70.4815 50.9168 70.4815C51.0053 70.4879 51.0934 70.4646 51.1678 70.4151C51.2423 70.3656 51.2991 70.2925 51.3298 70.207Z" fill="white"/>
<path d="M51.9492 68.8378C51.9543 68.8062 51.9702 68.7775 51.994 68.7567C52.0178 68.736 52.048 68.7246 52.0792 68.7246C52.1104 68.7246 52.1405 68.736 52.1643 68.7567C52.1881 68.7775 52.204 68.8062 52.2091 68.8378C52.204 68.8695 52.1881 68.8982 52.1643 68.919C52.1405 68.9397 52.1104 68.9511 52.0792 68.9511C52.048 68.9511 52.0178 68.9397 51.994 68.919C51.9702 68.8982 51.9543 68.8695 51.9492 68.8378ZM51.9884 69.2661H52.1664V70.6129H51.9884V69.2661Z" fill="white"/>
<path d="M53.8649 69.8301V70.6133H53.6905V69.8484C53.7004 69.7918 53.6973 69.7336 53.6813 69.6786C53.6653 69.6235 53.6369 69.5731 53.5984 69.5314C53.5599 69.4897 53.5124 69.4579 53.4598 69.4385C53.4071 69.4192 53.3508 69.4129 53.2953 69.4202C53.2326 69.4156 53.1697 69.4251 53.111 69.4482C53.0522 69.4712 52.9991 69.5072 52.9554 69.5536C52.9116 69.6 52.8783 69.6556 52.8577 69.7167C52.837 69.7777 52.8297 69.8427 52.8361 69.9069V70.6133H52.6616V69.2664H52.8289V69.5153C52.882 69.4303 52.9562 69.3614 53.0438 69.3157C53.1314 69.2701 53.2293 69.2492 53.3273 69.2555C53.4013 69.2495 53.4755 69.2605 53.5448 69.2876C53.6141 69.3147 53.6767 69.3573 53.7281 69.4122C53.7795 69.4672 53.8185 69.5331 53.8421 69.6054C53.8658 69.6776 53.8735 69.7544 53.8649 69.8301Z" fill="white"/>
</g>
<path opacity="0.4" d="M56.9758 79.7636H37.136C36.352 79.7626 35.6004 79.4417 35.0464 78.8715C34.4924 78.3012 34.1812 77.5281 34.1812 76.7221C34.1812 75.9161 34.4924 75.1431 35.0464 74.5728C35.6004 74.0025 36.352 73.6816 37.136 73.6807H56.9758C57.7604 73.6807 58.5129 74.0011 59.0677 74.5715C59.6225 75.1419 59.9342 75.9155 59.9342 76.7221C59.9342 77.5288 59.6225 78.3024 59.0677 78.8728C58.5129 79.4431 57.7604 79.7636 56.9758 79.7636Z" fill="white"/>
<path d="M39.3184 76.5682C39.3167 76.4257 39.3436 76.2844 39.3973 76.153C39.4509 76.0216 39.5303 75.903 39.6305 75.8045C39.7306 75.7059 39.8494 75.6297 39.9795 75.5804C40.1095 75.531 40.248 75.5097 40.3864 75.5178C40.5279 75.5126 40.6688 75.5387 40.7996 75.5942C40.9304 75.6498 41.0481 75.7335 41.1447 75.8398L40.9596 76.0228C40.888 75.9437 40.8008 75.8811 40.7038 75.8395C40.6068 75.7978 40.5022 75.778 40.3971 75.7813C40.2707 75.7825 40.1466 75.8159 40.0358 75.8785C39.925 75.9411 39.831 76.0309 39.7623 76.14C39.6935 76.249 39.652 76.3739 39.6416 76.5034C39.6312 76.6329 39.6522 76.763 39.7026 76.8822C39.7531 77.0014 39.8315 77.1058 39.9307 77.1862C40.03 77.2667 40.1471 77.3206 40.2716 77.3431C40.3961 77.3657 40.5241 77.3562 40.6442 77.3155C40.7642 77.2748 40.8726 77.2041 40.9596 77.1099L41.1447 77.2929C41.0475 77.3995 40.9292 77.4834 40.7978 77.5389C40.6664 77.5945 40.5249 77.6204 40.3829 77.6149C40.245 77.623 40.1069 77.6018 39.9773 77.5526C39.8477 77.5035 39.7293 77.4275 39.6294 77.3293C39.5296 77.2312 39.4505 77.1129 39.397 76.982C39.3435 76.8511 39.3167 76.7102 39.3184 76.5682Z" fill="white"/>
<path d="M41.3371 76.5682C41.3271 76.3491 41.3812 76.132 41.4924 75.9448C41.6035 75.7577 41.7666 75.609 41.9607 75.518C42.1547 75.427 42.3709 75.3978 42.5812 75.4342C42.7916 75.4706 42.9865 75.5709 43.1409 75.7222C43.2953 75.8735 43.402 76.0689 43.4475 76.2832C43.4929 76.4975 43.4748 76.7208 43.3957 76.9244C43.3165 77.1281 43.1799 77.3027 43.0033 77.4257C42.8268 77.5488 42.6184 77.6147 42.4051 77.6149C42.2671 77.6224 42.1291 77.6008 41.9996 77.5516C41.87 77.5023 41.7516 77.4263 41.6516 77.3283C41.5516 77.2303 41.4721 77.1123 41.4181 76.9816C41.364 76.8509 41.3364 76.7102 41.3371 76.5682ZM43.1705 76.5682C43.1726 76.4098 43.1288 76.2543 43.0447 76.1216C42.9605 75.9889 42.8399 75.8849 42.6981 75.8229C42.5562 75.7609 42.3997 75.7438 42.2484 75.7736C42.097 75.8034 41.9577 75.8789 41.8483 75.9904C41.7388 76.1019 41.6641 76.2444 41.6337 76.3997C41.6033 76.555 41.6185 76.7161 41.6775 76.8625C41.7364 77.0089 41.8364 77.1339 41.9648 77.2216C42.0931 77.3093 42.2439 77.3558 42.398 77.3551C42.4997 77.3586 42.6011 77.3407 42.696 77.3025C42.7908 77.2643 42.877 77.2066 42.9493 77.1329C43.0216 77.0592 43.0786 76.9711 43.1166 76.874C43.1546 76.7769 43.173 76.6728 43.1705 76.5682Z" fill="white"/>
<path d="M45.6056 75.5581V77.6077H45.3706L44.1744 76.0778V77.6077H43.8896V75.5581H44.1246L45.3208 77.0843V75.5581H45.6056Z" fill="white"/>
<path d="M46.5986 75.796H45.915V75.5581H47.5562V75.8106H46.8798V77.6077H46.5986V75.796Z" fill="white"/>
<path d="M47.873 75.5581H48.1578V77.6077H47.873V75.5581Z" fill="white"/>
<path d="M50.4718 75.5581V77.6077H50.2368L49.0407 76.0778V77.6077H48.7559V75.5581H48.9801L50.1763 77.0843V75.5581H50.4718Z" fill="white"/>
<path d="M51.0522 76.7074V75.5581H51.337V76.711C51.337 77.1648 51.54 77.3698 51.8995 77.3698C52.2591 77.3698 52.462 77.1648 52.462 76.711V75.5581H52.7397V76.722C52.7397 76.952 52.6508 77.1727 52.4926 77.3353C52.3343 77.498 52.1197 77.5894 51.896 77.5894C51.6722 77.5894 51.4576 77.498 51.2994 77.3353C51.1411 77.1727 51.0522 76.952 51.0522 76.722V76.7074Z" fill="white"/>
<path d="M54.7686 77.3369V77.5931H53.3232V75.5581H54.7472V75.8106H53.608V76.4402H54.6048V76.689H53.608V77.3515L54.7686 77.3369Z" fill="white"/>
<path opacity="0.1" d="M81.5508 29.2661C69.906 41.2599 39.9985 67.956 6.11084 65.9796V29.2661H81.5508Z" fill="white"/>
<path opacity="0.1" d="M90.326 51.3107V86.7212H39.6245C41.5683 79.5695 45.4558 69.7754 52.9959 62.7774C66.5595 50.187 82.3018 50.2236 90.326 51.3107Z" fill="white"/>
<path d="M101.038 23.6191L102.22 28.9847L103.402 23.6191H101.038Z" fill="#5649A5"/>
<path opacity="0.7" d="M101.038 23.6191L102.22 28.9847L103.402 23.6191H101.038Z" fill="white"/>
<path d="M115.449 8.42627H88.9946C87.3057 8.42627 85.9365 9.83386 85.9365 11.5702V21.6645C85.9365 23.4008 87.3057 24.8084 88.9946 24.8084H115.449C117.138 24.8084 118.507 23.4008 118.507 21.6645V11.5702C118.507 9.83386 117.138 8.42627 115.449 8.42627Z" fill="#5649A5"/>
<path opacity="0.7" d="M115.449 8.42627H88.9946C87.3057 8.42627 85.9365 9.83386 85.9365 11.5702V21.6645C85.9365 23.4008 87.3057 24.8084 88.9946 24.8084H115.449C117.138 24.8084 118.507 23.4008 118.507 21.6645V11.5702C118.507 9.83386 117.138 8.42627 115.449 8.42627Z" fill="white"/>
<g opacity="0.5">
<path d="M92.4407 14.4362V15.1426H92.1595V14.4362L91.3691 13.104H91.6753L92.3125 14.202L92.9533 13.104H93.2346L92.4407 14.4362Z" fill="#263238"/>
<path d="M93.1707 14.3704C93.1679 14.2098 93.2116 14.052 93.2964 13.9171C93.3811 13.7822 93.5029 13.6762 93.6464 13.6127C93.7899 13.5493 93.9485 13.5311 94.1021 13.5607C94.2556 13.5902 94.3971 13.6661 94.5086 13.7786C94.62 13.8911 94.6964 14.0352 94.7279 14.1925C94.7595 14.3498 94.7447 14.5131 94.6856 14.6618C94.6265 14.8105 94.5257 14.9377 94.396 15.0272C94.2664 15.1167 94.1137 15.1646 93.9575 15.1646C93.8541 15.1697 93.7508 15.1527 93.654 15.1148C93.5573 15.0769 93.4692 15.0188 93.3953 14.9443C93.3214 14.8697 93.2633 14.7802 93.2247 14.6814C93.186 14.5827 93.1677 14.4768 93.1707 14.3704ZM94.463 14.3704C94.4689 14.2982 94.4602 14.2256 94.4373 14.1571C94.4145 14.0886 94.3781 14.0257 94.3304 13.9724C94.2827 13.9191 94.2248 13.8765 94.1603 13.8474C94.0958 13.8183 94.0262 13.8033 93.9557 13.8033C93.8853 13.8033 93.8156 13.8183 93.7511 13.8474C93.6866 13.8765 93.6287 13.9191 93.581 13.9724C93.5333 14.0257 93.4969 14.0886 93.4741 14.1571C93.4513 14.2256 93.4425 14.2982 93.4484 14.3704C93.4425 14.4425 93.4513 14.5152 93.4741 14.5837C93.4969 14.6522 93.5333 14.7151 93.581 14.7684C93.6287 14.8217 93.6866 14.8642 93.7511 14.8934C93.8156 14.9225 93.8853 14.9375 93.9557 14.9375C94.0262 14.9375 94.0958 14.9225 94.1603 14.8934C94.2248 14.8642 94.2827 14.8217 94.3304 14.7684C94.3781 14.7151 94.4145 14.6522 94.4373 14.5837C94.4602 14.5152 94.4689 14.4425 94.463 14.3704Z" fill="#263238"/>
<path d="M96.5239 13.5942V15.1461H96.2675V14.9118C96.2083 14.9934 96.1307 15.059 96.0414 15.103C95.9522 15.147 95.8538 15.168 95.7549 15.1644C95.6665 15.1737 95.5772 15.1626 95.4935 15.1317C95.4098 15.1009 95.334 15.0512 95.2715 14.9862C95.209 14.9212 95.1614 14.8427 95.1323 14.7564C95.1033 14.67 95.0934 14.5781 95.1034 14.4873V13.5942H95.3775V14.458C95.3775 14.7618 95.5271 14.9118 95.7869 14.9118C95.8521 14.9162 95.9174 14.9057 95.9781 14.881C96.0388 14.8563 96.0934 14.8181 96.138 14.769C96.1826 14.72 96.2161 14.6615 96.236 14.5976C96.256 14.5336 96.2619 14.466 96.2533 14.3994V13.5942H96.5239Z" fill="#263238"/>
<path d="M97.8588 13.5796V13.8541H97.7948C97.7283 13.8497 97.6618 13.8605 97.5999 13.8858C97.5381 13.911 97.4825 13.9501 97.4371 14.0002C97.3918 14.0503 97.3579 14.1102 97.3379 14.1755C97.3178 14.2407 97.3122 14.3097 97.3213 14.3775V15.1498H97.04V13.5943H97.3035V13.8578C97.3605 13.7617 97.4432 13.6845 97.5416 13.6352C97.64 13.5859 97.7501 13.5666 97.8588 13.5796Z" fill="#263238"/>
<path d="M98.8594 14.1212C98.8502 13.9022 98.9049 13.6855 99.0165 13.4987C99.1281 13.312 99.2915 13.1639 99.4856 13.0735C99.6798 12.983 99.8958 12.9544 100.106 12.9912C100.316 13.0281 100.511 13.1287 100.665 13.2802C100.819 13.4317 100.925 13.6271 100.97 13.8413C101.015 14.0555 100.997 14.2786 100.918 14.482C100.838 14.6855 100.702 14.8598 100.525 14.9827C100.349 15.1056 100.141 15.1714 99.9274 15.1716C99.789 15.1796 99.6505 15.1583 99.5205 15.109C99.3904 15.0597 99.2716 14.9834 99.1715 14.8849C99.0713 14.7864 98.9919 14.6678 98.9382 14.5364C98.8846 14.405 98.8577 14.2637 98.8594 14.1212ZM100.693 14.1212C100.695 13.9628 100.651 13.8073 100.567 13.6746C100.483 13.5418 100.362 13.4379 100.22 13.3759C100.079 13.3139 99.922 13.2968 99.7707 13.3266C99.6193 13.3564 99.48 13.4319 99.3706 13.5434C99.2611 13.6549 99.1864 13.7974 99.156 13.9527C99.1256 14.108 99.1408 14.2691 99.1998 14.4155C99.2587 14.5619 99.3587 14.6869 99.4871 14.7746C99.6154 14.8623 99.7662 14.9088 99.9203 14.9081C100.022 14.9116 100.123 14.8937 100.218 14.8555C100.313 14.8173 100.399 14.7596 100.472 14.6859C100.544 14.6122 100.601 14.5241 100.639 14.427C100.677 14.3299 100.695 14.2258 100.693 14.1212Z" fill="#263238"/>
<path d="M101.782 13.338H101.099V13.0854H102.736V13.338H102.053V15.1314H101.771L101.782 13.338Z" fill="#263238"/>
<path d="M104.666 13.8138C104.666 14.2567 104.352 14.5275 103.833 14.5275H103.341V15.146H103.057V13.1001H103.833C104.352 13.1001 104.666 13.3673 104.666 13.8138ZM104.381 13.8138C104.381 13.521 104.189 13.3526 103.826 13.3526H103.341V14.2713H103.826C104.189 14.2713 104.381 14.1066 104.381 13.8138Z" fill="#263238"/>
<path d="M105.716 14.1213C105.725 13.9094 105.794 13.705 105.915 13.5327C106.035 13.3603 106.201 13.2274 106.393 13.15C106.585 13.0726 106.794 13.054 106.997 13.0965C107.199 13.1389 107.384 13.2406 107.531 13.3893L107.346 13.5759C107.275 13.4962 107.188 13.4332 107.091 13.3909C106.994 13.3486 106.889 13.3281 106.784 13.3307C106.581 13.3307 106.386 13.4136 106.243 13.5612C106.099 13.7087 106.018 13.9089 106.018 14.1176C106.018 14.3263 106.099 14.5264 106.243 14.674C106.386 14.8216 106.581 14.9045 106.784 14.9045C106.889 14.9071 106.994 14.8866 107.091 14.8443C107.188 14.802 107.275 14.7389 107.346 14.6593L107.531 14.8459C107.384 14.9946 107.199 15.0963 106.997 15.1387C106.794 15.1812 106.585 15.1626 106.393 15.0852C106.201 15.0078 106.035 14.8749 105.915 14.7025C105.794 14.5302 105.725 14.3257 105.716 14.1139V14.1213Z" fill="#263238"/>
<path d="M107.695 14.3704C107.692 14.2098 107.736 14.052 107.821 13.9171C107.905 13.7822 108.027 13.6762 108.171 13.6127C108.314 13.5493 108.473 13.5311 108.626 13.5607C108.78 13.5902 108.922 13.6661 109.033 13.7786C109.144 13.8911 109.221 14.0352 109.252 14.1925C109.284 14.3498 109.269 14.5131 109.21 14.6618C109.151 14.8105 109.05 14.9377 108.92 15.0272C108.791 15.1167 108.638 15.1646 108.482 15.1646C108.378 15.1697 108.275 15.1527 108.178 15.1148C108.082 15.0769 107.994 15.0188 107.92 14.9443C107.846 14.8697 107.788 14.7802 107.749 14.6814C107.71 14.5827 107.692 14.4768 107.695 14.3704ZM108.987 14.3704C108.993 14.2982 108.985 14.2256 108.962 14.1571C108.939 14.0886 108.903 14.0257 108.855 13.9724C108.807 13.9191 108.749 13.8765 108.685 13.8474C108.62 13.8183 108.551 13.8033 108.48 13.8033C108.41 13.8033 108.34 13.8183 108.276 13.8474C108.211 13.8765 108.153 13.9191 108.105 13.9724C108.058 14.0257 108.021 14.0886 107.999 14.1571C107.976 14.2256 107.967 14.2982 107.973 14.3704C107.967 14.4425 107.976 14.5152 107.999 14.5837C108.021 14.6522 108.058 14.7151 108.105 14.7684C108.153 14.8217 108.211 14.8642 108.276 14.8934C108.34 14.9225 108.41 14.9375 108.48 14.9375C108.551 14.9375 108.62 14.9225 108.685 14.8934C108.749 14.8642 108.807 14.8217 108.855 14.7684C108.903 14.7151 108.939 14.6522 108.962 14.5837C108.985 14.5152 108.993 14.4425 108.987 14.3704Z" fill="#263238"/>
<path d="M111.067 12.9722V15.1425H110.807V14.8973C110.745 14.9827 110.663 15.0513 110.57 15.0972C110.476 15.1431 110.373 15.1649 110.269 15.1608C110.074 15.1472 109.891 15.0578 109.757 14.9107C109.624 14.7636 109.549 14.5698 109.549 14.3685C109.549 14.1671 109.624 13.9733 109.757 13.8262C109.891 13.6791 110.074 13.5897 110.269 13.5761C110.37 13.5729 110.47 13.5937 110.561 13.6369C110.653 13.6801 110.733 13.7445 110.796 13.8249V12.9722H111.067ZM110.796 14.3666C110.791 14.2642 110.757 14.1655 110.698 14.0828C110.639 14.0001 110.558 13.937 110.465 13.9014C110.371 13.8658 110.269 13.8593 110.172 13.8826C110.075 13.9058 109.987 13.958 109.918 14.0324C109.85 14.1069 109.804 14.2005 109.786 14.3015C109.769 14.4025 109.781 14.5065 109.821 14.6005C109.86 14.6946 109.926 14.7746 110.01 14.8307C110.093 14.8867 110.191 14.9162 110.291 14.9156C110.36 14.9173 110.428 14.9042 110.492 14.8771C110.556 14.8499 110.613 14.8094 110.661 14.758C110.709 14.7067 110.745 14.6456 110.769 14.5789C110.792 14.5121 110.801 14.441 110.796 14.3703V14.3666Z" fill="#263238"/>
<path d="M112.943 14.4652H111.721C111.738 14.5982 111.804 14.7195 111.906 14.8039C112.007 14.8884 112.136 14.9296 112.266 14.9191C112.347 14.9221 112.428 14.9069 112.503 14.8747C112.578 14.8425 112.645 14.7939 112.7 14.7324L112.854 14.9118C112.742 15.028 112.6 15.1085 112.445 15.1436C112.29 15.1788 112.128 15.167 111.98 15.1097C111.831 15.0524 111.701 14.9521 111.607 14.8208C111.513 14.6896 111.457 14.533 111.447 14.3701C111.443 14.2661 111.46 14.1624 111.497 14.0654C111.533 13.9684 111.589 13.8801 111.66 13.806C111.731 13.7319 111.816 13.6736 111.91 13.6347C112.004 13.5957 112.104 13.5769 112.206 13.5795C112.308 13.5743 112.41 13.5918 112.505 13.6307C112.6 13.6697 112.685 13.7292 112.756 13.8052C112.827 13.8813 112.88 13.9721 112.914 14.0715C112.947 14.1708 112.959 14.2764 112.95 14.3811C112.949 14.4092 112.946 14.4373 112.943 14.4652ZM111.721 14.2639H112.704C112.694 14.1398 112.638 14.0241 112.549 13.9398C112.46 13.8556 112.343 13.8088 112.222 13.8088C112.1 13.8088 111.984 13.8556 111.894 13.9398C111.805 14.0241 111.75 14.1398 111.739 14.2639H111.721Z" fill="#263238"/>
</g>
<g opacity="0.5">
<path d="M98.108 18.352C98.108 19.5049 97.4778 20.1198 96.5558 20.1198C96.2718 20.1301 95.9902 20.0619 95.7406 19.9221L95.9186 19.5561C96.1112 19.6688 96.3308 19.7234 96.5522 19.7135C97.218 19.7135 97.6416 19.2853 97.6416 18.4398V18.3227C97.5316 18.4711 97.3875 18.5892 97.2223 18.6665C97.057 18.7438 96.8758 18.7778 96.6946 18.7656C96.5544 18.7814 96.4125 18.7669 96.278 18.723C96.1435 18.679 96.0195 18.6067 95.9139 18.5105C95.8082 18.4143 95.7234 18.2964 95.6647 18.1645C95.606 18.0326 95.5749 17.8895 95.5732 17.7444C95.5766 17.5947 95.6098 17.4472 95.6706 17.3112C95.7315 17.1751 95.8188 17.0532 95.9272 16.9531C96.0356 16.853 96.1627 16.7768 96.3008 16.7291C96.4389 16.6813 96.5851 16.6632 96.7302 16.6757C97.6096 16.6684 98.108 17.276 98.108 18.352ZM97.5277 17.7298C97.5277 17.3821 97.2571 17.0783 96.7445 17.0783C96.655 17.0686 96.5644 17.0783 96.4788 17.1067C96.3931 17.1352 96.3142 17.1818 96.2471 17.2435C96.18 17.3052 96.1263 17.3807 96.0893 17.4651C96.0523 17.5495 96.033 17.6409 96.0325 17.7335C96.0325 18.1287 96.3173 18.3849 96.7765 18.3849C96.868 18.3945 96.9605 18.3849 97.0483 18.3569C97.1361 18.3288 97.2175 18.2828 97.2877 18.2217C97.3578 18.1605 97.4152 18.0854 97.4565 18.0009C97.4977 17.9164 97.5219 17.8242 97.5277 17.7298Z" fill="#263238"/>
<path d="M98.5566 18.396C98.5566 17.298 99.1298 16.6685 99.8988 16.6685C100.668 16.6685 101.234 17.298 101.234 18.396C101.234 19.494 100.661 20.1198 99.8988 20.1198C99.1369 20.1198 98.5566 19.494 98.5566 18.396ZM100.764 18.396C100.764 17.5322 100.408 17.1003 99.8988 17.1003C99.3897 17.1003 99.0266 17.5322 99.0266 18.396C99.0266 19.2597 99.3826 19.6916 99.8988 19.6916C100.415 19.6916 100.764 19.2597 100.764 18.396Z" fill="#263238"/>
<path d="M103.978 19.6622V20.0831H101.618V19.7537L102.957 18.4288C103.313 18.0811 103.366 17.8688 103.366 17.6566C103.366 17.3125 103.128 17.1002 102.654 17.1002C102.497 17.0907 102.339 17.1188 102.194 17.1823C102.049 17.2458 101.92 17.343 101.817 17.4662L101.497 17.1808C101.648 17.0093 101.833 16.8744 102.041 16.7858C102.248 16.6972 102.472 16.6571 102.697 16.6684C103.38 16.6684 103.822 17.0344 103.822 17.609C103.816 17.8163 103.765 18.0196 103.672 18.2035C103.579 18.3874 103.446 18.5471 103.284 18.6704L102.28 19.6622H103.978Z" fill="#263238"/>
<path d="M105.381 16.7085V20.083H104.915V17.1294H104.16V16.7085H105.381Z" fill="#263238"/>
<path d="M106.097 18.396C106.097 17.298 106.67 16.6685 107.439 16.6685C108.208 16.6685 108.774 17.298 108.774 18.396C108.774 19.494 108.204 20.1198 107.439 20.1198C106.673 20.1198 106.097 19.494 106.097 18.396ZM108.307 18.396C108.307 17.5322 107.951 17.1003 107.439 17.1003C106.926 17.1003 106.567 17.5322 106.567 18.396C106.567 19.2597 106.923 19.6916 107.439 19.6916C107.955 19.6916 108.307 19.2597 108.307 18.396Z" fill="#263238"/>
</g>
<path d="M99.2933 39.357C101.418 40.869 103.796 41.9669 106.306 42.5961H106.331C106.143 42.5906 105.958 42.6442 105.801 42.7498C105.646 42.8493 105.522 42.993 105.445 43.1634C105.419 43.2157 105.404 43.2731 105.402 43.3318C105.459 42.5632 105.135 41.6994 104.907 40.8686C104.498 39.5547 104.017 38.2078 103.537 36.8865L104.911 36.1289C106.047 37.9186 109.838 43.5843 107.25 45.224C106.806 45.49 106.282 45.5762 105.78 45.4656C102.96 45.0361 100.27 43.9577 97.912 42.3106C97.7482 42.1935 97.6058 42.091 97.4136 41.9446L99.3004 39.3497L99.2933 39.357Z" fill="#DC897C"/>
<path d="M98.8949 38.9583C100.141 39.1128 101.325 39.6068 102.323 40.3893L100.899 44.9204C100.899 44.9204 93.9785 38.3617 98.8949 38.9583Z" fill="#5649A5"/>
<path opacity="0.6" d="M98.8806 42.7684C99.5141 43.5144 100.184 44.2266 100.888 44.9022L101.476 43.0393L102.323 40.3711C101.326 39.5892 100.144 39.0952 98.8984 38.9401C95.8724 38.5924 97.3178 40.9201 98.8806 42.7684Z" fill="white"/>
<path opacity="0.2" d="M98.8805 42.7682C99.5141 43.5141 100.184 44.2263 100.888 44.902L101.476 43.039C100.737 42.4473 99.8277 42.1254 98.8912 42.124C98.87 42.338 98.8664 42.5535 98.8805 42.7682Z" fill="black"/>
<path d="M83.5119 32.2568C83.5119 32.2568 80.2011 43.5736 87.1751 45.0925C94.1492 46.6114 94.9039 41.4032 94.9039 41.4032C94.9039 41.4032 89.1723 32.4874 83.5119 32.2568Z" fill="#263238"/>
<path d="M81.8778 36.0044C81.865 36.0082 81.8514 36.0082 81.8386 36.0044C81.8286 35.9994 81.8196 35.9923 81.8123 35.9836C81.805 35.9749 81.7995 35.9647 81.7962 35.9537C81.7929 35.9428 81.7918 35.9312 81.7929 35.9198C81.7941 35.9083 81.7976 35.8973 81.8031 35.8873C81.9072 35.692 82.054 35.5242 82.2319 35.3972C82.4098 35.2702 82.614 35.1874 82.8283 35.1553C82.8505 35.156 82.8717 35.1649 82.888 35.1804C82.9044 35.1958 82.9148 35.2168 82.9173 35.2395C82.9183 35.251 82.917 35.2626 82.9136 35.2737C82.9102 35.2847 82.9047 35.2949 82.8974 35.3038C82.8901 35.3126 82.8812 35.3199 82.8712 35.3252C82.8612 35.3305 82.8502 35.3337 82.839 35.3346C82.6534 35.3658 82.4771 35.44 82.3235 35.5516C82.1699 35.6632 82.0431 35.8093 81.9526 35.9788C81.9434 35.9895 81.9317 35.9975 81.9185 36.002C81.9054 36.0065 81.8914 36.0073 81.8778 36.0044Z" fill="#263238"/>
<path d="M82.8748 37.4102C82.8301 37.8513 82.7333 38.2851 82.5864 38.7021C82.6968 38.7698 82.8228 38.8056 82.9513 38.8056C83.0798 38.8056 83.2059 38.7698 83.3162 38.7021L82.8748 37.4102Z" fill="#DE5753"/>
<path d="M82.202 36.9158C82.2768 37.1171 82.4441 37.2379 82.558 37.1866C82.6719 37.1354 82.736 36.9341 82.6613 36.7328C82.5865 36.5315 82.4192 36.4107 82.3053 36.462C82.1913 36.5132 82.1308 36.7145 82.202 36.9158Z" fill="#263238"/>
<path d="M82.3622 36.4512H81.8745C81.8745 36.4512 82.2234 36.7293 82.3622 36.4512Z" fill="#263238"/>
<path d="M89.2901 38.8154C89.2779 38.8482 89.2611 38.879 89.2403 38.9069C89.2082 38.9691 89.1726 39.0276 89.137 39.0899C88.9284 39.4756 88.6506 39.8171 88.3182 40.0964C87.2502 40.9711 86.3211 41.2346 85.5129 40.9821L85.3955 40.9418C84.1957 40.4404 83.2595 38.9654 82.5154 37.0146C82.1852 36.2513 81.9773 35.438 81.8995 34.6064C81.8995 34.6064 81.8995 34.5771 81.8995 34.5698C81.8995 34.5624 81.8995 34.5039 81.8995 34.4746C81.8717 33.998 81.96 33.5217 82.1565 33.0891C82.3529 32.6564 82.6513 32.281 83.0245 31.9968C83.3436 31.7393 83.6899 31.5195 84.0569 31.3416C87.6133 29.5592 91.0737 35.364 89.2901 38.8154Z" fill="#E4897B"/>
<path opacity="0.2" d="M89.1368 39.0897C88.9282 39.4754 88.6503 39.817 88.318 40.0962C87.25 40.971 86.3208 41.2345 85.5127 40.982C86.2985 40.7862 87.0061 40.3451 87.5383 39.7193C87.7438 39.5005 87.9934 39.3308 88.2696 39.222C88.5457 39.1133 88.8418 39.0681 89.1368 39.0897Z" fill="black"/>
<path d="M81.8815 34.5843C81.8815 34.5843 82.8747 37.2707 85.7761 37.2231C85.7761 37.2231 88.0403 39.4191 89.5675 38.7201C91.6501 37.7721 92.0773 33.8779 89.9556 31.1585C87.2001 27.6303 81.1909 30.174 81.8815 34.5843Z" fill="#263238"/>
<path d="M84.224 37.0698C84.0389 36.6635 84.0425 35.8327 84.6939 35.6278C85.3454 35.4228 86.4739 36.8466 85.0713 37.9592C84.8719 38.1202 84.6085 37.9116 84.224 37.0698Z" fill="#E4897B"/>
<path d="M85.0037 29.6948C85.0037 29.6948 82.3124 30.2401 81.4437 31.8908C80.4256 33.8086 80.3757 35.2946 83.0813 36.2828C83.0813 36.2828 86.5025 32.9888 87.9763 32.6228C88.8352 32.4037 89.7105 32.2592 90.5929 32.1909C89.6104 29.2665 86.0895 28.4833 85.0037 29.6948Z" fill="#263238"/>
<path d="M87.613 40.1659C87.613 40.1659 89.4642 41.4834 89.9448 43.6575L95.7156 40.1951C95.7156 40.1951 91.1979 39.1374 90.4219 37.3403C90.4219 37.3403 87.403 37.7246 87.613 40.1659Z" fill="#E4897B"/>
<path d="M93.3445 54.4217C93.3445 54.4217 85.8685 46.8711 85.064 44.4995C85.064 44.4995 88.2074 39.467 94.4908 39.2547C100.774 39.0424 105.05 51.3327 105.05 51.3327L93.3445 54.4217Z" fill="#5649A5"/>
<path opacity="0.6" d="M105.05 51.3361L93.3484 54.4251C93.3484 54.4251 91.718 52.7745 89.8952 50.7651C89.3328 50.1393 88.7453 49.4805 88.1793 48.829C86.6948 47.0978 85.3847 45.4069 85.0679 44.4882C85.0679 44.4882 88.2078 39.4557 94.4912 39.2434C100.775 39.0312 105.05 51.3361 105.05 51.3361Z" fill="white"/>
<path d="M86.3598 35.935C86.3598 35.935 87.4527 39.6682 91.2904 40.9053C95.1281 42.1424 94.1633 46.172 97.8835 45.6962C99.8629 45.4437 101.557 41.3042 95.4876 37.6442C91.949 35.5178 93.3231 28.5272 85.8115 29.1823C85.8044 29.186 87.3637 33.9769 86.3598 35.935Z" fill="#263238"/>
<path d="M90.0871 111.327L88.3071 110.91C88.5741 101.76 89.8593 90.6959 90.9949 82.384C91.1729 81.0811 91.3509 79.8513 91.5147 78.7021C91.5966 78.1567 91.6713 77.6333 91.7461 77.1283C92.1021 74.6358 92.4296 72.6667 92.6254 71.4479C92.7714 70.5585 92.8532 70.0718 92.8532 70.0718L99.2612 71.6785L98.802 73.3402L97.289 78.8302L97.1181 79.456L96.1142 83.0758L94.4125 89.2355C94.5193 98.5356 90.0871 111.327 90.0871 111.327Z" fill="#E4897B"/>
<path d="M105.324 109.797L103.501 109.702C102.113 99.8641 101.529 87.5592 101.276 79.0058C101.241 77.6808 101.209 76.4438 101.184 75.3165C101.184 75.2616 101.184 75.2067 101.184 75.1518C101.138 72.9228 101.116 71.1514 101.105 70.0278C101.105 69.1494 101.105 68.6699 101.105 68.6699L107.681 69.1128L107.4 71.931L106.987 76.0668L106.905 76.8793L106.62 79.6975L105.851 87.27C107.531 96.42 105.324 109.797 105.324 109.797Z" fill="#E4897B"/>
<path d="M106.008 109.431C106.008 109.197 103.195 109.38 103.195 109.38C103.195 109.38 101.469 111.184 99.7921 111.576C98.1153 111.968 99.0552 113.018 100.928 113.018H105.556C106.894 113.033 106.061 111.865 106.008 109.431Z" fill="#263238"/>
<path d="M101.472 110.05C101.432 110.012 101.403 109.962 101.391 109.907C101.379 109.852 101.384 109.795 101.405 109.743C101.416 109.702 101.435 109.663 101.46 109.63C101.486 109.597 101.518 109.569 101.554 109.549C101.754 109.465 101.972 109.44 102.184 109.475C101.957 109.351 101.757 109.201 101.746 109.047C101.746 108.948 101.803 108.868 101.932 108.806C101.988 108.78 102.048 108.766 102.11 108.766C102.171 108.766 102.232 108.78 102.288 108.806C102.669 108.97 102.903 109.644 102.914 109.669C102.922 109.688 102.922 109.709 102.914 109.728V109.746C102.907 109.754 102.899 109.761 102.889 109.765C102.526 109.956 102.133 110.08 101.729 110.131C101.637 110.137 101.545 110.108 101.472 110.05ZM101.629 109.684C101.61 109.694 101.592 109.708 101.578 109.725C101.564 109.742 101.554 109.762 101.547 109.783C101.519 109.896 101.547 109.926 101.547 109.937C101.682 110.05 102.195 109.889 102.615 109.71C102.295 109.606 101.954 109.596 101.629 109.68V109.684ZM101.985 108.952C101.946 108.952 101.882 109.007 101.885 109.047C101.885 109.175 102.295 109.413 102.708 109.563C102.616 109.31 102.447 109.093 102.227 108.945C102.191 108.928 102.153 108.919 102.113 108.919C102.073 108.919 102.033 108.928 101.996 108.945L101.985 108.952Z" fill="#263238"/>
<path d="M90.9878 109.431C90.9878 109.197 88.1789 109.38 88.1789 109.38C88.1789 109.38 86.4523 111.184 84.7756 111.576C83.0988 111.968 84.0351 113.018 85.9077 113.018H90.5357C91.8778 113.033 91.0483 111.865 90.9878 109.431Z" fill="#263238"/>
<path d="M86.4559 110.05C86.4161 110.012 86.3884 109.962 86.3764 109.907C86.3643 109.852 86.3685 109.795 86.3883 109.743C86.3993 109.702 86.4183 109.663 86.444 109.63C86.4696 109.597 86.5015 109.569 86.5378 109.549C86.7373 109.465 86.9553 109.44 87.1679 109.475C86.9401 109.351 86.7407 109.201 86.7336 109.047C86.7336 108.95 86.7941 108.869 86.9152 108.806C86.9711 108.78 87.0318 108.766 87.0932 108.766C87.1546 108.766 87.2153 108.78 87.2712 108.806C87.6521 108.97 87.887 109.644 87.8977 109.669C87.9021 109.679 87.9044 109.689 87.9044 109.699C87.9044 109.709 87.9021 109.719 87.8977 109.728C87.8977 109.728 87.8977 109.728 87.8977 109.746L87.8728 109.765C87.5084 109.955 87.1144 110.079 86.7087 110.131C86.6178 110.135 86.5283 110.107 86.4559 110.05ZM86.6126 109.684C86.5937 109.694 86.577 109.708 86.5635 109.725C86.55 109.742 86.5401 109.762 86.5342 109.783C86.5058 109.896 86.5342 109.926 86.552 109.937C86.6838 110.05 87.1964 109.889 87.62 109.71C87.2937 109.602 86.9443 109.592 86.6126 109.68V109.684ZM86.9686 108.952C86.9294 108.952 86.8653 109.007 86.8689 109.047C86.8689 109.175 87.2783 109.413 87.6948 109.563C87.6014 109.309 87.4318 109.093 87.2106 108.945C87.1751 108.927 87.1361 108.918 87.0967 108.919C87.0562 108.919 87.0162 108.928 86.9792 108.945L86.9686 108.952Z" fill="#263238"/>
<path d="M91.8281 72.824L93.3447 61.844V54.4142C97.3426 51.3252 105.05 51.3252 105.05 51.3252C105.05 51.3252 110.97 59.7688 108.094 73.6512L100.66 74.7492L100.187 72.1579L99.2543 74.7492L91.8281 72.824Z" fill="#263238"/>
<path opacity="0.2" d="M91.8281 72.824L93.3447 61.844V54.4142C97.3426 51.3252 105.05 51.3252 105.05 51.3252C105.05 51.3252 110.97 59.7688 108.094 73.6512L100.66 74.7492L100.187 72.1579L99.2543 74.7492L91.8281 72.824Z" fill="white"/>
<path opacity="0.2" d="M100.187 72.1982L101.611 67.6269C101.611 67.6269 103.113 67.1584 105.043 64.0913C105.05 64.0913 104.715 69.3105 100.187 72.1982Z" fill="black"/>
<path opacity="0.2" d="M97.0186 56.5259L100.354 56.2002C100.887 57.4823 101.071 58.8888 100.888 60.2701L98.7523 61.5914L97.2037 60.4604C97.2037 60.4604 97.1538 57.5581 97.0186 56.5259Z" fill="black"/>
<path opacity="0.2" d="M105.05 55.6878C105.497 56.8189 105.828 57.9954 106.036 59.1977L107.218 59.7138L107.855 58.8976C107.855 58.8976 107.424 56.5076 106.695 55.3364L105.05 55.6878Z" fill="black"/>
<path d="M91.6895 72.1982L99.5785 74.5772L99.0836 75.6679L91.5898 73.2962L91.6895 72.1982Z" fill="#263238"/>
<path d="M100.354 74.4199L100.486 75.4228L108.222 74.4199L108.34 73.1572L100.354 74.4199Z" fill="#263238"/>
<path d="M101.978 52.866C103.243 52.6463 104.522 52.5179 105.805 52.4817L105.328 51.6729C104.08 51.639 102.832 51.7149 101.597 51.8998L101.978 52.866Z" fill="#263238"/>
<path d="M94.8826 53.8618C93.8608 54.3157 93.2734 54.656 93.2734 54.656V55.6552C93.8478 55.3575 94.4233 55.0855 95 54.839L94.8826 53.8618Z" fill="#263238"/>
<path d="M95.374 54.6959C97.3528 53.8984 99.4057 53.3109 101.501 52.9428L101.145 51.9692C99.1138 52.3174 97.1285 52.9044 95.228 53.7187L95.374 54.6959Z" fill="#263238"/>
<path d="M73.9855 57.5547L71.9634 56.7202L71.6074 58.682C71.6074 58.682 73.4301 59.8166 74.192 58.466L73.9855 57.5547Z" fill="#E4897B"/>
<path d="M70.9594 56.841L70.3115 58.3562L71.6216 58.682L71.9634 56.7202L70.9594 56.841Z" fill="#E4897B"/>
<path d="M105.018 36.4694L104.78 34.2441L102.936 34.859C102.936 34.859 102.822 37.055 104.342 37.0989L105.018 36.4694Z" fill="#E4897B"/>
<path d="M104.199 33.3911L102.594 33.5229L102.936 34.8588L104.78 34.2439L104.199 33.3911Z" fill="#E4897B"/>
<path opacity="0.2" d="M89.8952 50.7765C89.3327 50.1506 88.7453 49.4918 88.1792 48.8403C87.9621 47.4788 87.8232 46.2783 87.8232 46.2783C88.5013 46.7955 89.0451 47.4764 89.4065 48.261C89.7678 49.0455 89.9357 49.9094 89.8952 50.7765Z" fill="black"/>
<path d="M88.0296 45.6485C87.2142 49.0283 85.9832 52.2876 84.3664 55.3475C82.7644 58.4768 76.6732 58.8537 73.6116 58.9343L73.4692 57.3385C75.3133 56.892 81.0449 55.7171 81.8281 54.0079C83.1067 51.0466 84.1589 47.9873 84.9752 44.8579L88.0296 45.6411V45.6485Z" fill="#DC897C"/>
<path d="M86.2854 42.889C84.5446 44.0602 83.6119 47.1053 83.3164 48.5949L86.9334 51.3326L88.7596 49.5026C89.5001 45.3009 86.9476 42.4461 86.2854 42.889Z" fill="#5649A5"/>
<path opacity="0.6" d="M86.2854 42.889C84.5446 44.0602 83.6119 47.1053 83.3164 48.5949L86.9334 51.3326L88.7596 49.5026C89.5001 45.3009 86.9476 42.4461 86.2854 42.889Z" fill="white"/>
<path d="M103.943 37.1832L101.358 37.4686C101.322 37.4697 101.285 37.463 101.252 37.4489C101.218 37.4349 101.187 37.4138 101.162 37.3869C101.136 37.3601 101.117 37.3281 101.104 37.2931C101.091 37.258 101.085 37.2206 101.087 37.1832L100.931 31.5578C100.926 31.4782 100.949 31.3996 100.996 31.3363C101.043 31.273 101.111 31.2295 101.187 31.2137L103.768 30.9319C103.805 30.9303 103.841 30.9366 103.875 30.9504C103.909 30.9643 103.94 30.9854 103.966 31.0124C103.991 31.0393 104.011 31.0715 104.023 31.1068C104.036 31.1422 104.041 31.1798 104.039 31.2174L104.195 36.8428C104.2 36.9214 104.178 36.9991 104.131 37.0617C104.085 37.1243 104.018 37.1674 103.943 37.1832Z" fill="#263238"/>
<path opacity="0.6" d="M103.943 37.1832L101.358 37.4686C101.322 37.4697 101.285 37.463 101.252 37.4489C101.218 37.4349 101.187 37.4138 101.162 37.3869C101.136 37.3601 101.117 37.3281 101.104 37.2931C101.091 37.258 101.085 37.2206 101.087 37.1832L100.931 31.5578C100.926 31.4782 100.949 31.3996 100.996 31.3363C101.043 31.273 101.111 31.2295 101.187 31.2137L103.768 30.9319C103.805 30.9303 103.841 30.9366 103.875 30.9504C103.909 30.9643 103.94 30.9854 103.966 31.0124C103.991 31.0393 104.011 31.0715 104.023 31.1068C104.036 31.1422 104.041 31.1798 104.039 31.2174L104.195 36.8428C104.2 36.9214 104.178 36.9991 104.131 37.0617C104.085 37.1243 104.018 37.1674 103.943 37.1832Z" fill="white"/>
<path d="M103.715 37.2086L101.134 37.4904C101.097 37.4925 101.061 37.4867 101.027 37.4732C100.992 37.4598 100.961 37.4391 100.935 37.4125C100.91 37.3859 100.889 37.354 100.876 37.3189C100.863 37.2837 100.858 37.2461 100.86 37.2086L100.707 31.5795C100.7 31.5006 100.722 31.422 100.769 31.3591C100.816 31.2961 100.884 31.2534 100.959 31.2391L103.54 30.9573C103.577 30.9557 103.613 30.9619 103.647 30.9756C103.68 30.9892 103.711 31.01 103.736 31.0365C103.762 31.0631 103.782 31.0948 103.795 31.1297C103.807 31.1646 103.813 31.2019 103.811 31.2391L103.968 36.8682C103.974 36.9471 103.952 37.0256 103.905 37.0886C103.859 37.1515 103.791 37.1943 103.715 37.2086Z" fill="#263238"/>
<path opacity="0.7" d="M103.715 37.2086L101.134 37.4904C101.097 37.4925 101.061 37.4867 101.027 37.4732C100.992 37.4598 100.961 37.4391 100.935 37.4125C100.91 37.3859 100.889 37.354 100.876 37.3189C100.863 37.2837 100.858 37.2461 100.86 37.2086L100.707 31.5795C100.7 31.5006 100.722 31.422 100.769 31.3591C100.816 31.2961 100.884 31.2534 100.959 31.2391L103.54 30.9573C103.577 30.9557 103.613 30.9619 103.647 30.9756C103.68 30.9892 103.711 31.01 103.736 31.0365C103.762 31.0631 103.782 31.0948 103.795 31.1297C103.807 31.1646 103.813 31.2019 103.811 31.2391L103.968 36.8682C103.974 36.9471 103.952 37.0256 103.905 37.0886C103.859 37.1515 103.791 37.1943 103.715 37.2086Z" fill="white"/>
<path d="M103.544 31.0671L102.868 31.1403L102.782 31.3562L101.736 31.4697L101.64 31.2757L100.963 31.3489C100.914 31.3594 100.871 31.3878 100.84 31.4289C100.81 31.4699 100.796 31.5208 100.799 31.5721L100.952 37.1976C100.951 37.222 100.954 37.2465 100.963 37.2695C100.971 37.2924 100.984 37.3132 101.001 37.3305C101.018 37.3479 101.038 37.3613 101.061 37.3699C101.083 37.3785 101.107 37.3822 101.13 37.3806L103.711 37.0987C103.76 37.089 103.804 37.0613 103.834 37.0209C103.864 36.9804 103.879 36.93 103.875 36.8791L103.722 31.2501C103.723 31.2257 103.719 31.2015 103.711 31.1788C103.702 31.1561 103.689 31.1356 103.672 31.1183C103.656 31.1011 103.635 31.0877 103.613 31.0789C103.591 31.07 103.568 31.066 103.544 31.0671Z" fill="#5649A5"/>
<path opacity="0.8" d="M103.199 33.1023L101.301 33.3109C101.278 33.312 101.255 33.308 101.233 33.2994C101.212 33.2907 101.192 33.2776 101.176 33.2607C101.159 33.2438 101.146 33.2236 101.138 33.2014C101.13 33.1792 101.126 33.1554 101.127 33.1316V32.5899C101.122 32.5394 101.136 32.489 101.166 32.4484C101.195 32.4079 101.239 32.38 101.287 32.3703L103.188 32.1617C103.211 32.1611 103.234 32.1655 103.256 32.1746C103.277 32.1837 103.297 32.1973 103.313 32.2145C103.329 32.2317 103.341 32.2522 103.349 32.2746C103.357 32.297 103.36 32.3209 103.359 32.3447L103.377 32.8864C103.38 32.939 103.363 32.9908 103.33 33.031C103.297 33.0712 103.25 33.0967 103.199 33.1023Z" fill="white"/>
</g>
<defs>
<clipPath id="clip0_415_1092">
<rect width="130" height="118" fill="white"/>
</clipPath>
</defs>
</svg>
