<svg width="71" height="68" viewBox="0 0 71 68" fill="none" xmlns="http://www.w3.org/2000/svg">
<g clip-path="url(#clip0_497_319)">
<path d="M84 61.1836H0V61.2236H84V61.1836Z" fill="#EBEBEB"/>
<path d="M75.5832 63.7578H70.019V63.7978H75.5832V63.7578Z" fill="#EBEBEB"/>
<path d="M55.645 64.1934H54.1851V64.2334H55.645V64.1934Z" fill="#EBEBEB"/>
<path d="M69.8509 62.2734H66.627V62.3134H69.8509V62.2734Z" fill="#EBEBEB"/>
<path d="M16.0694 62.542H8.81348V62.582H16.0694V62.542Z" fill="#EBEBEB"/>
<path d="M18.6294 62.542H17.5659V62.582H18.6294V62.542Z" fill="#EBEBEB"/>
<path d="M37.8252 63.2178H22.0869V63.2578H37.8252V63.2178Z" fill="#EBEBEB"/>
<path d="M39.8162 54.0478H7.37703C7.12291 54.0474 6.87934 53.9509 6.69981 53.7797C6.52027 53.6084 6.41943 53.3762 6.41943 53.1342V9.7054C6.42165 9.46477 6.52346 9.23468 6.70276 9.06512C6.88205 8.89556 7.12436 8.80022 7.37703 8.7998H39.8162C40.0706 8.7998 40.3146 8.89606 40.4945 9.06739C40.6744 9.23873 40.7754 9.4711 40.7754 9.7134V53.1342C40.7754 53.3765 40.6744 53.6089 40.4945 53.7802C40.3146 53.9516 40.0706 54.0478 39.8162 54.0478ZM7.37703 8.8318C7.13405 8.83223 6.90116 8.92446 6.7295 9.08824C6.55784 9.25203 6.46143 9.47399 6.46143 9.7054V53.1342C6.46143 53.3656 6.55784 53.5876 6.7295 53.7514C6.90116 53.9152 7.13405 54.0074 7.37703 54.0078H39.8162C40.0593 54.0074 40.2924 53.9152 40.4643 53.7515C40.6362 53.5877 40.733 53.3658 40.7334 53.1342V9.7054C40.733 9.47384 40.6362 9.25188 40.4643 9.08814C40.2924 8.9244 40.0593 8.83223 39.8162 8.8318H7.37703Z" fill="#EBEBEB"/>
<path d="M76.1559 54.0478H43.7151C43.4609 54.0474 43.2171 53.951 43.0373 53.7798C42.8575 53.6085 42.7563 53.3764 42.7559 53.1342V9.7054C42.7585 9.46462 42.8607 9.23454 43.0403 9.06502C43.2198 8.8955 43.4623 8.80021 43.7151 8.7998H76.1559C76.4083 8.80064 76.6502 8.89616 76.8291 9.06568C77.0081 9.2352 77.1096 9.46505 77.1119 9.7054V53.1342C77.1119 53.3759 77.0113 53.6078 76.8321 53.7791C76.6529 53.9503 76.4098 54.047 76.1559 54.0478ZM43.7151 8.8318C43.472 8.83223 43.2389 8.9244 43.067 9.08814C42.8951 9.25188 42.7983 9.47384 42.7979 9.7054V53.1342C42.7983 53.3658 42.8951 53.5877 43.067 53.7515C43.2389 53.9152 43.472 54.0074 43.7151 54.0078H76.1559C76.3991 54.0074 76.6321 53.9152 76.8041 53.7515C76.976 53.5877 77.0728 53.3658 77.0732 53.1342V9.7054C77.0728 9.47384 76.976 9.25188 76.8041 9.08814C76.6321 8.9244 76.3991 8.83223 76.1559 8.8318H43.7151Z" fill="#EBEBEB"/>
<path d="M60.3656 30.4394C65.2294 30.4394 69.1722 26.6844 69.1722 22.0522C69.1722 17.4201 65.2294 13.665 60.3656 13.665C55.5019 13.665 51.5591 17.4201 51.5591 22.0522C51.5591 26.6844 55.5019 30.4394 60.3656 30.4394Z" fill="#E0E0E0"/>
<path d="M59.6972 30.4394C64.5609 30.4394 68.5037 26.6844 68.5037 22.0522C68.5037 17.4201 64.5609 13.665 59.6972 13.665C54.8335 13.665 50.8906 17.4201 50.8906 22.0522C50.8906 26.6844 54.8335 30.4394 59.6972 30.4394Z" fill="#F5F5F5"/>
<path d="M65.4532 27.5352C68.6319 24.5079 68.6319 19.5996 65.4532 16.5722C62.2745 13.5449 57.1208 13.5449 53.9421 16.5722C50.7634 19.5996 50.7634 24.5079 53.9421 27.5352C57.1208 30.5625 62.2745 30.5625 65.4532 27.5352Z" fill="white"/>
<path d="M61.0849 27.694C61.0406 27.6941 60.9976 27.6799 60.9628 27.6537C60.928 27.6276 60.9036 27.591 60.8933 27.55L59.5057 22.0972C59.4958 22.0495 59.5057 22.0001 59.5332 21.9592C59.5606 21.9183 59.6036 21.889 59.6531 21.8775C59.7026 21.8659 59.7549 21.873 59.7991 21.8973C59.8433 21.9215 59.876 21.961 59.8904 22.0076L61.2764 27.462C61.2885 27.5106 61.28 27.5618 61.2526 27.6043C61.2252 27.6469 61.1812 27.6774 61.1302 27.6892C61.1153 27.6924 61.1001 27.694 61.0849 27.694Z" fill="#F5F5F5"/>
<path d="M59.697 22.4288C59.6452 22.4288 59.5938 22.4191 59.546 22.4001C59.4981 22.3812 59.4547 22.3534 59.4181 22.3184L54.6553 17.7824C54.6187 17.7474 54.5897 17.7059 54.5699 17.6602C54.5501 17.6146 54.54 17.5656 54.54 17.5162C54.5402 17.4165 54.582 17.3208 54.6561 17.2504C54.7303 17.18 54.8309 17.1405 54.9356 17.1406C55.0404 17.1408 55.1408 17.1806 55.2148 17.2512L59.697 21.5216L62.3128 19.0304C62.3869 18.96 62.4875 18.9205 62.5922 18.9206C62.697 18.9208 62.7974 18.9606 62.8713 19.0312C62.9453 19.1019 62.9868 19.1976 62.9866 19.2974C62.9865 19.3971 62.9447 19.4928 62.8705 19.5632L59.9759 22.3184C59.9019 22.389 59.8016 22.4287 59.697 22.4288Z" fill="#EBEBEB"/>
<path d="M37.2119 60.0156H38.5391V51.3596H37.2119V60.0156Z" fill="#F0F0F0"/>
<path d="M10.3674 61.1836H37.6641V60.0156H10.3674V61.1836Z" fill="#F0F0F0"/>
<path d="M37.2119 51.3594H9.49023V60.0154H37.2119V51.3594Z" fill="#F5F5F5"/>
<path d="M35.4176 52.8672H11.2827V57.8112H35.4176V52.8672Z" fill="#F0F0F0"/>
<path d="M17.4807 53.5273H29.2239C29.4438 53.5273 29.6221 53.3576 29.6221 53.1481V53.0777C29.6221 52.8683 29.4438 52.6985 29.2239 52.6985H17.4807C17.2608 52.6985 17.0826 52.8683 17.0826 53.0777V53.1481C17.0826 53.3576 17.2608 53.5273 17.4807 53.5273Z" fill="#F5F5F5"/>
<path d="M8.88207 51.3594H37.2119V50.5866H8.88207V51.3594Z" fill="#F0F0F0"/>
<path d="M39.1758 50.5869H37.2119V51.3597H39.1758V50.5869Z" fill="#E6E6E6"/>
<path d="M72.1878 42.2207H69.6006V61.1839H72.1878V42.2207Z" fill="#F0F0F0"/>
<path d="M46.9559 61.1836H69.6006V42.2204H46.9559V61.1836Z" fill="#F5F5F5"/>
<path d="M46.7493 59.5186H66.6304V49.3762H46.7493V59.5186Z" fill="#FAFAFA"/>
<path d="M46.7493 48.3008H66.6304V44.9616H46.7493V48.3008Z" fill="#FAFAFA"/>
<g style="mix-blend-mode:multiply" opacity="0.7">
<path d="M66.8085 49.376H66.6304V59.5184H66.8085V49.376Z" fill="#E6E6E6"/>
</g>
<g style="mix-blend-mode:multiply" opacity="0.7">
<path d="M66.8085 44.9609H66.6304V48.3001H66.8085V44.9609Z" fill="#E6E6E6"/>
</g>
<g style="mix-blend-mode:multiply" opacity="0.7">
<path d="M72.188 43.0205H46.8989V43.4493H72.188V43.0205Z" fill="#E6E6E6"/>
</g>
<path d="M72.4902 41.9609H69.6006V43.2009H72.4902V41.9609Z" fill="#F0F0F0"/>
<path d="M46.6535 43.2012H69.6006V41.9612H46.6535V43.2012Z" fill="#F5F5F5"/>
<path d="M55.2618 38.3106C55.1058 38.0764 55.0028 37.8137 54.9594 37.5394C54.9139 37.2654 54.8992 36.9875 54.9158 36.7106C54.9517 36.1595 55.0752 35.6168 55.282 35.101C55.3804 34.845 55.4926 34.594 55.618 34.349C55.7524 34.109 55.8868 33.869 56.038 33.6402C56.1892 33.4114 56.3555 33.1906 56.5269 32.9762C56.6982 32.7618 56.8914 32.5618 57.0914 32.3682C56.9939 32.6258 56.878 32.869 56.7554 33.1122C56.6327 33.3554 56.537 33.6002 56.4194 33.837L56.0934 34.557L55.9439 34.9202L55.8666 35.101L55.7994 35.2834C55.6075 35.7641 55.4553 36.2584 55.3442 36.7618C55.2864 37.0133 55.2471 37.2683 55.2266 37.525C55.2015 37.7872 55.2133 38.0514 55.2618 38.3106Z" fill="#E6E6E6"/>
<path d="M52.001 38.7343C52.0226 38.348 51.987 37.9607 51.8952 37.5839C51.8093 37.2403 51.6408 36.9205 51.403 36.6495C51.1494 36.3809 50.8494 36.1558 50.5159 35.9839C50.1715 35.7935 49.7918 35.6447 49.4004 35.4687C49.8354 35.4245 50.2753 35.4692 50.6906 35.5999C50.9052 35.6668 51.1105 35.7581 51.3022 35.8719C51.4981 35.992 51.6751 36.138 51.828 36.3055C52.1331 36.6481 52.3103 37.0775 52.332 37.5263C52.3551 37.9518 52.2395 38.3737 52.001 38.7343Z" fill="#E6E6E6"/>
<path d="M52.1473 38.6784C52.133 38.2281 52.0887 37.7792 52.0146 37.3344C51.9452 36.9104 51.8216 36.4961 51.6466 36.1008C51.4715 35.7121 51.2309 35.3532 50.9343 35.0384C50.6142 34.7129 50.2582 34.421 49.8726 34.168C50.3694 34.2413 50.8381 34.4353 51.2334 34.7312C51.6386 35.0377 51.9568 35.4359 52.159 35.8896C52.3585 36.336 52.4575 36.8173 52.4497 37.3024C52.4526 37.7763 52.3495 38.2454 52.1473 38.6784Z" fill="#E6E6E6"/>
<path d="M55.0386 37.8605C54.6737 37.4095 54.3637 36.9205 54.1146 36.4029C53.8614 35.8866 53.653 35.3515 53.4914 34.8029C53.3278 34.2528 53.2193 33.6892 53.1671 33.1197C53.1121 32.5502 53.1398 31.9763 53.2494 31.4141C53.3721 31.9757 53.4662 32.5181 53.6006 33.0573C53.735 33.5965 53.8694 34.1277 54.029 34.6573C54.1886 35.1869 54.3498 35.7165 54.5229 36.2461C54.6959 36.7757 54.8723 37.3133 55.0386 37.8605Z" fill="#E6E6E6"/>
<path d="M54.8871 37.8208C54.4712 37.4333 54.1006 37.0042 53.7816 36.5408C53.4623 36.0787 53.1815 35.5935 52.9416 35.0896C52.6985 34.5845 52.505 34.0591 52.3637 33.52C52.2207 32.98 52.1557 32.4239 52.1705 31.8672C52.3822 32.3888 52.5653 32.8944 52.782 33.392C52.9988 33.8896 53.2138 34.3824 53.454 34.8704C53.6943 35.3584 53.9261 35.8448 54.1714 36.3344C54.4167 36.824 54.6536 37.312 54.8871 37.8208Z" fill="#E6E6E6"/>
<path d="M55.5123 38.3324C55.0412 38.0949 54.6037 37.8013 54.2103 37.4588C53.814 37.1186 53.4524 36.7437 53.13 36.3388C52.8011 35.9362 52.5195 35.5006 52.29 35.0396C52.0604 34.5791 51.9074 34.0873 51.8364 33.582C52.1254 34.0124 52.3807 34.4332 52.6764 34.8348C52.9721 35.2364 53.2577 35.6348 53.5719 36.0172C53.886 36.3996 54.2002 36.7836 54.5261 37.1644C54.852 37.5452 55.183 37.9324 55.5123 38.3324Z" fill="#E6E6E6"/>
<path d="M54.5999 37.8239C54.1422 37.6444 53.7179 37.3959 53.3433 37.0879C52.9654 36.7851 52.6269 36.4402 52.3353 36.0607C52.1871 35.8714 52.0502 35.6743 51.9254 35.4703C51.8037 35.2634 51.6955 35.0497 51.6011 34.8303C51.4079 34.3957 51.2893 33.9343 51.25 33.4639C51.5138 33.8655 51.7305 34.2639 51.9926 34.6383C52.1102 34.8319 52.2513 35.0111 52.3739 35.1999C52.4966 35.3887 52.6394 35.5647 52.7838 35.7407C53.0616 36.0969 53.3528 36.4463 53.6574 36.7887C53.9531 37.1359 54.2639 37.4735 54.5999 37.8239Z" fill="#E6E6E6"/>
<path d="M55.3159 38.0976C55.0986 37.9515 54.9249 37.7541 54.8119 37.5248C54.6952 37.2959 54.6131 37.0524 54.5683 36.8016C54.4843 36.3042 54.4991 35.7962 54.6119 35.304C54.6663 35.0624 54.7336 34.8237 54.8135 34.5888C54.9093 34.36 54.995 34.128 55.1092 33.9088C55.2235 33.6896 55.3444 33.4752 55.4805 33.2688C55.6205 33.0642 55.7713 32.8666 55.9324 32.6768C55.8787 32.9184 55.8031 33.1472 55.7308 33.376C55.6586 33.6048 55.5981 33.8352 55.5191 34.0576C55.4402 34.28 55.3931 34.5104 55.3209 34.7328L55.2386 35.0704C55.21 35.1824 55.1764 35.2944 55.1596 35.408C55.0583 35.8522 55.0064 36.3054 55.0051 36.76C55.003 36.987 55.0243 37.2137 55.0689 37.4368C55.1109 37.6689 55.1944 37.8924 55.3159 38.0976Z" fill="#E6E6E6"/>
<path d="M55.0035 37.5874C54.6352 37.2125 54.3683 36.7578 54.2257 36.2626C54.0706 35.7627 54.0209 35.2385 54.0795 34.7202C54.0879 34.5906 54.1215 34.4642 54.1434 34.3362L54.182 34.1442L54.2408 33.9586C54.2845 33.8354 54.3214 33.7122 54.3702 33.5922C54.4189 33.4722 54.4827 33.357 54.5382 33.2418L54.6289 33.0706L54.7381 32.9106L54.9598 32.5906C55.1256 32.3937 55.3047 32.2072 55.4958 32.0322C55.4084 32.2738 55.2925 32.493 55.1984 32.7202L55.0657 33.061L54.9985 33.221L54.9447 33.3938C54.9094 33.5074 54.8725 33.621 54.8338 33.733L54.7515 34.077L54.7078 34.2482L54.6826 34.421C54.6675 34.5362 54.6373 34.6514 54.6306 34.7666C54.5793 35.2324 54.5861 35.7023 54.6507 36.1666C54.713 36.6512 54.8313 37.1277 55.0035 37.5874Z" fill="#E6E6E6"/>
<path d="M54.2942 37.3916L51.8867 35.3516L52.2429 38.1212L54.2942 37.3916Z" fill="#E6E6E6"/>
<path d="M49.6543 37.0186H56.6397L55.7241 41.961H50.5699L49.6543 37.0186Z" fill="#F5F5F5"/>
<path d="M54.0186 37.0186H56.6394L55.7238 41.961H54.3478L54.0186 37.0186Z" fill="#EBEBEB"/>
<path d="M62.8082 38.32C62.8411 38.1015 62.8315 37.8792 62.7797 37.664C62.7352 37.4581 62.6659 37.2579 62.573 37.0672C62.3848 36.6846 62.146 36.3265 61.8624 36.0016C61.7986 35.9136 61.7162 35.8416 61.644 35.7568C61.5718 35.672 61.4978 35.5968 61.4206 35.512C61.2526 35.352 61.1081 35.192 60.9418 35.032C60.7754 34.872 60.6158 34.712 60.4478 34.552C60.2798 34.392 60.1118 34.232 59.9438 34.0576C60.1706 34.1392 60.3857 34.24 60.6041 34.3424C60.816 34.4534 61.0218 34.5746 61.2206 34.7056C61.3209 34.771 61.4174 34.8415 61.5096 34.9168C61.6037 34.9904 61.6961 35.0672 61.7885 35.1424C61.9676 35.3034 62.1359 35.4749 62.2925 35.656C62.6151 36.026 62.8506 36.4576 62.983 36.9216C63.0467 37.1565 63.0688 37.3998 63.0485 37.6416C63.0371 37.8848 62.9538 38.1199 62.8082 38.32Z" fill="#E6E6E6"/>
<path d="M66.7364 37.6497C66.5593 37.5044 66.4284 37.3149 66.3584 37.1025C66.3196 36.9931 66.2942 36.8799 66.2828 36.7649C66.2794 36.7063 66.2794 36.6475 66.2828 36.5889C66.2808 36.5303 66.2864 36.4718 66.2996 36.4145C66.3983 35.9594 66.648 35.5465 67.0119 35.2369C67.0959 35.1585 67.1917 35.0961 67.2807 35.0257C67.3693 34.9556 67.4637 34.8925 67.563 34.8369C67.6604 34.7825 67.7578 34.7265 67.8586 34.6769C67.9074 34.6513 67.9561 34.6225 68.0082 34.6001L68.1627 34.5377C68.2669 34.4961 68.371 34.4577 68.4752 34.4193C68.5788 34.3794 68.6855 34.3473 68.7944 34.3233C69.0108 34.2696 69.2301 34.2269 69.4513 34.1953C69.2776 34.3263 69.0964 34.4481 68.9086 34.5601C68.8162 34.6129 68.7289 34.6721 68.6415 34.7329C68.5542 34.7937 68.4735 34.8481 68.3761 34.9041C68.193 35.0081 68.0401 35.1409 67.8721 35.2529C67.7882 35.3089 67.7085 35.3704 67.6335 35.4369C67.5562 35.5009 67.4655 35.5585 67.4017 35.6257C67.1107 35.8707 66.8811 36.1747 66.7297 36.5153C66.6976 36.601 66.6718 36.6887 66.6524 36.7777C66.6369 36.8703 66.6291 36.9639 66.6289 37.0577C66.6288 37.2595 66.6652 37.4597 66.7364 37.6497Z" fill="#E6E6E6"/>
<path d="M66.5566 37.6493C66.2531 37.2729 66.0879 36.8119 66.0862 36.3373C66.0792 35.8512 66.2092 35.3722 66.4625 34.9501L66.6641 34.6461C66.7414 34.5517 66.8237 34.4621 66.906 34.3725L67.032 34.2397L67.1698 34.1245L67.452 33.8989C67.6515 33.7671 67.8585 33.6459 68.072 33.5357C68.2911 33.4411 68.5154 33.3578 68.744 33.2861C68.576 33.4557 68.408 33.6061 68.2282 33.7501C68.0484 33.8941 67.9023 34.0589 67.7444 34.2109C67.6704 34.2941 67.5982 34.3709 67.5226 34.4525L67.41 34.5693L67.3143 34.6973C67.2504 34.7821 67.1799 34.8573 67.1177 34.9469L66.9497 35.2109C66.7367 35.567 66.5927 35.9567 66.5247 36.3613C66.4551 36.7891 66.4659 37.2252 66.5566 37.6493Z" fill="#E6E6E6"/>
<path d="M63.0234 37.8866C63.1629 37.3922 63.3141 36.9154 63.4602 36.4466C63.6064 35.9778 63.7492 35.4994 63.8802 35.0258C64.0113 34.5522 64.1205 34.0754 64.2162 33.5858C64.312 33.0962 64.3641 32.6258 64.4094 32.1074C64.586 32.596 64.6691 33.1109 64.6547 33.6274C64.6345 34.1417 64.5562 34.6523 64.4212 35.1506C64.2842 35.6459 64.0991 36.128 63.8685 36.5906C63.643 37.0537 63.3593 37.4889 63.0234 37.8866Z" fill="#E6E6E6"/>
<path d="M63.1982 37.8064C63.4166 37.3264 63.6518 36.8464 63.8837 36.3872C64.1155 35.928 64.349 35.4608 64.5725 34.9968C64.7959 34.5328 65.011 34.0672 65.2109 33.5952C65.4108 33.1232 65.5822 32.6352 65.7502 32.1328C65.8021 32.664 65.7618 33.1997 65.6309 33.7184C65.4984 34.2342 65.3144 34.7368 65.0815 35.2192C64.8476 35.6978 64.574 36.158 64.2634 36.5952C63.9557 37.0347 63.5986 37.4408 63.1982 37.8064Z" fill="#E6E6E6"/>
<path d="M62.5146 38.4159C62.8422 37.9871 63.1866 37.5823 63.5226 37.1775C63.8586 36.7727 64.1946 36.3775 64.5206 35.9695C64.8465 35.5615 65.1657 35.1567 65.4714 34.7375C65.7772 34.3183 66.0561 33.8863 66.34 33.4287C66.2656 33.9575 66.1005 34.471 65.8511 34.9487C65.6013 35.4232 65.3043 35.8738 64.9641 36.2943C64.6236 36.7108 64.2489 37.1008 63.8435 37.4607C63.4385 37.8243 62.9929 38.1446 62.5146 38.4159Z" fill="#E6E6E6"/>
<path d="M63.543 37.718C63.8638 37.3356 64.1847 36.974 64.5006 36.6076C64.8164 36.2412 65.1222 35.878 65.4212 35.5084C65.7202 35.1388 65.9974 34.758 66.2612 34.3692C66.525 33.9804 66.7652 33.5692 67.0239 33.1436C66.9862 33.6354 66.8588 34.1173 66.6476 34.5676C66.4372 35.0172 66.1716 35.4415 65.8563 35.8316C65.5439 36.2197 65.1916 36.5772 64.8046 36.8988C64.4239 37.2237 63.9997 37.4991 63.543 37.718Z" fill="#E6E6E6"/>
<path d="M62.7213 38.1642C62.9036 37.8172 62.9915 37.432 62.9767 37.0442C62.9544 36.6741 62.8551 36.3118 62.6843 35.9786L62.6272 35.849L62.555 35.7242L62.4139 35.4714C62.3013 35.3114 62.2005 35.1402 62.0779 34.9754C61.9552 34.8106 61.8444 34.6458 61.72 34.481C61.5895 34.3152 61.4678 34.1433 61.3555 33.9658C61.5487 34.067 61.736 34.1781 61.9166 34.2986C62.0927 34.4263 62.261 34.5636 62.4206 34.7098C62.5003 34.7841 62.5749 34.8632 62.644 34.9466C62.7157 35.0288 62.7863 35.112 62.8557 35.1962L63.0355 35.473L63.1212 35.6138L63.1917 35.7642C63.3967 36.1698 63.4726 36.6236 63.4101 37.0698C63.3803 37.2875 63.3037 37.497 63.1852 37.6852C63.0667 37.8735 62.9088 38.0366 62.7213 38.1642Z" fill="#E6E6E6"/>
<path d="M63.0337 37.6541C63.1719 37.2576 63.2665 36.8485 63.316 36.4333C63.3614 36.0463 63.3312 35.6547 63.2269 35.2781C63.1746 35.0925 63.1014 34.9128 63.0085 34.7421C62.9161 34.5661 62.807 34.3985 62.6826 34.2413C62.4152 33.9084 62.1221 33.595 61.8057 33.3037C62.2558 33.4307 62.6684 33.6565 63.0102 33.9629C63.1885 34.1191 63.3434 34.2978 63.4705 34.4941C63.6016 34.6924 63.7012 34.9081 63.7662 35.1341C63.8927 35.5864 63.8852 36.0633 63.7444 36.5117C63.6171 36.9454 63.372 37.3395 63.0337 37.6541Z" fill="#E6E6E6"/>
<path d="M63.8555 37.2753L66.483 34.8721L66.3772 37.2289L63.8555 37.2753Z" fill="#E6E6E6"/>
<path d="M60.9805 37.0186H67.9659L67.0503 41.961H61.8961L60.9805 37.0186Z" fill="#F5F5F5"/>
<path d="M65.3438 37.0186H67.9662L67.0506 41.961H65.6747L65.3438 37.0186Z" fill="#EBEBEB"/>
<path d="M17.4498 14.5146V40.4346C17.4498 41.5125 17.0002 42.5462 16.2 43.3083C15.3997 44.0705 14.3143 44.4986 13.1826 44.4986H33.0066C34.1385 44.4986 35.2241 44.0705 36.0246 43.3084C36.8251 42.5463 37.2751 41.5126 37.2755 40.4346V14.5146H17.4498Z" fill="#F5F5F5"/>
<path d="M34.1645 21.0762H21.3545V33.2762H34.1645V21.0762Z" fill="#F0F0F0"/>
<path d="M33.7714 20.7002H20.9614V32.9002H33.7714V20.7002Z" fill="white"/>
<path d="M24.1062 34.707H20.8486V37.8094H24.1062V34.707Z" fill="white"/>
<path d="M33.7697 34.707H30.5122V37.8094H33.7697V34.707Z" fill="white"/>
<path d="M28.9382 34.707H25.6807V37.8094H28.9382V34.707Z" fill="white"/>
<path d="M37.2792 14.5146H17.4502V17.5994H37.2792V14.5146Z" fill="#F0F0F0"/>
<path d="M18.648 13.5247V15.5055C18.6477 15.578 18.6626 15.6499 18.6916 15.7169C18.7207 15.784 18.7634 15.8449 18.8172 15.8963C18.8711 15.9476 18.9351 15.9882 19.0055 16.0159C19.0759 16.0435 19.1514 16.0577 19.2276 16.0575C19.3037 16.0575 19.379 16.0432 19.4494 16.0154C19.5197 15.9877 19.5836 15.947 19.6374 15.8958C19.6912 15.8445 19.7339 15.7837 19.763 15.7167C19.7922 15.6497 19.8072 15.5779 19.8072 15.5055V13.5247C19.8067 13.3784 19.7455 13.2382 19.6369 13.1348C19.5283 13.0314 19.3811 12.9731 19.2276 12.9727C19.0738 12.9727 18.9264 13.0308 18.8177 13.1343C18.709 13.2379 18.648 13.3783 18.648 13.5247Z" fill="#E6E6E6"/>
<path d="M34.9307 13.5247V15.5055C34.9307 15.6519 34.9917 15.7923 35.1004 15.8958C35.2091 15.9993 35.3565 16.0575 35.5103 16.0575C35.5864 16.0577 35.6619 16.0435 35.7323 16.0159C35.8028 15.9882 35.8667 15.9476 35.9206 15.8963C35.9745 15.8449 36.0171 15.784 36.0462 15.7169C36.0752 15.6499 36.0901 15.578 36.0899 15.5055V13.5247C36.0899 13.3783 36.0288 13.2379 35.9201 13.1343C35.8114 13.0308 35.664 12.9727 35.5103 12.9727C35.3567 12.9731 35.2095 13.0314 35.1009 13.1348C34.9923 13.2382 34.9311 13.3784 34.9307 13.5247Z" fill="#E6E6E6"/>
<path d="M31.6729 13.5247V15.5055C31.6729 15.5779 31.6878 15.6497 31.717 15.7167C31.7461 15.7837 31.7888 15.8445 31.8426 15.8958C31.8964 15.947 31.9603 15.9877 32.0306 16.0154C32.101 16.0432 32.1763 16.0575 32.2525 16.0575C32.3286 16.0575 32.4039 16.0432 32.4743 16.0154C32.5446 15.9877 32.6085 15.947 32.6623 15.8958C32.7161 15.8445 32.7588 15.7837 32.7879 15.7167C32.8171 15.6497 32.8321 15.5779 32.8321 15.5055V13.5247C32.8316 13.3789 32.7709 13.2393 32.663 13.1359C32.5551 13.0326 32.4088 12.9739 32.2558 12.9727C32.1795 12.9724 32.1038 12.9866 32.0332 13.0142C31.9626 13.0418 31.8984 13.0824 31.8443 13.1337C31.7902 13.1849 31.7472 13.2458 31.7177 13.3129C31.6883 13.38 31.6731 13.452 31.6729 13.5247Z" fill="#E6E6E6"/>
<path d="M28.4155 13.5247V15.5055C28.4153 15.578 28.4301 15.6499 28.4592 15.7169C28.4882 15.784 28.5309 15.8449 28.5848 15.8963C28.6387 15.9476 28.7026 15.9882 28.7731 16.0159C28.8435 16.0435 28.919 16.0577 28.9951 16.0575C29.1478 16.0562 29.2938 15.9974 29.4011 15.894C29.5085 15.7906 29.5685 15.6509 29.568 15.5055V13.5247C29.568 13.3785 29.5072 13.2384 29.3988 13.1349C29.2905 13.0314 29.1435 12.9731 28.9901 12.9727C28.8372 12.9739 28.6911 13.0326 28.5835 13.136C28.4759 13.2394 28.4155 13.3791 28.4155 13.5247Z" fill="#E6E6E6"/>
<path d="M25.1582 13.5247V15.5055C25.158 15.5779 25.1728 15.6496 25.2017 15.7166C25.2307 15.7835 25.2732 15.8444 25.3269 15.8957C25.3806 15.947 25.4444 15.9876 25.5146 16.0154C25.5848 16.0432 25.6601 16.0575 25.7361 16.0575C25.8123 16.0577 25.8878 16.0435 25.9582 16.0159C26.0286 15.9882 26.0926 15.9476 26.1465 15.8963C26.2003 15.8449 26.243 15.784 26.2721 15.7169C26.3011 15.6499 26.3159 15.578 26.3157 15.5055V13.5247C26.3157 13.3783 26.2547 13.2379 26.146 13.1343C26.0373 13.0308 25.8898 12.9727 25.7361 12.9727C25.5827 12.9731 25.4357 13.0314 25.3274 13.1349C25.219 13.2384 25.1582 13.3785 25.1582 13.5247Z" fill="#E6E6E6"/>
<path d="M21.8989 13.5247V15.5055C21.8989 15.5779 21.9139 15.6497 21.943 15.7167C21.9722 15.7837 22.0149 15.8445 22.0687 15.8958C22.1225 15.947 22.1864 15.9877 22.2567 16.0154C22.327 16.0432 22.4024 16.0575 22.4785 16.0575C22.5546 16.0575 22.63 16.0432 22.7003 16.0154C22.7706 15.9877 22.8345 15.947 22.8884 15.8958C22.9422 15.8445 22.9849 15.7837 23.014 15.7167C23.0431 15.6497 23.0581 15.5779 23.0581 15.5055V13.5247C23.0577 13.3784 22.9965 13.2382 22.8879 13.1348C22.7793 13.0314 22.6321 12.9731 22.4785 12.9727C22.3249 12.9731 22.1778 13.0314 22.0692 13.1348C21.9606 13.2382 21.8994 13.3784 21.8989 13.5247Z" fill="#E6E6E6"/>
<path d="M31.2261 42.79C31.2261 43.2411 31.4143 43.6737 31.7492 43.9927C32.0841 44.3116 32.5383 44.4908 33.012 44.4908H10.6999C10.2263 44.4908 9.77203 44.3116 9.43712 43.9927C9.10221 43.6737 8.91406 43.2411 8.91406 42.79H31.2261Z" fill="#E6E6E6"/>
<path d="M41.9998 68.4095C59.9896 68.4095 74.5733 67.5986 74.5733 66.5983C74.5733 65.598 59.9896 64.7871 41.9998 64.7871C24.0099 64.7871 9.42627 65.598 9.42627 66.5983C9.42627 67.5986 24.0099 68.4095 41.9998 68.4095Z" fill="#F5F5F5"/>
<path opacity="0.2" d="M45.2916 51.3174C45.2916 51.3174 32.9453 58.2598 32.9453 64.8374H57.6413C57.6396 58.2598 45.2916 51.3174 45.2916 51.3174Z" fill="#5649A5"/>
<path opacity="0.2" d="M45.2916 59.6006C45.2916 59.6006 33.8911 62.2902 33.8911 64.8374H56.6921C56.6921 62.2902 45.2916 59.6006 45.2916 59.6006Z" fill="#5649A5"/>
<path opacity="0.3" d="M46.79 53.2344C49.1084 55.4056 53.6142 60.2168 53.6142 64.8376H50.5247C50.5247 60.2168 48.0584 55.4056 46.79 53.2344Z" fill="white"/>
<path opacity="0.2" d="M45.2916 51.3169C45.2916 51.3169 32.9453 44.3745 32.9453 37.7969H57.6413C57.6396 44.3745 45.2916 51.3169 45.2916 51.3169Z" fill="#5649A5"/>
<path opacity="0.2" d="M45.2916 50.6834C45.2916 50.6834 38.9883 47.8034 38.9883 45.0674H51.5967C51.5967 47.7986 45.2916 50.6834 45.2916 50.6834Z" fill="#5649A5"/>
<path opacity="0.3" d="M43.9459 49.4001C41.6291 47.2289 37.1284 42.4177 37.1284 37.7969H40.2179C40.2112 42.4177 42.6724 47.2289 43.9459 49.4001Z" fill="white"/>
<path opacity="0.3" d="M46.79 49.4001C49.1084 47.2289 53.5016 41.8609 53.6142 37.7969H52.791C52.4046 42.7521 48.6246 47.2993 46.79 49.4001Z" fill="white"/>
<path d="M55.9629 35.4756H54.5635V35.6356H55.9629V35.4756Z" fill="#5649A5"/>
<path d="M60.714 37.674H60.546C60.5456 37.1338 60.3202 36.6158 59.9192 36.2337C59.5183 35.8515 58.9746 35.6364 58.4074 35.6356H56.9307V35.4756H58.4074C59.019 35.4769 59.6052 35.7089 60.0375 36.121C60.4699 36.533 60.7131 37.0915 60.714 37.674Z" fill="#5649A5"/>
<path d="M58.4055 36.0352H32.1774C31.2272 36.0352 30.457 36.7687 30.457 37.6736V37.92C30.457 38.8248 31.2272 39.5584 32.1774 39.5584H58.4055C59.3556 39.5584 60.1258 38.8248 60.1258 37.92V37.6736C60.1258 36.7687 59.3556 36.0352 58.4055 36.0352Z" fill="#5649A5"/>
<path d="M58.4055 63.0752H32.1774C31.2272 63.0752 30.457 63.8087 30.457 64.7136V64.96C30.457 65.8649 31.2272 66.5984 32.1774 66.5984H58.4055C59.3556 66.5984 60.1258 65.8649 60.1258 64.96V64.7136C60.1258 63.8087 59.3556 63.0752 58.4055 63.0752Z" fill="#5649A5"/>
<path d="M23.641 48.7231L22.502 47.7599L24.444 44.9199L25.5831 45.8815L23.641 48.7231Z" fill="#FF8B7B"/>
<path d="M22.737 47.1484L24.1851 48.1084C24.1975 48.1158 24.2082 48.1254 24.2167 48.1367C24.2251 48.148 24.2312 48.1608 24.2344 48.1743C24.2377 48.1878 24.2382 48.2018 24.2358 48.2155C24.2333 48.2292 24.2281 48.2423 24.2204 48.254L23.4946 49.3932C23.4528 49.4505 23.3891 49.4899 23.3171 49.5027C23.2451 49.5156 23.1707 49.501 23.1099 49.462C22.6059 49.1212 22.4194 48.9548 21.8163 48.4908C21.2202 48.0446 20.6483 47.5699 20.1027 47.0684C19.6558 46.6268 20.1279 46.1996 20.3648 46.3516C20.9242 46.7132 21.897 47.1116 22.4598 47.0796C22.5576 47.0723 22.6553 47.0965 22.737 47.1484Z" fill="#263238"/>
<path opacity="0.2" d="M25.5814 45.8831L24.4424 44.9199L23.5083 46.2879L24.6759 47.2111L25.5814 45.8831Z" fill="black"/>
<path d="M37.17 31.6964C37.17 31.6964 29.526 31.1988 28.5785 33.666C26.4231 39.2756 23.6191 45.226 23.6191 45.226L25.872 46.7796C25.872 46.7796 30.6348 39.8436 32.088 35.3908C35.028 36.0708 40.3435 36.6516 42.0555 34.7796C43.5171 33.1796 42.4234 31.6964 42.4234 31.6964H37.17Z" fill="#263238"/>
<path opacity="0.3" d="M30.6229 36.0557C30.4448 36.7405 30.1743 38.7021 30.0063 40.0029C30.3776 39.3181 30.7304 38.6237 31.0479 37.9453L30.6229 36.0557Z" fill="black"/>
<path d="M25.7272 47.4819L23.1719 45.5747L23.6944 44.5059L26.5504 46.5843L25.7272 47.4819Z" fill="#5649A5"/>
<path d="M22.1237 47.0605C22.2422 47.134 22.3683 47.1957 22.5 47.2445C22.5066 47.2467 22.5137 47.2471 22.5204 47.2456C22.5272 47.2441 22.5334 47.2409 22.5383 47.2362C22.5432 47.2315 22.5466 47.2256 22.5482 47.2192C22.5497 47.2127 22.5494 47.206 22.5471 47.1997C22.5252 47.1453 22.3337 46.6669 22.1338 46.6205C22.1109 46.6155 22.087 46.6161 22.0644 46.6223C22.0418 46.6285 22.0211 46.64 22.0044 46.6557C21.9763 46.6769 21.9546 46.7048 21.9413 46.7365C21.928 46.7683 21.9237 46.8027 21.9288 46.8365C21.9628 46.9314 22.0322 47.0111 22.1237 47.0605ZM22.448 47.1485C22.1842 47.0397 22.0196 46.9197 22.0011 46.8285C21.9982 46.8063 22.0017 46.7837 22.0111 46.7631C22.0206 46.7425 22.0357 46.7248 22.0548 46.7117C22.0626 46.7038 22.0725 46.698 22.0834 46.6949C22.0943 46.6918 22.1059 46.6915 22.117 46.6941C22.2245 46.7197 22.364 46.9581 22.448 47.1485Z" fill="#5649A5"/>
<path d="M22.4916 47.2401C22.4971 47.2417 22.5029 47.2417 22.5084 47.2401C22.5147 47.2408 22.521 47.24 22.5269 47.2377C22.5327 47.2355 22.5379 47.2319 22.542 47.2273C22.5538 47.2145 22.8394 46.8801 22.7974 46.6737C22.7918 46.6474 22.78 46.6225 22.7628 46.6012C22.7457 46.5798 22.7236 46.5625 22.6983 46.5505C22.6724 46.5351 22.6421 46.5282 22.6117 46.5308C22.5814 46.5334 22.5528 46.5454 22.5303 46.5649C22.4026 46.6785 22.4076 47.0625 22.4832 47.2209C22.4843 47.2279 22.4872 47.2345 22.4916 47.2401ZM22.6781 46.6273C22.6903 46.635 22.7007 46.6449 22.7087 46.6564C22.7168 46.668 22.7224 46.6809 22.7251 46.6945C22.7503 46.8161 22.6143 47.0257 22.5252 47.1409C22.4782 46.9809 22.4933 46.6961 22.5756 46.6225C22.5924 46.6081 22.6159 46.5937 22.6647 46.6225L22.6781 46.6273Z" fill="#5649A5"/>
<path d="M33.6836 50.4014L32.2136 50.6814L31.9414 46.9326L33.4349 46.9774L33.6836 50.4014Z" fill="#FF8B7B"/>
<path d="M32.0138 50.1701L33.6938 49.4965C33.7076 49.4901 33.7226 49.4863 33.7379 49.4855C33.7531 49.4847 33.7685 49.4868 33.7829 49.4917C33.7973 49.4967 33.8105 49.5043 33.8218 49.5142C33.833 49.5241 33.8421 49.536 33.8484 49.5493L34.4902 50.7781C34.5195 50.8446 34.5203 50.9194 34.4923 50.9865C34.4644 51.0535 34.4099 51.1074 34.3406 51.1365C33.7526 51.3621 33.4603 51.4405 32.7228 51.7381C32.2692 51.9205 31.0428 52.4485 30.3876 52.6037C29.7324 52.7589 29.5846 52.1333 29.85 52.0117C30.4783 51.7237 31.5199 50.8453 31.8005 50.3605C31.8483 50.2769 31.9231 50.2101 32.0138 50.1701Z" fill="#263238"/>
<path d="M31.5959 50.6308C31.7283 50.5732 31.8539 50.5024 31.9706 50.4196C31.9763 50.4154 31.9808 50.4097 31.9835 50.4032C31.9861 50.3967 31.9869 50.3897 31.9857 50.3828C31.9837 50.3761 31.9798 50.37 31.9745 50.3652C31.9692 50.3604 31.9626 50.3571 31.9554 50.3556C31.895 50.3428 31.3506 50.2388 31.1978 50.3796C31.1803 50.3957 31.1676 50.4158 31.1608 50.4379C31.1541 50.4601 31.1535 50.4836 31.1591 50.506C31.1629 50.5406 31.1762 50.5737 31.1978 50.6018C31.2193 50.6299 31.2483 50.6521 31.2818 50.666C31.3874 50.6918 31.4994 50.6792 31.5959 50.6308ZM31.853 50.41C31.6094 50.57 31.4094 50.6388 31.3103 50.602C31.2882 50.5924 31.2693 50.5771 31.2557 50.5579C31.242 50.5387 31.2342 50.5163 31.233 50.4932C31.2298 50.4823 31.2296 50.4708 31.2326 50.4599C31.2355 50.4489 31.2415 50.4389 31.2498 50.4308C31.3322 50.3556 31.6346 50.3748 31.853 50.41Z" fill="#5649A5"/>
<path d="M31.9622 50.4245C31.9679 50.4217 31.973 50.4179 31.9773 50.4133C31.9801 50.4081 31.9815 50.4023 31.9815 50.3965C31.9815 50.3906 31.9801 50.3849 31.9773 50.3797C31.9773 50.3621 31.8227 49.9397 31.611 49.8613C31.5838 49.8509 31.5544 49.8468 31.5252 49.8493C31.496 49.8518 31.4679 49.8609 31.443 49.8757C31.4136 49.8882 31.3895 49.9099 31.3748 49.9373C31.3601 49.9647 31.3558 49.996 31.3624 50.0261C31.396 50.1861 31.7505 50.4021 31.937 50.4261C31.9453 50.4287 31.9543 50.4281 31.9622 50.4245ZM31.5035 49.9301C31.5173 49.9245 31.5322 49.9217 31.5472 49.9217C31.5622 49.9217 31.577 49.9245 31.5909 49.9301C31.7169 49.9765 31.8328 50.2053 31.8899 50.3429C31.7219 50.2901 31.4649 50.1253 31.443 50.0133C31.443 49.9925 31.443 49.9653 31.4884 49.9397L31.5035 49.9301Z" fill="#5649A5"/>
<path opacity="0.2" d="M33.4366 46.979L31.9414 46.9326L32.0842 48.891L33.5727 48.8654L33.4366 46.979Z" fill="black"/>
<path d="M40.8825 31.6963C40.8825 31.6963 29.9625 32.6803 30.3556 35.8115C30.9301 40.3283 31.3501 48.2371 31.3501 48.2371L34.1339 48.3411C34.1339 48.3411 35.1789 41.3875 34.5673 36.7619C37.3948 36.7619 43.5369 36.9043 44.6171 35.5123C45.8989 33.8611 45.3059 31.6963 45.3059 31.6963H40.8825Z" fill="#263238"/>
<path d="M34.4413 48.5043L31.0997 48.3459L30.9805 46.9619L34.6445 47.2019L34.4413 48.5043Z" fill="#5649A5"/>
<path d="M38.4583 22.5267C38.4347 22.8131 38.4079 23.0675 38.3709 23.3347C38.3339 23.6019 38.2987 23.8627 38.255 24.1267C38.1743 24.6531 38.0635 25.1763 37.9391 25.7027C37.8148 26.2291 37.6619 26.7539 37.4704 27.2835C37.276 27.8406 37.0209 28.3768 36.7094 28.8835C36.5234 29.1815 36.2975 29.4553 36.0374 29.6979C35.9685 29.7592 35.8962 29.8169 35.8207 29.8707C35.7518 29.9251 35.6829 29.9715 35.6123 30.0179C35.478 30.1081 35.3383 30.1909 35.194 30.2659C34.6613 30.5419 34.0978 30.7603 33.514 30.9171C33.2368 30.9987 32.9579 31.0643 32.674 31.1235C32.3901 31.1827 32.1196 31.2339 31.834 31.2755C31.2781 31.3621 30.717 31.4155 30.154 31.4355C30.0152 31.441 29.879 31.3986 29.7706 31.3159C29.6622 31.2332 29.5889 31.1158 29.5643 30.9856C29.5397 30.8554 29.5654 30.7211 29.6368 30.6076C29.7082 30.4941 29.8203 30.4091 29.9524 30.3683L29.9743 30.3603C30.9594 30.0634 31.9259 29.713 32.8689 29.3107C33.3025 29.1238 33.7175 28.8999 34.1087 28.6419C34.1978 28.5811 34.2767 28.5187 34.3574 28.4563C34.3943 28.4259 34.433 28.3955 34.4649 28.3635C34.4947 28.338 34.5227 28.3107 34.5489 28.2819C34.6604 28.1534 34.7563 28.0133 34.8345 27.8643C35.0383 27.4699 35.2021 27.0579 35.3234 26.6339C35.4595 26.1843 35.5771 25.7155 35.6745 25.2387C35.7719 24.7619 35.8593 24.2787 35.9416 23.7891C36.0239 23.2995 36.0861 22.8003 36.1432 22.3363V22.3091C36.1853 22.0285 36.3395 21.7742 36.5737 21.5994C36.8079 21.4245 37.104 21.3426 37.4001 21.3706C37.6963 21.3987 37.9696 21.5347 38.163 21.7501C38.3564 21.9655 38.4549 22.2437 38.4381 22.5267H38.4583Z" fill="#5649A5"/>
<path d="M30.2096 30.0801L29.3696 30.1297L30.0416 31.6017C30.0416 31.6017 31.4948 31.5713 31.4646 30.8897L31.2025 30.5697C31.0826 30.4261 30.9321 30.3082 30.761 30.2238C30.5899 30.1394 30.402 30.0905 30.2096 30.0801Z" fill="#FF8B7B"/>
<path d="M28.4487 30.2512L29.1745 31.6048H30.0397L29.3677 30.1328L28.4487 30.2512Z" fill="#FF8B7B"/>
<path d="M38.3373 20.258L39.9619 19.938L41.2555 19.7604C41.4403 19.7316 41.6281 19.7236 41.8149 19.7364C42.3114 19.7793 42.7822 19.9654 43.1647 20.2698C43.5471 20.5743 43.8229 20.9827 43.9552 21.4404C44.2795 22.5604 44.5718 23.9348 44.7952 25.1524C45.1077 26.8436 45.269 29.3844 45.2992 31.6948H37.6032C37.4352 27.5108 36.5011 24.8148 36.1836 23.1428C36.0879 22.638 36.1692 22.1173 36.4147 21.6608C36.6603 21.2043 37.0566 20.8373 37.5427 20.6164L38.3373 20.258Z" fill="#5649A5"/>
<path d="M37.6035 21.1772C37.622 21.8652 37.7715 24.318 38.546 25.7116C38.6821 24.406 40.31 20.4316 40.31 20.4316L37.6035 21.1772Z" fill="#F5F5F5"/>
<path opacity="0.3" d="M44.9719 26.3007C44.9719 26.2751 44.9719 26.2511 44.9618 26.2239L44.9467 26.1087C44.9383 26.0463 44.9299 25.9839 44.9215 25.9247L44.8963 25.7535L44.8711 25.5935C44.8711 25.5487 44.8559 25.5023 44.8492 25.4591C44.8324 25.3567 44.8156 25.2575 44.7971 25.1599C44.7417 24.8607 44.6829 24.5503 44.6191 24.2383V24.2127C44.5552 23.8927 44.4897 23.5839 44.4191 23.2719V23.2511C44.3906 23.1167 44.3603 22.9855 44.3284 22.8527L44.2931 22.7055L44.2327 22.4511L44.1823 22.2527L44.1722 22.2111C44.105 21.9487 44.0361 21.6911 43.9655 21.4479L42.7979 20.8623C42.9323 21.3535 43.06 21.8943 43.181 22.4479C43.0412 22.5176 42.9123 22.6053 42.7979 22.7087C42.5191 22.9455 42.5291 23.4495 42.808 24.0463C43.58 25.7528 44.0075 27.5826 44.068 29.4399C44.1033 30.1935 44.1251 30.9567 44.1352 31.6975H45.3112C45.2776 29.8623 45.1701 27.8847 44.9719 26.3007Z" fill="black"/>
<path d="M39.3571 17.1748L38.6969 18.1348L37.7998 19.4388C37.9153 19.5508 38.0091 19.6814 38.077 19.8244C38.245 20.1444 38.376 20.3748 37.6822 20.8244C37.5343 20.9204 37.5293 21.0724 37.5629 21.2404C37.6032 21.4452 37.7309 21.6596 38.4768 21.5332C39.1977 21.4011 39.8557 21.0536 40.3551 20.5412C40.6037 20.3028 40.5466 20.1252 40.3063 19.8788C39.6276 19.1828 39.4243 18.0708 39.3571 17.1748Z" fill="#FF8B7B"/>
<path d="M37.7715 21.5569L38.2469 21.8417L39.0197 21.5297C38.8375 21.3546 38.6027 21.2377 38.3477 21.1953C38.1256 21.2655 37.9268 21.3902 37.7715 21.5569Z" fill="#263238"/>
<path d="M38.3389 21.1957C38.6933 21.3349 38.8714 21.6485 39.0327 22.0101C39.0327 22.0101 40.7312 20.7845 40.7665 19.9765C40.6757 19.7013 40.2507 19.7493 40.2507 19.7493C40.2507 19.7493 39.7333 20.6037 38.3389 21.1957Z" fill="white"/>
<path d="M38.3391 21.1956C38.1735 21.2594 38.0328 21.3707 37.9365 21.514C37.8401 21.6573 37.793 21.8256 37.8015 21.9956C37.8015 21.9956 37.0455 21.1508 37.6604 20.5124C37.8272 20.429 38.0045 20.3661 38.1879 20.3252C38.1879 20.3252 38.0031 20.6772 38.3391 21.1956Z" fill="white"/>
<path d="M38.396 21.709H38.1793C38.1087 21.8242 38.0113 23.325 37.9727 24.1234C38.0765 24.5895 38.229 25.0446 38.4279 25.4818C38.4273 25.4871 38.4273 25.4925 38.4279 25.4978C38.4397 25.5234 38.4515 25.5474 38.4649 25.5714C38.4884 25.6194 38.5119 25.6674 38.5388 25.7122C38.6164 25.2165 38.7372 24.7279 38.9 24.2514C38.6783 23.3266 38.396 21.709 38.396 21.709Z" fill="#263238"/>
<path opacity="0.2" d="M38.0218 19.1171L38.5729 18.1875C38.583 18.2099 38.5964 18.2371 38.6098 18.2627C38.6582 18.3787 38.6975 18.498 38.7274 18.6195C38.8282 19.0339 38.4922 19.6227 38.121 19.8995C38.1058 19.8739 38.0924 19.8467 38.0773 19.8195C38.0112 19.6852 37.9258 19.5602 37.8236 19.4483L37.8018 19.4323L38.0218 19.1171Z" fill="black"/>
<path d="M35.3368 17.12C35.2041 16.552 36.1533 15.7664 36.1533 15.7664L35.0294 15.3936C34.522 15.7408 34.8513 16.7312 35.3368 17.12Z" fill="#263238"/>
<path d="M39.1239 15.4784C39.3893 16.8992 39.6279 17.7184 39.0668 18.6256C38.8909 18.9235 38.6329 19.1699 38.3206 19.3382C38.0083 19.5065 37.6536 19.5902 37.295 19.5803C36.9363 19.5704 36.5873 19.4673 36.2858 19.2821C35.9842 19.0969 35.7416 18.8367 35.5841 18.5296C34.9541 17.3584 34.6265 15.2336 35.9084 14.3008C36.18 14.0923 36.5044 13.9553 36.8491 13.9038C37.1939 13.8523 37.5467 13.8879 37.8724 14.0072C38.1981 14.1265 38.4851 14.3252 38.7048 14.5834C38.9244 14.8416 39.069 15.1503 39.1239 15.4784Z" fill="#FF8B7B"/>
<path d="M39.1438 16.915L38.4382 16.731V15.867C38.4382 15.867 37.5461 15.387 37.6839 14.787C37.7522 14.4497 37.8483 14.118 37.9712 13.795C37.9712 13.795 39.3857 13.7086 39.8192 13.8814C39.7069 13.9973 39.585 14.1043 39.4546 14.2014C39.7938 14.4249 40.0847 14.7085 40.3114 15.0366C40.1343 15.0742 39.9687 15.1503 39.8276 15.259C39.8276 15.259 40.0124 16.4446 39.1438 16.915Z" fill="#263238"/>
<path d="M37.521 12.8737C38.0401 13.1841 37.7394 13.7537 37.7394 13.7537L39.1288 13.7809C39.0548 13.3633 37.8503 12.8529 37.521 12.8737Z" fill="#263238"/>
<path d="M38.0632 15.0788C37.9641 15.3444 36.8385 15.6708 35.812 15.7028C35.3004 15.6922 34.7941 15.6014 34.3135 15.434C34.4584 15.2922 34.6292 15.1767 34.8175 15.0932C34.1976 14.9476 33.413 14.4292 33.1963 14.0068C33.6489 13.8527 34.1379 13.8228 34.6075 13.9204C34.4538 13.7968 34.3275 13.6453 34.2361 13.4747C34.1446 13.3041 34.0898 13.1178 34.0749 12.9268C34.0749 12.9268 36.7024 13.9188 37.7138 13.5076C38.8125 13.0596 39.6475 13.8996 38.9251 14.5396C38.2027 15.1796 38.0632 15.0788 38.0632 15.0788Z" fill="#263238"/>
<path d="M39.9268 16.5074C39.9411 16.8207 39.8341 17.1282 39.6261 17.3714C39.354 17.6802 38.9306 17.4338 38.8332 17.0514C38.7458 16.7042 38.86 16.1682 39.2179 16.0018C39.5757 15.8354 39.9084 16.1186 39.9268 16.5074Z" fill="#FF8B7B"/>
<path d="M36.8527 16.7997C36.8896 16.9117 36.8527 17.0221 36.7855 17.0493C36.7183 17.0765 36.6175 17.0061 36.5788 16.8893C36.5402 16.7725 36.5788 16.6669 36.646 16.6397C36.7132 16.6125 36.814 16.6813 36.8527 16.7997Z" fill="#263238"/>
<path d="M35.5504 17.2481C35.5874 17.3585 35.5504 17.4705 35.4832 17.4961C35.416 17.5217 35.3152 17.4545 35.2766 17.3361C35.2379 17.2177 35.2766 17.1137 35.3438 17.0881C35.411 17.0625 35.5118 17.1361 35.5504 17.2481Z" fill="#263238"/>
<path d="M35.9955 17.1885C36.0009 17.5196 35.9603 17.8499 35.8745 18.1709C35.9598 18.1881 36.048 18.1872 36.1328 18.1681C36.2176 18.149 36.297 18.1123 36.3651 18.0605L35.9955 17.1885Z" fill="#A02724"/>
<path d="M36.7918 18.4883C36.9267 18.4452 37.0512 18.3769 37.1579 18.2873C37.2647 18.1978 37.3516 18.0887 37.4134 17.9667C37.4168 17.9582 37.4165 17.9488 37.4128 17.9405C37.409 17.9321 37.402 17.9255 37.3932 17.9219C37.389 17.9201 37.3843 17.9191 37.3796 17.919C37.3749 17.9188 37.3702 17.9196 37.3658 17.9213C37.3614 17.9229 37.3574 17.9254 37.3541 17.9285C37.3507 17.9316 37.348 17.9354 37.3462 17.9395C37.278 18.0718 37.1787 18.1874 37.0561 18.2773C36.9334 18.3672 36.7907 18.429 36.6389 18.4579C36.6342 18.4589 36.6298 18.4607 36.6258 18.4633C36.6219 18.4659 36.6186 18.4693 36.6161 18.4732C36.6136 18.4771 36.6119 18.4814 36.6112 18.486C36.6105 18.4905 36.6108 18.4951 36.612 18.4995C36.6141 18.5082 36.6196 18.5158 36.6275 18.5206C36.6354 18.5254 36.6449 18.527 36.654 18.5251C36.7008 18.5157 36.7468 18.5034 36.7918 18.4883Z" fill="#263238"/>
<path d="M37.1409 16.1437C37.1513 16.1378 37.16 16.1295 37.1661 16.1197C37.1714 16.1122 37.1751 16.1039 37.177 16.0951C37.1789 16.0863 37.1789 16.0772 37.177 16.0684C37.1751 16.0596 37.1714 16.0513 37.1661 16.0438C37.1607 16.0364 37.1539 16.0301 37.146 16.0253C37.0515 15.9651 36.9431 15.9278 36.8301 15.9166C36.717 15.9055 36.6029 15.9208 36.4975 15.9613C36.4889 15.9651 36.4812 15.9706 36.4748 15.9773C36.4684 15.9841 36.4635 15.9919 36.4603 16.0005C36.4571 16.009 36.4557 16.0181 36.4561 16.0271C36.4566 16.0362 36.459 16.0451 36.4631 16.0533C36.4671 16.0615 36.4729 16.0688 36.4799 16.0749C36.487 16.081 36.4952 16.0857 36.5042 16.0887C36.5132 16.0918 36.5227 16.0931 36.5322 16.0926C36.5417 16.0922 36.551 16.0899 36.5597 16.0861C36.642 16.0556 36.7309 16.0447 36.8187 16.0541C36.9065 16.0636 36.9905 16.0932 37.0637 16.1405C37.0749 16.1479 37.0881 16.1522 37.1018 16.1527C37.1155 16.1533 37.1291 16.1502 37.1409 16.1437Z" fill="#263238"/>
<path d="M35.2914 16.5746C35.2946 16.5636 35.2946 16.552 35.2914 16.541C35.284 16.5243 35.2699 16.5111 35.2523 16.5042C35.2347 16.4973 35.2149 16.4973 35.1973 16.5042C35.0915 16.5433 34.9975 16.6068 34.9236 16.6888C34.8498 16.7709 34.7984 16.8691 34.7739 16.9746C34.7735 16.9912 34.7794 17.0074 34.7905 17.0202C34.8015 17.0329 34.8171 17.0415 34.8343 17.0442C34.8515 17.0469 34.8691 17.0437 34.8839 17.035C34.8988 17.0263 34.9098 17.0128 34.9151 16.997C34.936 16.9147 34.9775 16.8384 35.036 16.7746C35.0945 16.7109 35.1682 16.6614 35.2511 16.6306C35.2623 16.6254 35.2719 16.6175 35.279 16.6077C35.2861 16.5979 35.2903 16.5865 35.2914 16.5746Z" fill="#263238"/>
<path d="M43.5976 20.7522C43.7824 20.9698 43.9437 21.1666 44.1016 21.3762C44.2595 21.5858 44.4242 21.7938 44.5787 22.0066C44.8929 22.4306 45.1852 22.8706 45.4708 23.3186C45.7564 23.7666 46.0219 24.2338 46.2604 24.7282C46.5194 25.2411 46.7248 25.7771 46.8736 26.3282C46.9572 26.6487 47.0012 26.9773 47.0047 27.3074C47.0005 27.6375 46.9508 27.9657 46.8568 28.2834C46.6895 28.8366 46.4455 29.3661 46.1311 29.8578C45.9866 30.093 45.8303 30.3186 45.6674 30.5362C45.5044 30.7538 45.3314 30.965 45.1634 31.1682C44.8127 31.5768 44.4315 31.9608 44.0227 32.317C43.9204 32.4038 43.7889 32.4531 43.6519 32.456C43.515 32.4588 43.3814 32.4151 43.2752 32.3327C43.169 32.2502 43.0971 32.1344 43.0725 32.006C43.0478 31.8777 43.072 31.7451 43.1407 31.6322L43.1558 31.6082C43.6775 30.8021 44.1335 29.9591 44.5199 29.0866C44.6933 28.6934 44.8196 28.2828 44.8963 27.8626C44.9244 27.6939 44.9317 27.5226 44.9181 27.3522C44.8979 27.1836 44.8596 27.0174 44.8039 26.8562C44.6586 26.4471 44.4759 26.0509 44.2579 25.6722C44.0344 25.2706 43.7824 24.8722 43.5136 24.4674C43.2448 24.0626 42.9626 23.6674 42.6736 23.2786L42.2318 22.693C42.0839 22.5026 41.9294 22.2994 41.7899 22.125L41.7799 22.1122C41.5905 21.8835 41.5043 21.5925 41.5402 21.3033C41.5761 21.014 41.7312 20.7502 41.9714 20.5698C42.2115 20.3895 42.5171 20.3074 42.8208 20.3416C43.1245 20.3758 43.4015 20.5235 43.5909 20.7522H43.5976Z" fill="#5649A5"/>
<path d="M27.5904 32.5552L41.8839 31.9392C41.929 31.9363 41.9742 31.9422 42.0168 31.9564C42.0595 31.9707 42.0987 31.9929 42.1321 32.0219C42.1655 32.0509 42.1924 32.086 42.2113 32.1251C42.2301 32.1642 42.2404 32.2065 42.2417 32.2496L27.2645 32.8896C27.2625 32.8471 27.2693 32.8048 27.2847 32.7649C27.3 32.725 27.3236 32.6884 27.3539 32.6573C27.3842 32.6262 27.4208 32.6011 27.4614 32.5836C27.502 32.5661 27.5459 32.5564 27.5904 32.5552Z" fill="#5649A5"/>
<g opacity="0.6">
<path d="M27.5904 32.5552L41.8839 31.9392C41.929 31.9363 41.9742 31.9422 42.0168 31.9564C42.0595 31.9707 42.0987 31.9929 42.1321 32.0219C42.1655 32.0509 42.1924 32.086 42.2113 32.1251C42.2301 32.1642 42.2404 32.2065 42.2417 32.2496L27.2645 32.8896C27.2625 32.8471 27.2693 32.8048 27.2847 32.7649C27.3 32.725 27.3236 32.6884 27.3539 32.6573C27.3842 32.6262 27.4208 32.6011 27.4614 32.5836C27.502 32.5661 27.5459 32.5564 27.5904 32.5552Z" fill="white"/>
</g>
<path d="M25.3156 26.2402L35.4846 25.8018C35.5499 25.8026 35.6133 25.8226 35.6662 25.8589C35.7191 25.8953 35.7589 25.9463 35.7803 26.005L37.7325 31.9042C37.743 31.9285 37.747 31.955 37.7442 31.9812C37.7414 32.0074 37.7319 32.0325 37.7164 32.0544C37.7009 32.0762 37.6801 32.0941 37.6556 32.1064C37.6312 32.1187 37.6039 32.1251 37.5762 32.125L27.4072 32.5634C27.3423 32.5628 27.2793 32.5431 27.2266 32.507C27.174 32.4709 27.1344 32.4202 27.1132 32.3618L25.161 26.461C25.1506 26.4367 25.1465 26.4104 25.1493 26.3843C25.152 26.3582 25.1614 26.3332 25.1767 26.3114C25.1919 26.2896 25.2126 26.2717 25.2368 26.2593C25.261 26.2469 25.2881 26.2403 25.3156 26.2402Z" fill="#5649A5"/>
<path opacity="0.6" d="M25.3156 26.2402L35.4846 25.8018C35.5499 25.8026 35.6133 25.8226 35.6662 25.8589C35.7191 25.8953 35.7589 25.9463 35.7803 26.005L37.7325 31.9042C37.743 31.9285 37.747 31.955 37.7442 31.9812C37.7414 32.0074 37.7319 32.0325 37.7164 32.0544C37.7009 32.0762 37.6801 32.0941 37.6556 32.1064C37.6312 32.1187 37.6039 32.1251 37.5762 32.125L27.4072 32.5634C27.3423 32.5628 27.2793 32.5431 27.2266 32.507C27.174 32.4709 27.1344 32.4202 27.1132 32.3618L25.161 26.461C25.1506 26.4367 25.1465 26.4104 25.1493 26.3843C25.152 26.3582 25.1614 26.3332 25.1767 26.3114C25.1919 26.2896 25.2126 26.2717 25.2368 26.2593C25.261 26.2469 25.2881 26.2403 25.3156 26.2402Z" fill="white"/>
<path opacity="0.5" d="M35.784 26.003L37.7361 31.9022C37.747 31.9266 37.7513 31.9533 37.7487 31.9797C37.746 32.0061 37.7366 32.0315 37.7211 32.0536C37.7056 32.0756 37.6845 32.0937 37.6599 32.1061C37.6352 32.1185 37.6078 32.1248 37.5799 32.1246L35.4883 25.7998C35.5535 25.8006 35.6169 25.8206 35.6698 25.857C35.7227 25.8933 35.7626 25.9443 35.784 26.003Z" fill="#5649A5"/>
<path opacity="0.5" d="M38.1255 32.1011L41.8836 31.9411C41.9287 31.9383 41.9739 31.9442 42.0166 31.9584C42.0592 31.9726 42.0984 31.9949 42.1318 32.0238C42.1653 32.0528 42.1922 32.0879 42.211 32.127C42.2299 32.1662 42.2402 32.2085 42.2415 32.2515L37.7995 32.4419C37.7966 32.399 37.8028 32.3559 37.8177 32.3153C37.8326 32.2747 37.856 32.2373 37.8864 32.2055C37.9168 32.1737 37.9537 32.1481 37.9948 32.1301C38.0358 32.1122 38.0803 32.1023 38.1255 32.1011Z" fill="#5649A5"/>
<path d="M42.8736 31.5649L41.9126 31.6977L42.8971 33.0017C42.8971 33.0017 44.4612 32.7633 44.2797 32.1025L43.9437 31.8369C43.7952 31.7228 43.6233 31.6396 43.4389 31.5928C43.2546 31.5459 43.062 31.5364 42.8736 31.5649Z" fill="#FF8B7B"/>
<path d="M40.7363 32.0877L41.9409 33.0877L42.8968 33.0013L41.9123 31.6973L40.7363 32.0877Z" fill="#FF8B7B"/>
</g>
<defs>
<clipPath id="clip0_497_319">
<rect width="71" height="68" fill="white"/>
</clipPath>
</defs>
</svg>
