<svg width="71" height="68" viewBox="0 0 71 68" fill="none" xmlns="http://www.w3.org/2000/svg">
<g clip-path="url(#clip0_497_817)">
<path d="M84 61.1836H0V61.2236H84V61.1836Z" fill="#EBEBEB"/>
<path d="M75.5832 63.7578H70.019V63.7978H75.5832V63.7578Z" fill="#EBEBEB"/>
<path d="M55.645 64.1934H54.1851V64.2334H55.645V64.1934Z" fill="#EBEBEB"/>
<path d="M69.8511 62.2734H66.6272V62.3134H69.8511V62.2734Z" fill="#EBEBEB"/>
<path d="M16.0692 62.542H8.81323V62.582H16.0692V62.542Z" fill="#EBEBEB"/>
<path d="M18.6296 62.542H17.5662V62.582H18.6296V62.542Z" fill="#EBEBEB"/>
<path d="M37.8252 63.2178H22.0869V63.2578H37.8252V63.2178Z" fill="#EBEBEB"/>
<path d="M39.8159 54.0478H7.37679C7.12266 54.0474 6.8791 53.9509 6.69956 53.7797C6.52003 53.6084 6.41919 53.3762 6.41919 53.1342V9.7054C6.4214 9.46477 6.52321 9.23468 6.70251 9.06512C6.88181 8.89556 7.12411 8.80022 7.37679 8.7998H39.8159C40.0703 8.7998 40.3143 8.89606 40.4942 9.06739C40.6741 9.23873 40.7752 9.4711 40.7752 9.7134V53.1342C40.7752 53.3765 40.6741 53.6089 40.4942 53.7802C40.3143 53.9516 40.0703 54.0478 39.8159 54.0478ZM7.37679 8.8318C7.1338 8.83223 6.90092 8.92446 6.72926 9.08824C6.5576 9.25203 6.46119 9.47399 6.46119 9.7054V53.1342C6.46119 53.3656 6.5576 53.5876 6.72926 53.7514C6.90092 53.9152 7.1338 54.0074 7.37679 54.0078H39.8159C40.0591 54.0074 40.2921 53.9152 40.464 53.7515C40.636 53.5877 40.7327 53.3658 40.7332 53.1342V9.7054C40.7327 9.47384 40.636 9.25188 40.464 9.08814C40.2921 8.9244 40.0591 8.83223 39.8159 8.8318H7.37679Z" fill="#EBEBEB"/>
<path d="M76.1562 54.0478H43.7154C43.4611 54.0474 43.2174 53.951 43.0376 53.7798C42.8578 53.6085 42.7565 53.3764 42.7561 53.1342V9.7054C42.7588 9.46462 42.8609 9.23454 43.0405 9.06502C43.2201 8.8955 43.4625 8.80021 43.7154 8.7998H76.1562C76.4086 8.80064 76.6504 8.89616 76.8294 9.06568C77.0083 9.2352 77.1099 9.46505 77.1121 9.7054V53.1342C77.1121 53.3759 77.0115 53.6078 76.8323 53.7791C76.6532 53.9503 76.41 54.047 76.1562 54.0478ZM43.7154 8.8318C43.4722 8.83223 43.2392 8.9244 43.0673 9.08814C42.8953 9.25188 42.7985 9.47384 42.7981 9.7054V53.1342C42.7985 53.3658 42.8953 53.5877 43.0673 53.7515C43.2392 53.9152 43.4722 54.0074 43.7154 54.0078H76.1562C76.3993 54.0074 76.6324 53.9152 76.8043 53.7515C76.9762 53.5877 77.073 53.3658 77.0735 53.1342V9.7054C77.073 9.47384 76.9762 9.25188 76.8043 9.08814C76.6324 8.9244 76.3993 8.83223 76.1562 8.8318H43.7154Z" fill="#EBEBEB"/>
<path d="M60.3656 30.4394C65.2294 30.4394 69.1722 26.6844 69.1722 22.0522C69.1722 17.4201 65.2294 13.665 60.3656 13.665C55.5019 13.665 51.5591 17.4201 51.5591 22.0522C51.5591 26.6844 55.5019 30.4394 60.3656 30.4394Z" fill="#E0E0E0"/>
<path d="M59.6972 30.4394C64.5609 30.4394 68.5037 26.6844 68.5037 22.0522C68.5037 17.4201 64.5609 13.665 59.6972 13.665C54.8335 13.665 50.8906 17.4201 50.8906 22.0522C50.8906 26.6844 54.8335 30.4394 59.6972 30.4394Z" fill="#F5F5F5"/>
<path d="M65.4532 27.5352C68.6319 24.5079 68.6319 19.5996 65.4532 16.5722C62.2745 13.5449 57.1208 13.5449 53.9421 16.5722C50.7634 19.5996 50.7634 24.5079 53.9421 27.5352C57.1208 30.5625 62.2745 30.5625 65.4532 27.5352Z" fill="white"/>
<path d="M61.0849 27.694C61.0406 27.6941 60.9976 27.6799 60.9628 27.6537C60.928 27.6276 60.9036 27.591 60.8933 27.55L59.5057 22.0972C59.4958 22.0495 59.5057 22.0001 59.5332 21.9592C59.5606 21.9183 59.6036 21.889 59.6531 21.8775C59.7026 21.8659 59.7549 21.873 59.7991 21.8973C59.8433 21.9215 59.876 21.961 59.8904 22.0076L61.2764 27.462C61.2885 27.5106 61.28 27.5618 61.2526 27.6043C61.2252 27.6469 61.1812 27.6774 61.1302 27.6892C61.1153 27.6924 61.1001 27.694 61.0849 27.694Z" fill="#F5F5F5"/>
<path d="M59.6972 22.4288C59.6454 22.4288 59.5941 22.4191 59.5462 22.4001C59.4984 22.3812 59.4549 22.3534 59.4184 22.3184L54.6556 17.7824C54.6189 17.7474 54.5899 17.7059 54.5701 17.6602C54.5503 17.6146 54.5402 17.5656 54.5403 17.5162C54.5404 17.4165 54.5822 17.3208 54.6564 17.2504C54.7306 17.18 54.8311 17.1405 54.9359 17.1406C55.0406 17.1408 55.141 17.1806 55.215 17.2512L59.6972 21.5216L62.313 19.0304C62.3872 18.96 62.4877 18.9205 62.5925 18.9206C62.6972 18.9208 62.7976 18.9606 62.8716 19.0312C62.9456 19.1019 62.987 19.1976 62.9869 19.2974C62.9867 19.3971 62.9449 19.4928 62.8708 19.5632L59.9761 22.3184C59.9022 22.389 59.8019 22.4287 59.6972 22.4288Z" fill="#EBEBEB"/>
<path d="M37.2121 60.0156H38.5393V51.3596H37.2121V60.0156Z" fill="#F0F0F0"/>
<path d="M10.3672 61.1836H37.6638V60.0156H10.3672V61.1836Z" fill="#F0F0F0"/>
<path d="M37.2119 51.3594H9.49023V60.0154H37.2119V51.3594Z" fill="#F5F5F5"/>
<path d="M35.4178 52.8672H11.283V57.8112H35.4178V52.8672Z" fill="#F0F0F0"/>
<path d="M17.4805 53.5273H29.2237C29.4436 53.5273 29.6218 53.3576 29.6218 53.1481V53.0777C29.6218 52.8683 29.4436 52.6985 29.2237 52.6985H17.4805C17.2606 52.6985 17.0823 52.8683 17.0823 53.0777V53.1481C17.0823 53.3576 17.2606 53.5273 17.4805 53.5273Z" fill="#F5F5F5"/>
<path d="M8.88207 51.3594H37.2119V50.5866H8.88207V51.3594Z" fill="#F0F0F0"/>
<path d="M39.1758 50.5869H37.2119V51.3597H39.1758V50.5869Z" fill="#E6E6E6"/>
<path d="M72.188 42.2207H69.6008V61.1839H72.188V42.2207Z" fill="#F0F0F0"/>
<path d="M46.9561 61.1836H69.6008V42.2204H46.9561V61.1836Z" fill="#F5F5F5"/>
<path d="M46.7493 59.5186H66.6304V49.3762H46.7493V59.5186Z" fill="#FAFAFA"/>
<path d="M46.7493 48.3008H66.6304V44.9616H46.7493V48.3008Z" fill="#FAFAFA"/>
<g style="mix-blend-mode:multiply" opacity="0.7">
<path d="M66.8085 49.376H66.6304V59.5184H66.8085V49.376Z" fill="#E6E6E6"/>
</g>
<g style="mix-blend-mode:multiply" opacity="0.7">
<path d="M66.8085 44.9609H66.6304V48.3001H66.8085V44.9609Z" fill="#E6E6E6"/>
</g>
<g style="mix-blend-mode:multiply" opacity="0.7">
<path d="M72.188 43.0205H46.8989V43.4493H72.188V43.0205Z" fill="#E6E6E6"/>
</g>
<path d="M72.4904 41.9609H69.6008V43.2009H72.4904V41.9609Z" fill="#F0F0F0"/>
<path d="M46.6537 43.2012H69.6008V41.9612H46.6537V43.2012Z" fill="#F5F5F5"/>
<path d="M55.2618 38.3106C55.1058 38.0764 55.0028 37.8137 54.9594 37.5394C54.9139 37.2654 54.8992 36.9875 54.9158 36.7106C54.9517 36.1595 55.0752 35.6168 55.282 35.101C55.3804 34.845 55.4926 34.594 55.618 34.349C55.7524 34.109 55.8868 33.869 56.038 33.6402C56.1892 33.4114 56.3555 33.1906 56.5269 32.9762C56.6982 32.7618 56.8914 32.5618 57.0914 32.3682C56.9939 32.6258 56.878 32.869 56.7554 33.1122C56.6327 33.3554 56.537 33.6002 56.4194 33.837L56.0934 34.557L55.9439 34.9202L55.8666 35.101L55.7994 35.2834C55.6075 35.7641 55.4553 36.2584 55.3442 36.7618C55.2864 37.0133 55.2471 37.2683 55.2266 37.525C55.2015 37.7872 55.2133 38.0514 55.2618 38.3106Z" fill="#E6E6E6"/>
<path d="M52.001 38.7343C52.0226 38.348 51.987 37.9607 51.8952 37.5839C51.8093 37.2403 51.6408 36.9205 51.403 36.6495C51.1494 36.3809 50.8494 36.1558 50.5159 35.9839C50.1715 35.7935 49.7918 35.6447 49.4004 35.4687C49.8354 35.4245 50.2753 35.4692 50.6906 35.5999C50.9052 35.6668 51.1105 35.7581 51.3022 35.8719C51.4981 35.992 51.6751 36.138 51.828 36.3055C52.1331 36.6481 52.3103 37.0775 52.332 37.5263C52.3551 37.9518 52.2395 38.3737 52.001 38.7343Z" fill="#E6E6E6"/>
<path d="M52.1473 38.6784C52.133 38.2281 52.0887 37.7792 52.0146 37.3344C51.9452 36.9104 51.8216 36.4961 51.6466 36.1008C51.4715 35.7121 51.2309 35.3532 50.9343 35.0384C50.6142 34.7129 50.2582 34.421 49.8726 34.168C50.3694 34.2413 50.8381 34.4353 51.2334 34.7312C51.6386 35.0377 51.9568 35.4359 52.159 35.8896C52.3585 36.336 52.4575 36.8173 52.4497 37.3024C52.4526 37.7763 52.3495 38.2454 52.1473 38.6784Z" fill="#E6E6E6"/>
<path d="M55.0384 37.8605C54.6735 37.4095 54.3635 36.9205 54.1144 36.4029C53.8612 35.8866 53.6528 35.3515 53.4911 34.8029C53.3276 34.2528 53.219 33.6892 53.1669 33.1197C53.1119 32.5502 53.1396 31.9763 53.2492 31.4141C53.3718 31.9757 53.4659 32.5181 53.6003 33.0573C53.7347 33.5965 53.8691 34.1277 54.0287 34.6573C54.1883 35.1869 54.3496 35.7165 54.5226 36.2461C54.6957 36.7757 54.8721 37.3133 55.0384 37.8605Z" fill="#E6E6E6"/>
<path d="M54.8873 37.8208C54.4714 37.4333 54.1008 37.0042 53.7819 36.5408C53.4626 36.0787 53.1817 35.5935 52.9419 35.0896C52.6987 34.5845 52.5053 34.0591 52.364 33.52C52.2209 32.98 52.1559 32.4239 52.1708 31.8672C52.3824 32.3888 52.5656 32.8944 52.7823 33.392C52.999 33.8896 53.214 34.3824 53.4543 34.8704C53.6945 35.3584 53.9264 35.8448 54.1716 36.3344C54.4169 36.824 54.6538 37.312 54.8873 37.8208Z" fill="#E6E6E6"/>
<path d="M55.5123 38.3324C55.0412 38.0949 54.6037 37.8013 54.2103 37.4588C53.814 37.1186 53.4524 36.7437 53.13 36.3388C52.8011 35.9362 52.5195 35.5006 52.29 35.0396C52.0604 34.5791 51.9074 34.0873 51.8364 33.582C52.1254 34.0124 52.3807 34.4332 52.6764 34.8348C52.9721 35.2364 53.2577 35.6348 53.5719 36.0172C53.886 36.3996 54.2002 36.7836 54.5261 37.1644C54.852 37.5452 55.183 37.9324 55.5123 38.3324Z" fill="#E6E6E6"/>
<path d="M54.5999 37.8239C54.1422 37.6444 53.7179 37.3959 53.3433 37.0879C52.9654 36.7851 52.6269 36.4402 52.3353 36.0607C52.1871 35.8714 52.0502 35.6743 51.9254 35.4703C51.8037 35.2634 51.6955 35.0497 51.6011 34.8303C51.4079 34.3957 51.2893 33.9343 51.25 33.4639C51.5138 33.8655 51.7305 34.2639 51.9926 34.6383C52.1102 34.8319 52.2513 35.0111 52.3739 35.1999C52.4966 35.3887 52.6394 35.5647 52.7838 35.7407C53.0616 36.0969 53.3528 36.4463 53.6574 36.7887C53.9531 37.1359 54.2639 37.4735 54.5999 37.8239Z" fill="#E6E6E6"/>
<path d="M55.3156 38.0976C55.0983 37.9515 54.9246 37.7541 54.8116 37.5248C54.6949 37.2959 54.6129 37.0524 54.568 36.8016C54.484 36.3042 54.4988 35.7962 54.6117 35.304C54.6661 35.0624 54.7333 34.8237 54.8133 34.5888C54.9091 34.36 54.9947 34.128 55.109 33.9088C55.2232 33.6896 55.3442 33.4752 55.4803 33.2688C55.6202 33.0642 55.771 32.8666 55.9322 32.6768C55.8784 32.9184 55.8028 33.1472 55.7306 33.376C55.6583 33.6048 55.5979 33.8352 55.5189 34.0576C55.4399 34.28 55.3929 34.5104 55.3207 34.7328L55.2383 35.0704C55.2098 35.1824 55.1762 35.2944 55.1594 35.408C55.058 35.8522 55.0062 36.3054 55.0048 36.76C55.0027 36.987 55.0241 37.2137 55.0687 37.4368C55.1106 37.6689 55.1942 37.8924 55.3156 38.0976Z" fill="#E6E6E6"/>
<path d="M55.0033 37.5874C54.635 37.2125 54.368 36.7578 54.2254 36.2626C54.0703 35.7627 54.0207 35.2385 54.0793 34.7202C54.0877 34.5906 54.1213 34.4642 54.1431 34.3362L54.1818 34.1442L54.2405 33.9586C54.2842 33.8354 54.3212 33.7122 54.3699 33.5922C54.4186 33.4722 54.4825 33.357 54.5379 33.2418L54.6286 33.0706L54.7378 32.9106L54.9596 32.5906C55.1254 32.3937 55.3044 32.2072 55.4955 32.0322C55.4081 32.2738 55.2922 32.493 55.1982 32.7202L55.0654 33.061L54.9982 33.221L54.9445 33.3938C54.9092 33.5074 54.8722 33.621 54.8336 33.733L54.7513 34.077L54.7076 34.2482L54.6824 34.421C54.6673 34.5362 54.637 34.6514 54.6303 34.7666C54.5791 35.2324 54.5859 35.7023 54.6505 36.1666C54.7127 36.6512 54.831 37.1277 55.0033 37.5874Z" fill="#E6E6E6"/>
<path d="M54.2942 37.3916L51.8867 35.3516L52.2429 38.1212L54.2942 37.3916Z" fill="#E6E6E6"/>
<path d="M49.6541 37.0186H56.6395L55.7239 41.961H50.5697L49.6541 37.0186Z" fill="#F5F5F5"/>
<path d="M54.0188 37.0186H56.6396L55.724 41.961H54.3481L54.0188 37.0186Z" fill="#EBEBEB"/>
<path d="M62.8085 38.32C62.8414 38.1015 62.8317 37.8792 62.7799 37.664C62.7355 37.4581 62.6661 37.2579 62.5733 37.0672C62.385 36.6846 62.1462 36.3265 61.8627 36.0016C61.7988 35.9136 61.7165 35.8416 61.6443 35.7568C61.572 35.672 61.4981 35.5968 61.4208 35.512C61.2528 35.352 61.1083 35.192 60.942 35.032C60.7757 34.872 60.6161 34.712 60.4481 34.552C60.2801 34.392 60.1121 34.232 59.9441 34.0576C60.1709 34.1392 60.3859 34.24 60.6043 34.3424C60.8162 34.4534 61.022 34.5746 61.2209 34.7056C61.3211 34.771 61.4176 34.8415 61.5099 34.9168C61.6039 34.9904 61.6963 35.0672 61.7887 35.1424C61.9679 35.3034 62.1362 35.4749 62.2927 35.656C62.6153 36.026 62.8508 36.4576 62.9832 36.9216C63.0469 37.1565 63.0691 37.3998 63.0487 37.6416C63.0373 37.8848 62.954 38.1199 62.8085 38.32Z" fill="#E6E6E6"/>
<path d="M66.7364 37.6497C66.5593 37.5044 66.4284 37.3149 66.3584 37.1025C66.3196 36.9931 66.2942 36.8799 66.2828 36.7649C66.2794 36.7063 66.2794 36.6475 66.2828 36.5889C66.2808 36.5303 66.2864 36.4718 66.2996 36.4145C66.3983 35.9594 66.648 35.5465 67.0119 35.2369C67.0959 35.1585 67.1917 35.0961 67.2807 35.0257C67.3693 34.9556 67.4637 34.8925 67.563 34.8369C67.6604 34.7825 67.7578 34.7265 67.8586 34.6769C67.9074 34.6513 67.9561 34.6225 68.0082 34.6001L68.1627 34.5377C68.2669 34.4961 68.371 34.4577 68.4752 34.4193C68.5788 34.3794 68.6855 34.3473 68.7944 34.3233C69.0108 34.2696 69.2301 34.2269 69.4513 34.1953C69.2776 34.3263 69.0964 34.4481 68.9086 34.5601C68.8162 34.6129 68.7289 34.6721 68.6415 34.7329C68.5542 34.7937 68.4735 34.8481 68.3761 34.9041C68.193 35.0081 68.0401 35.1409 67.8721 35.2529C67.7882 35.3089 67.7085 35.3704 67.6335 35.4369C67.5562 35.5009 67.4655 35.5585 67.4017 35.6257C67.1107 35.8707 66.8811 36.1747 66.7297 36.5153C66.6976 36.601 66.6718 36.6887 66.6524 36.7777C66.6369 36.8703 66.6291 36.9639 66.6289 37.0577C66.6288 37.2595 66.6652 37.4597 66.7364 37.6497Z" fill="#E6E6E6"/>
<path d="M66.5566 37.6493C66.2531 37.2729 66.0879 36.8119 66.0862 36.3373C66.0792 35.8512 66.2092 35.3722 66.4625 34.9501L66.6641 34.6461C66.7414 34.5517 66.8237 34.4621 66.906 34.3725L67.032 34.2397L67.1698 34.1245L67.452 33.8989C67.6515 33.7671 67.8585 33.6459 68.072 33.5357C68.2911 33.4411 68.5154 33.3578 68.744 33.2861C68.576 33.4557 68.408 33.6061 68.2282 33.7501C68.0484 33.8941 67.9023 34.0589 67.7444 34.2109C67.6704 34.2941 67.5982 34.3709 67.5226 34.4525L67.41 34.5693L67.3143 34.6973C67.2504 34.7821 67.1799 34.8573 67.1177 34.9469L66.9497 35.2109C66.7367 35.567 66.5927 35.9567 66.5247 36.3613C66.4551 36.7891 66.4659 37.2252 66.5566 37.6493Z" fill="#E6E6E6"/>
<path d="M63.0234 37.8866C63.1629 37.3922 63.3141 36.9154 63.4602 36.4466C63.6064 35.9778 63.7492 35.4994 63.8802 35.0258C64.0113 34.5522 64.1205 34.0754 64.2162 33.5858C64.312 33.0962 64.3641 32.6258 64.4094 32.1074C64.586 32.596 64.6691 33.1109 64.6547 33.6274C64.6345 34.1417 64.5562 34.6523 64.4212 35.1506C64.2842 35.6459 64.0991 36.128 63.8685 36.5906C63.643 37.0537 63.3593 37.4889 63.0234 37.8866Z" fill="#E6E6E6"/>
<path d="M63.1982 37.8064C63.4166 37.3264 63.6518 36.8464 63.8837 36.3872C64.1155 35.928 64.349 35.4608 64.5725 34.9968C64.7959 34.5328 65.011 34.0672 65.2109 33.5952C65.4108 33.1232 65.5822 32.6352 65.7502 32.1328C65.8021 32.664 65.7618 33.1997 65.6309 33.7184C65.4984 34.2342 65.3144 34.7368 65.0815 35.2192C64.8476 35.6978 64.574 36.158 64.2634 36.5952C63.9557 37.0347 63.5986 37.4408 63.1982 37.8064Z" fill="#E6E6E6"/>
<path d="M62.5144 38.4159C62.842 37.9871 63.1864 37.5823 63.5224 37.1775C63.8584 36.7727 64.1944 36.3775 64.5203 35.9695C64.8462 35.5615 65.1654 35.1567 65.4712 34.7375C65.777 34.3183 66.0558 33.8863 66.3398 33.4287C66.2654 33.9575 66.1002 34.471 65.8509 34.9487C65.6011 35.4232 65.304 35.8738 64.9638 36.2943C64.6234 36.7108 64.2487 37.1008 63.8433 37.4607C63.4382 37.8243 62.9926 38.1446 62.5144 38.4159Z" fill="#E6E6E6"/>
<path d="M63.5427 37.718C63.8636 37.3356 64.1845 36.974 64.5003 36.6076C64.8162 36.2412 65.1219 35.878 65.421 35.5084C65.72 35.1388 65.9972 34.758 66.261 34.3692C66.5247 33.9804 66.765 33.5692 67.0237 33.1436C66.9859 33.6354 66.8586 34.1173 66.6474 34.5676C66.437 35.0172 66.1714 35.4415 65.8561 35.8316C65.5436 36.2197 65.1913 36.5772 64.8044 36.8988C64.4237 37.2237 63.9994 37.4991 63.5427 37.718Z" fill="#E6E6E6"/>
<path d="M62.7211 38.1642C62.9034 37.8172 62.9912 37.432 62.9764 37.0442C62.9542 36.6741 62.8548 36.3118 62.6841 35.9786L62.627 35.849L62.5547 35.7242L62.4136 35.4714C62.3011 35.3114 62.2003 35.1402 62.0776 34.9754C61.955 34.8106 61.8441 34.6458 61.7198 34.481C61.5892 34.3152 61.4676 34.1433 61.3552 33.9658C61.5484 34.067 61.7357 34.1781 61.9163 34.2986C62.0925 34.4263 62.2608 34.5636 62.4203 34.7098C62.5 34.7841 62.5747 34.8632 62.6438 34.9466C62.7155 35.0288 62.786 35.112 62.8555 35.1962L63.0352 35.473L63.1209 35.6138L63.1915 35.7642C63.3964 36.1698 63.4724 36.6236 63.4099 37.0698C63.38 37.2875 63.3035 37.497 63.185 37.6852C63.0665 37.8735 62.9086 38.0366 62.7211 38.1642Z" fill="#E6E6E6"/>
<path d="M63.0335 37.6541C63.1717 37.2576 63.2663 36.8485 63.3157 36.4333C63.3611 36.0463 63.3309 35.6547 63.2267 35.2781C63.1743 35.0925 63.1011 34.9128 63.0083 34.7421C62.9159 34.5661 62.8068 34.3985 62.6824 34.2413C62.4149 33.9084 62.1218 33.595 61.8054 33.3037C62.2556 33.4307 62.6681 33.6565 63.01 33.9629C63.1882 34.1191 63.3431 34.2978 63.4703 34.4941C63.6014 34.6924 63.701 34.9081 63.766 35.1341C63.8925 35.5864 63.8849 36.0633 63.7441 36.5117C63.6169 36.9454 63.3718 37.3395 63.0335 37.6541Z" fill="#E6E6E6"/>
<path d="M63.8552 37.2753L66.4827 34.8721L66.3769 37.2289L63.8552 37.2753Z" fill="#E6E6E6"/>
<path d="M60.9807 37.0186H67.9662L67.0505 41.961H61.8963L60.9807 37.0186Z" fill="#F5F5F5"/>
<path d="M65.3435 37.0186H67.966L67.0504 41.961H65.6745L65.3435 37.0186Z" fill="#EBEBEB"/>
<path d="M17.4501 14.5146V40.4346C17.4501 41.5125 17.0005 42.5462 16.2002 43.3083C15.4 44.0705 14.3146 44.4986 13.1829 44.4986H33.0069C34.1387 44.4986 35.2243 44.0705 36.0248 43.3084C36.8253 42.5463 37.2753 41.5126 37.2757 40.4346V14.5146H17.4501Z" fill="#F5F5F5"/>
<path d="M34.1645 21.0762H21.3545V33.2762H34.1645V21.0762Z" fill="#F0F0F0"/>
<path d="M33.7714 20.7002H20.9614V32.9002H33.7714V20.7002Z" fill="white"/>
<path d="M24.1064 34.707H20.8489V37.8094H24.1064V34.707Z" fill="white"/>
<path d="M33.7697 34.707H30.5122V37.8094H33.7697V34.707Z" fill="white"/>
<path d="M28.9379 34.707H25.6804V37.8094H28.9379V34.707Z" fill="white"/>
<path d="M37.2792 14.5146H17.4502V17.5994H37.2792V14.5146Z" fill="#F0F0F0"/>
<path d="M18.648 13.5247V15.5055C18.6477 15.578 18.6626 15.6499 18.6916 15.7169C18.7207 15.784 18.7634 15.8449 18.8172 15.8963C18.8711 15.9476 18.9351 15.9882 19.0055 16.0159C19.0759 16.0435 19.1514 16.0577 19.2276 16.0575C19.3037 16.0575 19.379 16.0432 19.4494 16.0154C19.5197 15.9877 19.5836 15.947 19.6374 15.8958C19.6912 15.8445 19.7339 15.7837 19.763 15.7167C19.7922 15.6497 19.8072 15.5779 19.8072 15.5055V13.5247C19.8067 13.3784 19.7455 13.2382 19.6369 13.1348C19.5283 13.0314 19.3811 12.9731 19.2276 12.9727C19.0738 12.9727 18.9264 13.0308 18.8177 13.1343C18.709 13.2379 18.648 13.3783 18.648 13.5247Z" fill="#E6E6E6"/>
<path d="M34.9307 13.5247V15.5055C34.9307 15.6519 34.9917 15.7923 35.1004 15.8958C35.2091 15.9993 35.3565 16.0575 35.5103 16.0575C35.5864 16.0577 35.6619 16.0435 35.7323 16.0159C35.8028 15.9882 35.8667 15.9476 35.9206 15.8963C35.9745 15.8449 36.0171 15.784 36.0462 15.7169C36.0752 15.6499 36.0901 15.578 36.0899 15.5055V13.5247C36.0899 13.3783 36.0288 13.2379 35.9201 13.1343C35.8114 13.0308 35.664 12.9727 35.5103 12.9727C35.3567 12.9731 35.2095 13.0314 35.1009 13.1348C34.9923 13.2382 34.9311 13.3784 34.9307 13.5247Z" fill="#E6E6E6"/>
<path d="M31.6731 13.5247V15.5055C31.6731 15.5779 31.6881 15.6497 31.7172 15.7167C31.7463 15.7837 31.789 15.8445 31.8429 15.8958C31.8967 15.947 31.9606 15.9877 32.0309 16.0154C32.1012 16.0432 32.1766 16.0575 32.2527 16.0575C32.3288 16.0575 32.4042 16.0432 32.4745 16.0154C32.5448 15.9877 32.6087 15.947 32.6625 15.8958C32.7164 15.8445 32.759 15.7837 32.7882 15.7167C32.8173 15.6497 32.8323 15.5779 32.8323 15.5055V13.5247C32.8319 13.3789 32.7711 13.2393 32.6632 13.1359C32.5554 13.0326 32.4091 12.9739 32.2561 12.9727C32.1797 12.9724 32.1041 12.9866 32.0335 13.0142C31.9629 13.0418 31.8987 13.0824 31.8445 13.1337C31.7904 13.1849 31.7474 13.2458 31.718 13.3129C31.6886 13.38 31.6733 13.452 31.6731 13.5247Z" fill="#E6E6E6"/>
<path d="M28.4155 13.5247V15.5055C28.4153 15.578 28.4301 15.6499 28.4592 15.7169C28.4882 15.784 28.5309 15.8449 28.5848 15.8963C28.6387 15.9476 28.7026 15.9882 28.7731 16.0159C28.8435 16.0435 28.919 16.0577 28.9951 16.0575C29.1478 16.0562 29.2938 15.9974 29.4011 15.894C29.5085 15.7906 29.5685 15.6509 29.568 15.5055V13.5247C29.568 13.3785 29.5072 13.2384 29.3988 13.1349C29.2905 13.0314 29.1435 12.9731 28.9901 12.9727C28.8372 12.9739 28.6911 13.0326 28.5835 13.136C28.4759 13.2394 28.4155 13.3791 28.4155 13.5247Z" fill="#E6E6E6"/>
<path d="M25.158 13.5247V15.5055C25.1577 15.5779 25.1725 15.6496 25.2015 15.7166C25.2304 15.7835 25.2729 15.8444 25.3266 15.8957C25.3803 15.947 25.4441 15.9876 25.5143 16.0154C25.5846 16.0432 25.6598 16.0575 25.7359 16.0575C25.8121 16.0577 25.8875 16.0435 25.9579 16.0159C26.0284 15.9882 26.0923 15.9476 26.1462 15.8963C26.2001 15.8449 26.2428 15.784 26.2718 15.7169C26.3009 15.6499 26.3157 15.578 26.3155 15.5055V13.5247C26.3155 13.3783 26.2544 13.2379 26.1457 13.1343C26.037 13.0308 25.8896 12.9727 25.7359 12.9727C25.5825 12.9731 25.4355 13.0314 25.3271 13.1349C25.2188 13.2384 25.158 13.3785 25.158 13.5247Z" fill="#E6E6E6"/>
<path d="M21.8987 13.5247V15.5055C21.8987 15.5779 21.9137 15.6497 21.9428 15.7167C21.9719 15.7837 22.0146 15.8445 22.0684 15.8958C22.1223 15.947 22.1862 15.9877 22.2565 16.0154C22.3268 16.0432 22.4022 16.0575 22.4783 16.0575C22.5544 16.0575 22.6298 16.0432 22.7001 16.0154C22.7704 15.9877 22.8343 15.947 22.8881 15.8958C22.9419 15.8445 22.9846 15.7837 23.0138 15.7167C23.0429 15.6497 23.0579 15.5779 23.0579 15.5055V13.5247C23.0574 13.3784 22.9962 13.2382 22.8876 13.1348C22.779 13.0314 22.6319 12.9731 22.4783 12.9727C22.3247 12.9731 22.1775 13.0314 22.0689 13.1348C21.9603 13.2382 21.8991 13.3784 21.8987 13.5247Z" fill="#E6E6E6"/>
<path d="M31.2261 42.79C31.2261 43.2411 31.4143 43.6737 31.7492 43.9927C32.0841 44.3116 32.5383 44.4908 33.012 44.4908H10.6999C10.2263 44.4908 9.77203 44.3116 9.43712 43.9927C9.10221 43.6737 8.91406 43.2411 8.91406 42.79H31.2261Z" fill="#E6E6E6"/>
<path d="M42 68.4095C59.9899 68.4095 74.5736 67.5986 74.5736 66.5983C74.5736 65.598 59.9899 64.7871 42 64.7871C24.0102 64.7871 9.42651 65.598 9.42651 66.5983C9.42651 67.5986 24.0102 68.4095 42 68.4095Z" fill="#F5F5F5"/>
<path opacity="0.2" d="M45.2911 51.3174C45.2911 51.3174 32.9448 58.2598 32.9448 64.8374H57.6408C57.6391 58.2598 45.2911 51.3174 45.2911 51.3174Z" fill="#4C75D2"/>
<path opacity="0.2" d="M45.2911 59.6006C45.2911 59.6006 33.8906 62.2902 33.8906 64.8374H56.6916C56.6916 62.2902 45.2911 59.6006 45.2911 59.6006Z" fill="#4C75D2"/>
<path opacity="0.3" d="M46.7898 53.2344C49.1082 55.4056 53.614 60.2168 53.614 64.8376H50.5244C50.5244 60.2168 48.0582 55.4056 46.7898 53.2344Z" fill="white"/>
<path opacity="0.2" d="M45.2911 51.3169C45.2911 51.3169 32.9448 44.3745 32.9448 37.7969H57.6408C57.6391 44.3745 45.2911 51.3169 45.2911 51.3169Z" fill="#4C75D2"/>
<path opacity="0.2" d="M45.2912 50.6834C45.2912 50.6834 38.9878 47.8034 38.9878 45.0674H51.5962C51.5962 47.7986 45.2912 50.6834 45.2912 50.6834Z" fill="#4C75D2"/>
<path opacity="0.3" d="M43.9456 49.4001C41.6289 47.2289 37.1282 42.4177 37.1282 37.7969H40.2177C40.211 42.4177 42.6722 47.2289 43.9456 49.4001Z" fill="white"/>
<path opacity="0.3" d="M46.7898 49.4001C49.1082 47.2289 53.5014 41.8609 53.614 37.7969H52.7908C52.4044 42.7521 48.6244 47.2993 46.7898 49.4001Z" fill="white"/>
<path d="M55.9624 35.4756H54.563V35.6356H55.9624V35.4756Z" fill="#4C75D2"/>
<path d="M60.7135 37.674H60.5455C60.5451 37.1338 60.3197 36.6158 59.9188 36.2337C59.5178 35.8515 58.9741 35.6364 58.4069 35.6356H56.9302V35.4756H58.4069C59.0185 35.4769 59.6047 35.7089 60.0371 36.121C60.4694 36.533 60.7127 37.0915 60.7135 37.674Z" fill="#4C75D2"/>
<path d="M58.4053 36.0352H32.1771C31.227 36.0352 30.4568 36.7687 30.4568 37.6736V37.92C30.4568 38.8248 31.227 39.5584 32.1771 39.5584H58.4053C59.3554 39.5584 60.1256 38.8248 60.1256 37.92V37.6736C60.1256 36.7687 59.3554 36.0352 58.4053 36.0352Z" fill="#4C75D2"/>
<path d="M58.4053 63.0752H32.1771C31.227 63.0752 30.4568 63.8087 30.4568 64.7136V64.96C30.4568 65.8649 31.227 66.5984 32.1771 66.5984H58.4053C59.3554 66.5984 60.1256 65.8649 60.1256 64.96V64.7136C60.1256 63.8087 59.3554 63.0752 58.4053 63.0752Z" fill="#4C75D2"/>
<path d="M23.641 48.7231L22.502 47.7599L24.444 44.9199L25.5831 45.8815L23.641 48.7231Z" fill="#FF8B7B"/>
<path d="M22.7372 47.1484L24.1854 48.1084C24.1977 48.1158 24.2084 48.1254 24.2169 48.1367C24.2254 48.148 24.2314 48.1608 24.2347 48.1743C24.238 48.1878 24.2384 48.2018 24.236 48.2155C24.2336 48.2292 24.2284 48.2423 24.2206 48.254L23.4949 49.3932C23.4531 49.4505 23.3893 49.4899 23.3173 49.5027C23.2453 49.5156 23.1709 49.501 23.1102 49.462C22.6062 49.1212 22.4197 48.9548 21.8166 48.4908C21.2204 48.0446 20.6485 47.5699 20.103 47.0684C19.6561 46.6268 20.1282 46.1996 20.365 46.3516C20.9245 46.7132 21.8972 47.1116 22.46 47.0796C22.5579 47.0723 22.6555 47.0965 22.7372 47.1484Z" fill="#263238"/>
<path opacity="0.2" d="M25.5814 45.8831L24.4424 44.9199L23.5083 46.2879L24.6759 47.2111L25.5814 45.8831Z" fill="black"/>
<path d="M37.17 31.6964C37.17 31.6964 29.526 31.1988 28.5785 33.666C26.4231 39.2756 23.6191 45.226 23.6191 45.226L25.872 46.7796C25.872 46.7796 30.6348 39.8436 32.088 35.3908C35.028 36.0708 40.3435 36.6516 42.0555 34.7796C43.5171 33.1796 42.4234 31.6964 42.4234 31.6964H37.17Z" fill="#263238"/>
<path opacity="0.3" d="M30.6232 36.0557C30.4451 36.7405 30.1746 38.7021 30.0066 40.0029C30.3779 39.3181 30.7307 38.6237 31.0482 37.9453L30.6232 36.0557Z" fill="black"/>
<path d="M25.7276 47.4819L23.1724 45.5747L23.6948 44.5059L26.5508 46.5843L25.7276 47.4819Z" fill="#4C75D2"/>
<path d="M22.124 47.0605C22.2424 47.134 22.3685 47.1957 22.5003 47.2445C22.5068 47.2467 22.5139 47.2471 22.5207 47.2456C22.5274 47.2441 22.5336 47.2409 22.5386 47.2362C22.5435 47.2315 22.5469 47.2256 22.5484 47.2192C22.55 47.2127 22.5496 47.206 22.5473 47.1997C22.5255 47.1453 22.334 46.6669 22.1341 46.6205C22.1111 46.6155 22.0872 46.6161 22.0646 46.6223C22.042 46.6285 22.0214 46.64 22.0047 46.6557C21.9766 46.6769 21.9548 46.7048 21.9415 46.7365C21.9283 46.7683 21.924 46.8027 21.9291 46.8365C21.9631 46.9314 22.0324 47.0111 22.124 47.0605ZM22.4482 47.1485C22.1844 47.0397 22.0198 46.9197 22.0013 46.8285C21.9984 46.8063 22.0019 46.7837 22.0114 46.7631C22.0208 46.7425 22.0359 46.7248 22.0551 46.7117C22.0629 46.7038 22.0727 46.698 22.0836 46.6949C22.0946 46.6918 22.1062 46.6915 22.1172 46.6941C22.2248 46.7197 22.3642 46.9581 22.4482 47.1485Z" fill="#4C75D2"/>
<path d="M22.4919 47.2401C22.4974 47.2417 22.5032 47.2417 22.5087 47.2401C22.5149 47.2408 22.5213 47.24 22.5271 47.2377C22.533 47.2355 22.5382 47.2319 22.5423 47.2273C22.554 47.2145 22.8396 46.8801 22.7976 46.6737C22.7921 46.6474 22.7803 46.6225 22.7631 46.6012C22.7459 46.5798 22.7238 46.5625 22.6985 46.5505C22.6727 46.5351 22.6423 46.5282 22.612 46.5308C22.5816 46.5334 22.553 46.5454 22.5305 46.5649C22.4028 46.6785 22.4079 47.0625 22.4835 47.2209C22.4846 47.2279 22.4875 47.2345 22.4919 47.2401ZM22.6783 46.6273C22.6905 46.635 22.7009 46.6449 22.709 46.6564C22.7171 46.668 22.7226 46.6809 22.7254 46.6945C22.7506 46.8161 22.6145 47.0257 22.5255 47.1409C22.4784 46.9809 22.4935 46.6961 22.5759 46.6225C22.5927 46.6081 22.6162 46.5937 22.6649 46.6225L22.6783 46.6273Z" fill="#4C75D2"/>
<path d="M33.6841 50.4014L32.2141 50.6814L31.9419 46.9326L33.4354 46.9774L33.6841 50.4014Z" fill="#FF8B7B"/>
<path d="M32.0141 50.1701L33.6941 49.4965C33.7078 49.4901 33.7228 49.4863 33.7381 49.4855C33.7534 49.4847 33.7687 49.4868 33.7831 49.4917C33.7975 49.4967 33.8108 49.5043 33.822 49.5142C33.8333 49.5241 33.8423 49.536 33.8486 49.5493L34.4904 50.7781C34.5198 50.8446 34.5206 50.9194 34.4926 50.9865C34.4646 51.0535 34.4102 51.1074 34.3409 51.1365C33.7529 51.3621 33.4606 51.4405 32.7231 51.7381C32.2695 51.9205 31.0431 52.4485 30.3879 52.6037C29.7327 52.7589 29.5848 52.1333 29.8502 52.0117C30.4786 51.7237 31.5202 50.8453 31.8007 50.3605C31.8485 50.2769 31.9233 50.2101 32.0141 50.1701Z" fill="#263238"/>
<path d="M31.5959 50.6308C31.7283 50.5732 31.8539 50.5024 31.9706 50.4196C31.9763 50.4154 31.9808 50.4097 31.9835 50.4032C31.9861 50.3967 31.9869 50.3897 31.9857 50.3828C31.9837 50.3761 31.9798 50.37 31.9745 50.3652C31.9692 50.3604 31.9626 50.3571 31.9554 50.3556C31.895 50.3428 31.3506 50.2388 31.1978 50.3796C31.1803 50.3957 31.1676 50.4158 31.1608 50.4379C31.1541 50.4601 31.1535 50.4836 31.1591 50.506C31.1629 50.5406 31.1762 50.5737 31.1978 50.6018C31.2193 50.6299 31.2483 50.6521 31.2818 50.666C31.3874 50.6918 31.4994 50.6792 31.5959 50.6308ZM31.853 50.41C31.6094 50.57 31.4094 50.6388 31.3103 50.602C31.2882 50.5924 31.2693 50.5771 31.2557 50.5579C31.242 50.5387 31.2342 50.5163 31.233 50.4932C31.2298 50.4823 31.2296 50.4708 31.2326 50.4599C31.2355 50.4489 31.2415 50.4389 31.2498 50.4308C31.3322 50.3556 31.6346 50.3748 31.853 50.41Z" fill="#4C75D2"/>
<path d="M31.9622 50.4245C31.9679 50.4217 31.973 50.4179 31.9773 50.4133C31.9801 50.4081 31.9815 50.4023 31.9815 50.3965C31.9815 50.3906 31.9801 50.3849 31.9773 50.3797C31.9773 50.3621 31.8227 49.9397 31.611 49.8613C31.5838 49.8509 31.5544 49.8468 31.5252 49.8493C31.496 49.8518 31.4679 49.8609 31.443 49.8757C31.4136 49.8882 31.3895 49.9099 31.3748 49.9373C31.3601 49.9647 31.3558 49.996 31.3624 50.0261C31.396 50.1861 31.7505 50.4021 31.937 50.4261C31.9453 50.4287 31.9543 50.4281 31.9622 50.4245ZM31.5035 49.9301C31.5173 49.9245 31.5322 49.9217 31.5472 49.9217C31.5622 49.9217 31.577 49.9245 31.5909 49.9301C31.7169 49.9765 31.8328 50.2053 31.8899 50.3429C31.7219 50.2901 31.4649 50.1253 31.443 50.0133C31.443 49.9925 31.443 49.9653 31.4884 49.9397L31.5035 49.9301Z" fill="#4C75D2"/>
<path opacity="0.2" d="M33.4371 46.979L31.9419 46.9326L32.0847 48.891L33.5732 48.8654L33.4371 46.979Z" fill="black"/>
<path d="M40.8829 31.6963C40.8829 31.6963 29.9629 32.6803 30.3561 35.8115C30.9306 40.3283 31.3506 48.2371 31.3506 48.2371L34.1344 48.3411C34.1344 48.3411 35.1793 41.3875 34.5678 36.7619C37.3953 36.7619 43.5373 36.9043 44.6176 35.5123C45.8994 33.8611 45.3064 31.6963 45.3064 31.6963H40.8829Z" fill="#263238"/>
<path d="M34.4418 48.5043L31.1002 48.3459L30.981 46.9619L34.645 47.2019L34.4418 48.5043Z" fill="#4C75D2"/>
<path d="M38.4587 22.5267C38.4352 22.8131 38.4083 23.0675 38.3714 23.3347C38.3344 23.6019 38.2991 23.8627 38.2555 24.1267C38.1748 24.6531 38.0639 25.1763 37.9396 25.7027C37.8153 26.2291 37.6624 26.7539 37.4709 27.2835C37.2765 27.8406 37.0214 28.3768 36.7099 28.8835C36.5239 29.1815 36.298 29.4553 36.0379 29.6979C35.969 29.7592 35.8966 29.8169 35.8211 29.8707C35.7523 29.9251 35.6834 29.9715 35.6128 30.0179C35.4785 30.1081 35.3388 30.1909 35.1945 30.2659C34.6617 30.5419 34.0982 30.7603 33.5145 30.9171C33.2373 30.9987 32.9584 31.0643 32.6745 31.1235C32.3906 31.1827 32.1201 31.2339 31.8345 31.2755C31.2786 31.3621 30.7175 31.4155 30.1545 31.4355C30.0157 31.441 29.8795 31.3986 29.7711 31.3159C29.6626 31.2332 29.5893 31.1158 29.5647 30.9856C29.5401 30.8554 29.5659 30.7211 29.6373 30.6076C29.7086 30.4941 29.8208 30.4091 29.9529 30.3683L29.9747 30.3603C30.9599 30.0634 31.9264 29.713 32.8694 29.3107C33.303 29.1238 33.718 28.8999 34.1092 28.6419C34.1983 28.5811 34.2772 28.5187 34.3579 28.4563C34.3948 28.4259 34.4335 28.3955 34.4654 28.3635C34.4952 28.338 34.5232 28.3107 34.5494 28.2819C34.6609 28.1534 34.7567 28.0133 34.835 27.8643C35.0388 27.4699 35.2025 27.0579 35.3239 26.6339C35.4599 26.1843 35.5775 25.7155 35.675 25.2387C35.7724 24.7619 35.8598 24.2787 35.9421 23.7891C36.0244 23.2995 36.0866 22.8003 36.1437 22.3363V22.3091C36.1858 22.0285 36.34 21.7742 36.5742 21.5994C36.8084 21.4245 37.1045 21.3426 37.4006 21.3706C37.6967 21.3987 37.97 21.5347 38.1634 21.7501C38.3569 21.9655 38.4554 22.2437 38.4386 22.5267H38.4587Z" fill="#4C75D2"/>
<path d="M30.2099 30.0801L29.3699 30.1297L30.0419 31.6017C30.0419 31.6017 31.4951 31.5713 31.4648 30.8897L31.2028 30.5697C31.0828 30.4261 30.9324 30.3082 30.7613 30.2238C30.5901 30.1394 30.4022 30.0905 30.2099 30.0801Z" fill="#FF8B7B"/>
<path d="M28.4492 30.2512L29.175 31.6048H30.0402L29.3682 30.1328L28.4492 30.2512Z" fill="#FF8B7B"/>
<path d="M38.3376 20.258L39.9621 19.938L41.2557 19.7604C41.4406 19.7316 41.6283 19.7236 41.8152 19.7364C42.3116 19.7793 42.7825 19.9654 43.1649 20.2698C43.5474 20.5743 43.8232 20.9827 43.9555 21.4404C44.2797 22.5604 44.572 23.9348 44.7955 25.1524C45.108 26.8436 45.2692 29.3844 45.2995 31.6948H37.6034C37.4354 27.5108 36.5013 24.8148 36.1838 23.1428C36.0882 22.638 36.1694 22.1173 36.415 21.6608C36.6606 21.2043 37.0569 20.8373 37.5429 20.6164L38.3376 20.258Z" fill="#4C75D2"/>
<path d="M37.6035 21.1772C37.622 21.8652 37.7715 24.318 38.546 25.7116C38.6821 24.406 40.31 20.4316 40.31 20.4316L37.6035 21.1772Z" fill="#F5F5F5"/>
<path opacity="0.3" d="M44.9721 26.3007C44.9721 26.2751 44.9721 26.2511 44.962 26.2239L44.9469 26.1087C44.9385 26.0463 44.9301 25.9839 44.9217 25.9247L44.8965 25.7535L44.8713 25.5935C44.8713 25.5487 44.8562 25.5023 44.8495 25.4591C44.8327 25.3567 44.8159 25.2575 44.7974 25.1599C44.7419 24.8607 44.6831 24.5503 44.6193 24.2383V24.2127C44.5555 23.8927 44.4899 23.5839 44.4194 23.2719V23.2511C44.3908 23.1167 44.3606 22.9855 44.3287 22.8527L44.2934 22.7055L44.2329 22.4511L44.1825 22.2527L44.1724 22.2111C44.1052 21.9487 44.0363 21.6911 43.9658 21.4479L42.7982 20.8623C42.9326 21.3535 43.0603 21.8943 43.1812 22.4479C43.0415 22.5176 42.9126 22.6053 42.7982 22.7087C42.5193 22.9455 42.5294 23.4495 42.8083 24.0463C43.5802 25.7528 44.0077 27.5826 44.0683 29.4399C44.1035 30.1935 44.1254 30.9567 44.1355 31.6975H45.3115C45.2779 29.8623 45.1703 27.8847 44.9721 26.3007Z" fill="black"/>
<path d="M39.3574 17.1748L38.6971 18.1348L37.8 19.4388C37.9155 19.5508 38.0093 19.6814 38.0772 19.8244C38.2452 20.1444 38.3763 20.3748 37.6824 20.8244C37.5346 20.9204 37.5295 21.0724 37.5631 21.2404C37.6035 21.4452 37.7311 21.6596 38.4771 21.5332C39.198 21.4011 39.8559 21.0536 40.3553 20.5412C40.604 20.3028 40.5468 20.1252 40.3066 19.8788C39.6279 19.1828 39.4246 18.0708 39.3574 17.1748Z" fill="#FF8B7B"/>
<path d="M37.7715 21.5569L38.2469 21.8417L39.0197 21.5297C38.8375 21.3546 38.6027 21.2377 38.3477 21.1953C38.1256 21.2655 37.9268 21.3902 37.7715 21.5569Z" fill="#263238"/>
<path d="M38.3394 21.1957C38.6938 21.3349 38.8719 21.6485 39.0332 22.0101C39.0332 22.0101 40.7317 20.7845 40.767 19.9765C40.6762 19.7013 40.2512 19.7493 40.2512 19.7493C40.2512 19.7493 39.7338 20.6037 38.3394 21.1957Z" fill="white"/>
<path d="M38.3393 21.1956C38.1737 21.2594 38.033 21.3707 37.9367 21.514C37.8404 21.6573 37.7932 21.8256 37.8017 21.9956C37.8017 21.9956 37.0457 21.1508 37.6606 20.5124C37.8275 20.429 38.0047 20.3661 38.1881 20.3252C38.1881 20.3252 38.0033 20.6772 38.3393 21.1956Z" fill="white"/>
<path d="M38.3965 21.709H38.1798C38.1092 21.8242 38.0118 23.325 37.9731 24.1234C38.077 24.5895 38.2295 25.0446 38.4284 25.4818C38.4278 25.4871 38.4278 25.4925 38.4284 25.4978C38.4402 25.5234 38.4519 25.5474 38.4654 25.5714C38.4889 25.6194 38.5124 25.6674 38.5393 25.7122C38.6169 25.2165 38.7377 24.7279 38.9005 24.2514C38.6787 23.3266 38.3965 21.709 38.3965 21.709Z" fill="#263238"/>
<path opacity="0.2" d="M38.0218 19.1171L38.5729 18.1875C38.583 18.2099 38.5964 18.2371 38.6098 18.2627C38.6582 18.3787 38.6975 18.498 38.7274 18.6195C38.8282 19.0339 38.4922 19.6227 38.121 19.8995C38.1058 19.8739 38.0924 19.8467 38.0773 19.8195C38.0112 19.6852 37.9258 19.5602 37.8236 19.4483L37.8018 19.4323L38.0218 19.1171Z" fill="black"/>
<path d="M35.3373 17.12C35.2046 16.552 36.1538 15.7664 36.1538 15.7664L35.0299 15.3936C34.5225 15.7408 34.8518 16.7312 35.3373 17.12Z" fill="#263238"/>
<path d="M39.1239 15.4784C39.3893 16.8992 39.6279 17.7184 39.0668 18.6256C38.8909 18.9235 38.6329 19.1699 38.3206 19.3382C38.0083 19.5065 37.6536 19.5902 37.295 19.5803C36.9363 19.5704 36.5873 19.4673 36.2858 19.2821C35.9842 19.0969 35.7416 18.8367 35.5841 18.5296C34.9541 17.3584 34.6265 15.2336 35.9084 14.3008C36.18 14.0923 36.5044 13.9553 36.8491 13.9038C37.1939 13.8523 37.5467 13.8879 37.8724 14.0072C38.1981 14.1265 38.4851 14.3252 38.7048 14.5834C38.9244 14.8416 39.069 15.1503 39.1239 15.4784Z" fill="#FF8B7B"/>
<path d="M39.1441 16.915L38.4385 16.731V15.867C38.4385 15.867 37.5464 15.387 37.6841 14.787C37.7525 14.4497 37.8485 14.118 37.9714 13.795C37.9714 13.795 39.386 13.7086 39.8194 13.8814C39.7071 13.9973 39.5852 14.1043 39.4549 14.2014C39.7941 14.4249 40.0849 14.7085 40.3117 15.0366C40.1345 15.0742 39.9689 15.1503 39.8278 15.259C39.8278 15.259 40.0126 16.4446 39.1441 16.915Z" fill="#263238"/>
<path d="M37.5212 12.8737C38.0404 13.1841 37.7396 13.7537 37.7396 13.7537L39.129 13.7809C39.0551 13.3633 37.8505 12.8529 37.5212 12.8737Z" fill="#263238"/>
<path d="M38.0637 15.0788C37.9646 15.3444 36.839 15.6708 35.8125 15.7028C35.3009 15.6922 34.7946 15.6014 34.314 15.434C34.4589 15.2922 34.6297 15.1767 34.818 15.0932C34.1981 14.9476 33.4135 14.4292 33.1968 14.0068C33.6494 13.8527 34.1384 13.8228 34.608 13.9204C34.4543 13.7968 34.328 13.6453 34.2366 13.4747C34.1451 13.3041 34.0903 13.1178 34.0754 12.9268C34.0754 12.9268 36.7029 13.9188 37.7143 13.5076C38.813 13.0596 39.648 13.8996 38.9256 14.5396C38.2032 15.1796 38.0637 15.0788 38.0637 15.0788Z" fill="#263238"/>
<path d="M39.9271 16.5074C39.9414 16.8207 39.8344 17.1282 39.6264 17.3714C39.3542 17.6802 38.9308 17.4338 38.8334 17.0514C38.746 16.7042 38.8603 16.1682 39.2181 16.0018C39.576 15.8354 39.9086 16.1186 39.9271 16.5074Z" fill="#FF8B7B"/>
<path d="M36.8527 16.7997C36.8896 16.9117 36.8527 17.0221 36.7855 17.0493C36.7183 17.0765 36.6175 17.0061 36.5788 16.8893C36.5402 16.7725 36.5788 16.6669 36.646 16.6397C36.7132 16.6125 36.814 16.6813 36.8527 16.7997Z" fill="#263238"/>
<path d="M35.5507 17.2481C35.5876 17.3585 35.5507 17.4705 35.4835 17.4961C35.4163 17.5217 35.3155 17.4545 35.2768 17.3361C35.2382 17.2177 35.2768 17.1137 35.344 17.0881C35.4112 17.0625 35.512 17.1361 35.5507 17.2481Z" fill="#263238"/>
<path d="M35.9957 17.1885C36.0012 17.5196 35.9605 17.8499 35.8748 18.1709C35.96 18.1881 36.0482 18.1872 36.133 18.1681C36.2179 18.149 36.2972 18.1123 36.3653 18.0605L35.9957 17.1885Z" fill="#A02724"/>
<path d="M36.7921 18.4883C36.9269 18.4452 37.0514 18.3769 37.1582 18.2873C37.2649 18.1978 37.3518 18.0887 37.4136 17.9667C37.417 17.9582 37.4168 17.9488 37.413 17.9405C37.4093 17.9321 37.4023 17.9255 37.3935 17.9219C37.3892 17.9201 37.3846 17.9191 37.3799 17.919C37.3751 17.9188 37.3705 17.9196 37.3661 17.9213C37.3617 17.9229 37.3577 17.9254 37.3543 17.9285C37.351 17.9316 37.3483 17.9354 37.3465 17.9395C37.2783 18.0718 37.179 18.1874 37.0563 18.2773C36.9337 18.3672 36.7909 18.429 36.6392 18.4579C36.6345 18.4589 36.63 18.4607 36.6261 18.4633C36.6222 18.4659 36.6188 18.4693 36.6163 18.4732C36.6138 18.4771 36.6121 18.4814 36.6115 18.486C36.6108 18.4905 36.611 18.4951 36.6123 18.4995C36.6143 18.5082 36.6199 18.5158 36.6277 18.5206C36.6356 18.5254 36.6452 18.527 36.6543 18.5251C36.701 18.5157 36.747 18.5034 36.7921 18.4883Z" fill="#263238"/>
<path d="M37.1414 16.1437C37.1518 16.1378 37.1605 16.1295 37.1666 16.1197C37.1719 16.1122 37.1756 16.1039 37.1775 16.0951C37.1794 16.0863 37.1793 16.0772 37.1775 16.0684C37.1756 16.0596 37.1719 16.0513 37.1666 16.0438C37.1612 16.0364 37.1544 16.0301 37.1465 16.0253C37.052 15.9651 36.9436 15.9278 36.8306 15.9166C36.7175 15.9055 36.6034 15.9208 36.498 15.9613C36.4894 15.9651 36.4817 15.9706 36.4753 15.9773C36.4689 15.9841 36.464 15.9919 36.4608 16.0005C36.4576 16.009 36.4562 16.0181 36.4566 16.0271C36.4571 16.0362 36.4595 16.0451 36.4635 16.0533C36.4676 16.0615 36.4734 16.0688 36.4804 16.0749C36.4875 16.081 36.4957 16.0857 36.5047 16.0887C36.5137 16.0918 36.5232 16.0931 36.5327 16.0926C36.5422 16.0922 36.5515 16.0899 36.5601 16.0861C36.6425 16.0556 36.7314 16.0447 36.8192 16.0541C36.907 16.0636 36.991 16.0932 37.0641 16.1405C37.0754 16.1479 37.0886 16.1522 37.1023 16.1527C37.116 16.1533 37.1295 16.1502 37.1414 16.1437Z" fill="#263238"/>
<path d="M35.2919 16.5746C35.2951 16.5636 35.2951 16.552 35.2919 16.541C35.2845 16.5243 35.2704 16.5111 35.2528 16.5042C35.2352 16.4973 35.2154 16.4973 35.1978 16.5042C35.092 16.5433 34.998 16.6068 34.9241 16.6888C34.8503 16.7709 34.7989 16.8691 34.7744 16.9746C34.774 16.9912 34.7799 17.0074 34.791 17.0202C34.802 17.0329 34.8176 17.0415 34.8348 17.0442C34.852 17.0469 34.8696 17.0437 34.8844 17.035C34.8993 17.0263 34.9103 17.0128 34.9156 16.997C34.9365 16.9147 34.978 16.8384 35.0364 16.7746C35.0949 16.7109 35.1687 16.6614 35.2516 16.6306C35.2628 16.6254 35.2724 16.6175 35.2795 16.6077C35.2865 16.5979 35.2908 16.5865 35.2919 16.5746Z" fill="#263238"/>
<path d="M43.5979 20.7522C43.7827 20.9698 43.9439 21.1666 44.1019 21.3762C44.2598 21.5858 44.4244 21.7938 44.579 22.0066C44.8931 22.4306 45.1855 22.8706 45.4711 23.3186C45.7567 23.7666 46.0221 24.2338 46.2607 24.7282C46.5196 25.2411 46.725 25.7771 46.8739 26.3282C46.9574 26.6487 47.0014 26.9773 47.0049 27.3074C47.0007 27.6375 46.951 27.9657 46.8571 28.2834C46.6898 28.8366 46.4457 29.3661 46.1313 29.8578C45.9868 30.093 45.8306 30.3186 45.6676 30.5362C45.5047 30.7538 45.3316 30.965 45.1636 31.1682C44.8129 31.5768 44.4317 31.9608 44.0229 32.317C43.9206 32.4038 43.7892 32.4531 43.6522 32.456C43.5152 32.4588 43.3816 32.4151 43.2754 32.3327C43.1692 32.2502 43.0973 32.1344 43.0727 32.006C43.048 31.8777 43.0722 31.7451 43.1409 31.6322L43.156 31.6082C43.6777 30.8021 44.1338 29.9591 44.5202 29.0866C44.6936 28.6934 44.8198 28.2828 44.8965 27.8626C44.9246 27.6939 44.9319 27.5226 44.9183 27.3522C44.8981 27.1836 44.8598 27.0174 44.8041 26.8562C44.6588 26.4471 44.4761 26.0509 44.2581 25.6722C44.0347 25.2706 43.7827 24.8722 43.5139 24.4674C43.2451 24.0626 42.9628 23.6674 42.6739 23.2786L42.232 22.693C42.0842 22.5026 41.9296 22.2994 41.7902 22.125L41.7801 22.1122C41.5907 21.8835 41.5045 21.5925 41.5405 21.3033C41.5764 21.014 41.7315 20.7502 41.9716 20.5698C42.2118 20.3895 42.5173 20.3074 42.8211 20.3416C43.1248 20.3758 43.4018 20.5235 43.5911 20.7522H43.5979Z" fill="#4C75D2"/>
<path d="M27.5907 32.5552L41.8841 31.9392C41.9292 31.9363 41.9744 31.9422 42.0171 31.9564C42.0597 31.9707 42.0989 31.9929 42.1323 32.0219C42.1657 32.0509 42.1927 32.086 42.2115 32.1251C42.2303 32.1642 42.2407 32.2065 42.242 32.2496L27.2648 32.8896C27.2627 32.8471 27.2696 32.8048 27.2849 32.7649C27.3003 32.725 27.3238 32.6884 27.3541 32.6573C27.3845 32.6262 27.421 32.6011 27.4616 32.5836C27.5022 32.5661 27.5461 32.5564 27.5907 32.5552Z" fill="#4C75D2"/>
<g opacity="0.6">
<path d="M27.5907 32.5552L41.8841 31.9392C41.9292 31.9363 41.9744 31.9422 42.0171 31.9564C42.0597 31.9707 42.0989 31.9929 42.1323 32.0219C42.1657 32.0509 42.1927 32.086 42.2115 32.1251C42.2303 32.1642 42.2407 32.2065 42.242 32.2496L27.2648 32.8896C27.2627 32.8471 27.2696 32.8048 27.2849 32.7649C27.3003 32.725 27.3238 32.6884 27.3541 32.6573C27.3845 32.6262 27.421 32.6011 27.4616 32.5836C27.5022 32.5661 27.5461 32.5564 27.5907 32.5552Z" fill="white"/>
</g>
<path d="M25.3161 26.2402L35.4851 25.8018C35.5504 25.8026 35.6137 25.8226 35.6666 25.8589C35.7196 25.8953 35.7594 25.9463 35.7808 26.005L37.733 31.9042C37.7435 31.9285 37.7475 31.955 37.7447 31.9812C37.7419 32.0074 37.7323 32.0325 37.7169 32.0544C37.7014 32.0762 37.6806 32.0941 37.6561 32.1064C37.6316 32.1187 37.6044 32.1251 37.5767 32.125L27.4077 32.5634C27.3428 32.5628 27.2797 32.5431 27.2271 32.507C27.1745 32.4709 27.1348 32.4202 27.1137 32.3618L25.1615 26.461C25.1511 26.4367 25.147 26.4104 25.1498 26.3843C25.1525 26.3582 25.1619 26.3332 25.1771 26.3114C25.1924 26.2896 25.2131 26.2717 25.2373 26.2593C25.2615 26.2469 25.2886 26.2403 25.3161 26.2402Z" fill="#4C75D2"/>
<path opacity="0.6" d="M25.3161 26.2402L35.4851 25.8018C35.5504 25.8026 35.6137 25.8226 35.6666 25.8589C35.7196 25.8953 35.7594 25.9463 35.7808 26.005L37.733 31.9042C37.7435 31.9285 37.7475 31.955 37.7447 31.9812C37.7419 32.0074 37.7323 32.0325 37.7169 32.0544C37.7014 32.0762 37.6806 32.0941 37.6561 32.1064C37.6316 32.1187 37.6044 32.1251 37.5767 32.125L27.4077 32.5634C27.3428 32.5628 27.2797 32.5431 27.2271 32.507C27.1745 32.4709 27.1348 32.4202 27.1137 32.3618L25.1615 26.461C25.1511 26.4367 25.147 26.4104 25.1498 26.3843C25.1525 26.3582 25.1619 26.3332 25.1771 26.3114C25.1924 26.2896 25.2131 26.2717 25.2373 26.2593C25.2615 26.2469 25.2886 26.2403 25.3161 26.2402Z" fill="white"/>
<path opacity="0.5" d="M35.784 26.003L37.7361 31.9022C37.747 31.9266 37.7513 31.9533 37.7487 31.9797C37.746 32.0061 37.7366 32.0315 37.7211 32.0536C37.7056 32.0756 37.6845 32.0937 37.6599 32.1061C37.6352 32.1185 37.6078 32.1248 37.5799 32.1246L35.4883 25.7998C35.5535 25.8006 35.6169 25.8206 35.6698 25.857C35.7227 25.8933 35.7626 25.9443 35.784 26.003Z" fill="#4C75D2"/>
<path opacity="0.5" d="M38.126 32.1011L41.8841 31.9411C41.9292 31.9383 41.9744 31.9442 42.0171 31.9584C42.0597 31.9726 42.0989 31.9949 42.1323 32.0238C42.1657 32.0528 42.1927 32.0879 42.2115 32.127C42.2303 32.1662 42.2407 32.2085 42.242 32.2515L37.8 32.4419C37.7971 32.399 37.8033 32.3559 37.8182 32.3153C37.8331 32.2747 37.8565 32.2373 37.8869 32.2055C37.9173 32.1737 37.9542 32.1481 37.9953 32.1301C38.0363 32.1122 38.0808 32.1023 38.126 32.1011Z" fill="#4C75D2"/>
<path d="M42.8736 31.5649L41.9126 31.6977L42.8971 33.0017C42.8971 33.0017 44.4612 32.7633 44.2797 32.1025L43.9437 31.8369C43.7952 31.7228 43.6233 31.6396 43.4389 31.5928C43.2546 31.5459 43.062 31.5364 42.8736 31.5649Z" fill="#FF8B7B"/>
<path d="M40.7368 32.0877L41.9414 33.0877L42.8973 33.0013L41.9128 31.6973L40.7368 32.0877Z" fill="#FF8B7B"/>
</g>
<defs>
<clipPath id="clip0_497_817">
<rect width="71" height="68" fill="white"/>
</clipPath>
</defs>
</svg>
