<svg width="71" height="68" viewBox="0 0 71 68" fill="none" xmlns="http://www.w3.org/2000/svg">
<path d="M71 52.0068H0V52.0408H71V52.0068Z" fill="#EBEBEB"/>
<path d="M12.1523 53.3018H7.44922V53.3358H12.1523V53.3018Z" fill="#EBEBEB"/>
<path d="M30.9403 52.9326H24.3018V52.9666H30.9403V52.9326Z" fill="#EBEBEB"/>
<path d="M18.7426 54.3525H16.0176V54.3865H18.7426V54.3525Z" fill="#EBEBEB"/>
<path d="M48.6409 53.7627H44.3511V53.7967H48.6409V53.7627Z" fill="#EBEBEB"/>
<path d="M52.6477 53.7627H49.9043V53.7967H52.6477V53.7627Z" fill="#EBEBEB"/>
<path d="M63.8873 54.3369H55.5718V54.3709H63.8873V54.3369Z" fill="#EBEBEB"/>
<path d="M33.654 45.9413H6.23518C6.02038 45.9409 5.81451 45.8589 5.66276 45.7133C5.51101 45.5677 5.42578 45.3704 5.42578 45.1647V8.25023C5.42765 8.04569 5.51371 7.85011 5.66526 7.70599C5.81681 7.56186 6.02161 7.48082 6.23518 7.48047H33.654C33.869 7.48047 34.0752 7.56228 34.2273 7.70792C34.3794 7.85355 34.4648 8.05107 34.4648 8.25703V45.1647C34.4648 45.3707 34.3794 45.5682 34.2273 45.7138C34.0752 45.8595 33.869 45.9413 33.654 45.9413ZM6.23518 7.50767C6.0298 7.50803 5.83296 7.58642 5.68787 7.72564C5.54277 7.86486 5.46128 8.05353 5.46128 8.25023V45.1647C5.46128 45.3614 5.54277 45.5501 5.68787 45.6893C5.83296 45.8285 6.0298 45.9069 6.23518 45.9073H33.654C33.8595 45.9069 34.0565 45.8286 34.2018 45.6894C34.3471 45.5502 34.4289 45.3615 34.4293 45.1647V8.25023C34.4289 8.0534 34.3471 7.86474 34.2018 7.72556C34.0565 7.58638 33.8595 7.50803 33.654 7.50767H6.23518Z" fill="#EBEBEB"/>
<path d="M64.3702 45.9413H36.95C36.7351 45.9409 36.529 45.859 36.3771 45.7134C36.2251 45.5679 36.1395 45.3706 36.1392 45.1647V8.25023C36.1414 8.04556 36.2278 7.84999 36.3795 7.7059C36.5313 7.56181 36.7363 7.48082 36.95 7.48047H64.3702C64.5835 7.48118 64.7879 7.56237 64.9392 7.70646C65.0904 7.85055 65.1763 8.04592 65.1782 8.25023V45.1647C65.1782 45.3702 65.0931 45.5673 64.9417 45.7129C64.7902 45.8584 64.5847 45.9405 64.3702 45.9413ZM36.95 7.50767C36.7445 7.50803 36.5475 7.58638 36.4022 7.72556C36.2568 7.86474 36.175 8.0534 36.1747 8.25023V45.1647C36.175 45.3615 36.2568 45.5502 36.4022 45.6894C36.5475 45.8286 36.7445 45.9069 36.95 45.9073H64.3702C64.5757 45.9069 64.7727 45.8286 64.918 45.6894C65.0633 45.5502 65.1451 45.3615 65.1455 45.1647V8.25023C65.1451 8.0534 65.0633 7.86474 64.918 7.72556C64.7727 7.58638 64.5757 7.50803 64.3702 7.50767H36.95Z" fill="#EBEBEB"/>
<path d="M60.4439 10.8379H49.6064V49.8672H60.4439V10.8379Z" fill="#E6E6E6"/>
<path d="M61.1055 10.8379H50.2681V49.8672H61.1055V10.8379Z" fill="#F5F5F5"/>
<path d="M59.917 48.8299V11.876H51.4566V48.8299H59.917Z" fill="white"/>
<path d="M59.917 48.8299V11.876H59.4172V48.8299H59.917Z" fill="#E6E6E6"/>
<path d="M60.6141 42.6025H50.7593V43.9952H60.6141V42.6025Z" fill="#F5F5F5"/>
<path d="M60.6141 13.7051H50.7593V15.0977H60.6141V13.7051Z" fill="#F5F5F5"/>
<path d="M19.8799 10.8379H9.04248V49.8672H19.8799V10.8379Z" fill="#E6E6E6"/>
<path d="M20.5415 10.8379H9.7041V49.8672H20.5415V10.8379Z" fill="#F5F5F5"/>
<path d="M19.353 48.8299L19.353 11.876H10.8927L10.8927 48.8299H19.353Z" fill="white"/>
<path d="M19.353 48.8299L19.353 11.876H18.8532L18.8532 48.8299H19.353Z" fill="#E6E6E6"/>
<path d="M20.0506 42.6025H10.1958V43.9952H20.0506V42.6025Z" fill="#F5F5F5"/>
<path d="M20.0506 13.7051H10.1958V15.0977H20.0506V13.7051Z" fill="#F5F5F5"/>
<path d="M24.9382 33.5547H46.5762V13.8347L24.9382 13.8347L24.9382 33.5547Z" fill="#F5F5F5"/>
<path d="M24.9379 13.8359H24.4238V33.5559H24.9379V13.8359Z" fill="#F0F0F0"/>
<path d="M45.7256 32.7394V14.6514L25.7916 14.6514V32.7394H45.7256Z" fill="#FAFAFA"/>
<path d="M25.79 23.628C32.3632 22.9018 38.9378 24.3529 45.511 23.628V23.2649C38.9378 23.9898 32.3632 22.54 25.79 23.2649V23.628Z" fill="#F0F0F0"/>
<path d="M45.7241 32.7394V14.6514H45.5111V32.7394H45.7241Z" fill="#F0F0F0"/>
<path d="M19.5605 47.9854C19.4914 47.9839 19.4241 47.964 19.3661 47.9279C19.3082 47.8919 19.2619 47.841 19.2324 47.7812C19.2029 47.7213 19.1914 47.6547 19.1992 47.5889C19.207 47.5232 19.2338 47.4608 19.2765 47.4087C19.4867 47.1544 18.9755 46.5655 18.4345 45.9413C17.2814 44.6139 15.5391 42.6066 17.919 40.3041C19.4199 38.8516 19.3873 38.2505 19.3035 38.0587C19.1544 37.7187 18.4515 37.6426 18.2243 37.6507C18.1298 37.6451 18.0411 37.6052 17.9762 37.5391C17.9113 37.4731 17.8752 37.3858 17.8752 37.2951C17.8752 37.2044 17.9113 37.1171 17.9762 37.051C18.0411 36.985 18.1298 36.9451 18.2243 36.9395C18.3663 36.9395 19.6244 36.949 19.9936 37.784C20.3131 38.5062 19.809 39.4963 18.4529 40.8073C16.5473 42.6501 17.8579 44.1583 19.0124 45.4898C19.7522 46.3425 20.4509 47.1463 19.8644 47.8535C19.8281 47.8967 19.7817 47.9312 19.7289 47.9542C19.6761 47.9771 19.6184 47.9878 19.5605 47.9854Z" fill="#E0E0E0"/>
<path d="M14.187 44.7803H22.1092L20.3555 52.0073H15.9421L14.187 44.7803Z" fill="#F5F5F5"/>
<path d="M14.1048 45.103H22.1988C22.2883 45.1027 22.374 45.0685 22.4373 45.0078C22.5006 44.9472 22.5364 44.8651 22.5367 44.7794C22.5364 44.6937 22.5006 44.6118 22.4373 44.5514C22.3739 44.4909 22.2882 44.457 22.1988 44.457H14.1048C14.0166 44.4588 13.9327 44.4935 13.8709 44.5537C13.8091 44.6139 13.7743 44.6949 13.7739 44.7794C13.7739 44.864 13.8085 44.9453 13.8704 45.0059C13.9322 45.0664 14.0164 45.1013 14.1048 45.103Z" fill="#EBEBEB"/>
<path d="M20.9323 37.1696L13.4475 39.5374C13.4475 39.5374 10.7353 37.783 12.7049 36.9942C11.7691 35.4642 11.6498 32.479 14.6645 31.614C17.6791 30.7491 17.4661 34.9651 17.4661 34.9651C17.4661 34.9651 21.1837 31.1992 21.0161 35.6723C21.7261 35.486 24.7266 36.1673 20.9323 37.1696Z" fill="#E0E0E0"/>
<path d="M14.6859 40.4097H23.7625C23.7625 40.4097 26.1566 38.7913 23.6489 38.8729C24.1473 36.8084 22.7444 34.5467 19.5764 34.4597C16.4083 34.3726 17.523 37.7386 17.523 37.7386C17.523 37.7386 12.2023 36.5241 13.8126 39.032C11.1756 39.1557 12.5388 39.8031 14.6859 40.4097Z" fill="#E6E6E6"/>
<path d="M21.9336 40.8779L14.8023 41.1241C14.6162 41.1262 14.4326 41.083 14.2686 40.9985C14.1047 40.9141 13.9659 40.7912 13.8651 40.6413C13.5953 40.2754 13.5243 39.8253 14.6646 39.6893C14.2996 38.6094 15.1062 36.7285 18.0541 36.583C21.002 36.4375 19.5238 39.0473 19.5238 39.0473C19.5238 39.0473 23.984 37.1828 22.4618 39.9558C23.1462 39.9286 25.6156 40.7514 21.9336 40.8779Z" fill="#E0E0E0"/>
<path d="M35.5002 58.1484C50.7059 58.1484 63.0325 57.4591 63.0325 56.6089C63.0325 55.7586 50.7059 55.0693 35.5002 55.0693C20.2944 55.0693 7.96777 55.7586 7.96777 56.6089C7.96777 57.4591 20.2944 58.1484 35.5002 58.1484Z" fill="#F5F5F5"/>
<path d="M22.5652 18.9342C21.4107 18.7791 20.4167 21.7779 21.4107 22.5028C22.4047 23.2277 24.6256 23.618 26.6093 22.7748C28.0535 22.1642 27.7908 20.7702 26.7868 19.2171C25.9774 17.9699 24.201 16.6494 22.5652 18.9342Z" fill="#263238"/>
<path d="M27.5624 25.5205C27.6277 26.2726 27.676 27.0274 27.7186 27.7808C27.7612 28.5343 27.7967 29.2904 27.8279 30.0452L27.8052 29.9283C27.7956 29.8953 27.7787 29.8646 27.7555 29.8385C27.785 29.8663 27.8168 29.8918 27.8507 29.9147C27.9505 29.9819 28.0549 30.0428 28.1631 30.0969C28.3945 30.2139 28.6487 30.3281 28.9071 30.4328C29.1656 30.5375 29.4297 30.6436 29.6952 30.747L30.4947 31.053L30.3399 31.6405C30.0417 31.6051 29.7535 31.5535 29.4609 31.5045C29.1684 31.4555 28.8802 31.3835 28.5905 31.3087C28.2935 31.2332 28.0011 31.1424 27.7143 31.0367C27.557 30.9778 27.4042 30.9083 27.2571 30.8286C27.1658 30.7807 27.0797 30.7242 27.0001 30.6599C26.9483 30.6161 26.9008 30.5678 26.8581 30.5158C26.7879 30.436 26.7353 30.3435 26.7033 30.2438L26.6891 30.2003L26.6806 30.1268C26.6025 29.3747 26.5244 28.6213 26.4633 27.8679C26.4023 27.1144 26.3355 26.3596 26.2915 25.6048L27.5624 25.5205Z" fill="#B65B52"/>
<path d="M27.4727 24.5088C27.7482 25.0841 27.8987 26.6222 27.9342 28.8241C27.4262 28.9373 26.9527 29.1622 26.5512 29.4809L25.9292 26.0225L26.2743 25.4472C26.3662 25.2012 26.5263 24.9839 26.7374 24.8186C26.9486 24.6533 27.2028 24.5462 27.4727 24.5088Z" fill="#5649A5"/>
<path opacity="0.1" d="M27.4727 24.5088C27.7482 25.0841 27.8987 26.6222 27.9342 28.8241C27.4262 28.9373 26.9527 29.1622 26.5512 29.4809L25.9292 26.0225L26.2743 25.4472C26.3662 25.2012 26.5263 24.9839 26.7374 24.8186C26.9486 24.6533 27.2028 24.5462 27.4727 24.5088Z" fill="white"/>
<path d="M30.2602 30.9759L31.4431 30.916L30.7232 31.8272C30.7232 31.8272 29.9777 31.7239 29.8115 31.2832L30.2602 30.9759Z" fill="#B55B52"/>
<path d="M31.9869 31.7579L31.7839 31.9877C31.7324 32.0465 31.6624 32.0879 31.5843 32.1055C31.5063 32.1232 31.4244 32.1162 31.3508 32.0856L30.7231 31.8272L31.4431 30.916L31.9159 31.2343C31.9586 31.2626 31.9946 31.2992 32.0215 31.3417C32.0485 31.3842 32.0659 31.4317 32.0726 31.481C32.0793 31.5303 32.0751 31.5804 32.0604 31.6281C32.0456 31.6758 32.0206 31.72 31.9869 31.7579Z" fill="#B55B52"/>
<path d="M27.4174 24.8721C27.4373 25.6881 27.318 27.3813 26.7188 30.9037H21.9533C22.0328 29.0459 22.1279 27.8818 21.2007 24.0683C21.8375 23.9441 22.483 23.865 23.1319 23.8317C23.8523 23.7827 24.5755 23.7827 25.296 23.8317C25.7631 23.8725 26.2601 23.9446 26.6407 24.0071C26.8549 24.0425 27.0496 24.1481 27.1913 24.3059C27.3331 24.4638 27.413 24.6639 27.4174 24.8721Z" fill="#263238"/>
<path d="M23.819 26.159C23.8145 26.1592 23.81 26.1585 23.8058 26.1569C23.8016 26.1552 23.7979 26.1527 23.7949 26.1495C23.4271 25.751 22.7668 24.7065 22.7583 24.0401C22.7583 24.0318 22.7617 24.0238 22.7679 24.018C22.774 24.0121 22.7823 24.0088 22.791 24.0088C22.7954 24.0086 22.7998 24.0093 22.8039 24.0108C22.808 24.0123 22.8118 24.0146 22.815 24.0175C22.8182 24.0204 22.8207 24.0239 22.8224 24.0278C22.8242 24.0317 22.825 24.0359 22.825 24.0401C22.825 24.6222 23.4058 25.615 23.819 26.0801C24.0426 25.7837 24.3201 25.5285 24.6384 25.3267C24.642 25.3244 24.6461 25.3228 24.6503 25.3221C24.6546 25.3214 24.659 25.3214 24.6632 25.3223C24.6674 25.3232 24.6714 25.3249 24.675 25.3273C24.6785 25.3296 24.6815 25.3327 24.6838 25.3362C24.6884 25.3431 24.69 25.3515 24.6884 25.3595C24.6869 25.3676 24.6822 25.3748 24.6753 25.3797C24.3532 25.585 24.0738 25.846 23.8517 26.1495C23.8493 26.154 23.8457 26.1578 23.8411 26.1604C23.8366 26.1631 23.8314 26.1645 23.8261 26.1644L23.819 26.159Z" fill="white"/>
<path d="M25.7843 26.159C25.779 26.1588 25.7739 26.1574 25.7694 26.1548C25.7649 26.1521 25.7612 26.1484 25.7587 26.144C25.5374 25.8404 25.2585 25.5793 24.9365 25.3742C24.9292 25.3697 24.924 25.3626 24.9221 25.3544C24.9203 25.3463 24.9219 25.3377 24.9266 25.3307C24.9313 25.3237 24.9387 25.3187 24.9472 25.3169C24.9558 25.3152 24.9647 25.3167 24.972 25.3212C25.2903 25.523 25.5679 25.7783 25.7914 26.0746C26.1591 25.6204 26.0526 24.5786 25.807 24.021C25.8051 24.0172 25.8041 24.0131 25.8039 24.0088C25.8038 24.0046 25.8045 24.0004 25.8061 23.9965C25.8077 23.9925 25.8101 23.9889 25.8132 23.9859C25.8163 23.9829 25.82 23.9805 25.824 23.9789C25.8323 23.9757 25.8416 23.9758 25.8498 23.9791C25.858 23.9824 25.8646 23.9887 25.868 23.9966C26.1265 24.5895 26.2316 25.6952 25.8127 26.1494C25.809 26.153 25.8045 26.1557 25.7996 26.1574C25.7947 26.159 25.7894 26.1596 25.7843 26.159Z" fill="white"/>
<path d="M23.3463 21.498C23.4883 22.1644 23.6189 23.3871 23.1318 23.8318C23.527 24.4438 24.1146 24.92 24.8103 25.1918C25.7418 24.6328 25.2959 23.8318 25.2959 23.8318C24.5192 23.6536 24.5405 23.1028 24.6754 22.5847L23.3463 21.498Z" fill="#B55B52"/>
<path opacity="0.2" d="M23.8886 21.9414L24.6739 22.5833C24.6415 22.7043 24.6192 22.8275 24.6072 22.9519C24.3118 22.9111 23.9043 22.5983 23.8716 22.3004C23.8542 22.1808 23.86 22.0591 23.8886 21.9414Z" fill="black"/>
<path d="M22.6122 20.2736C22.8848 21.3616 22.9771 21.8227 23.6587 22.2878C24.6854 22.9868 26.0159 22.4238 26.0869 21.2868C26.1508 20.26 25.6936 18.6593 24.4922 18.4131C24.2277 18.3577 23.9526 18.3679 23.6933 18.4428C23.434 18.5178 23.199 18.655 23.0107 18.8414C22.8223 19.0278 22.6868 19.2572 22.6171 19.5079C22.5473 19.7586 22.5456 20.0221 22.6122 20.2736Z" fill="#B55B52"/>
<path d="M22.6436 19.0978C23.3536 19.4772 25.7605 19.3412 25.4026 18.649C25.0448 17.9567 23.5183 18.1281 22.6436 19.0978Z" fill="#263238"/>
<path d="M23.1758 19.0631C23.7963 19.9077 23.6188 21.0719 22.2343 21.0759C20.8498 21.08 21.8211 18.768 23.1758 19.0631Z" fill="#263238"/>
<path d="M24.2012 21.0801L25.4792 21.2446C25.4792 21.2446 25.3159 21.5969 24.7181 21.5166C24.2239 21.4364 24.2012 21.0801 24.2012 21.0801Z" fill="white"/>
<path d="M26.7187 30.9033C26.7187 30.9033 26.3168 39.3666 26.2401 42.7938C26.1592 46.3597 26.1237 54.6856 26.1237 54.6856H25.1851C25.1851 54.6856 23.6856 47.766 24.13 42.7938C23.4584 38.9763 23.0054 30.9033 23.0054 30.9033H26.7187Z" fill="#B55B52"/>
<path d="M25.4733 30.9033C25.4733 30.9033 23.4853 39.7175 22.5339 43.0209C21.8239 45.5002 16.8766 52.5518 16.8411 52.8129L16.0928 52.4185C16.0928 52.4185 18.9839 44.7046 20.2718 42.5136C20.2718 38.6417 21.9531 30.9088 21.9531 30.9088L25.4733 30.9033Z" fill="#B55B52"/>
<path d="M24.5731 20.2647C24.5901 20.3544 24.6526 20.4183 24.7151 20.4007C24.7776 20.383 24.8117 20.3095 24.796 20.2211C24.7804 20.1327 24.7165 20.0675 24.654 20.0783C24.5916 20.0892 24.5575 20.1749 24.5731 20.2647Z" fill="#263238"/>
<path d="M25.6268 20.0851C25.6439 20.1735 25.7063 20.2388 25.7688 20.2211C25.8313 20.2034 25.8654 20.13 25.8498 20.0402C25.8341 19.9505 25.7702 19.8879 25.7078 19.8974C25.6453 19.907 25.6112 19.9926 25.6268 20.0851Z" fill="#263238"/>
<path d="M25.6821 19.9137L25.8937 19.8145C25.8937 19.8145 25.8099 20.0008 25.6821 19.9137Z" fill="#263238"/>
<path d="M25.2861 20.2451C25.4074 20.4343 25.5551 20.6068 25.7249 20.7578C25.6831 20.7983 25.6327 20.8296 25.577 20.8496C25.5214 20.8695 25.4618 20.8777 25.4026 20.8734L25.2861 20.2451Z" fill="#A02724"/>
<path d="M22.453 20.8924C22.5401 21.0916 22.7061 21.2495 22.9145 21.3317C23.1914 21.4378 23.3632 21.2079 23.3135 20.9414C23.2681 20.702 23.0707 20.3566 22.7796 20.3634C22.716 20.3661 22.6541 20.384 22.5995 20.4155C22.5449 20.4469 22.4994 20.4908 22.4669 20.5433C22.4345 20.5958 22.4163 20.6552 22.4139 20.7162C22.4114 20.7771 22.4249 20.8377 22.453 20.8924Z" fill="#B55B52"/>
<path d="M24.0875 19.8362C24.102 19.8323 24.1146 19.8236 24.123 19.8117C24.158 19.7536 24.2069 19.7044 24.2656 19.6679C24.3244 19.6315 24.3913 19.609 24.461 19.6022C24.4755 19.6015 24.4893 19.5955 24.4993 19.5854C24.5094 19.5753 24.515 19.5618 24.5149 19.5478C24.5148 19.5408 24.5131 19.5338 24.5101 19.5273C24.507 19.5209 24.5026 19.515 24.4972 19.5102C24.4918 19.5054 24.4854 19.5017 24.4785 19.4993C24.4715 19.4969 24.4641 19.4958 24.4567 19.4962C24.3691 19.5034 24.2846 19.5307 24.2104 19.576C24.1363 19.6212 24.0746 19.6829 24.0307 19.7559C24.0268 19.7618 24.0241 19.7684 24.0228 19.7753C24.0215 19.7822 24.0217 19.7892 24.0233 19.796C24.0249 19.8029 24.0279 19.8093 24.0321 19.815C24.0363 19.8208 24.0416 19.8256 24.0478 19.8294C24.0598 19.8359 24.0738 19.8383 24.0875 19.8362Z" fill="#263238"/>
<path d="M25.8441 19.5521C25.8511 19.5515 25.8579 19.5495 25.864 19.5462C25.8701 19.5429 25.8754 19.5384 25.8796 19.533C25.8842 19.5276 25.8876 19.5214 25.8897 19.5146C25.8918 19.5079 25.8924 19.5009 25.8916 19.4939C25.8908 19.487 25.8886 19.4803 25.8851 19.4741C25.8816 19.468 25.8768 19.4626 25.8711 19.4582C25.8033 19.4041 25.7229 19.3662 25.6367 19.3478C25.5505 19.3293 25.461 19.3308 25.3755 19.3522C25.3635 19.3581 25.354 19.368 25.3489 19.38C25.3438 19.392 25.3434 19.4054 25.3476 19.4177C25.3519 19.4301 25.3607 19.4405 25.3723 19.4472C25.3839 19.4539 25.3977 19.4563 25.411 19.4542C25.4787 19.438 25.5493 19.4375 25.6172 19.4526C25.6851 19.4678 25.7483 19.4981 25.8015 19.5412C25.8138 19.5499 25.829 19.5538 25.8441 19.5521Z" fill="#263238"/>
<path d="M24.6284 20.0928L24.84 19.9922C24.84 19.9922 24.7562 20.1799 24.6284 20.0928Z" fill="#263238"/>
<path d="M26.7868 31.5117L26.5738 42.7997C26.5738 42.7997 25.0927 43.054 23.3476 42.1904C22.3119 41.6744 21.1435 41.4535 19.9807 41.554C19.5988 34.7159 20.8469 32.5657 21.804 31.5172L26.7868 31.5117Z" fill="#263238"/>
<path opacity="0.2" d="M25.8796 38.5858L23.2369 36.713L22.375 35.1885L25.8796 38.5858Z" fill="black"/>
<path d="M26.9901 30.207L26.814 31.7901C25.5502 31.9356 23.7128 31.8826 21.7603 31.7901L21.915 30.207C23.7525 30.2669 25.5005 30.2886 26.9901 30.207Z" fill="white"/>
<path d="M23.0044 23.7441C23.0044 23.7441 23.0413 32.5841 22.6011 34.7221C21.8741 34.0679 20.8701 32.5461 20.8701 32.5461C20.8701 32.5461 21.4381 30.8202 21.5957 30.4081C21.5077 29.7866 20.7807 24.6295 20.8857 24.0923C21.617 23.8489 23.0044 23.7441 23.0044 23.7441Z" fill="#5649A5"/>
<path opacity="0.2" d="M23.0044 23.7441C23.0044 23.7441 23.0413 32.5841 22.6011 34.7221C21.8741 34.0679 20.8701 32.5461 20.8701 32.5461C20.8701 32.5461 21.4381 30.8202 21.5957 30.4081C21.5077 29.7866 20.7807 24.6295 20.8857 24.0923C21.617 23.8489 23.0044 23.7441 23.0044 23.7441Z" fill="white"/>
<path d="M21.4292 25.4408C21.0656 25.9127 20.6993 26.4077 20.35 26.8987C20.0006 27.3896 19.6598 27.8888 19.356 28.3947C19.2807 28.5212 19.214 28.6476 19.1415 28.7741C19.1046 28.8367 19.072 28.9006 19.0421 28.9632L18.9555 29.1359C18.9555 29.1155 18.9555 29.0896 18.9555 29.0896C18.9555 29.0896 18.9555 29.11 18.9555 29.1413C18.9993 29.2341 19.0577 29.3199 19.1288 29.3956C19.3178 29.6006 19.526 29.7886 19.7507 29.9573C19.9836 30.1382 20.2378 30.3191 20.482 30.485L20.208 31.029C19.8892 30.9264 19.5788 30.8014 19.2793 30.655C18.9633 30.5028 18.6673 30.3151 18.3975 30.096C18.2347 29.9635 18.0956 29.8064 17.9857 29.6309C17.9128 29.5148 17.8618 29.3873 17.8351 29.2542C17.8027 29.0885 17.8149 28.9177 17.8706 28.7578L17.882 28.7279V28.7116L17.8948 28.6816L17.9189 28.6245L17.9672 28.5103C17.9984 28.4314 18.0311 28.3566 18.0666 28.2832C18.1362 28.1349 18.2086 27.988 18.2839 27.848C18.5834 27.2868 18.9152 26.7419 19.2779 26.216C19.4539 25.9548 19.6371 25.6978 19.8246 25.4448C20.012 25.1919 20.2009 24.943 20.4068 24.6914L21.4292 25.4408Z" fill="#B65B52"/>
<path d="M20.3388 30.4271L21.604 30.3359L20.9054 31.2621C20.9054 31.2621 20.157 31.1737 19.981 30.7385L20.3388 30.4271Z" fill="#B55B52"/>
<path d="M22.1519 31.1805L21.9673 31.3981C21.9161 31.459 21.8462 31.503 21.7674 31.5237C21.6887 31.5445 21.6051 31.541 21.5286 31.5137L20.9023 31.2621L21.601 30.3359L22.0653 30.6338C22.1104 30.6628 22.1486 30.7005 22.1777 30.7444C22.2067 30.7883 22.2259 30.8375 22.2341 30.8889C22.2422 30.9403 22.2391 30.9928 22.225 31.043C22.2108 31.0932 22.186 31.14 22.1519 31.1805Z" fill="#B55B52"/>
<path d="M25.6768 23.7441C25.6768 23.7441 26.2107 27.2584 26.3072 30.0709C26.3655 31.7586 26.0445 33.9061 26.0815 34.7221C26.5473 34.2767 26.9076 33.7405 27.1379 33.1499C27.1379 33.1499 27.3538 32.4128 27.0868 30.4081C27.1592 29.9022 27.4787 26.4288 27.5412 24.8661C27.5497 24.6603 27.4837 24.458 27.3543 24.2934C27.2249 24.1289 27.0401 24.0122 26.8312 23.9631C26.2377 23.8285 25.6768 23.7441 25.6768 23.7441Z" fill="#5649A5"/>
<g opacity="0.2">
<path d="M25.6768 23.7441C25.6768 23.7441 26.2107 27.2584 26.3072 30.0709C26.3655 31.7586 26.0445 33.9061 26.0815 34.7221C26.5473 34.2767 26.9076 33.7405 27.1379 33.1499C27.1379 33.1499 27.3538 32.4128 27.0868 30.4081C27.1592 29.9022 27.4787 26.4288 27.5412 24.8661C27.5497 24.6603 27.4837 24.458 27.3543 24.2934C27.2249 24.1289 27.0401 24.0122 26.8312 23.9631C26.2377 23.8285 25.6768 23.7441 25.6768 23.7441Z" fill="white"/>
</g>
<path d="M24.8841 25.9994C24.833 25.9994 24.779 25.9341 24.7577 25.8389C24.735 25.7383 24.7577 25.6526 24.8145 25.6417C24.8713 25.6309 24.9338 25.7002 24.9565 25.8009C24.9733 25.8571 24.9672 25.9174 24.9395 25.9695C24.9293 25.9844 24.9136 25.9951 24.8955 25.9994H24.8841ZM24.7904 25.8321C24.8103 25.9192 24.86 25.9681 24.8898 25.9681C24.8945 25.9671 24.899 25.9651 24.9029 25.9623C24.9068 25.9595 24.9101 25.9559 24.9125 25.9518C24.9338 25.9065 24.9378 25.8555 24.9239 25.8077C24.9054 25.722 24.8543 25.6717 24.8216 25.6717C24.789 25.6717 24.7705 25.7451 24.7904 25.8308V25.8321Z" fill="white"/>
<path d="M25.0347 26.9539C24.9794 26.9539 24.9311 26.8818 24.9197 26.7839C24.9084 26.686 24.941 26.6017 24.9978 26.5949C25.0074 26.5943 25.017 26.5955 25.026 26.5986C25.035 26.6016 25.0433 26.6064 25.0504 26.6125C25.0924 26.6535 25.1177 26.7076 25.1214 26.7649C25.1313 26.8216 25.1186 26.8798 25.0859 26.9281C25.0802 26.9352 25.0732 26.9411 25.0652 26.9455C25.0571 26.95 25.0482 26.9528 25.039 26.9539H25.0347ZM25.0049 26.6262C24.9723 26.6262 24.9453 26.6914 24.9552 26.7785C24.9652 26.8655 25.0049 26.9145 25.0376 26.9145C25.0424 26.914 25.047 26.9125 25.0512 26.9102C25.0553 26.9078 25.0589 26.9046 25.0617 26.9009C25.0878 26.8602 25.0979 26.812 25.0901 26.7649C25.0888 26.714 25.0675 26.6654 25.0305 26.6289C25.0225 26.6254 25.0135 26.6244 25.0049 26.6262Z" fill="white"/>
<path d="M25.0803 27.9032C25.0235 27.9032 24.9809 27.8243 24.9795 27.725C24.9795 27.6244 25.0207 27.5482 25.0775 27.5469C25.0869 27.5469 25.0962 27.5489 25.1048 27.5527C25.1133 27.5564 25.121 27.5619 25.1272 27.5686C25.1655 27.6123 25.1852 27.6681 25.1826 27.725C25.186 27.7805 25.1689 27.8354 25.1343 27.8801C25.1274 27.8872 25.119 27.8929 25.1098 27.8969C25.1005 27.9009 25.0905 27.903 25.0803 27.9032ZM25.0107 27.725C25.0107 27.8107 25.0477 27.8706 25.0803 27.8719C25.0903 27.8707 25.0995 27.8658 25.1059 27.8583C25.1372 27.8197 25.1519 27.771 25.1471 27.7223C25.1509 27.6733 25.1351 27.6247 25.103 27.5863C25.0998 27.5827 25.0959 27.5798 25.0915 27.5777C25.0872 27.5756 25.0824 27.5744 25.0775 27.5741C25.0462 27.5741 25.0122 27.6339 25.0122 27.7196L25.0107 27.725Z" fill="white"/>
<path d="M25.0262 28.8391H25.0177C24.9623 28.8323 24.9268 28.7534 24.9367 28.6555C24.9467 28.5562 24.9978 28.4841 25.0532 28.4895C25.0721 28.4921 25.0893 28.5013 25.1014 28.5154C25.1332 28.5625 25.1462 28.6189 25.1384 28.6745C25.1356 28.7303 25.1113 28.7831 25.0702 28.8227C25.0578 28.8327 25.0423 28.8385 25.0262 28.8391ZM24.9694 28.6582C24.9609 28.7425 24.9907 28.8037 25.0219 28.8078C25.0271 28.8081 25.0323 28.8074 25.0371 28.8058C25.042 28.8042 25.0465 28.8016 25.0503 28.7983C25.0839 28.7637 25.1035 28.7189 25.1057 28.6718C25.1122 28.6245 25.1017 28.5765 25.0759 28.5358C25.0695 28.528 25.0605 28.5227 25.0503 28.5208C25.0191 28.5208 24.9807 28.5752 24.9722 28.6568L24.9694 28.6582Z" fill="white"/>
<path d="M24.9396 29.7583C24.8828 29.7515 24.8487 29.6726 24.8586 29.5747C24.8672 29.4795 24.9154 29.4102 24.9694 29.4102C24.9789 29.4112 24.988 29.414 24.9963 29.4184C25.0046 29.4228 25.0119 29.4288 25.0177 29.436C25.0498 29.4824 25.0625 29.5388 25.0532 29.5938C25.0515 29.6491 25.0276 29.7017 24.9865 29.7406C24.9735 29.7517 24.9569 29.758 24.9396 29.7583ZM24.9623 29.4428C24.9311 29.4428 24.8927 29.4958 24.8842 29.5788C24.8757 29.6631 24.9041 29.7243 24.9367 29.7284C24.9473 29.7284 24.9575 29.7245 24.9651 29.7175C24.9984 29.6835 25.0176 29.639 25.0191 29.5924C25.0274 29.5453 25.0173 29.4968 24.9907 29.4564C24.9878 29.4523 24.984 29.4489 24.9796 29.4463C24.9752 29.4437 24.9703 29.4421 24.9651 29.4414L24.9623 29.4428Z" fill="white"/>
<path opacity="0.2" d="M21.4107 26.043C21.3599 26.3694 21.2688 26.689 21.1395 26.995C21.1111 26.7624 21.0827 26.5298 21.0571 26.3068L21.4107 26.043Z" fill="black"/>
<path d="M20.8743 24.0928C20.3461 24.4722 19.2853 26.0362 18.1621 27.9565C18.5294 28.2476 18.8797 28.5577 19.2115 28.8854L21.4835 26.1273L21.4664 25.4637C21.5077 25.2052 21.4743 24.9408 21.37 24.6991C21.2656 24.4575 21.0942 24.2478 20.8743 24.0928Z" fill="#5649A5"/>
<path opacity="0.2" d="M20.8743 24.0928C20.3461 24.4722 19.2853 26.0362 18.1621 27.9565C18.5294 28.2476 18.8797 28.5577 19.2115 28.8854L21.4835 26.1273L21.4664 25.4637C21.5077 25.2052 21.4743 24.9408 21.37 24.6991C21.2656 24.4575 21.0942 24.2478 20.8743 24.0928Z" fill="white"/>
<path d="M26.128 53.8672C26.2941 55.2 27.1816 56.2309 27.1816 56.2309L25.7375 55.8759L25.0786 54.8845L25.2206 54.6234L26.128 53.8672Z" fill="#B55B52"/>
<path d="M25.0204 54.5489C24.9638 54.664 24.9366 54.7903 24.9409 54.9174C24.9494 55.3785 25.0033 56.6038 25.0033 56.6038H25.1169C25.1156 56.2268 25.1355 55.85 25.1766 55.475C25.232 55.1704 25.4606 55.5308 25.5827 55.8749C25.7048 56.219 26.2146 56.5875 26.9487 56.6038C27.8093 56.6242 28.1586 56.5875 27.9087 56.3876C27.6587 56.1877 27.0879 56.0598 27.0879 56.0598C26.8544 56.0538 26.6266 55.9892 26.4273 55.8725C26.2279 55.7558 26.064 55.5911 25.9519 55.3948C25.6963 54.9528 25.3839 54.5135 25.1723 54.4102C25.1375 54.4205 25.1057 54.4384 25.0793 54.4624C25.053 54.4865 25.0328 54.5161 25.0204 54.5489Z" fill="#263238"/>
<path d="M16.9989 52.5251C16.6028 53.4594 16.5573 54.8752 16.5573 54.8752L15.6201 53.5546L15.8019 52.3932L16.0859 52.2871L16.9989 52.5251Z" fill="#B55B52"/>
<path d="M15.9893 52.1032C15.8681 52.1539 15.7615 52.2318 15.6784 52.3303C15.3674 52.6839 14.5693 53.6427 14.5693 53.6427L14.6545 53.7135C14.9123 53.4277 15.1858 53.1553 15.4739 52.8975C15.7238 52.703 15.6471 53.1164 15.5051 53.455C15.3631 53.7937 15.4938 54.3894 16.0362 54.864C16.6709 55.4203 16.9592 55.612 16.9081 55.3047C16.857 54.9973 16.5147 54.5363 16.5147 54.5363C16.3441 54.3849 16.2176 54.1935 16.1479 53.9809C16.0782 53.7684 16.0676 53.5421 16.1171 53.3245C16.2265 52.8295 16.2946 52.3031 16.2038 52.091C16.1695 52.0768 16.1323 52.0705 16.095 52.0727C16.0578 52.0748 16.0216 52.0853 15.9893 52.1032Z" fill="#263238"/>
<path d="M31.6659 31.7735H53.7029C54.3168 31.7826 54.9052 32.0106 55.3529 32.413C55.8007 32.8154 56.0756 33.3633 56.124 33.9495L56.9902 46.9158C57.0118 47.1954 56.9726 47.4762 56.8751 47.7405C56.7776 48.0048 56.6239 48.2469 56.4237 48.4514C56.2235 48.6559 55.9812 48.8184 55.7121 48.9287C55.4429 49.0389 55.1529 49.0944 54.8602 49.0918H32.8161C32.2035 49.0808 31.617 48.8519 31.1708 48.4498C30.7247 48.0476 30.4506 47.5008 30.4021 46.9158L29.5359 33.9523C29.5136 33.6724 29.5524 33.3912 29.6496 33.1265C29.7468 32.8617 29.9005 32.6192 30.1007 32.4144C30.301 32.2095 30.5436 32.0468 30.813 31.9365C31.0824 31.8261 31.3729 31.7707 31.6659 31.7735Z" fill="#5649A5"/>
<path opacity="0.3" d="M31.6659 31.7735H53.7029C54.3168 31.7826 54.9052 32.0106 55.3529 32.413C55.8007 32.8154 56.0756 33.3633 56.124 33.9495L56.9902 46.9158C57.0118 47.1954 56.9726 47.4762 56.8751 47.7405C56.7776 48.0048 56.6239 48.2469 56.4237 48.4514C56.2235 48.6559 55.9812 48.8184 55.7121 48.9287C55.4429 49.0389 55.1529 49.0944 54.8602 49.0918H32.8161C32.2035 49.0808 31.617 48.8519 31.1708 48.4498C30.7247 48.0476 30.4506 47.5008 30.4021 46.9158L29.5359 33.9523C29.5136 33.6724 29.5524 33.3912 29.6496 33.1265C29.7468 32.8617 29.9005 32.6192 30.1007 32.4144C30.301 32.2095 30.5436 32.0468 30.813 31.9365C31.0824 31.8261 31.3729 31.7707 31.6659 31.7735Z" fill="white"/>
<path d="M32.8177 49.0959H54.859C55.4 49.1006 55.9221 48.9058 56.3173 48.5519L43.1369 38.5967L31.2827 48.5519C31.7113 48.9011 32.255 49.0938 32.8177 49.0959Z" fill="#5649A5"/>
<path opacity="0.5" d="M32.8177 49.0959H54.859C55.4 49.1006 55.9221 48.9058 56.3173 48.5519L43.1369 38.5967L31.2827 48.5519C31.7113 48.9011 32.255 49.0938 32.8177 49.0959Z" fill="white"/>
<path d="M43.3467 41.7516L54.8728 32.0725C54.517 31.8758 54.1136 31.7717 53.7028 31.7706H31.6658C31.2652 31.7679 30.8717 31.8725 30.5298 32.0725L43.3467 41.7516Z" fill="#5649A5"/>
<path d="M51.2759 31.8239L50.5077 20.3047C50.4835 19.9892 50.3366 19.6938 50.096 19.477C49.8555 19.2602 49.5387 19.1377 49.2084 19.1338H32.0264C32.3567 19.138 32.6735 19.2605 32.9142 19.4773C33.155 19.694 33.3023 19.9892 33.3271 20.3047L34.0896 31.7288" fill="white"/>
<path d="M51.2761 31.9909C51.2306 31.991 51.1867 31.9744 51.1535 31.9446C51.1202 31.9148 51.1001 31.8739 51.0972 31.8304L50.329 20.3112C50.3084 20.0391 50.1817 19.7843 49.9742 19.5974C49.7667 19.4105 49.4935 19.3051 49.2086 19.3021H32.9809C33.1326 19.4248 33.2571 19.5755 33.3471 19.745C33.4371 19.9146 33.4907 20.0997 33.5048 20.2894L34.2674 31.7134C34.2705 31.7369 34.2685 31.7606 34.2616 31.7833C34.2548 31.8059 34.2431 31.827 34.2274 31.8452C34.2117 31.8633 34.1923 31.8782 34.1704 31.889C34.1484 31.8997 34.1244 31.906 34.0998 31.9075C34.0753 31.9089 34.0506 31.9056 34.0274 31.8976C34.0043 31.8896 33.983 31.8772 33.9651 31.8611C33.9471 31.8449 33.9328 31.8254 33.923 31.8038C33.9132 31.7821 33.9081 31.7588 33.9081 31.7352L33.147 20.3112C33.1263 20.0389 32.9995 19.7839 32.7917 19.597C32.5839 19.41 32.3103 19.3048 32.0252 19.3021C31.9803 19.2983 31.9385 19.2785 31.9081 19.2466C31.8777 19.2148 31.8608 19.1732 31.8608 19.13C31.8608 19.0869 31.8777 19.0453 31.9081 19.0135C31.9385 18.9816 31.9803 18.9618 32.0252 18.958H49.2072C49.5842 18.9611 49.9462 19.0996 50.2215 19.3462C50.4969 19.5928 50.6655 19.9294 50.6939 20.2894L51.4636 31.8086C51.4663 31.8543 51.45 31.899 51.4184 31.9332C51.3867 31.9673 51.3422 31.9881 51.2946 31.9909H51.2761Z" fill="#5649A5"/>
<path d="M32.0253 19.1299C31.8678 19.1284 31.7117 19.1582 31.5669 19.2175C31.4221 19.2768 31.2917 19.3642 31.1841 19.4743C31.0765 19.5844 30.9939 19.7148 30.9417 19.8571C30.8895 19.9994 30.8687 20.1505 30.8808 20.3009H33.326C33.3012 19.9854 33.1539 19.6901 32.9131 19.4734C32.6724 19.2567 32.3556 19.1341 32.0253 19.1299Z" fill="#5649A5"/>
<path d="M33.3258 20.4731H30.8806C30.8348 20.4732 30.7907 20.4565 30.7574 20.4264C30.7241 20.3963 30.7042 20.3551 30.7016 20.3113C30.6876 20.1374 30.7116 19.9626 30.7719 19.7981C30.8323 19.6336 30.9277 19.4829 31.0522 19.3556C31.1767 19.2283 31.3275 19.1272 31.495 19.0588C31.6625 18.9904 31.843 18.9561 32.0251 18.9581C32.4019 18.9615 32.7638 19.1001 33.039 19.3466C33.3143 19.5932 33.483 19.9296 33.5118 20.2895C33.5132 20.3131 33.5097 20.3366 33.5014 20.3588C33.4931 20.381 33.4802 20.4014 33.4635 20.4187C33.4458 20.4365 33.4244 20.4505 33.4007 20.4598C33.3769 20.4692 33.3514 20.4737 33.3258 20.4731ZM31.0623 20.1277H33.1171C33.0566 19.8934 32.9165 19.685 32.7188 19.5353C32.5211 19.3856 32.2771 19.3031 32.0251 19.3008C31.7852 19.2964 31.5524 19.3793 31.3738 19.5328C31.1951 19.6862 31.0838 19.8988 31.0623 20.1277Z" fill="#5649A5"/>
<path d="M49.2084 19.1299H32.0264C32.3567 19.1341 32.6735 19.2566 32.9142 19.4734C33.155 19.6901 33.3023 19.9853 33.3271 20.3008L34.3026 34.9222L43.3466 41.7521L51.4889 35.012L50.5077 20.2981C50.4828 19.9831 50.3357 19.6884 50.0951 19.4721C49.8546 19.2558 49.5382 19.1337 49.2084 19.1299Z" fill="white"/>
<path opacity="0.3" d="M34.3013 34.9219L43.3453 41.7545L51.489 35.0144L42.7006 40.5727L34.3013 34.9219Z" fill="#5649A5"/>
<path opacity="0.3" d="M49.6259 28.3828H35.2853L35.2129 27.3125H49.5549L49.6259 28.3828Z" fill="#5649A5"/>
<path opacity="0.3" d="M46.6725 31.7002H35.5056L35.4346 30.6299H46.6015L46.6725 31.7002Z" fill="#5649A5"/>
<path opacity="0.3" d="M50.069 35.017H41.6398L41.5688 33.9453H49.998L50.069 35.017Z" fill="#5649A5"/>
<path opacity="0.3" d="M35.7273 35.017H40.24L40.1676 33.9453H35.6562L35.7273 35.017Z" fill="#5649A5"/>
<g opacity="0.5">
<path d="M35.0811 23.4108L35.02 22.5023H35.5099C35.5803 22.5001 35.6507 22.5079 35.7187 22.5255C35.7672 22.5398 35.8099 22.5683 35.8408 22.6071C35.8731 22.6505 35.8914 22.702 35.8933 22.7553C35.899 22.7981 35.8915 22.8416 35.8719 22.8805C35.8522 22.9194 35.8212 22.9519 35.7826 22.9743C35.7513 22.9918 35.7172 23.0042 35.6817 23.011C35.7093 23.0182 35.7356 23.0292 35.7598 23.0436C35.7973 23.0733 35.8295 23.1087 35.855 23.1483L36.0154 23.4108H35.6832L35.5085 23.1388C35.4935 23.1126 35.4738 23.0891 35.4503 23.0695C35.4286 23.055 35.4028 23.0474 35.3764 23.0477H35.358L35.3835 23.4163L35.0811 23.4108ZM35.3395 22.8668H35.4631C35.489 22.8651 35.5146 22.861 35.5397 22.8546C35.5586 22.8511 35.5754 22.8409 35.5866 22.826C35.5973 22.8103 35.6023 22.7917 35.6008 22.773C35.6007 22.7599 35.5976 22.7471 35.5917 22.7353C35.5858 22.7236 35.5773 22.7132 35.5667 22.705C35.5332 22.6865 35.4945 22.6784 35.456 22.6819H35.3267L35.3395 22.8668Z" fill="#5649A5"/>
<path d="M36.0469 22.5029H36.8336L36.8463 22.6974H36.3522L36.3607 22.8416H36.8179L36.8293 23.0265H36.3735L36.3848 23.206H36.8918L36.906 23.4114H36.1051L36.0469 22.5029Z" fill="#5649A5"/>
<path d="M37.6723 23.0392L37.935 23.114C37.9248 23.1758 37.9006 23.2348 37.864 23.2867C37.8317 23.3327 37.7864 23.369 37.7334 23.3914C37.6677 23.417 37.597 23.429 37.5261 23.4268C37.4387 23.4295 37.3516 23.4146 37.2705 23.3833C37.1969 23.35 37.1344 23.2977 37.0902 23.2323C37.0362 23.1506 37.0054 23.0569 37.0007 22.9603C36.9916 22.8989 36.996 22.8363 37.0136 22.7766C37.0312 22.7169 37.0616 22.6613 37.1029 22.6135C37.1483 22.5708 37.2027 22.5379 37.2625 22.5171C37.3223 22.4962 37.386 22.4878 37.4494 22.4925C37.5492 22.4882 37.648 22.5124 37.7334 22.5618C37.8102 22.6151 37.8682 22.6896 37.8995 22.7753L37.6454 22.8297C37.6372 22.8085 37.6263 22.7884 37.6127 22.7699C37.5952 22.7491 37.5735 22.732 37.5488 22.7196C37.5235 22.708 37.4959 22.702 37.4679 22.7019C37.4391 22.7015 37.4108 22.7084 37.3858 22.722C37.3608 22.7357 37.3401 22.7555 37.3259 22.7794C37.2984 22.8349 37.2885 22.8968 37.2975 22.9576C37.2953 23.0315 37.3171 23.1042 37.36 23.1657C37.3776 23.1847 37.3996 23.1996 37.4242 23.2093C37.4488 23.2189 37.4754 23.2231 37.502 23.2214C37.5249 23.2232 37.5481 23.2202 37.5697 23.2124C37.5913 23.2046 37.6108 23.1924 37.6269 23.1765C37.6547 23.1355 37.6704 23.0881 37.6723 23.0392Z" fill="#5649A5"/>
<path d="M38.0305 22.958C38.0218 22.8963 38.0268 22.8335 38.0452 22.7737C38.0635 22.714 38.0948 22.6586 38.137 22.6112C38.1832 22.5679 38.2385 22.5345 38.2992 22.5131C38.3599 22.4918 38.4247 22.483 38.4892 22.4874C38.6253 22.4804 38.759 22.5237 38.8626 22.6085C38.9573 22.6991 39.0113 22.8216 39.0131 22.9498C39.0229 23.0386 39.0098 23.1282 38.9748 23.211C38.9429 23.2779 38.8897 23.3336 38.8229 23.3701C38.7431 23.4109 38.6534 23.4306 38.563 23.4272C38.4709 23.4299 38.3793 23.4132 38.2946 23.3782C38.22 23.3439 38.157 23.2902 38.1129 23.2232C38.062 23.1431 38.0336 23.0517 38.0305 22.958ZM38.323 22.958C38.3222 23.0289 38.3456 23.0982 38.3898 23.1552C38.4077 23.1742 38.4296 23.1893 38.4541 23.1996C38.4786 23.2099 38.505 23.2152 38.5318 23.215C38.5586 23.2167 38.5854 23.2123 38.6101 23.2021C38.6348 23.1919 38.6566 23.1763 38.6738 23.1566C38.7104 23.0922 38.7234 23.018 38.7107 22.9458C38.7121 22.8776 38.6884 22.8112 38.6439 22.7581C38.6248 22.7383 38.6015 22.7228 38.5755 22.7125C38.5495 22.7021 38.5215 22.6973 38.4934 22.6982C38.4665 22.6965 38.4395 22.701 38.4148 22.7115C38.39 22.7219 38.3683 22.7379 38.3514 22.7581C38.318 22.82 38.3079 22.8911 38.323 22.9594V22.958Z" fill="#5649A5"/>
<path d="M39.1382 22.5029H39.523L39.709 23.0564L39.8198 22.5029H40.206L40.2657 23.4114H40.0257L39.9802 22.7192L39.8382 23.4114H39.6181L39.3867 22.7192L39.4335 23.4114H39.1936L39.1382 22.5029Z" fill="#5649A5"/>
<path d="M40.3892 22.5029H40.7754L40.96 23.0564L41.0708 22.5029H41.4641L41.5252 23.4114H41.2838L41.2383 22.7192L41.0963 23.4114H40.8791L40.6476 22.7192L40.6945 23.4114H40.4545L40.3892 22.5029Z" fill="#5649A5"/>
<path d="M41.6431 22.5029H42.4297L42.4425 22.6974H41.9498L41.9597 22.8416H42.4155L42.4283 23.0265H41.9725L41.9839 23.206H42.4908L42.5036 23.4114H41.7041L41.6431 22.5029Z" fill="#5649A5"/>
<path d="M42.6001 22.5029H42.8841L43.2746 23.0061L43.2419 22.5029H43.5174L43.5785 23.4114H43.3016L42.9139 22.9136L42.9466 23.4114H42.6711L42.6001 22.5029Z" fill="#5649A5"/>
<path d="M43.709 22.5023H44.1449C44.2167 22.4996 44.2882 22.5112 44.3551 22.5363C44.4098 22.5566 44.4585 22.5893 44.4971 22.6315C44.5348 22.675 44.5637 22.7248 44.5823 22.7784C44.6017 22.8353 44.6136 22.8942 44.6178 22.9539C44.6254 23.0297 44.6186 23.1061 44.5979 23.1796C44.5809 23.2313 44.5506 23.278 44.5099 23.3156C44.4751 23.3499 44.4315 23.3747 44.3835 23.3877C44.3271 23.4031 44.2689 23.4113 44.2102 23.4122H43.7743L43.709 22.5023ZM44.02 22.7118L44.0526 23.2082H44.1236C44.1682 23.2113 44.213 23.2043 44.2543 23.1878C44.2808 23.1724 44.3005 23.1482 44.3096 23.1198C44.3244 23.0685 44.3283 23.0148 44.321 22.962C44.324 22.8914 44.302 22.8219 44.2585 22.7648C44.2362 22.7454 44.2099 22.7307 44.1813 22.7216C44.1527 22.7124 44.1224 22.7091 44.0924 22.7118H44.02Z" fill="#5649A5"/>
<path d="M45.3138 23.256H44.9816L44.9446 23.4056H44.645L44.9418 22.4971H45.2613L45.6788 23.4056H45.3721L45.3138 23.256ZM45.24 23.0601L45.1136 22.7323L45.0313 23.0601H45.24Z" fill="#5649A5"/>
<path d="M45.5537 22.5029H46.4441L46.4597 22.7273H46.1601L46.2069 23.4073H45.913L45.8675 22.7273H45.5679L45.5537 22.5029Z" fill="#5649A5"/>
<path d="M46.5889 22.5029H46.8828L46.9439 23.4114H46.6499L46.5889 22.5029Z" fill="#5649A5"/>
<path d="M47.0871 22.9581C47.0785 22.8963 47.0835 22.8336 47.1018 22.7738C47.1202 22.7141 47.1515 22.6587 47.1936 22.6113C47.2398 22.5678 47.295 22.5343 47.3558 22.513C47.4165 22.4916 47.4813 22.4829 47.5458 22.4875C47.6815 22.4804 47.8148 22.5238 47.9178 22.6086C48.013 22.699 48.0676 22.8215 48.0698 22.9499C48.0796 23.0386 48.0664 23.1283 48.0314 23.211C47.9995 23.278 47.9463 23.3337 47.8795 23.3702C47.7997 23.4109 47.71 23.4306 47.6196 23.4273C47.5275 23.4302 47.4358 23.4134 47.3513 23.3783C47.2767 23.344 47.2137 23.2903 47.1695 23.2233C47.1186 23.1431 47.0903 23.0518 47.0871 22.9581ZM47.3797 22.9581C47.3788 23.029 47.4023 23.0983 47.4464 23.1553C47.4651 23.1751 47.4882 23.1908 47.514 23.2011C47.5398 23.2115 47.5676 23.2162 47.5955 23.2151C47.6223 23.2168 47.6492 23.2123 47.6738 23.2022C47.6985 23.192 47.7203 23.1764 47.7375 23.1566C47.7742 23.0923 47.7872 23.0181 47.7744 22.9458C47.7752 22.8778 47.7517 22.8116 47.7077 22.7582C47.6886 22.7384 47.6652 22.7229 47.6392 22.7125C47.6133 22.7022 47.5853 22.6974 47.5572 22.6983C47.5302 22.6966 47.5032 22.7011 47.4785 22.7115C47.4538 22.722 47.432 22.738 47.4152 22.7582C47.3786 22.819 47.366 22.8904 47.3797 22.9594V22.9581Z" fill="#5649A5"/>
<path d="M48.1992 22.5029H48.4733L48.8638 23.0061L48.8311 22.5029H49.1066L49.1677 23.4114H48.8922L48.5031 22.9136L48.5358 23.4114H48.2603L48.1992 22.5029Z" fill="#5649A5"/>
<path d="M39.3779 23.8799H39.6719L39.7173 24.5599H40.1746L40.1902 24.7843H39.439L39.3779 23.8799Z" fill="#5649A5"/>
<path d="M40.2627 23.8799H41.048L41.0607 24.073H40.5694L40.5794 24.2172H41.038L41.0508 24.4035H40.5936L40.6063 24.583H41.1119L41.1261 24.7884H40.328L40.2627 23.8799Z" fill="#5649A5"/>
<path d="M41.1528 23.8799H42.0446L42.0602 24.1043H41.7606L41.806 24.7843H41.5135L41.4681 24.1043H41.1685L41.1528 23.8799Z" fill="#5649A5"/>
<path d="M42.1113 23.8799H43.0017L43.0173 24.1043H42.7177L42.7645 24.7843H42.4706L42.4251 24.1043H42.1255L42.1113 23.8799Z" fill="#5649A5"/>
<path d="M43.1338 23.8799H43.9205L43.9332 24.073H43.4419L43.4504 24.2172H43.9077L43.919 24.4035H43.4632L43.4746 24.583H43.9815L43.9957 24.7884H43.1948L43.1338 23.8799Z" fill="#5649A5"/>
<path d="M44.1621 24.7889L44.1011 23.8804H44.5881C44.6585 23.8778 44.7288 23.8851 44.7969 23.9021C44.8458 23.9166 44.8886 23.9457 44.919 23.9851C44.9521 24.0277 44.9709 24.0789 44.973 24.132C44.9779 24.1787 44.9691 24.2258 44.9474 24.268C44.9279 24.3048 44.8979 24.3354 44.8608 24.3564C44.8297 24.3742 44.7955 24.3866 44.76 24.3931C44.7882 24.4001 44.8151 24.4116 44.8395 24.4271C44.8579 24.4411 44.8745 24.4571 44.8892 24.4747C44.906 24.492 44.9212 24.5107 44.9346 24.5305L45.0937 24.7943H44.7628L44.5867 24.5223C44.5729 24.4953 44.5536 24.4713 44.5299 24.4516C44.5077 24.4384 44.4822 24.4314 44.4561 24.4312H44.4305L44.4547 24.7997L44.1621 24.7889ZM44.4206 24.2449H44.5441C44.57 24.2429 44.5957 24.2388 44.6208 24.2326C44.6391 24.2287 44.6552 24.2186 44.6662 24.2041C44.6775 24.1886 44.6826 24.1698 44.6804 24.151C44.6804 24.1383 44.6775 24.1258 44.6718 24.1142C44.6662 24.1027 44.658 24.0925 44.6478 24.0844C44.6145 24.0651 44.5757 24.0565 44.537 24.0599H44.4078L44.4206 24.2449Z" fill="#5649A5"/>
</g>
<path d="M45.6683 11.8088H45.5263L45.4624 10.9248H45.6044L45.6683 11.8088Z" fill="#5649A5"/>
<path d="M45.5561 10.2457H45.4141L45.2721 8.3716C45.2357 7.88358 45.0489 7.41688 44.7354 7.03064L44.8461 6.95312C45.1774 7.36191 45.3751 7.85546 45.4141 8.3716L45.5561 10.2457Z" fill="#5649A5"/>
<path d="M28.37 6.36248H42.6793C43.2467 6.37167 43.7903 6.58221 44.2048 6.95332C44.6193 7.32443 44.8752 7.82969 44.9229 8.3712L45.427 15.3439C45.4496 15.6015 45.4157 15.8608 45.3276 16.1051C45.2394 16.3494 45.0989 16.5734 44.9151 16.7626C44.7312 16.9519 44.5081 17.1022 44.26 17.2041C44.012 17.3059 43.7444 17.357 43.4745 17.354H42.4166L42.6012 19.8958L39.7598 17.354H29.1652C28.5977 17.3445 28.0542 17.1336 27.6397 16.7623C27.2252 16.391 26.9693 15.8856 26.9216 15.3439L26.4118 8.3712C26.3896 8.1133 26.424 7.85381 26.5127 7.60938C26.6013 7.36494 26.7424 7.14097 26.9268 6.95182C27.1112 6.76267 27.3348 6.61254 27.5834 6.51105C27.8319 6.40955 28.0998 6.35895 28.37 6.36248Z" fill="#5649A5"/>
<path d="M32.1399 11.4942H32.1669C32.026 11.4923 31.8901 11.4443 31.7816 11.3582C31.6731 11.2721 31.5986 11.1531 31.5705 11.0209C31.5635 10.9425 31.5738 10.8637 31.6005 10.7893C31.6273 10.715 31.67 10.6468 31.7259 10.5892C31.7818 10.5315 31.8496 10.4857 31.9251 10.4547C32.0005 10.4237 32.0819 10.4081 32.164 10.4089H32.3756L34.6831 10.2008C34.59 9.8198 34.5208 9.43378 34.4758 9.04483C34.409 8.40427 34.7939 7.61411 35.4314 7.89699C35.6885 8.01123 35.5962 8.80683 35.7396 9.12099C35.883 9.43515 37.0957 10.364 37.4649 11.025C37.5639 11.0627 37.6498 11.1263 37.7128 11.2086C37.7758 11.2908 37.8134 11.3884 37.8213 11.4901L37.9732 13.5886C37.985 13.7366 37.9649 13.8854 37.9144 14.0257C37.8638 14.166 37.7838 14.295 37.6793 14.4046C37.5724 14.5124 37.4435 14.5981 37.3006 14.6563C37.1577 14.7146 37.0039 14.7442 36.8486 14.7432H33.0487C32.9165 14.7438 32.7874 14.7047 32.6794 14.6316C32.5715 14.5584 32.4901 14.4548 32.4466 14.3352C32.4185 14.2589 32.41 14.1772 32.4219 14.0971C32.4338 14.017 32.4657 13.9408 32.5149 13.875C32.5641 13.8092 32.6292 13.7557 32.7045 13.7191C32.7799 13.6825 32.8634 13.6639 32.9479 13.6648H32.4622C32.3287 13.6628 32.2008 13.6135 32.1031 13.5263C32.0055 13.4391 31.9452 13.3202 31.934 13.1928C31.9166 13.119 31.9169 13.0423 31.9349 12.9685C31.9529 12.8948 31.9881 12.8259 32.0378 12.767C32.0875 12.7082 32.1505 12.6608 32.222 12.6286C32.2936 12.5963 32.3718 12.58 32.4509 12.5808H32.1924C32.0429 12.5785 31.8992 12.5243 31.7883 12.4283C31.6773 12.3322 31.6064 12.2009 31.5889 12.0586C31.5814 11.9858 31.5902 11.9123 31.6147 11.8431C31.6392 11.7738 31.6788 11.7104 31.731 11.6569C31.7831 11.6035 31.8466 11.5614 31.9171 11.5333C31.9876 11.5052 32.0636 11.4919 32.1399 11.4942Z" fill="white"/>
<path d="M38.9575 14.747H39.6675C39.7221 14.7476 39.7763 14.7372 39.8265 14.7165C39.8767 14.6958 39.9218 14.6652 39.9588 14.6268C39.9959 14.5883 40.0241 14.5428 40.0417 14.4933C40.0593 14.4437 40.0658 14.3911 40.0608 14.339L39.8407 11.2967C39.8319 11.1869 39.7805 11.0841 39.6967 11.0087C39.6129 10.9332 39.5027 10.8904 39.3877 10.8887H38.6848C38.6301 10.8881 38.5759 10.8985 38.5256 10.9192C38.4754 10.9399 38.4302 10.9705 38.393 11.0089C38.3558 11.0473 38.3275 11.0928 38.3097 11.1424C38.292 11.1919 38.2853 11.2445 38.2901 11.2967L38.5102 14.339C38.5192 14.4478 38.5698 14.5496 38.6524 14.6249C38.7349 14.7002 38.8435 14.7437 38.9575 14.747Z" fill="white"/>
</svg>
