<svg width="346" height="346" viewBox="0 0 346 346" fill="none" xmlns="http://www.w3.org/2000/svg">
<path d="M173 329.89C258.379 329.89 327.593 292.25 327.593 245.819C327.593 199.388 258.379 161.748 173 161.748C87.6208 161.748 18.4072 199.388 18.4072 245.819C18.4072 292.25 87.6208 329.89 173 329.89Z" fill="#F5F5F5"/>
<path d="M173 241.418C185.864 241.418 196.293 235.395 196.293 227.966C196.293 220.536 185.864 214.513 173 214.513C160.136 214.513 149.707 220.536 149.707 227.966C149.707 235.395 160.136 241.418 173 241.418Z" fill="#E0E0E0"/>
<path d="M259.867 277.368C280.203 277.368 296.688 267.85 296.688 256.109C296.688 244.369 280.203 234.851 259.867 234.851C239.531 234.851 223.046 244.369 223.046 256.109C223.046 267.85 239.531 277.368 259.867 277.368Z" fill="#E0E0E0"/>
<path d="M79.1787 279.665C99.5146 279.665 116 270.147 116 258.407C116 246.666 99.5146 237.148 79.1787 237.148C58.8429 237.148 42.3574 246.666 42.3574 258.407C42.3574 270.147 58.8429 279.665 79.1787 279.665Z" fill="#E0E0E0"/>
<path d="M314.86 241.003L307.906 238.159C307.032 232.147 306.528 226.088 306.397 220.014C306.397 208.652 313.476 194.756 322.458 197.082C331.44 199.407 319.926 212.119 318.057 221.938C316.189 231.758 314.86 241.003 314.86 241.003Z" fill="#ADA4DB"/>
<path opacity="0.3" d="M314.86 241.003L307.906 238.159C307.032 232.147 306.528 226.088 306.397 220.014C306.397 208.652 313.476 194.756 322.458 197.082C331.44 199.407 319.926 212.119 318.057 221.938C316.189 231.758 314.86 241.003 314.86 241.003Z" fill="black"/>
<path d="M311.49 240.124C311.566 240.113 311.635 240.073 311.682 240.013C311.728 239.952 311.749 239.875 311.739 239.799C308.425 214.887 319.628 201.047 319.739 200.929C319.788 200.869 319.812 200.792 319.805 200.715C319.798 200.638 319.76 200.567 319.701 200.517C319.641 200.468 319.564 200.444 319.487 200.451C319.41 200.458 319.338 200.496 319.289 200.555C319.178 200.694 307.809 214.7 311.158 239.875C311.163 239.913 311.176 239.95 311.195 239.983C311.215 240.017 311.241 240.046 311.272 240.069C311.303 240.092 311.338 240.109 311.375 240.118C311.413 240.128 311.452 240.13 311.49 240.124Z" fill="white"/>
<path d="M318.431 242.664L314.798 241.017C313.71 235.419 313.875 229.651 315.282 224.125C317.614 215.17 325.379 209.648 329.288 210.562C334.07 211.676 334.534 216.098 333.136 219.177C331.468 222.824 319.967 232.699 318.431 242.664Z" fill="#ADA4DB"/>
<path opacity="0.1" d="M318.431 242.664L314.798 241.017C313.71 235.419 313.875 229.651 315.282 224.125C317.614 215.17 325.379 209.648 329.288 210.562C334.07 211.676 334.534 216.098 333.136 219.177C331.468 222.824 319.967 232.699 318.431 242.664Z" fill="black"/>
<path d="M316.542 242.089C316.62 242.08 316.691 242.041 316.74 241.98C316.789 241.92 316.813 241.842 316.805 241.764C315.172 225.959 328.963 213.807 329.108 213.689C329.161 213.633 329.19 213.559 329.19 213.482C329.19 213.405 329.161 213.331 329.108 213.274C329.081 213.247 329.049 213.225 329.013 213.21C328.978 213.195 328.94 213.187 328.901 213.187C328.862 213.187 328.824 213.195 328.788 213.21C328.753 213.225 328.72 213.247 328.693 213.274C328.548 213.399 314.535 225.73 316.189 241.854C316.206 241.931 316.252 241.999 316.318 242.043C316.383 242.087 316.464 242.103 316.542 242.089Z" fill="white"/>
<path d="M38.752 234.636L43.5268 231.91C43.5268 231.91 45.8104 219.309 44.1011 208.472C41.693 193.248 31.3199 187.982 27.5554 189.497C23.7909 191.013 22.9052 195.525 29.7075 204.327C33.7211 209.517 38.8834 220.499 38.752 234.636Z" fill="#ADA4DB"/>
<g opacity="0.15">
<path d="M38.752 234.636L43.5268 231.91C43.5268 231.91 45.8104 219.309 44.1011 208.472C41.693 193.248 31.3199 187.982 27.5554 189.497C23.7909 191.013 22.9052 195.525 29.7075 204.327C33.7211 209.517 38.8834 220.499 38.752 234.636Z" fill="black"/>
</g>
<path d="M40.482 228.588H40.4335C40.3897 228.582 40.3475 228.568 40.3094 228.545C40.2713 228.523 40.2381 228.493 40.2116 228.458C40.1852 228.422 40.1661 228.382 40.1555 228.339C40.1449 228.296 40.143 228.251 40.1498 228.208C42.1151 213.946 36.3853 198.32 29.9359 192.023C29.8958 191.994 29.8625 191.956 29.8382 191.913C29.8139 191.87 29.7991 191.822 29.7949 191.773C29.7907 191.723 29.7972 191.674 29.8139 191.627C29.8305 191.58 29.857 191.538 29.8916 191.502C29.9261 191.467 29.9679 191.439 30.014 191.421C30.0602 191.403 30.1097 191.395 30.1592 191.398C30.2086 191.401 30.2569 191.414 30.3008 191.437C30.3446 191.46 30.383 191.493 30.4134 191.532C36.9735 197.912 42.8209 213.828 40.828 228.291C40.8162 228.374 40.7746 228.45 40.711 228.505C40.6473 228.559 40.5659 228.589 40.482 228.588Z" fill="white"/>
<path d="M25.521 242.283C24.7667 242.712 23.2167 241.771 22.6215 241.37C21.6007 240.666 20.7766 239.713 20.2272 238.602C19.6137 237.347 19.4057 235.932 19.6321 234.554C19.7519 233.825 19.923 233.106 20.1442 232.401L20.7462 230.325C20.9834 229.66 21.0869 228.955 21.0507 228.249C20.8708 226.817 19.5975 225.821 18.4488 224.956C17.1686 224.001 15.8469 222.741 15.8538 221.018C15.9431 219.683 16.4766 218.416 17.3693 217.42C18.1858 216.375 19.1615 215.454 19.9089 214.354C20.4947 213.582 20.7954 212.631 20.7601 211.662C20.6808 211.073 20.4831 210.505 20.1788 209.994C19.4787 208.93 18.8677 207.81 18.3519 206.645C17.9298 205.441 17.9921 203.946 18.9332 203.081C19.352 202.768 19.8291 202.542 20.3366 202.416C20.844 202.29 21.3715 202.267 21.888 202.348C22.8706 202.464 23.8157 202.794 24.656 203.317C27.3894 204.832 28.9464 208.071 31.8459 209.24C32.9939 209.598 34.1634 209.882 35.3474 210.091C35.9417 210.202 36.5063 210.435 37.0045 210.777C37.5028 211.119 37.9237 211.562 38.24 212.077C39.3057 214.202 37.3335 216.818 38.0808 219.074C38.7728 221.066 40.6827 221.842 41.7692 223.634C42.2146 224.426 42.394 225.341 42.2813 226.243C42.1847 227.769 41.8119 229.265 41.181 230.658C40.4711 232.042 39.6593 233.372 38.7521 234.637C38.7105 234.685 25.6387 242.2 25.521 242.283Z" fill="#ADA4DB"/>
<path d="M33.2646 238.159C33.2191 238.157 33.1745 238.146 33.1332 238.127C33.0919 238.108 33.0547 238.081 33.0239 238.047C32.993 238.014 32.9691 237.975 32.9534 237.932C32.9377 237.89 32.9306 237.844 32.9324 237.799C33.4929 224.305 27.1334 209.427 22.5109 205.067C22.4479 205.004 22.4126 204.918 22.4126 204.828C22.4126 204.739 22.4479 204.653 22.5109 204.59C22.5756 204.526 22.6625 204.491 22.7531 204.491C22.8437 204.491 22.9306 204.526 22.9953 204.59C27.6801 208.984 34.178 224.139 33.6037 237.833C33.6001 237.921 33.5628 238.004 33.4996 238.064C33.4364 238.125 33.3522 238.159 33.2646 238.159Z" fill="white"/>
<path d="M31.2438 222.208H31.14C27.9427 221.329 24.6597 220.798 21.3482 220.624C21.2564 220.624 21.1684 220.587 21.1035 220.522C21.0387 220.457 21.0022 220.369 21.0022 220.278C21.0022 220.186 21.0387 220.098 21.1035 220.033C21.1684 219.968 21.2564 219.932 21.3482 219.932C24.7184 220.107 28.0596 220.647 31.313 221.544C31.3557 221.557 31.3955 221.578 31.4302 221.606C31.4648 221.634 31.4935 221.668 31.5147 221.708C31.5359 221.747 31.5492 221.79 31.5538 221.834C31.5583 221.879 31.5541 221.923 31.5414 221.966C31.5212 222.031 31.4822 222.089 31.4292 222.132C31.3763 222.175 31.3118 222.202 31.2438 222.208Z" fill="white"/>
<path d="M278.066 251.722L271.617 250.982L269.949 237.986L277.831 240.325L278.066 251.722Z" fill="#B16668"/>
<path d="M263.936 262.324C263.843 262.58 263.805 262.852 263.824 263.124C263.843 263.396 263.919 263.661 264.047 263.901C264.739 264.704 266.524 265.645 268.96 265.818C271.292 265.984 273.368 265.673 274.731 264.808C275.324 264.501 275.831 264.053 276.208 263.502C276.585 262.951 276.819 262.316 276.89 261.652C277.022 260.331 276.89 259.05 277.506 258.033C278.122 257.016 279.015 256.026 279.215 255.514C279.455 254.631 279.455 253.699 279.215 252.815L263.936 262.324Z" fill="#263238"/>
<path d="M270.309 250.753C270.289 251.255 270.198 251.751 270.039 252.227C269.683 253.252 269.204 254.23 268.614 255.14C268.324 255.624 268 256.087 267.645 256.524C266.953 257.362 266.067 258.054 265.32 258.856C264.527 259.613 264.019 260.62 263.881 261.707C263.784 263.534 266.69 264.157 268.219 264.427C269.869 264.715 271.562 264.63 273.174 264.178C274.021 263.957 274.786 263.497 275.377 262.853C275.969 262.209 276.362 261.407 276.51 260.545C276.599 260.033 276.565 259.514 276.627 259.009C276.829 257.842 277.316 256.744 278.046 255.812C278.47 255.274 278.834 254.691 279.132 254.075C279.61 252.947 279.229 251.673 278.925 250.552C278.662 249.577 278.343 248.476 277.997 248.553C277.997 249.058 277.997 249.127 277.658 249.466C277.319 249.805 277.188 250.552 276.703 250.933C276.858 250.511 276.971 250.076 277.042 249.632C277.072 249.454 277.035 249.272 276.939 249.12C276.778 248.976 276.586 248.872 276.378 248.816C275.658 248.575 274.917 248.406 274.164 248.31C273.136 248.193 272.098 248.193 271.07 248.31C270.856 248.349 270.663 248.461 270.524 248.629C270.399 248.813 270.332 249.029 270.33 249.251C270.295 249.514 270.323 250.269 270.309 250.753Z" fill="#455A64"/>
<path d="M268.365 255.528C269.057 255.016 271.499 255.009 272.33 255.099C273.176 255.171 273.99 255.457 274.696 255.929C274.8 256.003 274.926 256.038 275.053 256.028C275.179 256.018 275.298 255.963 275.388 255.874C275.441 255.822 275.481 255.76 275.507 255.69C275.533 255.621 275.544 255.547 275.539 255.474C275.534 255.4 275.512 255.329 275.477 255.264C275.441 255.199 275.392 255.143 275.333 255.099C274.558 254.527 273.637 254.184 272.676 254.11C271.477 254.022 270.272 254.091 269.091 254.317C269.091 254.317 268.164 254.919 268.365 255.528Z" fill="#F5F5F5"/>
<path d="M266.801 257.424C267.659 256.919 270.261 256.988 271.098 257.078C271.928 257.163 272.721 257.466 273.396 257.957C273.499 258.029 273.625 258.063 273.751 258.053C273.878 258.043 273.996 257.989 274.088 257.901C274.14 257.849 274.181 257.787 274.206 257.718C274.232 257.649 274.243 257.575 274.238 257.501C274.233 257.428 274.212 257.356 274.176 257.291C274.141 257.227 274.091 257.17 274.032 257.126C272.897 256.538 271.659 256.176 270.385 256.061C268.309 255.915 267.804 256.331 267.804 256.331C267.566 256.427 267.352 256.574 267.179 256.764C267.005 256.953 266.876 257.178 266.801 257.424Z" fill="#F5F5F5"/>
<path d="M273.492 252.151C272.322 252.017 271.136 252.09 269.991 252.366C269.631 252.566 269.389 253.141 269.624 253.286C270.67 253.004 271.754 252.896 272.835 252.968C273.602 253.045 274.351 253.25 275.049 253.577C275.229 253.66 275.437 253.763 275.617 253.867C275.675 253.904 275.74 253.928 275.808 253.937C275.875 253.947 275.945 253.941 276.01 253.922C276.076 253.902 276.137 253.868 276.188 253.823C276.24 253.778 276.281 253.722 276.309 253.66C276.358 253.558 276.368 253.441 276.336 253.332C276.304 253.224 276.232 253.131 276.136 253.071C275.33 252.579 274.429 252.266 273.492 252.151Z" fill="#F5F5F5"/>
<path d="M254.02 245.812L247.888 244.103V231.709L255.494 232.042L254.02 245.812Z" fill="#B16668"/>
<path d="M234.934 252.449C234.761 252.983 234.793 253.563 235.024 254.075C235.252 254.545 237.737 255.95 241.086 255.722C243.567 255.544 245.956 254.708 248.006 253.3C249.279 252.456 250.608 252.296 252.269 252.206C253.929 252.117 256.102 251.279 256.469 250.504C256.656 249.81 256.637 249.077 256.414 248.394L234.934 252.449Z" fill="#263238"/>
<path d="M248.428 242L248.165 241.944C248.02 241.91 247.868 241.91 247.722 241.944C247.561 241.997 247.418 242.093 247.307 242.221C246.98 242.642 246.695 243.094 246.456 243.57C245.764 244.712 244.276 245.646 242.671 246.525C241.577 247.113 240.505 247.57 239.377 248.075C238.249 248.58 236.692 248.913 235.792 249.522C234.477 250.407 234.304 252.629 235.792 253.508C237.079 254.269 240.484 255.092 244.048 254.082C245.985 253.528 248.144 251.459 250.691 251.259C252.31 251.127 255.376 250.677 256.421 249.445C256.808 248.899 256.289 247.169 255.867 245.674C255.403 244.041 254.968 241.522 254.428 241.64C254.432 241.756 254.409 241.873 254.36 241.979C254.31 242.085 254.236 242.177 254.144 242.249C253.943 242.456 253.674 242.588 253.452 242.775C253.074 243.146 252.769 243.585 252.552 244.069C252.464 244.284 252.302 244.461 252.096 244.567C251.819 244.664 251.618 244.498 251.404 244.387C251.1 244.248 250.756 244.223 250.435 244.318C250.468 243.993 250.526 243.672 250.608 243.356C250.639 243.257 250.639 243.151 250.608 243.051C250.569 242.951 250.495 242.868 250.4 242.816C249.807 242.409 249.135 242.131 248.428 242Z" fill="#455A64"/>
<path d="M244.207 245.619C244.323 245.395 244.493 245.204 244.702 245.064C244.912 244.923 245.153 244.838 245.404 244.816C246.138 244.678 247.439 245.224 248.248 245.889C248.326 245.95 248.386 246.03 248.425 246.121C248.465 246.212 248.481 246.311 248.473 246.409C248.464 246.507 248.432 246.602 248.378 246.685C248.325 246.769 248.252 246.837 248.165 246.885C248.057 246.947 247.931 246.972 247.807 246.959C247.683 246.945 247.566 246.893 247.473 246.809C246.58 246.004 245.409 245.577 244.207 245.619Z" fill="#F5F5F5"/>
<path d="M241.917 246.899C242.077 246.672 242.29 246.487 242.537 246.359C242.783 246.231 243.057 246.165 243.335 246.165C244.473 246.215 245.566 246.624 246.456 247.335C246.529 247.395 246.586 247.473 246.623 247.56C246.659 247.648 246.674 247.743 246.666 247.837C246.658 247.932 246.627 248.023 246.576 248.103C246.525 248.183 246.455 248.249 246.373 248.296C246.265 248.361 246.139 248.389 246.014 248.375C245.889 248.361 245.772 248.307 245.681 248.22C245.191 247.734 244.599 247.362 243.948 247.134C243.297 246.905 242.603 246.825 241.917 246.899Z" fill="#F5F5F5"/>
<path d="M239.432 248.048C239.615 247.839 239.84 247.672 240.094 247.558C240.347 247.445 240.622 247.388 240.899 247.39C241.995 247.458 243.041 247.869 243.889 248.567C243.961 248.628 244.019 248.706 244.055 248.794C244.091 248.882 244.106 248.978 244.098 249.073C244.09 249.167 244.059 249.259 244.008 249.34C243.957 249.42 243.888 249.487 243.806 249.535C243.698 249.6 243.572 249.628 243.447 249.614C243.322 249.6 243.205 249.546 243.114 249.459C242.651 248.955 242.078 248.565 241.439 248.32C240.8 248.075 240.113 247.982 239.432 248.048Z" fill="#F5F5F5"/>
<path d="M276.655 164.952C277.077 177.734 277.105 205.414 277.105 205.414C277.236 207.005 277.375 209.829 277.492 215.558C277.665 223.862 278.067 244.366 278.067 244.366C278.067 244.366 274.101 246.228 270.455 244.712C270.455 244.712 265.389 215.884 264.351 207.663C263.445 200.487 261.708 183.657 261.708 183.657L259.313 205.019C259.313 205.019 259.313 210.555 258.988 215.441C258.718 219.247 255.023 238.851 255.023 238.851C252.61 239.492 250.061 239.408 247.695 238.609C247.695 238.609 247.363 208.514 247.293 205.019C247.217 201.047 248.241 158.102 248.241 158.102L276.655 164.952Z" fill="#455A64"/>
<path d="M261.721 183.657L260.808 176.412C257.858 175.658 255.069 174.378 252.573 172.633C252.573 172.633 254.331 174.986 259.493 177.477L260.656 184.051L259.341 205.019L261.721 183.657Z" fill="#37474F"/>
<path d="M247.916 129.086C246.048 131.536 236.436 144.725 236.436 144.725L227.557 137.847C225.481 136.22 224.866 134.089 223.565 132.615C222.264 131.141 220.838 130.788 219.378 129.556C217.918 128.325 217.357 127.391 216.859 128.442C216.361 129.494 217.973 131.328 218.243 131.771C218.513 132.214 220.181 133.273 217.98 133.155C215.78 133.037 211.545 130.525 210.52 130.062C209.496 129.598 209.469 130.864 209.953 131.695C210.437 132.525 210.195 134.836 210.763 136.324C211.33 137.812 212.326 138.725 214.354 139.729C216.243 140.67 220.838 141.258 222.333 142.199C225.613 145.562 231.799 151.839 233.363 153.001C235.515 154.6 237.598 156.074 240.892 152.905C244.186 149.735 253.729 137.3 253.729 137.3L255.701 125.474C252.462 125.356 250.172 126.131 247.916 129.086Z" fill="#B16668"/>
<path d="M236.436 144.725C237.654 145.625 238.92 147.645 239.038 148.552C239.023 147.693 238.832 146.846 238.474 146.065C238.117 145.284 237.602 144.585 236.962 144.012L236.436 144.725Z" fill="#9A4A4D"/>
<path d="M256.462 125.183C256.462 125.183 251.895 125.128 249.888 126.532C247.881 127.937 246.394 129.992 243.134 134.733C240.276 138.885 238.892 140.877 238.892 140.877C240.763 143.645 243.487 145.725 246.65 146.801L255.175 136.241L256.462 125.183Z" fill="#37474F"/>
<path d="M265.299 124.961C267.887 125.21 271.527 125.238 274.087 125.501C275.866 126.235 279.298 129.224 279.042 131.355C278.087 139.32 276.157 152.378 276.157 152.378L276.793 166.218C273.229 169.775 256.552 171.166 247.958 165.478C247.958 165.478 248.234 140.621 248.829 136.414C249.888 128.878 250.815 126.082 254.705 125.418C258.594 124.754 265.299 124.961 265.299 124.961Z" fill="#ADA4DB"/>
<path d="M279.956 129.287C281.824 131.736 291.443 144.926 291.443 144.926L300.328 138.047C302.404 136.414 303.02 134.283 304.321 132.816C305.622 131.349 307.048 130.989 308.508 129.757C309.968 128.525 310.528 127.591 311.027 128.636C311.525 129.681 309.912 131.529 309.643 131.972C309.373 132.414 307.705 133.473 309.905 133.356C312.106 133.238 316.334 130.719 317.365 130.255C318.396 129.792 318.41 131.058 317.933 131.889C317.455 132.719 317.684 135.037 317.123 136.525C316.563 138.013 315.559 138.919 313.532 139.93C311.642 140.871 307.048 141.459 305.553 142.4C302.273 145.756 296.086 152.04 294.522 153.195C292.37 154.794 290.287 156.268 286.993 153.105C283.699 149.943 276.17 140.096 276.17 140.096L272.185 125.674C275.416 125.557 277.707 126.332 279.956 129.287Z" fill="#B16668"/>
<path d="M291.443 144.926C290.225 145.825 288.958 147.846 288.841 148.752C288.854 147.892 289.045 147.044 289.403 146.262C289.76 145.479 290.276 144.779 290.917 144.206L291.443 144.926Z" fill="#9A4A4D"/>
<path d="M271.728 125.328C271.728 125.328 275.831 125.072 277.99 126.712C279.935 128.207 281.45 130.172 284.744 134.913C287.602 139.065 288.986 141.058 288.986 141.058C287.111 143.824 284.386 145.904 281.222 146.981L275.416 139.826C272.392 135.992 269.396 130.159 271.728 125.328Z" fill="#37474F"/>
<path d="M265.943 106.222C265.956 107.81 265.499 109.365 264.628 110.693C263.757 112.021 262.513 113.06 261.051 113.68C259.59 114.3 257.977 114.473 256.417 114.177C254.858 113.881 253.421 113.129 252.289 112.016C251.156 110.903 250.38 109.479 250.056 107.925C249.733 106.37 249.878 104.755 250.473 103.283C251.068 101.811 252.086 100.549 253.398 99.6553C254.711 98.7619 256.259 98.2777 257.846 98.264C258.9 98.2548 259.946 98.4535 260.923 98.8484C261.901 99.2434 262.791 99.8271 263.543 100.566C264.294 101.305 264.893 102.185 265.305 103.155C265.717 104.126 265.933 105.168 265.943 106.222Z" fill="#263238"/>
<path d="M271.845 111.883C271.845 111.883 270.593 118.007 270.081 119.01C269.74 119.634 269.173 120.102 268.496 120.318L268.545 116.014L271.845 111.883Z" fill="#263238"/>
<path d="M270.136 103.143C270.59 103.084 271.051 103.131 271.484 103.278C271.917 103.426 272.311 103.671 272.634 103.994C273.714 105.08 273.146 108.512 271.845 111.882L269.396 112.187L270.136 103.143Z" fill="#263238"/>
<path d="M268.662 112.194C269.154 112.485 269.846 111.502 270.448 110.893C271.05 110.284 273.015 109.371 274.025 111.44C275.036 113.509 273.195 116.367 271.645 116.865C268.967 117.737 268.545 116.014 268.545 116.014L268.434 125.992C265.14 130.304 255.874 130.02 259.694 125.522V122.574C258.501 122.774 257.29 122.846 256.082 122.788C254.103 122.505 252.85 120.955 252.227 118.823C251.238 115.405 250.843 112.637 251.605 105.876C252.435 98.4715 261.036 98.3193 265.707 101.205C270.378 104.091 268.662 112.194 268.662 112.194Z" fill="#B16668"/>
<path d="M268.669 113.018C268.911 113.018 269.839 111.454 270.448 110.893C271.285 110.111 270.136 103.143 270.136 103.143C270.424 102.524 270.518 101.834 270.407 101.161C270.296 100.488 269.984 99.8644 269.513 99.3713C268.344 98.105 266.711 96.5618 261.452 97.2261C257.694 97.7036 253.618 98.9146 250.304 97.323C250.008 98.4021 250.042 99.5446 250.399 100.605C250.757 101.665 251.422 102.594 252.31 103.274C252.31 103.274 253.514 104.035 256.663 104.388C259.566 104.579 262.48 104.498 265.368 104.146C266.282 104.015 266.482 104.893 266.995 107.309C267.444 109.419 267.839 113.011 268.669 113.018Z" fill="#263238"/>
<path d="M270.136 103.682L273.091 102.063C272.995 101.863 272.86 101.685 272.692 101.539C272.525 101.393 272.33 101.283 272.119 101.215C271.908 101.147 271.686 101.123 271.465 101.143C271.244 101.164 271.03 101.23 270.835 101.336C270.439 101.562 270.146 101.932 270.015 102.369C269.885 102.806 269.929 103.276 270.136 103.682Z" fill="#263238"/>
<path d="M259.673 122.574C259.673 122.574 264.074 121.647 265.604 120.816C266.505 120.337 267.241 119.597 267.714 118.692C267.491 119.593 267.088 120.44 266.531 121.183C265.417 122.636 259.687 123.743 259.687 123.743L259.673 122.574Z" fill="#9A4A4D"/>
<path d="M259.32 111.488C259.318 111.606 259.34 111.723 259.383 111.833C259.427 111.942 259.492 112.042 259.574 112.126C259.657 112.21 259.755 112.277 259.863 112.324C259.972 112.37 260.088 112.394 260.206 112.395C260.39 112.402 260.572 112.353 260.728 112.256C260.884 112.158 261.007 112.016 261.082 111.848C261.156 111.68 261.179 111.493 261.146 111.312C261.114 111.131 261.027 110.963 260.899 110.832C260.77 110.7 260.605 110.61 260.425 110.573C260.244 110.536 260.057 110.555 259.887 110.625C259.717 110.696 259.572 110.816 259.471 110.97C259.37 111.124 259.318 111.304 259.32 111.488Z" fill="#263238"/>
<path d="M261.943 108.45L259.978 107.558C259.863 107.826 259.857 108.129 259.96 108.402C260.063 108.675 260.268 108.898 260.531 109.025C260.661 109.082 260.802 109.113 260.944 109.115C261.086 109.117 261.227 109.091 261.359 109.037C261.491 108.984 261.61 108.904 261.711 108.803C261.811 108.702 261.89 108.582 261.943 108.45Z" fill="#263238"/>
<path d="M253.535 107.364L251.826 108.706C251.907 108.823 252.011 108.921 252.131 108.996C252.252 109.07 252.386 109.119 252.527 109.139C252.667 109.159 252.81 109.15 252.946 109.113C253.083 109.075 253.21 109.01 253.321 108.921C253.548 108.737 253.696 108.474 253.736 108.185C253.776 107.896 253.704 107.602 253.535 107.364Z" fill="#263238"/>
<path d="M252.504 111.273C252.512 111.439 252.569 111.598 252.667 111.731C252.765 111.865 252.899 111.966 253.055 112.024C253.21 112.081 253.378 112.092 253.54 112.054C253.701 112.016 253.847 111.932 253.961 111.812C254.074 111.692 254.15 111.541 254.179 111.378C254.207 111.215 254.188 111.047 254.122 110.895C254.056 110.743 253.946 110.615 253.808 110.524C253.669 110.434 253.507 110.387 253.341 110.388C253.228 110.39 253.117 110.415 253.013 110.462C252.909 110.508 252.816 110.574 252.738 110.656C252.66 110.738 252.6 110.835 252.559 110.941C252.519 111.047 252.5 111.16 252.504 111.273Z" fill="#263238"/>
<path d="M257.085 110.561L256.587 115.855L253.854 114.803L257.085 110.561Z" fill="#9A4A4D"/>
<path d="M258.587 117.841C258.585 118.009 258.634 118.175 258.727 118.316C258.819 118.456 258.952 118.567 259.107 118.632C259.263 118.698 259.434 118.715 259.6 118.683C259.765 118.651 259.918 118.571 260.037 118.452C260.157 118.333 260.239 118.182 260.272 118.016C260.306 117.851 260.289 117.68 260.225 117.524C260.161 117.368 260.052 117.234 259.911 117.141C259.771 117.047 259.607 116.997 259.438 116.997C259.213 116.997 258.998 117.085 258.838 117.243C258.679 117.402 258.589 117.616 258.587 117.841Z" fill="#9A4A4D"/>
<path d="M280.191 61.4635C281.511 61.7574 282.782 62.2349 283.969 62.8821C285.104 63.4931 286.121 64.3015 286.973 65.2695C287.792 66.2073 288.396 67.3126 288.744 68.5081C289.108 69.7753 289.137 71.1154 288.827 72.3971C288.622 73.4145 288.218 74.3811 287.637 75.2412C287.115 75.9812 286.488 76.641 285.775 77.1996C285.078 77.7408 284.335 78.2201 283.554 78.632L281.353 79.7946C280.69 80.1412 280.059 80.549 279.471 81.0125C278.94 81.4157 278.532 81.96 278.295 82.5833C278.175 82.8613 277.981 83.1008 277.734 83.2753C277.616 83.366 277.478 83.4286 277.332 83.4586C277.186 83.4885 277.035 83.485 276.89 83.4483L273.652 82.7563C273.496 82.7236 273.349 82.6602 273.218 82.5699C273.087 82.4796 272.976 82.3642 272.89 82.2304C272.8 82.1052 272.74 81.9603 272.716 81.8076C272.692 81.6549 272.704 81.4986 272.752 81.3516C273.022 80.3449 273.492 79.4033 274.136 78.5836C274.716 77.8601 275.385 77.2136 276.129 76.6598C276.847 76.1344 277.609 75.6714 278.406 75.2758C279.194 74.8814 279.928 74.5008 280.606 74.1271C281.226 73.7995 281.809 73.405 282.343 72.9507C282.809 72.5583 283.132 72.0232 283.263 71.4283C283.383 70.9087 283.375 70.3679 283.24 69.8521C283.105 69.3363 282.847 68.8609 282.488 68.4665C281.594 67.4887 280.398 66.8383 279.091 66.6189C276.673 66.0791 274.63 66.8934 272.96 69.0617C272.799 69.2991 272.595 69.5035 272.357 69.6637C272.229 69.7291 272.089 69.7683 271.945 69.779C271.801 69.7897 271.657 69.7717 271.52 69.726L268.06 68.9579C267.938 68.9344 267.822 68.8868 267.719 68.8178C267.615 68.7489 267.527 68.6601 267.458 68.5565C267.383 68.4505 267.332 68.3291 267.309 68.2011C267.286 68.073 267.292 67.9415 267.327 67.8161C267.618 66.7525 268.164 65.7762 268.918 64.9719C269.765 64.0374 270.77 63.2596 271.887 62.6745C273.111 62.0318 274.432 61.5924 275.797 61.3735C277.253 61.1173 278.746 61.1478 280.191 61.4635ZM276.537 86.0572C276.689 86.0896 276.833 86.1531 276.959 86.2436C277.085 86.3341 277.191 86.4497 277.271 86.5831C277.356 86.7123 277.414 86.8574 277.441 87.0096C277.469 87.1619 277.465 87.3181 277.43 87.4689L276.599 91.2195C276.53 91.5189 276.347 91.7795 276.088 91.9461C275.83 92.1127 275.517 92.1723 275.215 92.1122L271.548 91.3025C271.397 91.2701 271.254 91.2074 271.128 91.1182C271.002 91.029 270.895 90.9152 270.814 90.7835C270.728 90.6549 270.669 90.5098 270.642 90.3573C270.615 90.2049 270.619 90.0484 270.655 89.8978L271.486 86.1402C271.555 85.8408 271.738 85.5802 271.997 85.4136C272.255 85.247 272.568 85.1874 272.87 85.2475L276.537 86.0572Z" fill="#ADA4DB"/>
<path d="M291.069 96.7486C291.984 96.5978 292.917 96.5791 293.837 96.6933C294.722 96.7938 295.582 97.0516 296.377 97.4545C297.135 97.8427 297.801 98.3903 298.328 99.0599C298.887 99.7776 299.247 100.63 299.373 101.53C299.517 102.231 299.517 102.954 299.373 103.655C299.229 104.265 298.996 104.85 298.681 105.392C298.373 105.914 298.021 106.409 297.629 106.873L296.515 108.187C296.18 108.581 295.879 109.002 295.616 109.447C295.381 109.842 295.261 110.295 295.27 110.755C295.268 110.971 295.206 111.182 295.09 111.364C295.037 111.451 294.965 111.525 294.88 111.581C294.795 111.637 294.699 111.674 294.598 111.689L292.336 112.063C292.117 112.097 291.894 112.045 291.713 111.917C291.624 111.859 291.55 111.782 291.496 111.691C291.442 111.599 291.41 111.497 291.401 111.391C291.307 110.682 291.361 109.961 291.561 109.274C291.74 108.657 292.003 108.068 292.342 107.523C292.666 107.001 293.035 106.508 293.443 106.049C293.851 105.592 294.218 105.163 294.564 104.748C294.876 104.379 295.147 103.978 295.373 103.551C295.572 103.18 295.642 102.755 295.574 102.34C295.518 101.975 295.374 101.63 295.154 101.333C294.935 101.037 294.647 100.798 294.315 100.638C293.494 100.237 292.563 100.125 291.671 100.319C290.864 100.438 290.114 100.803 289.522 101.364C288.93 101.925 288.526 102.655 288.363 103.454C288.319 103.649 288.24 103.835 288.128 104.001C287.994 104.148 287.808 104.237 287.609 104.25L285.201 104.644C285.03 104.672 284.855 104.635 284.71 104.541C284.634 104.492 284.57 104.426 284.522 104.35C284.474 104.273 284.444 104.187 284.433 104.098C284.349 103.342 284.451 102.577 284.73 101.869C285.031 101.051 285.476 100.294 286.045 99.6343C286.666 98.9099 287.4 98.2906 288.218 97.8005C289.091 97.2681 290.06 96.9108 291.069 96.7486ZM295.021 113.488C295.127 113.47 295.235 113.474 295.34 113.499C295.444 113.524 295.543 113.57 295.629 113.633C295.716 113.695 295.789 113.773 295.845 113.864C295.901 113.954 295.938 114.054 295.955 114.159L296.384 116.775C296.402 116.881 296.398 116.99 296.373 117.094C296.348 117.199 296.302 117.297 296.238 117.384C296.178 117.471 296.1 117.545 296.009 117.601C295.919 117.657 295.818 117.694 295.713 117.709L293.152 118.131C293.047 118.149 292.94 118.145 292.836 118.12C292.733 118.095 292.636 118.049 292.55 117.986C292.461 117.926 292.386 117.848 292.329 117.758C292.272 117.667 292.234 117.566 292.218 117.46L291.789 114.838C291.757 114.622 291.812 114.403 291.942 114.227C292.072 114.052 292.265 113.936 292.481 113.903L295.021 113.488Z" fill="#ADA4DB"/>
<g opacity="0.2">
<path d="M291.069 96.7486C291.984 96.5978 292.917 96.5791 293.837 96.6933C294.722 96.7938 295.582 97.0516 296.377 97.4545C297.135 97.8427 297.801 98.3903 298.328 99.0599C298.887 99.7776 299.247 100.63 299.373 101.53C299.517 102.231 299.517 102.954 299.373 103.655C299.229 104.265 298.996 104.85 298.681 105.392C298.373 105.914 298.021 106.409 297.629 106.873L296.515 108.187C296.18 108.581 295.879 109.002 295.616 109.447C295.381 109.842 295.261 110.295 295.27 110.755C295.268 110.971 295.206 111.182 295.09 111.364C295.037 111.451 294.965 111.525 294.88 111.581C294.795 111.637 294.699 111.674 294.598 111.689L292.336 112.063C292.117 112.097 291.894 112.045 291.713 111.917C291.624 111.859 291.55 111.782 291.496 111.691C291.442 111.599 291.41 111.497 291.401 111.391C291.307 110.682 291.361 109.961 291.561 109.274C291.74 108.657 292.003 108.068 292.342 107.523C292.666 107.001 293.035 106.508 293.443 106.049C293.851 105.592 294.218 105.163 294.564 104.748C294.876 104.379 295.147 103.978 295.373 103.551C295.572 103.18 295.642 102.755 295.574 102.34C295.518 101.975 295.374 101.63 295.154 101.333C294.935 101.037 294.647 100.798 294.315 100.638C293.494 100.237 292.563 100.125 291.671 100.319C290.864 100.438 290.114 100.803 289.522 101.364C288.93 101.925 288.526 102.655 288.363 103.454C288.319 103.649 288.24 103.835 288.128 104.001C287.994 104.148 287.808 104.237 287.609 104.25L285.201 104.644C285.03 104.672 284.855 104.635 284.71 104.541C284.634 104.492 284.57 104.426 284.522 104.35C284.474 104.273 284.444 104.187 284.433 104.098C284.349 103.342 284.451 102.577 284.73 101.869C285.031 101.051 285.476 100.294 286.045 99.6343C286.666 98.9099 287.4 98.2906 288.218 97.8005C289.091 97.2681 290.06 96.9108 291.069 96.7486ZM295.021 113.488C295.127 113.47 295.235 113.474 295.34 113.499C295.444 113.524 295.543 113.57 295.629 113.633C295.716 113.695 295.789 113.773 295.845 113.864C295.901 113.954 295.938 114.054 295.955 114.159L296.384 116.775C296.402 116.881 296.398 116.99 296.373 117.094C296.348 117.199 296.302 117.297 296.238 117.384C296.178 117.471 296.1 117.545 296.009 117.601C295.919 117.657 295.818 117.694 295.713 117.709L293.152 118.131C293.047 118.149 292.94 118.145 292.836 118.12C292.733 118.095 292.636 118.049 292.55 117.986C292.461 117.926 292.386 117.848 292.329 117.758C292.272 117.667 292.234 117.566 292.218 117.46L291.789 114.838C291.757 114.622 291.812 114.403 291.942 114.227C292.072 114.052 292.265 113.936 292.481 113.903L295.021 113.488Z" fill="black"/>
</g>
<path d="M314.666 104.174C314.872 104.324 315.011 104.548 315.053 104.799C315.096 105.049 315.039 105.307 314.895 105.516L313.068 108.077C312.918 108.282 312.694 108.421 312.443 108.464C312.192 108.507 311.935 108.45 311.725 108.305L309.22 106.527C309.117 106.454 309.029 106.362 308.963 106.255C308.896 106.148 308.852 106.028 308.833 105.904C308.796 105.661 308.853 105.414 308.992 105.212L310.819 102.645C310.967 102.438 311.191 102.299 311.442 102.257C311.685 102.22 311.933 102.28 312.134 102.423L314.666 104.174ZM325.24 86.8116C326.143 87.4489 326.95 88.2134 327.634 89.0814C328.296 89.9073 328.804 90.8447 329.136 91.8494C329.453 92.8095 329.56 93.8269 329.447 94.8319C329.318 95.902 328.912 96.9202 328.271 97.7867C327.793 98.4874 327.182 99.087 326.472 99.5513C325.841 99.9431 325.155 100.239 324.437 100.43C323.741 100.616 323.031 100.741 322.313 100.804L320.278 100.977C319.671 101.033 319.069 101.139 318.479 101.295C317.951 101.435 317.473 101.717 317.095 102.112C316.914 102.288 316.69 102.415 316.445 102.478C316.326 102.507 316.202 102.508 316.083 102.483C315.963 102.458 315.85 102.407 315.753 102.333L313.538 100.762C313.327 100.61 313.183 100.382 313.137 100.126C313.111 100.005 313.112 99.8795 313.142 99.7594C313.172 99.6394 313.23 99.5279 313.31 99.4337C313.825 98.7584 314.473 98.1956 315.213 97.7798C315.879 97.4145 316.591 97.1398 317.331 96.9632C318.04 96.7919 318.762 96.6808 319.49 96.6311C320.182 96.5896 320.874 96.5342 321.51 96.4719C322.082 96.4226 322.646 96.3089 323.192 96.1328C323.668 95.9879 324.082 95.6884 324.368 95.2817C324.625 94.9293 324.793 94.5194 324.855 94.0876C324.918 93.6559 324.874 93.2153 324.728 92.8043C324.367 91.7845 323.675 90.9148 322.763 90.3339C321.116 89.1575 319.317 89.1183 317.365 90.2162C317.168 90.342 316.95 90.4311 316.722 90.4792C316.603 90.4876 316.484 90.4724 316.371 90.4344C316.258 90.3964 316.154 90.3363 316.064 90.2578L313.711 88.5831C313.54 88.4666 313.421 88.2879 313.379 88.0849C313.359 87.9811 313.362 87.8741 313.387 87.7714C313.412 87.6687 313.459 87.5726 313.525 87.4898C314.072 86.782 314.785 86.2189 315.601 85.8497C316.537 85.4168 317.541 85.1521 318.569 85.0678C319.695 84.976 320.828 85.0648 321.925 85.3307C323.118 85.5997 324.244 86.1031 325.24 86.8116Z" fill="#ADA4DB"/>
<g opacity="0.6">
<path d="M314.666 104.174C314.872 104.324 315.011 104.548 315.053 104.799C315.096 105.049 315.039 105.307 314.895 105.516L313.068 108.077C312.918 108.282 312.694 108.421 312.443 108.464C312.192 108.507 311.935 108.45 311.725 108.305L309.22 106.527C309.117 106.454 309.029 106.362 308.963 106.255C308.896 106.148 308.852 106.028 308.833 105.904C308.796 105.661 308.853 105.414 308.992 105.212L310.819 102.645C310.967 102.438 311.191 102.299 311.442 102.257C311.685 102.22 311.933 102.28 312.134 102.423L314.666 104.174ZM325.24 86.8116C326.143 87.4489 326.95 88.2134 327.634 89.0814C328.296 89.9073 328.804 90.8447 329.136 91.8494C329.453 92.8095 329.56 93.8269 329.447 94.8319C329.318 95.902 328.912 96.9202 328.271 97.7867C327.793 98.4874 327.182 99.087 326.472 99.5513C325.841 99.9431 325.155 100.239 324.437 100.43C323.741 100.616 323.031 100.741 322.313 100.804L320.278 100.977C319.671 101.033 319.069 101.139 318.479 101.295C317.951 101.435 317.473 101.717 317.095 102.112C316.914 102.288 316.69 102.415 316.445 102.478C316.326 102.507 316.202 102.508 316.083 102.483C315.963 102.458 315.85 102.407 315.753 102.333L313.538 100.762C313.327 100.61 313.183 100.382 313.137 100.126C313.111 100.005 313.112 99.8795 313.142 99.7594C313.172 99.6394 313.23 99.5279 313.31 99.4337C313.825 98.7584 314.473 98.1956 315.213 97.7798C315.879 97.4145 316.591 97.1398 317.331 96.9632C318.04 96.7919 318.762 96.6808 319.49 96.6311C320.182 96.5896 320.874 96.5342 321.51 96.4719C322.082 96.4226 322.646 96.3089 323.192 96.1328C323.668 95.9879 324.082 95.6884 324.368 95.2817C324.625 94.9293 324.793 94.5194 324.855 94.0876C324.918 93.6559 324.874 93.2153 324.728 92.8043C324.367 91.7845 323.675 90.9148 322.763 90.3339C321.116 89.1575 319.317 89.1183 317.365 90.2162C317.168 90.342 316.95 90.4311 316.722 90.4792C316.603 90.4876 316.484 90.4724 316.371 90.4344C316.258 90.3964 316.154 90.3363 316.064 90.2578L313.711 88.5831C313.54 88.4666 313.421 88.2879 313.379 88.0849C313.359 87.9811 313.362 87.8741 313.387 87.7714C313.412 87.6687 313.459 87.5726 313.525 87.4898C314.072 86.782 314.785 86.2189 315.601 85.8497C316.537 85.4168 317.541 85.1521 318.569 85.0678C319.695 84.976 320.828 85.0648 321.925 85.3307C323.118 85.5997 324.244 86.1031 325.24 86.8116Z" fill="white"/>
</g>
<path d="M91.676 241.175C91.6068 239.099 93.1015 218.81 93.1015 218.81L83.2197 225.979C85.2473 238.075 85.6832 240.933 85.7178 242.912C85.676 243.077 85.6574 243.247 85.6625 243.418C85.6625 245.77 88.3267 247.037 90.3958 248.608C92.1544 249.983 94.0273 251.205 95.994 252.261C97.4957 253.016 100.554 253.085 100.928 252.116C98.4091 250.192 94.7484 247.314 92.7416 245.12C91.7867 244.068 91.7521 243.238 91.676 241.175Z" fill="#FFA8A7"/>
<path d="M105.225 254.656C105.337 254.979 105.357 255.327 105.283 255.66C105.208 255.994 105.042 256.3 104.803 256.545C102.988 257.853 100.729 258.391 98.5198 258.04C95.3781 257.631 93.6758 256.739 92.4233 255.687C91.1708 254.635 89.4062 253.154 87.9806 252.843C86.8474 252.627 85.7694 252.184 84.8113 251.542C84.3892 251.133 84.4445 249.32 84.4445 249.32L105.225 254.656Z" fill="#263238"/>
<path d="M85.6972 242.338C85.5808 242.341 85.4693 242.386 85.3821 242.463C85.2949 242.54 85.2374 242.645 85.2197 242.76C85.1228 243.258 85.019 244.711 84.8114 245.528C84.4902 246.972 84.3876 248.455 84.5069 249.929C84.6799 250.863 86.8251 251.507 88.2022 252.005C89.8217 252.71 91.3244 253.657 92.6587 254.815C94.5843 256.255 96.8828 257.112 99.2811 257.285C101.703 257.285 104.43 256.482 105.059 255.361C105.827 253.977 105.225 253.168 101.634 251.5C100.942 251.189 98.5684 249.77 97.7518 249.258C95.5512 247.874 93.3715 245.943 92.3542 243.494C92.2722 243.194 92.0918 242.931 91.8421 242.746C91.6242 242.652 91.3824 242.628 91.1501 242.677C90.5503 242.764 89.9671 242.942 89.4201 243.203C88.9426 243.431 88.2576 243.701 88.2645 244.317C88.2792 244.53 88.3259 244.74 88.4029 244.94C88.4444 245.071 88.479 245.237 88.4029 245.313C88.3268 245.39 88.1607 245.313 88.0638 245.217C87.7116 244.856 87.3899 244.467 87.1019 244.054C86.9318 243.842 86.7392 243.65 86.5276 243.48C86.3159 243.36 86.1124 243.226 85.9186 243.078C85.6557 242.891 85.711 242.629 85.6972 242.338Z" fill="#455A64"/>
<path d="M92.6585 254.85C92.0288 254.337 91.3645 253.832 90.7002 253.389C90.7002 253.389 94.9214 255.957 96.6237 254.773C96.9397 254.573 97.1707 254.263 97.2729 253.903C97.375 253.543 97.3409 253.158 97.1773 252.822C97.1773 252.531 99.8623 251.279 100.928 251.154C101.226 251.32 101.475 251.452 101.62 251.521C105.211 253.189 105.813 253.991 105.045 255.382C104.416 256.503 102.443 257.382 99.3156 257.382C97.2811 257.424 94.1117 256.04 92.6585 254.85Z" fill="#37474F"/>
<path d="M96.8798 251.985C99.115 252.877 98.16 253.292 97.5372 253.369C96.9144 253.445 93.1569 251.293 90.8594 249.452C88.562 247.611 86.9635 245.487 86.0777 244.795C85.7455 244.539 85.3857 244.22 85.0674 243.923C85.1297 243.431 85.1781 242.982 85.2196 242.746C85.2374 242.631 85.2948 242.526 85.382 242.449C85.4693 242.372 85.5807 242.328 85.6971 242.324C85.6971 242.615 85.6556 242.885 85.877 243.099C86.0708 243.246 86.2743 243.381 86.486 243.501C86.6976 243.671 86.8902 243.863 87.0603 244.075C87.3483 244.488 87.6701 244.877 88.0222 245.238C90.5123 248.036 93.5201 250.327 96.8798 251.985Z" fill="#263238"/>
<path d="M97.378 253.057C97.3269 253.055 97.278 253.036 97.2396 253.002C97.2171 252.984 97.1983 252.962 97.1844 252.937C97.1704 252.913 97.1616 252.885 97.1584 252.857C97.1551 252.828 97.1576 252.8 97.1656 252.772C97.1736 252.745 97.187 252.719 97.205 252.697C97.7314 252.151 98.3688 251.723 99.0742 251.444C99.7797 251.165 100.537 251.04 101.295 251.078C101.354 251.085 101.408 251.115 101.446 251.162C101.484 251.208 101.501 251.268 101.495 251.327C101.488 251.385 101.459 251.437 101.414 251.473C101.369 251.51 101.311 251.527 101.253 251.521C100.569 251.493 99.8864 251.607 99.249 251.857C98.6115 252.108 98.0333 252.488 97.551 252.974C97.5299 253 97.5035 253.02 97.4737 253.035C97.4438 253.049 97.4112 253.057 97.378 253.057Z" fill="#F5F5F5"/>
<path d="M95.4334 251.888C95.3807 251.89 95.3289 251.873 95.2881 251.839C95.2487 251.797 95.2268 251.741 95.2268 251.683C95.2268 251.626 95.2487 251.57 95.2881 251.528C95.8156 250.983 96.4534 250.558 97.1587 250.28C97.864 250.001 98.6206 249.877 99.3778 249.915C99.4366 249.922 99.4903 249.951 99.5273 249.997C99.5643 250.043 99.5815 250.102 99.5751 250.161C99.5686 250.22 99.5391 250.274 99.4931 250.311C99.447 250.348 99.3881 250.365 99.3294 250.358C98.645 250.328 97.9619 250.442 97.3242 250.692C96.6865 250.943 96.1084 251.324 95.6272 251.812C95.6036 251.839 95.5736 251.86 95.5398 251.874C95.506 251.887 95.4695 251.892 95.4334 251.888Z" fill="#F5F5F5"/>
<path d="M93.4822 250.718C93.4318 250.719 93.3828 250.701 93.3438 250.67C93.3028 250.628 93.2798 250.572 93.2798 250.514C93.2798 250.456 93.3028 250.4 93.3438 250.358C93.8715 249.814 94.5093 249.389 95.2146 249.111C95.9198 248.833 96.6763 248.708 97.4335 248.746C97.4626 248.748 97.4909 248.757 97.5168 248.77C97.5427 248.784 97.5656 248.803 97.5843 248.825C97.603 248.848 97.617 248.874 97.6255 248.902C97.6341 248.93 97.637 248.959 97.6342 248.988C97.6316 249.017 97.6232 249.045 97.6096 249.071C97.596 249.097 97.5774 249.12 97.5549 249.139C97.5324 249.157 97.5064 249.172 97.4784 249.18C97.4505 249.189 97.4211 249.192 97.392 249.189C96.7076 249.159 96.0245 249.272 95.3868 249.523C94.7491 249.773 94.171 250.154 93.6898 250.642C93.664 250.671 93.6317 250.693 93.5955 250.706C93.5593 250.719 93.5204 250.723 93.4822 250.718Z" fill="#F5F5F5"/>
<path d="M91.6761 249.424C91.6257 249.425 91.5767 249.408 91.5377 249.376C91.5165 249.356 91.4997 249.331 91.4882 249.305C91.4766 249.278 91.4707 249.249 91.4707 249.22C91.4707 249.191 91.4766 249.162 91.4882 249.135C91.4997 249.108 91.5165 249.084 91.5377 249.064C92.0646 248.519 92.7023 248.093 93.4077 247.815C94.1132 247.537 94.8701 247.413 95.6274 247.452C95.685 247.459 95.7375 247.488 95.7738 247.533C95.81 247.579 95.827 247.636 95.8211 247.694C95.8142 247.752 95.7849 247.804 95.7396 247.84C95.6943 247.877 95.6366 247.894 95.5789 247.888C94.8949 247.861 94.2126 247.976 93.5754 248.226C92.9381 248.476 92.3597 248.856 91.8767 249.341C91.8532 249.371 91.8224 249.394 91.7873 249.409C91.7521 249.423 91.7138 249.429 91.6761 249.424Z" fill="#F5F5F5"/>
<path d="M89.9114 248.13C89.8615 248.128 89.8134 248.111 89.773 248.082C89.732 248.04 89.709 247.984 89.709 247.926C89.709 247.868 89.732 247.812 89.773 247.77C90.3436 247.176 91.0423 246.72 91.8158 246.437C92.5893 246.154 93.4172 246.052 94.2364 246.137C94.2656 246.139 94.2942 246.146 94.3203 246.16C94.3463 246.173 94.3693 246.192 94.3876 246.215C94.4059 246.238 94.4191 246.264 94.4265 246.292C94.4338 246.321 94.4351 246.35 94.4301 246.379C94.4232 246.437 94.3939 246.489 94.3486 246.526C94.3033 246.562 94.2456 246.579 94.1879 246.573C93.4433 246.5 92.6916 246.593 91.9877 246.847C91.2838 247.101 90.6454 247.508 90.119 248.04C90.0947 248.071 90.063 248.096 90.0267 248.112C89.9904 248.127 89.9507 248.134 89.9114 248.13Z" fill="#F5F5F5"/>
<path d="M73.0611 228.048L63.0894 227.868C63.2347 234.525 64.2934 241.909 64.4734 248.151C64.4734 249.327 64.4734 257.285 64.8886 259.707C65.5806 263.34 69.871 262.849 70.0993 260.676C70.3277 258.503 69.8225 249.209 69.8364 248.22C69.7948 244.22 71.6702 237.459 72.6597 230.269C72.7012 229.944 73.0126 228.394 73.0611 228.048Z" fill="#FFA8A7"/>
<path d="M71.7186 262.185C71.9038 263.85 71.6658 265.535 71.0266 267.084C70.7102 267.699 70.1995 268.193 69.5739 268.488C68.9483 268.783 68.2427 268.864 67.5666 268.717C66.0927 268.503 64.1482 267.714 63.553 265.949C62.9895 264.324 62.7911 262.594 62.9718 260.884L71.7186 262.185Z" fill="#263238"/>
<path d="M64.4457 247.39C63.8575 247.493 63.9682 250.365 63.9128 253.251C63.8505 256.351 63.0686 257.707 62.9925 260.247C62.9025 263.153 63.1862 264.399 64.3765 266.046C65.5667 267.693 69.2827 269.022 70.7844 266.364C72.0092 264.198 71.8431 261.949 71.421 259.098C70.9989 256.247 70.6667 254.088 70.556 251.832C70.4453 249.576 70.3969 247.576 69.864 247.39C69.864 247.708 69.864 248.116 69.864 248.428C69.864 248.739 69.9125 249.812 69.5803 249.881C69.5291 249.614 69.499 249.343 69.4903 249.071C69.5057 248.82 69.424 248.572 69.262 248.379C69.0618 248.232 68.8187 248.154 68.57 248.158C67.9772 248.091 67.3811 248.059 66.7846 248.061C66.4871 248.061 66.1826 248.061 65.8919 248.109C65.6363 248.129 65.3858 248.192 65.1515 248.296C65.0825 248.326 65.0204 248.369 64.9692 248.424C64.9179 248.479 64.8787 248.544 64.8539 248.614C64.8332 248.724 64.8332 248.837 64.8539 248.947C64.8782 249.144 64.8782 249.344 64.8539 249.542C64.8539 249.632 64.7917 249.742 64.7017 249.729C64.6117 249.715 64.5979 249.632 64.591 249.563C64.5495 249.217 64.591 248.96 64.5495 248.559C64.5495 248.372 64.5495 248.116 64.5495 247.929C64.5495 247.743 64.4526 247.576 64.4457 247.39Z" fill="#455A64"/>
<path d="M63.0411 259.416C63.0411 259.838 62.9511 262.613 63.7331 263.029C64.5151 263.444 64.8195 261.285 64.8195 261.285C64.8195 261.285 66.6533 260.517 69.5321 261.444C69.4352 261.901 70.0026 263.326 70.7292 262.939C71.4558 262.551 71.4212 259.389 71.4212 259.347C71.8157 262.115 71.9402 264.26 70.7292 266.364C69.2276 269.021 65.4977 267.679 64.3213 266.046C63.1449 264.413 62.8612 263.153 62.9373 260.247C62.9719 259.956 63.0203 259.686 63.0411 259.416Z" fill="#37474F"/>
<path d="M65.0478 261.444C65.1378 262.482 64.086 262.24 63.8922 260.752C63.6984 259.264 64.1552 255.742 63.8922 253.223C63.9476 250.337 63.8368 247.466 64.425 247.362C64.4216 247.396 64.4216 247.431 64.425 247.466L64.4942 248.926C64.4806 249.133 64.4806 249.341 64.4942 249.549C64.688 251.666 64.8056 255.777 64.8126 257.728C64.8247 258.97 64.9033 260.21 65.0478 261.444Z" fill="#263238"/>
<path d="M69.1999 261.444C69.3355 260.219 69.4025 258.988 69.4006 257.756C69.4006 255.818 69.5251 251.756 69.7189 249.625C69.7939 249.23 69.8241 248.829 69.8089 248.428C69.8089 248.137 69.8089 247.736 69.8089 247.459C69.8089 247.459 69.8089 247.417 69.8089 247.39C70.1964 247.535 70.3348 248.677 70.4178 250.116C70.4178 250.953 70.4178 251.991 70.3417 253.251C70.0787 255.77 70.5355 259.34 70.3417 260.801C70.1479 262.261 69.1307 262.482 69.1999 261.444Z" fill="#263238"/>
<path d="M69.6082 261.52H69.5321C68.0368 261.004 66.4117 261.004 64.9164 261.52C64.8891 261.531 64.8601 261.536 64.8309 261.535C64.8017 261.534 64.773 261.528 64.7463 261.516C64.7196 261.504 64.6956 261.487 64.6755 261.466C64.6554 261.444 64.6397 261.419 64.6292 261.392C64.6188 261.365 64.6138 261.336 64.6146 261.307C64.6154 261.278 64.6219 261.249 64.6338 261.222C64.6457 261.195 64.6627 261.171 64.6839 261.151C64.7051 261.131 64.73 261.115 64.7573 261.105C66.3526 260.535 68.0959 260.535 69.6912 261.105C69.7184 261.115 69.7433 261.13 69.7644 261.15C69.7855 261.17 69.8024 261.194 69.8141 261.22C69.8257 261.247 69.8318 261.275 69.8321 261.304C69.8324 261.333 69.8269 261.362 69.8158 261.389C69.7988 261.429 69.7698 261.464 69.7327 261.487C69.6955 261.511 69.6521 261.522 69.6082 261.52Z" fill="#F5F5F5"/>
<path d="M69.8918 259.223C69.8668 259.229 69.8406 259.229 69.8156 259.223C68.1344 258.701 66.3345 258.701 64.6533 259.223C64.6256 259.233 64.5963 259.237 64.5669 259.235C64.5376 259.233 64.5089 259.226 64.4825 259.213C64.4561 259.2 64.4325 259.182 64.4131 259.16C64.3937 259.138 64.3789 259.112 64.3696 259.084C64.3599 259.057 64.3558 259.028 64.3576 258.999C64.3593 258.97 64.3669 258.942 64.3798 258.916C64.3927 258.891 64.4108 258.868 64.4328 258.849C64.4548 258.83 64.4804 258.816 64.508 258.808C66.284 258.242 68.1919 258.242 69.9679 258.808C70.0165 258.826 70.0572 258.86 70.083 258.905C70.1088 258.95 70.1179 259.003 70.1089 259.054C70.0998 259.105 70.0731 259.151 70.0334 259.185C69.9938 259.218 69.9436 259.236 69.8918 259.237V259.223Z" fill="#F5F5F5"/>
<path d="M64.5634 257.05C64.5211 257.049 64.4799 257.036 64.4444 257.013C64.409 256.989 64.3807 256.957 64.3628 256.918C64.3393 256.865 64.3378 256.805 64.3585 256.75C64.3792 256.696 64.4205 256.652 64.4735 256.628C66.2215 255.94 68.1628 255.928 69.9195 256.593C69.9467 256.603 69.9716 256.618 69.9927 256.638C70.0138 256.658 70.0307 256.682 70.0424 256.708C70.054 256.735 70.0601 256.763 70.0604 256.792C70.0607 256.821 70.0552 256.85 70.0441 256.877C70.0225 256.931 69.9807 256.974 69.9276 256.997C69.8746 257.02 69.8145 257.022 69.7604 257.001C69.7604 257.001 67.0477 255.936 64.6603 257.001C64.6321 257.025 64.599 257.041 64.5634 257.05Z" fill="#F5F5F5"/>
<path d="M64.5151 255.015C64.4733 255.016 64.4323 255.004 64.3968 254.982C64.3612 254.96 64.3327 254.928 64.3144 254.891C64.2905 254.838 64.288 254.779 64.3073 254.725C64.3267 254.67 64.3665 254.626 64.4182 254.6C65.2857 254.205 66.2263 253.995 67.1796 253.984C68.133 253.974 69.078 254.162 69.9542 254.538C69.9804 254.55 70.004 254.567 70.0235 254.588C70.0431 254.609 70.0581 254.634 70.0678 254.661C70.0775 254.688 70.0816 254.717 70.0799 254.746C70.0782 254.775 70.0708 254.803 70.058 254.829C70.0461 254.855 70.0291 254.878 70.0079 254.898C69.9867 254.917 69.9618 254.932 69.9347 254.942C69.9076 254.952 69.8788 254.956 69.85 254.954C69.8213 254.953 69.7932 254.945 69.7674 254.932C68.9453 254.592 68.0626 254.422 67.1729 254.433C66.2832 254.443 65.4049 254.635 64.5912 254.995C64.5671 255.006 64.5414 255.013 64.5151 255.015Z" fill="#F5F5F5"/>
<path d="M64.4665 252.739C64.4158 252.74 64.3664 252.723 64.3265 252.692C64.2866 252.66 64.2586 252.616 64.2473 252.567C64.236 252.518 64.2419 252.466 64.2642 252.42C64.2864 252.375 64.3236 252.338 64.3696 252.317C67.0061 251.016 69.8502 252.261 69.9679 252.317C69.9954 252.327 70.0204 252.343 70.0412 252.364C70.062 252.385 70.0782 252.41 70.0887 252.437C70.0992 252.465 70.1037 252.494 70.1019 252.523C70.1002 252.553 70.0922 252.581 70.0786 252.607C70.0544 252.66 70.0104 252.702 69.956 252.722C69.9016 252.743 69.8412 252.742 69.7879 252.718C69.7879 252.718 67.0199 251.507 64.5703 252.718C64.5383 252.735 64.5023 252.742 64.4665 252.739Z" fill="#F5F5F5"/>
<path d="M66.3696 163.312C62.8542 173.048 63.4701 179.158 64.0721 189.365C64.6257 198.721 65.5046 206.963 65.5046 206.963C65.3662 208.624 63.0549 211.862 62.7366 219.197C62.6346 224.362 62.8657 229.528 63.4286 234.664C63.4286 234.664 68.0304 236.345 71.9194 234.664C71.9194 234.664 75.8984 217.094 76.9848 208.506C77.926 201.012 79.5729 191.434 79.5729 191.434L83.0329 208.471C82.3566 210.761 82.0094 213.135 82.0018 215.523C82.0018 219.53 83.8633 230.671 83.8633 230.671C83.8633 230.671 89.0187 232.339 92.285 229.439C92.285 229.439 93.579 213.405 94.0357 207.295C94.6447 199.143 93.7589 176.799 91.8006 165.36L66.3696 163.312Z" fill="#455A64"/>
<path d="M79.6145 191.407L81.0539 178.591C81.0539 178.591 87.4964 177.733 90.4166 174.986C89.5789 176.296 88.4623 177.405 87.1465 178.234C85.8307 179.063 84.3481 179.591 82.8046 179.781L80.7286 191.711L83.0814 208.444L79.6145 191.407Z" fill="#37474F"/>
<path d="M95.5444 153.81C92.4096 150.585 86.749 143.292 86.749 143.292L83.552 132.22C84.2666 132.257 84.9826 132.257 85.6972 132.22C89.1572 132.448 90.1744 132.746 92.3266 135.099C94.0358 136.974 100.554 145.873 102.817 148.869L108.831 141.209C110.277 139.029 110.042 136.586 110.789 134.808C111.536 133.029 112.747 132.247 113.716 130.656C114.685 129.064 114.913 127.999 115.709 128.822C116.505 129.646 115.585 131.86 115.467 132.365C115.349 132.87 114.131 134.372 116.159 133.59C118.187 132.808 121.314 129.106 122.117 128.352C122.92 127.597 123.349 128.767 123.169 129.694C122.989 130.621 123.861 132.711 123.543 134.24C123.345 135.779 122.58 137.188 121.397 138.192C119.937 139.659 116.367 141.465 114.969 143.396C113.571 145.326 110.588 151.326 108.741 154.938C106.423 159.533 104.45 161.049 101.821 159.498C99.1912 157.948 96.7 155.007 95.5444 153.81Z" fill="#FFA8A7"/>
<path d="M84.5692 132.102C86.3386 131.925 88.1248 132.162 89.7869 132.794C91.6622 133.638 92.9355 135.452 94.7693 137.908C96.6031 140.365 99.8763 144.662 99.8763 144.662C99.8763 144.662 98.9905 148.392 93.15 151.741L83.6143 141.922L84.5692 132.102Z" fill="#37474F"/>
<path d="M102.817 148.863C101.676 149.939 100.912 151.353 100.637 152.897C100.637 152.897 99.9453 150.676 102.305 148.178L102.817 148.863Z" fill="#F28F8F"/>
<path d="M91.4753 151.762C95.7311 148.26 94.3263 143.7 92.7762 140.628C89.6692 134.49 86.4375 132.075 85.0881 132.095L76.625 132.178C72.5837 132.732 69.4558 132.455 68.4801 132.684C65.9889 133.272 65.9336 135.32 65.8367 137.97C65.7329 140.877 64.2451 140.386 64.9994 145.188C65.889 146.973 66.6701 148.81 67.3383 150.689C67.795 152.35 69.0822 154.994 68.3971 157.679C68.1341 158.717 67.4283 159.755 66.3695 162.599C65.169 165.796 64.2769 169.1 63.7053 172.467C63.7053 172.467 66.1758 171.892 68.9853 168.903C68.9853 168.903 72.8259 174.044 82.0641 173.525C91.6483 172.986 92.4925 167.989 92.4925 167.989L91.0255 158.993C91.2469 155.36 91.3438 154.046 91.4753 151.762Z" fill="#ADA4DB"/>
<path opacity="0.1" d="M85.9463 150.856C85.9463 150.856 82.4864 153.624 78.4243 152.295C77.2928 151.956 76.2669 151.333 75.4445 150.485C74.622 149.637 74.0303 148.593 73.7256 147.451C73.7256 147.451 73.3796 152.053 78.4866 153.534C79.8527 153.948 81.316 153.912 82.6596 153.429C84.0032 152.947 85.1557 152.044 85.9463 150.856Z" fill="black"/>
<path d="M61.7193 128.144C60.4668 127.231 53.7198 136.261 56.8753 138.524C60.0308 140.787 63.3939 134.372 62.7158 131.341C62.0376 128.31 61.7193 128.144 61.7193 128.144Z" fill="#37474F"/>
<path d="M55.5951 123.66C57.2836 121.321 58.4323 119.556 59.9755 117.55C60.8474 116.408 61.4079 115.598 62.2452 114.429C62.8265 113.626 63.1656 112.948 63.8161 112.692C64.5422 112.372 65.1912 111.9 65.7191 111.308C66.0423 110.933 66.3405 110.538 66.6117 110.124C67.5871 108.774 68.7525 107.571 70.0717 106.554C71.4557 105.481 72.9712 104.651 74.3829 103.627C75.2202 103.018 76.1198 102.014 75.0749 101.108C74.7502 100.846 74.3646 100.669 73.9539 100.596C71.435 100.09 69.2552 100.997 66.8055 101.668C65.7403 101.959 64.6992 102.331 63.6915 102.782C63.1913 102.985 62.7246 103.263 62.3075 103.606C61.728 104.211 61.2596 104.914 60.9235 105.682C59.8509 107.654 57.5881 109.412 56.0034 110.955C54.1419 112.768 52.4811 114.415 50.3567 116.429C48.4467 118.228 46.5714 119.889 44.8207 121.854C43.3744 123.473 43.9349 124.719 44.1287 125.141C45.3743 127.591 46.7306 128.456 48.3637 129.985C48.9035 130.483 49.4501 130.974 49.9968 131.466C52.1143 133.376 54.2319 135.161 56.4324 137.002C58.7852 138.939 59.754 139.88 61.8508 141.763C63.1739 142.978 64.2766 144.413 65.1101 146.005C68.7431 146.607 72.3138 141.05 69.1998 134.552C68.6876 133.501 67.913 132.6 66.9508 131.936C63.1171 129.203 55.5951 123.66 55.5951 123.66Z" fill="#FFA8A7"/>
<path d="M55.595 123.66C54.4617 125.099 52.9389 126.182 51.2078 126.781C51.2078 126.781 53.526 127.335 56.64 124.435L55.595 123.66Z" fill="#F28F8F"/>
<path d="M68.7709 132.628C67.9197 132.04 65.8506 130.787 61.7194 128.144C61.7194 128.144 62.356 129.48 61.3526 132.836C60.3492 136.192 58.2317 138.316 56.9031 138.559C56.9031 138.559 59.2144 140.386 61.3457 142.448C63.4771 144.51 65.2278 145.97 66.4596 148.364C66.4596 148.364 69.5044 147.582 70.1964 142.42C70.6808 138.801 70.3902 134.552 68.7709 132.628Z" fill="#455A64"/>
<path d="M91.8836 116.007C92.4919 114.721 92.7599 113.301 92.6617 111.882C92.5636 110.463 92.1026 109.093 91.323 107.903C88.7004 104.173 84.2785 102.367 79.393 102.423H77.8775C71.2827 102.533 65.29 108.194 65.1724 114.567C65.1724 119.051 65.1724 123.196 67.6428 126.255C69.9195 129.099 73.4694 130.033 76.4658 130.49C82.1956 131.362 88.6312 130.698 91.2331 126.795C91.2331 126.795 87.7731 127.487 88.209 123.902C88.2713 123.335 87.7316 122.712 86.7835 122.069C87.4476 120.918 88.2291 119.84 89.1156 118.851C90.0913 117.875 91.2192 117.328 91.8836 116.007Z" fill="#263238"/>
<path d="M90.1743 119.28C90.1397 125.957 88.0014 127.639 86.9288 128.137C85.8562 128.635 83.7525 128.372 81.7111 128.075L81.7803 132.082C81.7803 132.082 84.1677 134.497 84.0293 136.337C83.8909 138.178 80.3756 138.413 77.7114 136.69C76.2438 135.718 74.9126 134.555 73.7531 133.23C73.5319 132.974 73.407 132.648 73.4002 132.31L73.2341 122.892C73.2341 122.892 72.1408 124.089 70.1478 122.774C69.7173 122.511 69.3462 122.161 69.058 121.747C68.7699 121.333 68.571 120.863 68.4741 120.368C68.3771 119.873 68.3842 119.363 68.4948 118.87C68.6055 118.378 68.8172 117.914 69.1167 117.508C69.3983 117.234 69.7364 117.026 70.1074 116.897C70.4783 116.768 70.873 116.722 71.2637 116.762C71.6543 116.802 72.0313 116.928 72.3682 117.13C72.7051 117.332 72.9936 117.605 73.2134 117.93C73.8223 119.065 73.767 119.868 74.5974 119.736C75.4278 119.605 75.4624 118.705 75.5177 118.062C75.5731 117.418 75.5177 117.21 75.6008 116.366C77.573 115.944 79.6144 113.197 79.8427 111.19C81.1788 111.847 82.6513 112.179 84.1401 112.159C86.3475 112.007 87.4893 111.564 88.5758 109.972C88.8347 110.336 89.0419 110.735 89.1917 111.155C89.4991 112.008 89.7306 112.885 89.8837 113.778C90.1301 115.601 90.2274 117.441 90.1743 119.28Z" fill="#FFA8A7"/>
<path d="M81.7111 128.075C79.559 127.826 75.1232 126.636 74.4036 124.906C74.6944 125.784 75.2475 126.552 75.9882 127.106C77.3307 128.214 81.7318 129.411 81.7318 129.411L81.7111 128.075Z" fill="#F28F8F"/>
<path d="M83.8771 124.476C83.8812 124.65 83.8335 124.822 83.74 124.969C83.6466 125.116 83.5116 125.231 83.3523 125.301C83.1929 125.372 83.0163 125.393 82.8449 125.362C82.6735 125.332 82.5149 125.251 82.3894 125.131C82.2639 125.01 82.1771 124.855 82.1399 124.685C82.1027 124.515 82.1169 124.337 82.1806 124.175C82.2444 124.013 82.3548 123.874 82.4979 123.775C82.641 123.675 82.8103 123.621 82.9844 123.618C83.2163 123.615 83.4403 123.703 83.6075 123.863C83.7747 124.024 83.8716 124.244 83.8771 124.476Z" fill="#B16668"/>
<path d="M82.7491 117.902C82.7605 118.025 82.7475 118.149 82.7108 118.267C82.6741 118.384 82.6145 118.494 82.5353 118.588C82.4562 118.683 82.3592 118.761 82.2498 118.818C82.1404 118.875 82.0208 118.909 81.8979 118.92C81.7087 118.94 81.5177 118.903 81.3495 118.814C81.1814 118.725 81.0436 118.588 80.954 118.42C80.8644 118.252 80.827 118.061 80.8466 117.872C80.8663 117.682 80.942 117.503 81.0641 117.357C81.1862 117.211 81.3492 117.105 81.5321 117.052C81.715 117 81.9094 117.003 82.0905 117.062C82.2715 117.12 82.431 117.231 82.5483 117.381C82.6657 117.531 82.7356 117.713 82.7491 117.902Z" fill="#263238"/>
<path d="M88.991 117.508C89.0082 117.734 88.9358 117.957 88.7893 118.129C88.6429 118.302 88.4344 118.409 88.209 118.429C88.0955 118.443 87.9803 118.432 87.8713 118.397C87.7623 118.363 87.662 118.305 87.5773 118.228C87.4926 118.151 87.4254 118.057 87.3804 117.952C87.3353 117.847 87.3135 117.733 87.3164 117.619C87.3049 117.507 87.3161 117.394 87.3491 117.286C87.3821 117.178 87.4363 117.078 87.5085 116.992C87.5807 116.906 87.6695 116.834 87.7696 116.783C87.8697 116.731 87.9791 116.7 88.0914 116.692C88.3186 116.682 88.5403 116.763 88.7087 116.915C88.877 117.068 88.9785 117.281 88.991 117.508Z" fill="#263238"/>
<path d="M84.6799 116.643L85.3443 122.221L88.2022 121.03L84.6799 116.643Z" fill="#F28F8F"/>
<path d="M79.4138 115.494L81.0746 113.917C81.2814 114.147 81.3918 114.447 81.3828 114.757C81.3737 115.066 81.246 115.36 81.0262 115.577C80.9166 115.681 80.7871 115.762 80.6454 115.814C80.5038 115.866 80.353 115.889 80.2022 115.882C80.0514 115.874 79.9037 115.835 79.7682 115.769C79.6327 115.702 79.5121 115.609 79.4138 115.494Z" fill="#263238"/>
<path d="M87.7246 113.405L89.5653 114.789C89.4805 114.914 89.3711 115.02 89.2438 115.101C89.1165 115.182 88.9739 115.237 88.8248 115.261C88.6757 115.284 88.5233 115.278 88.377 115.241C88.2306 115.204 88.0934 115.137 87.9737 115.045C87.7327 114.854 87.573 114.578 87.5268 114.274C87.4805 113.97 87.5512 113.659 87.7246 113.405Z" fill="#263238"/>
<path d="M61.1934 62.7158C62.5203 62.4628 63.8767 62.4022 65.2209 62.5359C66.5054 62.6485 67.7593 62.9907 68.9231 63.5462C70.0396 64.0792 71.0267 64.849 71.8156 65.8021C72.6475 66.8222 73.2006 68.0405 73.4211 69.3382C73.6285 70.3565 73.6285 71.4062 73.4211 72.4245C73.235 73.3109 72.9178 74.1645 72.4799 74.9573C72.0549 75.7287 71.5616 76.4605 71.006 77.144C70.4524 77.836 69.9265 78.4726 69.4351 79.0885C68.9652 79.6681 68.5484 80.2888 68.1895 80.9431C67.8597 81.5239 67.6991 82.1856 67.7259 82.853C67.73 83.1633 67.6511 83.4691 67.4975 83.7387C67.4251 83.8662 67.3256 83.9763 67.206 84.0612C67.0865 84.1461 66.9498 84.2037 66.8055 84.2301L63.5462 84.8459C63.3914 84.8767 63.232 84.8761 63.0774 84.844C62.9229 84.8119 62.7764 84.749 62.6466 84.6591C62.5116 84.5818 62.3975 84.4727 62.3143 84.3412C62.2311 84.2097 62.1813 84.0599 62.1691 83.9048C62.0103 82.881 62.0621 81.8355 62.3214 80.8323C62.5674 79.9385 62.9279 79.0803 63.394 78.2789C63.8445 77.5156 64.3609 76.7932 64.9371 76.1198C65.5115 75.4278 66.0305 74.805 66.508 74.1961C66.9469 73.6492 67.3273 73.0577 67.6429 72.4315C67.9143 71.888 67.9994 71.2704 67.8851 70.6738C67.7931 70.148 67.5743 69.6525 67.2475 69.2304C66.9207 68.8084 66.4958 68.4724 66.0097 68.2518C64.804 67.7038 63.4497 67.5747 62.1622 67.885C59.7356 68.3464 58.1786 69.901 57.4912 72.5491C57.4307 72.8282 57.3231 73.095 57.1729 73.338C56.981 73.5598 56.7107 73.6987 56.4186 73.7255L52.9586 74.3829C52.7196 74.4254 52.4734 74.3786 52.2666 74.2514C52.1579 74.1796 52.0655 74.0859 51.9952 73.9763C51.9249 73.8666 51.8783 73.7435 51.8583 73.6148C51.7089 72.5232 51.8276 71.4116 52.2043 70.3762C52.5961 69.1803 53.1958 68.0629 53.9759 67.0754C54.8505 65.9941 55.8924 65.0596 57.0622 64.3074C58.3229 63.5137 59.7261 62.9731 61.1934 62.7158ZM67.5114 86.7628C67.8191 86.7096 68.1354 86.778 68.3936 86.9536C68.6518 87.1292 68.8317 87.3982 68.8954 87.7039L69.5874 91.4822C69.619 91.6337 69.6186 91.79 69.5865 91.9413C69.5543 92.0926 69.491 92.2356 69.4005 92.3611C69.3155 92.4898 69.2056 92.6002 69.0772 92.6858C68.9489 92.7713 68.8047 92.8303 68.6532 92.8593L64.9648 93.5513C64.8123 93.583 64.6548 93.5828 64.5024 93.5506C64.3499 93.5185 64.2058 93.4551 64.0791 93.3645C63.9503 93.2795 63.8399 93.1695 63.7544 93.0412C63.6688 92.9128 63.6098 92.7686 63.5808 92.6171L62.8888 88.8388C62.8599 88.6868 62.8622 88.5305 62.8955 88.3795C62.9288 88.2284 62.9924 88.0857 63.0826 87.9599C63.1654 87.8293 63.2747 87.7174 63.4035 87.6316C63.5322 87.5458 63.6775 87.4879 63.8299 87.4617L67.5114 86.7628Z" fill="#ADA4DB"/>
<path d="M96.3608 78.3067C97.1769 78.7593 97.9228 79.328 98.5752 79.9952C99.2094 80.6204 99.7231 81.357 100.091 82.1681C100.443 82.9439 100.625 83.7864 100.624 84.6385C100.623 85.5468 100.384 86.4391 99.9315 87.2266C99.5925 87.8578 99.1343 88.4171 98.5821 88.8736C98.0876 89.2576 97.5398 89.5676 96.9559 89.7939C96.3885 90.0157 95.8027 90.187 95.2052 90.306L93.5167 90.6382C93.0102 90.7355 92.5143 90.8815 92.0358 91.0741C91.6052 91.2339 91.2286 91.5122 90.9494 91.8769C90.8133 92.0444 90.6337 92.1713 90.4304 92.2436C90.3348 92.2794 90.2325 92.2936 90.1308 92.2853C90.0292 92.2769 89.9306 92.2461 89.8422 92.1952L87.8423 91.0741C87.6478 90.9677 87.5035 90.7886 87.4409 90.5759C87.4069 90.4749 87.3967 90.3673 87.4111 90.2617C87.4255 90.1561 87.4642 90.0552 87.524 89.9669C87.8924 89.3551 88.3823 88.8253 88.9633 88.4099C89.4899 88.0421 90.0622 87.7443 90.6657 87.5242C91.2444 87.3183 91.8392 87.1609 92.4441 87.0536C93.0461 86.9498 93.6066 86.846 94.1326 86.7353C94.6072 86.6361 95.0708 86.4901 95.5166 86.2993C95.9013 86.1296 96.2215 85.841 96.43 85.4759C96.6118 85.1548 96.713 84.7944 96.725 84.4256C96.7371 84.0568 96.6596 83.6906 96.4992 83.3583C96.104 82.5342 95.4436 81.8666 94.6239 81.4623C93.9178 81.0542 93.1031 80.8738 92.2907 80.9456C91.4784 81.0175 90.7079 81.338 90.0844 81.8636C89.9301 81.989 89.7542 82.0851 89.5654 82.1473C89.3672 82.1802 89.1641 82.1356 88.9979 82.0228L86.8666 80.8325C86.7157 80.7477 86.6022 80.6095 86.5482 80.445C86.5213 80.359 86.5129 80.2683 86.5237 80.1788C86.5344 80.0894 86.564 80.0032 86.6105 79.926C87.0145 79.2827 87.5676 78.7463 88.2229 78.3621C88.9689 77.9119 89.789 77.5979 90.6449 77.4348C91.5818 77.2512 92.5424 77.2208 93.489 77.3449C94.4992 77.4779 95.4743 77.8045 96.3608 78.3067ZM89.0671 93.8421C89.1611 93.8942 89.2437 93.9645 89.3103 94.0489C89.3768 94.1332 89.4259 94.23 89.4547 94.3335C89.4853 94.4355 89.495 94.5426 89.4831 94.6485C89.4712 94.7543 89.438 94.8567 89.3854 94.9494L88.0914 97.2675C87.9864 97.4562 87.811 97.5956 87.6035 97.6552C87.396 97.7149 87.1734 97.69 86.9842 97.5859L84.7214 96.3195C84.6261 96.2701 84.5427 96.2005 84.477 96.1157C84.4113 96.0309 84.3648 95.9328 84.3408 95.8282C84.3079 95.7268 84.2964 95.6197 84.3071 95.5137C84.3178 95.4077 84.3505 95.305 84.403 95.2123L85.6971 92.8941C85.7496 92.8012 85.8201 92.7197 85.9044 92.6543C85.9888 92.589 86.0853 92.5411 86.1884 92.5135C86.2902 92.4812 86.3976 92.4707 86.5037 92.4826C86.6098 92.4945 86.7122 92.5286 86.8043 92.5827L89.0671 93.8421Z" fill="#ADA4DB"/>
<g opacity="0.2">
<path d="M96.3608 78.3067C97.1769 78.7593 97.9228 79.328 98.5752 79.9952C99.2094 80.6204 99.7231 81.357 100.091 82.1681C100.443 82.9439 100.625 83.7864 100.624 84.6385C100.623 85.5468 100.384 86.4391 99.9315 87.2266C99.5925 87.8578 99.1343 88.4171 98.5821 88.8736C98.0876 89.2576 97.5398 89.5676 96.9559 89.7939C96.3885 90.0157 95.8027 90.187 95.2052 90.306L93.5167 90.6382C93.0102 90.7355 92.5143 90.8815 92.0358 91.0741C91.6052 91.2339 91.2286 91.5122 90.9494 91.8769C90.8133 92.0444 90.6337 92.1713 90.4304 92.2436C90.3348 92.2794 90.2325 92.2936 90.1308 92.2853C90.0292 92.2769 89.9306 92.2461 89.8422 92.1952L87.8423 91.0741C87.6478 90.9677 87.5035 90.7886 87.4409 90.5759C87.4069 90.4749 87.3967 90.3673 87.4111 90.2617C87.4255 90.1561 87.4642 90.0552 87.524 89.9669C87.8924 89.3551 88.3823 88.8253 88.9633 88.4099C89.4899 88.0421 90.0622 87.7443 90.6657 87.5242C91.2444 87.3183 91.8392 87.1609 92.4441 87.0536C93.0461 86.9498 93.6066 86.846 94.1326 86.7353C94.6072 86.6361 95.0708 86.4901 95.5166 86.2993C95.9013 86.1296 96.2215 85.841 96.43 85.4759C96.6118 85.1548 96.713 84.7944 96.725 84.4256C96.7371 84.0568 96.6596 83.6906 96.4992 83.3583C96.104 82.5342 95.4436 81.8666 94.6239 81.4623C93.9178 81.0542 93.1031 80.8738 92.2907 80.9456C91.4784 81.0175 90.7079 81.338 90.0844 81.8636C89.9301 81.989 89.7542 82.0851 89.5654 82.1473C89.3672 82.1802 89.1641 82.1356 88.9979 82.0228L86.8666 80.8325C86.7157 80.7477 86.6022 80.6095 86.5482 80.445C86.5213 80.359 86.5129 80.2683 86.5237 80.1788C86.5344 80.0894 86.564 80.0032 86.6105 79.926C87.0145 79.2827 87.5676 78.7463 88.2229 78.3621C88.9689 77.9119 89.789 77.5979 90.6449 77.4348C91.5818 77.2512 92.5424 77.2208 93.489 77.3449C94.4992 77.4779 95.4743 77.8045 96.3608 78.3067ZM89.0671 93.8421C89.1611 93.8942 89.2437 93.9645 89.3103 94.0489C89.3768 94.1332 89.4259 94.23 89.4547 94.3335C89.4853 94.4355 89.495 94.5426 89.4831 94.6485C89.4712 94.7543 89.438 94.8567 89.3854 94.9494L88.0914 97.2675C87.9864 97.4562 87.811 97.5956 87.6035 97.6552C87.396 97.7149 87.1734 97.69 86.9842 97.5859L84.7214 96.3195C84.6261 96.2701 84.5427 96.2005 84.477 96.1157C84.4113 96.0309 84.3648 95.9328 84.3408 95.8282C84.3079 95.7268 84.2964 95.6197 84.3071 95.5137C84.3178 95.4077 84.3505 95.305 84.403 95.2123L85.6971 92.8941C85.7496 92.8012 85.8201 92.7197 85.9044 92.6543C85.9888 92.589 86.0853 92.5411 86.1884 92.5135C86.2902 92.4812 86.3976 92.4707 86.5037 92.4826C86.6098 92.4945 86.7122 92.5286 86.8043 92.5827L89.0671 93.8421Z" fill="black"/>
</g>
<path d="M47.6164 103.717C47.7086 103.629 47.8174 103.562 47.9363 103.518C48.0552 103.474 48.1818 103.454 48.3084 103.461C48.4383 103.462 48.5665 103.49 48.6854 103.542C48.8042 103.595 48.9114 103.67 49.0004 103.765L51.1318 106.076C51.2195 106.171 51.2877 106.281 51.3324 106.402C51.3771 106.523 51.3974 106.651 51.3923 106.78C51.3872 106.908 51.3566 107.035 51.3024 107.152C51.2482 107.268 51.1714 107.373 51.0764 107.46L48.8205 109.536C48.7262 109.624 48.6155 109.692 48.4948 109.737C48.3741 109.782 48.2456 109.802 48.117 109.797C47.9883 109.792 47.862 109.761 47.7452 109.707C47.6284 109.653 47.5235 109.576 47.4365 109.481L45.3052 107.17C45.2166 107.076 45.1477 106.965 45.1025 106.844C45.0572 106.724 45.0366 106.595 45.0417 106.466C45.0469 106.337 45.0777 106.21 45.1325 106.094C45.1872 105.977 45.2648 105.872 45.3605 105.786L47.6164 103.717ZM32.8076 89.7728C33.6168 89.0165 34.5304 88.3803 35.5203 87.8836C36.4603 87.4085 37.4771 87.1039 38.5236 86.984C39.5281 86.8731 40.5447 86.9769 41.5061 87.2885C42.5275 87.6371 43.4408 88.2452 44.1564 89.0531C44.7553 89.6615 45.2259 90.3839 45.5404 91.1775C45.7942 91.8737 45.9435 92.6036 45.9833 93.3435C46.0228 94.0638 45.9997 94.7862 45.9141 95.5025C45.8242 96.1945 45.7411 96.8865 45.665 97.5301C45.5899 98.136 45.5691 98.7474 45.6027 99.357C45.6257 99.9048 45.8033 100.435 46.1148 100.886C46.2489 101.093 46.3254 101.332 46.3362 101.578C46.3423 101.7 46.3204 101.821 46.2725 101.932C46.2245 102.044 46.1516 102.143 46.0594 102.222L44.0665 104.069C43.8774 104.241 43.6295 104.333 43.3745 104.326C43.248 104.33 43.1222 104.304 43.0077 104.25C42.8933 104.196 42.7936 104.115 42.7171 104.014C42.1634 103.37 41.7445 102.622 41.4853 101.814C41.2686 101.087 41.1476 100.336 41.1255 99.5784C41.1039 98.8473 41.1455 98.1156 41.25 97.3917C41.3538 96.6997 41.4369 96.0077 41.5061 95.3849C41.5681 94.8122 41.5681 94.2345 41.5061 93.6618C41.4609 93.1685 41.2542 92.7038 40.9179 92.3401C40.6253 92.0159 40.2582 91.7677 39.8483 91.617C39.4384 91.4663 38.998 91.4176 38.5651 91.4751C37.4973 91.6132 36.5049 92.0997 35.7417 92.8591C34.2562 94.2431 33.8479 95.9985 34.5169 98.1252C34.5989 98.3467 34.6411 98.581 34.6414 98.8172C34.6243 98.9337 34.5843 99.0456 34.5237 99.1466C34.4632 99.2475 34.3832 99.3355 34.2885 99.4054L32.1641 101.371C32.0156 101.514 31.8169 101.594 31.6105 101.592C31.5048 101.59 31.4007 101.566 31.3052 101.521C31.2097 101.475 31.125 101.41 31.0569 101.329C30.4686 100.649 30.0574 99.8332 29.8597 98.9556C29.6249 97.9513 29.571 96.9132 29.7006 95.89C29.8427 94.7684 30.1651 93.6771 30.6555 92.6584C31.1778 91.5654 31.9089 90.5851 32.8076 89.7728Z" fill="#ADA4DB"/>
<g opacity="0.6">
<path d="M47.6164 103.717C47.7086 103.629 47.8174 103.562 47.9363 103.518C48.0552 103.474 48.1818 103.454 48.3084 103.461C48.4383 103.462 48.5665 103.49 48.6854 103.542C48.8042 103.595 48.9114 103.67 49.0004 103.765L51.1318 106.076C51.2195 106.171 51.2877 106.281 51.3324 106.402C51.3771 106.523 51.3974 106.651 51.3923 106.78C51.3872 106.908 51.3566 107.035 51.3024 107.152C51.2482 107.268 51.1714 107.373 51.0764 107.46L48.8205 109.536C48.7262 109.624 48.6155 109.692 48.4948 109.737C48.3741 109.782 48.2456 109.802 48.117 109.797C47.9883 109.792 47.862 109.761 47.7452 109.707C47.6284 109.653 47.5235 109.576 47.4365 109.481L45.3052 107.17C45.2166 107.076 45.1477 106.965 45.1025 106.844C45.0572 106.724 45.0366 106.595 45.0417 106.466C45.0469 106.337 45.0777 106.21 45.1325 106.094C45.1872 105.977 45.2648 105.872 45.3605 105.786L47.6164 103.717ZM32.8076 89.7728C33.6168 89.0165 34.5304 88.3803 35.5203 87.8836C36.4603 87.4085 37.4771 87.1039 38.5236 86.984C39.5281 86.8731 40.5447 86.9769 41.5061 87.2885C42.5275 87.6371 43.4408 88.2452 44.1564 89.0531C44.7553 89.6615 45.2259 90.3839 45.5404 91.1775C45.7942 91.8737 45.9435 92.6036 45.9833 93.3435C46.0228 94.0638 45.9997 94.7862 45.9141 95.5025C45.8242 96.1945 45.7411 96.8865 45.665 97.5301C45.5899 98.136 45.5691 98.7474 45.6027 99.357C45.6257 99.9048 45.8033 100.435 46.1148 100.886C46.2489 101.093 46.3254 101.332 46.3362 101.578C46.3423 101.7 46.3204 101.821 46.2725 101.932C46.2245 102.044 46.1516 102.143 46.0594 102.222L44.0665 104.069C43.8774 104.241 43.6295 104.333 43.3745 104.326C43.248 104.33 43.1222 104.304 43.0077 104.25C42.8933 104.196 42.7936 104.115 42.7171 104.014C42.1634 103.37 41.7445 102.622 41.4853 101.814C41.2686 101.087 41.1476 100.336 41.1255 99.5784C41.1039 98.8473 41.1455 98.1156 41.25 97.3917C41.3538 96.6997 41.4369 96.0077 41.5061 95.3849C41.5681 94.8122 41.5681 94.2345 41.5061 93.6618C41.4609 93.1685 41.2542 92.7038 40.9179 92.3401C40.6253 92.0159 40.2582 91.7677 39.8483 91.617C39.4384 91.4663 38.998 91.4176 38.5651 91.4751C37.4973 91.6132 36.5049 92.0997 35.7417 92.8591C34.2562 94.2431 33.8479 95.9985 34.5169 98.1252C34.5989 98.3467 34.6411 98.581 34.6414 98.8172C34.6243 98.9337 34.5843 99.0456 34.5237 99.1466C34.4632 99.2475 34.3832 99.3355 34.2885 99.4054L32.1641 101.371C32.0156 101.514 31.8169 101.594 31.6105 101.592C31.5048 101.59 31.4007 101.566 31.3052 101.521C31.2097 101.475 31.125 101.41 31.0569 101.329C30.4686 100.649 30.0574 99.8332 29.8597 98.9556C29.6249 97.9513 29.571 96.9132 29.7006 95.89C29.8427 94.7684 30.1651 93.6771 30.6555 92.6584C31.1778 91.5654 31.9089 90.5851 32.8076 89.7728Z" fill="white"/>
</g>
<path d="M188.528 151.998C186.556 150.87 178.252 146.068 175.429 144.434C174.868 144.116 174.515 143.908 174.488 143.888C173.084 143.105 171.444 142.859 169.872 143.196C168.523 143.47 167.231 143.973 166.052 144.684C165.859 144.794 165.665 144.926 165.478 145.05C162.288 147.064 159.547 150.233 157.264 154.593C154.939 158.84 153.691 163.592 153.631 168.433C153.631 173.019 154.853 176.236 157.298 178.086C157.546 178.271 157.805 178.439 158.073 178.592C160.364 179.892 171.851 186.55 172.107 186.695H172.17C171.887 186.54 171.616 186.364 171.36 186.169C168.91 184.324 167.688 181.108 167.692 176.522C167.753 171.681 169 166.929 171.325 162.682C173.738 158.069 176.665 154.764 180.107 152.766C183.382 150.875 186.21 150.628 188.591 152.026L188.528 151.998Z" fill="#ADA4DB"/>
<path opacity="0.4" d="M188.591 152.04C186.21 150.656 183.382 150.9 180.107 152.773C176.91 154.619 174.153 157.617 171.838 161.769L157.776 153.624C159.949 149.742 162.516 146.884 165.471 145.023C165.658 144.905 165.852 144.767 166.046 144.656C167.223 143.944 168.516 143.443 169.865 143.175C171.437 142.835 173.078 143.081 174.481 143.867L175.422 144.414C178.245 146.04 186.549 150.843 188.522 151.97L188.591 152.04Z" fill="black"/>
<path opacity="0.3" d="M172.17 186.674H172.107C171.851 186.529 160.343 179.872 158.073 178.571C157.805 178.419 157.546 178.25 157.298 178.066C154.853 176.221 153.631 173.005 153.631 168.419C153.689 163.578 154.937 158.825 157.264 154.579C157.43 154.254 157.603 153.936 157.783 153.631L171.837 161.749C171.664 162.053 171.491 162.371 171.325 162.69C169 166.936 167.753 171.689 167.692 176.53C167.692 181.115 168.915 184.331 171.36 186.176C171.617 186.362 171.888 186.528 172.17 186.674Z" fill="black"/>
<path d="M182.397 33.2511C189.221 29.3067 195.029 27.6297 199.822 28.2202C201.773 28.4533 203.656 29.0795 205.358 30.0609C205.31 30.0358 205.264 30.0081 205.22 29.9779C203.573 29.0506 193.649 23.3278 191.38 21.9922C189.648 20.9803 187.725 20.3393 185.733 20.11C180.935 19.5241 175.124 21.1987 168.301 25.1339C157.691 31.2558 149.156 40.2518 142.697 52.1219C136.239 63.992 133.044 76.1089 133.113 88.4727L147.168 96.5898C147.071 84.2169 150.266 72.0976 156.752 60.2321C163.238 48.3667 171.787 39.373 182.397 33.2511Z" fill="#ADA4DB"/>
<path opacity="0.2" d="M205.247 29.9846C203.57 29.0505 201.728 28.4512 199.822 28.22C195.033 27.6295 189.225 29.3064 182.398 33.2508C171.787 39.3681 163.252 48.3641 156.794 60.2388C156.524 60.7302 156.261 61.2284 156.005 61.7197L141.916 53.5887C142.172 53.0974 142.435 52.5992 142.704 52.1078C149.191 40.247 157.725 31.251 168.308 25.1198C175.141 21.1801 180.951 19.5054 185.74 20.0959C187.733 20.3276 189.656 20.9709 191.387 21.9851C193.677 23.3345 203.6 29.0642 205.247 29.9846Z" fill="black"/>
<path opacity="0.3" d="M155.97 61.706C150.014 73.0963 147.082 84.7196 147.175 96.5759L133.12 88.4587C133.032 76.5979 135.964 64.9746 141.915 53.5889L155.97 61.706Z" fill="black"/>
<path d="M191.947 56.2527C189.396 54.8964 185.989 55.4269 181.726 57.8443C181.582 60.3805 181.06 62.8809 180.176 65.2625C179.11 68.132 176.01 74.0509 170.876 83.0193C165.556 92.2921 161.709 101.147 159.333 109.585C156.977 117.916 155.78 126.532 155.776 135.189L155.845 139.5L165.436 145.036L169.907 147.617L169.831 143.299V143.244C169.846 134.615 171.043 126.028 173.388 117.723C175.763 109.285 179.613 100.432 184.937 91.1641C190.067 82.1958 193.165 76.2746 194.231 73.4005C195.295 70.5591 195.839 67.5493 195.836 64.5152C195.836 60.3863 194.54 57.6321 191.947 56.2527Z" fill="#ADA4DB"/>
<path opacity="0.3" d="M192.853 76.508C191.266 79.8112 188.628 84.6874 184.937 91.1369C179.609 100.41 175.759 109.265 173.388 117.703C171.04 126.014 169.843 134.608 169.831 143.244V143.355L169.907 147.673L165.436 145.099L155.845 139.563L155.776 135.245C155.78 126.587 156.977 117.972 159.333 109.641C161.709 101.203 165.556 92.3479 170.876 83.0751C174.566 76.6164 177.21 71.7424 178.806 68.4531L192.853 76.508Z" fill="black"/>
<path opacity="0.4" d="M195.836 64.5152C195.837 67.5396 195.296 70.5397 194.238 73.3728C193.94 74.1824 193.476 75.2273 192.854 76.5075L178.806 68.3973C179.419 67.1148 179.881 66.0699 180.19 65.2625C181.074 62.8809 181.596 60.3805 181.74 57.8443C186.003 55.4269 189.41 54.8964 191.961 56.2527C194.512 57.609 195.804 60.3632 195.836 64.5152Z" fill="black"/>
<path d="M166.198 85.5869L147.175 96.5758C147.078 84.2029 150.272 72.0837 156.759 60.2182C163.245 48.3527 171.78 39.3567 182.363 33.2302C189.186 29.2858 194.994 27.6088 199.787 28.1993C204.581 28.7898 208.417 31.4171 211.295 36.0812C214.179 40.7453 215.62 46.5627 215.62 53.5334C215.592 57.5805 215.128 61.6127 214.236 65.5604C213.158 70.2827 211.702 74.9109 209.884 79.4004C208.721 82.3345 205.937 87.7505 201.531 95.6486C197.319 103.178 194.68 108.301 193.615 111.018C192.432 114.243 191.554 117.573 190.992 120.962C190.154 126.028 189.692 131.149 189.608 136.283L169.934 147.645L169.858 143.327C169.862 134.67 171.059 126.054 173.415 117.723C175.791 109.286 179.641 100.433 184.965 91.1644C190.095 82.1961 193.193 76.2749 194.258 73.4008C195.313 70.5576 195.847 67.5479 195.836 64.5155C195.836 60.3635 194.542 57.6093 191.954 56.253C189.366 54.8967 185.892 55.4641 181.532 57.9553C177.076 60.5296 173.42 64.3909 170.564 69.5394C167.771 74.4317 166.269 79.954 166.198 85.5869Z" fill="#ADA4DB"/>
<path d="M180.072 152.814C183.601 150.771 186.614 150.644 189.11 152.434C191.606 154.224 192.854 157.409 192.854 161.99C192.778 166.858 191.507 171.632 189.151 175.893C186.688 180.575 183.71 183.924 180.218 185.94C176.725 187.956 173.759 188.04 171.318 186.19C168.873 184.344 167.651 181.126 167.651 176.536C167.711 171.695 168.959 166.943 171.284 162.696C173.706 158.092 176.635 154.798 180.072 152.814Z" fill="#ADA4DB"/>
</svg>
