<svg width="83" height="69" viewBox="0 0 83 69" fill="none" xmlns="http://www.w3.org/2000/svg">
<g clip-path="url(#clip0_497_458)">
<path d="M92 61.3018H-8V61.3458H92V61.3018Z" fill="#EBEBEB"/>
<path d="M58.2441 64.6123H56.5061V64.6563H58.2441V64.6123Z" fill="#EBEBEB"/>
<path d="M39.4001 53.4525H0.78209C0.479559 53.452 0.189601 53.3459 -0.0241333 53.1575C-0.237867 52.9691 -0.357911 52.7138 -0.35791 52.4475V4.67585C-0.355277 4.41115 -0.234071 4.15805 -0.0206215 3.97153C0.192828 3.78502 0.481284 3.68014 0.78209 3.67969H39.4001C39.703 3.67969 39.9934 3.78557 40.2076 3.97403C40.4218 4.1625 40.5421 4.41812 40.5421 4.68465V52.4475C40.5421 52.7141 40.4218 52.9697 40.2076 53.1581C39.9934 53.3466 39.703 53.4525 39.4001 53.4525ZM0.78209 3.71489C0.49282 3.71535 0.215579 3.8168 0.0112221 3.99697C-0.193135 4.17713 -0.307911 4.42129 -0.30791 4.67585V52.4475C-0.307911 52.7021 -0.193135 52.9462 0.0112221 53.1264C0.215579 53.3066 0.49282 53.408 0.78209 53.4085H39.4001C39.6895 53.408 39.967 53.3066 40.1717 53.1265C40.3763 52.9464 40.4916 52.7022 40.4921 52.4475V4.67585C40.4916 4.42113 40.3763 4.17697 40.1717 3.99686C39.967 3.81675 39.6895 3.71535 39.4001 3.71489H0.78209Z" fill="#EBEBEB"/>
<path d="M82.6619 53.4525H44.0419C43.7392 53.452 43.449 53.346 43.235 53.1576C43.0209 52.9693 42.9004 52.7139 42.8999 52.4475V4.67585C42.9031 4.41099 43.0247 4.15789 43.2385 3.97142C43.4522 3.78495 43.7409 3.68014 44.0419 3.67969H82.6619C82.9624 3.6806 83.2503 3.78568 83.4633 3.97215C83.6763 4.15862 83.7973 4.41145 83.7999 4.67585V52.4475C83.7999 52.7135 83.6801 52.9685 83.4668 53.1569C83.2535 53.3453 82.9641 53.4516 82.6619 53.4525ZM44.0419 3.71489C43.7524 3.71535 43.475 3.81675 43.2703 3.99686C43.0656 4.17697 42.9504 4.42113 42.9499 4.67585V52.4475C42.9504 52.7022 43.0656 52.9464 43.2703 53.1265C43.475 53.3066 43.7524 53.408 44.0419 53.4085H82.6619C82.9514 53.408 83.2288 53.3066 83.4335 53.1265C83.6382 52.9464 83.7534 52.7022 83.7539 52.4475V4.67585C83.7534 4.42113 83.6382 4.17697 83.4335 3.99686C83.2288 3.81675 82.9514 3.71535 82.6619 3.71489H44.0419Z" fill="#EBEBEB"/>
<path d="M7.69194 62.9775H2.49194V63.0215H7.69194V62.9775Z" fill="#EBEBEB"/>
<path d="M49.0561 62.501H38.2361V62.545H49.0561V62.501Z" fill="#EBEBEB"/>
<path d="M21.5781 64.6123H7.89209V64.6563H21.5781V64.6123Z" fill="#EBEBEB"/>
<path d="M83.7539 63.3682H72.4199V63.4122H83.7539V63.3682Z" fill="#EBEBEB"/>
<path d="M70.6399 63.3682H66.0259V63.4122H70.6399V63.3682Z" fill="#EBEBEB"/>
<path d="M54.558 63.5742H43.646V63.6182H54.558V63.5742Z" fill="#EBEBEB"/>
<path d="M22.432 61.2793H45.448L45.448 14.7431H22.432L22.432 61.2793Z" fill="#F0F0F0"/>
<path d="M1.81788 61.2793L45.1819 61.2793L45.1819 14.7431L1.81788 14.7431L1.81788 61.2793Z" fill="#F5F5F5"/>
<path d="M44.012 60.2249V15.8008L23.634 15.8008L23.634 60.2249H44.012Z" fill="#F0F0F0"/>
<path d="M23.9441 60.223L23.9441 15.7988H23.6321L23.6321 60.223H23.9441Z" fill="#F0F0F0"/>
<path d="M26.354 36.9882C26.9185 36.9882 27.376 36.5855 27.376 36.0888C27.376 35.5921 26.9185 35.1895 26.354 35.1895C25.7896 35.1895 25.332 35.5921 25.332 36.0888C25.332 36.5855 25.7896 36.9882 26.354 36.9882Z" fill="#E0E0E0"/>
<path d="M25.9539 36.8007C26.5183 36.8007 26.9759 36.398 26.9759 35.9013C26.9759 35.4046 26.5183 35.002 25.9539 35.002C25.3894 35.002 24.9319 35.4046 24.9319 35.9013C24.9319 36.398 25.3894 36.8007 25.9539 36.8007Z" fill="white"/>
<path d="M23.3679 60.223L23.3679 15.7988L2.98992 15.7988L2.98992 60.223H23.3679Z" fill="#F0F0F0"/>
<path d="M21.4461 36.9882C22.0105 36.9882 22.4681 36.5855 22.4681 36.0888C22.4681 35.5921 22.0105 35.1895 21.4461 35.1895C20.8816 35.1895 20.4241 35.5921 20.4241 36.0888C20.4241 36.5855 20.8816 36.9882 21.4461 36.9882Z" fill="#E0E0E0"/>
<path d="M21.0459 36.8007C21.6104 36.8007 22.0679 36.398 22.0679 35.9013C22.0679 35.4046 21.6104 35.002 21.0459 35.002C20.4815 35.002 20.0239 35.4046 20.0239 35.9013C20.0239 36.398 20.4815 36.8007 21.0459 36.8007Z" fill="white"/>
<path d="M47.5921 37.6475H57.5701V14.7428H47.5921V37.6475Z" fill="#E6E6E6"/>
<path d="M47.164 37.6475H57.144V14.7428H47.164V37.6475Z" fill="#F5F5F5"/>
<path d="M56.3799 36.6414V15.752H47.9299V36.6414H56.3799Z" fill="white"/>
<path d="M48.252 36.6414V15.752H47.93V36.6414H48.252Z" fill="#E6E6E6"/>
<path d="M47.4819 31.9434H56.8279V30.5899H47.4819V31.9434Z" fill="#F5F5F5"/>
<path d="M59.898 37.6475H69.876V14.7428H59.898V37.6475Z" fill="#E6E6E6"/>
<path d="M59.4699 37.6475H69.45V14.7428H59.4699V37.6475Z" fill="#F5F5F5"/>
<path d="M68.6841 36.6414V15.752H60.2341V36.6414H68.6841Z" fill="white"/>
<path d="M60.5581 36.6414V15.752H60.2361V36.6414H60.5581Z" fill="#E6E6E6"/>
<path d="M59.788 31.9434H69.134V30.5899H59.788V31.9434Z" fill="#F5F5F5"/>
<path d="M72.2039 37.6475H82.1819V14.7428H72.2039V37.6475Z" fill="#E6E6E6"/>
<path d="M71.7761 37.6475H81.7561V14.7428H71.7761V37.6475Z" fill="#F5F5F5"/>
<path d="M80.99 36.6414V15.752H72.54V36.6414H80.99Z" fill="white"/>
<path d="M72.8621 36.6414V15.752H72.5401V36.6414H72.8621Z" fill="#E6E6E6"/>
<path d="M72.092 31.9434H81.438V30.5899H72.092V31.9434Z" fill="#F5F5F5"/>
<path d="M16.4839 12.2353L16.7659 12.362H30.5159V9.93848L16.4839 12.2353Z" fill="#E0E0E0"/>
<path d="M29.9839 12.2353H16.4839L17.0159 9.93848H30.5159L29.9839 12.2353Z" fill="#F5F5F5"/>
<path d="M68.6719 46.4775H58.2439V61.302H68.6719V46.4775Z" fill="#F0F0F0"/>
<path d="M68.6719 46.4775L75.5759 42.7129V61.302H68.6719V46.4775Z" fill="#E0E0E0"/>
<path d="M58.2439 46.4775L65.1479 42.7129H75.5759L68.6719 46.4775H58.2439Z" fill="#EBEBEB"/>
<path d="M60.436 45.9499L65.404 43.2412H73.384L68.416 45.9499H60.436Z" fill="#E0E0E0"/>
<path d="M65.4041 45.9499V43.2412H73.3841L68.4161 45.9499H65.4041Z" fill="#E6E6E6"/>
<path d="M41.9999 69.2503C63.4164 69.2503 80.7779 68.3583 80.7779 67.2579C80.7779 66.1576 63.4164 65.2656 41.9999 65.2656C20.5834 65.2656 3.22192 66.1576 3.22192 67.2579C3.22192 68.3583 20.5834 69.2503 41.9999 69.2503Z" fill="#F5F5F5"/>
<path d="M16.374 16.0562C15.974 16.5719 16.1 16.9467 16.438 17.9711C16.578 18.3952 16.794 18.8176 17.458 18.1928C18.122 17.568 18.768 16.38 17.916 16.1794C17.4142 16.0588 16.8922 16.0171 16.374 16.0562Z" fill="#263238"/>
<path d="M16.3559 65.612H14.8719L14.8079 62.583H16.2939L16.3559 65.612Z" fill="#FFC3BD"/>
<path d="M25.2779 65.612H23.7919L23.1299 62.583H24.6159L25.2779 65.612Z" fill="#FFC3BD"/>
<path d="M23.69 65.4561H25.36C25.3891 65.4559 25.4172 65.4646 25.4398 65.4806C25.4624 65.4967 25.478 65.5191 25.484 65.5441L25.746 66.7074C25.7516 66.736 25.7499 66.7654 25.7412 66.7934C25.7325 66.8214 25.7169 66.8474 25.6956 66.8695C25.6742 66.8917 25.6476 66.9094 25.6176 66.9216C25.5877 66.9337 25.555 66.9399 25.522 66.9397C24.938 66.9397 24.656 66.901 23.922 66.901C23.47 66.901 22.54 66.9415 21.922 66.9415C21.304 66.9415 21.232 66.3994 21.488 66.3501C22.64 66.1301 23.088 65.8221 23.454 65.5353C23.5197 65.4853 23.6032 65.4573 23.69 65.4561Z" fill="#263238"/>
<path d="M14.8859 65.4561H16.5079C16.5369 65.4559 16.5651 65.4646 16.5877 65.4806C16.6103 65.4967 16.6259 65.5191 16.6319 65.5441L16.8919 66.7074C16.8981 66.7358 16.8971 66.7651 16.8889 66.7931C16.8807 66.8212 16.8655 66.8472 16.8444 66.8694C16.8234 66.8917 16.797 66.9095 16.7671 66.9217C16.7373 66.9338 16.7047 66.94 16.6719 66.9397C16.0879 66.9397 15.2419 66.901 14.5059 66.901C13.6459 66.901 12.9059 66.9415 11.8939 66.9415C11.2939 66.9415 11.1299 66.3994 11.3859 66.3501C12.5539 66.1266 13.5039 66.102 14.5239 65.5581C14.6315 65.4953 14.7568 65.46 14.8859 65.4561Z" fill="#263238"/>
<path d="M15.2719 24.2556L13.2439 23.6836C13.2439 23.6836 11.1479 27.9534 10.4439 28.2191C9.48988 28.5711 8.15588 29.7204 7.20788 30.4156C7.17788 30.6356 7.29388 31.2146 7.44388 31.366C9.15388 31.014 11.2859 30.1516 11.9839 29.5831C13.5799 28.286 15.2719 24.2556 15.2719 24.2556Z" fill="#FFC3BD"/>
<path d="M15.7458 23.2734C16.3158 24.4174 14.0258 28.05 14.0258 28.05L10.9958 26.818C11.3682 25.7105 11.8716 24.6404 12.4978 23.6254C13.4498 22.1593 15.1198 22.0167 15.7458 23.2734Z" fill="#577FD8"/>
<path opacity="0.7" d="M15.7458 23.2734C16.3158 24.4174 14.0258 28.05 14.0258 28.05L10.9958 26.818C11.3682 25.7105 11.8716 24.6404 12.4978 23.6254C13.4498 22.1593 15.1198 22.0167 15.7458 23.2734Z" fill="white"/>
<path opacity="0.2" d="M13.1999 25.2665C12.9061 25.9739 12.6767 26.7007 12.5139 27.4401L14.0259 28.0561C14.0259 28.0561 15.6379 25.5006 15.8259 24.0081C14.9439 23.4907 13.7519 23.9782 13.1999 25.2665Z" fill="black"/>
<path d="M7.414 30.2891L5.646 30.5372L6.10399 32.1793C6.72216 31.9467 7.29616 31.6321 7.806 31.2465L7.414 30.2891Z" fill="#FFC3BD"/>
<path d="M4.11597 31.2323L4.75997 32.1369L6.10397 32.1792L5.64597 30.5371L4.11597 31.2323Z" fill="#FFC3BD"/>
<path opacity="0.2" d="M14.8079 62.585L14.8399 64.1461H16.3259L16.2939 62.585H14.8079Z" fill="black"/>
<path opacity="0.2" d="M24.6159 62.585H23.1299L23.4719 64.1461H24.9579L24.6159 62.585Z" fill="black"/>
<path d="M13.7999 22.5315C13.7999 22.5315 11.9359 27.0247 13.3999 34.378H21.3459C21.4299 33.3044 20.8099 27.5228 22.1279 22.4646C21.2522 22.3152 20.3663 22.2164 19.4759 22.1689C18.3508 22.1117 17.2229 22.1117 16.0979 22.1689C15.3225 22.2378 14.5542 22.359 13.7999 22.5315Z" fill="#577FD8"/>
<path opacity="0.7" d="M13.7999 22.5315C13.7999 22.5315 11.9359 27.0247 13.3999 34.378H21.3459C21.4299 33.3044 20.8099 27.5228 22.1279 22.4646C21.2522 22.3152 20.3663 22.2164 19.4759 22.1689C18.3508 22.1117 17.2229 22.1117 16.0979 22.1689C15.3225 22.2378 14.5542 22.359 13.7999 22.5315Z" fill="white"/>
<path opacity="0.2" d="M20.368 23.7134C20.214 24.5458 20.456 26.5294 21.292 28.8385C21.3323 26.8669 21.5692 24.9022 22 22.9671V22.9566C21.484 22.9108 20.518 22.9319 20.368 23.7134Z" fill="black"/>
<path d="M19.1139 19.3877C18.8739 20.3451 18.7359 21.5296 19.4779 22.1685C19.4779 22.1685 19.0139 23.1383 16.9939 23.1383C15.1479 23.1383 16.0999 22.1685 16.0999 22.1685C17.3179 21.9133 17.2999 20.5951 17.0999 19.8523L19.1139 19.3877Z" fill="#FFC3BD"/>
<path d="M16.8978 23.0627L16.4618 23.4886C16.4463 23.5032 16.4354 23.5212 16.4305 23.5407C16.4256 23.5602 16.4267 23.5805 16.4338 23.5995L16.5739 23.9744C16.5816 23.9953 16.5966 24.0137 16.6166 24.0269C16.6366 24.0401 16.6608 24.0476 16.6858 24.0483L17.1558 24.0694C17.1783 24.0705 17.2006 24.0663 17.2206 24.0573C17.2406 24.0484 17.2576 24.0349 17.2698 24.0184L17.5519 23.6541C17.5692 23.6348 17.5787 23.6109 17.5787 23.5863C17.5787 23.5617 17.5692 23.5378 17.5519 23.5186L17.0959 23.061C17.0839 23.0479 17.0688 23.0374 17.0515 23.0302C17.0343 23.023 17.0154 23.0194 16.9964 23.0195C16.9773 23.0197 16.9585 23.0237 16.9415 23.0312C16.9244 23.0386 16.9095 23.0494 16.8978 23.0627Z" fill="#263238"/>
<path d="M17 22.9673C17.223 23.2977 17.3469 23.6726 17.36 24.0567C17.36 24.0567 19.912 23.2718 19.826 22.1207C19.826 22.1207 19.472 21.9324 19.248 21.7793C19.244 21.7811 19.138 22.5115 17 22.9673Z" fill="white"/>
<path d="M16.9999 22.9672C16.759 23.2778 16.5823 23.6234 16.4779 23.988C16.4779 23.988 15.3499 23.3051 15.7259 22.1682C15.9383 22.0946 16.157 22.0357 16.3799 21.9922C16.3799 21.9922 16.1999 22.7208 16.9999 22.9672Z" fill="white"/>
<path d="M16.7999 23.8301C16.7279 23.809 15.8139 28.5258 15.9159 29.3759C15.9557 30.1603 16.1429 30.9334 16.4699 31.6639C16.4699 31.6639 16.8699 30.7945 16.9059 29.3178C16.9059 27.8605 16.9239 24.682 17.0699 23.8618L16.7999 23.8301Z" fill="#263238"/>
<path opacity="0.2" d="M17.0999 19.8527C17.2499 20.37 17.2319 20.9139 17.0479 21.4226C17.2389 21.3998 17.425 21.3517 17.5999 21.2801C18.2919 20.9967 18.6399 20.5514 19.0099 19.8879C19.0419 19.7119 19.0779 19.5535 19.1199 19.3916L17.0999 19.8527Z" fill="black"/>
<path d="M15.382 18.8156C15.4392 18.9688 15.531 19.1101 15.652 19.2311C15.773 19.3521 15.9207 19.4503 16.086 19.5196C16.526 19.6956 16.834 19.363 16.784 18.9564C16.74 18.5886 16.456 18.0518 15.984 18.043C15.8794 18.0435 15.7765 18.0663 15.6841 18.1095C15.5917 18.1526 15.5126 18.2148 15.4534 18.2907C15.3942 18.3667 15.3569 18.4541 15.3444 18.5455C15.332 18.6369 15.3449 18.7295 15.382 18.8156Z" fill="#FFC3BD"/>
<path opacity="0.2" d="M15.382 18.8156C15.4392 18.9688 15.531 19.1101 15.652 19.2311C15.773 19.3521 15.9207 19.4503 16.086 19.5196C16.526 19.6956 16.834 19.363 16.784 18.9564C16.74 18.5886 16.456 18.0518 15.984 18.043C15.8794 18.0435 15.7765 18.0663 15.6841 18.1095C15.5917 18.1526 15.5126 18.2148 15.4534 18.2907C15.3942 18.3667 15.3569 18.4541 15.3444 18.5455C15.332 18.6369 15.3449 18.7295 15.382 18.8156Z" fill="black"/>
<path d="M20.0281 18.2225C19.5981 19.4756 19.4281 20.2289 18.5221 20.7428C17.1741 21.5155 15.5701 20.5967 15.5701 19.2627C15.5701 18.0623 16.2741 16.2143 17.8061 15.975C18.1422 15.9204 18.4886 15.9439 18.8112 16.0432C19.1338 16.1424 19.4215 16.3139 19.6458 16.5408C19.8701 16.7677 20.0234 17.0421 20.0904 17.337C20.1574 17.6319 20.1359 17.9371 20.0281 18.2225Z" fill="#FFC3BD"/>
<path d="M19.1999 16.6646C18.7999 17.1803 18.9279 17.5551 19.2659 18.5795C19.4059 19.0036 19.6219 19.426 20.2839 18.8012C20.9459 18.1764 21.5959 16.9884 20.7419 16.7878C20.2401 16.6672 19.7181 16.6255 19.1999 16.6646Z" fill="#263238"/>
<path d="M19.362 17.0557C18.442 16.9571 16.162 16.7882 16.332 15.7427C16.502 14.6973 18.048 15.0123 18.048 15.0123C18.048 15.0123 17.282 15.3643 18.89 15.6371C20.498 15.9099 21.312 16.7477 20.586 17.0838C20.4009 17.1842 20.1866 17.235 19.9693 17.23C19.7519 17.225 19.5409 17.1644 19.362 17.0557Z" fill="#263238"/>
<path d="M20.2959 19.7467C20.0315 19.9819 19.672 20.1154 19.2959 20.118C18.8059 20.118 18.6959 19.7044 18.9559 19.3559C19.1839 19.0409 19.7139 18.6607 20.1559 18.8279C20.5979 18.9951 20.6159 19.4563 20.2959 19.7467Z" fill="#FFC3BD"/>
<path d="M15.438 19.2641C15.396 19.917 15.466 20.7953 16.038 20.9695C16.61 21.1438 18.11 21.0874 18.586 20.8586C19.33 20.5066 19.662 19.0089 20.008 18.7255C20.354 18.4422 19.7 18.3066 19.7 18.3066C19.7 18.3066 19.26 19.2641 18.542 19.3081C17.824 19.3521 15.49 18.4386 15.438 19.2641Z" fill="#263238"/>
<path d="M18.6239 34.3779C18.6239 34.3779 18.4659 36.0218 18.2659 38.2499C18.0359 40.7755 17.7539 44.0579 17.5859 46.5518C17.5859 46.5659 17.5859 46.5765 17.5859 46.5871C17.5539 47.0605 17.5259 47.5058 17.5019 47.9123C17.2779 51.9867 16.8139 63.8438 16.8139 63.8438H14.2939C14.2939 63.8438 13.0279 51.7438 12.9739 47.5973C12.9239 43.6091 13.3999 34.3779 13.3999 34.3779H18.6239Z" fill="#577FD8"/>
<path d="M17 63.1679C17.01 63.1679 16.978 63.8912 16.978 63.8912H14.078L13.978 63.0781L17 63.1679Z" fill="#263238"/>
<path opacity="0.2" d="M18.2659 38.2495C18.0359 40.7751 17.7539 44.0575 17.5859 46.5515C17.5859 46.5655 17.5859 46.5761 17.5859 46.5867C16.9699 44.2177 16.7199 41.2715 16.8079 36.4209L18.2659 38.2495Z" fill="black"/>
<path d="M16.22 34.3779C16.22 34.3779 17.62 43.8256 18.45 47.5779C19.35 51.677 22.788 63.8527 22.788 63.8527H25.51C25.51 63.8527 23.362 52.0078 22.896 47.9493C22.392 43.5493 21.348 34.3867 21.348 34.3867L16.22 34.3779Z" fill="#577FD8"/>
<path d="M25.5259 63.2187C25.5379 63.2187 25.6439 63.8875 25.6439 63.8875H22.6439L22.3999 63.1201L25.5259 63.2187Z" fill="#263238"/>
<path opacity="0.3" d="M24.4519 62.428C24.446 62.4277 24.4404 62.4256 24.436 62.4221C24.4317 62.4185 24.4288 62.4138 24.4279 62.4087C24.4079 62.2872 22.4719 51.7396 22.0539 48.0928C21.5999 44.1346 20.6539 35.361 20.6539 35.273C20.6533 35.2672 20.6553 35.2614 20.6594 35.2568C20.6635 35.2523 20.6694 35.2492 20.6759 35.2484C20.6792 35.2479 20.6826 35.248 20.6859 35.2487C20.6891 35.2494 20.6922 35.2507 20.6948 35.2526C20.6974 35.2544 20.6996 35.2567 20.7012 35.2593C20.7027 35.2619 20.7037 35.2648 20.7039 35.2677C20.7139 35.3557 21.6579 44.1293 22.1039 48.0876C22.5219 51.7325 24.4579 62.2802 24.4779 62.4016C24.4786 62.4076 24.4767 62.4136 24.4726 62.4185C24.4686 62.4234 24.4626 62.4268 24.4559 62.428H24.4519Z" fill="white"/>
<path d="M17.7681 18.1629C17.7401 18.2668 17.6561 18.3389 17.5801 18.3248C17.5041 18.3108 17.4661 18.214 17.4941 18.1119C17.5221 18.0098 17.6061 17.9359 17.6821 17.95C17.7581 17.964 17.8001 18.0608 17.7681 18.1629Z" fill="#263238"/>
<path d="M16.4558 17.9128C16.4278 18.0148 16.3438 18.0888 16.2678 18.0729C16.1918 18.0571 16.1518 17.9638 16.1798 17.86C16.2078 17.7561 16.2918 17.684 16.3678 17.698C16.4438 17.7121 16.4818 17.8089 16.4558 17.9128Z" fill="#263238"/>
<path d="M16.8579 18.043C16.6324 18.3334 16.3633 18.5957 16.0579 18.8226C16.124 18.8882 16.2059 18.94 16.2975 18.9744C16.3891 19.0088 16.4883 19.0249 16.5879 19.0215L16.8579 18.043Z" fill="#ED847E"/>
<path d="M16.856 19.7295C16.8515 19.7286 16.8472 19.727 16.8434 19.7247C16.8396 19.7224 16.8364 19.7194 16.8339 19.7159C16.8315 19.7124 16.8299 19.7086 16.8292 19.7046C16.8285 19.7005 16.8288 19.6964 16.83 19.6925C16.8312 19.6884 16.8332 19.6846 16.8361 19.6813C16.8389 19.6779 16.8425 19.6751 16.8466 19.673C16.8507 19.6709 16.8552 19.6695 16.8599 19.6689C16.8646 19.6683 16.8694 19.6686 16.874 19.6696C17.0184 19.7031 17.1696 19.7065 17.3158 19.6796C17.4619 19.6527 17.5989 19.5963 17.716 19.5147C17.7227 19.509 17.7317 19.5059 17.741 19.5059C17.7503 19.5059 17.7593 19.509 17.766 19.5147C17.772 19.5208 17.7754 19.5287 17.7754 19.5367C17.7754 19.5448 17.772 19.5527 17.766 19.5587C17.6408 19.6491 17.4929 19.7117 17.3346 19.7414C17.1762 19.7711 17.0121 19.767 16.856 19.7295Z" fill="#FFC3BD"/>
<path d="M18.2661 17.862C18.2555 17.8605 18.2455 17.8567 18.2371 17.8508C18.2286 17.845 18.2221 17.8373 18.2181 17.8285C18.1854 17.7569 18.1333 17.6933 18.0664 17.6433C17.9995 17.5933 17.9198 17.5584 17.8341 17.5417C17.8251 17.5404 17.8165 17.5375 17.8088 17.5333C17.801 17.529 17.7944 17.5235 17.7891 17.5169C17.7839 17.5103 17.7803 17.5029 17.7784 17.4951C17.7765 17.4872 17.7764 17.4791 17.7781 17.4713C17.781 17.4551 17.791 17.4405 17.806 17.4306C17.8209 17.4208 17.8396 17.4164 17.8581 17.4185C17.966 17.4373 18.067 17.4793 18.1521 17.5407C18.2372 17.6021 18.3038 17.681 18.3461 17.7705C18.3535 17.7857 18.354 17.8028 18.3472 17.8183C18.3405 17.8337 18.3272 17.8463 18.3101 17.8532C18.297 17.8604 18.2815 17.8635 18.2661 17.862Z" fill="#263238"/>
<path d="M15.9759 17.3845C15.9661 17.3818 15.9571 17.3769 15.9499 17.3704C15.9371 17.3589 15.9299 17.3434 15.9299 17.3273C15.9299 17.3112 15.9371 17.2957 15.9499 17.2842C16.0232 17.2088 16.1159 17.1498 16.2202 17.1121C16.3246 17.0745 16.4376 17.0593 16.5499 17.0677C16.5591 17.0688 16.5679 17.0714 16.5759 17.0756C16.5838 17.0798 16.5907 17.0853 16.5962 17.0919C16.6016 17.0985 16.6054 17.106 16.6075 17.1139C16.6095 17.1219 16.6097 17.1301 16.6079 17.1381C16.6045 17.1544 16.5941 17.169 16.5789 17.1788C16.5636 17.1887 16.5447 17.193 16.5259 17.1909C16.4371 17.1853 16.348 17.1984 16.2659 17.229C16.1839 17.2596 16.1112 17.3068 16.0539 17.3669C16.0446 17.3765 16.0321 17.3834 16.0181 17.3866C16.0041 17.3897 15.9894 17.389 15.9759 17.3845Z" fill="#263238"/>
<path d="M20.832 24.6236L22.896 24.0322C22.896 24.0322 24.796 28.2914 25.496 28.5396C26.454 28.8757 28.4 29.7716 29.61 29.9863C29.748 30.1623 29.934 30.7185 29.876 30.9138C28.142 31.3098 24.612 30.4738 23.916 29.9247C22.336 28.6716 20.832 24.6236 20.832 24.6236Z" fill="#FFC3BD"/>
<path d="M22.13 22.4645C23.53 22.6405 25.022 26.9314 25.022 26.9314L22.022 28.3993C22.022 28.3993 20.778 26.3594 20.18 24.8458C19.558 23.26 20.628 22.2709 22.13 22.4645Z" fill="#577FD8"/>
<path opacity="0.7" d="M22.13 22.4645C23.53 22.6405 25.022 26.9314 25.022 26.9314L22.022 28.3993C22.022 28.3993 20.778 26.3594 20.18 24.8458C19.558 23.26 20.628 22.2709 22.13 22.4645Z" fill="white"/>
<path d="M23.2001 65.6884C23.0991 65.6958 22.9983 65.6728 22.9141 65.6233C22.8883 65.6027 22.8686 65.5768 22.8568 65.548C22.8449 65.5192 22.8412 65.4882 22.8461 65.4579C22.8469 65.4397 22.8533 65.4222 22.8645 65.407C22.8758 65.3918 22.8915 65.3796 22.9101 65.3716C23.0741 65.2977 23.5481 65.5564 23.6021 65.5863C23.6074 65.59 23.6115 65.5949 23.614 65.6005C23.6164 65.6061 23.6172 65.6121 23.6161 65.618C23.6148 65.6239 23.6117 65.6293 23.6071 65.6336C23.6025 65.638 23.5966 65.6411 23.5901 65.6427C23.4623 65.6701 23.3315 65.6855 23.2001 65.6884ZM22.9861 65.4191C22.9709 65.4162 22.9552 65.4162 22.9401 65.4191C22.9327 65.4229 22.9266 65.4283 22.9224 65.4348C22.9182 65.4413 22.916 65.4486 22.9161 65.4561C22.9124 65.4768 22.9147 65.4979 22.9227 65.5176C22.9308 65.5373 22.9443 65.5549 22.9621 65.5687C23.1277 65.6351 23.3158 65.6433 23.4881 65.5916C23.3335 65.5048 23.1608 65.4462 22.9801 65.4191H22.9861Z" fill="#577FD8"/>
<path d="M23.5741 65.6424C23.5689 65.6439 23.5633 65.6439 23.5581 65.6424C23.4061 65.5685 23.1181 65.2904 23.1581 65.1373C23.1643 65.1144 23.1792 65.0939 23.2002 65.0792C23.2212 65.0645 23.2472 65.0565 23.2741 65.0564C23.3005 65.053 23.3274 65.0547 23.3529 65.0614C23.3785 65.0681 23.4021 65.0796 23.4221 65.0951C23.5921 65.22 23.6221 65.5967 23.6221 65.6125C23.6232 65.6181 23.6222 65.6239 23.6194 65.6289C23.6165 65.634 23.6118 65.6381 23.6061 65.6407C23.6013 65.6433 23.5959 65.6448 23.5903 65.6451C23.5847 65.6454 23.5792 65.6445 23.5741 65.6424ZM23.2901 65.1144H23.2741C23.2281 65.1144 23.2241 65.1373 23.2221 65.1444C23.2001 65.2306 23.3841 65.4471 23.5341 65.5492C23.5275 65.4011 23.4703 65.2582 23.3701 65.1391C23.3478 65.1222 23.3194 65.1129 23.2901 65.1127V65.1144Z" fill="#577FD8"/>
<path d="M14.26 65.6876C14.1339 65.6977 14.0077 65.6698 13.902 65.6084C13.8788 65.5893 13.861 65.5656 13.8502 65.5393C13.8394 65.513 13.836 65.4848 13.84 65.457C13.8415 65.44 13.8478 65.4235 13.8582 65.409C13.8687 65.3946 13.8831 65.3827 13.9 65.3743C14.084 65.2863 14.674 65.5503 14.74 65.5837C14.7465 65.5867 14.7517 65.5913 14.7549 65.597C14.7582 65.6027 14.7593 65.6091 14.758 65.6154C14.757 65.6218 14.7537 65.6278 14.7487 65.6325C14.7437 65.6372 14.7372 65.6405 14.73 65.6418C14.5752 65.6692 14.4179 65.6846 14.26 65.6876ZM14 65.4183C13.9774 65.4174 13.9548 65.421 13.934 65.4289C13.9271 65.4322 13.9213 65.437 13.9171 65.4428C13.9129 65.4487 13.9105 65.4554 13.91 65.4623C13.907 65.4806 13.909 65.4993 13.916 65.5168C13.923 65.5343 13.9346 65.55 13.95 65.5626C14.04 65.633 14.284 65.6453 14.614 65.5978C14.4225 65.5077 14.2148 65.447 14 65.4183Z" fill="#577FD8"/>
<path d="M14.722 65.6421H14.708C14.53 65.57 14.184 65.2901 14.214 65.1405C14.214 65.1053 14.252 65.0613 14.348 65.0543C14.3837 65.0494 14.4202 65.0516 14.4548 65.0607C14.4894 65.0699 14.5212 65.0857 14.548 65.1071C14.732 65.2426 14.764 65.5946 14.764 65.6105C14.7648 65.616 14.7637 65.6217 14.7609 65.6267C14.758 65.6317 14.7535 65.6359 14.748 65.6386C14.7441 65.6407 14.7399 65.6421 14.7354 65.6427C14.7309 65.6433 14.7264 65.6431 14.722 65.6421ZM14.374 65.1141H14.354C14.29 65.1141 14.286 65.1405 14.284 65.1476C14.264 65.2373 14.5 65.4591 14.684 65.5559C14.6725 65.4078 14.6081 65.2668 14.5 65.1529C14.4652 65.126 14.4202 65.1116 14.374 65.1124V65.1141Z" fill="#577FD8"/>
<path d="M29.746 30.9348L31.16 30.9947L30.41 29.6377C30.41 29.6377 29.17 29.6219 28.968 30.4596L29.746 30.9348Z" fill="#FFC3BD"/>
<path d="M32.3059 30.3382L31.5559 29.1396L30.4099 29.6377L31.1599 30.9947L32.3059 30.3382Z" fill="#FFC3BD"/>
<path d="M33.784 20.2748C33.642 19.3631 30.874 18.6591 29.584 19.701C27.844 21.1002 28.122 25.4861 28.122 27.8621C30.698 27.3042 34.614 27.438 35.298 27.7671C35.444 26.6741 35.41 20.5423 33.784 20.2748Z" fill="#263238"/>
<path d="M28.4479 28.7681C28.4199 29.1835 28.3679 29.5619 28.3099 29.9543C28.2519 30.3468 28.1739 30.7305 28.0879 31.1177C27.915 31.8946 27.6777 32.6593 27.3779 33.4057C27.3019 33.594 27.2119 33.7806 27.1299 33.9671C27.0479 34.1537 26.9499 34.335 26.8359 34.5268C26.6088 34.8954 26.3409 35.2432 26.0359 35.5652C25.4573 36.1789 24.795 36.7275 24.0639 37.1985L23.5159 36.6705C24.0386 36.0997 24.524 35.5033 24.9699 34.8841C25.1785 34.5931 25.3598 34.2876 25.5119 33.9707C25.5859 33.8193 25.6559 33.6433 25.7299 33.4796C25.8039 33.3159 25.8599 33.1399 25.9299 32.9692C26.1668 32.2702 26.3578 31.5597 26.5019 30.8414C26.5719 30.4788 26.6339 30.1145 26.6919 29.7484C26.7499 29.3823 26.7959 29.0092 26.8299 28.666L28.4479 28.7681Z" fill="#FFB573"/>
<path d="M27.4381 27.0631C26.8761 27.1898 26.5601 30.4617 26.5601 30.4617L28.0541 31.2537C28.0541 31.2537 28.9581 28.8354 28.8201 27.7917C28.7201 27.0332 27.8621 26.9681 27.4381 27.0631Z" fill="#FFB573"/>
<path d="M23.4 36.6831L22.114 37.5331L23.692 37.8517C23.692 37.8517 24.372 37.1811 24.146 36.6338L23.4 36.6831Z" fill="#FFB573"/>
<path d="M21.772 38.6702L23.11 38.8743L23.698 37.8518L22.12 37.5332L21.772 38.6702Z" fill="#FFB573"/>
<path d="M30.442 65.5156H29.158L28.366 60.3711H30.552L30.442 65.5156Z" fill="#FFB573"/>
<path opacity="0.2" d="M30.494 63.0357H28.776L28.366 60.3711H30.552L30.494 63.0357Z" fill="black"/>
<path d="M40.3839 63.6602L39.1439 63.9418L36.6279 59.2532L38.7619 58.7217L40.3839 63.6602Z" fill="#FFB573"/>
<path opacity="0.2" d="M39.6199 61.3318L37.9239 61.6679L36.6279 59.2532L38.7619 58.7217L39.6199 61.3318Z" fill="black"/>
<path d="M38.8461 63.7504L40.4941 63.1362C40.5219 63.1247 40.5536 63.1228 40.5829 63.131C40.6122 63.1391 40.6369 63.1567 40.6521 63.1802L41.3941 64.2556C41.4115 64.2832 41.4221 64.3137 41.4253 64.3452C41.4284 64.3767 41.424 64.4084 41.4123 64.4383C41.4006 64.4682 41.3819 64.4955 41.3574 64.5186C41.3329 64.5417 41.3031 64.5601 41.2701 64.5724C40.6921 64.7783 40.4001 64.8522 39.6701 65.1232C39.2261 65.2904 38.5941 65.5738 37.9781 65.8044C37.3621 66.0349 37.0721 65.5104 37.3061 65.3661C38.3481 64.7202 38.3861 64.3524 38.6341 63.9212C38.6804 63.8446 38.7552 63.7843 38.8461 63.7504Z" fill="#263238"/>
<path d="M28.9881 65.3537H30.7761C30.8071 65.3534 30.8372 65.3631 30.8607 65.3809C30.8843 65.3987 30.8997 65.4234 30.9041 65.4505L31.1041 66.6948C31.1077 66.7263 31.1038 66.7582 31.0926 66.7883C31.0814 66.8184 31.0631 66.8462 31.039 66.8697C31.0149 66.8932 30.9854 66.9121 30.9526 66.925C30.9197 66.9379 30.8841 66.9446 30.8481 66.9447C30.2241 66.9342 29.9241 66.9025 29.1381 66.9025C28.6541 66.9025 27.6521 66.9465 26.9841 66.9465C26.3161 66.9465 26.2801 66.3657 26.5581 66.3129C27.8061 66.077 28.2981 65.7514 28.7181 65.4329C28.7945 65.3791 28.8902 65.351 28.9881 65.3537Z" fill="#263238"/>
<path d="M27.3399 27.0615C27.3399 27.0615 26.5799 27.2956 28.0999 35.5183H34.5659C34.4579 33.2022 34.4539 31.7731 35.7119 27.0211C34.8067 26.8558 33.8889 26.7494 32.9659 26.7025C31.9885 26.6408 31.0073 26.6408 30.0299 26.7025C28.7699 26.8028 27.3399 27.0615 27.3399 27.0615Z" fill="#577FD8"/>
<path d="M32.102 29.9655C32.102 29.9655 32.088 29.9655 32.086 29.955C31.686 29.346 30.67 28.8673 30.66 28.862C30.657 28.8607 30.6543 28.8589 30.6522 28.8567C30.65 28.8544 30.6484 28.8518 30.6475 28.849C30.6465 28.8462 30.6463 28.8432 30.6467 28.8403C30.6471 28.8374 30.6482 28.8346 30.65 28.8321C30.6547 28.8285 30.6607 28.8265 30.667 28.8265C30.6732 28.8265 30.6792 28.8285 30.684 28.8321C30.684 28.8321 31.684 29.3108 32.112 29.918C32.536 29.5906 33.896 28.1087 33.732 26.8345C33.7317 26.8317 33.732 26.8289 33.733 26.8263C33.734 26.8236 33.7355 26.8211 33.7375 26.819C33.7396 26.8169 33.7421 26.8151 33.7449 26.8139C33.7477 26.8126 33.7508 26.8118 33.754 26.8116C33.7571 26.8114 33.7603 26.8117 33.7633 26.8125C33.7663 26.8134 33.7691 26.8147 33.7715 26.8165C33.774 26.8183 33.7759 26.8205 33.7774 26.823C33.7788 26.8255 33.7797 26.8282 33.78 26.831C33.948 28.1457 32.52 29.6751 32.12 29.969C32.1168 29.9696 32.1136 29.9696 32.1105 29.969C32.1074 29.9684 32.1045 29.9672 32.102 29.9655Z" fill="white"/>
<path d="M28.7479 29.7279C28.7428 29.7297 28.7371 29.7297 28.7319 29.7279C28.5827 29.5786 28.5047 29.3845 28.5139 29.1858C28.4599 28.4959 28.7819 27.3537 29.2919 26.8609C29.2968 26.8568 29.3032 26.8545 29.3099 26.8545C29.3167 26.8545 29.3231 26.8568 29.3279 26.8609C29.3302 26.8628 29.332 26.8652 29.3332 26.8677C29.3344 26.8703 29.335 26.873 29.335 26.8758C29.335 26.8786 29.3344 26.8814 29.3332 26.8839C29.332 26.8865 29.3302 26.8888 29.3279 26.8908C28.8259 27.3783 28.5099 28.5029 28.5619 29.1788C28.5564 29.3563 28.6199 29.5301 28.7419 29.6716C29.0739 29.2756 30.0019 28.7916 30.0419 28.7757C30.0448 28.7733 30.0483 28.7715 30.0521 28.7704C30.0559 28.7693 30.06 28.769 30.0639 28.7696C30.0679 28.7701 30.0717 28.7714 30.0749 28.7734C30.0782 28.7755 30.0809 28.7781 30.0829 28.7812C30.0848 28.7843 30.0858 28.7878 30.086 28.7913C30.0862 28.7948 30.0854 28.7983 30.0838 28.8015C30.0821 28.8047 30.0797 28.8076 30.0766 28.8098C30.0735 28.8121 30.0698 28.8137 30.0659 28.8145C30.0559 28.8145 29.0659 29.3249 28.7659 29.7173C28.7616 29.7227 28.7552 29.7265 28.7479 29.7279Z" fill="white"/>
<path d="M32.676 23.793C32.49 24.6237 32.306 26.1478 32.966 26.7022C32.966 26.7022 33.332 28.6576 30.318 28.6576C27.828 28.6576 30.03 26.7022 30.03 26.7022C31.084 26.4805 31.056 25.7923 30.874 25.1464L32.676 23.793Z" fill="#FFB573"/>
<path opacity="0.2" d="M31.94 24.3457L30.874 25.1518C30.9192 25.3017 30.9493 25.4548 30.964 25.6094C31.364 25.5583 31.92 25.1694 31.964 24.7998C31.9891 24.6485 31.9809 24.4943 31.94 24.3457Z" fill="black"/>
<path d="M33.672 22.2667C33.302 23.6184 33.178 24.2027 32.252 24.7765C30.852 25.6477 29.052 24.9525 28.958 23.5304C28.872 22.2509 29.492 20.255 31.122 19.947C31.481 19.878 31.854 19.8909 32.2057 19.9844C32.5575 20.078 32.8762 20.2491 33.1316 20.4814C33.3871 20.7138 33.5709 20.9998 33.6654 21.3123C33.76 21.6247 33.7623 21.9533 33.672 22.2667Z" fill="#FFB573"/>
<path d="M32.47 20.6885C32.648 22.0085 32.72 23.339 33.784 23.0152C34.848 22.6914 33.888 20.6885 33.888 20.6885H32.47Z" fill="#263238"/>
<path d="M29.0159 21.1176C30.5422 20.6983 32.1864 20.7561 33.6699 21.2812C33.4699 20.6371 33.3479 20.1179 32.4459 19.8732C31.5439 19.6286 29.4679 19.9155 29.0159 21.1176Z" fill="#263238"/>
<path d="M28.1 35.5186C28.1 35.5186 26.844 46.3109 26.948 50.5842C27.056 55.0282 28.202 62.1826 28.202 62.1826L30.802 62.1104C30.802 62.1104 30.72 55.2886 30.91 50.9238C31.11 46.1718 32.836 35.5186 32.836 35.5186H28.1Z" fill="#263238"/>
<path d="M31.0761 62.5074H27.9461L27.7161 61.7982L31.2221 61.7119L31.0761 62.5074Z" fill="#577FD8"/>
<path opacity="0.2" d="M30.8899 38.2025C29.2999 41.0185 30.5699 46.1437 31.1319 48.0585C31.4199 45.1915 31.9059 41.6891 32.2839 39.116C32.0439 37.6481 31.6219 36.9072 30.8899 38.2025Z" fill="black"/>
<path d="M29.8 35.5186C29.8 35.5186 31.264 46.7386 32.37 50.3413C33.684 54.6181 37.226 60.984 37.226 60.984L39.644 60.3715C39.644 60.3715 37.584 52.8845 36.58 50.6317C34.436 45.8234 36.272 38.6637 34.558 35.5186H29.8Z" fill="#263238"/>
<path d="M40.0901 60.6458L37.2041 61.3498L36.6841 60.6986L39.8861 59.7588L40.0901 60.6458Z" fill="#577FD8"/>
<path d="M31.0779 22.2953C31.0539 22.4061 30.9699 22.4853 30.8879 22.4713C30.8059 22.4572 30.7559 22.3569 30.7779 22.246C30.7999 22.1351 30.8859 22.0559 30.9779 22.07C31.0699 22.0841 31.0999 22.1826 31.0779 22.2953Z" fill="#263238"/>
<path d="M29.6479 22.0722C29.6259 22.1831 29.5399 22.264 29.4479 22.2482C29.3559 22.2323 29.3159 22.1355 29.3379 22.0247C29.3599 21.9138 29.4459 21.8328 29.5279 21.8487C29.6099 21.8645 29.6699 21.9613 29.6479 22.0722Z" fill="#263238"/>
<path d="M29.5739 21.8584L29.2859 21.7334C29.2859 21.7334 29.3999 21.9675 29.5739 21.8584Z" fill="#263238"/>
<path d="M30.0539 22.3096C29.8877 22.546 29.6859 22.7616 29.4539 22.9502C29.5103 23.0006 29.5786 23.0396 29.6539 23.0645C29.7291 23.0894 29.8096 23.0997 29.8899 23.0945L30.0539 22.3096Z" fill="#ED893E"/>
<path d="M30.5639 23.6184C30.4914 23.6183 30.4191 23.6124 30.3479 23.6008C30.3429 23.6002 30.3381 23.5987 30.3339 23.5963C30.3296 23.594 30.326 23.5909 30.3231 23.5873C30.3203 23.5836 30.3184 23.5795 30.3175 23.5752C30.3166 23.5708 30.3167 23.5664 30.3179 23.5621C30.3198 23.5535 30.3255 23.5459 30.3337 23.541C30.342 23.536 30.3521 23.5341 30.3619 23.5357C30.5185 23.5627 30.6802 23.5573 30.834 23.5197C30.9878 23.4821 31.1295 23.4135 31.2479 23.3192C31.251 23.3152 31.2551 23.3118 31.2598 23.3094C31.2646 23.3069 31.2699 23.3054 31.2754 23.3049C31.2809 23.3044 31.2864 23.3049 31.2916 23.3065C31.2968 23.3081 31.3016 23.3107 31.3056 23.314C31.3095 23.3174 31.3126 23.3215 31.3146 23.326C31.3166 23.3306 31.3175 23.3354 31.3171 23.3403C31.3168 23.3451 31.3152 23.3498 31.3126 23.3541C31.31 23.3584 31.3063 23.3621 31.3019 23.365C31.1026 23.5305 30.8379 23.6214 30.5639 23.6184Z" fill="#263238"/>
<path d="M33.7379 23.2863C33.6199 23.5345 33.3948 23.7314 33.1119 23.8337C32.7359 23.9674 32.5119 23.6805 32.5719 23.3479C32.6319 23.0487 32.8999 22.6193 33.2959 22.6281C33.3822 22.6313 33.4661 22.6534 33.5402 22.6924C33.6143 22.7315 33.6761 22.7862 33.72 22.8516C33.7639 22.917 33.7885 22.991 33.7917 23.0669C33.7948 23.1429 33.7763 23.2183 33.7379 23.2863Z" fill="#FFB573"/>
<path d="M31.6319 21.5512C31.6214 21.5512 31.6111 21.5493 31.6014 21.5456C31.5918 21.542 31.5831 21.5367 31.5759 21.5301C31.5131 21.4675 31.4343 21.4189 31.3459 21.3883C31.2576 21.3577 31.1623 21.346 31.0679 21.3541C31.0481 21.3567 31.0279 21.3524 31.0115 21.3423C30.9951 21.3321 30.9838 21.3168 30.9799 21.2995C30.9782 21.2909 30.9784 21.2822 30.9806 21.2737C30.9828 21.2652 30.987 21.2572 30.9927 21.2502C30.9985 21.2431 31.0058 21.2371 31.0143 21.2326C31.0227 21.2281 31.0321 21.2251 31.0419 21.2238C31.1606 21.2107 31.2812 21.2231 31.3933 21.2599C31.5055 21.2966 31.6058 21.3567 31.6859 21.435C31.6997 21.4475 31.7074 21.4642 31.7074 21.4817C31.7074 21.4991 31.6997 21.5158 31.6859 21.5283C31.6719 21.5418 31.6526 21.55 31.6319 21.5512Z" fill="#263238"/>
<path d="M29.292 21.3803C29.2823 21.3803 29.2727 21.3786 29.2638 21.3753C29.2549 21.3719 29.2468 21.3671 29.24 21.3609C29.2262 21.3484 29.2185 21.3317 29.2185 21.3143C29.2185 21.2969 29.2262 21.2801 29.24 21.2676C29.3205 21.1894 29.4213 21.1295 29.5338 21.093C29.6463 21.0565 29.7671 21.0446 29.886 21.0582C29.896 21.0594 29.9055 21.0625 29.914 21.0671C29.9225 21.0718 29.9298 21.078 29.9355 21.0852C29.9411 21.0925 29.945 21.1008 29.9468 21.1095C29.9486 21.1181 29.9484 21.127 29.946 21.1356C29.9444 21.1443 29.9407 21.1525 29.9354 21.1599C29.93 21.1672 29.923 21.1736 29.9148 21.1785C29.9066 21.1834 29.8973 21.1868 29.8876 21.1885C29.8778 21.1903 29.8678 21.1902 29.858 21.1884C29.7636 21.1803 29.6683 21.192 29.58 21.2226C29.4917 21.2532 29.4129 21.3018 29.35 21.3644C29.3422 21.3705 29.333 21.3751 29.323 21.3778C29.313 21.3806 29.3024 21.3814 29.292 21.3803Z" fill="#263238"/>
<path d="M36.4119 28.5186C36.78 29.3069 37.0946 30.1138 37.3539 30.935C37.6351 31.7666 37.8292 32.6191 37.9339 33.4818C37.9499 33.5909 37.9559 33.7053 37.9599 33.8179V33.9939V34.0362C37.9599 34.0538 37.9599 34.0555 37.9599 34.0907C37.9601 34.1437 37.9561 34.1966 37.9479 34.2491C37.8938 34.5523 37.7565 34.8392 37.5479 35.0851C37.2396 35.456 36.8825 35.7933 36.4839 36.0901C35.7461 36.6481 34.9506 37.1442 34.1079 37.572L33.6399 36.9947C34.3179 36.4474 35.0039 35.8859 35.5999 35.2998C35.8868 35.0293 36.1427 34.7345 36.3639 34.4198C36.4319 34.3285 36.4762 34.2252 36.4939 34.1171V34.0573L36.4759 33.9182C36.4659 33.825 36.4559 33.7334 36.4359 33.6384C36.2862 32.8587 36.0736 32.0894 35.7999 31.3363C35.5279 30.5742 35.2199 29.7981 34.8979 29.0606L36.4119 28.5186Z" fill="#FFB573"/>
<path d="M35.7059 27.021C36.3399 27.248 37.1339 30.3034 37.1339 30.3034L35.7859 31.2767C35.7859 31.2767 34.5159 28.9992 34.4599 27.9485C34.4159 27.16 35.1459 26.8186 35.7059 27.021Z" fill="#FFB573"/>
<path d="M38.1199 64.1924C38.0908 64.1794 38.0654 64.1608 38.0457 64.138C38.0259 64.1151 38.0123 64.0886 38.0059 64.0604C37.9987 64.0415 37.9976 64.0211 38.0025 64.0016C38.0074 63.9821 38.0183 63.9641 38.0339 63.9496C38.1719 63.8176 38.7379 63.9038 38.8039 63.9144C38.811 63.9155 38.8177 63.9184 38.823 63.9228C38.8283 63.9272 38.8321 63.9328 38.8339 63.939C38.8349 63.9453 38.834 63.9518 38.8311 63.9577C38.8283 63.9636 38.8237 63.9687 38.8179 63.9724C38.6479 64.0833 38.3339 64.2593 38.1419 64.2012L38.1199 64.1924ZM38.6999 63.9654C38.4719 63.9372 38.1619 63.9249 38.0899 63.9936C38.0845 64.0009 38.0817 64.0095 38.0817 64.0182C38.0817 64.0269 38.0845 64.0355 38.0899 64.0428C38.0934 64.0642 38.1035 64.0843 38.119 64.101C38.1345 64.1178 38.1548 64.1305 38.1779 64.1379C38.2699 64.1696 38.4659 64.1062 38.6999 63.9654Z" fill="#577FD8"/>
<path d="M38.5399 63.903C38.3739 63.8326 38.2039 63.727 38.1799 63.6249C38.1742 63.5991 38.1786 63.5723 38.1924 63.549C38.2062 63.5257 38.2286 63.5071 38.2559 63.4965C38.2808 63.4837 38.3086 63.4759 38.3372 63.4735C38.3658 63.471 38.3948 63.4741 38.4219 63.4824C38.6419 63.5457 38.8219 63.9171 38.8219 63.9329C38.8249 63.9378 38.8265 63.9433 38.8265 63.9488C38.8265 63.9543 38.8249 63.9598 38.8219 63.9646C38.8185 63.9696 38.8134 63.9737 38.8074 63.9762C38.8013 63.9787 38.7946 63.9796 38.7879 63.9787C38.7015 63.9644 38.6179 63.9389 38.5399 63.903ZM38.4219 63.551L38.3979 63.5422C38.3809 63.5371 38.3628 63.5352 38.3449 63.5367C38.3269 63.5382 38.3096 63.5431 38.2939 63.551C38.2519 63.5721 38.2499 63.5933 38.2539 63.6091C38.2779 63.7059 38.5439 63.852 38.7299 63.8977C38.6633 63.7611 38.5571 63.6421 38.4219 63.5528V63.551Z" fill="#577FD8"/>
<path d="M28.4001 65.598C28.264 65.6087 28.1278 65.5783 28.0141 65.5117C27.9882 65.4923 27.9684 65.4674 27.9565 65.4394C27.9446 65.4114 27.941 65.3812 27.9461 65.3516C27.9472 65.3331 27.9537 65.3151 27.9649 65.2994C27.9761 65.2837 27.9916 65.2708 28.0101 65.2618C28.2101 65.1685 28.8401 65.4537 28.9101 65.4871C28.9175 65.4895 28.9237 65.4943 28.9274 65.5004C28.9311 65.5066 28.9321 65.5138 28.9301 65.5205C28.929 65.5274 28.9255 65.5338 28.9202 65.5388C28.9148 65.5439 28.9078 65.5473 28.9001 65.5487C28.7355 65.5785 28.5681 65.595 28.4001 65.598ZM28.1161 65.3093C28.0922 65.3083 28.0683 65.3119 28.0461 65.3199C28.0385 65.3236 28.0321 65.3289 28.0275 65.3354C28.023 65.3418 28.0204 65.3492 28.0201 65.3569C28.017 65.3763 28.0194 65.3961 28.0271 65.4145C28.0348 65.4329 28.0475 65.4494 28.0641 65.4625C28.1601 65.5399 28.4221 65.5522 28.7761 65.5012C28.5668 65.404 28.3402 65.3392 28.1061 65.3093H28.1161Z" fill="#577FD8"/>
<path d="M28.8841 65.5489H28.8681C28.6681 65.4733 28.3021 65.1705 28.3321 65.0209C28.3321 64.9822 28.3701 64.9365 28.4741 64.9277C28.51 64.9249 28.5461 64.9285 28.5805 64.9381C28.6148 64.9478 28.6466 64.9634 28.6741 64.984C28.8741 65.1301 28.9121 65.512 28.9141 65.5243C28.9147 65.5289 28.9141 65.5336 28.9124 65.5379C28.9108 65.5423 28.908 65.5463 28.9044 65.5497C28.9008 65.5531 28.8964 65.5557 28.8915 65.5574C28.8866 65.5591 28.8813 65.5598 28.8761 65.5595L28.8841 65.5489ZM28.5041 64.9822H28.4821C28.4121 64.9822 28.4081 65.0121 28.4061 65.0209C28.3901 65.116 28.6441 65.3536 28.8381 65.4574C28.8235 65.2984 28.7537 65.1473 28.6381 65.0245C28.6008 64.9964 28.5531 64.9814 28.5041 64.9822Z" fill="#577FD8"/>
<path d="M34.6639 35.1833L34.8279 35.6919C34.8519 35.7324 34.7979 35.7729 34.7239 35.7729H28.0679C28.0099 35.7729 27.9619 35.7465 27.9579 35.7148L27.8999 35.2062C27.8999 35.171 27.9459 35.141 28.0099 35.141H34.5579C34.5782 35.1394 34.5987 35.1425 34.6172 35.1499C34.6358 35.1573 34.6519 35.1688 34.6639 35.1833Z" fill="#577FD8"/>
<path opacity="0.8" d="M34.6639 35.1833L34.8279 35.6919C34.8519 35.7324 34.7979 35.7729 34.7239 35.7729H28.0679C28.0099 35.7729 27.9619 35.7465 27.9579 35.7148L27.8999 35.2062C27.8999 35.171 27.9459 35.141 28.0099 35.141H34.5579C34.5782 35.1394 34.5987 35.1425 34.6172 35.1499C34.6358 35.1573 34.6519 35.1688 34.6639 35.1833Z" fill="#263238"/>
<path d="M33.7839 35.8279H33.9599C33.9939 35.8279 34.0199 35.812 34.0179 35.7927L33.9359 35.1309C33.9359 35.1115 33.9039 35.0957 33.8679 35.0957H33.6919C33.6579 35.0957 33.6319 35.1115 33.6339 35.1309L33.7159 35.7927C33.7179 35.812 33.7479 35.8279 33.7839 35.8279Z" fill="#577FD8"/>
<path d="M28.56 35.8279H28.736C28.772 35.8279 28.798 35.812 28.796 35.7927L28.714 35.1309C28.714 35.1115 28.68 35.0957 28.646 35.0957H28.47C28.434 35.0957 28.408 35.1115 28.41 35.1309L28.492 35.7927C28.496 35.812 28.526 35.8279 28.56 35.8279Z" fill="#577FD8"/>
<path d="M31.1721 35.8279H31.3481C31.3821 35.8279 31.4101 35.812 31.4061 35.7927L31.3241 35.1309C31.3241 35.1115 31.2921 35.0957 31.2561 35.0957H31.0821C31.0461 35.0957 31.0201 35.1115 31.0221 35.1309L31.1041 35.7927C31.1061 35.812 31.1381 35.8279 31.1721 35.8279Z" fill="#577FD8"/>
<path d="M33.83 36.8682L32.116 36.9984L33.262 38.0051C33.262 38.0051 34.244 37.7534 34.38 37.185L33.83 36.8682Z" fill="#FFB573"/>
<path d="M31.136 37.8006L32.146 38.5979L33.504 37.9256L32.116 36.998L31.136 37.8006Z" fill="#FFB573"/>
<path d="M30.9999 22.082L30.7119 21.957C30.7119 21.957 30.8299 22.1893 30.9999 22.082Z" fill="#263238"/>
<path d="M53.7339 22.2653C53.7339 22.3797 53.7939 22.4782 53.8799 22.4853C53.9659 22.4923 54.0399 22.4061 54.0439 22.2917C54.0479 22.1773 53.9839 22.0787 53.8979 22.0717C53.8119 22.0646 53.7379 22.1597 53.7339 22.2653Z" fill="#263238"/>
<path d="M53.8599 22.0735L54.1779 22.0225C54.1779 22.0225 53.9999 22.2231 53.8599 22.0735Z" fill="#263238"/>
<path d="M53.84 22.3848C53.9456 22.6577 54.0922 22.9169 54.276 23.1556C54.2051 23.1917 54.1261 23.2137 54.0446 23.22C53.9631 23.2264 53.8809 23.2171 53.804 23.1926L53.84 22.3848Z" fill="#A02724"/>
<path d="M53.9439 21.5176C53.9314 21.5202 53.9184 21.5202 53.9059 21.5176C53.8167 21.4815 53.719 21.4641 53.6208 21.4669C53.5226 21.4696 53.4264 21.4924 53.3399 21.5335C53.3226 21.5428 53.3019 21.5458 53.2821 21.5418C53.2623 21.5379 53.245 21.5273 53.2339 21.5124C53.228 21.5052 53.2238 21.497 53.2215 21.4883C53.2193 21.4796 53.2191 21.4706 53.221 21.4619C53.2229 21.4532 53.2268 21.4449 53.2324 21.4375C53.2381 21.4301 53.2454 21.4239 53.2539 21.4191C53.3614 21.3662 53.4814 21.3363 53.6044 21.3317C53.7273 21.3271 53.8498 21.348 53.9619 21.3927C53.9806 21.3997 53.9955 21.4127 54.0037 21.429C54.0118 21.4454 54.0126 21.4638 54.0059 21.4807C54.0003 21.4911 53.9915 21.5001 53.9806 21.5066C53.9697 21.5131 53.9571 21.5169 53.9439 21.5176Z" fill="#263238"/>
<path d="M49.3459 21.5701C49.3839 22.9781 49.3659 23.5818 50.1459 24.3738C51.3259 25.5636 53.3059 25.3207 53.7459 23.9514C54.1459 22.7194 54.0199 20.6074 52.4619 19.9175C50.9039 19.2276 49.3079 20.1568 49.3459 21.5701Z" fill="#B55B52"/>
<path d="M47.0261 28.5486C46.7661 29.1822 46.51 29.8598 46.274 30.5233C46.038 31.1868 45.8221 31.8627 45.6321 32.5367L45.572 32.7567C45.5646 32.7698 45.5612 32.7844 45.5621 32.799C45.5587 32.8194 45.5587 32.8401 45.5621 32.8606C45.5672 32.98 45.59 33.0984 45.63 33.2126C45.7381 33.5113 45.8787 33.8001 46.0501 34.075C46.4275 34.6778 46.8456 35.2602 47.3021 35.8191L46.6561 36.363C45.9966 35.8796 45.4033 35.3303 44.8881 34.7262C44.6086 34.3995 44.3736 34.0451 44.1881 33.6702C44.0796 33.45 44.0056 33.2179 43.968 32.9803C43.9563 32.9115 43.951 32.8421 43.9521 32.7726C43.9483 32.6973 43.9523 32.6219 43.9641 32.5473C43.9741 32.4558 43.984 32.4241 43.992 32.3713L44.016 32.234C44.1516 31.5083 44.3299 30.7892 44.5501 30.0798C44.7721 29.3633 45.0391 28.6582 45.3501 27.9678L47.0261 28.5486Z" fill="#B55B52"/>
<path d="M45.9739 26.4858C44.9739 26.9187 44.4019 29.3422 44.4019 29.3422L46.9559 30.4458C46.9559 30.4458 48.5099 28.6506 48.0379 27.2461C47.7999 26.5456 46.9559 26.0598 45.9739 26.4858Z" fill="#263238"/>
<path d="M47.1539 35.6172L48.1719 36.9213L46.8739 36.8826C46.8739 36.8826 46.2239 36.3106 46.6059 35.8266L47.1539 35.6172Z" fill="#B55B52"/>
<path d="M48.018 37.4802L47.226 37.8569L46.874 36.8818L48.172 36.9206L48.018 37.4802Z" fill="#B55B52"/>
<path d="M49.5479 23.3652C49.7839 24.2118 49.7059 25.6532 49.0579 26.2041C49.0579 26.2041 49.7679 27.0436 51.5679 27.063C53.5499 27.0841 52.4679 26.2164 52.4679 26.2164C51.3759 25.9806 51.3639 25.2836 51.5179 24.6324L49.5479 23.3652Z" fill="#B55B52"/>
<path d="M48.6139 19.7381C47.6679 19.7804 46.9759 20.1306 47.7579 22.2127C48.3579 23.7967 46.2898 26.0847 48.2478 25.4704C48.9303 25.6869 49.6651 25.7433 50.3798 25.6341C50.3798 25.6341 54.3458 26.7904 53.7259 24.4215C53.1059 22.0525 54.2499 20.3541 53.4019 19.3967C52.5539 18.4392 48.8359 18.5237 48.6139 19.7381Z" fill="#263238"/>
<path d="M48.484 26.4645C48.3855 26.4608 48.2892 26.4378 48.2021 26.3973C48.1149 26.3569 48.0391 26.2999 47.98 26.2305C47.806 26.0157 47.98 25.9137 48.128 25.7025C48.316 25.4279 47.78 25.0618 48.38 24.8893C48.98 24.7169 51.516 25.662 52.414 25.4173C53.044 25.2413 53.164 25.6972 53.028 26.0052C52.806 26.5121 53.428 27.0313 52.9 27.1439C52.446 27.2372 49.4 26.5209 48.484 26.4645Z" fill="#577FD8"/>
<path d="M52.186 65.4203L53.812 65.5241L54.174 62.2452L52.548 62.1396L52.186 65.4203Z" fill="#B55B52"/>
<path d="M43.7239 63.603L45.2759 64.131L46.9699 61.2428L45.4179 60.7148L43.7239 63.603Z" fill="#B55B52"/>
<path d="M45.6239 63.7943L44.0559 62.8827C44.0304 62.8664 43.9989 62.859 43.9675 62.862C43.9361 62.8649 43.9071 62.8779 43.8859 62.8985L42.9499 63.8331C42.9277 63.8589 42.9119 63.8885 42.9035 63.92C42.8951 63.9515 42.8942 63.9842 42.901 64.016C42.9078 64.0479 42.922 64.0781 42.9429 64.1048C42.9637 64.1314 42.9906 64.154 43.0219 64.171C43.5759 64.4808 43.8579 64.6057 44.5479 65.007C44.9719 65.2534 45.5659 65.6512 46.1479 65.9908C46.7299 66.3305 47.1179 65.8641 46.9059 65.6793C45.9559 64.8468 45.9799 64.4755 45.8019 64.002C45.7698 63.9176 45.7073 63.8447 45.6239 63.7943Z" fill="#263238"/>
<path d="M53.906 65.3223H52.082C52.0506 65.3216 52.02 65.3311 51.9961 65.3489C51.9721 65.3668 51.9564 65.3917 51.952 65.4191L51.752 66.6898C51.7484 66.7221 51.7525 66.7546 51.764 66.7854C51.7755 66.8161 51.7942 66.8444 51.8188 66.8684C51.8435 66.8925 51.8736 66.9117 51.9072 66.9249C51.9408 66.9381 51.9772 66.9449 52.014 66.945C52.65 66.9345 52.956 66.9028 53.76 66.9028C54.252 66.9028 55.274 66.9468 55.96 66.9468C56.646 66.9468 56.674 66.3537 56.39 66.3009C55.114 66.0597 54.612 65.7271 54.18 65.4103C54.1036 65.3531 54.0064 65.3219 53.906 65.3223Z" fill="#263238"/>
<path opacity="0.2" d="M54.1739 62.2452L53.9739 64.0686L52.3599 63.8328L52.5459 62.1396L54.1739 62.2452Z" fill="black"/>
<path opacity="0.2" d="M45.4178 60.7158L46.9698 61.2438L46.2678 62.4371L44.6938 61.9461L45.4178 60.7158Z" fill="black"/>
<path d="M47.8521 35.0396L54.4861 35.11C55.5921 26.7834 54.8101 26.6444 54.8101 26.6444C54.2887 26.4957 53.7578 26.3747 53.2201 26.2818L53.1281 26.2677C52.6881 26.2026 52.5981 26.1956 52.0181 26.1428C51.0321 26.097 50.1201 26.0776 49.0061 26.1128H48.7921C48.5921 26.1234 48.3921 26.1357 48.2021 26.1498C48.0721 26.1498 47.9441 26.1709 47.8221 26.1832L47.4061 26.229C46.7021 26.3117 46.2061 26.405 46.2061 26.405C47.7601 31.2432 47.8341 32.6917 47.8521 35.0396Z" fill="#263238"/>
<path opacity="0.2" d="M54.1019 29.239C54.1208 30.0934 54.3909 30.929 54.8859 31.6643C55.0419 30.0451 55.0859 28.9486 55.0759 28.2041C54.5759 28.2323 54.0879 28.4558 54.1019 29.239Z" fill="black"/>
<path d="M52.736 35.0903C52.736 35.0903 51.304 43.9114 50.594 49.4061C49.844 55.2053 46.814 62.1837 46.814 62.1837L44.572 61.5044C44.572 61.5044 46.054 55.0522 46.544 49.605C47.544 38.5469 45.868 37.5948 47.852 35.041L52.736 35.0903Z" fill="#577FD8"/>
<path opacity="0.5" d="M52.736 35.0903C52.736 35.0903 51.304 43.9114 50.594 49.4061C49.844 55.2053 46.814 62.1837 46.814 62.1837L44.572 61.5044C44.572 61.5044 46.054 55.0522 46.544 49.605C47.544 38.5469 45.868 37.5948 47.852 35.041L52.736 35.0903Z" fill="black"/>
<path opacity="0.2" d="M51.1799 37.8235C50.2219 39.6855 50.6539 42.7022 51.2459 44.7191C51.6099 42.2551 51.9979 39.7436 52.2859 37.9115C51.9279 37.306 51.5439 37.1195 51.1799 37.8235Z" fill="black"/>
<path d="M47.0519 62.3217L44.2539 61.4716L44.4659 60.7588L47.7059 61.505L47.0519 62.3217Z" fill="#263238"/>
<path d="M46.3238 64.3543C46.3059 64.3614 46.2871 64.3667 46.2678 64.3701C46.0678 64.3965 45.7718 64.1624 45.6158 64.0181C45.6101 64.0135 45.6061 64.0076 45.6043 64.001C45.6025 63.9944 45.6031 63.9875 45.6058 63.9811C45.6084 63.9747 45.6134 63.9691 45.6198 63.9653C45.6263 63.9615 45.6341 63.9596 45.6418 63.96C45.7098 63.96 46.3038 63.9794 46.4178 64.136C46.4293 64.1534 46.4353 64.1731 46.4353 64.1932C46.4353 64.2133 46.4293 64.233 46.4178 64.2504C46.4 64.293 46.3671 64.3294 46.3238 64.3543ZM45.7378 64.0357C45.9538 64.2117 46.1378 64.3173 46.2538 64.3032C46.2768 64.2993 46.2982 64.29 46.3158 64.2764C46.3333 64.2628 46.3465 64.2453 46.3538 64.2258C46.3589 64.218 46.3616 64.2092 46.3616 64.2003C46.3616 64.1913 46.3589 64.1825 46.3538 64.1747C46.2938 64.092 45.9758 64.048 45.7378 64.0357Z" fill="#577FD8"/>
<path d="M54.4 35.1241C54.4 35.1241 56.812 45.6841 56.566 50.0031C56.308 54.4964 54.338 63.6185 54.338 63.6185L51.988 63.3527C51.988 63.3527 52.548 54.4682 52.494 50.0313C52.438 45.1948 49.54 35.0713 49.54 35.0713L54.4 35.1241Z" fill="#577FD8"/>
<path opacity="0.5" d="M54.4 35.1241C54.4 35.1241 56.812 45.6841 56.566 50.0031C56.308 54.4964 54.338 63.6185 54.338 63.6185L51.988 63.3527C51.988 63.3527 52.548 54.4682 52.494 50.0313C52.438 45.1948 49.54 35.0713 49.54 35.0713L54.4 35.1241Z" fill="black"/>
<path d="M55.532 27.1426C56.1063 27.9234 56.6292 28.7325 57.098 29.5661C57.336 29.9832 57.562 30.4074 57.762 30.8491C57.9762 31.2969 58.152 31.7582 58.288 32.229L58.3401 32.405V32.4279V32.4631L58.356 32.5335C58.356 32.581 58.37 32.6267 58.376 32.6725C58.3905 32.8424 58.3811 33.0132 58.348 33.1811C58.2895 33.4635 58.188 33.7376 58.0461 33.996C57.7964 34.4445 57.4898 34.8667 57.132 35.2544C56.4596 35.9862 55.6991 36.6518 54.8641 37.2397L54.2461 36.6712C54.8852 36.0015 55.4745 35.296 56.01 34.5592C56.506 33.8552 56.9661 33.0227 56.6901 32.6232C56.539 32.2259 56.3614 31.8369 56.1581 31.4581C55.9581 31.0674 55.73 30.6767 55.494 30.2895C55.258 29.9023 55.012 29.5203 54.762 29.1384C54.512 28.7565 54.248 28.3711 53.998 28.0067L55.532 27.1426Z" fill="#B55B52"/>
<path d="M54.7839 36.6221L55.7459 37.4915L54.7359 38.0477C54.7359 38.0477 53.6979 37.3102 54.2659 36.659L54.7839 36.6221Z" fill="#B55B52"/>
<path d="M55.6978 38.1725L54.8718 38.924L54.7358 38.0476L55.7458 37.4932L55.6978 38.1725Z" fill="#B55B52"/>
<path d="M54.75 26.627C55.962 27.0705 56.97 28.3272 57.34 29.0805L55.306 31.2558C55.306 31.2558 53.458 28.7918 53.458 28.0016C53.46 27.1744 54.292 26.4598 54.75 26.627Z" fill="#263238"/>
<path d="M54.6959 63.7363L51.4819 63.3561L51.4979 62.6592L54.9979 62.7982L54.6959 63.7363Z" fill="#263238"/>
<path d="M46.136 63.9319C45.9812 63.9975 45.8117 64.0318 45.64 64.0322C45.6333 64.0315 45.6268 64.0293 45.6213 64.0259C45.6157 64.0226 45.6111 64.0181 45.608 64.0128C45.6044 64.0078 45.6025 64.002 45.6025 63.9961C45.6025 63.9902 45.6044 63.9844 45.608 63.9794C45.618 63.9653 45.864 63.6274 46.096 63.6045C46.1262 63.6006 46.1571 63.6025 46.1864 63.6101C46.2158 63.6177 46.2429 63.6308 46.266 63.6485C46.2916 63.6637 46.3108 63.6859 46.3205 63.7117C46.3303 63.7375 46.3301 63.7654 46.32 63.7911C46.2791 63.8554 46.214 63.9052 46.136 63.9319ZM45.716 63.9635C45.916 63.953 46.21 63.8562 46.25 63.7647C46.25 63.7506 46.26 63.7295 46.22 63.6995C46.2048 63.6885 46.1872 63.6803 46.1683 63.6754C46.1494 63.6706 46.1295 63.6692 46.11 63.6714C45.972 63.696 45.8 63.8579 45.716 63.9635Z" fill="#577FD8"/>
<path d="M54.5181 65.5717C54.346 65.5688 54.1745 65.5518 54.0061 65.5207C53.9984 65.5193 53.9914 65.5159 53.986 65.5108C53.9806 65.5058 53.9771 65.4994 53.9761 65.4925C53.9742 65.4858 53.975 65.4786 53.9783 65.4723C53.9815 65.4659 53.9871 65.4607 53.9941 65.4574C54.0681 65.4239 54.7161 65.1317 54.9141 65.2285C54.9326 65.238 54.9482 65.2513 54.9597 65.2672C54.9712 65.2832 54.9782 65.3013 54.9801 65.3201C54.9856 65.3504 54.9821 65.3814 54.9698 65.4101C54.9575 65.4388 54.9369 65.4642 54.9101 65.4837C54.7949 65.5521 54.6564 65.5832 54.5181 65.5717ZM54.1341 65.4732C54.4941 65.5242 54.7601 65.5101 54.8581 65.4327C54.8756 65.4195 54.8889 65.4025 54.8966 65.3833C54.9043 65.3642 54.9062 65.3436 54.9021 65.3236C54.9022 65.3163 54.9 65.3092 54.8958 65.303C54.8916 65.2967 54.8854 65.2917 54.8781 65.2884C54.7681 65.2356 54.4001 65.3606 54.1341 65.4732Z" fill="#577FD8"/>
<path d="M54.0139 65.5205C54.0067 65.5223 53.9991 65.5223 53.9919 65.5205C53.9861 65.517 53.9815 65.5122 53.9783 65.5067C53.9752 65.5012 53.9737 65.495 53.9739 65.4888C53.9739 65.4624 54.0299 64.8799 54.3939 64.8799H54.4259C54.5319 64.8904 54.5639 64.9362 54.5719 64.9749C54.6059 65.1351 54.2259 65.4448 54.0299 65.524L54.0139 65.5205ZM54.3979 64.9415C54.1639 64.9415 54.0839 65.2812 54.0599 65.4255C54.2599 65.3199 54.5179 65.0735 54.4959 64.9802C54.4959 64.9714 54.4959 64.9485 54.4199 64.9432L54.3979 64.9415Z" fill="#577FD8"/>
<path d="M47.7339 34.6999L47.4639 35.2138C47.4419 35.2543 47.4999 35.2965 47.5759 35.2965L54.5339 35.3687C54.5939 35.3687 54.6419 35.3441 54.6439 35.3106L54.6759 34.7949C54.6759 34.7597 54.6239 34.7281 54.5599 34.7281L47.8399 34.6577C47.8196 34.656 47.7992 34.6591 47.7806 34.6665C47.762 34.6739 47.746 34.6854 47.7339 34.6999Z" fill="#577FD8"/>
<path d="M48.672 35.3602H48.492C48.456 35.3602 48.428 35.3444 48.43 35.325L48.478 34.6527C48.478 34.6334 48.51 34.6175 48.546 34.6193H48.726C48.762 34.6193 48.79 34.6351 48.788 34.6545L48.74 35.325C48.738 35.3497 48.708 35.3602 48.672 35.3602Z" fill="#577FD8"/>
<path opacity="0.5" d="M48.672 35.3602H48.492C48.456 35.3602 48.428 35.3444 48.43 35.325L48.478 34.6527C48.478 34.6334 48.51 34.6175 48.546 34.6193H48.726C48.762 34.6193 48.79 34.6351 48.788 34.6545L48.74 35.325C48.738 35.3497 48.708 35.3602 48.672 35.3602Z" fill="black"/>
<path d="M53.2198 35.4195H53.0398C53.0038 35.4195 52.9758 35.4036 52.9758 35.3825L53.0238 34.712C53.0238 34.6926 53.0558 34.6768 53.0918 34.6768H53.2718C53.3078 34.6768 53.3358 34.6926 53.3338 34.712L53.2858 35.3825C53.2858 35.4036 53.2538 35.4195 53.2198 35.4195Z" fill="#577FD8"/>
<path opacity="0.5" d="M53.2198 35.4195H53.0398C53.0038 35.4195 52.9758 35.4036 52.9758 35.3825L53.0238 34.712C53.0238 34.6926 53.0558 34.6768 53.0918 34.6768H53.2718C53.3078 34.6768 53.3358 34.6926 53.3338 34.712L53.2858 35.3825C53.2858 35.4036 53.2538 35.4195 53.2198 35.4195Z" fill="black"/>
<path d="M62.8822 65.1851L61.3882 64.9968L61.4862 61.9062L62.9782 62.0946L62.8822 65.1851Z" fill="#FFC3BD"/>
<path d="M73.3842 65.5935H71.8782L71.5022 62.5205H73.0102L73.3842 65.5935Z" fill="#FFC3BD"/>
<path d="M71.7541 65.4385H73.6001C73.63 65.439 73.6588 65.4483 73.682 65.4649C73.7052 65.4814 73.7214 65.5044 73.7281 65.53L74.0261 66.7092C74.033 66.738 74.0325 66.7678 74.0245 66.7964C74.0165 66.825 74.0012 66.8517 73.9799 66.8743C73.9585 66.897 73.9316 66.9152 73.9012 66.9274C73.8707 66.9397 73.8375 66.9457 73.8041 66.945C73.2041 66.945 72.7821 66.9046 72.0381 66.9046C71.5781 66.9046 70.1981 66.9468 69.5641 66.9468C68.9301 66.9468 68.8481 66.3959 69.1081 66.3466C70.2701 66.1231 71.1441 65.8186 71.5081 65.5212C71.576 65.4683 71.6634 65.4389 71.7541 65.4385Z" fill="#263238"/>
<path d="M61.4241 64.8467L63.0541 65.0508C63.0834 65.055 63.1103 65.0677 63.1306 65.0868C63.1509 65.1059 63.1634 65.1304 63.1661 65.1564L63.2721 66.362C63.2746 66.3912 63.2696 66.4205 63.2574 66.4477C63.2453 66.4749 63.2262 66.4993 63.2018 66.5192C63.1774 66.539 63.1481 66.5537 63.1163 66.5621C63.0845 66.5706 63.0509 66.5726 63.0181 66.568C62.4321 66.4852 61.5881 66.348 60.8481 66.2547C59.9841 66.1456 59.2321 66.0928 58.2181 65.966C57.6061 65.8886 57.5241 65.3219 57.7901 65.3043C58.9901 65.2268 59.9501 65.3236 61.0481 64.903C61.1648 64.8532 61.2952 64.8337 61.4241 64.8467Z" fill="#263238"/>
<path d="M66.2162 24.9338C66.1382 25.8525 66.0162 26.7466 65.8622 27.6513C65.7862 28.1018 65.6962 28.5524 65.6002 29.0029C65.5522 29.2282 65.5022 29.4535 65.4462 29.6788L65.3602 30.0167L65.3182 30.1927C65.3022 30.249 65.2782 30.3229 65.2602 30.3881C65.106 30.8658 64.9052 31.331 64.6602 31.7785C64.4309 32.2032 64.1875 32.6139 63.9302 33.0105C63.4215 33.8093 62.8627 34.5825 62.2562 35.3266L61.2622 34.8321L62.3822 32.3681C62.5642 31.958 62.7342 31.5479 62.8922 31.1361C63.0454 30.7581 63.1684 30.3711 63.2602 29.978C63.2602 29.9322 63.2782 29.897 63.2882 29.8442L63.3122 29.6805L63.3622 29.3567L63.4542 28.7037L63.6202 27.389L63.9402 24.749L66.2162 24.9338Z" fill="#FFC3BD"/>
<path d="M65.0002 23.5676C63.6002 23.8809 62.9502 28.2422 62.9502 28.2422L66.4102 28.6945C66.4102 28.6945 66.7402 27.5206 67.2722 25.9137C67.6002 24.907 66.7382 23.1751 65.0002 23.5676Z" fill="#577FD8"/>
<path d="M61.5221 34.5957L60.2981 35.5127L61.8721 36.1832C62.0349 36.043 62.1622 35.8741 62.2456 35.6876C62.329 35.501 62.3667 35.3011 62.3561 35.1008L61.5221 34.5957Z" fill="#FFC3BD"/>
<path d="M59.624 36.3522L61.008 36.8221L61.872 36.1833L60.298 35.5127L59.624 36.3522Z" fill="#FFC3BD"/>
<path opacity="0.2" d="M61.488 61.9062L61.436 63.5008L62.93 63.6891L62.98 62.0946L61.488 61.9062Z" fill="black"/>
<path opacity="0.2" d="M73.0102 62.5205H71.5022L71.6962 64.1045H73.2042L73.0102 62.5205Z" fill="black"/>
<path d="M73.3802 23.8789C72.9707 25.3183 72.6839 26.7826 72.5222 28.2596C72.4022 29.2892 72.3402 30.2712 72.3062 31.1618C72.2302 33.2492 72.3182 34.8385 72.2602 35.377C71.0802 35.326 66.6322 35.1341 64.2062 35.025C63.9682 24.5988 64.9422 23.5762 64.9422 23.5762C65.5758 23.4601 66.217 23.379 66.8622 23.3333C66.9982 23.3228 67.1362 23.3157 67.2762 23.3104C68.4198 23.3022 69.5631 23.3521 70.7002 23.4601C70.9162 23.4777 71.1342 23.5023 71.3462 23.5287C72.4262 23.666 73.3802 23.8789 73.3802 23.8789Z" fill="#577FD8"/>
<path d="M66.6 23.3251C66.788 24.1154 68.692 29.5714 72.422 31.4053C72.4376 31.4128 72.4508 31.4237 72.4602 31.437C72.4697 31.4502 72.4751 31.4654 72.476 31.481C72.488 31.6464 72.492 31.8594 72.494 31.9843C72.4942 31.9979 72.491 32.0114 72.4847 32.0238C72.4784 32.0362 72.4692 32.0473 72.4576 32.0563C72.4461 32.0653 72.4324 32.072 72.4177 32.076C72.4029 32.08 72.3873 32.0812 72.372 32.0794C71.934 32.0266 70.284 31.5619 67.934 28.2426C66.776 26.6058 65.974 24.0344 65.844 23.4906C65.8379 23.465 65.8432 23.4383 65.8589 23.416C65.8745 23.3937 65.8993 23.3776 65.928 23.3709L66.458 23.2477C66.4731 23.2441 66.489 23.2432 66.5045 23.2452C66.52 23.2471 66.5349 23.2519 66.5482 23.2592C66.5615 23.2665 66.573 23.2761 66.5819 23.2874C66.5908 23.2988 66.597 23.3116 66.6 23.3251Z" fill="#263238"/>
<path d="M66.9682 26.291C67.1902 26.7275 66.1302 28.6037 67.4822 30.515C68.8342 32.4264 70.0122 30.8547 71.3942 31.5552C69.8002 30.0187 66.9682 26.291 66.9682 26.291Z" fill="#263238"/>
<path d="M70.0821 31.1356H70.0621C67.5901 30.1306 67.1621 27.0454 67.1581 27.0154C67.1573 27.0097 67.1578 27.0038 67.1595 26.9982C67.1613 26.9925 67.1643 26.9873 67.1684 26.9827C67.1725 26.9781 67.1776 26.9743 67.1834 26.9715C67.1892 26.9686 67.1955 26.9668 67.2021 26.9662C67.2086 26.9654 67.2151 26.9659 67.2214 26.9674C67.2277 26.969 67.2335 26.9717 67.2386 26.9753C67.2436 26.9789 67.2478 26.9834 67.2508 26.9885C67.2538 26.9936 67.2556 26.9992 67.2561 27.0049C67.2561 27.0366 67.6821 30.0726 70.1041 31.0529C70.1149 31.0569 70.1238 31.0642 70.1292 31.0734C70.1345 31.0826 70.136 31.0932 70.1334 31.1033C70.1308 31.1133 70.1242 31.1223 70.1148 31.1285C70.1054 31.1348 70.0939 31.1379 70.0821 31.1374V31.1356Z" fill="white"/>
<path opacity="0.2" d="M71.4001 25.8242C71.4117 26.9104 71.7821 27.9701 72.4661 28.8743C72.4841 28.6719 72.5061 28.466 72.5301 28.2601C72.6201 27.4857 72.7401 26.6849 72.9041 25.8735L71.4001 25.8242Z" fill="black"/>
<path d="M70.5521 20.0479C70.2821 21.0071 69.9661 22.7741 70.7001 23.4552C70.3432 23.7541 69.9172 23.9817 69.4513 24.1227C68.9854 24.2636 68.4904 24.3145 68.0001 24.2719C67.0541 24.2138 67.0381 23.6277 67.2681 23.3144C68.5121 23.1103 68.5241 22.3059 68.3541 21.5439L70.5521 20.0479Z" fill="#FFC3BD"/>
<path opacity="0.2" d="M69.6581 20.6621L68.3621 21.5421C68.4058 21.7192 68.4313 21.8995 68.4381 22.0807C68.9101 22.0419 69.5801 21.616 69.6541 21.1866C69.6919 21.0135 69.6932 20.8357 69.6581 20.6621Z" fill="black"/>
<path d="M70.5102 18.3269C70.6122 19.6399 70.7462 20.4055 70.0982 21.1588C69.1202 22.294 67.2042 21.905 66.6602 20.6448C66.1682 19.5096 66.0862 17.5525 67.4602 16.8679C67.7621 16.7159 68.1032 16.6343 68.4511 16.631C68.7989 16.6276 69.142 16.7026 69.4476 16.8488C69.7532 16.995 70.0113 17.2076 70.1973 17.4663C70.3832 17.725 70.491 18.0213 70.5102 18.3269Z" fill="#FFC3BD"/>
<path d="M68.0541 20.4653C68.229 20.4484 68.3968 20.3949 68.5433 20.3091C68.6898 20.2234 68.8108 20.1079 68.8961 19.9725C68.8997 19.9645 68.8999 19.9556 68.8966 19.9475C68.8933 19.9394 68.8867 19.9327 68.8781 19.9285C68.8735 19.9265 68.8685 19.9252 68.8634 19.9249C68.8583 19.9246 68.8531 19.9252 68.8482 19.9266C68.8434 19.9281 68.8389 19.9305 68.8351 19.9335C68.8313 19.9366 68.8282 19.9402 68.8261 19.9444C68.7451 20.0684 68.6321 20.1739 68.4963 20.2525C68.3605 20.331 68.2056 20.3804 68.0441 20.3967C68.034 20.3984 68.025 20.4033 68.0188 20.4104C68.0125 20.4175 68.0094 20.4264 68.0101 20.4354C68.0116 20.4444 68.017 20.4526 68.0252 20.4582C68.0334 20.4638 68.0438 20.4663 68.0541 20.4653Z" fill="#263238"/>
<path d="M69.16 17.4289C69.222 18.0062 69.75 18.5905 69.684 18.9637C69.6575 19.1278 69.5943 19.2857 69.498 19.4283L70.466 19.6254C70.466 19.6254 73.232 17.0241 71.044 16.5243C70.032 14.8048 65.834 14.2961 64.966 15.8203C64.044 17.4272 66.576 17.8073 66.576 17.8073C66.576 17.8073 67.566 17.1843 69.16 17.4289Z" fill="#263238"/>
<path d="M71.4 19.6959C71.2413 19.9965 70.9536 20.2295 70.6 20.3436C70.132 20.4932 69.86 20.1306 69.962 19.7241C70.052 19.358 70.404 18.8441 70.89 18.8669C70.996 18.8747 71.098 18.9056 71.187 18.9567C71.276 19.0079 71.3491 19.0778 71.3997 19.1601C71.4504 19.2423 71.4769 19.3344 71.4769 19.428C71.477 19.5215 71.4505 19.6136 71.4 19.6959Z" fill="#FFC3BD"/>
<path d="M60.926 63.1257L63.454 63.4443C63.454 63.4443 64.92 55.3483 65.678 50.6509C65.878 49.4065 66.21 47.6501 66.642 45.7757C67.184 43.4137 67.876 40.86 68.442 38.8589C69.042 36.7469 69.5 35.2579 69.5 35.2579L64.2 35.0273C64.2 35.0273 61.6 45.9833 61.302 50.0225C61 54.2237 60.926 63.1257 60.926 63.1257Z" fill="#263238"/>
<path opacity="0.2" d="M66.6421 45.7759C67.1841 43.414 67.8761 40.8602 68.4421 38.8591L67.8701 37.8242C66.6001 39.2322 66.3341 43.4738 66.6421 45.7759Z" fill="black"/>
<path d="M67.062 35.1523C67.062 35.1523 67.896 46.5343 68.532 50.3799C69.23 54.5915 71 63.7981 71 63.7981H73.76C73.76 63.7981 73.514 55.1213 72.806 50.9923C72.006 46.3178 72.258 35.3794 72.258 35.3794L67.062 35.1523Z" fill="#263238"/>
<path d="M70.6681 63.8504H73.9201V62.995L70.2861 62.9404L70.6681 63.8504Z" fill="#577FD8"/>
<path d="M60.76 63.1572L63.612 63.518L63.888 62.638L60.636 62.2227L60.76 63.1572Z" fill="#577FD8"/>
<path d="M68.3182 18.9482C68.3342 19.0538 68.2822 19.147 68.2042 19.1558C68.1262 19.1646 68.0482 19.0854 68.0322 18.9798C68.0162 18.8742 68.0682 18.781 68.1482 18.7722C68.2282 18.7634 68.3022 18.8408 68.3182 18.9482Z" fill="#263238"/>
<path d="M66.9561 19.1025C66.9701 19.2081 66.9201 19.3014 66.8401 19.3102C66.7601 19.319 66.6861 19.2415 66.6701 19.1342C66.6541 19.0268 66.7061 18.9353 66.7841 18.9265C66.8621 18.9177 66.9401 18.9916 66.9561 19.1025Z" fill="#263238"/>
<path d="M67.4 19.1064C67.3037 19.4471 67.155 19.7745 66.958 20.0797C67.196 20.2311 67.558 20.0797 67.558 20.0797L67.4 19.1064Z" fill="#ED847E"/>
<path d="M68.6841 18.5113C68.6716 18.5148 68.6583 18.5152 68.6455 18.5124C68.6328 18.5096 68.6212 18.5037 68.6121 18.4954C68.5512 18.4376 68.4756 18.3932 68.3915 18.366C68.3074 18.3388 68.2171 18.3294 68.1281 18.3388C68.1189 18.3406 68.1094 18.3407 68.1001 18.3392C68.0909 18.3377 68.082 18.3345 68.0742 18.3299C68.0664 18.3253 68.0596 18.3193 68.0545 18.3124C68.0493 18.3055 68.0458 18.2977 68.0441 18.2895C68.0421 18.2814 68.0419 18.273 68.0437 18.2649C68.0454 18.2567 68.049 18.249 68.0542 18.242C68.0595 18.2351 68.0662 18.2292 68.0741 18.2247C68.082 18.2201 68.0908 18.217 68.1001 18.2156C68.2124 18.2023 68.3267 18.2127 68.4335 18.2461C68.5403 18.2794 68.6365 18.3348 68.7141 18.4074C68.7208 18.4132 68.7261 18.42 68.7297 18.4276C68.7333 18.4351 68.7351 18.4432 68.7351 18.4514C68.7351 18.4596 68.7333 18.4677 68.7297 18.4753C68.7261 18.4828 68.7208 18.4897 68.7141 18.4954C68.7055 18.5025 68.6953 18.5079 68.6841 18.5113Z" fill="#263238"/>
<path d="M66.3101 18.7558C66.2957 18.7594 66.2805 18.7594 66.2661 18.7558C66.2482 18.7506 66.2333 18.7394 66.2247 18.7245C66.2161 18.7097 66.2144 18.6925 66.2201 18.6766C66.2536 18.581 66.3126 18.4939 66.3923 18.4225C66.472 18.3511 66.5701 18.2977 66.6781 18.2666C66.6876 18.2631 66.6979 18.2615 66.7082 18.2618C66.7185 18.2621 66.7286 18.2643 66.7378 18.2683C66.747 18.2724 66.7551 18.2781 66.7616 18.2851C66.7681 18.2921 66.7728 18.3003 66.7754 18.3091C66.778 18.3179 66.7785 18.327 66.7767 18.3359C66.7749 18.3449 66.771 18.3533 66.7652 18.3608C66.7594 18.3683 66.7518 18.3746 66.743 18.3793C66.7342 18.384 66.7244 18.387 66.7141 18.388C66.6296 18.4142 66.5531 18.4574 66.4909 18.5143C66.4288 18.5711 66.3826 18.64 66.3561 18.7154C66.3531 18.725 66.3473 18.7338 66.3392 18.7409C66.3311 18.748 66.3211 18.7532 66.3101 18.7558Z" fill="#263238"/>
<path d="M71.254 65.6707C71.1516 65.6773 71.0496 65.6537 70.964 65.6038C70.9373 65.5833 70.9166 65.5573 70.9037 65.5282C70.8908 65.4991 70.8861 65.4677 70.89 65.4366C70.8901 65.4183 70.8959 65.4004 70.9068 65.3849C70.9178 65.3693 70.9334 65.3568 70.952 65.3486C71.12 65.2729 71.604 65.5352 71.66 65.5651C71.6659 65.5684 71.6705 65.5732 71.6734 65.5788C71.6762 65.5845 71.6771 65.5907 71.676 65.5968C71.6754 65.603 71.6725 65.6089 71.6678 65.6137C71.6632 65.6184 71.6569 65.6217 71.65 65.6232C71.5205 65.6522 71.3876 65.6682 71.254 65.6707ZM71.03 65.3961C71.0149 65.3932 70.9992 65.3932 70.984 65.3961C70.9769 65.4 70.9711 65.4054 70.9672 65.4119C70.9633 65.4184 70.9615 65.4258 70.962 65.4331C70.9584 65.4542 70.961 65.4757 70.9693 65.4957C70.9777 65.5157 70.9917 65.5335 71.01 65.5475C71.1784 65.616 71.3704 65.6248 71.546 65.5721C71.3884 65.4849 71.2132 65.4251 71.03 65.3961Z" fill="#577FD8"/>
<path d="M71.6402 65.6322C71.635 65.6336 71.6294 65.6336 71.6242 65.6322C71.4682 65.5582 71.1662 65.2678 71.1982 65.12C71.2033 65.0967 71.2175 65.0757 71.2383 65.0606C71.2591 65.0455 71.2852 65.0373 71.3122 65.0373C71.3393 65.0345 71.3668 65.0367 71.3929 65.0437C71.4191 65.0506 71.4433 65.0622 71.4642 65.0778C71.6382 65.2027 71.6762 65.5864 71.6762 65.6058C71.6771 65.6116 71.6761 65.6175 71.6733 65.6228C71.6704 65.6282 71.6659 65.6326 71.6602 65.6357L71.6402 65.6322ZM71.3362 65.0954H71.3202C71.2742 65.0954 71.2702 65.12 71.2682 65.127C71.2502 65.215 71.4422 65.435 71.5962 65.5389C71.5865 65.3877 71.5243 65.2427 71.4182 65.1235C71.3974 65.1022 71.3679 65.089 71.3362 65.0866V65.0954Z" fill="#577FD8"/>
<path d="M61.2502 65.0087C61.0022 65.0192 60.5661 65.0087 60.4221 64.8696C60.4012 64.8478 60.3866 64.8218 60.3797 64.7939C60.3727 64.766 60.3735 64.737 60.3822 64.7095C60.3857 64.6925 60.3942 64.6766 60.4068 64.6633C60.4195 64.65 60.4358 64.6399 60.4541 64.6338C60.6541 64.5704 61.2042 64.9119 61.2682 64.9506C61.2742 64.9546 61.2788 64.96 61.2812 64.9663C61.2837 64.9726 61.2841 64.9794 61.2822 64.9858C61.2801 64.992 61.276 64.9976 61.2702 65.0017C61.2645 65.0058 61.2575 65.0082 61.2502 65.0087ZM60.4822 64.6919H60.4721C60.4649 64.6943 60.4585 64.6983 60.4536 64.7035C60.4487 64.7088 60.4454 64.7151 60.4442 64.7218C60.4383 64.74 60.4379 64.7593 60.4428 64.7778C60.4477 64.7962 60.4578 64.8133 60.4721 64.8274C60.5521 64.9101 60.7942 64.9541 61.1322 64.9471C60.9102 64.8204 60.6002 64.6672 60.4822 64.6919Z" fill="#577FD8"/>
<path d="M61.2501 65.0092C61.241 65.0119 61.2312 65.0119 61.2221 65.0092C61.0541 64.9142 60.7421 64.5868 60.7941 64.4407C60.8061 64.4073 60.8421 64.3668 60.9401 64.3703C60.9759 64.3718 61.0109 64.3796 61.0432 64.3932C61.0755 64.4068 61.1044 64.426 61.1281 64.4495C61.2941 64.6097 61.2781 64.9687 61.2761 64.9775C61.2757 64.9829 61.2739 64.9881 61.2708 64.9927C61.2676 64.9973 61.2633 65.0011 61.2581 65.0039L61.2501 65.0092ZM60.8961 64.4319C60.8681 64.4319 60.8641 64.4513 60.8621 64.4566C60.8321 64.5428 61.0381 64.7963 61.2061 64.9177C61.2135 64.766 61.1674 64.616 61.0741 64.4883C61.0573 64.4707 61.0365 64.4565 61.0131 64.4465C60.9897 64.4365 60.9641 64.4309 60.9381 64.4302L60.8961 64.4319Z" fill="#577FD8"/>
<path d="M73.6 24.6025C73.788 24.8067 73.948 24.9915 74.11 25.1904C74.272 25.3893 74.4281 25.5829 74.5841 25.7817C74.8894 26.1807 75.1794 26.5913 75.454 27.0137C76.0197 27.8717 76.4765 28.7818 76.816 29.7277L76.832 29.7769L76.854 29.8456L76.892 29.9846C76.908 30.0673 76.926 30.1606 76.936 30.2345C76.9529 30.3831 76.9603 30.5323 76.9581 30.6816C76.9511 30.9467 76.9257 31.2112 76.882 31.4736C76.7995 31.9601 76.6846 32.442 76.538 32.9168C76.2539 33.8373 75.8943 34.7384 75.462 35.6131L74.38 35.3174C74.554 34.4216 74.7221 33.5117 74.8461 32.6246C74.9121 32.1829 74.954 31.7446 74.972 31.3222C74.9813 31.1239 74.9773 30.9253 74.96 30.7273C74.95 30.6376 74.936 30.5513 74.92 30.4809C74.92 30.4457 74.902 30.4193 74.894 30.3894L74.88 30.3613V30.3472L74.8641 30.3137C74.6901 29.9301 74.476 29.5464 74.25 29.1645C74.024 28.7825 73.7661 28.4059 73.5021 28.031C73.2381 27.6561 72.958 27.2865 72.674 26.9205C72.532 26.7445 72.3861 26.5544 72.2401 26.3749L71.8 25.8557L73.6 24.6025Z" fill="#FFC3BD"/>
<path d="M73.3802 23.8794C74.7982 24.1047 76.1062 27.1249 76.1062 27.1249L73.2002 29.2897C73.2002 29.2897 72.2002 27.762 71.3902 26.2836C70.5202 24.6749 71.6622 23.6066 73.3802 23.8794Z" fill="#577FD8"/>
<path d="M74.5342 35.0566L73.5342 36.081L75.3862 36.5421C75.3862 36.5421 76.0122 35.5054 75.4242 35.1517L74.5342 35.0566Z" fill="#FFC3BD"/>
<path d="M73.478 37.1863L75.03 37.5067L75.392 36.5422L73.54 36.0811L73.478 37.1863Z" fill="#FFC3BD"/>
<path d="M42.0499 47.0056C42.0616 47.1974 42.016 47.3885 41.9179 47.56C41.8236 47.7275 41.7016 47.8817 41.5559 48.0176C41.2679 48.2749 40.944 48.4991 40.5919 48.6846C39.9003 49.0399 39.1708 49.3347 38.4139 49.5646C36.9155 50.0194 35.3769 50.3644 33.8139 50.596C30.7094 51.0665 27.564 51.2962 24.4139 51.2824C21.2671 51.2957 18.1251 51.066 15.0239 50.596C13.4609 50.3642 11.9224 50.0192 10.4239 49.5646C9.6676 49.3346 8.93878 49.0399 8.2479 48.6846C7.89514 48.4991 7.57056 48.275 7.2819 48.0176C7.13677 47.8812 7.01484 47.7271 6.9199 47.56C6.8227 47.3882 6.77725 47.1973 6.7879 47.0056C6.78657 46.9823 6.79583 46.9594 6.81365 46.9421C6.83147 46.9248 6.85638 46.9144 6.8829 46.9132C6.90942 46.912 6.93538 46.9202 6.95507 46.9359C6.97476 46.9515 6.98657 46.9735 6.9879 46.9968V47.0056C7.05743 47.3126 7.26147 47.5832 7.5559 47.7589C7.85113 47.9542 8.17296 48.1162 8.5139 48.2411C9.21076 48.5017 9.93306 48.7061 10.6719 48.8518C11.4239 49.0091 12.1812 49.1405 12.9439 49.2461C13.6999 49.3517 14.4599 49.4502 15.2219 49.5224C18.2811 49.8079 21.3556 49.9465 24.4319 49.9378C27.5082 49.9466 30.5827 49.8079 33.6419 49.5224C34.4059 49.4502 35.1639 49.3464 35.9199 49.2461C36.6759 49.1458 37.4279 49.012 38.1659 48.8518C38.9047 48.7061 39.627 48.5017 40.3239 48.2411C40.6655 48.1162 40.988 47.9542 41.2839 47.7589C41.5771 47.5825 41.7803 47.3121 41.8499 47.0056V46.9968C41.8534 46.9737 41.8671 46.9528 41.8881 46.9386C41.9091 46.9244 41.9356 46.9181 41.9619 46.9211C41.9855 46.924 42.0071 46.934 42.0232 46.9494C42.0393 46.9648 42.0487 46.9847 42.0499 47.0056Z" fill="#577FD8"/>
<path opacity="0.5" d="M42.0499 47.0056C42.0616 47.1974 42.016 47.3885 41.9179 47.56C41.8236 47.7275 41.7016 47.8817 41.5559 48.0176C41.2679 48.2749 40.944 48.4991 40.5919 48.6846C39.9003 49.0399 39.1708 49.3347 38.4139 49.5646C36.9155 50.0194 35.3769 50.3644 33.8139 50.596C30.7094 51.0665 27.564 51.2962 24.4139 51.2824C21.2671 51.2957 18.1251 51.066 15.0239 50.596C13.4609 50.3642 11.9224 50.0192 10.4239 49.5646C9.6676 49.3346 8.93878 49.0399 8.2479 48.6846C7.89514 48.4991 7.57056 48.275 7.2819 48.0176C7.13677 47.8812 7.01484 47.7271 6.9199 47.56C6.8227 47.3882 6.77725 47.1973 6.7879 47.0056C6.78657 46.9823 6.79583 46.9594 6.81365 46.9421C6.83147 46.9248 6.85638 46.9144 6.8829 46.9132C6.90942 46.912 6.93538 46.9202 6.95507 46.9359C6.97476 46.9515 6.98657 46.9735 6.9879 46.9968V47.0056C7.05743 47.3126 7.26147 47.5832 7.5559 47.7589C7.85113 47.9542 8.17296 48.1162 8.5139 48.2411C9.21076 48.5017 9.93306 48.7061 10.6719 48.8518C11.4239 49.0091 12.1812 49.1405 12.9439 49.2461C13.6999 49.3517 14.4599 49.4502 15.2219 49.5224C18.2811 49.8079 21.3556 49.9465 24.4319 49.9378C27.5082 49.9466 30.5827 49.8079 33.6419 49.5224C34.4059 49.4502 35.1639 49.3464 35.9199 49.2461C36.6759 49.1458 37.4279 49.012 38.1659 48.8518C38.9047 48.7061 39.627 48.5017 40.3239 48.2411C40.6655 48.1162 40.988 47.9542 41.2839 47.7589C41.5771 47.5825 41.7803 47.3121 41.8499 47.0056V46.9968C41.8534 46.9737 41.8671 46.9528 41.8881 46.9386C41.9091 46.9244 41.9356 46.9181 41.9619 46.9211C41.9855 46.924 42.0071 46.934 42.0232 46.9494C42.0393 46.9648 42.0487 46.9847 42.0499 47.0056Z" fill="white"/>
<path d="M77.1859 47.0056C77.1966 47.1973 77.1511 47.3882 77.0539 47.56C76.9597 47.7275 76.8377 47.8817 76.6919 48.0176C76.4033 48.275 76.0787 48.4991 75.7259 48.6846C75.035 49.0399 74.3062 49.3346 73.5499 49.5646C72.0514 50.0192 70.5129 50.3642 68.9499 50.596C62.7331 51.5112 56.3867 51.5112 50.1699 50.596C48.6069 50.3644 47.0683 50.0194 45.5699 49.5646C44.8136 49.3346 44.0848 49.0399 43.3939 48.6846C43.0408 48.4996 42.7161 48.2754 42.4279 48.0176C42.2822 47.8817 42.1602 47.7275 42.0659 47.56C41.9678 47.3885 41.9223 47.1974 41.9339 47.0056C41.9326 46.9823 41.9419 46.9594 41.9597 46.9421C41.9775 46.9248 42.0024 46.9144 42.0289 46.9132C42.0554 46.912 42.0814 46.9202 42.1011 46.9359C42.1208 46.9515 42.1326 46.9735 42.1339 46.9968V47.0056C42.2036 47.3121 42.4067 47.5825 42.6999 47.7589C42.9959 47.9542 43.3183 48.1162 43.6599 48.2411C44.3568 48.5017 45.0791 48.7061 45.8179 48.8518C46.5559 49.012 47.3079 49.1422 48.0639 49.2461C48.8199 49.3499 49.5779 49.4502 50.3419 49.5224C53.3978 49.8076 56.469 49.9462 59.5419 49.9378C62.6182 49.9465 65.6928 49.8079 68.7519 49.5224C69.5139 49.4502 70.2739 49.3464 71.0299 49.2461C71.7859 49.1458 72.5359 49.012 73.2759 48.8518C74.0148 48.7061 74.7371 48.5017 75.4339 48.2411C75.7751 48.1165 76.097 47.9545 76.3919 47.7589C76.6863 47.5832 76.8904 47.3126 76.9599 47.0056V46.9968C76.9634 46.9737 76.9771 46.9528 76.9981 46.9386C77.0191 46.9244 77.0457 46.9181 77.0719 46.9211C77.0857 46.9199 77.0997 46.9212 77.113 46.9248C77.1262 46.9284 77.1386 46.9343 77.1492 46.9422C77.1598 46.9501 77.1685 46.9597 77.1748 46.9706C77.1811 46.9815 77.1849 46.9934 77.1859 47.0056Z" fill="#577FD8"/>
<path opacity="0.5" d="M77.1859 47.0056C77.1966 47.1973 77.1511 47.3882 77.0539 47.56C76.9597 47.7275 76.8377 47.8817 76.6919 48.0176C76.4033 48.275 76.0787 48.4991 75.7259 48.6846C75.035 49.0399 74.3062 49.3346 73.5499 49.5646C72.0514 50.0192 70.5129 50.3642 68.9499 50.596C62.7331 51.5112 56.3867 51.5112 50.1699 50.596C48.6069 50.3644 47.0683 50.0194 45.5699 49.5646C44.8136 49.3346 44.0848 49.0399 43.3939 48.6846C43.0408 48.4996 42.7161 48.2754 42.4279 48.0176C42.2822 47.8817 42.1602 47.7275 42.0659 47.56C41.9678 47.3885 41.9223 47.1974 41.9339 47.0056C41.9326 46.9823 41.9419 46.9594 41.9597 46.9421C41.9775 46.9248 42.0024 46.9144 42.0289 46.9132C42.0554 46.912 42.0814 46.9202 42.1011 46.9359C42.1208 46.9515 42.1326 46.9735 42.1339 46.9968V47.0056C42.2036 47.3121 42.4067 47.5825 42.6999 47.7589C42.9959 47.9542 43.3183 48.1162 43.6599 48.2411C44.3568 48.5017 45.0791 48.7061 45.8179 48.8518C46.5559 49.012 47.3079 49.1422 48.0639 49.2461C48.8199 49.3499 49.5779 49.4502 50.3419 49.5224C53.3978 49.8076 56.469 49.9462 59.5419 49.9378C62.6182 49.9465 65.6928 49.8079 68.7519 49.5224C69.5139 49.4502 70.2739 49.3464 71.0299 49.2461C71.7859 49.1458 72.5359 49.012 73.2759 48.8518C74.0148 48.7061 74.7371 48.5017 75.4339 48.2411C75.7751 48.1165 76.097 47.9545 76.3919 47.7589C76.6863 47.5832 76.8904 47.3126 76.9599 47.0056V46.9968C76.9634 46.9737 76.9771 46.9528 76.9981 46.9386C77.0191 46.9244 77.0457 46.9181 77.0719 46.9211C77.0857 46.9199 77.0997 46.9212 77.113 46.9248C77.1262 46.9284 77.1386 46.9343 77.1492 46.9422C77.1598 46.9501 77.1685 46.9597 77.1748 46.9706C77.1811 46.9815 77.1849 46.9934 77.1859 47.0056Z" fill="white"/>
<path d="M7.51406 41.2266H6.41406V67.1285H7.51406V41.2266Z" fill="#577FD8"/>
<path d="M6.40001 66.7656H7.52001C7.59799 66.7656 7.67277 66.7929 7.7279 66.8414C7.78304 66.8899 7.81401 66.9557 7.81401 67.0243V67.1264H6.11401V67.0243C6.11399 66.9569 6.14386 66.8922 6.19728 66.8438C6.25069 66.7955 6.32343 66.7675 6.40001 66.7656Z" fill="#577FD8"/>
<path d="M7.59803 46.7178H6.33203V47.2968H7.59803V46.7178Z" fill="#577FD8"/>
<path opacity="0.3" d="M7.51406 47.2969H6.41406V47.4306H7.51406V47.2969Z" fill="black"/>
<path d="M6.96395 41.6944C7.47205 41.6944 7.88394 41.3319 7.88394 40.8848C7.88394 40.4377 7.47205 40.0752 6.96395 40.0752C6.45584 40.0752 6.04395 40.4377 6.04395 40.8848C6.04395 41.3319 6.45584 41.6944 6.96395 41.6944Z" fill="#577FD8"/>
<path d="M77.5858 41.2266H76.4858V67.1285H77.5858V41.2266Z" fill="#577FD8"/>
<path d="M76.4798 66.7656H77.5998C77.6778 66.7656 77.7526 66.7929 77.8077 66.8414C77.8629 66.8899 77.8938 66.9557 77.8938 67.0243V67.1264H76.1938V67.0243C76.1938 66.9569 76.2237 66.8922 76.2771 66.8438C76.3305 66.7955 76.4033 66.7675 76.4798 66.7656Z" fill="#577FD8"/>
<path d="M77.6679 46.7178H76.4019V47.2968H77.6679V46.7178Z" fill="#577FD8"/>
<path opacity="0.3" d="M77.5858 47.2969H76.4858V47.4306H77.5858V47.2969Z" fill="black"/>
<path d="M77.036 41.6944C77.5441 41.6944 77.956 41.3319 77.956 40.8848C77.956 40.4377 77.5441 40.0752 77.036 40.0752C76.5279 40.0752 76.116 40.4377 76.116 40.8848C76.116 41.3319 76.5279 41.6944 77.036 41.6944Z" fill="#577FD8"/>
<path d="M42.55 41.2266H41.45V67.1285H42.55V41.2266Z" fill="#577FD8"/>
<path d="M41.4439 66.7656H42.5559C42.6339 66.7656 42.7087 66.7929 42.7638 66.8414C42.8189 66.8899 42.8499 66.9557 42.8499 67.0243V67.1264H41.1499V67.0243C41.1499 66.9557 41.1809 66.8899 41.236 66.8414C41.2911 66.7929 41.3659 66.7656 41.4439 66.7656Z" fill="#577FD8"/>
<path d="M42.632 46.7178H41.366V47.2968H42.632V46.7178Z" fill="#577FD8"/>
<path opacity="0.3" d="M42.55 47.2969H41.45V47.4306H42.55V47.2969Z" fill="black"/>
<path d="M41.9998 41.6944C42.5079 41.6944 42.9198 41.3319 42.9198 40.8848C42.9198 40.4377 42.5079 40.0752 41.9998 40.0752C41.4917 40.0752 41.0798 40.4377 41.0798 40.8848C41.0798 41.3319 41.4917 41.6944 41.9998 41.6944Z" fill="#577FD8"/>
</g>
<defs>
<clipPath id="clip0_497_458">
<rect width="83" height="69" fill="white"/>
</clipPath>
</defs>
</svg>
