<svg width="71" height="68" viewBox="0 0 71 68" fill="none" xmlns="http://www.w3.org/2000/svg">
<path d="M13.9161 52.8015C26.3354 59.0154 46.4724 59.0154 58.8917 52.8015C71.311 46.5877 71.311 36.5128 58.8917 30.2976C46.4724 24.0824 26.3411 24.0838 13.9161 30.2976C1.49105 36.5114 1.50241 46.5877 13.9161 52.8015Z" fill="#F5F5F5"/>
<path d="M10.4541 42.612L6.41699 40.3802V32.0869L10.4541 34.32V42.612Z" fill="#E0E0E0"/>
<path d="M10.4541 34.3201L16.2221 31.1309V39.4228L10.4541 42.612V34.3201Z" fill="#EBEBEB"/>
<path d="M16.2221 31.1306L10.4541 34.3198L6.41699 32.0867L12.185 28.8975L16.2221 31.1306Z" fill="#F5F5F5"/>
<path d="M11.0322 34.6383L15.6458 32.0869L15.7523 32.1454V35.2176L11.1373 37.769L11.0308 37.7105L11.0322 34.6383Z" fill="#E0E0E0"/>
<path d="M11.1372 34.6982L15.7522 32.1455V35.2177L11.1372 37.7691V34.6982Z" fill="#F5F5F5"/>
<path d="M12.9463 34.2181L13.7316 33.7843C13.8324 33.7272 13.9148 33.753 13.9148 33.8414C13.9074 33.8956 13.8871 33.9473 13.8553 33.9926C13.8235 34.038 13.7812 34.0756 13.7316 34.1025L12.9463 34.5364C12.8441 34.5935 12.7617 34.5677 12.7617 34.4793C12.7691 34.425 12.7896 34.3731 12.8217 34.3277C12.8537 34.2824 12.8964 34.2448 12.9463 34.2181Z" fill="#E0E0E0"/>
<path d="M10.9253 38.525L15.5389 35.9736V39.0459L15.6454 39.1044L11.0304 41.6557L10.9253 41.5972V38.525Z" fill="#E0E0E0"/>
<path d="M11.0308 38.5836L15.6458 36.0322V39.1045L11.0308 41.6558V38.5836Z" fill="#F5F5F5"/>
<path d="M12.8396 38.1045L13.632 37.672C13.7342 37.6149 13.8166 37.6407 13.8166 37.7291C13.8092 37.7834 13.7887 37.8353 13.7566 37.8806C13.7246 37.926 13.6819 37.9635 13.632 37.9902L12.8467 38.4241C12.7445 38.4812 12.6621 38.4553 12.6621 38.3669C12.6685 38.313 12.6878 38.2613 12.7186 38.2157C12.7494 38.1702 12.7908 38.1321 12.8396 38.1045Z" fill="#E0E0E0"/>
<path d="M10.4541 33.8414L6.41699 31.6083V23.3164L10.4541 25.5482V33.8414Z" fill="#E0E0E0"/>
<path d="M10.4541 25.5476L16.2221 22.3584V30.6517L10.4541 33.8409V25.5476Z" fill="#EBEBEB"/>
<path d="M16.2221 22.3587L10.4541 25.5479L6.41699 23.3162L12.185 20.127L16.2221 22.3587Z" fill="#F5F5F5"/>
<path d="M11.0308 25.8678L15.6458 23.3164L15.7523 23.3749V26.4471L11.1373 28.9985L11.0308 28.9386V25.8678Z" fill="#E0E0E0"/>
<path d="M12.9463 25.4456L13.7302 25.0118C13.8324 24.956 13.9148 24.9819 13.9148 25.0703C13.9072 25.1245 13.8866 25.1763 13.8545 25.2216C13.8225 25.267 13.7799 25.3045 13.7302 25.3314L12.9463 25.7652C12.8441 25.821 12.7617 25.7965 12.7617 25.7081C12.7692 25.6537 12.7898 25.6016 12.8218 25.5561C12.8538 25.5105 12.8964 25.4727 12.9463 25.4456Z" fill="#E0E0E0"/>
<path d="M10.9253 29.7545L15.5389 27.2031V30.274L15.6454 30.3325L11.0304 32.8838L10.9253 32.8254V29.7545Z" fill="#E0E0E0"/>
<path d="M11.0308 29.8131L15.6458 27.2617V30.3326L11.0308 32.884V29.8131Z" fill="#F5F5F5"/>
<path d="M12.8399 29.3324L13.6322 28.8985C13.7331 28.8428 13.8168 28.8686 13.8168 28.957C13.8088 29.0111 13.7881 29.0628 13.7561 29.108C13.7241 29.1533 13.6817 29.1909 13.6322 29.2181L12.8399 29.6479C12.7376 29.7036 12.6553 29.6778 12.6553 29.5908C12.6634 29.537 12.6842 29.4858 12.7162 29.441C12.7482 29.3962 12.7905 29.3591 12.8399 29.3324Z" fill="#E0E0E0"/>
<path d="M11.0308 25.8678L15.6458 23.3164V26.3873L11.0308 28.9386V25.8678Z" fill="#E0E0E0"/>
<path d="M17.9529 24.8342L15.4268 23.4375V26.1439L17.9529 27.5393V24.8342Z" fill="#E0E0E0"/>
<path d="M12.7617 29.3767V25.5483L13.7515 24.9988L13.9148 25.23L16.7988 23.6348V27.1436L12.7617 29.3767Z" fill="#EBEBEB"/>
<path d="M12.7617 29.3764L13.05 26.0267L17.087 23.7949L16.7988 27.1432L12.7617 29.3764Z" fill="#F5F5F5"/>
<path d="M13.3382 27.3852L11.1372 26.168V28.8744L13.3382 30.0902V27.3852Z" fill="#EBEBEB"/>
<path d="M13.3379 27.1432L17.9529 24.5918V27.6627L13.3379 30.214V27.1432Z" fill="#F5F5F5"/>
<path d="M15.147 26.6634L15.9308 26.2296C16.0331 26.1738 16.1154 26.1997 16.1154 26.2881C16.1078 26.3423 16.0871 26.394 16.0551 26.4393C16.0231 26.4846 15.9805 26.5222 15.9308 26.5492L15.147 26.983C15.0448 27.0388 14.9624 27.0129 14.9624 26.9259C14.9699 26.8715 14.9904 26.8194 15.0225 26.7739C15.0545 26.7283 15.0971 26.6905 15.147 26.6634Z" fill="#E0E0E0"/>
<path d="M13.3379 27.1429L13.1846 27.0586V30.1295L13.3379 30.2138V27.1429Z" fill="#E0E0E0"/>
<path d="M13.1846 27.0586L17.7981 24.5059L17.9529 24.5915L13.3379 27.1429L13.1846 27.0586Z" fill="#EBEBEB"/>
<path d="M58.1488 37.5875L54.1104 35.3544V27.0625L58.1488 29.2943V37.5875Z" fill="#E0E0E0"/>
<path d="M58.1489 29.2947L63.917 26.1055V34.3987L58.1489 37.5879V29.2947Z" fill="#EBEBEB"/>
<path d="M63.9169 26.1052L58.1488 29.2944L54.1104 27.0626L59.8798 23.8721L63.9169 26.1052Z" fill="#F5F5F5"/>
<path d="M58.7256 29.6139L63.3406 27.0625L63.4471 27.121L63.4457 30.1919L58.8321 32.7432L58.7256 32.6847V29.6139Z" fill="#E0E0E0"/>
<path d="M58.832 29.6725L63.447 27.1211L63.4456 30.192L58.832 32.7433V29.6725Z" fill="#F5F5F5"/>
<path d="M60.6411 29.1928L61.425 28.7589C61.5272 28.7032 61.6096 28.729 61.6096 28.8161C61.6021 28.8705 61.5815 28.9225 61.5495 28.9681C61.5175 29.0136 61.4749 29.0514 61.425 29.0785L60.6411 29.5124C60.5389 29.5681 60.4565 29.5423 60.4565 29.4553C60.464 29.4008 60.4846 29.3488 60.5166 29.3032C60.5486 29.2577 60.5913 29.2199 60.6411 29.1928Z" fill="#E0E0E0"/>
<path d="M58.6191 33.501L63.2341 30.9482V34.0205L63.3406 34.079L58.7256 36.6303L58.6191 36.5718V33.501Z" fill="#E0E0E0"/>
<path d="M58.7256 33.5601L63.3406 31.0088V34.0797L58.7256 36.631V33.5601Z" fill="#F5F5F5"/>
<path d="M60.5347 33.0795L61.32 32.6457C61.4208 32.5899 61.5031 32.6157 61.5031 32.7028C61.4956 32.757 61.4752 32.8089 61.4434 32.8544C61.4117 32.8999 61.3694 32.9378 61.32 32.9653L60.5347 33.3991C60.4325 33.4549 60.3501 33.429 60.3501 33.3406C60.3578 33.2864 60.3784 33.2346 60.4105 33.1893C60.4425 33.1441 60.485 33.1065 60.5347 33.0795Z" fill="#E0E0E0"/>
<path d="M19.738 46.2559C19.738 46.2559 19.7536 44.099 18.3336 42.4819C17.0769 41.0498 16.4081 40.1414 16.8042 39.7225C17.2004 39.3036 18.0524 39.203 19.2012 40.3617C20.35 41.5204 20.4394 44.73 20.2804 45.4562L19.738 46.2559Z" fill="#5649A5"/>
<path opacity="0.2" d="M19.738 46.2559C19.738 46.2559 19.7536 44.099 18.3336 42.4819C17.0769 41.0498 16.4081 40.1414 16.8042 39.7225C17.2004 39.3036 18.0524 39.203 19.2012 40.3617C20.35 41.5204 20.4394 44.73 20.2804 45.4562L19.738 46.2559Z" fill="black"/>
<path d="M19.9765 43.9362C19.9603 43.9363 19.9446 43.9311 19.9319 43.9214C19.9193 43.9118 19.9105 43.8983 19.9069 43.8832C19.4099 41.6568 18.1347 40.426 17.4176 39.8902C17.4028 39.8792 17.3931 39.863 17.3907 39.8451C17.3883 39.8273 17.3934 39.8093 17.4049 39.795C17.4166 39.7807 17.4338 39.7714 17.4526 39.7691C17.4715 39.7668 17.4906 39.7717 17.5057 39.7828C18.237 40.3268 19.5391 41.5861 20.0461 43.8546C20.0481 43.8633 20.0484 43.8723 20.0468 43.881C20.0452 43.8898 20.0418 43.8981 20.0367 43.9056C20.0317 43.9131 20.0252 43.9195 20.0175 43.9246C20.0098 43.9296 20.0012 43.9331 19.9921 43.9348L19.9765 43.9362Z" fill="white"/>
<path d="M19.6838 47.0561L19.1059 47.3757C19.0442 47.2144 18.9402 47.0709 18.804 46.9592C18.6677 46.8475 18.5037 46.7713 18.3277 46.7379C17.6958 46.6019 17.0398 46.625 16.5967 46.1C16.1537 45.5751 16.6933 45.0039 16.5967 44.6176C16.5002 44.2314 16.4377 44.1199 15.6453 43.7336C14.853 43.3474 14.5406 42.7068 15.137 42.273C15.7334 41.8391 16.699 42.1574 17.284 42.545C17.8037 42.885 18.2979 42.9747 18.8787 43.0441C19.4594 43.1135 20.4052 43.4222 20.2603 44.7142C20.1655 45.5139 19.9719 46.3 19.6838 47.0561Z" fill="#5649A5"/>
<path d="M17.4657 45.3592C17.4506 45.359 17.4359 45.3544 17.4236 45.3458C17.4114 45.3373 17.4023 45.3253 17.3975 45.3116C17.3922 45.2943 17.394 45.2756 17.4028 45.2596C17.4116 45.2436 17.4265 45.2315 17.4444 45.2259C17.4955 45.2109 18.7224 44.8383 19.2435 45.2381C19.2565 45.2498 19.2644 45.2657 19.2656 45.2827C19.2669 45.2997 19.2614 45.3165 19.2504 45.3299C19.2393 45.3432 19.2234 45.3521 19.2059 45.3547C19.1883 45.3574 19.1703 45.3536 19.1555 45.3442C18.6954 44.9906 17.4998 45.3524 17.487 45.3564L17.4657 45.3592Z" fill="white"/>
<path d="M19.7476 46.9533C19.7303 46.9534 19.7136 46.9473 19.7007 46.9363C19.6879 46.9252 19.6798 46.9099 19.678 46.8935C19.3613 44.0293 15.7588 42.6707 15.7233 42.6571C15.7145 42.6539 15.7064 42.6491 15.6996 42.6429C15.6927 42.6368 15.6872 42.6293 15.6834 42.6211C15.6796 42.6129 15.6775 42.604 15.6773 42.595C15.677 42.586 15.6787 42.5771 15.6821 42.5687C15.6891 42.5522 15.7024 42.5389 15.7193 42.5316C15.7362 42.5242 15.7555 42.5234 15.773 42.5292C15.8113 42.5442 19.4934 43.9314 19.8186 46.8812C19.8206 46.8991 19.8151 46.9169 19.8034 46.931C19.7917 46.945 19.7747 46.954 19.7561 46.956L19.7476 46.9533Z" fill="white"/>
<path d="M55.0674 45.1756C55.083 45.128 55.6922 42.1251 55.0674 39.9954C54.4994 38.0424 53.7581 37.3216 52.7016 37.1625C51.6452 37.0034 51.1865 37.7323 51.7474 38.7197C52.3083 39.707 53.6587 41.0167 53.9896 43.2226C54.1316 44.1311 54.2395 44.9199 54.2395 44.9199L55.0674 45.1756Z" fill="#5649A5"/>
<path opacity="0.2" d="M55.0674 45.1756C55.083 45.128 55.6922 42.1251 55.0674 39.9954C54.4994 38.0424 53.7581 37.3216 52.7016 37.1625C51.6452 37.0034 51.1865 37.7323 51.7474 38.7197C52.3083 39.707 53.6587 41.0167 53.9896 43.2226C54.1316 44.1311 54.2395 44.9199 54.2395 44.9199L55.0674 45.1756Z" fill="black"/>
<path d="M54.7111 43.4509C54.7017 43.4504 54.6926 43.4481 54.6842 43.4442C54.6758 43.4403 54.6683 43.4348 54.6621 43.4282C54.6559 43.4215 54.6511 43.4137 54.6481 43.4052C54.645 43.3967 54.6437 43.3878 54.6443 43.3788C54.7863 40.9472 53.957 38.7766 52.4703 37.7117C52.4552 37.7009 52.4453 37.6848 52.4426 37.6669C52.4399 37.6491 52.4448 37.6309 52.4561 37.6165C52.4676 37.6024 52.4844 37.5931 52.5029 37.5905C52.5215 37.588 52.5403 37.5924 52.5555 37.6029C54.0792 38.6909 54.934 40.9104 54.7849 43.387C54.7838 43.4048 54.7754 43.4215 54.7616 43.4334C54.7478 43.4454 54.7297 43.4517 54.7111 43.4509Z" fill="white"/>
<path d="M56.7019 46.7393C56.621 46.1803 56.9561 45.3425 57.7527 45.144C58.5493 44.9454 58.9043 44.5075 58.6175 44.0288C58.3306 43.5501 58.3974 43.1108 59.1202 42.9122C59.8429 42.7137 60.4763 42.3682 60.0602 41.6365C59.7577 41.1075 59.691 40.7648 60.4322 39.723C61.0471 38.8581 60.5444 38.3508 59.7748 38.446C59.0051 38.5412 58.5294 39.4197 58.0481 39.5666C57.5667 39.7135 57.4559 38.9301 56.8212 39.281C56.1864 39.6319 56.2248 40.5309 56.2049 41.1578C56.185 41.7848 56.1424 41.9262 55.5687 41.8501C54.9951 41.7739 54.4327 41.8637 54.4455 43.1924C54.4555 44.3321 55.0902 45.7437 55.0902 45.7437L56.7019 46.7393Z" fill="#5649A5"/>
<path d="M55.6949 45.8896H55.6878C55.6688 45.8876 55.6515 45.8784 55.6395 45.8642C55.6275 45.8499 55.6219 45.8317 55.6239 45.8135C56.0244 42.3876 59.0944 39.4976 59.8953 38.9115C59.9104 38.9005 59.9294 38.8957 59.9481 38.8981C59.9669 38.9005 59.9839 38.91 59.9954 38.9244C60.0069 38.9388 60.0119 38.957 60.0094 38.975C60.0069 38.993 59.997 39.0093 59.9819 39.0203C59.191 39.5983 56.1607 42.4502 55.7659 45.8284C55.7639 45.8451 55.7555 45.8606 55.7425 45.8718C55.7294 45.8831 55.7125 45.8894 55.6949 45.8896Z" fill="white"/>
<path d="M57.0951 42.2273C57.0807 42.2272 57.0667 42.223 57.0548 42.2153C57.0429 42.2075 57.0337 42.1966 57.0283 42.1838C57.0222 42.1666 57.0233 42.1479 57.0312 42.1315C57.0391 42.115 57.0534 42.1021 57.0709 42.0954C58.2154 41.6874 59.5133 41.8805 59.5687 41.8887C59.5871 41.8917 59.6035 41.9015 59.6144 41.916C59.6253 41.9305 59.6298 41.9485 59.6269 41.9662C59.6235 41.9838 59.6132 41.9994 59.5982 42.01C59.5832 42.0206 59.5645 42.0253 59.546 42.0233C59.5332 42.0233 58.2296 41.8275 57.1206 42.2232C57.1124 42.2259 57.1038 42.2273 57.0951 42.2273Z" fill="white"/>
<path d="M56.0756 44.2857C56.0656 44.2856 56.0558 44.2835 56.0467 44.2795C56.0377 44.2755 56.0296 44.2698 56.023 44.2626C55.547 43.7317 55.2244 43.0908 55.0872 42.4035C55.0858 42.3947 55.0863 42.3856 55.0885 42.3769C55.0907 42.3683 55.0947 42.3601 55.1003 42.3529C55.1058 42.3457 55.1128 42.3396 55.1208 42.335C55.1288 42.3304 55.1376 42.3273 55.1469 42.326C55.1561 42.3246 55.1655 42.325 55.1746 42.3272C55.1837 42.3293 55.1922 42.3331 55.1997 42.3385C55.2072 42.3438 55.2136 42.3504 55.2184 42.3581C55.2232 42.3658 55.2264 42.3743 55.2278 42.3831C55.3636 43.0433 55.6741 43.6591 56.1295 44.1715C56.1384 44.1815 56.1441 44.1937 56.146 44.2067C56.1479 44.2197 56.146 44.233 56.1403 44.245C56.1346 44.2569 56.1256 44.2671 56.1141 44.2743C56.1026 44.2816 56.0893 44.2855 56.0756 44.2857Z" fill="white"/>
<path d="M19.6841 26.0075V47.0575L42.1797 34.619L42.1783 15.4824L25.4521 24.7318L24.8742 23.1365L19.6841 26.0075Z" fill="#5649A5"/>
<path opacity="0.7" d="M19.6841 26.0075V47.0575L42.1797 34.619L42.1783 15.4824L25.4521 24.7318L24.8742 23.1365L19.6841 26.0075Z" fill="black"/>
<path d="M19.6841 47.0575L20.8371 27.921L43.3328 15.4824L42.1797 34.619L19.6841 47.0575Z" fill="#E0E0E0"/>
<path d="M19.6841 47.0577L21.4136 28.2407L43.9093 15.8008L42.1797 34.6191L19.6841 47.0577Z" fill="#5649A5"/>
<path opacity="0.7" d="M19.6841 47.0577L21.4136 28.2407L43.9093 15.8008L42.1797 34.6191L19.6841 47.0577Z" fill="black"/>
<path d="M23.1445 27.9205V48.972L45.6402 36.5321V17.3955L28.9126 26.6449L28.3361 25.0496L23.1445 27.9205Z" fill="#5649A5"/>
<path opacity="0.5" d="M23.1445 27.9205V48.972L45.6402 36.5321V17.3955L28.9126 26.6449L28.3361 25.0496L23.1445 27.9205Z" fill="black"/>
<path d="M23.1445 48.972L24.2976 29.8341L46.7932 17.3955L45.6402 36.5321L23.1445 48.972Z" fill="#E0E0E0"/>
<path d="M23.1445 48.9721L24.8741 30.1538L47.3697 17.7139L45.6402 36.5322L23.1445 48.9721Z" fill="#5649A5"/>
<path opacity="0.5" d="M23.1445 48.9721L24.8741 30.1538L47.3697 17.7139L45.6402 36.5322L23.1445 48.9721Z" fill="black"/>
<path d="M42.1738 55.6703C38.1353 53.4372 34.3894 51.0096 32.6797 48.1618L37.8769 45.2881L42.1738 55.6703Z" fill="#E0E0E0"/>
<path d="M27.1816 30.1539V51.204L49.6773 38.7655V19.6289L32.9497 28.8783L32.3732 27.283L27.1816 30.1539Z" fill="#5649A5"/>
<path opacity="0.2" d="M27.1816 30.1539V51.204L49.6773 38.7655V19.6289L32.9497 28.8783L32.3732 27.283L27.1816 30.1539Z" fill="black"/>
<path d="M33.6625 36.3777C33.6057 36.3777 33.5972 36.3151 33.5972 36.2784V18.3264C33.6017 18.2567 33.6231 18.1891 33.6595 18.1287C33.696 18.0683 33.7466 18.0168 33.8073 17.9782L50.0436 9.00223C50.0658 8.98895 50.0913 8.98145 50.1174 8.98047C50.1742 8.98047 50.1828 9.04303 50.1828 9.07975V27.0317C50.1783 27.1016 50.157 27.1695 50.1206 27.2302C50.0841 27.2908 50.0335 27.3425 49.9726 27.3813L33.7363 36.3573C33.7139 36.3699 33.6885 36.3769 33.6625 36.3777Z" fill="white"/>
<path d="M50.1092 9.04286C50.1103 9.05281 50.1103 9.06284 50.1092 9.07278V27.0248C50.1045 27.0827 50.0864 27.1389 50.0562 27.1892C50.026 27.2396 49.9844 27.2828 49.9345 27.3158L33.6982 36.2918L33.6698 36.3041C33.6679 36.2942 33.6679 36.284 33.6698 36.2741V18.3221C33.6747 18.2645 33.6929 18.2086 33.7231 18.1585C33.7533 18.1084 33.7948 18.0653 33.8445 18.0325L50.0808 9.05646C50.0897 9.05047 50.0999 9.0463 50.1106 9.04422M50.1191 8.90822C50.0804 8.90933 50.0427 8.92011 50.0098 8.93951L33.7735 17.9155C33.7021 17.9604 33.6427 18.0207 33.6001 18.0916C33.5574 18.1624 33.5327 18.2418 33.5278 18.3235V36.2755C33.5278 36.3816 33.5832 36.4428 33.6698 36.4428C33.7085 36.4418 33.7463 36.431 33.7792 36.4115L50.0155 27.4355C50.0871 27.3909 50.1468 27.3307 50.1895 27.2598C50.2322 27.1889 50.2567 27.1093 50.2611 27.0275V9.07551C50.2611 8.96943 50.2057 8.90686 50.1191 8.90822Z" fill="#5649A5"/>
<path opacity="0.7" d="M50.1092 9.04286C50.1103 9.05281 50.1103 9.06284 50.1092 9.07278V27.0248C50.1045 27.0827 50.0864 27.1389 50.0562 27.1892C50.026 27.2396 49.9844 27.2828 49.9345 27.3158L33.6982 36.2918L33.6698 36.3041C33.6679 36.2942 33.6679 36.284 33.6698 36.2741V18.3221C33.6747 18.2645 33.6929 18.2086 33.7231 18.1585C33.7533 18.1084 33.7948 18.0653 33.8445 18.0325L50.0808 9.05646C50.0897 9.05047 50.0999 9.0463 50.1106 9.04422M50.1191 8.90822C50.0804 8.90933 50.0427 8.92011 50.0098 8.93951L33.7735 17.9155C33.7021 17.9604 33.6427 18.0207 33.6001 18.0916C33.5574 18.1624 33.5327 18.2418 33.5278 18.3235V36.2755C33.5278 36.3816 33.5832 36.4428 33.6698 36.4428C33.7085 36.4418 33.7463 36.431 33.7792 36.4115L50.0155 27.4355C50.0871 27.3909 50.1468 27.3307 50.1895 27.2598C50.2322 27.1889 50.2567 27.1093 50.2611 27.0275V9.07551C50.2611 8.96943 50.2057 8.90686 50.1191 8.90822Z" fill="white"/>
<path d="M35.2573 19.0076L41.0254 15.8184V22.1968L35.2573 25.386V19.0076Z" fill="#5649A5"/>
<path opacity="0.8" d="M35.2573 19.0076L41.0254 15.8184V22.1968L35.2573 25.386V19.0076Z" fill="white"/>
<path d="M40.1606 17.4082V19.3258L39.9789 19.4224V18.8362C39.9789 18.5125 39.7048 18.4024 39.364 18.59L36.9202 19.9432C36.5808 20.1309 36.3053 20.5457 36.3053 20.8694V21.4556L36.125 21.5589V19.6454L40.1606 17.4082Z" fill="white"/>
<path d="M39.0498 22.2903C38.7544 22.4535 38.5145 22.2822 38.5145 21.9055V18.8359L37.7718 19.2222V22.3162C37.7718 22.6915 37.5318 23.1322 37.2365 23.2913L36.6997 23.5878V23.7918L39.5837 22.1965V21.9939L39.0498 22.2903Z" fill="white"/>
<path d="M42.1738 15.5041C42.1738 15.6809 42.34 15.7312 42.543 15.6197L48.1549 12.5121C48.2544 12.4581 48.3396 12.3827 48.4036 12.2918C48.4677 12.201 48.5089 12.0972 48.5241 11.9885C48.5241 11.8131 48.3579 11.7614 48.1549 11.8743L42.5473 14.9751C42.4461 15.029 42.3595 15.105 42.2947 15.1969C42.2298 15.2888 42.1884 15.3941 42.1738 15.5041Z" fill="#455A64"/>
<path d="M42.1738 17.4085C42.1738 17.5853 42.34 17.6369 42.543 17.5241L48.1506 14.4233C48.2502 14.3692 48.3353 14.2938 48.3994 14.203C48.4634 14.1121 48.5047 14.0083 48.5198 13.8997C48.5198 13.7242 48.3537 13.6725 48.1506 13.7854L42.543 16.8862C42.4436 16.9401 42.3586 17.0153 42.2946 17.1059C42.2305 17.1965 42.1892 17.3001 42.1738 17.4085Z" fill="#455A64"/>
<path d="M42.1738 19.3254C42.1738 19.5022 42.34 19.5539 42.543 19.441L48.1506 16.3402C48.25 16.2863 48.335 16.2111 48.3991 16.1205C48.4631 16.0299 48.5044 15.9264 48.5198 15.8179C48.5198 15.6411 48.3537 15.5895 48.1506 15.7023L42.543 18.8031C42.4436 18.8571 42.3586 18.9323 42.2946 19.0228C42.2305 19.1134 42.1892 19.217 42.1738 19.3254Z" fill="#455A64"/>
<path d="M42.1738 21.2395C42.1738 21.4163 42.34 21.4679 42.543 21.3551L48.1506 18.2543C48.25 18.2003 48.335 18.1251 48.3991 18.0346C48.4631 17.944 48.5044 17.8404 48.5198 17.732C48.5198 17.5552 48.3537 17.5035 48.1506 17.6164L42.543 20.7172C42.4436 20.7711 42.3586 20.8463 42.2946 20.9369C42.2305 21.0275 42.1892 21.131 42.1738 21.2395Z" fill="#455A64"/>
<path d="M35.2573 26.9813C35.2573 27.1581 35.422 27.2098 35.6265 27.0969L48.1552 20.1609C48.2547 20.1071 48.3399 20.032 48.4039 19.9414C48.468 19.8507 48.5092 19.7471 48.5244 19.6386C48.5244 19.4618 48.3582 19.4115 48.1552 19.523L35.6265 26.459C35.5269 26.5127 35.4417 26.5878 35.3776 26.6785C35.3136 26.7691 35.2724 26.8728 35.2573 26.9813Z" fill="#455A64"/>
<path d="M35.2573 28.8947C35.2573 29.0715 35.422 29.1232 35.6265 29.0103L48.1552 22.0824C48.2548 22.0284 48.3399 21.953 48.404 21.8621C48.468 21.7713 48.5092 21.6675 48.5244 21.5588C48.5244 21.3834 48.3582 21.3317 48.1552 21.4446L35.6265 28.3724C35.5269 28.4261 35.4417 28.5012 35.3776 28.5919C35.3136 28.6825 35.2724 28.7862 35.2573 28.8947Z" fill="#455A64"/>
<path d="M35.2573 30.8101C35.2573 30.9855 35.422 31.0372 35.6265 30.9243L48.1552 23.9965C48.2548 23.9424 48.3399 23.867 48.404 23.7762C48.468 23.6854 48.5092 23.5816 48.5244 23.4729C48.5244 23.2975 48.3582 23.2458 48.1552 23.3587L35.6265 30.2865C35.5267 30.3403 35.4414 30.4156 35.3773 30.5065C35.3133 30.5974 35.2722 30.7014 35.2573 30.8101Z" fill="#455A64"/>
<path d="M27.1816 51.2047L31.2187 34.3012L53.7143 21.8613L49.6773 38.7661L27.1816 51.2047Z" fill="#5649A5"/>
<path d="M32.6855 35.6245V48.1623L37.8771 45.2914V32.7549L32.6855 35.6245Z" fill="#5649A5"/>
<path opacity="0.2" d="M32.6855 35.6245V48.1623L37.8771 45.2914V32.7549L32.6855 35.6245Z" fill="black"/>
<path d="M42.1838 55.5885C41.7421 55.2729 37.485 52.1572 35.3209 47.7005C33.0177 42.9622 33.0205 37.4352 33.0205 35.3557V35.2905L48.4531 26.7578C48.4531 28.8563 48.4531 34.3915 50.7662 39.1461C52.8806 43.4981 56.9745 46.5744 57.6234 47.0449L42.1838 55.5885Z" fill="white"/>
<path d="M48.3821 26.8806C48.3821 29.0675 48.4262 34.4966 50.7024 39.1804C52.7458 43.3828 56.6309 46.4047 57.4957 47.0426L42.1881 55.5072C41.5903 55.0761 37.4936 52.012 35.3863 47.6777C33.0859 42.9531 33.0859 37.4369 33.0859 35.3602V35.3343L48.3765 26.8792M48.5185 26.6439L32.9439 35.2568C32.9439 37.2139 32.9013 42.9 35.2514 47.7348C37.5646 52.4799 42.1739 55.6704 42.1739 55.6704L57.7527 47.0562C57.7527 47.0562 53.1377 43.8656 50.8316 39.1206C48.4801 34.2858 48.5241 28.5996 48.5241 26.6426L48.5185 26.6439Z" fill="#5649A5"/>
<path opacity="0.7" d="M48.3821 26.8806C48.3821 29.0675 48.4262 34.4966 50.7024 39.1804C52.7458 43.3828 56.6309 46.4047 57.4957 47.0426L42.1881 55.5072C41.5903 55.0761 37.4936 52.012 35.3863 47.6777C33.0859 42.9531 33.0859 37.4369 33.0859 35.3602V35.3343L48.3765 26.8792M48.5185 26.6439L32.9439 35.2568C32.9439 37.2139 32.9013 42.9 35.2514 47.7348C37.5646 52.4799 42.1739 55.6704 42.1739 55.6704L57.7527 47.0562C57.7527 47.0562 53.1377 43.8656 50.8316 39.1206C48.4801 34.2858 48.5241 28.5996 48.5241 26.6426L48.5185 26.6439Z" fill="white"/>
<path d="M46.7619 29.5331L41.8373 32.2531C41.7388 32.3051 41.6547 32.3791 41.5924 32.4688C41.5301 32.5586 41.4914 32.6614 41.4795 32.7685C41.4866 32.9413 41.6584 32.9902 41.8615 32.8773L46.7875 30.1573C46.8849 30.1059 46.968 30.0329 47.03 29.9444C47.092 29.8559 47.131 29.7545 47.1439 29.6487C47.1354 29.4692 46.9664 29.4202 46.7619 29.5331Z" fill="#455A64"/>
<path d="M46.8673 31.3886L41.9428 34.1086C41.8454 34.1587 41.7628 34.2317 41.7027 34.3206C41.6426 34.4095 41.607 34.5115 41.5991 34.6172C41.6147 34.7845 41.7937 34.8294 41.9967 34.7165L46.9227 31.9965C47.0196 31.9465 47.1016 31.8737 47.161 31.785C47.2204 31.6962 47.2552 31.5944 47.2621 31.4892C47.2479 31.3206 47.0718 31.2798 46.8673 31.3886Z" fill="#455A64"/>
<path d="M47.0642 33.1939L42.1383 35.9139C41.9352 36.0268 41.7875 36.2512 41.8117 36.413C41.8358 36.5748 42.0218 36.617 42.2263 36.5041L47.1523 33.7841C47.3553 33.6712 47.5002 33.4482 47.4746 33.2864C47.4491 33.1245 47.2673 33.081 47.0642 33.1939Z" fill="#455A64"/>
<path d="M47.3598 34.9444L42.4338 37.6644C42.2307 37.7773 42.0902 37.9976 42.1242 38.1554C42.1583 38.3131 42.3514 38.3485 42.5502 38.2356L47.4748 35.5156C47.6793 35.4027 47.8156 35.1838 47.7815 35.026C47.7474 34.8682 47.5699 34.8315 47.3598 34.9444Z" fill="#455A64"/>
<path d="M47.7601 36.6356L42.8341 39.3556C42.631 39.4685 42.499 39.6834 42.5501 39.8343C42.6012 39.9853 42.7957 40.0193 42.9988 39.9064L47.9248 37.1864C48.1293 37.0735 48.2571 36.86 48.2088 36.7077C48.1605 36.5554 47.9631 36.5227 47.7601 36.6356Z" fill="#455A64"/>
<path d="M48.2799 38.2664L36.2752 44.9046C36.0721 45.0175 35.9486 45.2269 36.004 45.3724C36.0594 45.5179 36.2709 45.5451 36.474 45.4323L48.4787 38.7941C48.6832 38.6812 48.801 38.4731 48.7456 38.3263C48.6903 38.1794 48.4758 38.1535 48.2799 38.2664Z" fill="#455A64"/>
<path d="M48.9119 39.8237L36.9086 46.4619C36.7041 46.5748 36.5919 46.7788 36.6601 46.9175C36.7283 47.0562 36.9441 47.078 37.1514 46.9651L49.1561 40.3269C49.3606 40.214 49.4699 40.01 49.4018 39.8713C49.3336 39.7326 49.1163 39.7122 48.9119 39.8237Z" fill="#455A64"/>
<path d="M49.6999 41.3076L37.6952 47.9457C37.4907 48.0586 37.3899 48.2572 37.4708 48.3891C37.5518 48.521 37.7832 48.5346 37.9877 48.4217L49.9839 41.7836C50.1869 41.672 50.2849 41.4748 50.204 41.3429C50.123 41.211 49.8987 41.1947 49.6999 41.3076Z" fill="#455A64"/>
<path d="M50.6189 42.7106L38.6156 49.3474C38.4111 49.4603 38.3202 49.6548 38.4125 49.7785C38.5048 49.9023 38.7477 49.9145 38.9521 49.8003L50.9554 43.1621C51.1599 43.0492 51.2479 42.8575 51.1556 42.7324C51.0633 42.6072 50.8233 42.5977 50.6189 42.7106Z" fill="#455A64"/>
<path d="M51.6667 44.0455L39.662 50.6823C39.459 50.7952 39.378 50.9842 39.4803 51.1025C39.5825 51.2209 39.8338 51.2263 40.0383 51.1134L52.043 44.4726C52.2461 44.3597 52.327 44.1733 52.2219 44.055C52.1168 43.9367 51.8712 43.9285 51.6667 44.0455Z" fill="#455A64"/>
<path d="M52.824 45.3153L40.8236 51.9521C40.6191 52.065 40.5396 52.2499 40.6589 52.3601C40.7782 52.4703 41.0309 52.473 41.234 52.3601L53.2387 45.7219C53.4431 45.6091 53.5141 45.4268 53.4005 45.3139C53.2869 45.2011 53.0313 45.2038 52.824 45.3153Z" fill="#455A64"/>
<path d="M54.102 46.5297L42.0973 53.1665C41.8943 53.2793 41.8275 53.4602 41.9553 53.5677C42.0831 53.6751 42.3444 53.671 42.5489 53.5581L54.5436 46.92C54.7467 46.8071 54.8106 46.6303 54.6856 46.5215C54.5607 46.4127 54.3008 46.4168 54.102 46.5297Z" fill="#455A64"/>
<path d="M40.0526 33.2441L34.3896 36.3721C34.4521 38.3373 34.6864 41.1716 35.5441 44.0262L41.2085 40.8982C40.3494 38.0436 40.1151 35.208 40.0526 33.2441Z" fill="#5649A5"/>
<path opacity="0.8" d="M40.0526 33.2441L34.3896 36.3721C34.4521 38.3373 34.6864 41.1716 35.5441 44.0262L41.2085 40.8982C40.3494 38.0436 40.1151 35.208 40.0526 33.2441Z" fill="white"/>
<path d="M36.6986 35.9391C36.7062 35.8123 36.6856 35.6853 36.6381 35.5667C36.5906 35.448 36.5173 35.3404 36.4231 35.251L34.3896 36.3743C34.4067 36.8939 34.4351 37.4746 34.4848 38.1002C34.7493 38.1293 35.0169 38.0819 35.253 37.9642C36.0525 37.6133 36.6986 36.7035 36.6986 35.9391Z" fill="#5649A5"/>
<path opacity="0.6" d="M36.6986 35.9391C36.7062 35.8123 36.6856 35.6853 36.6381 35.5667C36.5906 35.448 36.5173 35.3404 36.4231 35.251L34.3896 36.3743C34.4067 36.8939 34.4351 37.4746 34.4848 38.1002C34.7493 38.1293 35.0169 38.0819 35.253 37.9642C36.0525 37.6133 36.6986 36.7035 36.6986 35.9391Z" fill="white"/>
<path d="M40.7269 39.0216C40.3492 38.566 39.5809 37.1583 39.2529 36.545C39.24 36.5207 39.2198 36.5008 39.195 36.4876C39.1701 36.4745 39.1417 36.4688 39.1134 36.4713C39.0851 36.4738 39.0582 36.4843 39.0363 36.5016C39.0143 36.5188 38.9983 36.542 38.9902 36.5681C38.6353 37.7299 38.4294 38.9287 38.3768 40.1381C37.9038 39.7785 37.4973 39.3455 37.174 38.857C37.1603 38.8381 37.1411 38.8233 37.1189 38.8145C37.0966 38.8056 37.0722 38.803 37.0485 38.807C37.0247 38.811 37.0027 38.8214 36.9849 38.837C36.9672 38.8526 36.9545 38.8728 36.9483 38.8951C36.3291 41.1785 36.6401 43.4252 36.6401 43.4252L41.2083 40.8984C41.018 40.2673 40.8604 39.639 40.7269 39.0216Z" fill="#5649A5"/>
<path opacity="0.6" d="M40.7269 39.0216C40.3492 38.566 39.5809 37.1583 39.2529 36.545C39.24 36.5207 39.2198 36.5008 39.195 36.4876C39.1701 36.4745 39.1417 36.4688 39.1134 36.4713C39.0851 36.4738 39.0582 36.4843 39.0363 36.5016C39.0143 36.5188 38.9983 36.542 38.9902 36.5681C38.6353 37.7299 38.4294 38.9287 38.3768 40.1381C37.9038 39.7785 37.4973 39.3455 37.174 38.857C37.1603 38.8381 37.1411 38.8233 37.1189 38.8145C37.0966 38.8056 37.0722 38.803 37.0485 38.807C37.0247 38.811 37.0027 38.8214 36.9849 38.837C36.9672 38.8526 36.9545 38.8728 36.9483 38.8951C36.3291 41.1785 36.6401 43.4252 36.6401 43.4252L41.2083 40.8984C41.018 40.2673 40.8604 39.639 40.7269 39.0216Z" fill="white"/>
</svg>
