<svg width="346" height="346" viewBox="0 0 346 346" fill="none" xmlns="http://www.w3.org/2000/svg">
<path d="M77.9329 208.583C28.1089 237.329 28.1089 283.942 77.9329 312.694C127.757 341.447 208.465 341.447 258.261 312.694C308.058 283.942 308.085 237.329 258.261 208.583C208.437 179.837 127.729 179.83 77.9329 208.583Z" fill="#F5F5F5"/>
<path d="M168.101 315.192C199.783 315.192 225.467 300.364 225.467 282.073C225.467 263.782 199.783 248.954 168.101 248.954C136.418 248.954 110.734 263.782 110.734 282.073C110.734 300.364 136.418 315.192 168.101 315.192Z" fill="#E0E0E0"/>
<path d="M97.7035 264.752L76.2308 277.153L22.1233 245.916L43.5961 233.522L97.7035 264.752Z" fill="#E0E0E0"/>
<path d="M119.848 255.327L98.3679 267.721L44.2673 236.491L65.7401 224.09L119.848 255.327Z" fill="#E0E0E0"/>
<path d="M273.693 256.199C283.042 261.59 283.042 270.343 273.693 275.741C264.344 281.139 249.196 281.132 239.847 275.741C230.498 270.35 230.498 261.59 239.847 256.199C249.196 250.808 264.344 250.801 273.693 256.199Z" fill="#E0E0E0"/>
<path d="M108.976 178.321V180.162C108.976 180.162 108.284 179.518 108.222 179.055C108.16 178.591 108.976 178.321 108.976 178.321Z" fill="black"/>
<path d="M107.557 177.878C107.478 178.133 107.453 178.402 107.483 178.667C107.513 178.932 107.598 179.188 107.732 179.419C107.866 179.65 108.046 179.851 108.261 180.008C108.477 180.166 108.722 180.277 108.983 180.335C110.99 180.972 112.249 180.335 112.547 180.902C112.844 181.47 103.025 187.13 103.025 187.13L104.893 178.999L107.557 177.878Z" fill="#2D589B"/>
<path opacity="0.3" d="M107.557 177.878C107.478 178.133 107.453 178.402 107.483 178.667C107.513 178.932 107.598 179.188 107.732 179.419C107.866 179.65 108.046 179.851 108.261 180.008C108.477 180.166 108.722 180.277 108.983 180.335C110.99 180.972 112.249 180.335 112.547 180.902C112.844 181.47 103.025 187.13 103.025 187.13L104.893 178.999L107.557 177.878Z" fill="black"/>
<path d="M103.855 253.916V254.033L102.873 253.466L64.3906 231.259L64.446 156.081C64.446 154.911 65.0895 154.33 65.8784 154.793L67.3109 155.624L106.713 178.363L106.679 178.702L103.855 253.916Z" fill="#2D589B"/>
<path opacity="0.2" d="M103.855 253.916V254.033L102.873 253.466L64.3906 231.259L64.446 156.081C64.446 154.911 65.0895 154.33 65.8784 154.793L67.3109 155.624L106.713 178.363L106.679 178.702L103.855 253.916Z" fill="black"/>
<path d="M98.1324 189.386L96.0564 187.054L106.637 180.951C108.229 182.155 109.454 182.798 110.886 182.196L98.1324 189.386Z" fill="#455A64"/>
<path d="M106.104 179.699L67.0825 157.167C66.7024 156.976 66.283 156.876 65.8576 156.876C65.4323 156.876 65.0128 156.976 64.6328 157.167L54.2043 163.194L93.7729 185.837C94.2611 185.716 94.769 185.698 95.2645 185.784C95.7601 185.869 96.2324 186.057 96.6516 186.335C97.8142 187.276 97.745 186.086 97.745 186.086L106.644 180.951C105.918 179.975 106.104 179.699 106.104 179.699Z" fill="#F5F5F5"/>
<path d="M97.3712 188.916C96.963 188.681 96.79 188.411 96.9837 188.3L97.3159 188.113C97.6826 187.899 97.3159 187.352 96.5408 186.888C95.7658 186.425 94.8039 186.196 94.4648 186.438L94.1327 186.625C93.9389 186.736 93.2469 186.508 92.5757 186.12L92.8179 259.299L93.8005 259.86C93.9924 259.903 94.1931 259.887 94.3749 259.811L94.707 259.617C95.0738 259.403 96.0149 259.617 96.783 260.06C97.5512 260.503 97.9248 261.071 97.5581 261.285L97.2259 261.479C97.0322 261.583 97.2259 261.853 97.6065 262.088L97.3712 188.916Z" fill="#2D589B"/>
<path opacity="0.4" d="M97.3712 188.916C96.963 188.681 96.79 188.411 96.9837 188.3L97.3159 188.113C97.6826 187.899 97.3159 187.352 96.5408 186.888C95.7658 186.425 94.8039 186.196 94.4648 186.438L94.1327 186.625C93.9389 186.736 93.2469 186.508 92.5757 186.12L92.8179 259.299L93.8005 259.86C93.9924 259.903 94.1931 259.887 94.3749 259.811L94.707 259.617C95.0738 259.403 96.0149 259.617 96.783 260.06C97.5512 260.503 97.9248 261.071 97.5581 261.285L97.2259 261.479C97.0322 261.583 97.2259 261.853 97.6065 262.088L97.3712 188.916Z" fill="black"/>
<path d="M93.7729 259.735V259.846L92.7903 259.285L50.6475 234.955V164.046C50.6475 162.869 51.291 162.295 52.0868 162.751L53.5193 163.582L93.766 185.837L93.7729 259.735Z" fill="#2D589B"/>
<path opacity="0.2" d="M93.7729 259.735V259.846L92.7903 259.285L50.6475 234.955V164.046C50.6475 162.869 51.291 162.295 52.0868 162.751L53.5193 163.582L93.766 185.837L93.7729 259.735Z" fill="black"/>
<path d="M96.8799 261.659V188.404L99.4956 189.456V262.475C99.0105 262.574 98.507 262.526 98.0494 262.337L96.8799 261.659Z" fill="#2D589B"/>
<path opacity="0.2" d="M96.8799 261.659V188.404L99.4956 189.456V262.475C99.0105 262.574 98.507 262.526 98.0494 262.337L96.8799 261.659Z" fill="black"/>
<path d="M113.606 254.061C113.609 254.107 113.609 254.153 113.606 254.199C113.612 254.231 113.612 254.264 113.606 254.296C113.584 254.363 113.556 254.428 113.523 254.49C113.511 254.524 113.494 254.556 113.474 254.587C113.411 254.701 113.334 254.808 113.246 254.905C113.158 255.019 113.061 255.126 112.955 255.223C112.838 255.334 112.72 255.438 112.588 255.542C112.516 255.609 112.437 255.669 112.353 255.721L112.159 255.853C112.014 255.957 111.862 256.054 111.696 256.15L102.617 261.389C101.676 261.944 100.638 262.313 99.5581 262.475V189.456L113.647 181.02V254.061H113.606Z" fill="#2D589B"/>
<path d="M99.5234 199.593V208.396C105.156 206.486 109.986 203.891 113.613 200.265V191.462C109.986 195.088 105.184 197.683 99.5234 199.593Z" fill="#2D589B"/>
<path opacity="0.4" d="M99.5234 199.593V208.396C105.156 206.486 109.986 203.891 113.613 200.265V191.462C109.986 195.088 105.184 197.683 99.5234 199.593Z" fill="white"/>
<path d="M99.5234 211.662V214.942C105.156 213.032 109.986 210.437 113.613 206.811V203.524C109.986 207.15 105.184 209.752 99.5234 211.662Z" fill="#2D589B"/>
<path opacity="0.4" d="M99.5234 211.662V214.942C105.156 213.032 109.986 210.437 113.613 206.811V203.524C109.986 207.15 105.184 209.752 99.5234 211.662Z" fill="white"/>
<path d="M102.589 188.369L101.897 187.144C100.987 187.708 99.9492 188.034 98.8799 188.092C98.9277 187.677 98.8404 187.257 98.6308 186.895C98.2829 186.369 97.8065 185.94 97.2468 185.65C96.6098 185.279 95.903 185.043 95.1708 184.958H95.0185C94.5843 184.919 94.148 185.003 93.7591 185.2L56.3911 163.616L55.1178 162.924L53.5054 161.928C53.3792 161.837 53.2306 161.783 53.0757 161.771C52.9208 161.758 52.7655 161.789 52.6266 161.859L51.208 162.696C51.349 162.623 51.5071 162.59 51.6654 162.6C51.8238 162.609 51.9766 162.662 52.1076 162.751L56.3911 165.236L92.5343 186.099C93.2263 186.487 93.9182 186.722 94.0982 186.612L94.4303 186.418C94.668 186.323 94.9297 186.306 95.1777 186.369C95.665 186.452 96.1337 186.62 96.5617 186.868C97.3575 187.324 97.7035 187.878 97.3298 188.086L97.0046 188.279C96.8108 188.39 97.0046 188.66 97.3852 188.888L98.0772 189.297C98.873 189.767 100.894 189.345 102.589 188.369Z" fill="#2D589B"/>
<path opacity="0.3" d="M102.589 188.369L101.897 187.144C100.987 187.708 99.9492 188.034 98.8799 188.092C98.9277 187.677 98.8404 187.257 98.6308 186.895C98.2829 186.369 97.8065 185.94 97.2468 185.65C96.6098 185.279 95.903 185.043 95.1708 184.958H95.0185C94.5843 184.919 94.148 185.003 93.7591 185.2L56.3911 163.616L55.1178 162.924L53.5054 161.928C53.3792 161.837 53.2306 161.783 53.0757 161.771C52.9208 161.758 52.7655 161.789 52.6266 161.859L51.208 162.696C51.349 162.623 51.5071 162.59 51.6654 162.6C51.8238 162.609 51.9766 162.662 52.1076 162.751L56.3911 165.236L92.5343 186.099C93.2263 186.487 93.9182 186.722 94.0982 186.612L94.4303 186.418C94.668 186.323 94.9297 186.306 95.1777 186.369C95.665 186.452 96.1337 186.62 96.5617 186.868C97.3575 187.324 97.7035 187.878 97.3298 188.086L97.0046 188.279C96.8108 188.39 97.0046 188.66 97.3852 188.888L98.0772 189.297C98.873 189.767 100.894 189.345 102.589 188.369Z" fill="black"/>
<path d="M101.876 187.144L110.955 181.899C111.087 181.83 111.211 181.747 111.329 181.671L111.62 181.463C110.575 181.92 109.17 181.463 108.243 180.944C107.701 180.657 107.244 180.235 106.914 179.719C106.676 179.32 106.595 178.846 106.686 178.39L106.561 178.314L106.305 178.169L70.1618 157.305L68.0858 156.108L67.4907 155.769L65.74 154.731C65.6193 154.668 65.4851 154.635 65.349 154.635C65.2128 154.635 65.0787 154.668 64.958 154.731L65.3524 154.51L66.3904 153.908C66.5039 153.849 66.6296 153.819 66.7572 153.819C66.8848 153.819 67.0105 153.849 67.124 153.908L67.7675 154.274L68.1758 154.51L68.8678 154.911C69.0151 154.986 69.1583 155.07 69.2968 155.16C69.4076 155.222 69.5183 155.278 69.6013 155.333L70.1411 155.638L98.8452 172.246L108.007 177.539C108.665 177.906 109.052 178.301 108.893 178.432L108.838 178.474L108.519 178.653C108.118 178.889 108.443 179.442 109.211 179.899C109.468 180.09 109.768 180.213 110.085 180.259C110.401 180.305 110.724 180.272 111.024 180.162L111.419 179.934C111.501 179.876 111.596 179.838 111.696 179.824C111.796 179.809 111.898 179.819 111.993 179.851L112.201 179.975L112.651 180.231L113.218 180.556C113.334 180.615 113.426 180.712 113.48 180.83C113.535 180.948 113.547 181.081 113.516 181.207C113.525 181.236 113.525 181.268 113.516 181.297C113.501 181.366 113.473 181.432 113.433 181.491C113.425 181.524 113.414 181.557 113.398 181.588C113.335 181.702 113.258 181.809 113.17 181.906C113.078 182.017 112.981 182.123 112.879 182.224L112.505 182.542C112.431 182.606 112.352 182.663 112.27 182.715L112.083 182.854C111.938 182.951 111.779 183.055 111.613 183.145L102.541 188.39L101.876 187.144Z" fill="#2D589B"/>
<path opacity="0.3" d="M101.876 187.144L110.955 181.899C111.087 181.83 111.211 181.747 111.329 181.671L111.62 181.463C110.575 181.92 109.17 181.463 108.243 180.944C107.701 180.657 107.244 180.235 106.914 179.719C106.676 179.32 106.595 178.846 106.686 178.39L106.561 178.314L106.305 178.169L70.1618 157.305L68.0858 156.108L67.4907 155.769L65.74 154.731C65.6193 154.668 65.4851 154.635 65.349 154.635C65.2128 154.635 65.0787 154.668 64.958 154.731L65.3524 154.51L66.3904 153.908C66.5039 153.849 66.6296 153.819 66.7572 153.819C66.8848 153.819 67.0105 153.849 67.124 153.908L67.7675 154.274L68.1758 154.51L68.8678 154.911C69.0151 154.986 69.1583 155.07 69.2968 155.16C69.4076 155.222 69.5183 155.278 69.6013 155.333L70.1411 155.638L98.8452 172.246L108.007 177.539C108.665 177.906 109.052 178.301 108.893 178.432L108.838 178.474L108.519 178.653C108.118 178.889 108.443 179.442 109.211 179.899C109.468 180.09 109.768 180.213 110.085 180.259C110.401 180.305 110.724 180.272 111.024 180.162L111.419 179.934C111.501 179.876 111.596 179.838 111.696 179.824C111.796 179.809 111.898 179.819 111.993 179.851L112.201 179.975L112.651 180.231L113.218 180.556C113.334 180.615 113.426 180.712 113.48 180.83C113.535 180.948 113.547 181.081 113.516 181.207C113.525 181.236 113.525 181.268 113.516 181.297C113.501 181.366 113.473 181.432 113.433 181.491C113.425 181.524 113.414 181.557 113.398 181.588C113.335 181.702 113.258 181.809 113.17 181.906C113.078 182.017 112.981 182.123 112.879 182.224L112.505 182.542C112.431 182.606 112.352 182.663 112.27 182.715L112.083 182.854C111.938 182.951 111.779 183.055 111.613 183.145L102.541 188.39L101.876 187.144Z" fill="black"/>
<path d="M86.0226 188.784V190.618C86.0226 190.618 85.3306 189.974 85.2752 189.511C85.2198 189.047 86.0226 188.784 86.0226 188.784Z" fill="black"/>
<path d="M84.6038 188.334C84.5232 188.587 84.4954 188.853 84.5223 189.117C84.5491 189.381 84.6299 189.636 84.7598 189.867C84.8896 190.098 85.0657 190.3 85.2769 190.461C85.4882 190.621 85.7302 190.735 85.9878 190.798C87.9946 191.428 89.2541 190.798 89.5585 191.359C89.863 191.919 80.0366 197.587 80.0366 197.587L81.8981 189.456L84.6038 188.334Z" fill="#2D589B"/>
<path opacity="0.3" d="M84.6038 188.334C84.5232 188.587 84.4954 188.853 84.5223 189.117C84.5491 189.381 84.6299 189.636 84.7598 189.867C84.8896 190.098 85.0657 190.3 85.2769 190.461C85.4882 190.621 85.7302 190.735 85.9878 190.798C87.9946 191.428 89.2541 190.798 89.5585 191.359C89.863 191.919 80.0366 197.587 80.0366 197.587L81.8981 189.456L84.6038 188.334Z" fill="black"/>
<path d="M80.8947 264.344V264.462L79.9121 263.894L41.4299 241.722L41.5199 166.537C41.5199 165.367 42.1635 164.786 42.9593 165.25L44.3571 166.08L83.7319 188.819L83.6904 189.158L80.8947 264.344Z" fill="#2D589B"/>
<path opacity="0.2" d="M80.8947 264.344V264.462L79.9121 263.894L41.4299 241.722L41.5199 166.537C41.5199 165.367 42.1635 164.786 42.9593 165.25L44.3571 166.08L83.7319 188.819L83.6904 189.158L80.8947 264.344Z" fill="black"/>
<path d="M75.1719 199.843L73.0959 197.511L83.6766 191.407C85.2751 192.611 86.5 193.255 87.9255 192.653L75.1719 199.843Z" fill="#455A64"/>
<path d="M83.1506 190.154L44.1287 167.623C43.7468 167.434 43.3265 167.335 42.9004 167.335C42.4743 167.335 42.0539 167.434 41.6721 167.623L31.2437 173.65L70.8191 196.292C71.3062 196.172 71.813 196.154 72.3074 196.24C72.8018 196.325 73.2729 196.513 73.6909 196.791C74.8535 197.732 74.7912 196.542 74.7912 196.542L83.6834 191.407C82.9568 190.431 83.1506 190.154 83.1506 190.154Z" fill="#F5F5F5"/>
<path d="M74.4108 199.358C74.0094 199.123 73.8364 198.853 74.0302 198.742L74.3554 198.555C74.7291 198.341 74.3554 197.794 73.5873 197.331C72.8192 196.867 71.8504 196.639 71.5113 196.881L71.1792 197.068C70.9854 197.178 70.2934 196.957 69.6152 196.562L69.8574 269.741L70.847 270.309C71.0393 270.354 71.2412 270.335 71.4214 270.254L71.7535 270.06C72.1203 269.852 73.0614 270.06 73.8295 270.503C74.5976 270.946 74.9644 271.513 74.5976 271.728L74.2655 271.921C74.0786 272.032 74.2655 272.295 74.653 272.53L74.4108 199.358Z" fill="#2D589B"/>
<path opacity="0.25" d="M74.4108 199.358C74.0094 199.123 73.8364 198.853 74.0302 198.742L74.3554 198.555C74.7291 198.341 74.3554 197.794 73.5873 197.331C72.8192 196.867 71.8504 196.639 71.5113 196.881L71.1792 197.068C70.9854 197.178 70.2934 196.957 69.6152 196.562L69.8574 269.741L70.847 270.309C71.0393 270.354 71.2412 270.335 71.4214 270.254L71.7535 270.06C72.1203 269.852 73.0614 270.06 73.8295 270.503C74.5976 270.946 74.9644 271.513 74.5976 271.728L74.2655 271.921C74.0786 272.032 74.2655 272.295 74.653 272.53L74.4108 199.358Z" fill="white"/>
<path d="M70.8192 270.191V270.309L69.8366 269.742L27.6799 245.411V174.502C27.6799 173.325 28.3235 172.751 29.1124 173.208L30.5448 174.038L70.7985 196.293L70.8192 270.191Z" fill="#2D589B"/>
<path opacity="0.4" d="M70.8192 270.191V270.309L69.8366 269.742L27.6799 245.411V174.502C27.6799 173.325 28.3235 172.751 29.1124 173.208L30.5448 174.038L70.7985 196.293L70.8192 270.191Z" fill="white"/>
<path d="M73.9539 272.115V198.86L76.5696 199.919V272.932C76.0845 273.031 75.5808 272.983 75.1233 272.793L73.9539 272.115Z" fill="#2D589B"/>
<path opacity="0.4" d="M73.9539 272.115V198.86L76.5696 199.919V272.932C76.0845 273.031 75.5808 272.983 75.1233 272.793L73.9539 272.115Z" fill="white"/>
<path d="M90.6519 264.517C90.6553 264.563 90.6553 264.609 90.6519 264.655C90.662 264.687 90.662 264.72 90.6519 264.752C90.6314 264.819 90.6036 264.884 90.5689 264.946C90.5689 264.987 90.5343 265.008 90.5204 265.05C90.4536 265.162 90.3772 265.268 90.2921 265.368C90.2008 265.477 90.1038 265.581 90.0014 265.679C89.8831 265.792 89.7583 265.899 89.6278 265.998C89.5579 266.065 89.4814 266.125 89.3994 266.177L89.2057 266.309C89.0603 266.413 88.9012 266.51 88.7351 266.607L79.663 271.845C78.7202 272.4 77.6794 272.769 76.5974 272.931V199.918L90.6519 191.476V264.517Z" fill="#2D589B"/>
<g opacity="0.7">
<path d="M90.6519 264.517C90.6553 264.563 90.6553 264.609 90.6519 264.655C90.662 264.687 90.662 264.72 90.6519 264.752C90.6314 264.819 90.6036 264.884 90.5689 264.946C90.5689 264.987 90.5343 265.008 90.5204 265.05C90.4536 265.162 90.3772 265.268 90.2921 265.368C90.2008 265.477 90.1038 265.581 90.0014 265.679C89.8831 265.792 89.7583 265.899 89.6278 265.998C89.5579 266.065 89.4814 266.125 89.3994 266.177L89.2057 266.309C89.0603 266.413 88.9012 266.51 88.7351 266.607L79.663 271.845C78.7202 272.4 77.6794 272.769 76.5974 272.931V199.918L90.6519 191.476V264.517Z" fill="white"/>
</g>
<path d="M76.5627 205.967V214.769C82.1956 212.859 87.0258 210.264 90.6519 206.638V197.836C87.0258 201.462 82.1956 204.057 76.5627 205.967Z" fill="#FAFAFA"/>
<path d="M76.5627 255.002V263.804C82.1956 261.894 87.0258 259.299 90.6519 255.673V246.871C87.0258 250.504 82.1956 253.092 76.5627 255.002Z" fill="#FAFAFA"/>
<path d="M79.6284 198.825L78.9364 197.6C78.0233 198.164 76.9837 198.49 75.9124 198.548C75.9671 198.133 75.8792 197.711 75.6632 197.351C75.3158 196.825 74.8393 196.396 74.2792 196.106C73.6422 195.734 72.9355 195.499 72.2032 195.414H72.051C71.6168 195.374 71.1803 195.458 70.7916 195.656L33.4236 174.079L32.1503 173.346L30.531 172.411C30.4039 172.323 30.2554 172.27 30.101 172.258C29.9465 172.245 29.7916 172.275 29.6522 172.342L28.2197 173.173C28.3597 173.1 28.5165 173.067 28.6737 173.077C28.8309 173.087 28.9825 173.139 29.1124 173.228L33.3959 175.705L69.539 196.569C70.231 196.957 70.923 197.192 71.103 197.081L71.4351 196.894C71.6712 196.792 71.9352 196.775 72.1825 196.846C72.6702 196.923 73.1395 197.089 73.5665 197.337C74.3623 197.801 74.7014 198.348 74.3346 198.555L74.0024 198.749C73.8156 198.86 74.0024 199.13 74.39 199.358L75.082 199.773C75.9193 200.223 77.9399 199.801 79.6284 198.825Z" fill="#2D589B"/>
<path opacity="0.6" d="M79.6284 198.825L78.9364 197.6C78.0233 198.164 76.9837 198.49 75.9124 198.548C75.9671 198.133 75.8792 197.711 75.6632 197.351C75.3158 196.825 74.8393 196.396 74.2792 196.106C73.6422 195.734 72.9355 195.499 72.2032 195.414H72.051C71.6168 195.374 71.1803 195.458 70.7916 195.656L33.4236 174.079L32.1503 173.346L30.531 172.411C30.4039 172.323 30.2554 172.27 30.101 172.258C29.9465 172.245 29.7916 172.275 29.6522 172.342L28.2197 173.173C28.3597 173.1 28.5165 173.067 28.6737 173.077C28.8309 173.087 28.9825 173.139 29.1124 173.228L33.3959 175.705L69.539 196.569C70.231 196.957 70.923 197.192 71.103 197.081L71.4351 196.894C71.6712 196.792 71.9352 196.775 72.1825 196.846C72.6702 196.923 73.1395 197.089 73.5665 197.337C74.3623 197.801 74.7014 198.348 74.3346 198.555L74.0024 198.749C73.8156 198.86 74.0024 199.13 74.39 199.358L75.082 199.773C75.9193 200.223 77.9399 199.801 79.6284 198.825Z" fill="white"/>
<path d="M78.9224 197.6L88.0015 192.376C88.126 192.307 88.2506 192.224 88.3682 192.147L88.6589 191.94C87.6209 192.397 86.2161 191.94 85.2888 191.421C84.7464 191.136 84.2883 190.714 83.9602 190.196C83.7226 189.797 83.6413 189.323 83.7318 188.867L83.6003 188.791L83.3512 188.653L47.2288 167.734L45.1528 166.537L44.5577 166.197L42.8069 165.187C42.6856 165.122 42.5501 165.088 42.4125 165.088C42.2749 165.088 42.1394 165.122 42.0181 165.187L42.4125 164.959L43.4574 164.357C43.5709 164.298 43.6966 164.268 43.8242 164.268C43.9518 164.268 44.0775 164.298 44.1909 164.357C44.3985 164.474 44.6131 164.606 44.8414 164.724L45.2428 164.959L45.9348 165.36C46.0939 165.443 46.2323 165.526 46.3638 165.609L46.6683 165.782L47.2011 166.087L75.9053 182.695L85.1158 187.968C85.8078 188.341 86.1538 188.729 86.0016 188.86L85.9462 188.902L85.6279 189.089C85.2265 189.317 85.5518 189.871 86.3199 190.328C86.5772 190.52 86.8785 190.645 87.1964 190.691C87.5143 190.736 87.8387 190.702 88.1399 190.59L88.5343 190.362C88.6158 190.305 88.7096 190.268 88.8081 190.253C88.9067 190.239 89.0073 190.248 89.1017 190.279C89.1759 190.316 89.2476 190.357 89.3163 190.404L89.7661 190.66L90.3266 190.985C90.4446 191.042 90.5393 191.137 90.5948 191.256C90.6503 191.374 90.6631 191.508 90.6311 191.635C90.6374 191.665 90.6374 191.696 90.6311 191.725C90.6106 191.795 90.5827 191.862 90.548 191.926C90.5415 191.961 90.5273 191.994 90.5065 192.023C90.4431 192.136 90.3689 192.243 90.2851 192.341C90.1933 192.454 90.0938 192.56 89.9875 192.66L89.6207 192.978C89.5465 193.041 89.4679 193.099 89.3855 193.151L89.1917 193.289C89.0434 193.396 88.8885 193.493 88.7281 193.58L79.649 198.825L78.9224 197.6Z" fill="#2D589B"/>
<path opacity="0.6" d="M78.9224 197.6L88.0015 192.376C88.126 192.307 88.2506 192.224 88.3682 192.147L88.6589 191.94C87.6209 192.397 86.2161 191.94 85.2888 191.421C84.7464 191.136 84.2883 190.714 83.9602 190.196C83.7226 189.797 83.6413 189.323 83.7318 188.867L83.6003 188.791L83.3512 188.653L47.2288 167.734L45.1528 166.537L44.5577 166.197L42.8069 165.187C42.6856 165.122 42.5501 165.088 42.4125 165.088C42.2749 165.088 42.1394 165.122 42.0181 165.187L42.4125 164.959L43.4574 164.357C43.5709 164.298 43.6966 164.268 43.8242 164.268C43.9518 164.268 44.0775 164.298 44.1909 164.357C44.3985 164.474 44.6131 164.606 44.8414 164.724L45.2428 164.959L45.9348 165.36C46.0939 165.443 46.2323 165.526 46.3638 165.609L46.6683 165.782L47.2011 166.087L75.9053 182.695L85.1158 187.968C85.8078 188.341 86.1538 188.729 86.0016 188.86L85.9462 188.902L85.6279 189.089C85.2265 189.317 85.5518 189.871 86.3199 190.328C86.5772 190.52 86.8785 190.645 87.1964 190.691C87.5143 190.736 87.8387 190.702 88.1399 190.59L88.5343 190.362C88.6158 190.305 88.7096 190.268 88.8081 190.253C88.9067 190.239 89.0073 190.248 89.1017 190.279C89.1759 190.316 89.2476 190.357 89.3163 190.404L89.7661 190.66L90.3266 190.985C90.4446 191.042 90.5393 191.137 90.5948 191.256C90.6503 191.374 90.6631 191.508 90.6311 191.635C90.6374 191.665 90.6374 191.696 90.6311 191.725C90.6106 191.795 90.5827 191.862 90.548 191.926C90.5415 191.961 90.5273 191.994 90.5065 192.023C90.4431 192.136 90.3689 192.243 90.2851 192.341C90.1933 192.454 90.0938 192.56 89.9875 192.66L89.6207 192.978C89.5465 193.041 89.4679 193.099 89.3855 193.151L89.1917 193.289C89.0434 193.396 88.8885 193.493 88.7281 193.58L79.649 198.825L78.9224 197.6Z" fill="white"/>
<path d="M51.3741 138.289L52.0661 136.116C52.4398 134.359 45.2776 138.497 44.897 140.268L47.2083 146.496C47.2887 146.682 47.4239 146.839 47.5958 146.946C48.1009 147.264 49.9693 148.33 50.1354 148.413C50.2644 148.493 50.4098 148.542 50.5606 148.557C50.7115 148.572 50.8638 148.553 51.0059 148.5C51.1481 148.447 51.2763 148.363 51.3809 148.253C51.4854 148.143 51.5636 148.011 51.6094 147.866L54.5988 137.604C54.7857 136.711 53.1387 137.279 51.3741 138.289Z" fill="#2D589B"/>
<path opacity="0.2" d="M51.3741 138.289L52.0661 136.116C52.4398 134.359 45.2776 138.497 44.897 140.268L47.2083 146.496C47.2887 146.682 47.4239 146.839 47.5958 146.946C48.1009 147.264 49.9693 148.33 50.1354 148.413C50.2644 148.493 50.4098 148.542 50.5606 148.557C50.7115 148.572 50.8638 148.553 51.0059 148.5C51.1481 148.447 51.2763 148.363 51.3809 148.253C51.4854 148.143 51.5636 148.011 51.6094 147.866L54.5988 137.604C54.7857 136.711 53.1387 137.279 51.3741 138.289Z" fill="white"/>
<path d="M61.1105 96.4992L33.8596 112.221C33.592 112.396 33.3692 112.631 33.2093 112.907C33.0495 113.184 32.9569 113.494 32.9392 113.813V146.102C32.9566 146.422 33.0497 146.733 33.2109 147.009C33.3722 147.286 33.5969 147.521 33.8665 147.693L35.555 148.641C35.842 148.784 36.1582 148.858 36.4788 148.858C36.7993 148.858 37.1155 148.784 37.4026 148.641L64.6536 132.919C64.9212 132.745 65.1439 132.51 65.3038 132.233C65.4637 131.957 65.5562 131.646 65.5739 131.328V99.0319C65.5572 98.7129 65.4642 98.4026 65.3029 98.1269C65.1416 97.8512 64.9165 97.6181 64.6467 97.4472L62.972 96.4923C62.6826 96.3485 62.3636 96.2742 62.0405 96.2754C61.7173 96.2766 61.3989 96.3532 61.1105 96.4992Z" fill="#2D589B"/>
<path opacity="0.2" d="M61.1105 96.4992L33.8596 112.221C33.592 112.396 33.3692 112.631 33.2093 112.907C33.0495 113.184 32.9569 113.494 32.9392 113.813V146.102C32.9566 146.422 33.0497 146.733 33.2109 147.009C33.3722 147.286 33.5969 147.521 33.8665 147.693L35.555 148.641C35.842 148.784 36.1582 148.858 36.4788 148.858C36.7993 148.858 37.1155 148.784 37.4026 148.641L64.6536 132.919C64.9212 132.745 65.1439 132.51 65.3038 132.233C65.4637 131.957 65.5562 131.646 65.5739 131.328V99.0319C65.5572 98.7129 65.4642 98.4026 65.3029 98.1269C65.1416 97.8512 64.9165 97.6181 64.6467 97.4472L62.972 96.4923C62.6826 96.3485 62.3636 96.2742 62.0405 96.2754C61.7173 96.2766 61.3989 96.3532 61.1105 96.4992Z" fill="white"/>
<path d="M64.6536 98.4989L37.4026 114.221C37.133 114.394 36.9083 114.628 36.7471 114.905C36.5858 115.182 36.4927 115.493 36.4753 115.813V148.088C36.4753 148.676 36.8905 148.918 37.4026 148.62L47.8311 142.607L49.741 147.922C49.8211 148.109 49.9569 148.268 50.13 148.376C50.3031 148.484 50.5052 148.536 50.709 148.525C50.9128 148.515 51.1084 148.442 51.2694 148.317C51.4304 148.191 51.5491 148.02 51.6094 147.825L54.1559 138.953L64.6536 132.898C64.9212 132.724 65.1439 132.489 65.3038 132.212C65.4637 131.936 65.5562 131.626 65.5739 131.307V99.0317C65.5739 98.4435 65.1587 98.2083 64.6536 98.4989Z" fill="#2D589B"/>
<path opacity="0.4" d="M64.6536 98.4989L37.4026 114.221C37.133 114.394 36.9083 114.628 36.7471 114.905C36.5858 115.182 36.4927 115.493 36.4753 115.813V148.088C36.4753 148.676 36.8905 148.918 37.4026 148.62L47.8311 142.607L49.741 147.922C49.8211 148.109 49.9569 148.268 50.13 148.376C50.3031 148.484 50.5052 148.536 50.709 148.525C50.9128 148.515 51.1084 148.442 51.2694 148.317C51.4304 148.191 51.5491 148.02 51.6094 147.825L54.1559 138.953L64.6536 132.898C64.9212 132.724 65.1439 132.489 65.3038 132.212C65.4637 131.936 65.5562 131.626 65.5739 131.307V99.0317C65.5739 98.4435 65.1587 98.2083 64.6536 98.4989Z" fill="white"/>
<path opacity="0.7" d="M65.5601 98.8659C65.484 98.4022 65.1103 98.2362 64.6467 98.4991L37.4027 114.221C37.1286 114.391 36.9042 114.629 36.7522 114.913L33.2161 112.872C33.369 112.604 33.5882 112.38 33.8527 112.221L61.1037 96.4992C61.3887 96.354 61.7041 96.2783 62.024 96.2783C62.3439 96.2783 62.6593 96.354 62.9444 96.4992L64.6329 97.4473C64.8809 97.6025 65.0923 97.8097 65.2524 98.0547C65.4125 98.2996 65.5175 98.5764 65.5601 98.8659Z" fill="white"/>
<path d="M48.6406 116.069C48.8482 115.951 49.0074 115.938 49.1112 116.021C49.2446 116.163 49.3399 116.337 49.388 116.526L54.1766 130.241C54.1852 130.296 54.1852 130.352 54.1766 130.407C54.172 130.613 54.1174 130.815 54.0175 130.996C53.9368 131.17 53.8069 131.316 53.6438 131.418L52.2598 132.234C51.9968 132.38 51.8169 132.414 51.7131 132.324C51.6119 132.247 51.537 132.141 51.4986 132.02L50.6544 129.612L44.4748 133.182L43.6375 136.559C43.5852 136.751 43.5133 136.936 43.423 137.113C43.2953 137.341 43.1058 137.528 42.8763 137.653L41.4923 138.462C41.4384 138.503 41.3728 138.524 41.3054 138.524C41.2381 138.524 41.1725 138.503 41.1186 138.462C41.0632 138.412 41.0205 138.35 40.994 138.28C40.9676 138.21 40.9581 138.135 40.9664 138.061C40.9588 137.996 40.9588 137.931 40.9664 137.867L45.755 118.623C45.81 118.337 45.9031 118.06 46.0318 117.799C46.1329 117.592 46.2946 117.421 46.4954 117.308L48.6406 116.069ZM49.7202 126.899L47.568 120.705L45.4159 129.404L49.7202 126.899Z" fill="white"/>
<path d="M57.692 118.47V121.979C57.6905 122.132 57.65 122.282 57.5744 122.415C57.5148 122.541 57.4214 122.649 57.3045 122.726L56.2042 123.363C56.1645 123.393 56.1158 123.41 56.0658 123.41C56.0158 123.41 55.9672 123.393 55.9274 123.363C55.8858 123.326 55.8534 123.28 55.833 123.228C55.8125 123.176 55.8046 123.121 55.8098 123.065V119.557L53.2217 121.052C53.182 121.082 53.1333 121.098 53.0833 121.098C53.0333 121.098 52.9847 121.082 52.9449 121.052C52.9036 121.015 52.8719 120.968 52.8526 120.917C52.8333 120.865 52.827 120.809 52.8342 120.754V119.481C52.8364 119.329 52.8743 119.179 52.9449 119.045C53.007 118.918 53.1028 118.81 53.2217 118.733L55.8098 117.239V113.779C55.8139 113.628 55.8543 113.481 55.9274 113.35C55.9855 113.22 56.0822 113.111 56.2042 113.038L57.3045 112.402C57.3437 112.373 57.3909 112.357 57.4395 112.357C57.488 112.357 57.5353 112.373 57.5744 112.402C57.6176 112.439 57.6509 112.486 57.6714 112.539C57.6919 112.592 57.699 112.65 57.692 112.706V116.166L60.2663 114.678C60.3061 114.648 60.3547 114.632 60.4047 114.632C60.4547 114.632 60.5033 114.648 60.5431 114.678C60.5847 114.715 60.6171 114.761 60.6376 114.813C60.658 114.865 60.6659 114.92 60.6607 114.976V116.256C60.6559 116.408 60.6156 116.558 60.5431 116.692C60.485 116.822 60.3883 116.93 60.2663 117.003L57.692 118.47Z" fill="white"/>
<path d="M270.267 267.112C270.411 266.906 270.54 266.691 270.655 266.468C270.689 266.411 270.719 266.35 270.745 266.288C270.836 266.104 270.916 265.914 270.987 265.721L271.049 265.541C271.125 265.315 271.185 265.084 271.229 264.849C271.271 264.607 271.292 264.361 271.292 264.116C271.292 264.039 271.292 263.97 271.292 263.894C271.288 263.723 271.274 263.552 271.25 263.382L271.209 263.119C271.174 262.953 271.132 262.794 271.084 262.628C271.036 262.462 271.042 262.469 271.015 262.386C270.93 262.15 270.833 261.919 270.724 261.694C270.724 261.624 270.641 261.555 270.6 261.479C270.558 261.403 270.42 261.161 270.309 261.002C270.198 260.842 270.177 260.815 270.108 260.718L269.956 260.51L269.714 260.227L269.575 260.081C267.985 258.247 266.018 256.776 263.81 255.768C261.601 254.76 259.201 254.239 256.773 254.239C254.346 254.239 251.946 254.76 249.737 255.768C247.529 256.776 245.562 258.247 243.971 260.081L243.861 260.206L243.605 260.503C243.546 260.573 243.492 260.647 243.446 260.725L243.252 260.988C243.141 261.154 243.037 261.327 242.94 261.5L242.837 261.68C242.721 261.902 242.624 262.134 242.546 262.372C242.546 262.441 242.497 262.517 242.477 262.586C242.428 262.759 242.38 262.932 242.345 263.112C242.311 263.292 242.345 263.271 242.311 263.347C242.285 263.529 242.268 263.711 242.262 263.894C242.262 263.956 242.262 264.019 242.262 264.088C242.27 264.594 242.354 265.095 242.511 265.576C242.527 265.628 242.545 265.678 242.567 265.728C242.639 265.932 242.725 266.13 242.823 266.323C242.845 266.377 242.871 266.431 242.899 266.482C243.02 266.721 243.156 266.952 243.307 267.174C243.486 267.417 243.68 267.648 243.888 267.866L243.937 267.915C244.131 268.122 244.338 268.33 244.567 268.531L244.726 268.669C244.933 268.844 245.164 269.017 245.418 269.188L245.584 269.313C245.881 269.513 246.186 269.721 246.525 269.908C252.185 273.181 261.382 273.181 267.043 269.908C267.362 269.726 267.672 269.528 267.97 269.313C268.037 269.27 268.102 269.224 268.164 269.174C268.384 269.019 268.597 268.853 268.8 268.676L268.98 268.524C269.195 268.33 269.396 268.129 269.582 267.929L269.652 267.859C269.858 267.642 270.05 267.41 270.226 267.167L270.267 267.112Z" fill="#455A64"/>
<path d="M256.78 241.937C256.395 241.931 256.014 242.021 255.673 242.2C255.559 242.253 255.459 242.332 255.381 242.431C255.303 242.529 255.249 242.645 255.223 242.768C254.94 249.418 254.421 252.636 252.296 256.165C252.332 256.56 252.473 256.938 252.704 257.26C252.935 257.583 253.248 257.838 253.611 257.999C254.588 258.518 255.681 258.78 256.787 258.76C257.894 258.781 258.987 258.519 259.964 257.999C260.327 257.838 260.641 257.583 260.873 257.261C261.106 256.939 261.248 256.56 261.285 256.165C259.161 252.636 258.642 249.418 258.358 242.768C258.332 242.645 258.278 242.529 258.2 242.431C258.122 242.332 258.022 242.253 257.908 242.2C257.561 242.018 257.173 241.927 256.78 241.937Z" fill="#37474F"/>
<g opacity="0.15">
<path d="M258.379 243.446C257.313 243.487 256.247 243.487 255.182 243.446C255.085 245.522 254.967 247.563 254.773 249.48C256.102 249.452 257.435 249.374 258.773 249.245C258.586 247.397 258.476 245.446 258.379 243.446Z" fill="black"/>
</g>
<g opacity="0.15">
<path d="M248.67 267.964C243.951 265.009 244.283 259.749 247.411 257.058C246.138 257.902 244.986 258.915 243.985 260.068L243.874 260.192L243.618 260.49C243.559 260.559 243.506 260.633 243.459 260.711L243.265 260.974C243.155 261.14 243.051 261.313 242.954 261.486L242.85 261.666C242.735 261.889 242.638 262.12 242.56 262.358C242.56 262.428 242.511 262.504 242.49 262.573C242.442 262.746 242.394 262.919 242.359 263.099C242.324 263.279 242.359 263.258 242.324 263.334C242.298 263.515 242.282 263.698 242.276 263.881C242.276 263.943 242.276 264.005 242.276 264.074C242.284 264.58 242.368 265.082 242.525 265.562C242.54 265.614 242.559 265.665 242.58 265.715C242.653 265.918 242.738 266.117 242.836 266.31C242.859 266.364 242.884 266.417 242.913 266.469C243.034 266.708 243.17 266.939 243.321 267.161C243.5 267.404 243.694 267.635 243.902 267.853L243.951 267.901C244.144 268.109 244.352 268.316 244.58 268.517L244.739 268.656C244.947 268.831 245.178 269.004 245.431 269.175L245.597 269.299C245.895 269.5 246.2 269.707 246.539 269.894C252.199 273.167 261.396 273.167 267.056 269.894C267.376 269.713 267.686 269.514 267.984 269.299C268.051 269.257 268.116 269.211 268.177 269.161C268.398 269.006 268.611 268.839 268.814 268.662L268.994 268.51C269.209 268.316 269.409 268.116 269.596 267.915L269.665 267.846C263.756 272.088 253.389 270.918 248.67 267.964Z" fill="black"/>
</g>
<path d="M224.208 225.226C232.861 233.773 244.545 238.55 256.708 238.513C268.871 238.475 280.525 233.627 289.126 225.026C297.727 216.426 302.575 204.772 302.612 192.608C302.65 180.445 297.873 168.762 289.325 160.108L292.294 157.14C312.998 177.844 314.964 209.448 294.259 230.159C273.554 250.871 241.965 248.843 221.26 228.167L224.208 225.226Z" fill="#37474F"/>
<path d="M295.442 160.544L292.439 163.547C291.455 162.34 290.409 161.185 289.304 160.087L292.273 157.119C293.408 158.247 294.439 159.395 295.442 160.544Z" fill="#263238"/>
<path d="M224.208 225.226C225.315 226.324 226.468 227.359 227.668 228.333L224.685 231.315C223.523 230.319 222.388 229.274 221.288 228.167L224.208 225.226Z" fill="#263238"/>
<path d="M306.888 197.179C305.559 208.064 301.636 220.707 291.09 229.973C282.094 237.868 268.351 246.248 247.189 243.121C255.481 245.301 264.203 245.249 272.468 242.967C280.732 240.686 288.246 236.257 294.245 230.132C314.313 210.064 313.081 179.692 294.079 158.987C294.847 159.949 309.282 177.547 306.888 197.179Z" fill="#455A64"/>
<path d="M219.599 232.402C219.082 232.401 218.577 232.247 218.148 231.96C217.719 231.672 217.384 231.264 217.186 230.786C216.989 230.309 216.937 229.784 217.037 229.277C217.138 228.77 217.386 228.304 217.751 227.938L292.024 153.694C292.514 153.204 293.178 152.93 293.87 152.931C294.563 152.931 295.227 153.207 295.716 153.697C296.205 154.187 296.479 154.851 296.479 155.544C296.478 156.236 296.202 156.9 295.712 157.389L221.44 231.634C220.952 232.123 220.29 232.399 219.599 232.402Z" fill="#37474F"/>
<path d="M292.024 153.694L217.752 227.938C217.396 228.293 217.151 228.744 217.046 229.235C216.94 229.726 216.979 230.237 217.156 230.706C217.411 230.791 217.677 230.835 217.945 230.838C218.288 230.839 218.628 230.772 218.945 230.641C219.262 230.51 219.55 230.319 219.793 230.077L294.1 155.825C294.455 155.47 294.7 155.02 294.806 154.529C294.911 154.038 294.873 153.527 294.695 153.057C294.235 152.904 293.741 152.883 293.269 152.995C292.797 153.108 292.366 153.35 292.024 153.694Z" fill="#455A64"/>
<path d="M216.79 177.581C213.415 186.509 213.133 196.31 215.986 205.418C218.839 214.526 224.664 222.413 232.53 227.82C240.395 233.226 249.846 235.839 259.371 235.241C268.896 234.643 277.946 230.868 285.073 224.519C292.2 218.171 296.992 209.616 298.683 200.223C300.374 190.83 298.867 181.141 294.402 172.706C289.937 164.27 282.773 157.576 274.055 153.692C265.336 149.809 255.567 148.962 246.31 151.285C239.634 152.962 233.462 156.23 228.321 160.808C223.181 165.387 219.224 171.142 216.79 177.581Z" fill="#2D589B"/>
<path opacity="0.5" d="M257.272 235.342C266.818 235.216 276.045 231.892 283.48 225.903C290.914 219.914 296.125 211.604 298.28 202.304C300.436 193.004 299.41 183.249 295.368 174.601C291.325 165.952 284.5 158.908 275.982 154.596C267.465 150.284 257.748 148.952 248.384 150.814C239.021 152.676 230.552 157.623 224.332 164.866C218.112 172.108 214.5 181.227 214.073 190.764C213.647 200.301 216.431 209.706 221.98 217.475C225.983 223.08 231.285 227.633 237.43 230.745C243.576 233.856 250.384 235.433 257.272 235.342Z" fill="white"/>
<path d="M277.561 162.371C276.101 161.077 273.79 159.894 274.378 161.935C274.966 163.977 275.762 164.842 274.786 165.907C273.81 166.973 272.108 167.457 271.755 168.523C271.402 169.589 271.167 170.98 271.949 171.229C272.731 171.478 275.762 171.18 276.544 172.038C277.326 172.896 280.121 175.699 281.388 175.132C282.654 174.564 283.055 175.028 284.723 174.613C286.391 174.197 287.643 172.744 286.799 171.962C285.955 171.18 285.512 171.436 284.183 170.025C282.855 168.613 283.055 167.077 281.415 166.053C279.775 165.028 278.634 163.312 277.561 162.371Z" fill="#455A64"/>
<path d="M271.866 157.845C269.437 157.223 264.794 155.382 263.61 153.479C263.022 152.531 262.372 151.354 261.534 150.247C251.306 149.085 241.002 151.65 232.512 157.472C232.166 158.609 231.964 159.786 231.91 160.973C231.813 163.582 232.934 164.945 234.235 166.696C235.536 168.447 234.235 168.883 234.145 170.523C234.055 172.163 233.903 173.007 234.332 174.322C234.761 175.637 232.706 175.471 231.418 176.17C230.131 176.868 229.515 177.346 228.346 180.079C227.176 182.813 227.744 186.432 227.654 187.802C227.564 189.172 225.633 189.138 224.36 191.061C223.087 192.985 218.928 197.365 218.243 201.344C217.558 205.323 218.783 205.912 220.201 204.112C221.62 202.313 222.54 200.21 224.678 199.836C226.817 199.462 228.491 201.621 231.294 199.912C234.096 198.203 234.422 198.722 236.214 198.916C238.006 199.109 238.152 197.995 240.788 197.123C243.425 196.251 245.272 194.826 244.47 192.736C243.667 190.646 242.622 189.83 242.954 186.923C243.25 183.864 242.904 180.776 241.937 177.858C241.023 175.187 237.003 173.706 236.152 172.322C235.301 170.938 236.595 168.045 237.453 167.257C238.311 166.468 237.646 165.464 236.622 164.904C235.598 164.343 235.626 163.388 236.415 162.06C237.204 160.731 240.235 160.918 241.743 162.108C243.252 163.298 243.411 164.634 242.027 166.703C241.441 167.519 241.125 168.498 241.125 169.502C241.125 170.507 241.441 171.486 242.027 172.301C243.03 173.817 243.452 171.72 243.411 169.948C243.369 168.177 244.041 167.284 246.601 165.886C249.161 164.489 250.753 166.205 253.722 165.506C256.69 164.807 255.666 166.433 256.78 167.796C257.894 169.16 258.344 168.295 259.894 167.561C261.444 166.828 262.15 169.333 264.365 169.637C266.579 169.942 265.14 165.859 266.503 164.738C267.866 163.617 269.105 164.841 270.157 162.26C271.208 159.679 272.267 160.503 273.437 160.254C274.606 160.004 274.302 158.468 271.866 157.845ZM265.638 160.8C264.337 161.368 264.143 160.849 262.489 161.25C261.809 161.428 261.101 161.47 260.405 161.373C259.709 161.275 259.039 161.041 258.434 160.683C257.652 160.122 257.638 157.811 258.289 156.98C258.939 156.15 260.268 156.98 261.68 157.942C263.154 158.922 264.872 159.471 266.641 159.527C268.212 159.645 266.946 160.24 265.652 160.8H265.638Z" fill="#455A64"/>
<path d="M290.266 219.032L290.19 219.129C289.808 218.981 289.399 218.914 288.99 218.93C288.58 218.947 288.179 219.048 287.81 219.226C285.492 220.319 286.059 219.433 283.291 219.08C280.523 218.727 280.302 220.264 279.298 221.537C278.295 222.81 275.105 222.388 273.762 221.931C272.42 221.475 269.492 223.814 268.593 225.391C267.693 226.969 265.61 226.083 263.534 226.409C261.458 226.734 259.05 228.242 257.528 228.63C256.781 228.829 255.992 228.808 255.256 228.572C254.52 228.335 253.867 227.891 253.376 227.294C252.407 226.049 253.085 223.142 253.978 220.949C254.869 218.678 256.379 216.702 258.337 215.247C260.337 213.78 260.012 213.863 262.15 210.693C262.913 209.671 263.333 208.434 263.35 207.159C263.368 205.884 262.982 204.636 262.247 203.593C261.417 202.327 259.043 201.324 258.6 199.87C258.158 198.417 258.483 197.227 260.275 194.016C262.067 190.805 263.922 191.393 266.247 190.909C268.944 190.429 271.723 190.784 274.212 191.926C275.081 192.366 275.852 192.976 276.479 193.72C277.107 194.465 277.579 195.328 277.866 196.258C278.461 197.822 277.866 199.531 278.558 200.341C279.25 201.151 280.26 201.372 280.952 202.258C281.644 203.144 281.775 204.002 282.668 204.569C283.561 205.136 283.872 203.815 284.211 203.227C284.55 202.638 283.741 202.126 282.827 201.275C281.914 200.424 281.914 199.96 282.135 199.047C282.357 198.133 281.346 198.189 281.132 197.531C280.917 196.874 279.969 198.078 279.533 198.479C279.097 198.881 279.457 197.787 279.457 197.787C279.457 197.787 278.537 198.037 278.62 197.614C278.703 197.192 279.686 196.874 280.253 196.154C280.821 195.435 279.699 194.694 279.561 193.615C279.468 193.073 279.236 192.566 278.886 192.142C278.536 191.718 278.082 191.393 277.568 191.2C276.489 190.715 276.516 190.369 275.492 190.764C274.468 191.158 272.198 190.002 271.714 189.38C271.229 188.757 272.703 187.996 274.129 187.387C275.554 186.778 276.26 188.079 277.838 187.622C279.416 187.165 278.696 186.238 278.267 185.546C277.838 184.854 278.17 184.127 279.983 183.359C281.796 182.591 282.274 183.698 282.059 184.612C281.979 185.096 282.029 185.593 282.204 186.051C282.379 186.509 282.673 186.913 283.056 187.221C283.824 187.913 284.142 187.221 285.132 186.079C286.121 184.937 287.208 184.806 288.647 185.318C290.086 185.83 292.432 186.702 293.657 186.702C294.882 186.702 295.678 188.162 295.685 189.387C295.692 190.611 296.826 192.113 298.044 193.67C298.203 193.865 298.406 194.02 298.635 194.124C298.864 194.227 299.115 194.275 299.366 194.265C299.038 203.277 295.851 211.951 290.266 219.032Z" fill="#455A64"/>
<path d="M270.184 229.115C269.541 228.284 269.375 228.596 268.371 228.789C267.368 228.983 266.088 229.059 265.603 229.8C265.119 230.54 264.496 231.364 265.451 231.384C266.406 231.405 266.731 230.692 267.797 231.031C268.863 231.37 271.153 230.36 270.184 229.115Z" fill="#455A64"/>
<path opacity="0.1" d="M225.419 168.689C208.327 191.228 223.786 202.597 239.861 193.387C255.936 184.176 268.406 162.489 262.42 156.614C256.434 150.739 238.124 151.936 225.419 168.689Z" fill="white"/>
<g opacity="0.1">
<path d="M272.503 211.15C248.732 224.63 217.572 211.918 214.084 190.729C214.049 191.553 214.029 192.376 214.042 193.213C214.133 200.246 215.959 207.147 219.36 213.303C222.761 219.459 227.631 224.68 233.536 228.499C239.442 232.319 246.2 234.62 253.209 235.198C260.218 235.776 267.262 234.612 273.713 231.811C280.164 229.009 285.823 224.657 290.186 219.141C294.549 213.625 297.481 207.116 298.721 200.193C299.962 193.27 299.472 186.148 297.295 179.46C295.119 172.772 291.323 166.726 286.246 161.859C291.823 170.405 296.259 197.684 272.503 211.15Z" fill="black"/>
</g>
<path d="M131.39 229.903C140.386 214.257 189.013 212.901 200.112 227.433C200.112 227.433 199.144 212.126 198.791 187.297C198.438 162.468 197.365 135.134 197.365 135.134H141.445C141.445 135.134 138.234 165.34 137.403 180.951C136.573 196.563 131.39 229.903 131.39 229.903Z" fill="#263238"/>
<path d="M178.536 259.563L177.152 246.719L191.864 247.681C191.864 247.681 191.635 254.656 191.435 258.608C191.31 260.94 194.459 265.272 194.459 265.272C194.459 265.272 187.539 268.981 183.844 267.68C180.148 266.379 178.183 261.777 178.238 260.76C178.294 259.743 178.536 259.563 178.536 259.563Z" fill="#C8856A"/>
<path d="M213.945 279.638C214.174 279.638 214.568 282.025 213.323 283.063C211.883 284.26 207.641 286.26 201.988 285.672C196.334 285.084 193.255 283.506 190.964 281.776C188.674 280.046 185.47 277.624 182.909 277.126C180.529 276.676 177.941 275.742 177.173 275.05C176.404 274.358 176.481 271.32 176.481 271.32L213.945 279.638Z" fill="#263238"/>
<path d="M178.536 259.542C178.335 259.552 178.142 259.629 177.989 259.76C177.836 259.892 177.732 260.071 177.692 260.269C177.533 261.113 177.387 263.563 177.034 264.947C176.55 266.87 176.266 270.808 176.598 272.365C176.931 273.922 180.82 274.939 183.304 275.776C186.208 276.905 188.931 278.453 191.387 280.371C194.071 282.371 199.69 284.406 203.365 284.316C207.711 284.212 212.589 282.814 213.683 280.904C215.067 278.544 216.001 275.811 209.531 273.126C208.306 272.614 203.995 270.31 202.5 269.479C198.5 267.216 195.684 265.12 193.795 261.03C193.637 260.515 193.301 260.073 192.847 259.784C192.446 259.635 192.011 259.606 191.594 259.701C190.521 259.86 186.238 260.49 185.269 260.94C184.411 261.341 183.193 261.812 183.193 262.85C183.222 263.212 183.311 263.568 183.456 263.902C183.539 264.109 183.602 264.393 183.408 264.517C183.214 264.642 182.972 264.517 182.799 264.372C182.157 263.78 181.565 263.137 181.027 262.448C180.719 262.092 180.371 261.771 179.989 261.493C179.605 261.299 179.233 261.082 178.875 260.843C178.453 260.483 178.536 260.026 178.536 259.542Z" fill="#455A64"/>
<path d="M191.366 280.371C190.224 279.52 189.013 278.703 187.802 277.97C187.802 277.97 195.462 282.157 198.5 280.143C200.452 278.849 199.49 277.326 199.434 276.842C199.379 276.358 206.299 272.773 208.209 272.524C208.749 272.794 209.205 273.008 209.482 273.126C215.987 275.811 215.018 278.544 213.634 280.904C212.541 282.814 209.018 284.364 203.393 284.44C199.739 284.502 194.051 282.371 191.366 280.371Z" fill="#37474F"/>
<path d="M198.881 275.416C202.915 276.849 201.213 277.582 200.092 277.755C198.971 277.928 192.162 274.344 187.989 271.368C183.643 268.261 180.875 264.829 179.263 263.687C178.661 263.265 178.01 262.739 177.436 262.248C177.526 261.417 177.595 260.67 177.671 260.269C177.711 260.071 177.816 259.892 177.968 259.76C178.121 259.629 178.314 259.552 178.515 259.542C178.515 260.026 178.453 260.483 178.854 260.843C179.213 261.082 179.585 261.299 179.969 261.493C180.35 261.771 180.698 262.092 181.007 262.448C181.544 263.137 182.136 263.78 182.778 264.372C186.349 268.496 194.84 273.984 198.881 275.416Z" fill="#37474F"/>
<path d="M199.801 277.202C199.709 277.207 199.619 277.181 199.545 277.126C199.505 277.097 199.471 277.061 199.446 277.018C199.421 276.976 199.405 276.929 199.399 276.88C199.393 276.831 199.398 276.781 199.412 276.734C199.426 276.687 199.451 276.644 199.483 276.607C200.597 275.285 205.911 272.116 208.873 272.372C208.923 272.373 208.972 272.385 209.018 272.407C209.063 272.428 209.103 272.458 209.136 272.496C209.17 272.534 209.195 272.578 209.21 272.625C209.225 272.673 209.231 272.723 209.226 272.773C209.221 272.824 209.206 272.873 209.181 272.918C209.157 272.962 209.123 273.002 209.083 273.033C209.043 273.065 208.997 273.088 208.948 273.102C208.899 273.115 208.848 273.119 208.797 273.112C206.029 272.877 200.984 276.018 200.106 277.063C200.068 277.107 200.021 277.142 199.969 277.166C199.916 277.19 199.859 277.202 199.801 277.202Z" fill="#263238"/>
<path d="M196.265 275.25C196.175 275.249 196.088 275.22 196.016 275.167C195.975 275.14 195.94 275.103 195.914 275.061C195.889 275.019 195.872 274.971 195.866 274.922C195.86 274.873 195.865 274.823 195.88 274.776C195.895 274.728 195.92 274.685 195.954 274.648C197.061 273.334 202.375 270.164 205.337 270.413C205.387 270.416 205.436 270.428 205.481 270.45C205.526 270.472 205.567 270.502 205.6 270.539C205.634 270.577 205.659 270.62 205.676 270.667C205.693 270.715 205.7 270.765 205.697 270.815C205.691 270.866 205.675 270.915 205.65 270.96C205.624 271.005 205.59 271.044 205.55 271.075C205.509 271.107 205.463 271.13 205.413 271.144C205.364 271.157 205.312 271.161 205.261 271.154C202.493 270.925 197.455 274.067 196.569 275.105C196.533 275.151 196.487 275.188 196.434 275.213C196.381 275.239 196.323 275.251 196.265 275.25Z" fill="#263238"/>
<path d="M192.736 273.402C192.644 273.403 192.554 273.373 192.48 273.319C192.44 273.291 192.406 273.254 192.381 273.212C192.355 273.17 192.339 273.123 192.334 273.074C192.328 273.025 192.332 272.975 192.347 272.928C192.361 272.881 192.385 272.838 192.417 272.8C193.531 271.479 198.846 268.309 201.808 268.565C201.858 268.568 201.906 268.581 201.951 268.602C201.996 268.624 202.036 268.654 202.069 268.692C202.102 268.729 202.127 268.773 202.142 268.82C202.158 268.867 202.164 268.917 202.161 268.967C202.156 269.018 202.14 269.067 202.116 269.111C202.091 269.156 202.058 269.196 202.018 269.227C201.978 269.259 201.932 269.282 201.883 269.296C201.834 269.309 201.782 269.313 201.732 269.306C198.964 269.078 193.919 272.212 193.04 273.257C193.002 273.301 192.955 273.336 192.903 273.361C192.85 273.386 192.794 273.4 192.736 273.402Z" fill="#263238"/>
<path d="M189.456 271.264C189.366 271.265 189.278 271.236 189.207 271.181C189.166 271.153 189.132 271.117 189.106 271.075C189.08 271.033 189.063 270.986 189.057 270.937C189.05 270.888 189.054 270.839 189.068 270.791C189.082 270.744 189.106 270.7 189.137 270.662C190.252 269.341 195.58 266.171 198.528 266.427C198.578 266.43 198.627 266.442 198.672 266.464C198.717 266.486 198.758 266.516 198.791 266.553C198.825 266.591 198.85 266.634 198.867 266.681C198.883 266.729 198.891 266.779 198.888 266.829C198.874 266.931 198.82 267.024 198.739 267.087C198.657 267.151 198.554 267.179 198.452 267.168C195.684 266.939 190.639 270.074 189.76 271.119C189.722 271.163 189.675 271.198 189.623 271.223C189.571 271.248 189.514 271.262 189.456 271.264Z" fill="#263238"/>
<path d="M186.245 269.147C186.155 269.153 186.067 269.126 185.996 269.071C185.955 269.043 185.92 269.008 185.893 268.966C185.867 268.924 185.849 268.877 185.842 268.828C185.835 268.779 185.838 268.729 185.851 268.682C185.865 268.634 185.888 268.59 185.92 268.552C187.449 266.683 193.026 264.019 195.981 264.268C196.031 264.271 196.08 264.283 196.125 264.305C196.171 264.327 196.211 264.357 196.244 264.394C196.278 264.432 196.304 264.475 196.32 264.522C196.337 264.57 196.344 264.62 196.341 264.67C196.329 264.771 196.277 264.864 196.197 264.928C196.116 264.991 196.014 265.02 195.912 265.009C193.248 264.787 187.906 267.348 186.549 269.002C186.513 269.047 186.466 269.084 186.414 269.109C186.361 269.134 186.303 269.147 186.245 269.147Z" fill="#263238"/>
<path d="M149.43 266.573L152.794 254.4L137.819 252.082L137.127 263.846C137.127 263.846 135.535 268.053 136.435 269.603C137.334 271.154 147.299 272.911 148.199 271.901C149.098 270.891 149.43 266.573 149.43 266.573Z" fill="#C8856A"/>
<path d="M147.894 293.125C147.41 296.896 146.579 299.353 144.919 301.353C143.258 303.353 140.344 303.685 137.48 302.633C134.615 301.581 130.996 299.325 130.373 295.927C129.75 292.53 130.054 290.308 130.933 286.869L147.894 293.125Z" fill="#263238"/>
<path d="M137.148 263.867C135.943 263.784 136.179 268.967 135.168 273.984C134.082 279.368 132.096 281.388 131.155 285.789C130.075 290.827 130.234 293.166 132.068 296.543C133.902 299.92 140.891 303.954 144.711 300.003C147.818 296.771 148.171 292.765 148.254 287.602C148.31 282.26 148.31 278.496 148.808 274.51C149.278 270.69 150.441 267.306 149.424 266.739C149.313 267.292 149.188 267.998 149.071 268.545C148.974 268.96 148.725 271.022 148.053 270.953C148.027 270.467 148.053 269.98 148.13 269.5C148.179 269.281 148.182 269.054 148.139 268.833C148.096 268.613 148.008 268.404 147.88 268.219C147.313 267.756 146.659 267.411 145.957 267.202C144.794 266.835 142.704 266.372 141.514 266.109C140.919 265.984 140.324 265.874 139.729 265.797C139.219 265.721 138.702 265.721 138.192 265.797C138.051 265.812 137.915 265.859 137.795 265.934C137.675 266.01 137.574 266.112 137.5 266.233C137.427 266.415 137.393 266.611 137.404 266.808C137.379 267.162 137.304 267.512 137.182 267.846C137.134 267.991 137.002 268.157 136.829 268.095C136.77 268.064 136.721 268.016 136.69 267.956C136.659 267.897 136.647 267.829 136.656 267.763C136.691 267.14 136.808 266.704 136.885 265.984C136.885 265.652 137.009 265.209 137.037 264.87C137.065 264.531 137.099 264.185 137.148 263.867Z" fill="#455A64"/>
<path d="M131.515 284.371C131.355 285.063 130.338 289.907 131.784 290.994C133.355 292.17 134.497 288.44 134.497 288.44C134.497 288.44 138.379 287.921 143.811 290.841C143.472 291.596 144.164 294.343 145.728 293.997C147.292 293.651 148.233 288.108 148.247 288.032C148.164 292.98 147.728 296.855 144.711 299.99C140.891 303.955 133.902 299.927 132.068 296.53C130.234 293.132 130.096 290.827 131.155 285.797C131.259 285.291 131.383 284.821 131.515 284.371Z" fill="#37474F"/>
<path d="M134.94 288.827C134.795 290.682 132.767 289.768 132.864 287.139C132.961 284.509 134.94 278.503 135.217 273.991C135.653 267.797 135.992 263.791 137.196 263.867V264.061L136.878 266.635C136.813 267.001 136.767 267.371 136.739 267.742C136.469 271.52 136.324 278.883 135.736 282.274C135.332 284.439 135.066 286.628 134.94 288.827Z" fill="#37474F"/>
<path d="M143.168 290.703C143.813 288.616 144.331 286.492 144.718 284.343C145.348 280.966 147.486 274.219 148.517 270.586C148.789 269.92 148.975 269.223 149.071 268.51C149.181 267.998 149.292 267.354 149.403 266.822C149.405 266.785 149.405 266.748 149.403 266.711C150.136 267.133 149.839 270.06 149.403 271.555C148.967 273.05 148.496 274.69 147.977 276.863C146.669 281.146 146.462 287.589 145.624 290.052C144.787 292.516 142.663 292.474 143.168 290.703Z" fill="#37474F"/>
<path d="M143.936 291.007C143.881 290.992 143.827 290.971 143.777 290.945C140.992 289.362 137.804 288.628 134.608 288.834C134.493 288.845 134.377 288.816 134.281 288.752C134.185 288.688 134.115 288.592 134.082 288.481C134.071 288.429 134.071 288.375 134.083 288.322C134.095 288.27 134.118 288.221 134.151 288.179C134.184 288.137 134.226 288.102 134.274 288.078C134.322 288.054 134.374 288.04 134.428 288.038C137.849 287.798 141.263 288.586 144.233 290.301C144.282 290.325 144.326 290.358 144.361 290.4C144.396 290.442 144.421 290.491 144.436 290.543C144.45 290.596 144.453 290.651 144.444 290.704C144.436 290.758 144.416 290.809 144.386 290.855C144.335 290.923 144.265 290.974 144.185 291.001C144.104 291.029 144.017 291.031 143.936 291.007Z" fill="#263238"/>
<path d="M145.175 287.111C145.122 287.104 145.073 287.086 145.029 287.056C141.869 285.384 138.325 284.573 134.753 284.703C134.638 284.71 134.523 284.677 134.43 284.608C134.336 284.54 134.27 284.442 134.241 284.33C134.232 284.277 134.234 284.223 134.248 284.172C134.262 284.12 134.287 284.072 134.321 284.032C134.356 283.991 134.398 283.958 134.447 283.935C134.495 283.913 134.547 283.901 134.601 283.901C138.376 283.746 142.124 284.608 145.451 286.399C145.501 286.421 145.546 286.454 145.582 286.495C145.619 286.536 145.646 286.584 145.663 286.636C145.68 286.688 145.686 286.743 145.681 286.797C145.675 286.852 145.658 286.905 145.631 286.952C145.581 287.023 145.51 287.077 145.428 287.105C145.347 287.134 145.258 287.136 145.175 287.111Z" fill="#263238"/>
<path d="M135.286 280.911C135.204 280.893 135.127 280.854 135.064 280.799C135.001 280.743 134.954 280.672 134.926 280.592C134.911 280.542 134.906 280.488 134.914 280.436C134.921 280.383 134.94 280.333 134.969 280.289C134.998 280.245 135.037 280.207 135.082 280.18C135.127 280.152 135.178 280.135 135.231 280.129C140.704 279.25 145.86 282.398 146.081 282.53C146.129 282.556 146.171 282.591 146.205 282.634C146.238 282.676 146.263 282.725 146.277 282.778C146.291 282.83 146.295 282.885 146.287 282.939C146.28 282.992 146.261 283.044 146.233 283.09C146.159 283.175 146.056 283.23 145.944 283.245C145.833 283.26 145.719 283.235 145.624 283.174C145.576 283.174 140.566 280.094 135.473 280.918C135.411 280.926 135.347 280.923 135.286 280.911Z" fill="#263238"/>
<path d="M135.819 277.34C135.739 277.324 135.664 277.288 135.602 277.235C135.54 277.181 135.493 277.113 135.466 277.036C135.448 276.985 135.441 276.931 135.447 276.878C135.453 276.824 135.471 276.773 135.5 276.728C135.528 276.682 135.567 276.644 135.613 276.616C135.658 276.588 135.71 276.57 135.763 276.565C141.784 275.492 146.621 278.821 146.835 278.966C146.881 278.994 146.921 279.031 146.952 279.075C146.982 279.12 147.004 279.17 147.014 279.222C147.024 279.275 147.024 279.329 147.012 279.382C147 279.434 146.978 279.484 146.946 279.527C146.868 279.611 146.762 279.662 146.648 279.671C146.534 279.68 146.42 279.646 146.33 279.575C146.282 279.575 141.632 276.351 136.019 277.347C135.953 277.36 135.884 277.357 135.819 277.34Z" fill="#263238"/>
<path d="M136.442 273.34C136.361 273.324 136.286 273.287 136.223 273.234C136.16 273.181 136.112 273.113 136.082 273.036C136.065 272.986 136.06 272.932 136.066 272.88C136.072 272.828 136.089 272.777 136.117 272.732C136.145 272.687 136.182 272.649 136.226 272.62C136.27 272.591 136.32 272.573 136.373 272.565C142.026 271.486 147.292 274.939 147.514 275.091C147.562 275.117 147.603 275.153 147.636 275.196C147.669 275.24 147.692 275.29 147.704 275.343C147.715 275.396 147.716 275.451 147.704 275.504C147.693 275.557 147.671 275.608 147.638 275.651C147.56 275.735 147.455 275.787 147.341 275.797C147.227 275.807 147.114 275.775 147.022 275.707C146.974 275.707 141.888 272.337 136.642 273.347C136.576 273.359 136.507 273.356 136.442 273.34Z" fill="#263238"/>
<path d="M142.656 135.266C139.839 165.119 140.58 207.856 140.58 207.856C140.337 210.126 138.607 216.852 137.12 228.035C135.798 237.979 136.76 259.258 136.753 260.504C136.753 260.504 142.566 264.801 151.285 262.69C151.285 262.69 158.274 238.526 162.751 222.181C166.336 209.109 170.363 183.899 170.363 183.899L172.931 205.351C172.931 205.351 172.315 214.015 172.46 219.98C172.626 226.9 177.498 254.518 177.498 254.518C177.498 254.518 185.366 258.968 192.237 253.764C192.237 253.764 196.389 213.385 196.756 205.047C197.414 188.688 198.362 155.458 196.383 135.342L142.656 135.266Z" fill="#455A64"/>
<path d="M196.41 135.342L142.656 135.266C142.144 140.712 141.749 146.587 141.445 152.566C143.161 153.846 151.015 158.545 173.187 157.493C188.563 156.766 196.023 152.24 197.365 151.32C197.179 145.521 196.874 140.068 196.41 135.342Z" fill="#37474F"/>
<path d="M170.391 183.899L174.114 162.689C174.114 162.689 182.044 161.651 186.162 157.991C186.162 157.991 183.456 162.883 175.969 164.682L172.308 183.982L173 205.351L170.391 183.899Z" fill="#37474F"/>
<path d="M223.205 134.94C218.153 136.324 213.717 129.715 212.991 122.795C212.402 117.163 213.558 110.042 219.682 106.284C225.806 102.527 228.533 116.602 228.741 121.467C228.948 126.332 227.28 133.757 223.205 134.94Z" fill="#263238"/>
<path d="M243.992 88.3963C243.985 88.2719 243.985 88.1471 243.992 88.0226C244.112 87.2932 244.316 86.5802 244.601 85.8982C244.737 85.557 244.782 85.1866 244.732 84.8229C244.682 84.4592 244.539 84.1145 244.317 83.8222C243.854 83.3447 243.12 83.2963 242.497 83.0541C241.91 82.7801 241.362 82.4312 240.864 82.0161C240.241 81.5573 239.584 81.1455 238.899 80.7843C238.365 80.4594 237.759 80.2716 237.134 80.2376C235.91 80.2376 234.948 81.2895 234.366 82.3136C234.069 82.8257 232.588 86.2788 231.813 85.137C231.693 84.9249 231.622 84.6884 231.605 84.445C231.465 83.022 231.129 81.6249 230.609 80.293C230.364 79.7155 229.987 79.2035 229.509 78.7983C229.318 78.6273 229.073 78.5293 228.817 78.5215C228.636 78.5474 228.467 78.6274 228.332 78.7508C228.198 78.8743 228.104 79.0356 228.062 79.2135C227.993 79.57 227.993 79.9365 228.062 80.293C228.27 82.5489 228.104 84.8187 228.125 87.0815C228.118 88.4395 228.241 89.795 228.491 91.1297C228.734 92.313 229.557 93.6278 229.356 94.8458C229.085 96.1569 228.435 97.3598 227.488 98.3058C224.312 101.6 220.042 105.807 220.042 105.807C220.042 105.807 215.724 102.306 206.077 92.9566C198.244 85.3446 195.76 81.6147 188.224 79.4764L192.833 105.42C192.833 105.42 200.721 111.578 213.35 122.028C217.918 125.82 221.343 127.633 225.543 124.104C228.183 121.838 230.374 119.096 232 116.021C235.64 108.568 236.152 107.253 238.636 101.821C240.387 97.9667 241.702 96.2367 243.183 93.2818C243.832 92.1284 244.172 90.8271 244.172 89.5035C244.096 89.1506 244.02 88.77 243.992 88.3963Z" fill="#C8856A"/>
<path d="M233.017 91.5035C232.812 91.6645 232.656 91.8804 232.567 92.1263C232.457 92.3477 232.353 92.5692 232.263 92.8183C232.091 93.2388 231.979 93.6814 231.931 94.1331C231.885 94.6039 231.954 95.0787 232.131 95.5171C232.24 95.7561 232.365 95.9874 232.505 96.2091C232.649 96.4576 232.774 96.7167 232.879 96.9841C232.879 97.0187 232.927 97.0187 232.927 96.9841C232.905 96.5401 232.802 96.1039 232.623 95.697C232.439 95.2356 232.356 94.74 232.381 94.2438C232.42 93.7667 232.537 93.2993 232.727 92.8598C232.81 92.6591 232.907 92.4584 233.003 92.2647C233.1 92.0709 233.273 91.8287 233.183 91.5727C233.163 91.545 233.08 91.4689 233.017 91.5035Z" fill="#AF6152"/>
<path d="M224.997 100.735L220.056 105.399C220.056 105.399 207.496 93.2197 203.704 89.6905C199.912 86.1613 197.296 83.1372 193.276 80.9436C191.488 80.1204 189.636 79.4424 187.74 78.916L192.244 106.195C192.244 106.195 202.701 114.817 208.105 119.142C213.51 123.467 217.703 126.934 221.495 126.533C225.287 126.131 226.851 124.284 229.557 120.554C232.263 116.824 235.723 108.644 235.723 108.644L224.997 100.735Z" fill="#455A64"/>
<path d="M220.056 105.399C216.963 108.008 215.357 110.243 215.08 113.661C214.804 117.08 215.267 118.395 215.267 118.395C215.267 118.395 213.475 114.879 213.786 111.689C213.905 110.112 214.416 108.589 215.273 107.26C216.129 105.931 217.305 104.836 218.693 104.077L220.056 105.399Z" fill="#2D589B"/>
<path d="M228.519 96.915C228.761 101.378 235.508 103.96 238.096 102.922L235.723 108.644C233.261 108.776 230.826 108.082 228.803 106.672C227.81 105.984 226.964 105.106 226.312 104.09C225.66 103.073 225.215 101.938 225.004 100.749L228.519 96.915Z" fill="#F5F5F5"/>
<path d="M187.532 78.4038C191.11 79.6356 193.123 79.0958 199.85 85.2269C204.244 89.2474 209.205 94.0638 212.112 96.9217C213.367 98.1037 214.761 99.1285 216.264 99.9734C217.06 100.43 217.654 101.172 217.925 102.049C219.786 101.6 221.558 104.022 221.558 104.022L220.084 105.406C218.049 107.911 216.727 111.53 216.437 117.453C216.146 123.377 217.08 128.283 218.824 131.293C221.184 135.376 224.907 134.456 226.312 132.338C223.239 137.701 218.236 135.217 215.551 132.885C212.866 130.553 191.075 106.07 191.075 106.07L187.532 78.4038Z" fill="#37474F"/>
<path d="M216.686 103.108C214.568 104.305 213.101 106.423 212.126 108.603C211.088 110.951 210.576 113.496 210.624 116.063C210.668 117.595 210.83 119.122 211.108 120.63C211.108 120.664 211.157 120.63 211.15 120.63C210.582 115.717 211.351 110.25 214.271 106.16C215.018 105.12 215.837 104.132 216.72 103.205C216.72 103.205 216.727 103.053 216.686 103.108Z" fill="#263238"/>
<path d="M230.069 113.841L230.907 91.1157L230.858 87.9395L229.37 63.2489V62.8476C229.37 61.9618 229.931 61.076 231.087 60.384C232.385 59.7019 233.827 59.3358 235.294 59.3154C236.761 59.2949 238.212 59.6207 239.529 60.2664C240.712 60.9584 241.3 61.7957 241.314 62.6815L240.525 87.8011L240.567 90.9704L242.02 113.806V113.841C242.02 114.706 241.446 115.592 240.304 116.27C239.004 116.952 237.561 117.318 236.093 117.339C234.625 117.359 233.173 117.033 231.855 116.388C230.685 115.696 230.09 114.851 230.076 113.973V113.848L230.069 113.841Z" fill="#2D589B"/>
<path opacity="0.4" d="M230.069 113.841L230.907 91.1157L230.858 87.9395L229.37 63.2489V62.8476C229.37 61.9618 229.931 61.076 231.087 60.384C232.385 59.7019 233.827 59.3358 235.294 59.3154C236.761 59.2949 238.212 59.6207 239.529 60.2664C240.712 60.9584 241.3 61.7957 241.314 62.6815L240.525 87.8011L240.567 90.9704L242.02 113.806V113.841C242.02 114.706 241.446 115.592 240.304 116.27C239.004 116.952 237.561 117.318 236.093 117.339C234.625 117.359 233.173 117.033 231.855 116.388C230.685 115.696 230.09 114.851 230.076 113.973V113.848L230.069 113.841Z" fill="white"/>
<path opacity="0.1" d="M229.474 62.1279C229.395 62.3502 229.353 62.584 229.35 62.8199V63.2213L230.837 87.9119L230.886 91.0881L230.049 113.813V113.938C230.049 114.817 230.658 115.696 231.827 116.353C233.672 117.266 235.767 117.541 237.785 117.135L237.093 67.0757C237.093 67.0757 231.128 66.3284 229.474 62.1279Z" fill="black"/>
<path d="M231.066 60.3842C229.91 61.0762 229.336 61.962 229.35 62.8478C229.363 63.7335 229.959 64.6054 231.135 65.2628C232.452 65.9085 233.903 66.2343 235.37 66.2139C236.837 66.1934 238.279 65.8273 239.577 65.1452C240.74 64.4532 241.307 63.5605 241.294 62.6817C241.28 61.8028 240.685 60.924 239.515 60.2666C238.196 59.6214 236.744 59.2959 235.276 59.3163C233.808 59.3368 232.366 59.7026 231.066 60.3842Z" fill="#2D589B"/>
<path d="M230.062 114.236V113.841L230.9 91.1159L230.851 87.9396L229.37 63.249C229.799 67.1035 235.391 67.9961 235.391 67.9961L236.083 119.391C236.083 119.391 230.118 118.429 230.062 114.236Z" fill="#2D589B"/>
<path opacity="0.6" d="M230.062 114.236V113.841L230.9 91.1159L230.851 87.9396L229.37 63.249C229.799 67.1035 235.391 67.9961 235.391 67.9961L236.083 119.391C236.083 119.391 230.118 118.429 230.062 114.236Z" fill="white"/>
<path opacity="0.25" d="M231.066 60.3842C229.91 61.0762 229.336 61.962 229.35 62.8478C229.363 63.7335 229.959 64.6054 231.135 65.2628C232.452 65.9085 233.903 66.2343 235.37 66.2139C236.837 66.1934 238.279 65.8273 239.577 65.1452C240.74 64.4532 241.307 63.5605 241.294 62.6817C241.28 61.8028 240.685 60.924 239.515 60.2666C238.196 59.6214 236.744 59.2959 235.276 59.3163C233.808 59.3368 232.366 59.7026 231.066 60.3842Z" fill="white"/>
<path opacity="0.5" d="M236.789 62.8476C239.183 61.2076 236.097 59.2976 232.519 59.7474C232.01 59.8988 231.522 60.1126 231.066 60.3841C229.91 61.0761 229.336 61.9619 229.35 62.8476C229.363 63.7334 229.959 64.6053 231.135 65.2627C232.9 66.137 234.897 66.4255 236.837 66.0862L236.789 62.8476Z" fill="#2D589B"/>
<path d="M237.64 61.6436L237.695 65.9063C237.414 65.9867 237.127 66.0469 236.837 66.0862L236.789 62.8476C237.009 62.7198 237.199 62.5461 237.345 62.3384C237.492 62.1306 237.593 61.8936 237.64 61.6436Z" fill="#2D589B"/>
<path opacity="0.1" d="M237.64 61.6436L237.695 65.9063C237.414 65.9867 237.127 66.0469 236.837 66.0862L236.789 62.8476C237.009 62.7198 237.199 62.5461 237.345 62.3384C237.492 62.1306 237.593 61.8936 237.64 61.6436Z" fill="black"/>
<path d="M231.758 92.0361C231.522 96.0428 229.578 99.7312 226.623 103.233C227.796 102.975 228.912 102.506 229.917 101.849C230.08 102.827 230.11 103.824 230.007 104.81C232.657 101.35 234.498 97.6483 235.128 93.6554L234.36 93.254L231.758 92.0361Z" fill="#2D589B"/>
<path opacity="0.2" d="M231.529 93.8077L232.823 93.946L234.816 95.157C234.941 94.645 235.045 94.1329 235.128 93.607L234.36 93.2056L231.758 92.0361C231.719 92.6309 231.643 93.2226 231.529 93.8077Z" fill="black"/>
<path d="M230.907 91.116C230.957 91.5356 231.116 91.9347 231.368 92.2735C231.621 92.6123 231.958 92.8789 232.346 93.0466C233.41 93.5673 234.581 93.8298 235.766 93.813C236.95 93.7962 238.114 93.5004 239.162 92.9498C239.543 92.7733 239.871 92.5003 240.114 92.1581C240.356 91.8158 240.505 91.416 240.546 90.9983V90.9637L240.505 87.8013C240.473 88.2258 240.327 88.634 240.084 88.9833C239.841 89.3327 239.508 89.6103 239.121 89.7873C238.072 90.338 236.908 90.6337 235.724 90.6505C234.54 90.6674 233.368 90.4048 232.304 89.8842C231.912 89.7163 231.571 89.4471 231.317 89.1042C231.063 88.7613 230.905 88.357 230.858 87.9328L230.907 91.0952V91.116Z" fill="#2D589B"/>
<path opacity="0.15" d="M234.996 90.6521C234.297 90.6113 233.608 90.4619 232.955 90.2093L232.996 93.3717C233.661 93.6272 234.361 93.7766 235.072 93.8146L234.996 90.6521ZM232.346 93.0741L232.304 89.9117C232.005 89.7474 231.731 89.5425 231.488 89.3027L231.536 92.4652C231.778 92.6951 232.051 92.8907 232.346 93.0465V93.0741Z" fill="white"/>
<path opacity="0.1" d="M237.633 93.5656C238.17 93.4372 238.686 93.2297 239.162 92.9498C239.543 92.7733 239.871 92.5003 240.114 92.1581C240.356 91.8158 240.505 91.416 240.546 90.9983V90.9637L240.505 87.8013C240.473 88.2258 240.327 88.634 240.084 88.9833C239.841 89.3327 239.508 89.6103 239.121 89.7873C238.643 90.0655 238.128 90.2751 237.591 90.4101L237.633 93.5656Z" fill="black"/>
<path d="M243.93 80.4106C242.915 79.8494 241.84 79.4038 240.726 79.0819C239.367 78.8186 237.966 78.8683 236.629 79.2272C235.744 79.7047 234.851 80.1822 233.806 80.8396C232.761 81.497 233.806 82.5073 234.782 82.5834C236.249 82.7011 238.608 81.6838 239.48 81.933C241.005 82.4761 242.485 83.1354 243.909 83.9052C244.428 84.265 246.58 82.2444 243.93 80.4106Z" fill="#C8856A"/>
<path d="M243.93 80.4104C242.907 79.8531 241.822 79.4165 240.698 79.1095C239.551 78.9174 238.378 78.9386 237.238 79.1717C236.695 79.3133 236.18 79.5474 235.716 79.8637C235.211 80.1544 234.713 80.4519 234.221 80.7633C233.73 81.0747 233.28 81.2962 233.73 81.8083C233.906 81.9953 234.122 82.1399 234.361 82.231C234.601 82.3221 234.859 82.3574 235.114 82.3342C236.26 82.1976 237.397 81.9943 238.519 81.7252C239.13 81.6273 239.756 81.737 240.297 82.0366C241.377 82.5003 242.428 82.9985 243.46 83.5521C243.709 83.649 243.923 83.9465 244.207 83.8289C244.599 83.6462 244.905 83.3181 245.06 82.9139C245.215 82.5098 245.207 82.0611 245.037 81.6629C244.784 81.1381 244.391 80.6929 243.902 80.3758L243.93 80.4104ZM243.93 80.4104C244.906 80.9986 245.715 82.3065 244.934 83.3722C244.705 83.6905 244.242 84.1957 243.806 83.9119C242.389 83.1887 240.918 82.5801 239.404 82.092C237.709 81.9951 235.944 83.2199 234.214 82.6663C233.37 82.3688 232.678 81.2823 233.661 80.7011C234.505 80.1682 235.46 79.6769 236.353 79.2202C237.185 78.8894 238.083 78.759 238.975 78.8396C240.733 78.9345 242.438 79.4751 243.93 80.4104Z" fill="#AF6152"/>
<path d="M240.92 92.7281C241.854 92.4306 242.477 91.441 241.667 90.9981C241.088 90.7002 240.486 90.448 239.868 90.2438C239.868 90.2438 238.823 91.0396 238.069 91.524C237.734 91.7848 237.329 91.9409 236.906 91.9729C236.482 92.0049 236.059 91.9114 235.688 91.704C235.514 91.5694 235.398 91.3729 235.365 91.1552C235.331 90.9375 235.383 90.7153 235.508 90.5345C235.348 90.568 235.182 90.5669 235.022 90.5311C234.862 90.4953 234.712 90.4256 234.581 90.3269C234.2 89.9878 234.062 89.6349 234.761 88.4931C234.761 88.4931 236.484 85.6005 237.571 85.5867C238.657 85.5728 241.723 85.9258 241.723 85.9258C241.723 85.9258 239.875 84.8947 239.183 84.6386C238.491 84.3826 236.297 84.6871 235.335 84.8462C234.373 85.0054 232.381 85.0054 231.875 84.2857C231.37 83.566 231.875 83.2616 232.754 82.9017C233.633 82.5419 234.2 82.272 234.65 82.1405C235.1 82.009 238.449 81.2617 238.92 81.2686C240.109 81.507 241.269 81.8736 242.38 82.362C244.089 83.0055 244.906 83.5453 244.899 84.7286C244.702 86.3061 244.278 87.8469 243.639 89.3027C242.975 90.832 243.674 92.1538 240.92 92.7281Z" fill="#C8856A"/>
<path d="M233.446 82.8392C235.196 82.1438 237.029 81.6786 238.899 81.4552C240.215 81.736 241.502 82.1343 242.747 82.6454C243.709 83.0053 244.94 83.5865 244.823 84.7906C244.961 83.5727 243.715 82.9361 242.747 82.5416C241.497 81.964 240.192 81.5165 238.851 81.2061C236.937 81.4047 235.058 81.8513 233.259 82.5347C232.678 82.8392 231.716 82.9153 231.426 83.6627C231.308 84.9083 232.92 85.1297 233.834 85.1643C235.668 85.2958 237.647 84.3408 239.37 85.0328C239.771 85.2197 240.172 85.4273 240.574 85.6349C239.992 85.5795 239.411 85.5241 238.83 85.4826C238.138 85.4826 237.211 85.2473 236.65 85.7802C235.756 86.5909 235.003 87.5451 234.422 88.6035C234.261 88.8119 234.147 89.0532 234.09 89.3104C234.032 89.5675 234.032 89.8342 234.09 90.0913C234.183 90.302 234.337 90.4803 234.531 90.6035C234.726 90.7267 234.953 90.7893 235.183 90.7833C235.106 91.0163 235.118 91.2694 235.217 91.4941C235.315 91.7188 235.493 91.8994 235.716 92.0013C236.74 92.5133 237.84 91.8975 238.629 91.3093C239.031 91.0186 239.418 90.7211 239.806 90.4166C240.489 90.6099 241.144 90.8889 241.757 91.247C241.873 91.3797 241.934 91.5517 241.928 91.7279C241.921 91.904 241.848 92.0711 241.722 92.195C241.497 92.483 241.191 92.6974 240.844 92.8109C241.473 92.6517 242.394 91.849 241.812 91.1916C241.18 90.7637 240.477 90.4498 239.736 90.2643C238.602 90.9563 237.28 92.4165 235.84 91.7729C235.648 91.6762 235.501 91.507 235.432 91.3023C235.393 91.1113 235.431 90.9127 235.536 90.7487C235.749 90.3682 236.028 90.0285 236.359 89.7453L236.795 89.344C236.866 89.2957 236.929 89.2374 236.982 89.171C237.44 88.6847 237.978 88.2819 238.574 87.9807C239.956 87.8677 241.344 87.8677 242.726 87.9807C241.345 87.5447 239.889 87.3986 238.449 87.5517C238.078 87.6726 237.743 87.8843 237.474 88.1676C237.131 88.4732 236.812 88.804 236.519 89.1571C236.221 89.4962 235.965 89.8491 235.674 90.1951C235.591 90.2851 235.474 90.4581 235.349 90.4858C235.223 90.5101 235.094 90.5101 234.969 90.4858C234.84 90.4622 234.719 90.4085 234.616 90.3291C234.513 90.2497 234.429 90.1469 234.373 90.0291C234.242 89.6969 234.491 89.2402 234.713 88.8596C235.186 88.0597 235.74 87.3107 236.366 86.6244C236.644 86.3043 237.002 86.0652 237.404 85.9324C237.75 85.9324 238.394 85.9739 238.788 85.9947C239.73 86.0708 240.664 86.1677 241.598 86.2784C241.64 86.2818 241.683 86.2733 241.721 86.2537C241.759 86.2341 241.791 86.2043 241.812 86.1677C241.84 86.1181 241.846 86.0597 241.831 86.0053C241.815 85.9508 241.779 85.9047 241.729 85.8771C240.74 85.3927 239.799 84.6591 238.698 84.4931C237.01 84.3616 235.467 84.9083 233.813 84.8737C233.121 84.8114 232.18 84.8252 231.813 84.1332C231.446 83.4412 232.989 83.1091 233.446 82.8392Z" fill="#AF6152"/>
<path d="M159.9 76.2515C156.89 76.8743 147.749 80.5419 144.282 82.4795C144.282 82.4795 140.275 90.8596 142.303 110.263C142.628 113.37 143.458 121.744 143.839 128.207C144.214 133.47 144.179 138.754 143.735 144.012C143.735 144.012 151.894 151.154 173.166 149.548C189.864 148.289 194.888 141.431 194.888 141.431C194.888 141.431 194.812 118.899 194.376 106.589C193.808 90.4098 188.909 81.0747 185.304 78.2513L174.342 76.4245L159.9 76.2515Z" fill="#F0F0F0"/>
<path d="M166.004 23.2031L137.466 49.8174L163.347 62.0036L192.715 39.6866L166.004 23.2031Z" fill="#263238"/>
<path d="M155.112 41.333C153.441 41.8246 151.981 42.8565 150.96 44.2671C149.417 46.5438 148.351 50.7788 149.984 55.6366C151.776 60.9789 155.52 66.2173 156.281 67.7259C156.81 68.6618 157.68 69.3563 158.71 69.6635L158.537 63.1725L158.295 58.6468C158.295 58.6468 161.949 55.3322 162.26 52.0867C162.662 47.9347 161.028 45.5265 161.028 45.5265L155.112 41.333Z" fill="#263238"/>
<path d="M176.356 51.5056C176.236 51.4078 176.089 51.3498 175.934 51.3395C175.782 51.3476 175.634 51.3876 175.498 51.4572C173.902 52.1108 172.145 52.2623 170.461 51.8913C168.777 51.5204 167.246 50.6447 166.073 49.3812C166.045 49.3249 166.005 49.2751 165.957 49.2348C165.909 49.1946 165.853 49.1647 165.792 49.1472C165.732 49.1296 165.668 49.1248 165.606 49.1329C165.543 49.141 165.483 49.1619 165.43 49.1943C164.646 49.4881 163.817 49.6427 162.98 49.651C161.056 49.758 159.147 49.2542 157.527 48.2117C156.251 47.4495 155.238 46.3176 154.62 44.9662C154.247 43.8308 154.152 42.6223 154.342 41.4423C154.532 40.2623 155.003 39.1452 155.714 38.1846C156.447 37.1687 157.473 36.4009 158.655 35.984C159.881 35.5224 161.142 35.1592 162.426 34.8976C164.778 34.3088 167.177 33.9313 169.595 33.7696C172.024 33.6078 174.456 34.0376 176.681 35.0222C178.682 35.9256 180.313 37.4859 181.304 39.444C181.768 40.4336 182.065 41.4439 182.467 42.4612C182.681 43.0217 182.93 43.5753 183.159 44.115C183.367 44.7206 183.676 45.2868 184.072 45.7897C184.944 46.5751 185.476 47.6701 185.553 48.8414C186.203 53.803 179.29 53.9345 176.522 51.6578L176.356 51.5056Z" fill="#263238"/>
<path d="M152.621 65.0479C155.984 66.681 157.52 64.0168 157.52 64.0168L158.025 77.4139C161.886 82.5832 168.668 85.0259 172.737 83.5866C175.463 82.6109 177.491 79.0609 174.654 76.459V73.4003C175.631 73.3794 176.605 73.2845 177.567 73.1166C180.543 72.6461 183.276 69.9957 184.162 66.771C185.456 62.0239 185.11 54.6679 183.311 46.5438C182.965 44.973 182.287 43.2637 180.847 42.551C177.277 40.7864 174.453 42.1981 169.471 44.1426C167.395 44.9453 161.063 45.3397 159.748 44.7169C160.087 44.8761 160.364 45.6719 160.496 45.9902C160.736 46.5867 160.917 47.2056 161.035 47.8379C161.34 49.1082 161.375 50.4282 161.139 51.7131C160.759 53.6714 160.253 55.6021 159.755 57.5328C159.699 57.811 159.591 58.0762 159.437 58.3147C158.745 59.242 157.555 58.6054 157.119 57.8027C156.897 57.4013 156.779 56.9584 156.572 56.5501C155.133 53.7821 151.036 54.1143 149.763 56.8131C149.402 57.5401 149.19 58.3317 149.139 59.1415C149.088 59.9513 149.199 60.7632 149.465 61.5297C149.731 62.2963 150.147 63.0022 150.689 63.6063C151.231 64.2103 151.887 64.7004 152.621 65.0479Z" fill="#C8856A"/>
<path d="M174.64 73.428C170.73 73.428 167.263 72.9228 164.952 71.954C162.641 70.9852 160.599 67.8574 159.935 64.7642C159.935 67.2554 161.022 71.6842 164.523 73.5041C168.025 75.3241 172.087 75.4417 174.647 75.4971L174.64 73.428Z" fill="#AF6152"/>
<path d="M168.384 50.3777L165.277 52.1768C165.046 51.7487 164.989 51.2478 165.118 50.7785C165.247 50.3093 165.552 49.9079 165.969 49.658C166.174 49.5433 166.4 49.471 166.634 49.4452C166.867 49.4194 167.104 49.4407 167.329 49.5078C167.554 49.5749 167.763 49.6864 167.945 49.8358C168.126 49.9852 168.275 50.1695 168.384 50.3777Z" fill="#263238"/>
<path d="M182.473 51.5124L179.117 50.1837C179.192 49.9607 179.313 49.7555 179.47 49.5805C179.627 49.4055 179.819 49.2645 180.032 49.166C180.246 49.0675 180.478 49.0137 180.713 49.0079C180.948 49.002 181.182 49.0442 181.401 49.1319C181.852 49.3143 182.215 49.6636 182.415 50.107C182.614 50.5504 182.635 51.0538 182.473 51.5124Z" fill="#263238"/>
<path d="M166.717 54.5921C166.728 54.8814 166.825 55.1608 166.996 55.3948C167.166 55.6288 167.403 55.8068 167.674 55.9062C167.946 56.0056 168.242 56.0219 168.523 55.9531C168.804 55.8842 169.059 55.7333 169.254 55.5195C169.449 55.3057 169.576 55.0386 169.62 54.7523C169.663 54.466 169.62 54.1734 169.496 53.9115C169.372 53.6497 169.174 53.4305 168.925 53.2819C168.677 53.1332 168.39 53.0618 168.101 53.0766C167.717 53.0964 167.357 53.2665 167.098 53.5502C166.838 53.8339 166.702 54.2082 166.717 54.5921Z" fill="#263238"/>
<path d="M178.536 54.0934C178.545 54.3835 178.639 54.6643 178.808 54.9002C178.977 55.1361 179.213 55.3163 179.485 55.4178C179.756 55.5193 180.052 55.5375 180.334 55.4702C180.617 55.4028 180.872 55.2529 181.069 55.0395C181.266 54.8262 181.394 54.5591 181.439 54.2723C181.483 53.9855 181.44 53.6921 181.317 53.4295C181.194 53.1668 180.995 52.9469 180.746 52.7977C180.497 52.6485 180.21 52.5768 179.92 52.5918C179.725 52.582 179.531 52.6151 179.351 52.6888C179.17 52.7625 179.008 52.875 178.876 53.0183C178.744 53.1616 178.645 53.3322 178.586 53.518C178.528 53.7038 178.51 53.9003 178.536 54.0934Z" fill="#263238"/>
<path d="M172.855 51.3462L174.066 60.6467L178.972 58.8198C177.519 55.9016 175.428 53.3475 172.855 51.3462Z" fill="#AF6152"/>
<path d="M170.571 62.2314L176.557 63.8646C176.467 64.2644 176.298 64.6421 176.059 64.9751C175.82 65.308 175.516 65.5895 175.166 65.8026C174.816 66.0157 174.427 66.1561 174.021 66.2155C173.616 66.2749 173.203 66.252 172.806 66.1482C172.001 65.9093 171.318 65.3686 170.902 64.6388C170.485 63.909 170.367 63.0465 170.571 62.2314Z" fill="#AF6152"/>
<path d="M171.249 63.2629C171.001 63.2359 170.75 63.2359 170.502 63.2629C170.534 63.9289 170.774 64.5682 171.187 65.0917C171.6 65.6152 172.166 65.9967 172.806 66.1832C173.129 66.2653 173.464 66.2934 173.796 66.2662C173.841 65.5338 173.601 64.8123 173.126 64.2526C172.652 63.6929 171.979 63.3383 171.249 63.2629Z" fill="#F28F8F"/>
<path d="M149.659 57.0835C149.659 57.0835 152.766 50.4126 159.16 47.1879C165.554 43.9632 173.083 46.0599 173.083 46.0599C173.083 46.0599 176.294 43.8455 179.519 44.0947C182.743 44.3438 184.072 45.797 184.072 45.797L180.404 35.6938C180.404 35.6938 176.612 31.6663 166.717 33.1057C156.572 34.5797 149.645 39.7281 147.015 46.5236L149.659 57.0835Z" fill="#37474F"/>
<path d="M192.715 39.6864L192.369 37.7696L165.658 21.2861L166.004 23.203L192.715 39.6864Z" fill="#455A64"/>
<path opacity="0.2" d="M192.715 39.6864L192.369 37.7696L165.658 21.2861L166.004 23.203L192.715 39.6864Z" fill="white"/>
<path d="M165.658 21.2861L166.004 23.203L137.466 49.8173L137.12 47.9005L165.658 21.2861Z" fill="#37474F"/>
<path d="M145.32 38.3234C146.89 36.9252 148.732 35.8673 150.731 35.2163L148.358 37.4376C146.421 38.5971 144.751 40.1537 143.458 42.0048C142.744 43.0068 142.123 44.0723 141.604 45.188C141.396 45.624 141.209 46.0669 141.036 46.5167C140.379 48.1627 139.946 49.8898 139.749 51.6513C139.611 52.8306 139.611 54.022 139.749 55.2013C139.902 56.4538 140.303 57.6233 140.566 58.8481C140.642 59.2287 140.026 59.291 139.874 59.0488C139.077 57.7616 138.638 56.2855 138.601 54.7722C138.487 53.3746 138.548 51.9684 138.781 50.5856C138.912 49.7494 139.094 48.922 139.327 48.1083C139.66 46.9215 140.091 45.7642 140.614 44.6483C141.739 42.2433 143.34 40.0916 145.32 38.3234Z" fill="#2D589B"/>
<path d="M147.008 68.508C145.716 67.0732 144.538 65.5391 143.486 63.92C141.41 60.7645 141.562 59.0137 140.573 59.2006C139.583 59.3874 139.362 62.6191 139.922 66.1206C140.201 67.9863 140.948 69.7507 142.095 71.2483C142.149 71.3168 142.226 71.3632 142.311 71.3785C142.397 71.3938 142.485 71.377 142.559 71.3313C142.618 71.2967 142.664 71.2426 142.688 71.1783C142.712 71.114 142.712 71.0434 142.69 70.9784C142.884 71.2137 143.009 71.3867 143.285 71.2621C143.327 71.2393 143.364 71.2081 143.393 71.1705C143.422 71.1329 143.443 71.0897 143.455 71.0436C143.466 70.9975 143.469 70.9495 143.461 70.9026C143.453 70.8556 143.436 70.8108 143.41 70.7708C142.484 69.2921 141.856 67.6465 141.562 65.9268C142.214 67.7483 143.186 69.4382 144.434 70.9161C144.489 70.9822 144.566 71.0267 144.651 71.0419C144.736 71.0571 144.823 71.042 144.898 70.9992C144.941 70.9721 144.978 70.9363 145.007 70.8941C145.035 70.8519 145.055 70.8043 145.064 70.7541C145.073 70.704 145.071 70.6525 145.06 70.603C145.048 70.5534 145.026 70.5069 144.995 70.4663C143.36 68.5475 142.202 66.2686 141.618 63.8162C142.406 65.9869 143.596 67.9895 145.126 69.719C145.191 69.8046 145.287 69.8614 145.393 69.8769C145.499 69.8924 145.607 69.8655 145.694 69.802C145.734 69.7657 145.766 69.7214 145.788 69.6719C145.81 69.6225 145.821 69.5689 145.821 69.5148C145.821 69.4607 145.81 69.4072 145.788 69.3578C145.766 69.3083 145.734 69.264 145.694 69.2277C144.472 67.8364 143.479 66.2597 142.753 64.5567C142.856 64.702 145.05 67.5461 146.386 69.0408C146.442 69.1041 146.518 69.1457 146.601 69.1584C146.685 69.171 146.77 69.1539 146.842 69.11H146.898C146.955 69.0877 147.005 69.0512 147.044 69.0039C147.083 68.9567 147.11 68.9002 147.121 68.8399C147.132 68.7795 147.127 68.7174 147.108 68.6593C147.088 68.6012 147.054 68.5491 147.008 68.508ZM140.427 63.664C140.614 65.3179 140.953 68.0859 142.33 70.3625C140.968 68.4039 140.298 66.0465 140.427 63.664Z" fill="#2D589B"/>
<path d="M141.223 58.3841C141.096 58.2842 140.949 58.2103 140.793 58.1668C140.637 58.1233 140.474 58.111 140.313 58.1306C140.152 58.1502 139.996 58.2013 139.855 58.281C139.714 58.3608 139.59 58.4675 139.49 58.5952C139.39 58.7229 139.316 58.869 139.273 59.0252C139.229 59.1814 139.217 59.3447 139.236 59.5056C139.256 59.6666 139.307 59.8221 139.387 59.9633C139.466 60.1045 139.573 60.2287 139.701 60.3286C139.959 60.5305 140.286 60.6217 140.611 60.5821C140.936 60.5425 141.232 60.3754 141.434 60.1176C141.636 59.8597 141.727 59.5322 141.688 59.2071C141.648 58.882 141.481 58.586 141.223 58.3841Z" fill="#2D589B"/>
<path opacity="0.2" d="M141.223 58.3841C141.096 58.2842 140.949 58.2103 140.793 58.1668C140.637 58.1233 140.474 58.111 140.313 58.1306C140.152 58.1502 139.996 58.2013 139.855 58.281C139.714 58.3608 139.59 58.4675 139.49 58.5952C139.39 58.7229 139.316 58.869 139.273 59.0252C139.229 59.1814 139.217 59.3447 139.236 59.5056C139.256 59.6666 139.307 59.8221 139.387 59.9633C139.466 60.1045 139.573 60.2287 139.701 60.3286C139.959 60.5305 140.286 60.6217 140.611 60.5821C140.936 60.5425 141.232 60.3754 141.434 60.1176C141.636 59.8597 141.727 59.5322 141.688 59.2071C141.648 58.882 141.481 58.586 141.223 58.3841Z" fill="black"/>
<path d="M174.308 85.7115C174.308 85.7115 176.308 83.7462 176.571 81.6702C176.785 79.961 173.893 79.6357 173.893 79.6357L172.308 82.556L174.308 85.7115Z" fill="#263238"/>
<path d="M173.491 89.1299C176.55 95.9668 178.238 114.734 178.238 114.734L174.467 127.107L168.156 116.146C168.156 116.146 169.928 97.8698 169.928 89.6766L173.491 89.1299Z" fill="#263238"/>
<path d="M172.308 82.5562C171.414 83.0795 170.388 83.3342 169.353 83.2897L168.01 86.0577L169.893 89.6492C169.893 89.6492 172.557 89.8221 173.47 89.1025L174.287 85.684C174.287 85.684 173.27 83.2274 172.308 82.5562Z" fill="#37474F"/>
<path d="M169.374 83.2893L163.872 80.459L161.291 83.3515L168.073 86.1195C168.481 85.7691 168.808 85.3349 169.032 84.8464C169.257 84.358 169.373 83.8268 169.374 83.2893Z" fill="#263238"/>
<path d="M153.444 77.3383C153.444 77.3383 153.769 84.9918 164.357 88.4103C165.596 86.5765 167.63 82.8743 169.415 83.2687C169.813 83.3189 170.217 83.2954 170.606 83.1995C170.326 82.5738 169.929 82.0076 169.436 81.5318C168.315 80.5561 163.478 79.6149 160.592 77.6704C157.707 75.7259 157.887 74.2104 157.887 74.2104L157.824 72.4043C157.042 72.4943 155.485 75.0547 153.444 77.3383Z" fill="#E0E0E0"/>
<path d="M171.346 83.0402C171.666 82.9282 171.977 82.7893 172.273 82.625H172.315C173.699 81.8846 175.927 84.0713 177.159 86.1958C178.349 84.5626 179.145 80.3414 178.619 77.9402L176.46 74.757C176.012 74.1418 175.368 73.6976 174.633 73.4976V76.9576C174.449 78.0008 174.014 78.9837 173.367 79.8224C172.564 80.6736 171.761 81.2064 171.346 83.0402Z" fill="#E0E0E0"/>
<path d="M154.427 76.1895C154.427 76.1895 166.938 94.8043 174.453 113.758C177.401 100.915 179.712 86.1612 176.91 75.3452C176.91 75.3452 185.657 77.4973 187.539 78.4039C189.421 79.3104 194.127 85.5107 195.628 96.3336C197.13 107.156 197.601 147.071 197.601 147.071C197.601 147.071 190.314 152.607 173.187 153.41C147.583 154.621 141.057 148.164 141.057 148.164C141.057 148.164 142.026 134.262 141.749 126.353C141.472 118.443 139.576 100.389 140.518 91.5449C141.459 82.7012 141.749 82.1337 141.749 82.1337L154.427 76.1895Z" fill="#455A64"/>
<path d="M174.647 116.201L181.996 101.268L180.217 95.0399C180.217 95.0399 184.432 85.0128 184.127 77.2762C180.944 76.3559 176.91 75.3594 176.91 75.3594C179.678 86.1753 177.401 100.963 174.453 113.772C166.938 94.8046 154.427 76.1898 154.427 76.1898L144.912 80.6393L162.959 97.8909L162.717 102.901L174.647 116.201Z" fill="#37474F"/>
<path d="M140.753 82.1341C140.753 82.1341 137.915 89.1371 137.729 95.3513C137.542 101.565 138.78 111.959 139.182 117.544C139.583 123.128 139.625 132.152 139.23 144.352C138.836 156.552 131.39 229.904 131.39 229.904C131.39 229.904 141.493 236.09 156.662 235.855C156.662 235.855 161.942 164.454 160.814 138.491C159.686 112.527 154.115 75.5186 154.115 75.5186L140.753 82.1341Z" fill="#37474F"/>
<path d="M184.937 137.556C184.937 163.728 184.141 233.827 184.141 233.827C184.141 233.827 194.936 233.239 200.112 227.433C200.112 179.983 199.372 150.836 198.888 133.896C198.403 116.956 199.24 101.067 197.248 92.1819C195.255 83.2967 190.127 78.7364 190.127 78.7364L179.968 76.1206C179.968 76.1206 185.899 85.857 186.162 100.541C186.425 115.226 184.937 137.556 184.937 137.556Z" fill="#37474F"/>
<path d="M138.587 110.713L142.593 106.098L138.974 114.976L138.587 110.713Z" fill="#263238"/>
<path d="M130.996 159.506C129.951 158.295 128.594 157.209 128.193 155.596C128.077 155.183 128.058 154.749 128.138 154.327C128.219 153.906 128.396 153.509 128.657 153.167C128.788 153.046 128.892 152.897 128.961 152.731C128.996 152.586 128.996 152.434 128.961 152.289C128.832 151.68 128.895 151.047 129.141 150.476C129.261 150.242 129.429 150.037 129.634 149.873C129.839 149.71 130.077 149.592 130.331 149.528C130.064 148.618 130.1 147.646 130.435 146.76C130.829 145.728 131.93 144.933 132.601 146.123C132.918 146.711 133.173 147.33 133.362 147.971C133.86 149.555 134.552 151.216 134.67 152.87C134.788 154.524 134.67 159.513 131.957 159.658C131.736 159.686 131.148 159.679 130.996 159.506Z" fill="#AF6152"/>
<path d="M140.545 83.9189C132.933 85.4829 129.916 89.711 124.705 96.9355C118.678 105.295 112.803 113.149 110.761 117.197C108.236 122.214 107.675 124.117 112.955 129.743C115.682 132.622 119.494 136.075 123.37 139.95C126.421 143.016 130.117 146.275 133.058 149.438C133.457 149.78 133.751 150.23 133.904 150.734C134.058 151.237 134.064 151.774 133.923 152.282C133.681 152.962 133.478 153.655 133.314 154.358C133.289 155.282 133.336 156.208 133.452 157.126C133.452 158.046 133.148 159.084 132.303 159.451C131.882 159.598 131.429 159.637 130.989 159.561C131.735 160.169 132.57 160.657 133.466 161.008C134.369 161.364 135.373 161.364 136.275 161.008C137.127 160.634 137.777 159.852 138.677 159.624C139.161 159.492 139.68 159.534 140.171 159.416C140.678 159.302 141.132 159.025 141.465 158.627C141.998 157.998 142.234 157.084 142.967 156.717C143.334 156.585 143.708 156.474 144.088 156.385C144.456 156.224 144.779 155.977 145.03 155.663C145.28 155.35 145.451 154.98 145.527 154.586C145.669 153.797 145.669 152.988 145.527 152.199C145.276 150.064 144.907 147.946 144.42 145.853C144.221 145.144 143.898 144.477 143.465 143.881C143.002 143.189 142.566 142.441 142.081 141.756C138.677 137.141 127.916 121.758 127.916 121.758L139.286 108.983C139.286 108.983 146.773 98.8108 140.545 83.9189Z" fill="#C8856A"/>
<path d="M130.995 159.506C132.746 160.89 135.369 161.962 137.223 160.198C137.678 159.807 138.215 159.523 138.794 159.367C139.964 159.271 141.092 159.111 141.652 157.983C141.902 157.427 142.279 156.936 142.752 156.551C143.334 156.198 143.95 156.274 144.365 155.949C144.798 155.627 145.114 155.173 145.264 154.655C145.728 151.956 144.745 148.863 144.275 146.164C143.929 144.469 142.676 143.175 141.811 141.708L139.805 138.864C135.916 133.328 131.667 127.231 127.895 121.681C131.881 127.065 136.234 133.127 140.144 138.607L142.164 141.445C143.071 142.926 144.393 144.31 144.725 146.067C145.057 147.825 145.417 149.527 145.631 151.23C145.874 152.398 145.874 153.604 145.631 154.773C145.452 155.379 145.075 155.908 144.559 156.274C144.005 156.655 143.334 156.586 142.919 156.856C142.49 157.206 142.144 157.648 141.908 158.15C141.609 158.692 141.136 159.119 140.566 159.361C140 159.52 139.417 159.613 138.829 159.637C137.694 159.859 136.919 160.959 135.756 161.194C133.971 161.596 132.296 160.565 130.954 159.499L130.995 159.506Z" fill="#AF6152"/>
<path d="M127.916 121.688C124.691 124.664 119.827 124.761 118.034 124.595C119.803 125.393 121.761 125.674 123.682 125.406C125.604 125.138 127.41 124.331 128.892 123.079L127.916 121.688Z" fill="#F28F8F"/>
<path d="M141.728 82.1338C135.535 84.5073 133.424 83.4209 125.729 93.7525C120.609 100.61 110.671 114.409 108.9 118.588C107.128 122.768 107.578 123.218 109.398 128.678C110.588 132.262 119.778 152.206 119.778 152.206C119.778 152.206 127.895 152.981 134.753 148.746C141.611 144.511 141.708 140.857 141.708 140.857L129.252 121.737C129.252 121.737 141.016 107.835 142.891 105.821C144.766 103.807 145.431 87.3861 141.728 82.1338Z" fill="#37474F"/>
<path d="M129.279 121.688C126.214 124.699 120.498 124.975 117.675 124.346C120.989 126.263 126.871 126.29 130.456 123.502L129.279 121.688Z" fill="#263238"/>
<path d="M157.81 71.7539C157.409 75.9682 158.897 87.7599 159.935 96.486C160.973 105.212 160.807 138.49 160.807 138.49C159.139 126.782 154.579 115.758 149.984 110.866C139.957 100.181 131.57 101.496 125.764 93.109C131.418 85.2963 132.186 84.2653 136.538 82.1339C141.445 79.7257 144.842 78.3763 150.171 76.2519C155.305 74.1967 157.81 71.7539 157.81 71.7539Z" fill="#263238"/>
<path d="M174.64 73.4287C177.384 76.2686 179.553 79.6124 181.027 83.2759C184.757 93.1784 184.84 128.256 184.937 137.556C187.366 123.606 187.573 112.9 192.494 105.863C197.414 98.8251 202.998 93.8981 204.368 88.888C201.941 86.3447 199.344 83.9681 196.597 81.7742C191.372 77.4423 187.684 76.3559 184.141 75.4978C180.598 74.6397 174.64 73.4287 174.64 73.4287Z" fill="#263238"/>
<path d="M142.594 79.1862L174.1 106.97L190.95 77.906C188.863 76.6562 186.549 75.8308 184.141 75.4771L172.889 96.3478L149.597 76.3974L142.594 79.1862Z" fill="#2D589B"/>
<path opacity="0.3" d="M173.187 98.389L148.42 76.8609L143.832 78.6877L173.969 104.762L189.885 77.3383C188.505 76.6472 187.049 76.1223 185.546 75.7744L173.187 98.389Z" fill="white"/>
<path d="M180.068 112.801C180.842 109.52 178.81 106.233 175.529 105.459C172.249 104.684 168.961 106.716 168.187 109.997C167.413 113.277 169.445 116.565 172.725 117.339C176.006 118.113 179.293 116.082 180.068 112.801Z" fill="#E0E0E0"/>
<g opacity="0.1">
<path d="M174.135 116.706C173.086 116.706 172.061 116.395 171.189 115.813C170.317 115.23 169.638 114.402 169.237 113.433C168.836 112.464 168.731 111.397 168.936 110.369C169.141 109.341 169.647 108.396 170.389 107.655C171.131 106.914 172.076 106.41 173.105 106.206C174.134 106.002 175.2 106.108 176.168 106.51C177.136 106.913 177.964 107.593 178.545 108.466C179.127 109.338 179.437 110.364 179.435 111.413C179.432 112.817 178.872 114.162 177.878 115.154C176.885 116.146 175.539 116.705 174.135 116.706ZM174.135 106.776C173.219 106.775 172.323 107.045 171.561 107.553C170.799 108.061 170.204 108.783 169.853 109.629C169.501 110.475 169.409 111.406 169.586 112.305C169.764 113.203 170.205 114.029 170.852 114.677C171.499 115.325 172.324 115.767 173.222 115.946C174.12 116.125 175.051 116.034 175.898 115.683C176.744 115.333 177.468 114.74 177.977 113.978C178.486 113.217 178.757 112.322 178.757 111.406C178.757 110.179 178.27 109.003 177.404 108.135C176.537 107.267 175.361 106.778 174.135 106.776Z" fill="black"/>
</g>
<path d="M212.264 145.32C212.264 147.396 212.216 149.368 209.233 149.832C212.382 149.79 212.146 151.776 212.299 154.26C212.382 151.776 212.596 149.991 215.067 149.873C212.513 149.43 212.582 148.254 212.264 145.32Z" fill="#E0E0E0"/>
<path d="M100.728 140.815C100.728 143.403 100.665 145.894 96.9285 146.475C100.873 146.427 100.575 148.911 100.769 152.011C100.873 148.891 101.15 146.655 104.229 146.51C101.032 146.012 101.129 144.524 100.728 140.815Z" fill="#E0E0E0"/>
<path d="M207.129 60.5361C207.171 64.2453 207.039 67.809 201.683 68.6464C207.344 68.5702 206.915 72.1064 207.219 76.6044C207.372 72.134 207.759 68.9301 212.174 68.7156C207.6 67.9613 207.704 65.8507 207.129 60.5361Z" fill="#E0E0E0"/>
<path d="M256.165 119.48C256.206 123.632 256.061 127.563 250.116 128.476C256.4 128.393 255.922 132.352 256.227 137.313C256.4 132.352 256.836 128.795 261.763 128.56C256.663 127.729 256.801 125.383 256.165 119.48Z" fill="#E0E0E0"/>
<path d="M88.1124 94.8042C88.1124 97.7936 88.0363 100.665 83.7251 101.337C88.2785 101.274 87.9325 104.153 88.1608 107.745C88.2785 104.153 88.5968 101.565 92.1467 101.399C88.4722 100.783 88.576 99.0808 88.1124 94.8042Z" fill="#E0E0E0"/>
<path d="M111.668 61.4844C111.35 67.8785 110.976 71.0271 104.665 71.8644C110.748 72.2104 111.315 76.3278 111.668 82.0437C111.862 76.3278 112.402 72.2311 118.034 71.9613C112.208 70.9786 111.952 67.9477 111.668 61.4844Z" fill="#E0E0E0"/>
<path d="M274.198 104.077C274.198 106.374 274.143 108.872 270.821 109.384C274.329 109.336 274.067 111.273 274.24 114.048C274.329 111.28 274.572 109.287 277.312 109.156C274.482 108.685 274.558 107.371 274.198 104.077Z" fill="#E0E0E0"/>
<path d="M258.995 69.041C258.995 71.3454 258.94 73.8366 255.618 74.3487C259.126 74.3071 258.863 76.2378 259.029 79.0127C259.126 76.2447 259.369 74.2518 262.109 74.1203C259.279 73.6497 259.355 72.3419 258.995 69.041Z" fill="#E0E0E0"/>
<path d="M85.7041 65.6982C85.5519 69.096 85.5519 70.5838 82.2441 70.826C85.5381 70.9851 85.5173 73.0058 85.7041 75.8222C85.801 73.0058 85.9325 71.0958 88.8458 70.826C85.974 70.646 85.8771 69.1306 85.7041 65.6982Z" fill="#E0E0E0"/>
</svg>
